<?xml version="1.0" encoding="UTF-8" standalone="no"?>
<!DOCTYPE svg PUBLIC "-//W3C//DTD SVG 1.1//EN"
 "http://www.w3.org/Graphics/SVG/1.1/DTD/svg11.dtd">
<!-- Generated by graphviz version 2.38.0 (20140413.2041)
 -->
<!-- Pages: 1 -->
<svg width="1582pt" height="980pt"
 viewBox="0.00 0.00 1582.44 980.00" xmlns="http://www.w3.org/2000/svg" xmlns:xlink="http://www.w3.org/1999/xlink">
<g id="graph0" class="graph" transform="scale(1 1) rotate(0) translate(4 976)">
<polygon fill="white" stroke="none" points="-4,4 -4,-976 1578.44,-976 1578.44,4 -4,4"/>
<!-- logger -->
<g id="node1" class="node"><title>logger</title>
<ellipse fill="none" stroke="black" cx="363.795" cy="-162" rx="40.0939" ry="18"/>
<text text-anchor="middle" x="363.795" y="-158.3" font-family="Times,serif" font-size="14.00">logger</text>
</g>
<!-- Boost -->
<g id="node25" class="node"><title>Boost</title>
<ellipse fill="none" stroke="black" cx="429.795" cy="-90" rx="37.0935" ry="18"/>
<text text-anchor="middle" x="429.795" y="-86.3" font-family="Times,serif" font-size="14.00">Boost</text>
</g>
<!-- logger&#45;&gt;Boost -->
<g id="edge1" class="edge"><title>logger&#45;&gt;Boost</title>
<path fill="none" stroke="black" d="M378.771,-145.116C387.378,-135.987 398.345,-124.355 407.904,-114.217"/>
<polygon fill="black" stroke="black" points="410.564,-116.498 414.877,-106.821 405.471,-111.696 410.564,-116.498"/>
</g>
<!-- error -->
<g id="node29" class="node"><title>error</title>
<ellipse fill="none" stroke="black" cx="257.795" cy="-90" rx="34.394" ry="18"/>
<text text-anchor="middle" x="257.795" y="-86.3" font-family="Times,serif" font-size="14.00">error</text>
</g>
<!-- logger&#45;&gt;error -->
<g id="edge2" class="edge"><title>logger&#45;&gt;error</title>
<path fill="none" stroke="black" d="M342.088,-146.666C326.202,-136.175 304.471,-121.824 287.053,-110.322"/>
<polygon fill="black" stroke="black" points="288.665,-107.192 278.392,-104.602 284.807,-113.033 288.665,-107.192"/>
</g>
<!-- importance_analysis -->
<g id="node2" class="node"><title>importance_analysis</title>
<ellipse fill="none" stroke="black" cx="743.795" cy="-738" rx="106.681" ry="18"/>
<text text-anchor="middle" x="743.795" y="-734.3" font-family="Times,serif" font-size="14.00">importance_analysis</text>
</g>
<!-- probability_analysis -->
<g id="node37" class="node"><title>probability_analysis</title>
<ellipse fill="none" stroke="black" cx="907.795" cy="-666" rx="103.982" ry="18"/>
<text text-anchor="middle" x="907.795" y="-662.3" font-family="Times,serif" font-size="14.00">probability_analysis</text>
</g>
<!-- importance_analysis&#45;&gt;probability_analysis -->
<g id="edge3" class="edge"><title>importance_analysis&#45;&gt;probability_analysis</title>
<path fill="none" stroke="black" d="M781.009,-721.116C804.808,-710.958 835.868,-697.701 861.288,-686.85"/>
<polygon fill="black" stroke="black" points="862.904,-689.966 870.728,-682.821 860.156,-683.528 862.904,-689.966"/>
</g>
<!-- ccf_group -->
<g id="node3" class="node"><title>ccf_group</title>
<ellipse fill="none" stroke="black" cx="954.795" cy="-450" rx="57.3905" ry="18"/>
<text text-anchor="middle" x="954.795" y="-446.3" font-family="Times,serif" font-size="14.00">ccf_group</text>
</g>
<!-- event -->
<g id="node4" class="node"><title>event</title>
<ellipse fill="none" stroke="black" cx="896.795" cy="-306" rx="36.2938" ry="18"/>
<text text-anchor="middle" x="896.795" y="-302.3" font-family="Times,serif" font-size="14.00">event</text>
</g>
<!-- ccf_group&#45;&gt;event -->
<g id="edge4" class="edge"><title>ccf_group&#45;&gt;event</title>
<path fill="none" stroke="black" d="M947.798,-431.871C937.772,-407.325 919.234,-361.938 907.484,-333.17"/>
<polygon fill="black" stroke="black" points="910.657,-331.682 903.635,-323.748 904.177,-334.329 910.657,-331.682"/>
</g>
<!-- expression/numerical -->
<g id="node16" class="node"><title>expression/numerical</title>
<ellipse fill="none" stroke="black" cx="1149.79" cy="-378" rx="110.48" ry="18"/>
<text text-anchor="middle" x="1149.79" y="-374.3" font-family="Times,serif" font-size="14.00">expression/numerical</text>
</g>
<!-- ccf_group&#45;&gt;expression/numerical -->
<g id="edge5" class="edge"><title>ccf_group&#45;&gt;expression/numerical</title>
<path fill="none" stroke="black" d="M991.016,-435.998C1020.69,-425.346 1063.1,-410.123 1096.62,-398.088"/>
<polygon fill="black" stroke="black" points="1098.04,-401.298 1106.27,-394.625 1095.67,-394.709 1098.04,-401.298"/>
</g>
<!-- expression -->
<g id="node18" class="node"><title>expression</title>
<ellipse fill="none" stroke="black" cx="827.795" cy="-234" rx="61.1893" ry="18"/>
<text text-anchor="middle" x="827.795" y="-230.3" font-family="Times,serif" font-size="14.00">expression</text>
</g>
<!-- event&#45;&gt;expression -->
<g id="edge6" class="edge"><title>event&#45;&gt;expression</title>
<path fill="none" stroke="black" d="M881.481,-289.465C872.623,-280.478 861.289,-268.98 851.32,-258.867"/>
<polygon fill="black" stroke="black" points="853.539,-256.132 844.027,-251.467 848.554,-261.046 853.539,-256.132"/>
</g>
<!-- env -->
<g id="node5" class="node"><title>env</title>
<ellipse fill="none" stroke="black" cx="27.7946" cy="-378" rx="27.0966" ry="18"/>
<text text-anchor="middle" x="27.7946" y="-374.3" font-family="Times,serif" font-size="14.00">env</text>
</g>
<!-- STL -->
<g id="node31" class="node"><title>STL</title>
<ellipse fill="none" stroke="black" cx="257.795" cy="-18" rx="28.6953" ry="18"/>
<text text-anchor="middle" x="257.795" y="-14.3" font-family="Times,serif" font-size="14.00">STL</text>
</g>
<!-- env&#45;&gt;STL -->
<g id="edge7" class="edge"><title>env&#45;&gt;STL</title>
<path fill="none" stroke="black" d="M27.7946,-359.951C27.7946,-333.292 27.7946,-280.115 27.7946,-235 27.7946,-235 27.7946,-235 27.7946,-161 27.7946,-71.688 154.913,-36.6887 220.143,-24.6084"/>
<polygon fill="black" stroke="black" points="220.811,-28.0447 230.051,-22.8616 219.595,-21.151 220.811,-28.0447"/>
</g>
<!-- xml -->
<g id="node6" class="node"><title>xml</title>
<ellipse fill="none" stroke="black" cx="117.795" cy="-378" rx="27.8951" ry="18"/>
<text text-anchor="middle" x="117.795" y="-374.3" font-family="Times,serif" font-size="14.00">xml</text>
</g>
<!-- xml&#45;&gt;Boost -->
<g id="edge9" class="edge"><title>xml&#45;&gt;Boost</title>
<path fill="none" stroke="black" d="M139.75,-366.421C157.648,-357.04 182.815,-342.047 200.795,-324 267.629,-256.916 243.543,-206.372 314.795,-144 336.216,-125.249 365.392,-111.906 388.997,-103.298"/>
<polygon fill="black" stroke="black" points="390.446,-106.499 398.733,-99.8973 388.138,-99.891 390.446,-106.499"/>
</g>
<!-- xml&#45;&gt;error -->
<g id="edge10" class="edge"><title>xml&#45;&gt;error</title>
<path fill="none" stroke="black" d="M105.174,-361.877C97.6413,-351.832 88.7869,-337.965 84.7946,-324 80.3967,-308.616 79.3171,-303.033 84.7946,-288 113.222,-209.98 188.988,-143.115 230.188,-111.127"/>
<polygon fill="black" stroke="black" points="232.361,-113.871 238.184,-105.02 228.112,-108.308 232.361,-113.871"/>
</g>
<!-- LibXML -->
<g id="node46" class="node"><title>LibXML</title>
<ellipse fill="none" stroke="black" cx="142.795" cy="-306" rx="48.9926" ry="18"/>
<text text-anchor="middle" x="142.795" y="-302.3" font-family="Times,serif" font-size="14.00">LibXML</text>
</g>
<!-- xml&#45;&gt;LibXML -->
<g id="edge8" class="edge"><title>xml&#45;&gt;LibXML</title>
<path fill="none" stroke="black" d="M123.846,-360.055C126.66,-352.176 130.074,-342.617 133.225,-333.794"/>
<polygon fill="black" stroke="black" points="136.557,-334.87 136.625,-324.275 129.965,-332.516 136.557,-334.87"/>
</g>
<!-- expression/exponential -->
<g id="node7" class="node"><title>expression/exponential</title>
<ellipse fill="none" stroke="black" cx="809.795" cy="-594" rx="118.079" ry="18"/>
<text text-anchor="middle" x="809.795" y="-590.3" font-family="Times,serif" font-size="14.00">expression/exponential</text>
</g>
<!-- expression/exponential&#45;&gt;expression -->
<g id="edge11" class="edge"><title>expression/exponential&#45;&gt;expression</title>
<path fill="none" stroke="black" d="M798.571,-575.684C784.178,-552.344 759.98,-508.979 750.795,-468 747.295,-452.387 746.781,-447.488 750.795,-432 755.386,-414.282 763.27,-412.685 770.795,-396 791.474,-350.147 809.776,-294.366 819.771,-261.949"/>
<polygon fill="black" stroke="black" points="823.148,-262.874 822.717,-252.288 816.453,-260.832 823.148,-262.874"/>
</g>
<!-- instruction -->
<g id="node8" class="node"><title>instruction</title>
<ellipse fill="none" stroke="black" cx="1091.79" cy="-450" rx="61.99" ry="18"/>
<text text-anchor="middle" x="1091.79" y="-446.3" font-family="Times,serif" font-size="14.00">instruction</text>
</g>
<!-- instruction&#45;&gt;event -->
<g id="edge12" class="edge"><title>instruction&#45;&gt;event</title>
<path fill="none" stroke="black" d="M1061.61,-434.048C1042.68,-424.176 1018.11,-410.434 997.795,-396 969.204,-375.681 939.424,-348.598 919.675,-329.665"/>
<polygon fill="black" stroke="black" points="921.986,-327.032 912.367,-322.591 917.118,-332.061 921.986,-327.032"/>
</g>
<!-- version -->
<g id="node9" class="node"><title>version</title>
<ellipse fill="none" stroke="black" cx="470.795" cy="-810" rx="44.6926" ry="18"/>
<text text-anchor="middle" x="470.795" y="-806.3" font-family="Times,serif" font-size="14.00">version</text>
</g>
<!-- config -->
<g id="node10" class="node"><title>config</title>
<ellipse fill="none" stroke="black" cx="50.7946" cy="-450" rx="38.9931" ry="18"/>
<text text-anchor="middle" x="50.7946" y="-446.3" font-family="Times,serif" font-size="14.00">config</text>
</g>
<!-- config&#45;&gt;env -->
<g id="edge14" class="edge"><title>config&#45;&gt;env</title>
<path fill="none" stroke="black" d="M45.2269,-432.055C42.5995,-424.059 39.4033,-414.331 36.4687,-405.4"/>
<polygon fill="black" stroke="black" points="39.7577,-404.197 33.311,-395.789 33.1075,-406.382 39.7577,-404.197"/>
</g>
<!-- config&#45;&gt;xml -->
<g id="edge15" class="edge"><title>config&#45;&gt;xml</title>
<path fill="none" stroke="black" d="M65.9979,-433.116C74.9817,-423.73 86.498,-411.698 96.3893,-401.364"/>
<polygon fill="black" stroke="black" points="99.1815,-403.508 103.568,-393.864 94.1246,-398.668 99.1815,-403.508"/>
</g>
<!-- settings -->
<g id="node12" class="node"><title>settings</title>
<ellipse fill="none" stroke="black" cx="371.795" cy="-378" rx="48.1917" ry="18"/>
<text text-anchor="middle" x="371.795" y="-374.3" font-family="Times,serif" font-size="14.00">settings</text>
</g>
<!-- config&#45;&gt;settings -->
<g id="edge13" class="edge"><title>config&#45;&gt;settings</title>
<path fill="none" stroke="black" d="M85.4522,-441.442C142.235,-429.06 255.335,-404.396 321.124,-390.05"/>
<polygon fill="black" stroke="black" points="322.236,-393.389 331.261,-387.839 320.745,-386.55 322.236,-393.389"/>
</g>
<!-- mocus -->
<g id="node11" class="node"><title>mocus</title>
<ellipse fill="none" stroke="black" cx="390.795" cy="-738" rx="40.8928" ry="18"/>
<text text-anchor="middle" x="390.795" y="-734.3" font-family="Times,serif" font-size="14.00">mocus</text>
</g>
<!-- zbdd -->
<g id="node33" class="node"><title>zbdd</title>
<ellipse fill="none" stroke="black" cx="432.795" cy="-522" rx="33.2948" ry="18"/>
<text text-anchor="middle" x="432.795" y="-518.3" font-family="Times,serif" font-size="14.00">zbdd</text>
</g>
<!-- mocus&#45;&gt;zbdd -->
<g id="edge16" class="edge"><title>mocus&#45;&gt;zbdd</title>
<path fill="none" stroke="black" d="M394.161,-719.849C401.459,-682.662 418.787,-594.374 427.54,-549.772"/>
<polygon fill="black" stroke="black" points="430.979,-550.422 429.471,-539.935 424.11,-549.074 430.979,-550.422"/>
</g>
<!-- settings&#45;&gt;Boost -->
<g id="edge18" class="edge"><title>settings&#45;&gt;Boost</title>
<path fill="none" stroke="black" d="M375.454,-359.891C382.739,-325.732 399.498,-246.633 412.795,-180 416.924,-159.304 421.394,-135.858 424.714,-118.227"/>
<polygon fill="black" stroke="black" points="428.214,-118.552 426.619,-108.078 421.334,-117.261 428.214,-118.552"/>
</g>
<!-- settings&#45;&gt;error -->
<g id="edge17" class="edge"><title>settings&#45;&gt;error</title>
<path fill="none" stroke="black" d="M365.005,-359.966C345.877,-311.979 291.442,-175.414 268.354,-117.491"/>
<polygon fill="black" stroke="black" points="271.503,-115.938 264.549,-107.945 265,-118.53 271.503,-115.938"/>
</g>
<!-- expression/constant -->
<g id="node13" class="node"><title>expression/constant</title>
<ellipse fill="none" stroke="black" cx="1144.79" cy="-306" rx="104.782" ry="18"/>
<text text-anchor="middle" x="1144.79" y="-302.3" font-family="Times,serif" font-size="14.00">expression/constant</text>
</g>
<!-- expression/constant&#45;&gt;expression -->
<g id="edge19" class="edge"><title>expression/constant&#45;&gt;expression</title>
<path fill="none" stroke="black" d="M1083.3,-291.42C1026.01,-278.769 941.242,-260.052 885.28,-247.694"/>
<polygon fill="black" stroke="black" points="885.699,-244.202 875.179,-245.463 884.189,-251.037 885.699,-244.202"/>
</g>
<!-- random -->
<g id="node14" class="node"><title>random</title>
<ellipse fill="none" stroke="black" cx="1178.79" cy="-234" rx="46.2923" ry="18"/>
<text text-anchor="middle" x="1178.79" y="-230.3" font-family="Times,serif" font-size="14.00">random</text>
</g>
<!-- random&#45;&gt;Boost -->
<g id="edge21" class="edge"><title>random&#45;&gt;Boost</title>
<path fill="none" stroke="black" d="M1135,-227.969C1023.57,-214.576 720.75,-174.472 475.795,-108 473.021,-107.247 470.18,-106.398 467.336,-105.49"/>
<polygon fill="black" stroke="black" points="468.351,-102.138 457.756,-102.234 466.098,-108.766 468.351,-102.138"/>
</g>
<!-- random&#45;&gt;STL -->
<g id="edge20" class="edge"><title>random&#45;&gt;STL</title>
<path fill="none" stroke="black" d="M1142.37,-222.766C1045.91,-195.866 775.594,-121.815 547.795,-72 457.608,-52.2779 350.541,-34.0361 295.154,-24.9796"/>
<polygon fill="black" stroke="black" points="295.54,-21.4964 285.107,-23.345 294.415,-28.4055 295.54,-21.4964"/>
</g>
<!-- expression/conditional -->
<g id="node15" class="node"><title>expression/conditional</title>
<ellipse fill="none" stroke="black" cx="587.795" cy="-306" rx="115.88" ry="18"/>
<text text-anchor="middle" x="587.795" y="-302.3" font-family="Times,serif" font-size="14.00">expression/conditional</text>
</g>
<!-- expression/conditional&#45;&gt;expression -->
<g id="edge22" class="edge"><title>expression/conditional&#45;&gt;expression</title>
<path fill="none" stroke="black" d="M639.576,-289.897C680.058,-278.09 736.051,-261.759 776.427,-249.982"/>
<polygon fill="black" stroke="black" points="777.459,-253.327 786.079,-247.167 775.499,-246.607 777.459,-253.327"/>
</g>
<!-- expression/numerical&#45;&gt;expression/constant -->
<g id="edge23" class="edge"><title>expression/numerical&#45;&gt;expression/constant</title>
<path fill="none" stroke="black" d="M1148.56,-359.697C1148.01,-351.983 1147.35,-342.712 1146.73,-334.112"/>
<polygon fill="black" stroke="black" points="1150.22,-333.83 1146.02,-324.104 1143.24,-334.328 1150.22,-333.83"/>
</g>
<!-- fault_tree_analysis -->
<g id="node17" class="node"><title>fault_tree_analysis</title>
<ellipse fill="none" stroke="black" cx="536.795" cy="-594" rx="98.5829" ry="18"/>
<text text-anchor="middle" x="536.795" y="-590.3" font-family="Times,serif" font-size="14.00">fault_tree_analysis</text>
</g>
<!-- analysis -->
<g id="node30" class="node"><title>analysis</title>
<ellipse fill="none" stroke="black" cx="609.795" cy="-522" rx="48.1917" ry="18"/>
<text text-anchor="middle" x="609.795" y="-518.3" font-family="Times,serif" font-size="14.00">analysis</text>
</g>
<!-- fault_tree_analysis&#45;&gt;analysis -->
<g id="edge26" class="edge"><title>fault_tree_analysis&#45;&gt;analysis</title>
<path fill="none" stroke="black" d="M554.466,-576.055C563.746,-567.156 575.263,-556.112 585.383,-546.408"/>
<polygon fill="black" stroke="black" points="587.993,-548.754 592.789,-539.307 583.148,-543.702 587.993,-548.754"/>
</g>
<!-- fault_tree_analysis&#45;&gt;zbdd -->
<g id="edge25" class="edge"><title>fault_tree_analysis&#45;&gt;zbdd</title>
<path fill="none" stroke="black" d="M512.148,-576.411C496.842,-566.109 477.117,-552.832 461.161,-542.093"/>
<polygon fill="black" stroke="black" points="462.987,-539.103 452.737,-536.423 459.079,-544.91 462.987,-539.103"/>
</g>
<!-- preprocessor -->
<g id="node35" class="node"><title>preprocessor</title>
<ellipse fill="none" stroke="black" cx="585.795" cy="-450" rx="72.2875" ry="18"/>
<text text-anchor="middle" x="585.795" y="-446.3" font-family="Times,serif" font-size="14.00">preprocessor</text>
</g>
<!-- fault_tree_analysis&#45;&gt;preprocessor -->
<g id="edge24" class="edge"><title>fault_tree_analysis&#45;&gt;preprocessor</title>
<path fill="none" stroke="black" d="M537.956,-575.752C539.63,-557.433 543.603,-527.882 552.795,-504 556.493,-494.39 561.991,-484.614 567.444,-476.118"/>
<polygon fill="black" stroke="black" points="570.367,-478.043 573.032,-467.789 564.554,-474.143 570.367,-478.043"/>
</g>
<!-- element -->
<g id="node39" class="node"><title>element</title>
<ellipse fill="none" stroke="black" cx="510.795" cy="-162" rx="48.1917" ry="18"/>
<text text-anchor="middle" x="510.795" y="-158.3" font-family="Times,serif" font-size="14.00">element</text>
</g>
<!-- expression&#45;&gt;element -->
<g id="edge27" class="edge"><title>expression&#45;&gt;element</title>
<path fill="none" stroke="black" d="M780.336,-222.52C721.395,-209.505 621.281,-187.398 561.064,-174.101"/>
<polygon fill="black" stroke="black" points="561.549,-170.623 551.03,-171.885 560.04,-177.459 561.549,-170.623"/>
</g>
<!-- scram -->
<g id="node19" class="node"><title>scram</title>
<ellipse fill="none" stroke="black" cx="340.795" cy="-954" rx="39.7935" ry="18"/>
<text text-anchor="middle" x="340.795" y="-950.3" font-family="Times,serif" font-size="14.00">scram</text>
</g>
<!-- scram&#45;&gt;config -->
<g id="edge28" class="edge"><title>scram&#45;&gt;config</title>
<path fill="none" stroke="black" d="M301.038,-952.976C215.524,-950.62 21.7946,-931.939 21.7946,-811 21.7946,-811 21.7946,-811 21.7946,-593 21.7946,-551.99 33.5492,-505.642 42.0912,-477.375"/>
<polygon fill="black" stroke="black" points="45.4343,-478.411 45.0651,-467.822 38.7507,-476.33 45.4343,-478.411"/>
</g>
<!-- serialization -->
<g id="node20" class="node"><title>serialization</title>
<ellipse fill="none" stroke="black" cx="581.795" cy="-666" rx="67.6881" ry="18"/>
<text text-anchor="middle" x="581.795" y="-662.3" font-family="Times,serif" font-size="14.00">serialization</text>
</g>
<!-- scram&#45;&gt;serialization -->
<g id="edge29" class="edge"><title>scram&#45;&gt;serialization</title>
<path fill="none" stroke="black" d="M345.81,-935.998C355.597,-904.9 379.593,-837.84 416.795,-792 453.016,-747.368 508.386,-709.712 544.836,-687.738"/>
<polygon fill="black" stroke="black" points="546.859,-690.607 553.673,-682.494 543.287,-684.587 546.859,-690.607"/>
</g>
<!-- reporter -->
<g id="node21" class="node"><title>reporter</title>
<ellipse fill="none" stroke="black" cx="453.795" cy="-882" rx="50.0912" ry="18"/>
<text text-anchor="middle" x="453.795" y="-878.3" font-family="Times,serif" font-size="14.00">reporter</text>
</g>
<!-- scram&#45;&gt;reporter -->
<g id="edge30" class="edge"><title>scram&#45;&gt;reporter</title>
<path fill="none" stroke="black" d="M363.39,-939.003C379.884,-928.785 402.496,-914.778 420.979,-903.328"/>
<polygon fill="black" stroke="black" points="423.018,-906.183 429.676,-897.941 419.331,-900.232 423.018,-906.183"/>
</g>
<!-- initializer -->
<g id="node24" class="node"><title>initializer</title>
<ellipse fill="none" stroke="black" cx="333.795" cy="-666" rx="55.4913" ry="18"/>
<text text-anchor="middle" x="333.795" y="-662.3" font-family="Times,serif" font-size="14.00">initializer</text>
</g>
<!-- scram&#45;&gt;initializer -->
<g id="edge31" class="edge"><title>scram&#45;&gt;initializer</title>
<path fill="none" stroke="black" d="M340.378,-935.966C339.211,-888.291 335.904,-753.185 334.471,-694.63"/>
<polygon fill="black" stroke="black" points="337.962,-694.218 334.218,-684.306 330.964,-694.389 337.962,-694.218"/>
</g>
<!-- serialization&#45;&gt;expression/exponential -->
<g id="edge34" class="edge"><title>serialization&#45;&gt;expression/exponential</title>
<path fill="none" stroke="black" d="M624.412,-651.916C659.821,-641.045 710.602,-625.454 750.066,-613.338"/>
<polygon fill="black" stroke="black" points="751.307,-616.618 759.839,-610.337 749.253,-609.926 751.307,-616.618"/>
</g>
<!-- xml_stream -->
<g id="node28" class="node"><title>xml_stream</title>
<ellipse fill="none" stroke="black" cx="201.795" cy="-594" rx="65.7887" ry="18"/>
<text text-anchor="middle" x="201.795" y="-590.3" font-family="Times,serif" font-size="14.00">xml_stream</text>
</g>
<!-- serialization&#45;&gt;xml_stream -->
<g id="edge32" class="edge"><title>serialization&#45;&gt;xml_stream</title>
<path fill="none" stroke="black" d="M527.753,-655.045C458.378,-642.265 338.217,-620.13 264.774,-606.602"/>
<polygon fill="black" stroke="black" points="265.2,-603.121 254.731,-604.752 263.932,-610.005 265.2,-603.121"/>
</g>
<!-- model -->
<g id="node47" class="node"><title>model</title>
<ellipse fill="none" stroke="black" cx="1110.79" cy="-594" rx="38.9931" ry="18"/>
<text text-anchor="middle" x="1110.79" y="-590.3" font-family="Times,serif" font-size="14.00">model</text>
</g>
<!-- serialization&#45;&gt;model -->
<g id="edge33" class="edge"><title>serialization&#45;&gt;model</title>
<path fill="none" stroke="black" d="M644.361,-659.03C730.35,-650.48 889.765,-633.392 1024.79,-612 1038.33,-609.856 1052.98,-607.116 1066.29,-604.466"/>
<polygon fill="black" stroke="black" points="1067.06,-607.882 1076.17,-602.468 1065.68,-601.021 1067.06,-607.882"/>
</g>
<!-- reporter&#45;&gt;version -->
<g id="edge35" class="edge"><title>reporter&#45;&gt;version</title>
<path fill="none" stroke="black" d="M457.91,-864.055C459.803,-856.261 462.095,-846.822 464.218,-838.079"/>
<polygon fill="black" stroke="black" points="467.64,-838.819 466.599,-828.275 460.838,-837.167 467.64,-838.819"/>
</g>
<!-- reporter&#45;&gt;xml_stream -->
<g id="edge37" class="edge"><title>reporter&#45;&gt;xml_stream</title>
<path fill="none" stroke="black" d="M437.72,-864.899C405.023,-831.913 328.866,-753.868 269.795,-684 252.1,-663.072 233.279,-638.212 219.934,-620.093"/>
<polygon fill="black" stroke="black" points="222.583,-617.787 213.852,-611.786 216.935,-621.922 222.583,-617.787"/>
</g>
<!-- risk_analysis -->
<g id="node38" class="node"><title>risk_analysis</title>
<ellipse fill="none" stroke="black" cx="975.795" cy="-810" rx="71.4873" ry="18"/>
<text text-anchor="middle" x="975.795" y="-806.3" font-family="Times,serif" font-size="14.00">risk_analysis</text>
</g>
<!-- reporter&#45;&gt;risk_analysis -->
<g id="edge36" class="edge"><title>reporter&#45;&gt;risk_analysis</title>
<path fill="none" stroke="black" d="M500.119,-874.788C591.368,-862.551 794.942,-835.252 903.829,-820.651"/>
<polygon fill="black" stroke="black" points="904.618,-824.076 914.064,-819.278 903.687,-817.138 904.618,-824.076"/>
</g>
<!-- cycle -->
<g id="node22" class="node"><title>cycle</title>
<ellipse fill="none" stroke="black" cx="980.795" cy="-594" rx="35.194" ry="18"/>
<text text-anchor="middle" x="980.795" y="-590.3" font-family="Times,serif" font-size="14.00">cycle</text>
</g>
<!-- event_tree -->
<g id="node26" class="node"><title>event_tree</title>
<ellipse fill="none" stroke="black" cx="1031.79" cy="-522" rx="60.3893" ry="18"/>
<text text-anchor="middle" x="1031.79" y="-518.3" font-family="Times,serif" font-size="14.00">event_tree</text>
</g>
<!-- cycle&#45;&gt;event_tree -->
<g id="edge38" class="edge"><title>cycle&#45;&gt;event_tree</title>
<path fill="none" stroke="black" d="M992.623,-576.765C998.751,-568.354 1006.37,-557.89 1013.26,-548.436"/>
<polygon fill="black" stroke="black" points="1016.26,-550.267 1019.32,-540.124 1010.6,-546.145 1016.26,-550.267"/>
</g>
<!-- parameter -->
<g id="node40" class="node"><title>parameter</title>
<ellipse fill="none" stroke="black" cx="819.795" cy="-450" rx="59.5901" ry="18"/>
<text text-anchor="middle" x="819.795" y="-446.3" font-family="Times,serif" font-size="14.00">parameter</text>
</g>
<!-- cycle&#45;&gt;parameter -->
<g id="edge39" class="edge"><title>cycle&#45;&gt;parameter</title>
<path fill="none" stroke="black" d="M953.973,-582.09C948.34,-579.953 942.405,-577.815 936.795,-576 876.894,-556.625 838.24,-589.854 799.795,-540 785.832,-521.894 793.979,-495.904 803.739,-476.68"/>
<polygon fill="black" stroke="black" points="806.84,-478.304 808.57,-467.851 800.699,-474.944 806.84,-478.304"/>
</g>
<!-- ext -->
<g id="node23" class="node"><title>ext</title>
<ellipse fill="none" stroke="black" cx="511.795" cy="-90" rx="27" ry="18"/>
<text text-anchor="middle" x="511.795" y="-86.3" font-family="Times,serif" font-size="14.00">ext</text>
</g>
<!-- initializer&#45;&gt;logger -->
<g id="edge40" class="edge"><title>initializer&#45;&gt;logger</title>
<path fill="none" stroke="black" d="M326.105,-647.907C315.001,-621.623 295.795,-569.447 295.795,-523 295.795,-523 295.795,-523 295.795,-377 295.795,-306.203 330.017,-228.156 349.906,-188.775"/>
<polygon fill="black" stroke="black" points="353.152,-190.116 354.624,-179.624 346.93,-186.908 353.152,-190.116"/>
</g>
<!-- initializer&#45;&gt;env -->
<g id="edge41" class="edge"><title>initializer&#45;&gt;env</title>
<path fill="none" stroke="black" d="M279.273,-662.377C231.421,-657.793 161.711,-645.382 110.795,-612 43.8915,-568.137 28.0928,-543.895 2.79458,-468 -4.31397,-446.674 3.83941,-422.043 12.6824,-404.106"/>
<polygon fill="black" stroke="black" points="15.9754,-405.368 17.5736,-394.894 9.79282,-402.085 15.9754,-405.368"/>
</g>
<!-- initializer&#45;&gt;xml -->
<g id="edge42" class="edge"><title>initializer&#45;&gt;xml</title>
<path fill="none" stroke="black" d="M282.698,-658.905C227.925,-651.219 146.199,-636.026 126.795,-612 101.817,-581.073 109.868,-460.454 114.97,-405.973"/>
<polygon fill="black" stroke="black" points="118.455,-406.296 115.94,-396.004 111.488,-405.618 118.455,-406.296"/>
</g>
<!-- initializer&#45;&gt;expression/exponential -->
<g id="edge49" class="edge"><title>initializer&#45;&gt;expression/exponential</title>
<path fill="none" stroke="black" d="M382.942,-657.772C461.826,-646.172 617.96,-623.211 717.944,-608.507"/>
<polygon fill="black" stroke="black" points="718.657,-611.94 728.041,-607.023 717.638,-605.015 718.657,-611.94"/>
</g>
<!-- initializer&#45;&gt;settings -->
<g id="edge44" class="edge"><title>initializer&#45;&gt;settings</title>
<path fill="none" stroke="black" d="M334.642,-647.915C336.76,-609.216 343.198,-512.01 357.795,-432 359.356,-423.442 361.587,-414.239 363.811,-405.942"/>
<polygon fill="black" stroke="black" points="367.259,-406.606 366.572,-396.034 360.516,-404.727 367.259,-406.606"/>
</g>
<!-- initializer&#45;&gt;expression/conditional -->
<g id="edge45" class="edge"><title>initializer&#45;&gt;expression/conditional</title>
<path fill="none" stroke="black" d="M340.554,-648.006C344.485,-637.702 349.33,-624.226 352.795,-612 375.087,-533.334 350.863,-503.349 390.795,-432 390.839,-431.921 466.719,-360.05 466.795,-360 487.106,-346.529 511.406,-335.109 532.883,-326.358"/>
<polygon fill="black" stroke="black" points="534.21,-329.597 542.21,-322.651 531.624,-323.092 534.21,-329.597"/>
</g>
<!-- initializer&#45;&gt;cycle -->
<g id="edge46" class="edge"><title>initializer&#45;&gt;cycle</title>
<path fill="none" stroke="black" d="M385.784,-659.614C419.662,-656.158 464.835,-651.651 504.795,-648 696.661,-630.469 749.025,-655.157 936.795,-612 939.638,-611.346 942.542,-610.546 945.435,-609.651"/>
<polygon fill="black" stroke="black" points="946.799,-612.883 955.122,-606.327 944.528,-606.262 946.799,-612.883"/>
</g>
<!-- expression/random_deviate -->
<g id="node27" class="node"><title>expression/random_deviate</title>
<ellipse fill="none" stroke="black" cx="1405.79" cy="-306" rx="138.375" ry="18"/>
<text text-anchor="middle" x="1405.79" y="-302.3" font-family="Times,serif" font-size="14.00">expression/random_deviate</text>
</g>
<!-- initializer&#45;&gt;expression/random_deviate -->
<g id="edge47" class="edge"><title>initializer&#45;&gt;expression/random_deviate</title>
<path fill="none" stroke="black" d="M384.985,-659.126C418.925,-655.426 464.469,-650.829 504.795,-648 699.591,-634.335 1195.49,-667.238 1382.79,-612 1457.51,-589.964 1533.79,-600.901 1533.79,-523 1533.79,-523 1533.79,-523 1533.79,-449 1533.79,-395.535 1483.11,-353.131 1445.53,-329.037"/>
<polygon fill="black" stroke="black" points="1447.12,-325.903 1436.78,-323.599 1443.43,-331.849 1447.12,-325.903"/>
</g>
<!-- expression/boolean -->
<g id="node42" class="node"><title>expression/boolean</title>
<ellipse fill="none" stroke="black" cx="661.795" cy="-378" rx="100.182" ry="18"/>
<text text-anchor="middle" x="661.795" y="-374.3" font-family="Times,serif" font-size="14.00">expression/boolean</text>
</g>
<!-- initializer&#45;&gt;expression/boolean -->
<g id="edge48" class="edge"><title>initializer&#45;&gt;expression/boolean</title>
<path fill="none" stroke="black" d="M385.205,-659.211C468.486,-649.397 625.57,-628.913 644.795,-612 703.217,-560.602 683.621,-455.379 670.132,-405.875"/>
<polygon fill="black" stroke="black" points="673.481,-404.856 667.376,-396.196 666.748,-406.773 673.481,-404.856"/>
</g>
<!-- initializer&#45;&gt;model -->
<g id="edge43" class="edge"><title>initializer&#45;&gt;model</title>
<path fill="none" stroke="black" d="M385.39,-659.464C419.302,-655.926 464.661,-651.383 504.795,-648 735.64,-628.539 795.15,-642.523 1024.79,-612 1038.5,-610.178 1053.31,-607.509 1066.71,-604.823"/>
<polygon fill="black" stroke="black" points="1067.55,-608.222 1076.64,-602.779 1066.14,-601.366 1067.55,-608.222"/>
</g>
<!-- event_tree&#45;&gt;instruction -->
<g id="edge50" class="edge"><title>event_tree&#45;&gt;instruction</title>
<path fill="none" stroke="black" d="M1046.01,-504.411C1053.38,-495.82 1062.52,-485.159 1070.69,-475.627"/>
<polygon fill="black" stroke="black" points="1073.41,-477.827 1077.26,-467.956 1068.1,-473.271 1073.41,-477.827"/>
</g>
<!-- expression/random_deviate&#45;&gt;random -->
<g id="edge52" class="edge"><title>expression/random_deviate&#45;&gt;random</title>
<path fill="none" stroke="black" d="M1354.57,-289.203C1315.2,-277.062 1261.34,-260.456 1223.66,-248.834"/>
<polygon fill="black" stroke="black" points="1224.55,-245.447 1213.96,-245.845 1222.49,-252.137 1224.55,-245.447"/>
</g>
<!-- expression/random_deviate&#45;&gt;expression -->
<g id="edge51" class="edge"><title>expression/random_deviate&#45;&gt;expression</title>
<path fill="none" stroke="black" d="M1308.4,-293.205C1190.36,-278.909 994.694,-255.213 893.274,-242.93"/>
<polygon fill="black" stroke="black" points="893.513,-239.434 883.165,-241.706 892.672,-246.383 893.513,-239.434"/>
</g>
<!-- xml_stream&#45;&gt;error -->
<g id="edge53" class="edge"><title>xml_stream&#45;&gt;error</title>
<path fill="none" stroke="black" d="M205.437,-575.601C210.697,-548.918 219.795,-496.227 219.795,-451 219.795,-451 219.795,-451 219.795,-233 219.795,-191.406 235.197,-145.217 246.39,-117.143"/>
<polygon fill="black" stroke="black" points="249.723,-118.242 250.287,-107.662 243.248,-115.581 249.723,-118.242"/>
</g>
<!-- error&#45;&gt;STL -->
<g id="edge54" class="edge"><title>error&#45;&gt;STL</title>
<path fill="none" stroke="black" d="M257.795,-71.6966C257.795,-63.9827 257.795,-54.7125 257.795,-46.1124"/>
<polygon fill="black" stroke="black" points="261.295,-46.1043 257.795,-36.1043 254.295,-46.1044 261.295,-46.1043"/>
</g>
<!-- analysis&#45;&gt;settings -->
<g id="edge55" class="edge"><title>analysis&#45;&gt;settings</title>
<path fill="none" stroke="black" d="M578.594,-508.139C556.972,-498.55 528.012,-484.328 504.795,-468 485.765,-454.617 485.543,-445.774 466.795,-432 448.909,-418.859 427.425,-406.615 409.416,-397.213"/>
<polygon fill="black" stroke="black" points="410.847,-394.013 400.352,-392.565 407.653,-400.242 410.847,-394.013"/>
</g>
<!-- uncertainty_analysis -->
<g id="node32" class="node"><title>uncertainty_analysis</title>
<ellipse fill="none" stroke="black" cx="975.795" cy="-738" rx="107.482" ry="18"/>
<text text-anchor="middle" x="975.795" y="-734.3" font-family="Times,serif" font-size="14.00">uncertainty_analysis</text>
</g>
<!-- uncertainty_analysis&#45;&gt;probability_analysis -->
<g id="edge56" class="edge"><title>uncertainty_analysis&#45;&gt;probability_analysis</title>
<path fill="none" stroke="black" d="M959.334,-720.055C950.898,-711.371 940.478,-700.644 931.22,-691.114"/>
<polygon fill="black" stroke="black" points="933.582,-688.523 924.104,-683.789 928.561,-693.401 933.582,-688.523"/>
</g>
<!-- bdd -->
<g id="node34" class="node"><title>bdd</title>
<ellipse fill="none" stroke="black" cx="428.795" cy="-450" rx="28.6953" ry="18"/>
<text text-anchor="middle" x="428.795" y="-446.3" font-family="Times,serif" font-size="14.00">bdd</text>
</g>
<!-- zbdd&#45;&gt;bdd -->
<g id="edge57" class="edge"><title>zbdd&#45;&gt;bdd</title>
<path fill="none" stroke="black" d="M425.948,-504.055C424.671,-496.231 423.892,-486.748 423.746,-477.977"/>
<polygon fill="black" stroke="black" points="427.249,-477.838 423.892,-467.789 420.249,-477.738 427.249,-477.838"/>
</g>
<!-- bdd&#45;&gt;settings -->
<g id="edge59" class="edge"><title>bdd&#45;&gt;settings</title>
<path fill="none" stroke="black" d="M416.144,-433.465C408.97,-424.654 399.83,-413.43 391.714,-403.463"/>
<polygon fill="black" stroke="black" points="394.232,-401.012 385.204,-395.467 388.804,-405.432 394.232,-401.012"/>
</g>
<!-- bdd&#45;&gt;zbdd -->
<g id="edge60" class="edge"><title>bdd&#45;&gt;zbdd</title>
<path fill="none" stroke="black" d="M435.616,-467.789C436.9,-475.591 437.686,-485.067 437.84,-493.848"/>
<polygon fill="black" stroke="black" points="434.338,-494.009 437.705,-504.055 441.337,-494.102 434.338,-494.009"/>
</g>
<!-- pdag -->
<g id="node45" class="node"><title>pdag</title>
<ellipse fill="none" stroke="black" cx="509.795" cy="-378" rx="33.5952" ry="18"/>
<text text-anchor="middle" x="509.795" y="-374.3" font-family="Times,serif" font-size="14.00">pdag</text>
</g>
<!-- bdd&#45;&gt;pdag -->
<g id="edge58" class="edge"><title>bdd&#45;&gt;pdag</title>
<path fill="none" stroke="black" d="M445.186,-434.834C456.671,-424.909 472.222,-411.47 485.189,-400.264"/>
<polygon fill="black" stroke="black" points="487.592,-402.813 492.87,-393.626 483.015,-397.517 487.592,-402.813"/>
</g>
<!-- preprocessor&#45;&gt;pdag -->
<g id="edge61" class="edge"><title>preprocessor&#45;&gt;pdag</title>
<path fill="none" stroke="black" d="M567.784,-432.411C557.611,-423.041 544.767,-411.211 533.753,-401.067"/>
<polygon fill="black" stroke="black" points="535.848,-398.239 526.122,-394.038 531.106,-403.387 535.848,-398.239"/>
</g>
<!-- event_tree_analysis -->
<g id="node36" class="node"><title>event_tree_analysis</title>
<ellipse fill="none" stroke="black" cx="1270.79" cy="-594" rx="102.882" ry="18"/>
<text text-anchor="middle" x="1270.79" y="-590.3" font-family="Times,serif" font-size="14.00">event_tree_analysis</text>
</g>
<!-- event_tree_analysis&#45;&gt;expression/numerical -->
<g id="edge64" class="edge"><title>event_tree_analysis&#45;&gt;expression/numerical</title>
<path fill="none" stroke="black" d="M1360.76,-585.168C1430.67,-575.228 1510.54,-553.02 1476.79,-504 1427.49,-432.37 1331.16,-401.762 1255.76,-388.696"/>
<polygon fill="black" stroke="black" points="1256.18,-385.218 1245.74,-387.041 1255.04,-392.124 1256.18,-385.218"/>
</g>
<!-- event_tree_analysis&#45;&gt;event_tree -->
<g id="edge62" class="edge"><title>event_tree_analysis&#45;&gt;event_tree</title>
<path fill="none" stroke="black" d="M1220.4,-578.24C1180.04,-566.419 1123.66,-549.905 1083.07,-538.017"/>
<polygon fill="black" stroke="black" points="1083.95,-534.628 1073.37,-535.176 1081.98,-541.345 1083.95,-534.628"/>
</g>
<!-- event_tree_analysis&#45;&gt;analysis -->
<g id="edge63" class="edge"><title>event_tree_analysis&#45;&gt;analysis</title>
<path fill="none" stroke="black" d="M1197.67,-581.316C1184.74,-579.416 1171.38,-577.562 1158.79,-576 979.596,-553.767 766.505,-535.53 666.69,-527.466"/>
<polygon fill="black" stroke="black" points="666.773,-523.961 656.525,-526.648 666.212,-530.939 666.773,-523.961"/>
</g>
<!-- expression/test_event -->
<g id="node43" class="node"><title>expression/test_event</title>
<ellipse fill="none" stroke="black" cx="1355.79" cy="-522" rx="112.38" ry="18"/>
<text text-anchor="middle" x="1355.79" y="-518.3" font-family="Times,serif" font-size="14.00">expression/test_event</text>
</g>
<!-- event_tree_analysis&#45;&gt;expression/test_event -->
<g id="edge65" class="edge"><title>event_tree_analysis&#45;&gt;expression/test_event</title>
<path fill="none" stroke="black" d="M1291.37,-576.055C1302.23,-567.113 1315.72,-556.005 1327.54,-546.268"/>
<polygon fill="black" stroke="black" points="1329.91,-548.848 1335.41,-539.789 1325.46,-543.444 1329.91,-548.848"/>
</g>
<!-- probability_analysis&#45;&gt;fault_tree_analysis -->
<g id="edge67" class="edge"><title>probability_analysis&#45;&gt;fault_tree_analysis</title>
<path fill="none" stroke="black" d="M840.179,-652.242C775.967,-640.127 679.578,-621.94 612.749,-609.331"/>
<polygon fill="black" stroke="black" points="613.174,-605.85 602.699,-607.435 611.876,-612.728 613.174,-605.85"/>
</g>
<!-- probability_analysis&#45;&gt;parameter -->
<g id="edge66" class="edge"><title>probability_analysis&#45;&gt;parameter</title>
<path fill="none" stroke="black" d="M969.877,-651.52C990.976,-643.653 1012.35,-631.303 1024.79,-612 1033.47,-598.553 1035.01,-588.312 1024.79,-576 969.348,-509.191 892.936,-602.616 832.795,-540 817.37,-523.941 815.096,-498.159 816.107,-478.468"/>
<polygon fill="black" stroke="black" points="819.615,-478.508 816.944,-468.256 812.639,-477.936 819.615,-478.508"/>
</g>
<!-- risk_analysis&#45;&gt;importance_analysis -->
<g id="edge68" class="edge"><title>risk_analysis&#45;&gt;importance_analysis</title>
<path fill="none" stroke="black" d="M931.884,-795.751C895.477,-784.766 843.372,-769.045 803.232,-756.934"/>
<polygon fill="black" stroke="black" points="804.147,-753.554 793.562,-754.016 802.125,-760.256 804.147,-753.554"/>
</g>
<!-- risk_analysis&#45;&gt;mocus -->
<g id="edge73" class="edge"><title>risk_analysis&#45;&gt;mocus</title>
<path fill="none" stroke="black" d="M912.634,-801.442C795.262,-787.398 545.858,-757.555 439.979,-744.885"/>
<polygon fill="black" stroke="black" points="440.234,-741.391 429.889,-743.678 439.402,-748.341 440.234,-741.391"/>
</g>
<!-- risk_analysis&#45;&gt;random -->
<g id="edge69" class="edge"><title>risk_analysis&#45;&gt;random</title>
<path fill="none" stroke="black" d="M1046.5,-806.956C1204.38,-800.473 1571.79,-773.9 1571.79,-667 1571.79,-667 1571.79,-667 1571.79,-377 1571.79,-336.553 1582.37,-315.589 1552.79,-288 1507.84,-246.071 1328.16,-237.129 1235.18,-235.347"/>
<polygon fill="black" stroke="black" points="1235.16,-231.846 1225.1,-235.175 1235.04,-238.845 1235.16,-231.846"/>
</g>
<!-- risk_analysis&#45;&gt;uncertainty_analysis -->
<g id="edge70" class="edge"><title>risk_analysis&#45;&gt;uncertainty_analysis</title>
<path fill="none" stroke="black" d="M975.795,-791.697C975.795,-783.983 975.795,-774.712 975.795,-766.112"/>
<polygon fill="black" stroke="black" points="979.295,-766.104 975.795,-756.104 972.295,-766.104 979.295,-766.104"/>
</g>
<!-- risk_analysis&#45;&gt;event_tree_analysis -->
<g id="edge71" class="edge"><title>risk_analysis&#45;&gt;event_tree_analysis</title>
<path fill="none" stroke="black" d="M1023.62,-796.448C1051.63,-787.752 1086.87,-774.405 1114.79,-756 1172.61,-717.893 1225.42,-654.987 1252.25,-620.159"/>
<polygon fill="black" stroke="black" points="1255.23,-622.021 1258.5,-611.942 1249.66,-617.783 1255.23,-622.021"/>
</g>
<!-- risk_analysis&#45;&gt;model -->
<g id="edge72" class="edge"><title>risk_analysis&#45;&gt;model</title>
<path fill="none" stroke="black" d="M1027.76,-797.608C1050.99,-789.804 1076.54,-776.935 1091.79,-756 1120.52,-716.595 1119.06,-656.787 1115.13,-622.239"/>
<polygon fill="black" stroke="black" points="1118.55,-621.435 1113.79,-611.968 1111.61,-622.335 1118.55,-621.435"/>
</g>
<!-- element&#45;&gt;ext -->
<g id="edge75" class="edge"><title>element&#45;&gt;ext</title>
<path fill="none" stroke="black" d="M511.042,-143.697C511.152,-135.983 511.284,-126.712 511.407,-118.112"/>
<polygon fill="black" stroke="black" points="514.907,-118.153 511.55,-108.104 507.908,-118.053 514.907,-118.153"/>
</g>
<!-- element&#45;&gt;Boost -->
<g id="edge76" class="edge"><title>element&#45;&gt;Boost</title>
<path fill="none" stroke="black" d="M492.414,-145.116C481.311,-135.52 467.007,-123.159 454.873,-112.673"/>
<polygon fill="black" stroke="black" points="457.124,-109.992 447.269,-106.101 452.547,-115.288 457.124,-109.992"/>
</g>
<!-- element&#45;&gt;error -->
<g id="edge74" class="edge"><title>element&#45;&gt;error</title>
<path fill="none" stroke="black" d="M473.191,-150.596C426.027,-137.547 345.527,-115.274 297.429,-101.966"/>
<polygon fill="black" stroke="black" points="298.252,-98.5624 287.681,-99.269 296.386,-105.309 298.252,-98.5624"/>
</g>
<!-- parameter&#45;&gt;expression -->
<g id="edge77" class="edge"><title>parameter&#45;&gt;expression</title>
<path fill="none" stroke="black" d="M820.436,-431.849C821.82,-394.832 825.096,-307.181 826.771,-262.386"/>
<polygon fill="black" stroke="black" points="830.274,-262.356 827.15,-252.232 823.279,-262.095 830.274,-262.356"/>
</g>
<!-- alignment -->
<g id="node41" class="node"><title>alignment</title>
<ellipse fill="none" stroke="black" cx="1167.79" cy="-522" rx="57.6901" ry="18"/>
<text text-anchor="middle" x="1167.79" y="-518.3" font-family="Times,serif" font-size="14.00">alignment</text>
</g>
<!-- alignment&#45;&gt;instruction -->
<g id="edge78" class="edge"><title>alignment&#45;&gt;instruction</title>
<path fill="none" stroke="black" d="M1150.17,-504.765C1140.36,-495.73 1127.98,-484.326 1117.14,-474.349"/>
<polygon fill="black" stroke="black" points="1119.32,-471.59 1109.59,-467.39 1114.57,-476.739 1119.32,-471.59"/>
</g>
<!-- expression/boolean&#45;&gt;expression -->
<g id="edge79" class="edge"><title>expression/boolean&#45;&gt;expression</title>
<path fill="none" stroke="black" d="M681.489,-360.153C711.179,-334.756 767.476,-286.598 800.914,-257.994"/>
<polygon fill="black" stroke="black" points="803.569,-260.329 808.892,-251.169 799.018,-255.01 803.569,-260.329"/>
</g>
<!-- expression/test_event&#45;&gt;expression -->
<g id="edge80" class="edge"><title>expression/test_event&#45;&gt;expression</title>
<path fill="none" stroke="black" d="M1324.38,-504.541C1286.73,-485.287 1221.39,-453.333 1162.79,-432 1105.65,-411.196 1081.86,-429.014 1030.79,-396 978.561,-362.232 990.993,-326.055 941.795,-288 922.182,-272.83 897.527,-260.687 876.167,-251.871"/>
<polygon fill="black" stroke="black" points="877.2,-248.515 866.615,-248.056 874.603,-255.016 877.2,-248.515"/>
</g>
<!-- fault_tree -->
<g id="node44" class="node"><title>fault_tree</title>
<ellipse fill="none" stroke="black" cx="897.795" cy="-522" rx="55.7903" ry="18"/>
<text text-anchor="middle" x="897.795" y="-518.3" font-family="Times,serif" font-size="14.00">fault_tree</text>
</g>
<!-- fault_tree&#45;&gt;ccf_group -->
<g id="edge81" class="edge"><title>fault_tree&#45;&gt;ccf_group</title>
<path fill="none" stroke="black" d="M911.303,-504.411C918.229,-495.906 926.806,-485.372 934.508,-475.914"/>
<polygon fill="black" stroke="black" points="937.387,-477.921 940.987,-467.956 931.959,-473.501 937.387,-477.921"/>
</g>
<!-- fault_tree&#45;&gt;parameter -->
<g id="edge82" class="edge"><title>fault_tree&#45;&gt;parameter</title>
<path fill="none" stroke="black" d="M879.704,-504.765C869.636,-495.73 856.93,-484.326 845.812,-474.349"/>
<polygon fill="black" stroke="black" points="847.838,-471.464 838.057,-467.39 843.162,-476.674 847.838,-471.464"/>
</g>
<!-- pdag&#45;&gt;logger -->
<g id="edge83" class="edge"><title>pdag&#45;&gt;logger</title>
<path fill="none" stroke="black" d="M494.637,-361.379C485.032,-351.135 472.615,-337.234 462.795,-324 428.981,-278.432 395.675,-220.961 377.621,-188.461"/>
<polygon fill="black" stroke="black" points="380.629,-186.668 372.734,-179.603 374.5,-190.049 380.629,-186.668"/>
</g>
<!-- pdag&#45;&gt;event -->
<g id="edge84" class="edge"><title>pdag&#45;&gt;event</title>
<path fill="none" stroke="black" d="M534.942,-365.972C540.724,-363.743 546.906,-361.596 552.795,-360 657.427,-331.641 784.349,-317.001 850.935,-310.779"/>
<polygon fill="black" stroke="black" points="851.45,-314.246 861.091,-309.851 850.814,-307.275 851.45,-314.246"/>
</g>
<!-- model&#45;&gt;event_tree -->
<g id="edge85" class="edge"><title>model&#45;&gt;event_tree</title>
<path fill="none" stroke="black" d="M1093.65,-577.811C1083.26,-568.598 1069.78,-556.654 1058.05,-546.268"/>
<polygon fill="black" stroke="black" points="1060.09,-543.392 1050.28,-539.38 1055.44,-548.632 1060.09,-543.392"/>
</g>
<!-- model&#45;&gt;alignment -->
<g id="edge87" class="edge"><title>model&#45;&gt;alignment</title>
<path fill="none" stroke="black" d="M1124.01,-576.765C1131.11,-568.056 1139.99,-557.147 1147.9,-547.435"/>
<polygon fill="black" stroke="black" points="1150.65,-549.598 1154.25,-539.633 1145.22,-545.178 1150.65,-549.598"/>
</g>
<!-- model&#45;&gt;expression/test_event -->
<g id="edge88" class="edge"><title>model&#45;&gt;expression/test_event</title>
<path fill="none" stroke="black" d="M1140.38,-582.119C1146.44,-580.002 1152.8,-577.864 1158.79,-576 1201.17,-562.817 1249.26,-549.842 1287.32,-540.029"/>
<polygon fill="black" stroke="black" points="1288.45,-543.352 1297.27,-537.477 1286.71,-536.571 1288.45,-543.352"/>
</g>
<!-- model&#45;&gt;fault_tree -->
<g id="edge86" class="edge"><title>model&#45;&gt;fault_tree</title>
<path fill="none" stroke="black" d="M1079.82,-582.821C1044.47,-571.202 986.228,-552.063 945.163,-538.567"/>
<polygon fill="black" stroke="black" points="946.231,-535.234 935.638,-535.437 944.045,-541.884 946.231,-535.234"/>
</g>
</g>
</svg>
