<?xml version="1.0" encoding="UTF-8" standalone="no"?>
<!DOCTYPE svg PUBLIC "-//W3C//DTD SVG 1.1//EN"
 "http://www.w3.org/Graphics/SVG/1.1/DTD/svg11.dtd">
<!-- Generated by graphviz version 2.38.0 (20140413.2041)
 -->
<!-- Title: alignment.h Pages: 1 -->
<!--zoomable 330 -->
<svg id="main" version="1.1" xmlns="http://www.w3.org/2000/svg" xmlns:xlink="http://www.w3.org/1999/xlink" xml:space="preserve" onload="init(evt)">
<style type="text/css"><![CDATA[
.edge:hover path { stroke: red; }
.edge:hover polygon { stroke: red; fill: red; }
]]></style>
<script type="text/javascript"><![CDATA[
var edges = document.getElementsByTagName('g');
if (edges && edges.length) {
  for (var i=0;i<edges.length;i++) {
    if (edges[i].id.substr(0,4)=='edge') {
      edges[i].setAttribute('class','edge');
    }
  }
}
]]></script>
        <defs>
                <circle id="rim" cx="0" cy="0" r="7"/>
                <circle id="rim2" cx="0" cy="0" r="3.5"/>
                <g id="zoomPlus">
                        <use xlink:href="#rim" fill="#404040">
                                <set attributeName="fill" to="#808080" begin="zoomplus.mouseover" end="zoomplus.mouseout"/>
                        </use>
                        <path d="M-4,0h8M0,-4v8" fill="none" stroke="white" stroke-width="1.5" pointer-events="none"/>
                </g>
                <g id="zoomMin">
                        <use xlink:href="#rim" fill="#404040">
                                <set attributeName="fill" to="#808080" begin="zoomminus.mouseover" end="zoomminus.mouseout"/>
                        </use>
                        <path d="M-4,0h8" fill="none" stroke="white" stroke-width="1.5" pointer-events="none"/>
                </g>
                <g id="dirArrow">
                        <path fill="none" stroke="white" stroke-width="1.5" d="M0,-3.0v7 M-2.5,-0.5L0,-3.0L2.5,-0.5"/>
                </g>
               <g id="resetDef">
                       <use xlink:href="#rim2" fill="#404040">
                               <set attributeName="fill" to="#808080" begin="reset.mouseover" end="reset.mouseout"/>
                       </use>
               </g>
        </defs>

<script type="text/javascript">
var viewWidth = 1005;
var viewHeight = 330;
var sectionId = 'dynsection-0';
</script>
<script xlink:href="svgpan.js"/>
<svg id="graph" class="graph">
<g id="viewport">
<title>alignment.h</title>
<polygon fill="white" stroke="none" points="-4,4 -4,-326 1000.5,-326 1000.5,4 -4,4"/>
<!-- Node1 -->
<g id="node1" class="node"><title>Node1</title>
<polygon fill="#bfbfbf" stroke="black" points="302.5,-302.5 302.5,-321.5 376.5,-321.5 376.5,-302.5 302.5,-302.5"/>
<text text-anchor="middle" x="339.5" y="-309.5" font-family="Helvetica,sans-Serif" font-size="10.00">alignment.h</text>
</g>
<!-- Node2 -->
<g id="node2" class="node"><title>Node2</title>
<polygon fill="white" stroke="#bfbfbf" points="328,-134.5 328,-153.5 385,-153.5 385,-134.5 328,-134.5"/>
<text text-anchor="middle" x="356.5" y="-141.5" font-family="Helvetica,sans-Serif" font-size="10.00">memory</text>
</g>
<!-- Node1&#45;&gt;Node2 -->
<g id="edge1" class="edge"><title>Node1&#45;&gt;Node2</title>
<path fill="none" stroke="midnightblue" d="M340.414,-302.075C343.09,-275.945 350.948,-199.211 354.598,-163.577"/>
<polygon fill="midnightblue" stroke="midnightblue" points="358.085,-163.873 355.623,-153.568 351.122,-163.159 358.085,-163.873"/>
</g>
<!-- Node3 -->
<g id="node3" class="node"><title>Node3</title>
<polygon fill="white" stroke="#bfbfbf" points="785.5,-6 785.5,-25 829.5,-25 829.5,-6 785.5,-6"/>
<text text-anchor="middle" x="807.5" y="-13" font-family="Helvetica,sans-Serif" font-size="10.00">string</text>
</g>
<!-- Node1&#45;&gt;Node3 -->
<g id="edge2" class="edge"><title>Node1&#45;&gt;Node3</title>
<path fill="none" stroke="midnightblue" d="M376.706,-308.739C515.69,-299.804 996.5,-264.318 996.5,-201 996.5,-201 996.5,-201 996.5,-143 996.5,-68.4124 893.586,-35.0218 839.642,-22.6428"/>
<polygon fill="midnightblue" stroke="midnightblue" points="840.067,-19.1533 829.551,-20.4412 838.575,-25.9924 840.067,-19.1533"/>
</g>
<!-- Node4 -->
<g id="node4" class="node"><title>Node4</title>
<polygon fill="white" stroke="#bfbfbf" points="0,-6 0,-25 47,-25 47,-6 0,-6"/>
<text text-anchor="middle" x="23.5" y="-13" font-family="Helvetica,sans-Serif" font-size="10.00">vector</text>
</g>
<!-- Node1&#45;&gt;Node4 -->
<g id="edge3" class="edge"><title>Node1&#45;&gt;Node4</title>
<path fill="none" stroke="midnightblue" d="M302.218,-306.412C216.851,-294.87 14.5,-261.164 14.5,-201 14.5,-201 14.5,-201 14.5,-143 14.5,-104.606 18.6761,-59.8211 21.3389,-35.1676"/>
<polygon fill="midnightblue" stroke="midnightblue" points="24.8345,-35.4015 22.4676,-25.0745 17.8778,-34.6235 24.8345,-35.4015"/>
</g>
<!-- Node5 -->
<g id="node5" class="node"><title>Node5</title>
<polygon fill="white" stroke="#bfbfbf" points="726.5,-73 726.5,-92 854.5,-92 854.5,-73 726.5,-73"/>
<text text-anchor="middle" x="790.5" y="-80" font-family="Helvetica,sans-Serif" font-size="10.00">boost/noncopyable.hpp</text>
</g>
<!-- Node1&#45;&gt;Node5 -->
<g id="edge4" class="edge"><title>Node1&#45;&gt;Node5</title>
<path fill="none" stroke="midnightblue" d="M376.631,-305.12C446.882,-293.171 603.168,-262.626 725.5,-210 768.777,-191.383 792.621,-195.183 815.5,-154 825.11,-136.702 814.423,-115.019 804.196,-100.3"/>
<polygon fill="midnightblue" stroke="midnightblue" points="806.874,-98.0366 798.074,-92.1363 801.274,-102.236 806.874,-98.0366"/>
</g>
<!-- Node6 -->
<g id="node6" class="node"><title>Node6</title>
<g id="a_node6"><a xlink:href="element_8h.xhtml" target="_top" xlink:title="Helper classes, structs, and properties common to all other classes. ">
<polygon fill="white" stroke="black" points="119,-73 119,-92 184,-92 184,-73 119,-73"/>
<text text-anchor="middle" x="151.5" y="-80" font-family="Helvetica,sans-Serif" font-size="10.00">element.h</text>
</a>
</g>
</g>
<!-- Node1&#45;&gt;Node6 -->
<g id="edge5" class="edge"><title>Node1&#45;&gt;Node6</title>
<path fill="none" stroke="midnightblue" d="M332.36,-302.36C304.441,-268.575 202.378,-145.068 165.181,-100.055"/>
<polygon fill="midnightblue" stroke="midnightblue" points="167.716,-97.6281 158.647,-92.1491 162.32,-102.087 167.716,-97.6281"/>
</g>
<!-- Node11 -->
<g id="node11" class="node"><title>Node11</title>
<g id="a_node11"><a xlink:href="instruction_8h.xhtml" target="_top" xlink:title="Model and event tree modifier instructions. ">
<polygon fill="white" stroke="black" points="379.5,-246.5 379.5,-265.5 455.5,-265.5 455.5,-246.5 379.5,-246.5"/>
<text text-anchor="middle" x="417.5" y="-253.5" font-family="Helvetica,sans-Serif" font-size="10.00">instruction.h</text>
</a>
</g>
</g>
<!-- Node1&#45;&gt;Node11 -->
<g id="edge12" class="edge"><title>Node1&#45;&gt;Node11</title>
<path fill="none" stroke="midnightblue" d="M352.032,-302.324C364.086,-293.979 382.527,-281.212 396.769,-271.352"/>
<polygon fill="midnightblue" stroke="midnightblue" points="398.769,-274.224 404.999,-265.655 394.785,-268.469 398.769,-274.224"/>
</g>
<!-- Node6&#45;&gt;Node3 -->
<g id="edge7" class="edge"><title>Node6&#45;&gt;Node3</title>
<path fill="none" stroke="midnightblue" d="M172.997,-72.8704C179.488,-70.5955 186.698,-68.3905 193.5,-67 414.823,-21.7538 475.792,-54.1795 700.5,-31 725.704,-28.4001 754.122,-24.5035 775.333,-21.4042"/>
<polygon fill="midnightblue" stroke="midnightblue" points="776.037,-24.8382 785.417,-19.9117 775.012,-17.9137 776.037,-24.8382"/>
</g>
<!-- Node6&#45;&gt;Node4 -->
<g id="edge8" class="edge"><title>Node6&#45;&gt;Node4</title>
<path fill="none" stroke="midnightblue" d="M134.503,-72.8685C112.794,-61.8447 75.0061,-42.6554 49.6274,-29.7678"/>
<polygon fill="midnightblue" stroke="midnightblue" points="51.0687,-26.5743 40.5677,-25.1672 47.8992,-32.8157 51.0687,-26.5743"/>
</g>
<!-- Node7 -->
<g id="node7" class="node"><title>Node7</title>
<polygon fill="white" stroke="#bfbfbf" points="562,-6 562,-25 611,-25 611,-6 562,-6"/>
<text text-anchor="middle" x="586.5" y="-13" font-family="Helvetica,sans-Serif" font-size="10.00">cstdint</text>
</g>
<!-- Node6&#45;&gt;Node7 -->
<g id="edge6" class="edge"><title>Node6&#45;&gt;Node7</title>
<path fill="none" stroke="midnightblue" d="M173.023,-72.9949C179.515,-70.7235 186.719,-68.4892 193.5,-67 350.123,-32.6028 397.19,-70.9103 552.5,-31 554.86,-30.3936 557.268,-29.6481 559.657,-28.8181"/>
<polygon fill="midnightblue" stroke="midnightblue" points="561.178,-31.9814 569.208,-25.0705 558.621,-25.4651 561.178,-31.9814"/>
</g>
<!-- Node8 -->
<g id="node8" class="node"><title>Node8</title>
<polygon fill="white" stroke="#bfbfbf" points="65.5,-6 65.5,-25 237.5,-25 237.5,-6 65.5,-6"/>
<text text-anchor="middle" x="151.5" y="-13" font-family="Helvetica,sans-Serif" font-size="10.00">boost/multi_index_container.hpp</text>
</g>
<!-- Node6&#45;&gt;Node8 -->
<g id="edge9" class="edge"><title>Node6&#45;&gt;Node8</title>
<path fill="none" stroke="midnightblue" d="M151.5,-72.7338C151.5,-63.1826 151.5,-47.6183 151.5,-35.2829"/>
<polygon fill="midnightblue" stroke="midnightblue" points="155,-35.1273 151.5,-25.1273 148,-35.1273 155,-35.1273"/>
</g>
<!-- Node9 -->
<g id="node9" class="node"><title>Node9</title>
<polygon fill="white" stroke="#bfbfbf" points="255.5,-0.5 255.5,-30.5 395.5,-30.5 395.5,-0.5 255.5,-0.5"/>
<text text-anchor="start" x="263.5" y="-18.5" font-family="Helvetica,sans-Serif" font-size="10.00">boost/multi_index/hashed</text>
<text text-anchor="middle" x="325.5" y="-7.5" font-family="Helvetica,sans-Serif" font-size="10.00">_index.hpp</text>
</g>
<!-- Node6&#45;&gt;Node9 -->
<g id="edge10" class="edge"><title>Node6&#45;&gt;Node9</title>
<path fill="none" stroke="midnightblue" d="M174.606,-72.8685C200.941,-63.0306 244.685,-46.6895 278.312,-34.1277"/>
<polygon fill="midnightblue" stroke="midnightblue" points="279.805,-37.3063 287.948,-30.5281 277.355,-30.7489 279.805,-37.3063"/>
</g>
<!-- Node10 -->
<g id="node10" class="node"><title>Node10</title>
<polygon fill="white" stroke="#bfbfbf" points="413.5,-0.5 413.5,-30.5 543.5,-30.5 543.5,-0.5 413.5,-0.5"/>
<text text-anchor="start" x="421.5" y="-18.5" font-family="Helvetica,sans-Serif" font-size="10.00">boost/multi_index/mem</text>
<text text-anchor="middle" x="478.5" y="-7.5" font-family="Helvetica,sans-Serif" font-size="10.00">_fun.hpp</text>
</g>
<!-- Node6&#45;&gt;Node10 -->
<g id="edge11" class="edge"><title>Node6&#45;&gt;Node10</title>
<path fill="none" stroke="midnightblue" d="M173.963,-72.987C180.225,-70.8223 187.073,-68.6458 193.5,-67 282.599,-44.1822 309.174,-47.8637 403.214,-31.1879"/>
<polygon fill="midnightblue" stroke="midnightblue" points="403.927,-34.6158 413.147,-29.3959 402.684,-27.727 403.927,-34.6158"/>
</g>
<!-- Node11&#45;&gt;Node2 -->
<g id="edge13" class="edge"><title>Node11&#45;&gt;Node2</title>
<path fill="none" stroke="midnightblue" d="M412.713,-246.368C402.736,-228.376 379.542,-186.55 366.275,-162.627"/>
<polygon fill="midnightblue" stroke="midnightblue" points="369.175,-160.639 361.264,-153.591 363.053,-164.034 369.175,-160.639"/>
</g>
<!-- Node11&#45;&gt;Node3 -->
<g id="edge14" class="edge"><title>Node11&#45;&gt;Node3</title>
<path fill="none" stroke="midnightblue" d="M455.716,-255.78C534.57,-255.418 717.46,-244.163 831.5,-154 866.312,-126.477 901.103,-106.305 880.5,-67 871.672,-50.1583 854.395,-37.8197 838.864,-29.5559"/>
<polygon fill="midnightblue" stroke="midnightblue" points="840.027,-26.2264 829.511,-24.9333 836.925,-32.5018 840.027,-26.2264"/>
</g>
<!-- Node11&#45;&gt;Node4 -->
<g id="edge15" class="edge"><title>Node11&#45;&gt;Node4</title>
<path fill="none" stroke="midnightblue" d="M380.609,-246.434C312.22,-228.949 164.215,-183.4 70.5,-98 51.1233,-80.3425 37.5689,-52.7906 30.1525,-34.6916"/>
<polygon fill="midnightblue" stroke="midnightblue" points="33.3785,-33.3301 26.4976,-25.2738 26.8527,-35.8627 33.3785,-33.3301"/>
</g>
<!-- Node11&#45;&gt;Node5 -->
<g id="edge16" class="edge"><title>Node11&#45;&gt;Node5</title>
<path fill="none" stroke="midnightblue" d="M455.502,-250.725C543.24,-239.992 755.628,-208.774 797.5,-154 808.789,-139.233 804.31,-117.332 798.746,-101.866"/>
<polygon fill="midnightblue" stroke="midnightblue" points="801.893,-100.313 794.9,-92.354 795.403,-102.937 801.893,-100.313"/>
</g>
<!-- Node11&#45;&gt;Node6 -->
<g id="edge17" class="edge"><title>Node11&#45;&gt;Node6</title>
<path fill="none" stroke="midnightblue" d="M404.309,-246.495C361.587,-218.951 226.708,-131.989 173.444,-97.6483"/>
<polygon fill="midnightblue" stroke="midnightblue" points="175.072,-94.5332 164.771,-92.056 171.279,-100.416 175.072,-94.5332"/>
</g>
<!-- Node12 -->
<g id="node12" class="node"><title>Node12</title>
<g id="a_node12"><a xlink:href="event_8h.xhtml" target="_top" xlink:title="Contains event classes for fault trees. ">
<polygon fill="white" stroke="black" points="530,-190.5 530,-209.5 583,-209.5 583,-190.5 530,-190.5"/>
<text text-anchor="middle" x="556.5" y="-197.5" font-family="Helvetica,sans-Serif" font-size="10.00">event.h</text>
</a>
</g>
</g>
<!-- Node11&#45;&gt;Node12 -->
<g id="edge18" class="edge"><title>Node11&#45;&gt;Node12</title>
<path fill="none" stroke="midnightblue" d="M439.525,-246.444C462.604,-237.478 499.062,-223.314 525.141,-213.183"/>
<polygon fill="midnightblue" stroke="midnightblue" points="526.524,-216.4 534.578,-209.516 523.989,-209.875 526.524,-216.4"/>
</g>
<!-- Node14 -->
<g id="node14" class="node"><title>Node14</title>
<g id="a_node14"><a xlink:href="expression_8h.xhtml" target="_top" xlink:title="Provides the base class for all expressions and units for expression values. ">
<polygon fill="white" stroke="black" points="442,-134.5 442,-153.5 519,-153.5 519,-134.5 442,-134.5"/>
<text text-anchor="middle" x="480.5" y="-141.5" font-family="Helvetica,sans-Serif" font-size="10.00">expression.h</text>
</a>
</g>
</g>
<!-- Node11&#45;&gt;Node14 -->
<g id="edge38" class="edge"><title>Node11&#45;&gt;Node14</title>
<path fill="none" stroke="midnightblue" d="M422.444,-246.368C432.794,-228.296 456.917,-186.176 470.588,-162.307"/>
<polygon fill="midnightblue" stroke="midnightblue" points="473.647,-164.008 475.579,-153.591 467.572,-160.53 473.647,-164.008"/>
</g>
<!-- Node12&#45;&gt;Node2 -->
<g id="edge20" class="edge"><title>Node12&#45;&gt;Node2</title>
<path fill="none" stroke="midnightblue" d="M529.942,-191.829C495.338,-182.486 434.588,-166.084 394.95,-155.382"/>
<polygon fill="midnightblue" stroke="midnightblue" points="395.677,-151.953 385.11,-152.725 393.852,-158.711 395.677,-151.953"/>
</g>
<!-- Node12&#45;&gt;Node3 -->
<g id="edge21" class="edge"><title>Node12&#45;&gt;Node3</title>
<path fill="none" stroke="midnightblue" d="M583.184,-198.439C629.141,-196.533 725.243,-188.38 797.5,-154 832.238,-137.472 847.338,-132.91 863.5,-98 869.288,-85.4972 869.099,-79.5888 863.5,-67 856.821,-51.9843 843.227,-39.552 831.106,-30.78"/>
<polygon fill="midnightblue" stroke="midnightblue" points="832.901,-27.7686 822.66,-25.055 828.974,-33.563 832.901,-27.7686"/>
</g>
<!-- Node12&#45;&gt;Node4 -->
<g id="edge22" class="edge"><title>Node12&#45;&gt;Node4</title>
<path fill="none" stroke="midnightblue" d="M558.459,-190.285C563.241,-166.467 572.695,-99.8711 537.5,-67 498.332,-30.4185 108.502,-43.9658 56.5,-31 54.1433,-30.4124 51.7427,-29.6697 49.3657,-28.8324"/>
<polygon fill="midnightblue" stroke="midnightblue" points="50.4829,-25.5091 39.8997,-25.0131 47.8637,-32.0006 50.4829,-25.5091"/>
</g>
<!-- Node12&#45;&gt;Node5 -->
<g id="edge23" class="edge"><title>Node12&#45;&gt;Node5</title>
<path fill="none" stroke="midnightblue" d="M571.739,-190.463C594.668,-177.714 639.511,-153.151 678.5,-134 706.184,-120.402 738.327,-106.054 761.06,-96.1408"/>
<polygon fill="midnightblue" stroke="midnightblue" points="762.709,-99.2405 770.489,-92.0482 759.922,-92.8193 762.709,-99.2405"/>
</g>
<!-- Node12&#45;&gt;Node6 -->
<g id="edge25" class="edge"><title>Node12&#45;&gt;Node6</title>
<path fill="none" stroke="midnightblue" d="M529.998,-190.46C504.632,-182.035 465.461,-168.365 432.5,-154 414.642,-146.218 411.954,-140.238 393.5,-134 307.939,-105.078 280.891,-120.805 193.5,-98 190.463,-97.2075 187.331,-96.3006 184.21,-95.3358"/>
<polygon fill="midnightblue" stroke="midnightblue" points="185.003,-91.9129 174.411,-92.1253 182.824,-98.565 185.003,-91.9129"/>
</g>
<!-- Node12&#45;&gt;Node7 -->
<g id="edge19" class="edge"><title>Node12&#45;&gt;Node7</title>
<path fill="none" stroke="midnightblue" d="M567.56,-190.479C586.984,-174.728 626.577,-138.907 641.5,-98 646.222,-85.0566 647.043,-79.6137 641.5,-67 634.954,-52.1021 621.603,-39.672 609.695,-30.8718"/>
<polygon fill="midnightblue" stroke="midnightblue" points="611.61,-27.9406 601.396,-25.122 607.623,-33.6943 611.61,-27.9406"/>
</g>
<!-- Node13 -->
<g id="node13" class="node"><title>Node13</title>
<polygon fill="white" stroke="#bfbfbf" points="688,-134.5 688,-153.5 789,-153.5 789,-134.5 688,-134.5"/>
<text text-anchor="middle" x="738.5" y="-141.5" font-family="Helvetica,sans-Serif" font-size="10.00">boost/variant.hpp</text>
</g>
<!-- Node12&#45;&gt;Node13 -->
<g id="edge24" class="edge"><title>Node12&#45;&gt;Node13</title>
<path fill="none" stroke="midnightblue" d="M583.355,-191.032C614.133,-181.9 664.831,-166.858 699.852,-156.467"/>
<polygon fill="midnightblue" stroke="midnightblue" points="701.139,-159.736 709.731,-153.536 699.148,-153.025 701.139,-159.736"/>
</g>
<!-- Node12&#45;&gt;Node14 -->
<g id="edge26" class="edge"><title>Node12&#45;&gt;Node14</title>
<path fill="none" stroke="midnightblue" d="M544.289,-190.324C532.724,-182.107 515.125,-169.602 501.339,-159.807"/>
<polygon fill="midnightblue" stroke="midnightblue" points="503.112,-156.773 492.933,-153.834 499.057,-162.479 503.112,-156.773"/>
</g>
<!-- Node14&#45;&gt;Node3 -->
<g id="edge29" class="edge"><title>Node14&#45;&gt;Node3</title>
<path fill="none" stroke="midnightblue" d="M518.544,-134.461C551.575,-126.556 600.419,-113.673 641.5,-98 693.694,-78.0872 751.625,-47.5924 783.381,-30.0997"/>
<polygon fill="midnightblue" stroke="midnightblue" points="785.317,-33.0284 792.361,-25.1145 781.919,-26.9082 785.317,-33.0284"/>
</g>
<!-- Node14&#45;&gt;Node4 -->
<g id="edge31" class="edge"><title>Node14&#45;&gt;Node4</title>
<path fill="none" stroke="midnightblue" d="M441.975,-138.985C350.061,-129.317 124.435,-105.024 109.5,-98 92.9946,-90.2372 58.0859,-54.1178 38.1926,-32.6552"/>
<polygon fill="midnightblue" stroke="midnightblue" points="40.7175,-30.2301 31.3732,-25.2367 35.5641,-34.9675 40.7175,-30.2301"/>
</g>
<!-- Node14&#45;&gt;Node5 -->
<g id="edge33" class="edge"><title>Node14&#45;&gt;Node5</title>
<path fill="none" stroke="midnightblue" d="M519.135,-135.585C573.792,-125.094 673.943,-105.872 736.098,-93.9417"/>
<polygon fill="midnightblue" stroke="midnightblue" points="736.95,-97.3421 746.111,-92.0198 735.63,-90.4676 736.95,-97.3421"/>
</g>
<!-- Node14&#45;&gt;Node6 -->
<g id="edge34" class="edge"><title>Node14&#45;&gt;Node6</title>
<path fill="none" stroke="midnightblue" d="M441.724,-136.344C436.936,-135.543 432.107,-134.745 427.5,-134 323.628,-117.192 295.644,-123.271 193.5,-98 190.28,-97.2034 186.957,-96.2653 183.656,-95.2557"/>
<polygon fill="midnightblue" stroke="midnightblue" points="184.538,-91.8618 173.945,-92.0825 182.364,-98.5156 184.538,-91.8618"/>
</g>
<!-- Node15 -->
<g id="node15" class="node"><title>Node15</title>
<polygon fill="white" stroke="#bfbfbf" points="202.5,-73 202.5,-92 264.5,-92 264.5,-73 202.5,-73"/>
<text text-anchor="middle" x="233.5" y="-80" font-family="Helvetica,sans-Serif" font-size="10.00">algorithm</text>
</g>
<!-- Node14&#45;&gt;Node15 -->
<g id="edge27" class="edge"><title>Node14&#45;&gt;Node15</title>
<path fill="none" stroke="midnightblue" d="M441.966,-136.221C400.104,-128.486 331.45,-114.721 273.5,-98 270.706,-97.1937 267.824,-96.2924 264.949,-95.3443"/>
<polygon fill="midnightblue" stroke="midnightblue" points="265.928,-91.9792 255.333,-92.0115 263.635,-98.5933 265.928,-91.9792"/>
</g>
<!-- Node16 -->
<g id="node16" class="node"><title>Node16</title>
<polygon fill="white" stroke="#bfbfbf" points="282.5,-73 282.5,-92 338.5,-92 338.5,-73 282.5,-73"/>
<text text-anchor="middle" x="310.5" y="-80" font-family="Helvetica,sans-Serif" font-size="10.00">sstream</text>
</g>
<!-- Node14&#45;&gt;Node16 -->
<g id="edge28" class="edge"><title>Node14&#45;&gt;Node16</title>
<path fill="none" stroke="midnightblue" d="M453.875,-134.402C426.932,-125.605 384.139,-111.369 347.5,-98 345.604,-97.3083 343.659,-96.5853 341.699,-95.8473"/>
<polygon fill="midnightblue" stroke="midnightblue" points="342.546,-92.4234 331.956,-92.1065 340.037,-98.9583 342.546,-92.4234"/>
</g>
<!-- Node17 -->
<g id="node17" class="node"><title>Node17</title>
<polygon fill="white" stroke="#bfbfbf" points="356.5,-73 356.5,-92 398.5,-92 398.5,-73 356.5,-73"/>
<text text-anchor="middle" x="377.5" y="-80" font-family="Helvetica,sans-Serif" font-size="10.00">utility</text>
</g>
<!-- Node14&#45;&gt;Node17 -->
<g id="edge30" class="edge"><title>Node14&#45;&gt;Node17</title>
<path fill="none" stroke="midnightblue" d="M465.743,-134.475C448.839,-124.711 420.917,-108.581 401.01,-97.0808"/>
<polygon fill="midnightblue" stroke="midnightblue" points="402.64,-93.9805 392.23,-92.0091 399.138,-100.042 402.64,-93.9805"/>
</g>
<!-- Node18 -->
<g id="node18" class="node"><title>Node18</title>
<polygon fill="white" stroke="#bfbfbf" points="416.5,-67.5 416.5,-97.5 528.5,-97.5 528.5,-67.5 416.5,-67.5"/>
<text text-anchor="start" x="424.5" y="-85.5" font-family="Helvetica,sans-Serif" font-size="10.00">boost/icl/continuous</text>
<text text-anchor="middle" x="472.5" y="-74.5" font-family="Helvetica,sans-Serif" font-size="10.00">_interval.hpp</text>
</g>
<!-- Node14&#45;&gt;Node18 -->
<g id="edge32" class="edge"><title>Node14&#45;&gt;Node18</title>
<path fill="none" stroke="midnightblue" d="M479.354,-134.475C478.412,-127.471 477.03,-117.192 475.753,-107.696"/>
<polygon fill="midnightblue" stroke="midnightblue" points="479.187,-106.967 474.385,-97.523 472.249,-107.9 479.187,-106.967"/>
</g>
<!-- Node19 -->
<g id="node19" class="node"><title>Node19</title>
<g id="a_node19"><a xlink:href="error_8h.xhtml" target="_top" xlink:title="Exceptions for SCRAM. ">
<polygon fill="white" stroke="black" points="584.5,-73 584.5,-92 632.5,-92 632.5,-73 584.5,-73"/>
<text text-anchor="middle" x="608.5" y="-80" font-family="Helvetica,sans-Serif" font-size="10.00">error.h</text>
</a>
</g>
</g>
<!-- Node14&#45;&gt;Node19 -->
<g id="edge35" class="edge"><title>Node14&#45;&gt;Node19</title>
<path fill="none" stroke="midnightblue" d="M498.839,-134.475C520.321,-124.49 556.122,-107.848 580.948,-96.3075"/>
<polygon fill="midnightblue" stroke="midnightblue" points="582.602,-99.3983 590.195,-92.0091 579.651,-93.0506 582.602,-99.3983"/>
</g>
<!-- Node19&#45;&gt;Node3 -->
<g id="edge37" class="edge"><title>Node19&#45;&gt;Node3</title>
<path fill="none" stroke="midnightblue" d="M630.12,-72.9907C635.452,-70.9641 641.164,-68.8531 646.5,-67 690.948,-51.5649 742.998,-35.6191 775.615,-25.8793"/>
<polygon fill="midnightblue" stroke="midnightblue" points="776.9,-29.1487 785.487,-22.9436 774.905,-22.4391 776.9,-29.1487"/>
</g>
<!-- Node20 -->
<g id="node20" class="node"><title>Node20</title>
<polygon fill="white" stroke="#bfbfbf" points="629,-6 629,-25 692,-25 692,-6 629,-6"/>
<text text-anchor="middle" x="660.5" y="-13" font-family="Helvetica,sans-Serif" font-size="10.00">exception</text>
</g>
<!-- Node19&#45;&gt;Node20 -->
<g id="edge36" class="edge"><title>Node19&#45;&gt;Node20</title>
<path fill="none" stroke="midnightblue" d="M615.513,-72.7338C623.622,-62.5979 637.148,-45.6899 647.255,-33.0556"/>
<polygon fill="midnightblue" stroke="midnightblue" points="650.084,-35.1225 653.598,-25.1273 644.618,-30.7496 650.084,-35.1225"/>
</g>
</g>
</svg>
        <g id="navigator" transform="translate(0 0)" fill="#404254">
                <rect fill="#f2f5e9" fill-opacity="0.5" stroke="#606060" stroke-width=".5" x="0" y="0" width="60" height="60"/>
                <use id="zoomplus" xlink:href="#zoomPlus" x="17" y="9" onmousedown="handleZoom(evt,'in')"/>
                <use id="zoomminus" xlink:href="#zoomMin" x="42" y="9" onmousedown="handleZoom(evt,'out')"/>
                <use id="reset" xlink:href="#resetDef" x="30" y="36" onmousedown="handleReset()"/>
                <g id="arrowUp" xlink:href="#dirArrow" transform="translate(30 24)" onmousedown="handlePan(0,-1)">
                  <use xlink:href="#rim" fill="#404040">
                        <set attributeName="fill" to="#808080" begin="arrowUp.mouseover" end="arrowUp.mouseout"/>
                  </use>
                  <path fill="none" stroke="white" stroke-width="1.5" d="M0,-3.0v7 M-2.5,-0.5L0,-3.0L2.5,-0.5"/>
                </g>
                <g id="arrowRight" xlink:href="#dirArrow" transform="rotate(90) translate(36 -43)" onmousedown="handlePan(1,0)">
                  <use xlink:href="#rim" fill="#404040">
                        <set attributeName="fill" to="#808080" begin="arrowRight.mouseover" end="arrowRight.mouseout"/>
                  </use>
                  <path fill="none" stroke="white" stroke-width="1.5" d="M0,-3.0v7 M-2.5,-0.5L0,-3.0L2.5,-0.5"/>
                </g>
                <g id="arrowDown" xlink:href="#dirArrow" transform="rotate(180) translate(-30 -48)" onmousedown="handlePan(0,1)">
                  <use xlink:href="#rim" fill="#404040">
                        <set attributeName="fill" to="#808080" begin="arrowDown.mouseover" end="arrowDown.mouseout"/>
                  </use>
                  <path fill="none" stroke="white" stroke-width="1.5" d="M0,-3.0v7 M-2.5,-0.5L0,-3.0L2.5,-0.5"/>
                </g>
                <g id="arrowLeft" xlink:href="#dirArrow" transform="rotate(270) translate(-36 17)" onmousedown="handlePan(-1,0)">
                  <use xlink:href="#rim" fill="#404040">
                        <set attributeName="fill" to="#808080" begin="arrowLeft.mouseover" end="arrowLeft.mouseout"/>
                  </use>
                  <path fill="none" stroke="white" stroke-width="1.5" d="M0,-3.0v7 M-2.5,-0.5L0,-3.0L2.5,-0.5"/>
                </g>
        </g>
        <svg viewBox="0 0 15 15" width="100%" height="30px" preserveAspectRatio="xMaxYMin meet">
         <g id="arrow_out" transform="scale(0.3 0.3)">
          <a xlink:href="alignment_8h__incl_org.svg" target="_base">
           <rect id="button" ry="5" rx="5" y="6" x="6" height="38" width="38"
                fill="#f2f5e9" fill-opacity="0.5" stroke="#606060" stroke-width="1.0"/>
           <path id="arrow"
             d="M 11.500037,31.436501 C 11.940474,20.09759 22.043105,11.32322 32.158766,21.979434 L 37.068811,17.246167 C 37.068811,17.246167 37.088388,32 37.088388,32 L 22.160133,31.978069 C 22.160133,31.978069 26.997745,27.140456 26.997745,27.140456 C 18.528582,18.264221 13.291696,25.230495 11.500037,31.436501 z"
             style="fill:#404040;"/>
          </a>
         </g>
        </svg>
</svg>
