<?xml version="1.0" encoding="UTF-8" standalone="no"?>
<!DOCTYPE svg PUBLIC "-//W3C//DTD SVG 1.1//EN"
 "http://www.w3.org/Graphics/SVG/1.1/DTD/svg11.dtd">
<!-- Generated by graphviz version 2.38.0 (20140413.2041)
 -->
<!-- Title: alignment.cc Pages: 1 -->
<!--zoomable 386 -->
<svg id="main" version="1.1" xmlns="http://www.w3.org/2000/svg" xmlns:xlink="http://www.w3.org/1999/xlink" xml:space="preserve" onload="init(evt)">
<style type="text/css"><![CDATA[
.edge:hover path { stroke: red; }
.edge:hover polygon { stroke: red; fill: red; }
]]></style>
<script type="text/javascript"><![CDATA[
var edges = document.getElementsByTagName('g');
if (edges && edges.length) {
  for (var i=0;i<edges.length;i++) {
    if (edges[i].id.substr(0,4)=='edge') {
      edges[i].setAttribute('class','edge');
    }
  }
}
]]></script>
        <defs>
                <circle id="rim" cx="0" cy="0" r="7"/>
                <circle id="rim2" cx="0" cy="0" r="3.5"/>
                <g id="zoomPlus">
                        <use xlink:href="#rim" fill="#404040">
                                <set attributeName="fill" to="#808080" begin="zoomplus.mouseover" end="zoomplus.mouseout"/>
                        </use>
                        <path d="M-4,0h8M0,-4v8" fill="none" stroke="white" stroke-width="1.5" pointer-events="none"/>
                </g>
                <g id="zoomMin">
                        <use xlink:href="#rim" fill="#404040">
                                <set attributeName="fill" to="#808080" begin="zoomminus.mouseover" end="zoomminus.mouseout"/>
                        </use>
                        <path d="M-4,0h8" fill="none" stroke="white" stroke-width="1.5" pointer-events="none"/>
                </g>
                <g id="dirArrow">
                        <path fill="none" stroke="white" stroke-width="1.5" d="M0,-3.0v7 M-2.5,-0.5L0,-3.0L2.5,-0.5"/>
                </g>
               <g id="resetDef">
                       <use xlink:href="#rim2" fill="#404040">
                               <set attributeName="fill" to="#808080" begin="reset.mouseover" end="reset.mouseout"/>
                       </use>
               </g>
        </defs>

<script type="text/javascript">
var viewWidth = 1245;
var viewHeight = 386;
var sectionId = 'dynsection-0';
</script>
<script xlink:href="svgpan.js"/>
<svg id="graph" class="graph">
<g id="viewport">
<title>alignment.cc</title>
<polygon fill="white" stroke="none" points="-4,4 -4,-382 1241,-382 1241,4 -4,4"/>
<!-- Node1 -->
<g id="node1" class="node"><title>Node1</title>
<polygon fill="#bfbfbf" stroke="black" points="1036,-358.5 1036,-377.5 1114,-377.5 1114,-358.5 1036,-358.5"/>
<text text-anchor="middle" x="1075" y="-365.5" font-family="Helvetica,sans-Serif" font-size="10.00">alignment.cc</text>
</g>
<!-- Node2 -->
<g id="node2" class="node"><title>Node2</title>
<g id="a_node2"><a xlink:href="alignment_8h.xhtml" target="_top" xlink:title="Mission and phase constructs. ">
<polygon fill="white" stroke="black" points="348,-302.5 348,-321.5 422,-321.5 422,-302.5 348,-302.5"/>
<text text-anchor="middle" x="385" y="-309.5" font-family="Helvetica,sans-Serif" font-size="10.00">alignment.h</text>
</a>
</g>
</g>
<!-- Node1&#45;&gt;Node2 -->
<g id="edge1" class="edge"><title>Node1&#45;&gt;Node2</title>
<path fill="none" stroke="midnightblue" d="M1035.93,-363.942C917.264,-354.655 561.349,-326.801 432.35,-316.706"/>
<polygon fill="midnightblue" stroke="midnightblue" points="432.621,-313.216 422.378,-315.925 432.075,-320.195 432.621,-313.216"/>
</g>
<!-- Node20 -->
<g id="node20" class="node"><title>Node20</title>
<g id="a_node20"><a xlink:href="error_8h.xhtml" target="_top" xlink:title="Exceptions for SCRAM. ">
<polygon fill="white" stroke="black" points="1058,-73 1058,-92 1106,-92 1106,-73 1058,-73"/>
<text text-anchor="middle" x="1082" y="-80" font-family="Helvetica,sans-Serif" font-size="10.00">error.h</text>
</a>
</g>
</g>
<!-- Node1&#45;&gt;Node20 -->
<g id="edge40" class="edge"><title>Node1&#45;&gt;Node20</title>
<path fill="none" stroke="midnightblue" d="M1075,-358.442C1075,-339.936 1075,-294.812 1075,-257 1075,-257 1075,-257 1075,-199 1075,-164.801 1078.1,-125.01 1080.17,-102.188"/>
<polygon fill="midnightblue" stroke="midnightblue" points="1083.66,-102.467 1081.11,-92.1825 1076.69,-101.81 1083.66,-102.467"/>
</g>
<!-- Node22 -->
<g id="node22" class="node"><title>Node22</title>
<g id="a_node22"><a xlink:href="float__compare_8h.xhtml" target="_top" xlink:title="Floating pointing comparison helper functions. ">
<polygon fill="white" stroke="black" points="1103.5,-302.5 1103.5,-321.5 1216.5,-321.5 1216.5,-302.5 1103.5,-302.5"/>
<text text-anchor="middle" x="1160" y="-309.5" font-family="Helvetica,sans-Serif" font-size="10.00">ext/float_compare.h</text>
</a>
</g>
</g>
<!-- Node1&#45;&gt;Node22 -->
<g id="edge41" class="edge"><title>Node1&#45;&gt;Node22</title>
<path fill="none" stroke="midnightblue" d="M1088.66,-358.324C1101.92,-349.9 1122.27,-336.971 1137.85,-327.074"/>
<polygon fill="midnightblue" stroke="midnightblue" points="1139.81,-329.971 1146.38,-321.655 1136.06,-324.063 1139.81,-329.971"/>
</g>
<!-- Node3 -->
<g id="node3" class="node"><title>Node3</title>
<polygon fill="white" stroke="#bfbfbf" points="104.5,-134.5 104.5,-153.5 161.5,-153.5 161.5,-134.5 104.5,-134.5"/>
<text text-anchor="middle" x="133" y="-141.5" font-family="Helvetica,sans-Serif" font-size="10.00">memory</text>
</g>
<!-- Node2&#45;&gt;Node3 -->
<g id="edge2" class="edge"><title>Node2&#45;&gt;Node3</title>
<path fill="none" stroke="midnightblue" d="M357.494,-302.459C315.472,-288.391 234.345,-257.128 179,-210 163.264,-196.6 150.22,-176.684 142.089,-162.431"/>
<polygon fill="midnightblue" stroke="midnightblue" points="145.14,-160.716 137.273,-153.619 138.998,-164.073 145.14,-160.716"/>
</g>
<!-- Node4 -->
<g id="node4" class="node"><title>Node4</title>
<polygon fill="white" stroke="#bfbfbf" points="878,-6 878,-25 922,-25 922,-6 878,-6"/>
<text text-anchor="middle" x="900" y="-13" font-family="Helvetica,sans-Serif" font-size="10.00">string</text>
</g>
<!-- Node2&#45;&gt;Node4 -->
<g id="edge3" class="edge"><title>Node2&#45;&gt;Node4</title>
<path fill="none" stroke="midnightblue" d="M422.466,-308.605C560.125,-299.313 1030,-263.052 1030,-201 1030,-201 1030,-201 1030,-143 1030,-104.829 1016.63,-94.3506 990,-67 973.61,-50.1642 950.395,-37.3251 931.648,-28.8061"/>
<polygon fill="midnightblue" stroke="midnightblue" points="932.878,-25.5243 922.311,-24.7466 930.086,-31.9438 932.878,-25.5243"/>
</g>
<!-- Node5 -->
<g id="node5" class="node"><title>Node5</title>
<polygon fill="white" stroke="#bfbfbf" points="8.5,-6 8.5,-25 55.5,-25 55.5,-6 8.5,-6"/>
<text text-anchor="middle" x="32" y="-13" font-family="Helvetica,sans-Serif" font-size="10.00">vector</text>
</g>
<!-- Node2&#45;&gt;Node5 -->
<g id="edge4" class="edge"><title>Node2&#45;&gt;Node5</title>
<path fill="none" stroke="midnightblue" d="M347.735,-308.332C251.115,-300.397 0,-272.861 0,-201 0,-201 0,-201 0,-143 0,-103.336 14.969,-58.7537 24.431,-34.5349"/>
<polygon fill="midnightblue" stroke="midnightblue" points="27.7005,-35.7856 28.2035,-25.2028 21.2107,-33.1621 27.7005,-35.7856"/>
</g>
<!-- Node6 -->
<g id="node6" class="node"><title>Node6</title>
<polygon fill="white" stroke="#bfbfbf" points="836,-73 836,-92 964,-92 964,-73 836,-73"/>
<text text-anchor="middle" x="900" y="-80" font-family="Helvetica,sans-Serif" font-size="10.00">boost/noncopyable.hpp</text>
</g>
<!-- Node2&#45;&gt;Node6 -->
<g id="edge5" class="edge"><title>Node2&#45;&gt;Node6</title>
<path fill="none" stroke="midnightblue" d="M404.249,-302.497C482.563,-267.902 777.52,-137.605 871.233,-96.208"/>
<polygon fill="midnightblue" stroke="midnightblue" points="872.922,-99.2881 880.655,-92.0458 870.093,-92.8851 872.922,-99.2881"/>
</g>
<!-- Node7 -->
<g id="node7" class="node"><title>Node7</title>
<g id="a_node7"><a xlink:href="element_8h.xhtml" target="_top" xlink:title="Helper classes, structs, and properties common to all other classes. ">
<polygon fill="white" stroke="black" points="294.5,-73 294.5,-92 359.5,-92 359.5,-73 294.5,-73"/>
<text text-anchor="middle" x="327" y="-80" font-family="Helvetica,sans-Serif" font-size="10.00">element.h</text>
</a>
</g>
</g>
<!-- Node2&#45;&gt;Node7 -->
<g id="edge6" class="edge"><title>Node2&#45;&gt;Node7</title>
<path fill="none" stroke="midnightblue" d="M347.791,-305.254C280.074,-292.441 139.574,-254.324 95,-154 91.3909,-145.877 89.4229,-140.922 95,-134 118.287,-105.099 223.614,-91.8691 284.036,-86.5643"/>
<polygon fill="midnightblue" stroke="midnightblue" points="284.376,-90.0482 294.047,-85.7217 283.788,-83.0729 284.376,-90.0482"/>
</g>
<!-- Node12 -->
<g id="node12" class="node"><title>Node12</title>
<g id="a_node12"><a xlink:href="instruction_8h.xhtml" target="_top" xlink:title="Model and event tree modifier instructions. ">
<polygon fill="white" stroke="black" points="347,-246.5 347,-265.5 423,-265.5 423,-246.5 347,-246.5"/>
<text text-anchor="middle" x="385" y="-253.5" font-family="Helvetica,sans-Serif" font-size="10.00">instruction.h</text>
</a>
</g>
</g>
<!-- Node2&#45;&gt;Node12 -->
<g id="edge13" class="edge"><title>Node2&#45;&gt;Node12</title>
<path fill="none" stroke="midnightblue" d="M385,-302.083C385,-295.006 385,-284.861 385,-275.986"/>
<polygon fill="midnightblue" stroke="midnightblue" points="388.5,-275.751 385,-265.751 381.5,-275.751 388.5,-275.751"/>
</g>
<!-- Node7&#45;&gt;Node4 -->
<g id="edge8" class="edge"><title>Node7&#45;&gt;Node4</title>
<path fill="none" stroke="midnightblue" d="M359.617,-75.4186C375.401,-72.6082 394.647,-69.3754 412,-67 582.865,-43.6112 788.721,-25.6291 867.331,-19.1322"/>
<polygon fill="midnightblue" stroke="midnightblue" points="867.882,-22.5989 877.562,-18.2924 867.309,-15.6224 867.882,-22.5989"/>
</g>
<!-- Node7&#45;&gt;Node5 -->
<g id="edge9" class="edge"><title>Node7&#45;&gt;Node5</title>
<path fill="none" stroke="midnightblue" d="M301.312,-72.8979C294.439,-70.7827 286.98,-68.6532 280,-67 185.723,-44.6694 157.842,-58.7002 65,-31 62.8562,-30.3604 60.6676,-29.6166 58.4885,-28.8103"/>
<polygon fill="midnightblue" stroke="midnightblue" points="59.7458,-25.5432 49.1647,-25.0036 57.0999,-32.0239 59.7458,-25.5432"/>
</g>
<!-- Node8 -->
<g id="node8" class="node"><title>Node8</title>
<polygon fill="white" stroke="#bfbfbf" points="570.5,-6 570.5,-25 619.5,-25 619.5,-6 570.5,-6"/>
<text text-anchor="middle" x="595" y="-13" font-family="Helvetica,sans-Serif" font-size="10.00">cstdint</text>
</g>
<!-- Node7&#45;&gt;Node8 -->
<g id="edge7" class="edge"><title>Node7&#45;&gt;Node8</title>
<path fill="none" stroke="midnightblue" d="M353.207,-72.8613C359.943,-70.7939 367.206,-68.6965 374,-67 456.116,-46.494 480.06,-55.7411 561,-31 563.144,-30.3446 565.336,-29.5981 567.523,-28.7974"/>
<polygon fill="midnightblue" stroke="midnightblue" points="568.92,-32.0084 576.915,-25.0561 566.33,-25.5054 568.92,-32.0084"/>
</g>
<!-- Node9 -->
<g id="node9" class="node"><title>Node9</title>
<polygon fill="white" stroke="#bfbfbf" points="74,-6 74,-25 246,-25 246,-6 74,-6"/>
<text text-anchor="middle" x="160" y="-13" font-family="Helvetica,sans-Serif" font-size="10.00">boost/multi_index_container.hpp</text>
</g>
<!-- Node7&#45;&gt;Node9 -->
<g id="edge10" class="edge"><title>Node7&#45;&gt;Node9</title>
<path fill="none" stroke="midnightblue" d="M304.824,-72.8685C275.797,-61.5706 224.735,-41.6961 191.649,-28.8183"/>
<polygon fill="midnightblue" stroke="midnightblue" points="192.591,-25.4292 182.002,-25.0637 190.052,-31.9525 192.591,-25.4292"/>
</g>
<!-- Node10 -->
<g id="node10" class="node"><title>Node10</title>
<polygon fill="white" stroke="#bfbfbf" points="264,-0.5 264,-30.5 404,-30.5 404,-0.5 264,-0.5"/>
<text text-anchor="start" x="272" y="-18.5" font-family="Helvetica,sans-Serif" font-size="10.00">boost/multi_index/hashed</text>
<text text-anchor="middle" x="334" y="-7.5" font-family="Helvetica,sans-Serif" font-size="10.00">_index.hpp</text>
</g>
<!-- Node7&#45;&gt;Node10 -->
<g id="edge11" class="edge"><title>Node7&#45;&gt;Node10</title>
<path fill="none" stroke="midnightblue" d="M327.944,-72.7338C328.826,-64.5406 330.185,-51.9225 331.392,-40.7136"/>
<polygon fill="midnightblue" stroke="midnightblue" points="334.892,-40.9063 332.483,-30.589 327.932,-40.1567 334.892,-40.9063"/>
</g>
<!-- Node11 -->
<g id="node11" class="node"><title>Node11</title>
<polygon fill="white" stroke="#bfbfbf" points="422,-0.5 422,-30.5 552,-30.5 552,-0.5 422,-0.5"/>
<text text-anchor="start" x="430" y="-18.5" font-family="Helvetica,sans-Serif" font-size="10.00">boost/multi_index/mem</text>
<text text-anchor="middle" x="487" y="-7.5" font-family="Helvetica,sans-Serif" font-size="10.00">_fun.hpp</text>
</g>
<!-- Node7&#45;&gt;Node11 -->
<g id="edge12" class="edge"><title>Node7&#45;&gt;Node11</title>
<path fill="none" stroke="midnightblue" d="M348.247,-72.8685C372.255,-63.115 411.998,-46.9696 442.81,-34.452"/>
<polygon fill="midnightblue" stroke="midnightblue" points="444.522,-37.5345 452.469,-30.5281 441.887,-31.0493 444.522,-37.5345"/>
</g>
<!-- Node12&#45;&gt;Node3 -->
<g id="edge14" class="edge"><title>Node12&#45;&gt;Node3</title>
<path fill="none" stroke="midnightblue" d="M346.684,-249.63C310.91,-243.547 256.766,-231.551 214,-210 188.731,-197.266 164.002,-175.717 148.648,-160.946"/>
<polygon fill="midnightblue" stroke="midnightblue" points="150.716,-158.069 141.139,-153.537 145.799,-163.052 150.716,-158.069"/>
</g>
<!-- Node12&#45;&gt;Node4 -->
<g id="edge15" class="edge"><title>Node12&#45;&gt;Node4</title>
<path fill="none" stroke="midnightblue" d="M423.003,-250.824C542.181,-236.871 904.719,-187.609 973,-98 981.351,-87.0412 979.397,-79.2029 973,-67 964.172,-50.1583 946.895,-37.8197 931.364,-29.5559"/>
<polygon fill="midnightblue" stroke="midnightblue" points="932.527,-26.2264 922.011,-24.9333 929.425,-32.5018 932.527,-26.2264"/>
</g>
<!-- Node12&#45;&gt;Node5 -->
<g id="edge16" class="edge"><title>Node12&#45;&gt;Node5</title>
<path fill="none" stroke="midnightblue" d="M346.751,-253.436C283.949,-248.679 159.526,-229.648 95,-154 63.8601,-117.492 45.0754,-63.0409 36.8744,-34.8664"/>
<polygon fill="midnightblue" stroke="midnightblue" points="40.2197,-33.8324 34.1638,-25.1389 33.4766,-35.7115 40.2197,-33.8324"/>
</g>
<!-- Node12&#45;&gt;Node6 -->
<g id="edge17" class="edge"><title>Node12&#45;&gt;Node6</title>
<path fill="none" stroke="midnightblue" d="M410.539,-246.495C495.221,-218.295 766.928,-127.814 864.606,-95.2864"/>
<polygon fill="midnightblue" stroke="midnightblue" points="865.925,-98.5363 874.307,-92.056 863.713,-91.8949 865.925,-98.5363"/>
</g>
<!-- Node12&#45;&gt;Node7 -->
<g id="edge18" class="edge"><title>Node12&#45;&gt;Node7</title>
<path fill="none" stroke="midnightblue" d="M369.595,-246.261C344.773,-231.177 296.814,-197.63 278,-154 268.921,-132.945 288.445,-111.738 305.476,-98.1642"/>
<polygon fill="midnightblue" stroke="midnightblue" points="307.599,-100.947 313.5,-92.1479 303.4,-95.3465 307.599,-100.947"/>
</g>
<!-- Node13 -->
<g id="node13" class="node"><title>Node13</title>
<g id="a_node13"><a xlink:href="event_8h.xhtml" target="_top" xlink:title="Contains event classes for fault trees. ">
<polygon fill="white" stroke="black" points="358.5,-190.5 358.5,-209.5 411.5,-209.5 411.5,-190.5 358.5,-190.5"/>
<text text-anchor="middle" x="385" y="-197.5" font-family="Helvetica,sans-Serif" font-size="10.00">event.h</text>
</a>
</g>
</g>
<!-- Node12&#45;&gt;Node13 -->
<g id="edge19" class="edge"><title>Node12&#45;&gt;Node13</title>
<path fill="none" stroke="midnightblue" d="M385,-246.083C385,-239.006 385,-228.861 385,-219.986"/>
<polygon fill="midnightblue" stroke="midnightblue" points="388.5,-219.751 385,-209.751 381.5,-219.751 388.5,-219.751"/>
</g>
<!-- Node15 -->
<g id="node15" class="node"><title>Node15</title>
<g id="a_node15"><a xlink:href="expression_8h.xhtml" target="_top" xlink:title="Provides the base class for all expressions and units for expression values. ">
<polygon fill="white" stroke="black" points="531.5,-134.5 531.5,-153.5 608.5,-153.5 608.5,-134.5 531.5,-134.5"/>
<text text-anchor="middle" x="570" y="-141.5" font-family="Helvetica,sans-Serif" font-size="10.00">expression.h</text>
</a>
</g>
</g>
<!-- Node12&#45;&gt;Node15 -->
<g id="edge39" class="edge"><title>Node12&#45;&gt;Node15</title>
<path fill="none" stroke="midnightblue" d="M399.517,-246.368C431.398,-227.412 507.772,-182.001 546.551,-158.942"/>
<polygon fill="midnightblue" stroke="midnightblue" points="548.744,-161.711 555.551,-153.591 545.167,-155.694 548.744,-161.711"/>
</g>
<!-- Node13&#45;&gt;Node3 -->
<g id="edge21" class="edge"><title>Node13&#45;&gt;Node3</title>
<path fill="none" stroke="midnightblue" d="M358.032,-193.221C313.249,-183.625 223.378,-164.367 171.79,-153.312"/>
<polygon fill="midnightblue" stroke="midnightblue" points="172.212,-149.823 161.701,-151.15 170.745,-156.668 172.212,-149.823"/>
</g>
<!-- Node13&#45;&gt;Node4 -->
<g id="edge22" class="edge"><title>Node13&#45;&gt;Node4</title>
<path fill="none" stroke="midnightblue" d="M393.344,-190.393C401.241,-181.814 412.912,-167.939 420,-154 438.236,-118.139 414.249,-92.9411 445,-67 477.241,-39.8016 768.904,-22.9847 867.558,-18.0351"/>
<polygon fill="midnightblue" stroke="midnightblue" points="868,-21.5176 877.815,-17.5285 867.655,-14.5261 868,-21.5176"/>
</g>
<!-- Node13&#45;&gt;Node5 -->
<g id="edge23" class="edge"><title>Node13&#45;&gt;Node5</title>
<path fill="none" stroke="midnightblue" d="M362.545,-190.403C340.668,-181.83 306.617,-167.961 278,-154 193.785,-112.914 97.8961,-56.3476 54.9322,-30.4572"/>
<polygon fill="midnightblue" stroke="midnightblue" points="56.4886,-27.3082 46.1202,-25.1292 52.8667,-33.2984 56.4886,-27.3082"/>
</g>
<!-- Node13&#45;&gt;Node6 -->
<g id="edge24" class="edge"><title>Node13&#45;&gt;Node6</title>
<path fill="none" stroke="midnightblue" d="M411.536,-194.322C454.735,-186.601 542.892,-170.406 617,-154 703.099,-134.939 803.029,-109.184 858.123,-94.6645"/>
<polygon fill="midnightblue" stroke="midnightblue" points="859.1,-98.0264 867.875,-92.0883 857.312,-91.2586 859.1,-98.0264"/>
</g>
<!-- Node13&#45;&gt;Node7 -->
<g id="edge26" class="edge"><title>Node13&#45;&gt;Node7</title>
<path fill="none" stroke="midnightblue" d="M358.068,-195.085C334.302,-190.05 301.022,-178.78 285,-154 272.945,-135.356 291.13,-113.286 307.206,-98.87"/>
<polygon fill="midnightblue" stroke="midnightblue" points="309.86,-101.21 315.249,-92.0877 305.348,-95.8586 309.86,-101.21"/>
</g>
<!-- Node13&#45;&gt;Node8 -->
<g id="edge20" class="edge"><title>Node13&#45;&gt;Node8</title>
<path fill="none" stroke="midnightblue" d="M389.62,-190.314C394.104,-181.449 400.701,-167.161 404,-154 413.441,-116.335 386.61,-96.3783 412,-67 456.548,-15.4552 496.333,-52.4366 561,-31 562.919,-30.364 564.88,-29.6649 566.844,-28.928"/>
<polygon fill="midnightblue" stroke="midnightblue" points="568.535,-32.0206 576.509,-25.0441 565.925,-25.5255 568.535,-32.0206"/>
</g>
<!-- Node14 -->
<g id="node14" class="node"><title>Node14</title>
<polygon fill="white" stroke="#bfbfbf" points="294.5,-134.5 294.5,-153.5 395.5,-153.5 395.5,-134.5 294.5,-134.5"/>
<text text-anchor="middle" x="345" y="-141.5" font-family="Helvetica,sans-Serif" font-size="10.00">boost/variant.hpp</text>
</g>
<!-- Node13&#45;&gt;Node14 -->
<g id="edge25" class="edge"><title>Node13&#45;&gt;Node14</title>
<path fill="none" stroke="midnightblue" d="M378.395,-190.083C372.745,-182.455 364.455,-171.264 357.549,-161.941"/>
<polygon fill="midnightblue" stroke="midnightblue" points="360.247,-159.703 351.482,-153.751 354.622,-163.87 360.247,-159.703"/>
</g>
<!-- Node13&#45;&gt;Node15 -->
<g id="edge27" class="edge"><title>Node13&#45;&gt;Node15</title>
<path fill="none" stroke="midnightblue" d="M411.506,-191.263C442.83,-182.12 495.223,-166.827 531.135,-156.344"/>
<polygon fill="midnightblue" stroke="midnightblue" points="532.178,-159.686 540.796,-153.524 530.216,-152.967 532.178,-159.686"/>
</g>
<!-- Node15&#45;&gt;Node4 -->
<g id="edge30" class="edge"><title>Node15&#45;&gt;Node4</title>
<path fill="none" stroke="midnightblue" d="M608.56,-140.658C653.738,-136.679 729.923,-126.064 789,-98 808.687,-88.6478 809.58,-80.0992 827,-67 843.932,-54.2681 863.729,-40.648 878.432,-30.7649"/>
<polygon fill="midnightblue" stroke="midnightblue" points="880.487,-33.6014 886.858,-25.1356 876.598,-27.781 880.487,-33.6014"/>
</g>
<!-- Node15&#45;&gt;Node5 -->
<g id="edge32" class="edge"><title>Node15&#45;&gt;Node5</title>
<path fill="none" stroke="midnightblue" d="M531.134,-142.518C474.809,-140.585 368.142,-132.236 285,-98 263.215,-89.0294 263.582,-76.4482 242,-67 168.461,-34.8062 141.516,-55.2848 65,-31 63.0764,-30.3895 61.1138,-29.7027 59.1524,-28.9685"/>
<polygon fill="midnightblue" stroke="midnightblue" points="60.1242,-25.5845 49.5435,-25.0365 57.4731,-32.0631 60.1242,-25.5845"/>
</g>
<!-- Node15&#45;&gt;Node6 -->
<g id="edge34" class="edge"><title>Node15&#45;&gt;Node6</title>
<path fill="none" stroke="midnightblue" d="M608.869,-136.147C658.381,-127.398 746.58,-111.744 822,-98 829.173,-96.6928 836.715,-95.3062 844.167,-93.9289"/>
<polygon fill="midnightblue" stroke="midnightblue" points="845.033,-97.328 854.228,-92.0649 843.758,-90.4451 845.033,-97.328"/>
</g>
<!-- Node15&#45;&gt;Node7 -->
<g id="edge35" class="edge"><title>Node15&#45;&gt;Node7</title>
<path fill="none" stroke="midnightblue" d="M535.184,-134.475C491.536,-123.788 416.746,-105.475 369.692,-93.9534"/>
<polygon fill="midnightblue" stroke="midnightblue" points="370.351,-90.5115 359.806,-91.5326 368.686,-97.3106 370.351,-90.5115"/>
</g>
<!-- Node16 -->
<g id="node16" class="node"><title>Node16</title>
<polygon fill="white" stroke="#bfbfbf" points="644,-73 644,-92 706,-92 706,-73 644,-73"/>
<text text-anchor="middle" x="675" y="-80" font-family="Helvetica,sans-Serif" font-size="10.00">algorithm</text>
</g>
<!-- Node15&#45;&gt;Node16 -->
<g id="edge28" class="edge"><title>Node15&#45;&gt;Node16</title>
<path fill="none" stroke="midnightblue" d="M585.044,-134.475C602.275,-124.711 630.74,-108.581 651.034,-97.0808"/>
<polygon fill="midnightblue" stroke="midnightblue" points="653.009,-99.9843 659.984,-92.0091 649.558,-93.8942 653.009,-99.9843"/>
</g>
<!-- Node17 -->
<g id="node17" class="node"><title>Node17</title>
<polygon fill="white" stroke="#bfbfbf" points="724,-73 724,-92 780,-92 780,-73 724,-73"/>
<text text-anchor="middle" x="752" y="-80" font-family="Helvetica,sans-Serif" font-size="10.00">sstream</text>
</g>
<!-- Node15&#45;&gt;Node17 -->
<g id="edge29" class="edge"><title>Node15&#45;&gt;Node17</title>
<path fill="none" stroke="midnightblue" d="M599.643,-134.486C629.094,-125.867 675.451,-111.866 715,-98 717.116,-97.2581 719.291,-96.4709 721.476,-95.6619"/>
<polygon fill="midnightblue" stroke="midnightblue" points="722.867,-98.8773 730.967,-92.0476 720.376,-92.3356 722.867,-98.8773"/>
</g>
<!-- Node18 -->
<g id="node18" class="node"><title>Node18</title>
<polygon fill="white" stroke="#bfbfbf" points="454,-73 454,-92 496,-92 496,-73 454,-73"/>
<text text-anchor="middle" x="475" y="-80" font-family="Helvetica,sans-Serif" font-size="10.00">utility</text>
</g>
<!-- Node15&#45;&gt;Node18 -->
<g id="edge31" class="edge"><title>Node15&#45;&gt;Node18</title>
<path fill="none" stroke="midnightblue" d="M556.389,-134.475C540.939,-124.799 515.51,-108.872 497.184,-97.3941"/>
<polygon fill="midnightblue" stroke="midnightblue" points="498.919,-94.3509 488.586,-92.0091 495.203,-100.283 498.919,-94.3509"/>
</g>
<!-- Node19 -->
<g id="node19" class="node"><title>Node19</title>
<polygon fill="white" stroke="#bfbfbf" points="514,-67.5 514,-97.5 626,-97.5 626,-67.5 514,-67.5"/>
<text text-anchor="start" x="522" y="-85.5" font-family="Helvetica,sans-Serif" font-size="10.00">boost/icl/continuous</text>
<text text-anchor="middle" x="570" y="-74.5" font-family="Helvetica,sans-Serif" font-size="10.00">_interval.hpp</text>
</g>
<!-- Node15&#45;&gt;Node19 -->
<g id="edge33" class="edge"><title>Node15&#45;&gt;Node19</title>
<path fill="none" stroke="midnightblue" d="M570,-134.475C570,-127.471 570,-117.192 570,-107.696"/>
<polygon fill="midnightblue" stroke="midnightblue" points="573.5,-107.523 570,-97.523 566.5,-107.523 573.5,-107.523"/>
</g>
<!-- Node15&#45;&gt;Node20 -->
<g id="edge36" class="edge"><title>Node15&#45;&gt;Node20</title>
<path fill="none" stroke="midnightblue" d="M608.653,-138.958C680.475,-131.385 839.356,-114.349 973,-98 998.078,-94.9322 1026.36,-91.1611 1047.83,-88.2337"/>
<polygon fill="midnightblue" stroke="midnightblue" points="1048.34,-91.6959 1057.78,-86.8712 1047.39,-84.7606 1048.34,-91.6959"/>
</g>
<!-- Node20&#45;&gt;Node4 -->
<g id="edge38" class="edge"><title>Node20&#45;&gt;Node4</title>
<path fill="none" stroke="midnightblue" d="M1059.93,-72.964C1054.72,-70.979 1049.17,-68.8933 1044,-67 1005.5,-52.9066 960.925,-37.3982 931.689,-27.3356"/>
<polygon fill="midnightblue" stroke="midnightblue" points="932.618,-23.9538 922.023,-24.0148 930.343,-30.574 932.618,-23.9538"/>
</g>
<!-- Node21 -->
<g id="node21" class="node"><title>Node21</title>
<polygon fill="white" stroke="#bfbfbf" points="1050.5,-6 1050.5,-25 1113.5,-25 1113.5,-6 1050.5,-6"/>
<text text-anchor="middle" x="1082" y="-13" font-family="Helvetica,sans-Serif" font-size="10.00">exception</text>
</g>
<!-- Node20&#45;&gt;Node21 -->
<g id="edge37" class="edge"><title>Node20&#45;&gt;Node21</title>
<path fill="none" stroke="midnightblue" d="M1082,-72.7338C1082,-63.1826 1082,-47.6183 1082,-35.2829"/>
<polygon fill="midnightblue" stroke="midnightblue" points="1085.5,-35.1273 1082,-25.1273 1078.5,-35.1273 1085.5,-35.1273"/>
</g>
<!-- Node23 -->
<g id="node23" class="node"><title>Node23</title>
<polygon fill="white" stroke="#bfbfbf" points="1185,-246.5 1185,-265.5 1237,-265.5 1237,-246.5 1185,-246.5"/>
<text text-anchor="middle" x="1211" y="-253.5" font-family="Helvetica,sans-Serif" font-size="10.00">cassert</text>
</g>
<!-- Node22&#45;&gt;Node23 -->
<g id="edge42" class="edge"><title>Node22&#45;&gt;Node23</title>
<path fill="none" stroke="midnightblue" d="M1168.42,-302.083C1175.85,-294.22 1186.85,-282.569 1195.81,-273.081"/>
<polygon fill="midnightblue" stroke="midnightblue" points="1198.41,-275.424 1202.74,-265.751 1193.32,-270.618 1198.41,-275.424"/>
</g>
<!-- Node24 -->
<g id="node24" class="node"><title>Node24</title>
<polygon fill="white" stroke="#bfbfbf" points="1119.5,-246.5 1119.5,-265.5 1166.5,-265.5 1166.5,-246.5 1119.5,-246.5"/>
<text text-anchor="middle" x="1143" y="-253.5" font-family="Helvetica,sans-Serif" font-size="10.00">cmath</text>
</g>
<!-- Node22&#45;&gt;Node24 -->
<g id="edge43" class="edge"><title>Node22&#45;&gt;Node24</title>
<path fill="none" stroke="midnightblue" d="M1157.19,-302.083C1154.92,-294.849 1151.63,-284.409 1148.79,-275.397"/>
<polygon fill="midnightblue" stroke="midnightblue" points="1152.1,-274.239 1145.75,-265.751 1145.42,-276.341 1152.1,-274.239"/>
</g>
</g>
</svg>
        <g id="navigator" transform="translate(0 0)" fill="#404254">
                <rect fill="#f2f5e9" fill-opacity="0.5" stroke="#606060" stroke-width=".5" x="0" y="0" width="60" height="60"/>
                <use id="zoomplus" xlink:href="#zoomPlus" x="17" y="9" onmousedown="handleZoom(evt,'in')"/>
                <use id="zoomminus" xlink:href="#zoomMin" x="42" y="9" onmousedown="handleZoom(evt,'out')"/>
                <use id="reset" xlink:href="#resetDef" x="30" y="36" onmousedown="handleReset()"/>
                <g id="arrowUp" xlink:href="#dirArrow" transform="translate(30 24)" onmousedown="handlePan(0,-1)">
                  <use xlink:href="#rim" fill="#404040">
                        <set attributeName="fill" to="#808080" begin="arrowUp.mouseover" end="arrowUp.mouseout"/>
                  </use>
                  <path fill="none" stroke="white" stroke-width="1.5" d="M0,-3.0v7 M-2.5,-0.5L0,-3.0L2.5,-0.5"/>
                </g>
                <g id="arrowRight" xlink:href="#dirArrow" transform="rotate(90) translate(36 -43)" onmousedown="handlePan(1,0)">
                  <use xlink:href="#rim" fill="#404040">
                        <set attributeName="fill" to="#808080" begin="arrowRight.mouseover" end="arrowRight.mouseout"/>
                  </use>
                  <path fill="none" stroke="white" stroke-width="1.5" d="M0,-3.0v7 M-2.5,-0.5L0,-3.0L2.5,-0.5"/>
                </g>
                <g id="arrowDown" xlink:href="#dirArrow" transform="rotate(180) translate(-30 -48)" onmousedown="handlePan(0,1)">
                  <use xlink:href="#rim" fill="#404040">
                        <set attributeName="fill" to="#808080" begin="arrowDown.mouseover" end="arrowDown.mouseout"/>
                  </use>
                  <path fill="none" stroke="white" stroke-width="1.5" d="M0,-3.0v7 M-2.5,-0.5L0,-3.0L2.5,-0.5"/>
                </g>
                <g id="arrowLeft" xlink:href="#dirArrow" transform="rotate(270) translate(-36 17)" onmousedown="handlePan(-1,0)">
                  <use xlink:href="#rim" fill="#404040">
                        <set attributeName="fill" to="#808080" begin="arrowLeft.mouseover" end="arrowLeft.mouseout"/>
                  </use>
                  <path fill="none" stroke="white" stroke-width="1.5" d="M0,-3.0v7 M-2.5,-0.5L0,-3.0L2.5,-0.5"/>
                </g>
        </g>
        <svg viewBox="0 0 15 15" width="100%" height="30px" preserveAspectRatio="xMaxYMin meet">
         <g id="arrow_out" transform="scale(0.3 0.3)">
          <a xlink:href="alignment_8cc__incl_org.svg" target="_base">
           <rect id="button" ry="5" rx="5" y="6" x="6" height="38" width="38"
                fill="#f2f5e9" fill-opacity="0.5" stroke="#606060" stroke-width="1.0"/>
           <path id="arrow"
             d="M 11.500037,31.436501 C 11.940474,20.09759 22.043105,11.32322 32.158766,21.979434 L 37.068811,17.246167 C 37.068811,17.246167 37.088388,32 37.088388,32 L 22.160133,31.978069 C 22.160133,31.978069 26.997745,27.140456 26.997745,27.140456 C 18.528582,18.264221 13.291696,25.230495 11.500037,31.436501 z"
             style="fill:#404040;"/>
          </a>
         </g>
        </svg>
</svg>
