<?xml version="1.0" encoding="UTF-8" standalone="no"?>
<!DOCTYPE svg PUBLIC "-//W3C//DTD SVG 1.1//EN"
 "http://www.w3.org/Graphics/SVG/1.1/DTD/svg11.dtd">
<!-- Generated by graphviz version 2.38.0 (20140413.2041)
 -->
<!-- Title: alignment.h Pages: 1 -->
<svg width="595pt" height="252pt"
 viewBox="0.00 0.00 595.00 252.00" xmlns="http://www.w3.org/2000/svg" xmlns:xlink="http://www.w3.org/1999/xlink">
<g id="graph0" class="graph" transform="scale(1 1) rotate(0) translate(4 248)">
<title>alignment.h</title>
<polygon fill="white" stroke="none" points="-4,4 -4,-248 591,-248 591,4 -4,4"/>
<!-- Node1 -->
<g id="node1" class="node"><title>Node1</title>
<polygon fill="#bfbfbf" stroke="black" points="191,-224.5 191,-243.5 265,-243.5 265,-224.5 191,-224.5"/>
<text text-anchor="middle" x="228" y="-231.5" font-family="Helvetica,sans-Serif" font-size="10.00">alignment.h</text>
</g>
<!-- Node2 -->
<g id="node2" class="node"><title>Node2</title>
<g id="a_node2"><a xlink:href="alignment_8cc.xhtml" target="_top" xlink:title="Implementation of alignment and phase classes. ">
<polygon fill="white" stroke="black" points="0,-168.5 0,-187.5 78,-187.5 78,-168.5 0,-168.5"/>
<text text-anchor="middle" x="39" y="-175.5" font-family="Helvetica,sans-Serif" font-size="10.00">alignment.cc</text>
</a>
</g>
</g>
<!-- Node1&#45;&gt;Node2 -->
<g id="edge1" class="edge"><title>Node1&#45;&gt;Node2</title>
<path fill="none" stroke="midnightblue" d="M187.987,-221.568C152.333,-211.381 100.962,-196.703 68.8075,-187.516"/>
<polygon fill="midnightblue" stroke="midnightblue" points="187.476,-225.062 198.052,-224.444 189.399,-218.331 187.476,-225.062"/>
</g>
<!-- Node3 -->
<g id="node3" class="node"><title>Node3</title>
<g id="a_node3"><a xlink:href="model_8h.xhtml" target="_top" xlink:title="Representation for a model container for risk analysis. ">
<polygon fill="white" stroke="black" points="278,-168.5 278,-187.5 334,-187.5 334,-168.5 278,-168.5"/>
<text text-anchor="middle" x="306" y="-175.5" font-family="Helvetica,sans-Serif" font-size="10.00">model.h</text>
</a>
</g>
</g>
<!-- Node1&#45;&gt;Node3 -->
<g id="edge2" class="edge"><title>Node1&#45;&gt;Node3</title>
<path fill="none" stroke="midnightblue" d="M248.768,-218.622C263.017,-208.757 281.456,-195.992 293.499,-187.655"/>
<polygon fill="midnightblue" stroke="midnightblue" points="246.762,-215.754 240.532,-224.324 250.746,-221.51 246.762,-215.754"/>
</g>
<!-- Node5 -->
<g id="node5" class="node"><title>Node5</title>
<g id="a_node5"><a xlink:href="initializer_8cc.xhtml" target="_top" xlink:title="Implementation of input file processing into analysis constructs. ">
<polygon fill="white" stroke="black" points="79.5,-56.5 79.5,-75.5 150.5,-75.5 150.5,-56.5 79.5,-56.5"/>
<text text-anchor="middle" x="115" y="-63.5" font-family="Helvetica,sans-Serif" font-size="10.00">initializer.cc</text>
</a>
</g>
</g>
<!-- Node1&#45;&gt;Node5 -->
<g id="edge17" class="edge"><title>Node1&#45;&gt;Node5</title>
<path fill="none" stroke="midnightblue" d="M206.419,-218.497C182.303,-201.022 144.138,-169.312 125,-132 115.516,-113.51 114.463,-88.4576 114.646,-75.5189"/>
<polygon fill="midnightblue" stroke="midnightblue" points="204.419,-221.369 214.607,-224.275 208.455,-215.65 204.419,-221.369"/>
</g>
<!-- Node10 -->
<g id="node10" class="node"><title>Node10</title>
<g id="a_node10"><a xlink:href="risk__analysis_8h.xhtml" target="_top" xlink:title="Contains the main system for performing analysis. ">
<polygon fill="white" stroke="black" points="437,-112.5 437,-131.5 523,-131.5 523,-112.5 437,-112.5"/>
<text text-anchor="middle" x="480" y="-119.5" font-family="Helvetica,sans-Serif" font-size="10.00">risk_analysis.h</text>
</a>
</g>
</g>
<!-- Node1&#45;&gt;Node10 -->
<g id="edge18" class="edge"><title>Node1&#45;&gt;Node10</title>
<path fill="none" stroke="midnightblue" d="M261.213,-220.709C284.318,-211.987 315.743,-199.782 343,-188 386.739,-169.094 437.114,-144.429 462.876,-131.6"/>
<polygon fill="midnightblue" stroke="midnightblue" points="259.674,-217.548 251.543,-224.34 262.135,-224.101 259.674,-217.548"/>
</g>
<!-- Node4 -->
<g id="node4" class="node"><title>Node4</title>
<g id="a_node4"><a xlink:href="initializer_8h.xhtml" target="_top" xlink:title="A facility that processes input files into analysis constructs. ">
<polygon fill="white" stroke="black" points="134.5,-112.5 134.5,-131.5 201.5,-131.5 201.5,-112.5 134.5,-112.5"/>
<text text-anchor="middle" x="168" y="-119.5" font-family="Helvetica,sans-Serif" font-size="10.00">initializer.h</text>
</a>
</g>
</g>
<!-- Node3&#45;&gt;Node4 -->
<g id="edge3" class="edge"><title>Node3&#45;&gt;Node4</title>
<path fill="none" stroke="midnightblue" d="M274.751,-164.772C248.829,-154.629 212.638,-140.467 189.764,-131.516"/>
<polygon fill="midnightblue" stroke="midnightblue" points="273.546,-168.059 284.133,-168.444 276.096,-161.54 273.546,-168.059"/>
</g>
<!-- Node7 -->
<g id="node7" class="node"><title>Node7</title>
<g id="a_node7"><a xlink:href="model_8cc.xhtml" target="_top" xlink:title="Implementation of functions in Model class. ">
<polygon fill="white" stroke="black" points="321,-112.5 321,-131.5 381,-131.5 381,-112.5 321,-112.5"/>
<text text-anchor="middle" x="351" y="-119.5" font-family="Helvetica,sans-Serif" font-size="10.00">model.cc</text>
</a>
</g>
</g>
<!-- Node3&#45;&gt;Node7 -->
<g id="edge6" class="edge"><title>Node3&#45;&gt;Node7</title>
<path fill="none" stroke="midnightblue" d="M320.047,-160.144C327.887,-150.736 337.329,-139.405 343.707,-131.751"/>
<polygon fill="midnightblue" stroke="midnightblue" points="317.144,-158.16 313.431,-168.083 322.521,-162.641 317.144,-158.16"/>
</g>
<!-- Node8 -->
<g id="node8" class="node"><title>Node8</title>
<g id="a_node8"><a xlink:href="reporter_8h.xhtml" target="_top" xlink:title="Reporter of results. ">
<polygon fill="white" stroke="black" points="377,-56.5 377,-75.5 441,-75.5 441,-56.5 377,-56.5"/>
<text text-anchor="middle" x="409" y="-63.5" font-family="Helvetica,sans-Serif" font-size="10.00">reporter.h</text>
</a>
</g>
</g>
<!-- Node3&#45;&gt;Node8 -->
<g id="edge7" class="edge"><title>Node3&#45;&gt;Node8</title>
<path fill="none" stroke="midnightblue" d="M343.313,-164.596C359.73,-157.421 377.974,-146.82 390,-132 403.631,-115.202 407.483,-88.972 408.571,-75.5464"/>
<polygon fill="midnightblue" stroke="midnightblue" points="341.854,-161.411 333.919,-168.431 344.5,-167.892 341.854,-161.411"/>
</g>
<!-- Node3&#45;&gt;Node10 -->
<g id="edge10" class="edge"><title>Node3&#45;&gt;Node10</title>
<path fill="none" stroke="midnightblue" d="M343.261,-165.436C376.067,-155.255 423.083,-140.664 452.558,-131.516"/>
<polygon fill="midnightblue" stroke="midnightblue" points="342.084,-162.137 333.571,-168.444 344.159,-168.822 342.084,-162.137"/>
</g>
<!-- Node12 -->
<g id="node12" class="node"><title>Node12</title>
<g id="a_node12"><a xlink:href="serialization_8h.xhtml" target="_top" xlink:title="The MEF Model serialization facilities. ">
<polygon fill="white" stroke="black" points="219.5,-112.5 219.5,-131.5 302.5,-131.5 302.5,-112.5 219.5,-112.5"/>
<text text-anchor="middle" x="261" y="-119.5" font-family="Helvetica,sans-Serif" font-size="10.00">serialization.h</text>
</a>
</g>
</g>
<!-- Node3&#45;&gt;Node12 -->
<g id="edge14" class="edge"><title>Node3&#45;&gt;Node12</title>
<path fill="none" stroke="midnightblue" d="M291.953,-160.144C284.113,-150.736 274.671,-139.405 268.293,-131.751"/>
<polygon fill="midnightblue" stroke="midnightblue" points="289.479,-162.641 298.569,-168.083 294.856,-158.16 289.479,-162.641"/>
</g>
<!-- Node4&#45;&gt;Node5 -->
<g id="edge4" class="edge"><title>Node4&#45;&gt;Node5</title>
<path fill="none" stroke="midnightblue" d="M152.019,-104.718C142.678,-95.1997 131.254,-83.5608 123.589,-75.7511"/>
<polygon fill="midnightblue" stroke="midnightblue" points="149.746,-107.398 159.248,-112.083 154.741,-102.494 149.746,-107.398"/>
</g>
<!-- Node6 -->
<g id="node6" class="node"><title>Node6</title>
<g id="a_node6"><a xlink:href="scram_8cc.xhtml" target="_top" xlink:title="Main entrance. ">
<polygon fill="white" stroke="black" points="255,-0.5 255,-19.5 315,-19.5 315,-0.5 255,-0.5"/>
<text text-anchor="middle" x="285" y="-7.5" font-family="Helvetica,sans-Serif" font-size="10.00">scram.cc</text>
</a>
</g>
</g>
<!-- Node4&#45;&gt;Node6 -->
<g id="edge5" class="edge"><title>Node4&#45;&gt;Node6</title>
<path fill="none" stroke="midnightblue" d="M184.474,-105.512C209.475,-82.0068 256.165,-38.1096 275.862,-19.5914"/>
<polygon fill="midnightblue" stroke="midnightblue" points="182.069,-102.969 177.181,-112.368 186.864,-108.069 182.069,-102.969"/>
</g>
<!-- Node8&#45;&gt;Node6 -->
<g id="edge9" class="edge"><title>Node8&#45;&gt;Node6</title>
<path fill="none" stroke="midnightblue" d="M379.993,-52.3678C356.771,-42.2553 324.837,-28.3486 304.556,-19.5164"/>
<polygon fill="midnightblue" stroke="midnightblue" points="378.786,-55.6597 389.352,-56.4435 381.581,-49.2419 378.786,-55.6597"/>
</g>
<!-- Node9 -->
<g id="node9" class="node"><title>Node9</title>
<g id="a_node9"><a xlink:href="reporter_8cc.xhtml" target="_top" xlink:title="Implements Reporter class. ">
<polygon fill="white" stroke="black" points="375,-0.5 375,-19.5 443,-19.5 443,-0.5 375,-0.5"/>
<text text-anchor="middle" x="409" y="-7.5" font-family="Helvetica,sans-Serif" font-size="10.00">reporter.cc</text>
</a>
</g>
</g>
<!-- Node8&#45;&gt;Node9 -->
<g id="edge8" class="edge"><title>Node8&#45;&gt;Node9</title>
<path fill="none" stroke="midnightblue" d="M409,-45.8045C409,-36.9102 409,-26.7798 409,-19.7511"/>
<polygon fill="midnightblue" stroke="midnightblue" points="405.5,-46.083 409,-56.083 412.5,-46.083 405.5,-46.083"/>
</g>
<!-- Node10&#45;&gt;Node6 -->
<g id="edge13" class="edge"><title>Node10&#45;&gt;Node6</title>
<path fill="none" stroke="midnightblue" d="M476.002,-102.465C471.897,-87.8096 464.062,-67.9002 450,-56 429.715,-38.8332 357.127,-23.6723 315.297,-16.1051"/>
<polygon fill="midnightblue" stroke="midnightblue" points="472.666,-103.555 478.456,-112.428 479.463,-101.881 472.666,-103.555"/>
</g>
<!-- Node10&#45;&gt;Node8 -->
<g id="edge11" class="edge"><title>Node10&#45;&gt;Node8</title>
<path fill="none" stroke="midnightblue" d="M460.41,-106.101C447.632,-96.3824 431.387,-84.0269 420.615,-75.8339"/>
<polygon fill="midnightblue" stroke="midnightblue" points="458.514,-109.056 468.593,-112.324 462.752,-103.484 458.514,-109.056"/>
</g>
<!-- Node11 -->
<g id="node11" class="node"><title>Node11</title>
<g id="a_node11"><a xlink:href="risk__analysis_8cc.xhtml" target="_top" xlink:title="Implementation of risk analysis handler. ">
<polygon fill="white" stroke="black" points="497,-56.5 497,-75.5 587,-75.5 587,-56.5 497,-56.5"/>
<text text-anchor="middle" x="542" y="-63.5" font-family="Helvetica,sans-Serif" font-size="10.00">risk_analysis.cc</text>
</a>
</g>
</g>
<!-- Node10&#45;&gt;Node11 -->
<g id="edge12" class="edge"><title>Node10&#45;&gt;Node11</title>
<path fill="none" stroke="midnightblue" d="M497.754,-105.537C508.808,-95.9087 522.631,-83.8694 531.857,-75.8339"/>
<polygon fill="midnightblue" stroke="midnightblue" points="495.203,-103.117 489.961,-112.324 499.801,-108.395 495.203,-103.117"/>
</g>
<!-- Node12&#45;&gt;Node6 -->
<g id="edge15" class="edge"><title>Node12&#45;&gt;Node6</title>
<path fill="none" stroke="midnightblue" d="M259.065,-102.28C258.242,-89.1341 258.205,-71.2471 262,-56 265.348,-42.5478 273.325,-28.5592 278.941,-19.8206"/>
<polygon fill="midnightblue" stroke="midnightblue" points="255.593,-102.754 259.915,-112.427 262.568,-102.17 255.593,-102.754"/>
</g>
<!-- Node13 -->
<g id="node13" class="node"><title>Node13</title>
<g id="a_node13"><a xlink:href="serialization_8cc.xhtml" target="_top" xlink:title="serialization.cc">
<polygon fill="white" stroke="black" points="271.5,-56.5 271.5,-75.5 358.5,-75.5 358.5,-56.5 271.5,-56.5"/>
<text text-anchor="middle" x="315" y="-63.5" font-family="Helvetica,sans-Serif" font-size="10.00">serialization.cc</text>
</a>
</g>
</g>
<!-- Node12&#45;&gt;Node13 -->
<g id="edge16" class="edge"><title>Node12&#45;&gt;Node13</title>
<path fill="none" stroke="midnightblue" d="M276.998,-105.002C286.567,-95.4329 298.361,-83.6389 306.249,-75.7511"/>
<polygon fill="midnightblue" stroke="midnightblue" points="274.513,-102.537 269.917,-112.083 279.463,-107.487 274.513,-102.537"/>
</g>
</g>
</svg>
