<?xml version="1.0" encoding="UTF-8" standalone="no"?>
<!DOCTYPE svg PUBLIC "-//W3C//DTD SVG 1.1//EN"
 "http://www.w3.org/Graphics/SVG/1.1/DTD/svg11.dtd">
<!-- Generated by graphviz version 2.38.0 (20140413.2041)
 -->
<!-- Title: ccf_group.cc Pages: 1 -->
<!--zoomable 330 -->
<svg id="main" version="1.1" xmlns="http://www.w3.org/2000/svg" xmlns:xlink="http://www.w3.org/1999/xlink" xml:space="preserve" onload="init(evt)">
<style type="text/css"><![CDATA[
.edge:hover path { stroke: red; }
.edge:hover polygon { stroke: red; fill: red; }
]]></style>
<script type="text/javascript"><![CDATA[
var edges = document.getElementsByTagName('g');
if (edges && edges.length) {
  for (var i=0;i<edges.length;i++) {
    if (edges[i].id.substr(0,4)=='edge') {
      edges[i].setAttribute('class','edge');
    }
  }
}
]]></script>
        <defs>
                <circle id="rim" cx="0" cy="0" r="7"/>
                <circle id="rim2" cx="0" cy="0" r="3.5"/>
                <g id="zoomPlus">
                        <use xlink:href="#rim" fill="#404040">
                                <set attributeName="fill" to="#808080" begin="zoomplus.mouseover" end="zoomplus.mouseout"/>
                        </use>
                        <path d="M-4,0h8M0,-4v8" fill="none" stroke="white" stroke-width="1.5" pointer-events="none"/>
                </g>
                <g id="zoomMin">
                        <use xlink:href="#rim" fill="#404040">
                                <set attributeName="fill" to="#808080" begin="zoomminus.mouseover" end="zoomminus.mouseout"/>
                        </use>
                        <path d="M-4,0h8" fill="none" stroke="white" stroke-width="1.5" pointer-events="none"/>
                </g>
                <g id="dirArrow">
                        <path fill="none" stroke="white" stroke-width="1.5" d="M0,-3.0v7 M-2.5,-0.5L0,-3.0L2.5,-0.5"/>
                </g>
               <g id="resetDef">
                       <use xlink:href="#rim2" fill="#404040">
                               <set attributeName="fill" to="#808080" begin="reset.mouseover" end="reset.mouseout"/>
                       </use>
               </g>
        </defs>

<script type="text/javascript">
var viewWidth = 1675;
var viewHeight = 330;
var sectionId = 'dynsection-0';
</script>
<script xlink:href="svgpan.js"/>
<svg id="graph" class="graph">
<g id="viewport">
<title>ccf_group.cc</title>
<polygon fill="white" stroke="none" points="-4,4 -4,-326 1670.52,-326 1670.52,4 -4,4"/>
<!-- Node1 -->
<g id="node1" class="node"><title>Node1</title>
<polygon fill="#bfbfbf" stroke="black" points="1057.52,-302.5 1057.52,-321.5 1134.52,-321.5 1134.52,-302.5 1057.52,-302.5"/>
<text text-anchor="middle" x="1096.02" y="-309.5" font-family="Helvetica,sans-Serif" font-size="10.00">ccf_group.cc</text>
</g>
<!-- Node2 -->
<g id="node2" class="node"><title>Node2</title>
<g id="a_node2"><a xlink:href="ccf__group_8h.xhtml" target="_top" xlink:title="Functional containers for basic events grouped by common cause failure. ">
<polygon fill="white" stroke="black" points="411.018,-246.5 411.018,-265.5 483.018,-265.5 483.018,-246.5 411.018,-246.5"/>
<text text-anchor="middle" x="447.018" y="-253.5" font-family="Helvetica,sans-Serif" font-size="10.00">ccf_group.h</text>
</a>
</g>
</g>
<!-- Node1&#45;&gt;Node2 -->
<g id="edge1" class="edge"><title>Node1&#45;&gt;Node2</title>
<path fill="none" stroke="midnightblue" d="M1057.36,-307.784C944.407,-298.385 615.16,-270.99 493.181,-260.841"/>
<polygon fill="midnightblue" stroke="midnightblue" points="493.31,-257.34 483.054,-259.998 492.729,-264.316 493.31,-257.34"/>
</g>
<!-- Node21 -->
<g id="node21" class="node"><title>Node21</title>
<g id="a_node21"><a xlink:href="error_8h.xhtml" target="_top" xlink:title="Exceptions for SCRAM. ">
<polygon fill="white" stroke="black" points="961.018,-73 961.018,-92 1009.02,-92 1009.02,-73 961.018,-73"/>
<text text-anchor="middle" x="985.018" y="-80" font-family="Helvetica,sans-Serif" font-size="10.00">error.h</text>
</a>
</g>
</g>
<!-- Node1&#45;&gt;Node21 -->
<g id="edge38" class="edge"><title>Node1&#45;&gt;Node21</title>
<path fill="none" stroke="midnightblue" d="M1057.43,-309.399C1026.56,-305.838 985.083,-295.436 964.018,-266 927.868,-215.483 958.883,-136.193 975.786,-101.155"/>
<polygon fill="midnightblue" stroke="midnightblue" points="978.951,-102.652 980.301,-92.1431 972.692,-99.5161 978.951,-102.652"/>
</g>
<!-- Node23 -->
<g id="node23" class="node"><title>Node23</title>
<polygon fill="white" stroke="#bfbfbf" points="1185.52,-190.5 1185.52,-209.5 1232.52,-209.5 1232.52,-190.5 1185.52,-190.5"/>
<text text-anchor="middle" x="1209.02" y="-197.5" font-family="Helvetica,sans-Serif" font-size="10.00">cmath</text>
</g>
<!-- Node1&#45;&gt;Node23 -->
<g id="edge37" class="edge"><title>Node1&#45;&gt;Node23</title>
<path fill="none" stroke="midnightblue" d="M1115.08,-302.369C1130.88,-294.532 1153.23,-281.797 1169.02,-266 1182.73,-252.273 1193.85,-232.979 1200.85,-218.98"/>
<polygon fill="midnightblue" stroke="midnightblue" points="1204.04,-220.41 1205.2,-209.878 1197.73,-217.392 1204.04,-220.41"/>
</g>
<!-- Node24 -->
<g id="node24" class="node"><title>Node24</title>
<g id="a_node24"><a xlink:href="constant_8h.xhtml" target="_top" xlink:title="Constant expressions that cannot have uncertainties. ">
<polygon fill="white" stroke="black" points="773.018,-190.5 773.018,-209.5 895.018,-209.5 895.018,-190.5 773.018,-190.5"/>
<text text-anchor="middle" x="834.018" y="-197.5" font-family="Helvetica,sans-Serif" font-size="10.00">expression/constant.h</text>
</a>
</g>
</g>
<!-- Node1&#45;&gt;Node24 -->
<g id="edge39" class="edge"><title>Node1&#45;&gt;Node24</title>
<path fill="none" stroke="midnightblue" d="M1057.26,-307.121C1018.08,-301.98 956.676,-290.516 909.018,-266 884.972,-253.63 862.222,-231.999 848.216,-217.11"/>
<polygon fill="midnightblue" stroke="midnightblue" points="850.712,-214.653 841.382,-209.634 845.546,-219.376 850.712,-214.653"/>
</g>
<!-- Node25 -->
<g id="node25" class="node"><title>Node25</title>
<g id="a_node25"><a xlink:href="numerical_8h.xhtml" target="_top" xlink:title="A collection of numerical expressions. ">
<polygon fill="white" stroke="black" points="973.018,-246.5 973.018,-265.5 1101.02,-265.5 1101.02,-246.5 973.018,-246.5"/>
<text text-anchor="middle" x="1037.02" y="-253.5" font-family="Helvetica,sans-Serif" font-size="10.00">expression/numerical.h</text>
</a>
</g>
</g>
<!-- Node1&#45;&gt;Node25 -->
<g id="edge41" class="edge"><title>Node1&#45;&gt;Node25</title>
<path fill="none" stroke="midnightblue" d="M1086.54,-302.324C1077.82,-294.341 1064.67,-282.313 1054.12,-272.653"/>
<polygon fill="midnightblue" stroke="midnightblue" points="1056.41,-270.004 1046.67,-265.834 1051.68,-275.167 1056.41,-270.004"/>
</g>
<!-- Node27 -->
<g id="node27" class="node"><title>Node27</title>
<g id="a_node27"><a xlink:href="algorithm_8h.xhtml" target="_top" xlink:title="Helpful algorithm facilities as an extension to the STL or Boost. ">
<polygon fill="white" stroke="black" points="1112.52,-134.5 1112.52,-153.5 1201.52,-153.5 1201.52,-134.5 1112.52,-134.5"/>
<text text-anchor="middle" x="1157.02" y="-141.5" font-family="Helvetica,sans-Serif" font-size="10.00">ext/algorithm.h</text>
</a>
</g>
</g>
<!-- Node1&#45;&gt;Node27 -->
<g id="edge48" class="edge"><title>Node1&#45;&gt;Node27</title>
<path fill="none" stroke="midnightblue" d="M1099.94,-302.477C1107.78,-285.244 1125.7,-244.921 1138.02,-210 1143.52,-194.409 1148.71,-176.333 1152.27,-163.207"/>
<polygon fill="midnightblue" stroke="midnightblue" points="1155.66,-164.072 1154.85,-153.508 1148.9,-162.273 1155.66,-164.072"/>
</g>
<!-- Node29 -->
<g id="node29" class="node"><title>Node29</title>
<g id="a_node29"><a xlink:href="combination__iterator_8h.xhtml" target="_top" xlink:title="n&#45;choose&#45;k combination generation facilities. ">
<polygon fill="white" stroke="black" points="1291.52,-134.5 1291.52,-153.5 1434.52,-153.5 1434.52,-134.5 1291.52,-134.5"/>
<text text-anchor="middle" x="1363.02" y="-141.5" font-family="Helvetica,sans-Serif" font-size="10.00">ext/combination_iterator.h</text>
</a>
</g>
</g>
<!-- Node1&#45;&gt;Node29 -->
<g id="edge51" class="edge"><title>Node1&#45;&gt;Node29</title>
<path fill="none" stroke="midnightblue" d="M1134.63,-309.306C1196.92,-305.734 1315.51,-295.194 1344.02,-266 1370.67,-238.711 1369.3,-190.258 1366.09,-163.697"/>
<polygon fill="midnightblue" stroke="midnightblue" points="1369.56,-163.188 1364.68,-153.78 1362.63,-164.173 1369.56,-163.188"/>
</g>
<!-- Node33 -->
<g id="node33" class="node"><title>Node33</title>
<g id="a_node33"><a xlink:href="float__compare_8h.xhtml" target="_top" xlink:title="Floating pointing comparison helper functions. ">
<polygon fill="white" stroke="black" points="1221.52,-246.5 1221.52,-265.5 1334.52,-265.5 1334.52,-246.5 1221.52,-246.5"/>
<text text-anchor="middle" x="1278.02" y="-253.5" font-family="Helvetica,sans-Serif" font-size="10.00">ext/float_compare.h</text>
</a>
</g>
</g>
<!-- Node1&#45;&gt;Node33 -->
<g id="edge58" class="edge"><title>Node1&#45;&gt;Node33</title>
<path fill="none" stroke="midnightblue" d="M1124.86,-302.444C1155.87,-293.241 1205.35,-278.562 1239.64,-268.388"/>
<polygon fill="midnightblue" stroke="midnightblue" points="1240.72,-271.716 1249.31,-265.516 1238.73,-265.006 1240.72,-271.716"/>
</g>
<!-- Node3 -->
<g id="node3" class="node"><title>Node3</title>
<polygon fill="white" stroke="#bfbfbf" points="13.5182,-134.5 13.5182,-153.5 70.5182,-153.5 70.5182,-134.5 13.5182,-134.5"/>
<text text-anchor="middle" x="42.0182" y="-141.5" font-family="Helvetica,sans-Serif" font-size="10.00">memory</text>
</g>
<!-- Node2&#45;&gt;Node3 -->
<g id="edge2" class="edge"><title>Node2&#45;&gt;Node3</title>
<path fill="none" stroke="midnightblue" d="M410.907,-252.633C357.386,-248.345 254.36,-237.082 171.018,-210 131.681,-197.218 89.487,-173.926 64.4445,-158.972"/>
<polygon fill="midnightblue" stroke="midnightblue" points="66.094,-155.879 55.7282,-153.689 62.4653,-161.865 66.094,-155.879"/>
</g>
<!-- Node4 -->
<g id="node4" class="node"><title>Node4</title>
<polygon fill="white" stroke="#bfbfbf" points="592.018,-6 592.018,-25 636.018,-25 636.018,-6 592.018,-6"/>
<text text-anchor="middle" x="614.018" y="-13" font-family="Helvetica,sans-Serif" font-size="10.00">string</text>
</g>
<!-- Node2&#45;&gt;Node4 -->
<g id="edge3" class="edge"><title>Node2&#45;&gt;Node4</title>
<path fill="none" stroke="midnightblue" d="M448.388,-246.138C450.653,-233.19 455.959,-208.619 466.018,-190 484.834,-155.172 564.558,-68.8913 598.556,-32.7909"/>
<polygon fill="midnightblue" stroke="midnightblue" points="601.472,-34.8008 605.796,-25.1284 596.384,-29.9933 601.472,-34.8008"/>
</g>
<!-- Node5 -->
<g id="node5" class="node"><title>Node5</title>
<polygon fill="white" stroke="#bfbfbf" points="180.018,-190.5 180.018,-209.5 248.018,-209.5 248.018,-190.5 180.018,-190.5"/>
<text text-anchor="middle" x="214.018" y="-197.5" font-family="Helvetica,sans-Serif" font-size="10.00">type_traits</text>
</g>
<!-- Node2&#45;&gt;Node5 -->
<g id="edge4" class="edge"><title>Node2&#45;&gt;Node5</title>
<path fill="none" stroke="midnightblue" d="M410.868,-246.622C369.718,-237.085 302.493,-221.505 258.251,-211.251"/>
<polygon fill="midnightblue" stroke="midnightblue" points="258.886,-207.806 248.354,-208.958 257.305,-214.625 258.886,-207.806"/>
</g>
<!-- Node6 -->
<g id="node6" class="node"><title>Node6</title>
<polygon fill="white" stroke="#bfbfbf" points="621.018,-73 621.018,-92 663.018,-92 663.018,-73 621.018,-73"/>
<text text-anchor="middle" x="642.018" y="-80" font-family="Helvetica,sans-Serif" font-size="10.00">utility</text>
</g>
<!-- Node2&#45;&gt;Node6 -->
<g id="edge5" class="edge"><title>Node2&#45;&gt;Node6</title>
<path fill="none" stroke="midnightblue" d="M483.171,-250.485C529.066,-243.986 604.517,-230.476 623.018,-210 649.855,-180.298 648.32,-129.709 645.061,-102.371"/>
<polygon fill="midnightblue" stroke="midnightblue" points="648.491,-101.625 643.637,-92.2071 641.559,-102.596 648.491,-101.625"/>
</g>
<!-- Node7 -->
<g id="node7" class="node"><title>Node7</title>
<polygon fill="white" stroke="#bfbfbf" points="703.518,-6 703.518,-25 750.518,-25 750.518,-6 703.518,-6"/>
<text text-anchor="middle" x="727.018" y="-13" font-family="Helvetica,sans-Serif" font-size="10.00">vector</text>
</g>
<!-- Node2&#45;&gt;Node7 -->
<g id="edge6" class="edge"><title>Node2&#45;&gt;Node7</title>
<path fill="none" stroke="midnightblue" d="M483.327,-253.869C516.258,-250.78 563.575,-240.81 590.018,-210 631.898,-161.205 572.856,-118.002 612.018,-67 631.714,-41.3494 667.187,-28.47 693.546,-22.1734"/>
<polygon fill="midnightblue" stroke="midnightblue" points="694.48,-25.5521 703.503,-19.9994 692.986,-18.7132 694.48,-25.5521"/>
</g>
<!-- Node8 -->
<g id="node8" class="node"><title>Node8</title>
<polygon fill="white" stroke="#bfbfbf" points="399.018,-73 399.018,-92 527.018,-92 527.018,-73 399.018,-73"/>
<text text-anchor="middle" x="463.018" y="-80" font-family="Helvetica,sans-Serif" font-size="10.00">boost/noncopyable.hpp</text>
</g>
<!-- Node2&#45;&gt;Node8 -->
<g id="edge7" class="edge"><title>Node2&#45;&gt;Node8</title>
<path fill="none" stroke="midnightblue" d="M443.418,-246.222C439.962,-237.285 434.985,-222.942 433.018,-210 427.054,-170.754 443.444,-125.727 454.289,-101.385"/>
<polygon fill="midnightblue" stroke="midnightblue" points="457.472,-102.84 458.515,-92.2971 451.125,-99.8886 457.472,-102.84"/>
</g>
<!-- Node9 -->
<g id="node9" class="node"><title>Node9</title>
<polygon fill="white" stroke="#bfbfbf" points="475.018,-190.5 475.018,-209.5 581.018,-209.5 581.018,-190.5 475.018,-190.5"/>
<text text-anchor="middle" x="528.018" y="-197.5" font-family="Helvetica,sans-Serif" font-size="10.00">boost/optional.hpp</text>
</g>
<!-- Node2&#45;&gt;Node9 -->
<g id="edge8" class="edge"><title>Node2&#45;&gt;Node9</title>
<path fill="none" stroke="midnightblue" d="M460.032,-246.324C472.55,-237.979 491.7,-225.212 506.49,-215.352"/>
<polygon fill="midnightblue" stroke="midnightblue" points="508.657,-218.114 515.036,-209.655 504.774,-212.289 508.657,-218.114"/>
</g>
<!-- Node10 -->
<g id="node10" class="node"><title>Node10</title>
<g id="a_node10"><a xlink:href="element_8h.xhtml" target="_top" xlink:title="Helper classes, structs, and properties common to all other classes. ">
<polygon fill="white" stroke="black" points="239.518,-73 239.518,-92 304.518,-92 304.518,-73 239.518,-73"/>
<text text-anchor="middle" x="272.018" y="-80" font-family="Helvetica,sans-Serif" font-size="10.00">element.h</text>
</a>
</g>
</g>
<!-- Node2&#45;&gt;Node10 -->
<g id="edge9" class="edge"><title>Node2&#45;&gt;Node10</title>
<path fill="none" stroke="midnightblue" d="M410.736,-253.008C312.823,-246.733 47.632,-223.485 4.01823,-154 -0.707328,-146.471 -1.65545,-140.843 4.01823,-134 32.1167,-100.112 160.8,-88.8101 229.116,-85.1622"/>
<polygon fill="midnightblue" stroke="midnightblue" points="229.327,-88.6561 239.138,-84.6589 228.975,-81.6649 229.327,-88.6561"/>
</g>
<!-- Node15 -->
<g id="node15" class="node"><title>Node15</title>
<g id="a_node15"><a xlink:href="event_8h.xhtml" target="_top" xlink:title="Contains event classes for fault trees. ">
<polygon fill="white" stroke="black" points="266.518,-190.5 266.518,-209.5 319.518,-209.5 319.518,-190.5 266.518,-190.5"/>
<text text-anchor="middle" x="293.018" y="-197.5" font-family="Helvetica,sans-Serif" font-size="10.00">event.h</text>
</a>
</g>
</g>
<!-- Node2&#45;&gt;Node15 -->
<g id="edge16" class="edge"><title>Node2&#45;&gt;Node15</title>
<path fill="none" stroke="midnightblue" d="M422.616,-246.444C396.822,-237.399 355.942,-223.064 327,-212.916"/>
<polygon fill="midnightblue" stroke="midnightblue" points="327.901,-209.523 317.306,-209.516 325.584,-216.128 327.901,-209.523"/>
</g>
<!-- Node17 -->
<g id="node17" class="node"><title>Node17</title>
<g id="a_node17"><a xlink:href="expression_8h.xhtml" target="_top" xlink:title="Provides the base class for all expressions and units for expression values. ">
<polygon fill="white" stroke="black" points="690.518,-134.5 690.518,-153.5 767.518,-153.5 767.518,-134.5 690.518,-134.5"/>
<text text-anchor="middle" x="729.018" y="-141.5" font-family="Helvetica,sans-Serif" font-size="10.00">expression.h</text>
</a>
</g>
</g>
<!-- Node2&#45;&gt;Node17 -->
<g id="edge36" class="edge"><title>Node2&#45;&gt;Node17</title>
<path fill="none" stroke="midnightblue" d="M483.134,-253.423C527.397,-250.179 603.586,-240.27 661.018,-210 683.482,-198.16 703.743,-176.725 716.19,-161.717"/>
<polygon fill="midnightblue" stroke="midnightblue" points="719.055,-163.739 722.574,-153.745 713.591,-159.364 719.055,-163.739"/>
</g>
<!-- Node10&#45;&gt;Node4 -->
<g id="edge11" class="edge"><title>Node10&#45;&gt;Node4</title>
<path fill="none" stroke="midnightblue" d="M297.183,-72.9051C304.19,-70.74 311.847,-68.5839 319.018,-67 434.65,-41.4595 469.427,-64.467 583.018,-31 584.899,-30.4459 586.81,-29.7937 588.712,-29.0779"/>
<polygon fill="midnightblue" stroke="midnightblue" points="590.145,-32.2721 597.969,-25.1287 587.398,-25.8335 590.145,-32.2721"/>
</g>
<!-- Node10&#45;&gt;Node7 -->
<g id="edge12" class="edge"><title>Node10&#45;&gt;Node7</title>
<path fill="none" stroke="midnightblue" d="M304.658,-75.5815C320.448,-72.8082 339.691,-69.5595 357.018,-67 484.63,-48.1494 517.465,-50.2371 645.018,-31 660.893,-28.6059 678.425,-25.5604 693.189,-22.8792"/>
<polygon fill="midnightblue" stroke="midnightblue" points="694.184,-26.255 703.387,-21.0057 692.919,-19.3702 694.184,-26.255"/>
</g>
<!-- Node11 -->
<g id="node11" class="node"><title>Node11</title>
<polygon fill="white" stroke="#bfbfbf" points="28.5182,-6 28.5182,-25 77.5182,-25 77.5182,-6 28.5182,-6"/>
<text text-anchor="middle" x="53.0182" y="-13" font-family="Helvetica,sans-Serif" font-size="10.00">cstdint</text>
</g>
<!-- Node10&#45;&gt;Node11 -->
<g id="edge10" class="edge"><title>Node10&#45;&gt;Node11</title>
<path fill="none" stroke="midnightblue" d="M239.191,-73.9773C201.883,-65.0976 139.374,-49.2141 87.0182,-31 85.1545,-30.3516 83.248,-29.6498 81.3358,-28.9167"/>
<polygon fill="midnightblue" stroke="midnightblue" points="82.4824,-25.605 71.8999,-25.0937 79.8538,-32.0927 82.4824,-25.605"/>
</g>
<!-- Node12 -->
<g id="node12" class="node"><title>Node12</title>
<polygon fill="white" stroke="#bfbfbf" points="402.018,-6 402.018,-25 574.018,-25 574.018,-6 402.018,-6"/>
<text text-anchor="middle" x="488.018" y="-13" font-family="Helvetica,sans-Serif" font-size="10.00">boost/multi_index_container.hpp</text>
</g>
<!-- Node10&#45;&gt;Node12 -->
<g id="edge13" class="edge"><title>Node10&#45;&gt;Node12</title>
<path fill="none" stroke="midnightblue" d="M299.841,-72.8718C306.143,-70.9297 312.808,-68.8857 319.018,-67 363.821,-53.3952 415.395,-38.0263 449.668,-27.8542"/>
<polygon fill="midnightblue" stroke="midnightblue" points="450.697,-31.1999 459.288,-25.0005 448.706,-24.4889 450.697,-31.1999"/>
</g>
<!-- Node13 -->
<g id="node13" class="node"><title>Node13</title>
<polygon fill="white" stroke="#bfbfbf" points="96.0182,-0.5 96.0182,-30.5 236.018,-30.5 236.018,-0.5 96.0182,-0.5"/>
<text text-anchor="start" x="104.018" y="-18.5" font-family="Helvetica,sans-Serif" font-size="10.00">boost/multi_index/hashed</text>
<text text-anchor="middle" x="166.018" y="-7.5" font-family="Helvetica,sans-Serif" font-size="10.00">_index.hpp</text>
</g>
<!-- Node10&#45;&gt;Node13 -->
<g id="edge14" class="edge"><title>Node10&#45;&gt;Node13</title>
<path fill="none" stroke="midnightblue" d="M257.723,-72.7338C242.433,-63.3581 217.694,-48.188 197.762,-35.9658"/>
<polygon fill="midnightblue" stroke="midnightblue" points="199.349,-32.8329 188.994,-30.589 195.689,-38.8003 199.349,-32.8329"/>
</g>
<!-- Node14 -->
<g id="node14" class="node"><title>Node14</title>
<polygon fill="white" stroke="#bfbfbf" points="254.018,-0.5 254.018,-30.5 384.018,-30.5 384.018,-0.5 254.018,-0.5"/>
<text text-anchor="start" x="262.018" y="-18.5" font-family="Helvetica,sans-Serif" font-size="10.00">boost/multi_index/mem</text>
<text text-anchor="middle" x="319.018" y="-7.5" font-family="Helvetica,sans-Serif" font-size="10.00">_fun.hpp</text>
</g>
<!-- Node10&#45;&gt;Node14 -->
<g id="edge15" class="edge"><title>Node10&#45;&gt;Node14</title>
<path fill="none" stroke="midnightblue" d="M278.357,-72.7338C284.587,-64.1183 294.354,-50.61 302.755,-38.9923"/>
<polygon fill="midnightblue" stroke="midnightblue" points="305.808,-40.7434 308.831,-30.589 300.135,-36.6417 305.808,-40.7434"/>
</g>
<!-- Node15&#45;&gt;Node3 -->
<g id="edge18" class="edge"><title>Node15&#45;&gt;Node3</title>
<path fill="none" stroke="midnightblue" d="M266.309,-192.201C263.181,-191.441 260.032,-190.692 257.018,-190 255.937,-189.752 142.655,-166.052 80.9849,-153.151"/>
<polygon fill="midnightblue" stroke="midnightblue" points="81.3366,-149.649 70.8318,-151.027 79.9033,-156.501 81.3366,-149.649"/>
</g>
<!-- Node15&#45;&gt;Node4 -->
<g id="edge19" class="edge"><title>Node15&#45;&gt;Node4</title>
<path fill="none" stroke="midnightblue" d="M296.994,-190.241C310.116,-161.411 351.523,-71.0802 357.018,-67 438.682,-6.36863 485.782,-60.8377 583.018,-31 584.893,-30.4248 586.799,-29.757 588.698,-29.0299"/>
<polygon fill="midnightblue" stroke="midnightblue" points="590.141,-32.2193 597.947,-25.0561 587.378,-25.7878 590.141,-32.2193"/>
</g>
<!-- Node15&#45;&gt;Node7 -->
<g id="edge20" class="edge"><title>Node15&#45;&gt;Node7</title>
<path fill="none" stroke="midnightblue" d="M301.386,-190.364C309.769,-181.538 322.853,-167.28 333.018,-154 361.116,-117.293 350.989,-91.7708 390.018,-67 486.655,-5.66741 531.98,-48.9678 645.018,-31 660.873,-28.4798 678.402,-25.4177 693.17,-22.7579"/>
<polygon fill="midnightblue" stroke="midnightblue" points="694.158,-26.1359 703.372,-20.9059 692.907,-19.2485 694.158,-26.1359"/>
</g>
<!-- Node15&#45;&gt;Node8 -->
<g id="edge21" class="edge"><title>Node15&#45;&gt;Node8</title>
<path fill="none" stroke="midnightblue" d="M266.126,-190.455C239.743,-181.463 202.297,-166.858 194.018,-154 189.206,-146.526 188.342,-140.841 194.018,-134 206.468,-118.995 313.528,-102.472 388.764,-92.5457"/>
<polygon fill="midnightblue" stroke="midnightblue" points="389.232,-96.0145 398.694,-91.2493 388.325,-89.0734 389.232,-96.0145"/>
</g>
<!-- Node15&#45;&gt;Node10 -->
<g id="edge23" class="edge"><title>Node15&#45;&gt;Node10</title>
<path fill="none" stroke="midnightblue" d="M266.395,-191.713C229.694,-181.405 167.341,-162.836 161.018,-154 139.463,-123.878 189.818,-103.619 229.59,-92.8204"/>
<polygon fill="midnightblue" stroke="midnightblue" points="230.617,-96.1699 239.423,-90.2786 228.866,-89.3926 230.617,-96.1699"/>
</g>
<!-- Node15&#45;&gt;Node11 -->
<g id="edge17" class="edge"><title>Node15&#45;&gt;Node11</title>
<path fill="none" stroke="midnightblue" d="M266.226,-191.435C228.017,-180.497 161.428,-160.83 152.018,-154 107.706,-121.837 75.4934,-63.7512 61.2121,-34.4443"/>
<polygon fill="midnightblue" stroke="midnightblue" points="64.21,-32.5962 56.7727,-25.0505 57.8811,-35.5872 64.21,-32.5962"/>
</g>
<!-- Node16 -->
<g id="node16" class="node"><title>Node16</title>
<polygon fill="white" stroke="#bfbfbf" points="203.518,-134.5 203.518,-153.5 304.518,-153.5 304.518,-134.5 203.518,-134.5"/>
<text text-anchor="middle" x="254.018" y="-141.5" font-family="Helvetica,sans-Serif" font-size="10.00">boost/variant.hpp</text>
</g>
<!-- Node15&#45;&gt;Node16 -->
<g id="edge22" class="edge"><title>Node15&#45;&gt;Node16</title>
<path fill="none" stroke="midnightblue" d="M286.578,-190.083C281.069,-182.455 272.987,-171.264 266.253,-161.941"/>
<polygon fill="midnightblue" stroke="midnightblue" points="269.031,-159.809 260.338,-153.751 263.356,-163.907 269.031,-159.809"/>
</g>
<!-- Node15&#45;&gt;Node17 -->
<g id="edge24" class="edge"><title>Node15&#45;&gt;Node17</title>
<path fill="none" stroke="midnightblue" d="M319.636,-195.703C391.113,-186.851 588.056,-162.459 680.238,-151.042"/>
<polygon fill="midnightblue" stroke="midnightblue" points="680.923,-154.484 690.417,-149.781 680.062,-147.537 680.923,-154.484"/>
</g>
<!-- Node17&#45;&gt;Node4 -->
<g id="edge27" class="edge"><title>Node17&#45;&gt;Node4</title>
<path fill="none" stroke="midnightblue" d="M723.249,-134.1C713.531,-119.407 692.905,-89.4679 672.018,-67 660.021,-54.0953 644.98,-41.0754 633.222,-31.4884"/>
<polygon fill="midnightblue" stroke="midnightblue" points="635.322,-28.6868 625.33,-25.165 630.945,-34.1495 635.322,-28.6868"/>
</g>
<!-- Node17&#45;&gt;Node6 -->
<g id="edge28" class="edge"><title>Node17&#45;&gt;Node6</title>
<path fill="none" stroke="midnightblue" d="M716.553,-134.475C702.599,-124.931 679.753,-109.307 663.027,-97.8683"/>
<polygon fill="midnightblue" stroke="midnightblue" points="664.69,-94.7653 654.46,-92.0091 660.739,-100.543 664.69,-94.7653"/>
</g>
<!-- Node17&#45;&gt;Node7 -->
<g id="edge29" class="edge"><title>Node17&#45;&gt;Node7</title>
<path fill="none" stroke="midnightblue" d="M728.881,-134.305C728.56,-113.994 727.754,-63.0532 727.315,-35.2768"/>
<polygon fill="midnightblue" stroke="midnightblue" points="730.814,-35.1991 727.157,-25.2557 723.815,-35.3098 730.814,-35.1991"/>
</g>
<!-- Node17&#45;&gt;Node8 -->
<g id="edge31" class="edge"><title>Node17&#45;&gt;Node8</title>
<path fill="none" stroke="midnightblue" d="M690.907,-134.475C643.501,-123.871 562.534,-105.76 510.963,-94.2244"/>
<polygon fill="midnightblue" stroke="midnightblue" points="511.582,-90.7765 501.059,-92.0091 510.054,-97.6077 511.582,-90.7765"/>
</g>
<!-- Node17&#45;&gt;Node10 -->
<g id="edge32" class="edge"><title>Node17&#45;&gt;Node10</title>
<path fill="none" stroke="midnightblue" d="M690.449,-137.978C605.581,-126.929 403.188,-100.578 314.68,-89.0544"/>
<polygon fill="midnightblue" stroke="midnightblue" points="315.085,-85.5777 304.717,-87.7573 314.181,-92.5191 315.085,-85.5777"/>
</g>
<!-- Node18 -->
<g id="node18" class="node"><title>Node18</title>
<polygon fill="white" stroke="#bfbfbf" points="1065.02,-73 1065.02,-92 1127.02,-92 1127.02,-73 1065.02,-73"/>
<text text-anchor="middle" x="1096.02" y="-80" font-family="Helvetica,sans-Serif" font-size="10.00">algorithm</text>
</g>
<!-- Node17&#45;&gt;Node18 -->
<g id="edge25" class="edge"><title>Node17&#45;&gt;Node18</title>
<path fill="none" stroke="midnightblue" d="M767.875,-137.319C823.416,-129.116 928.672,-113.257 1018.02,-98 1029.99,-95.9557 1042.97,-93.5996 1054.84,-91.3888"/>
<polygon fill="midnightblue" stroke="midnightblue" points="1055.75,-94.7791 1064.93,-89.495 1054.46,-87.8992 1055.75,-94.7791"/>
</g>
<!-- Node19 -->
<g id="node19" class="node"><title>Node19</title>
<polygon fill="white" stroke="#bfbfbf" points="757.018,-73 757.018,-92 813.018,-92 813.018,-73 757.018,-73"/>
<text text-anchor="middle" x="785.018" y="-80" font-family="Helvetica,sans-Serif" font-size="10.00">sstream</text>
</g>
<!-- Node17&#45;&gt;Node19 -->
<g id="edge26" class="edge"><title>Node17&#45;&gt;Node19</title>
<path fill="none" stroke="midnightblue" d="M737.042,-134.475C745.608,-125.373 759.38,-110.741 769.975,-99.483"/>
<polygon fill="midnightblue" stroke="midnightblue" points="772.705,-101.69 777.01,-92.0091 767.607,-96.8923 772.705,-101.69"/>
</g>
<!-- Node20 -->
<g id="node20" class="node"><title>Node20</title>
<polygon fill="white" stroke="#bfbfbf" points="831.018,-67.5 831.018,-97.5 943.018,-97.5 943.018,-67.5 831.018,-67.5"/>
<text text-anchor="start" x="839.018" y="-85.5" font-family="Helvetica,sans-Serif" font-size="10.00">boost/icl/continuous</text>
<text text-anchor="middle" x="887.018" y="-74.5" font-family="Helvetica,sans-Serif" font-size="10.00">_interval.hpp</text>
</g>
<!-- Node17&#45;&gt;Node20 -->
<g id="edge30" class="edge"><title>Node17&#45;&gt;Node20</title>
<path fill="none" stroke="midnightblue" d="M751.656,-134.475C774.655,-125.814 810.952,-112.145 840.172,-101.141"/>
<polygon fill="midnightblue" stroke="midnightblue" points="841.656,-104.323 849.781,-97.523 839.189,-97.7718 841.656,-104.323"/>
</g>
<!-- Node17&#45;&gt;Node21 -->
<g id="edge33" class="edge"><title>Node17&#45;&gt;Node21</title>
<path fill="none" stroke="midnightblue" d="M767.529,-137.802C812.489,-131.146 888.759,-118.024 952.018,-98 953.942,-97.391 955.905,-96.7053 957.867,-95.9719"/>
<polygon fill="midnightblue" stroke="midnightblue" points="959.545,-99.0668 967.476,-92.0417 956.896,-92.5877 959.545,-99.0668"/>
</g>
<!-- Node21&#45;&gt;Node4 -->
<g id="edge35" class="edge"><title>Node21&#45;&gt;Node4</title>
<path fill="none" stroke="midnightblue" d="M967.881,-72.9032C962.871,-70.6852 957.316,-68.5024 952.018,-67 840.633,-35.414 808.336,-49.3279 694.018,-31 678.205,-28.4647 660.694,-25.3285 646.097,-22.622"/>
<polygon fill="midnightblue" stroke="midnightblue" points="646.522,-19.1408 636.049,-20.742 645.234,-26.0214 646.522,-19.1408"/>
</g>
<!-- Node22 -->
<g id="node22" class="node"><title>Node22</title>
<polygon fill="white" stroke="#bfbfbf" points="953.518,-6 953.518,-25 1016.52,-25 1016.52,-6 953.518,-6"/>
<text text-anchor="middle" x="985.018" y="-13" font-family="Helvetica,sans-Serif" font-size="10.00">exception</text>
</g>
<!-- Node21&#45;&gt;Node22 -->
<g id="edge34" class="edge"><title>Node21&#45;&gt;Node22</title>
<path fill="none" stroke="midnightblue" d="M985.018,-72.7338C985.018,-63.1826 985.018,-47.6183 985.018,-35.2829"/>
<polygon fill="midnightblue" stroke="midnightblue" points="988.518,-35.1273 985.018,-25.1273 981.518,-35.1273 988.518,-35.1273"/>
</g>
<!-- Node24&#45;&gt;Node17 -->
<g id="edge40" class="edge"><title>Node24&#45;&gt;Node17</title>
<path fill="none" stroke="midnightblue" d="M817.148,-190.324C800.309,-181.664 774.212,-168.242 754.78,-158.249"/>
<polygon fill="midnightblue" stroke="midnightblue" points="756.34,-155.116 745.846,-153.655 753.139,-161.341 756.34,-155.116"/>
</g>
<!-- Node25&#45;&gt;Node7 -->
<g id="edge44" class="edge"><title>Node25&#45;&gt;Node7</title>
<path fill="none" stroke="midnightblue" d="M1039.31,-246.463C1046.64,-217.044 1066.31,-118.854 1018.02,-67 983.686,-30.1354 830.626,-20.1105 761.319,-17.4418"/>
<polygon fill="midnightblue" stroke="midnightblue" points="761.063,-13.9306 750.945,-17.0736 760.815,-20.9262 761.063,-13.9306"/>
</g>
<!-- Node25&#45;&gt;Node17 -->
<g id="edge47" class="edge"><title>Node25&#45;&gt;Node17</title>
<path fill="none" stroke="midnightblue" d="M1021.9,-246.348C997.685,-232.778 948.389,-206.354 904.018,-190 862.36,-174.645 813.276,-162.514 777.709,-154.736"/>
<polygon fill="midnightblue" stroke="midnightblue" points="778.104,-151.241 767.592,-152.56 776.633,-158.084 778.104,-151.241"/>
</g>
<!-- Node25&#45;&gt;Node21 -->
<g id="edge46" class="edge"><title>Node25&#45;&gt;Node21</title>
<path fill="none" stroke="midnightblue" d="M1034.31,-246.381C1031.47,-237.329 1026.89,-222.675 1023.02,-210 1011.27,-171.586 997.809,-126.513 990.478,-101.88"/>
<polygon fill="midnightblue" stroke="midnightblue" points="993.774,-100.686 987.569,-92.0982 987.065,-102.681 993.774,-100.686"/>
</g>
<!-- Node25&#45;&gt;Node23 -->
<g id="edge42" class="edge"><title>Node25&#45;&gt;Node23</title>
<path fill="none" stroke="midnightblue" d="M1064.27,-246.444C1094.44,-236.971 1143.1,-221.696 1175.56,-211.505"/>
<polygon fill="midnightblue" stroke="midnightblue" points="1176.99,-214.723 1185.48,-208.388 1174.9,-208.045 1176.99,-214.723"/>
</g>
<!-- Node25&#45;&gt;Node24 -->
<g id="edge45" class="edge"><title>Node25&#45;&gt;Node24</title>
<path fill="none" stroke="midnightblue" d="M1004.85,-246.444C969.959,-237.162 914.125,-222.309 875.847,-212.127"/>
<polygon fill="midnightblue" stroke="midnightblue" points="876.597,-208.705 866.034,-209.516 874.798,-215.47 876.597,-208.705"/>
</g>
<!-- Node26 -->
<g id="node26" class="node"><title>Node26</title>
<polygon fill="white" stroke="#bfbfbf" points="1065.52,-190.5 1065.52,-209.5 1128.52,-209.5 1128.52,-190.5 1065.52,-190.5"/>
<text text-anchor="middle" x="1097.02" y="-197.5" font-family="Helvetica,sans-Serif" font-size="10.00">functional</text>
</g>
<!-- Node25&#45;&gt;Node26 -->
<g id="edge43" class="edge"><title>Node25&#45;&gt;Node26</title>
<path fill="none" stroke="midnightblue" d="M1046.66,-246.324C1055.53,-238.341 1068.89,-226.313 1079.63,-216.653"/>
<polygon fill="midnightblue" stroke="midnightblue" points="1082.11,-219.125 1087.2,-209.834 1077.43,-213.922 1082.11,-219.125"/>
</g>
<!-- Node27&#45;&gt;Node18 -->
<g id="edge49" class="edge"><title>Node27&#45;&gt;Node18</title>
<path fill="none" stroke="midnightblue" d="M1148.28,-134.475C1138.86,-125.285 1123.65,-110.456 1112.07,-99.156"/>
<polygon fill="midnightblue" stroke="midnightblue" points="1114.34,-96.4861 1104.74,-92.0091 1109.46,-101.497 1114.34,-96.4861"/>
</g>
<!-- Node28 -->
<g id="node28" class="node"><title>Node28</title>
<polygon fill="white" stroke="#bfbfbf" points="1145.02,-73 1145.02,-92 1289.02,-92 1289.02,-73 1145.02,-73"/>
<text text-anchor="middle" x="1217.02" y="-80" font-family="Helvetica,sans-Serif" font-size="10.00">boost/range/algorithm.hpp</text>
</g>
<!-- Node27&#45;&gt;Node28 -->
<g id="edge50" class="edge"><title>Node27&#45;&gt;Node28</title>
<path fill="none" stroke="midnightblue" d="M1165.61,-134.475C1174.88,-125.285 1189.84,-110.456 1201.23,-99.156"/>
<polygon fill="midnightblue" stroke="midnightblue" points="1203.8,-101.536 1208.44,-92.0091 1198.87,-96.5653 1203.8,-101.536"/>
</g>
<!-- Node29&#45;&gt;Node7 -->
<g id="edge54" class="edge"><title>Node29&#45;&gt;Node7</title>
<path fill="none" stroke="midnightblue" d="M1358.56,-134.246C1349.62,-117.75 1327.81,-82.3466 1298.02,-67 1274,-54.6257 879.724,-26.898 760.745,-18.7763"/>
<polygon fill="midnightblue" stroke="midnightblue" points="760.957,-15.2827 750.743,-18.0955 760.482,-22.2666 760.957,-15.2827"/>
</g>
<!-- Node29&#45;&gt;Node18 -->
<g id="edge52" class="edge"><title>Node29&#45;&gt;Node18</title>
<path fill="none" stroke="midnightblue" d="M1307.89,-134.486C1261.58,-126.76 1193.88,-114.121 1136.02,-98 1133.22,-97.2194 1130.33,-96.3358 1127.45,-95.3995"/>
<polygon fill="midnightblue" stroke="midnightblue" points="1128.42,-92.0329 1117.83,-92.0857 1126.15,-98.6513 1128.42,-92.0329"/>
</g>
<!-- Node29&#45;&gt;Node28 -->
<g id="edge56" class="edge"><title>Node29&#45;&gt;Node28</title>
<path fill="none" stroke="midnightblue" d="M1342.1,-134.475C1317.27,-124.357 1275.67,-107.405 1247.32,-95.8507"/>
<polygon fill="midnightblue" stroke="midnightblue" points="1248.48,-92.5419 1237.9,-92.0091 1245.84,-99.0243 1248.48,-92.5419"/>
</g>
<!-- Node30 -->
<g id="node30" class="node"><title>Node30</title>
<polygon fill="white" stroke="#bfbfbf" points="1345.02,-73 1345.02,-92 1397.02,-92 1397.02,-73 1345.02,-73"/>
<text text-anchor="middle" x="1371.02" y="-80" font-family="Helvetica,sans-Serif" font-size="10.00">iterator</text>
</g>
<!-- Node29&#45;&gt;Node30 -->
<g id="edge53" class="edge"><title>Node29&#45;&gt;Node30</title>
<path fill="none" stroke="midnightblue" d="M1364.16,-134.475C1365.29,-126.08 1367.05,-112.981 1368.51,-102.163"/>
<polygon fill="midnightblue" stroke="midnightblue" points="1372.01,-102.386 1369.87,-92.0091 1365.07,-101.453 1372.01,-102.386"/>
</g>
<!-- Node31 -->
<g id="node31" class="node"><title>Node31</title>
<polygon fill="white" stroke="#bfbfbf" points="1415.02,-67.5 1415.02,-97.5 1535.02,-97.5 1535.02,-67.5 1415.02,-67.5"/>
<text text-anchor="start" x="1423.02" y="-85.5" font-family="Helvetica,sans-Serif" font-size="10.00">boost/iterator/iterator</text>
<text text-anchor="middle" x="1475.02" y="-74.5" font-family="Helvetica,sans-Serif" font-size="10.00">_facade.hpp</text>
</g>
<!-- Node29&#45;&gt;Node31 -->
<g id="edge55" class="edge"><title>Node29&#45;&gt;Node31</title>
<path fill="none" stroke="midnightblue" d="M1379.07,-134.475C1394.8,-126.115 1419.32,-113.09 1439.63,-102.299"/>
<polygon fill="midnightblue" stroke="midnightblue" points="1441.43,-105.305 1448.62,-97.523 1438.15,-99.1237 1441.43,-105.305"/>
</g>
<!-- Node32 -->
<g id="node32" class="node"><title>Node32</title>
<polygon fill="white" stroke="#bfbfbf" points="1553.52,-67.5 1553.52,-97.5 1666.52,-97.5 1666.52,-67.5 1553.52,-67.5"/>
<text text-anchor="start" x="1561.52" y="-85.5" font-family="Helvetica,sans-Serif" font-size="10.00">boost/range/iterator</text>
<text text-anchor="middle" x="1610.02" y="-74.5" font-family="Helvetica,sans-Serif" font-size="10.00">_range.hpp</text>
</g>
<!-- Node29&#45;&gt;Node32 -->
<g id="edge57" class="edge"><title>Node29&#45;&gt;Node32</title>
<path fill="none" stroke="midnightblue" d="M1398.41,-134.475C1436.14,-125.385 1496.77,-110.779 1543.49,-99.5272"/>
<polygon fill="midnightblue" stroke="midnightblue" points="1544.33,-102.925 1553.23,-97.1803 1542.69,-96.1196 1544.33,-102.925"/>
</g>
<!-- Node33&#45;&gt;Node23 -->
<g id="edge60" class="edge"><title>Node33&#45;&gt;Node23</title>
<path fill="none" stroke="midnightblue" d="M1266.93,-246.324C1256.53,-238.185 1240.76,-225.839 1228.3,-216.087"/>
<polygon fill="midnightblue" stroke="midnightblue" points="1230.34,-213.241 1220.31,-209.834 1226.02,-218.753 1230.34,-213.241"/>
</g>
<!-- Node34 -->
<g id="node34" class="node"><title>Node34</title>
<polygon fill="white" stroke="#bfbfbf" points="1252.02,-190.5 1252.02,-209.5 1304.02,-209.5 1304.02,-190.5 1252.02,-190.5"/>
<text text-anchor="middle" x="1278.02" y="-197.5" font-family="Helvetica,sans-Serif" font-size="10.00">cassert</text>
</g>
<!-- Node33&#45;&gt;Node34 -->
<g id="edge59" class="edge"><title>Node33&#45;&gt;Node34</title>
<path fill="none" stroke="midnightblue" d="M1278.02,-246.083C1278.02,-239.006 1278.02,-228.861 1278.02,-219.986"/>
<polygon fill="midnightblue" stroke="midnightblue" points="1281.52,-219.751 1278.02,-209.751 1274.52,-219.751 1281.52,-219.751"/>
</g>
</g>
</svg>
        <g id="navigator" transform="translate(0 0)" fill="#404254">
                <rect fill="#f2f5e9" fill-opacity="0.5" stroke="#606060" stroke-width=".5" x="0" y="0" width="60" height="60"/>
                <use id="zoomplus" xlink:href="#zoomPlus" x="17" y="9" onmousedown="handleZoom(evt,'in')"/>
                <use id="zoomminus" xlink:href="#zoomMin" x="42" y="9" onmousedown="handleZoom(evt,'out')"/>
                <use id="reset" xlink:href="#resetDef" x="30" y="36" onmousedown="handleReset()"/>
                <g id="arrowUp" xlink:href="#dirArrow" transform="translate(30 24)" onmousedown="handlePan(0,-1)">
                  <use xlink:href="#rim" fill="#404040">
                        <set attributeName="fill" to="#808080" begin="arrowUp.mouseover" end="arrowUp.mouseout"/>
                  </use>
                  <path fill="none" stroke="white" stroke-width="1.5" d="M0,-3.0v7 M-2.5,-0.5L0,-3.0L2.5,-0.5"/>
                </g>
                <g id="arrowRight" xlink:href="#dirArrow" transform="rotate(90) translate(36 -43)" onmousedown="handlePan(1,0)">
                  <use xlink:href="#rim" fill="#404040">
                        <set attributeName="fill" to="#808080" begin="arrowRight.mouseover" end="arrowRight.mouseout"/>
                  </use>
                  <path fill="none" stroke="white" stroke-width="1.5" d="M0,-3.0v7 M-2.5,-0.5L0,-3.0L2.5,-0.5"/>
                </g>
                <g id="arrowDown" xlink:href="#dirArrow" transform="rotate(180) translate(-30 -48)" onmousedown="handlePan(0,1)">
                  <use xlink:href="#rim" fill="#404040">
                        <set attributeName="fill" to="#808080" begin="arrowDown.mouseover" end="arrowDown.mouseout"/>
                  </use>
                  <path fill="none" stroke="white" stroke-width="1.5" d="M0,-3.0v7 M-2.5,-0.5L0,-3.0L2.5,-0.5"/>
                </g>
                <g id="arrowLeft" xlink:href="#dirArrow" transform="rotate(270) translate(-36 17)" onmousedown="handlePan(-1,0)">
                  <use xlink:href="#rim" fill="#404040">
                        <set attributeName="fill" to="#808080" begin="arrowLeft.mouseover" end="arrowLeft.mouseout"/>
                  </use>
                  <path fill="none" stroke="white" stroke-width="1.5" d="M0,-3.0v7 M-2.5,-0.5L0,-3.0L2.5,-0.5"/>
                </g>
        </g>
        <svg viewBox="0 0 15 15" width="100%" height="30px" preserveAspectRatio="xMaxYMin meet">
         <g id="arrow_out" transform="scale(0.3 0.3)">
          <a xlink:href="ccf__group_8cc__incl_org.svg" target="_base">
           <rect id="button" ry="5" rx="5" y="6" x="6" height="38" width="38"
                fill="#f2f5e9" fill-opacity="0.5" stroke="#606060" stroke-width="1.0"/>
           <path id="arrow"
             d="M 11.500037,31.436501 C 11.940474,20.09759 22.043105,11.32322 32.158766,21.979434 L 37.068811,17.246167 C 37.068811,17.246167 37.088388,32 37.088388,32 L 22.160133,31.978069 C 22.160133,31.978069 26.997745,27.140456 26.997745,27.140456 C 18.528582,18.264221 13.291696,25.230495 11.500037,31.436501 z"
             style="fill:#404040;"/>
          </a>
         </g>
        </svg>
</svg>
