<?xml version="1.0" encoding="UTF-8" standalone="no"?>
<!DOCTYPE svg PUBLIC "-//W3C//DTD SVG 1.1//EN"
 "http://www.w3.org/Graphics/SVG/1.1/DTD/svg11.dtd">
<!-- Generated by graphviz version 2.38.0 (20140413.2041)
 -->
<!-- Title: scram::core::RiskAnalysis::Analyze Pages: 1 -->
<svg width="316pt" height="323pt"
 viewBox="0.00 0.00 316.00 323.00" xmlns="http://www.w3.org/2000/svg" xmlns:xlink="http://www.w3.org/1999/xlink">
<g id="graph0" class="graph" transform="scale(1 1) rotate(0) translate(4 319)">
<title>scram::core::RiskAnalysis::Analyze</title>
<polygon fill="white" stroke="none" points="-4,4 -4,-319 312,-319 312,4 -4,4"/>
<!-- Node1 -->
<g id="node1" class="node"><title>Node1</title>
<polygon fill="#bfbfbf" stroke="black" points="0,-142.5 0,-172.5 137,-172.5 137,-142.5 0,-142.5"/>
<text text-anchor="start" x="8" y="-160.5" font-family="Helvetica,sans-Serif" font-size="10.00">scram::core::RiskAnalysis</text>
<text text-anchor="middle" x="68.5" y="-149.5" font-family="Helvetica,sans-Serif" font-size="10.00">::Analyze</text>
</g>
<!-- Node2 -->
<g id="node2" class="node"><title>Node2</title>
<g id="a_node2"><a xlink:href="classscram_1_1mef_1_1Model.xhtml#a2b8db43cf577f66dbdcae54e4065d552" target="_top" xlink:title="scram::mef::Model::\lalignments">
<polygon fill="white" stroke="black" points="184.5,-284.5 184.5,-314.5 296.5,-314.5 296.5,-284.5 184.5,-284.5"/>
<text text-anchor="start" x="192.5" y="-302.5" font-family="Helvetica,sans-Serif" font-size="10.00">scram::mef::Model::</text>
<text text-anchor="middle" x="240.5" y="-291.5" font-family="Helvetica,sans-Serif" font-size="10.00">alignments</text>
</a>
</g>
</g>
<!-- Node1&#45;&gt;Node2 -->
<g id="edge1" class="edge"><title>Node1&#45;&gt;Node2</title>
<path fill="none" stroke="midnightblue" d="M79.0912,-172.737C95.4637,-197.591 131.127,-246.941 173,-275.5 175.251,-277.036 177.613,-278.485 180.047,-279.852"/>
<polygon fill="midnightblue" stroke="midnightblue" points="178.62,-283.053 189.122,-284.448 181.782,-276.808 178.62,-283.053"/>
</g>
<!-- Node3 -->
<g id="node3" class="node"><title>Node3</title>
<g id="a_node3"><a xlink:href="classscram_1_1core_1_1Settings.xhtml#a0c130c599ff39bd4a5b269907f06b66d" target="_top" xlink:title="scram::core::Settings\l::mission_time">
<polygon fill="white" stroke="black" points="181,-235.5 181,-265.5 300,-265.5 300,-235.5 181,-235.5"/>
<text text-anchor="start" x="189" y="-253.5" font-family="Helvetica,sans-Serif" font-size="10.00">scram::core::Settings</text>
<text text-anchor="middle" x="240.5" y="-242.5" font-family="Helvetica,sans-Serif" font-size="10.00">::mission_time</text>
</a>
</g>
</g>
<!-- Node1&#45;&gt;Node3 -->
<g id="edge2" class="edge"><title>Node1&#45;&gt;Node3</title>
<path fill="none" stroke="midnightblue" d="M89.233,-172.767C109.432,-187.876 142.149,-210.938 173,-226.5 176.476,-228.253 180.111,-229.941 183.814,-231.551"/>
<polygon fill="midnightblue" stroke="midnightblue" points="182.522,-234.805 193.1,-235.391 185.197,-228.336 182.522,-234.805"/>
</g>
<!-- Node4 -->
<g id="node4" class="node"><title>Node4</title>
<g id="a_node4"><a xlink:href="classscram_1_1mef_1_1Element.xhtml#adb401e2ca84aa98cb60797bec2500a81" target="_top" xlink:title="scram::mef::Element\l::name">
<polygon fill="white" stroke="black" points="182,-186.5 182,-216.5 299,-216.5 299,-186.5 182,-186.5"/>
<text text-anchor="start" x="190" y="-204.5" font-family="Helvetica,sans-Serif" font-size="10.00">scram::mef::Element</text>
<text text-anchor="middle" x="240.5" y="-193.5" font-family="Helvetica,sans-Serif" font-size="10.00">::name</text>
</a>
</g>
</g>
<!-- Node1&#45;&gt;Node4 -->
<g id="edge3" class="edge"><title>Node1&#45;&gt;Node4</title>
<path fill="none" stroke="midnightblue" d="M127.529,-172.519C141.753,-176.201 157.1,-180.173 171.736,-183.961"/>
<polygon fill="midnightblue" stroke="midnightblue" points="171.175,-187.431 181.733,-186.548 172.929,-180.654 171.175,-187.431"/>
</g>
<!-- Node5 -->
<g id="node5" class="node"><title>Node5</title>
<g id="a_node5"><a xlink:href="classscram_1_1Random.xhtml#afef05703779a8c2b5b44ba7315dd88a2" target="_top" xlink:title="Sets the seed of the underlying random number generator. ">
<polygon fill="white" stroke="black" points="179.5,-148 179.5,-167 301.5,-167 301.5,-148 179.5,-148"/>
<text text-anchor="middle" x="240.5" y="-155" font-family="Helvetica,sans-Serif" font-size="10.00">scram::Random::seed</text>
</a>
</g>
</g>
<!-- Node1&#45;&gt;Node5 -->
<g id="edge4" class="edge"><title>Node1&#45;&gt;Node5</title>
<path fill="none" stroke="midnightblue" d="M137.177,-157.5C147.772,-157.5 158.743,-157.5 169.391,-157.5"/>
<polygon fill="midnightblue" stroke="midnightblue" points="169.479,-161 179.479,-157.5 169.479,-154 169.479,-161"/>
</g>
<!-- Node6 -->
<g id="node6" class="node"><title>Node6</title>
<g id="a_node6"><a xlink:href="classscram_1_1core_1_1Settings.xhtml#a9937a41d3fd1369f2eea59e1f33a1ac5" target="_top" xlink:title="scram::core::Settings\l::seed">
<polygon fill="white" stroke="black" points="181,-98.5 181,-128.5 300,-128.5 300,-98.5 181,-98.5"/>
<text text-anchor="start" x="189" y="-116.5" font-family="Helvetica,sans-Serif" font-size="10.00">scram::core::Settings</text>
<text text-anchor="middle" x="240.5" y="-105.5" font-family="Helvetica,sans-Serif" font-size="10.00">::seed</text>
</a>
</g>
</g>
<!-- Node1&#45;&gt;Node6 -->
<g id="edge5" class="edge"><title>Node1&#45;&gt;Node6</title>
<path fill="none" stroke="midnightblue" d="M127.529,-142.481C141.674,-138.82 156.932,-134.871 171.495,-131.101"/>
<polygon fill="midnightblue" stroke="midnightblue" points="172.64,-134.42 181.444,-128.526 170.886,-127.644 172.64,-134.42"/>
</g>
<!-- Node7 -->
<g id="node7" class="node"><title>Node7</title>
<g id="a_node7"><a xlink:href="classscram_1_1core_1_1Analysis.xhtml#ab04a96c555ba726368fa3868a8701610" target="_top" xlink:title="scram::core::Analysis\l::settings">
<polygon fill="white" stroke="black" points="181,-49.5 181,-79.5 300,-79.5 300,-49.5 181,-49.5"/>
<text text-anchor="start" x="189" y="-67.5" font-family="Helvetica,sans-Serif" font-size="10.00">scram::core::Analysis</text>
<text text-anchor="middle" x="240.5" y="-56.5" font-family="Helvetica,sans-Serif" font-size="10.00">::settings</text>
</a>
</g>
</g>
<!-- Node1&#45;&gt;Node7 -->
<g id="edge6" class="edge"><title>Node1&#45;&gt;Node7</title>
<path fill="none" stroke="midnightblue" d="M89.6934,-142.284C109.983,-127.474 142.529,-104.995 173,-89.5 177.068,-87.4314 181.349,-85.4386 185.697,-83.5427"/>
<polygon fill="midnightblue" stroke="midnightblue" points="187.38,-86.6331 195.264,-79.5558 184.687,-80.1717 187.38,-86.6331"/>
</g>
<!-- Node8 -->
<g id="node8" class="node"><title>Node8</title>
<g id="a_node8"><a xlink:href="classscram_1_1mef_1_1HouseEvent.xhtml#a15ab4daf36b62127703cf610bdc80183" target="_top" xlink:title="Sets the state for House event. ">
<polygon fill="white" stroke="black" points="173,-0.5 173,-30.5 308,-30.5 308,-0.5 173,-0.5"/>
<text text-anchor="start" x="181" y="-18.5" font-family="Helvetica,sans-Serif" font-size="10.00">scram::mef::HouseEvent</text>
<text text-anchor="middle" x="240.5" y="-7.5" font-family="Helvetica,sans-Serif" font-size="10.00">::state</text>
</a>
</g>
</g>
<!-- Node1&#45;&gt;Node8 -->
<g id="edge7" class="edge"><title>Node1&#45;&gt;Node8</title>
<path fill="none" stroke="midnightblue" d="M79.1649,-142.458C95.6435,-117.909 131.456,-69.1097 173,-40.5 175.743,-38.6112 178.647,-36.8427 181.647,-35.1902"/>
<polygon fill="midnightblue" stroke="midnightblue" points="183.496,-38.1791 190.874,-30.5762 180.365,-31.9182 183.496,-38.1791"/>
</g>
</g>
</svg>
