<?xml version="1.0" encoding="UTF-8" standalone="no"?>
<!DOCTYPE svg PUBLIC "-//W3C//DTD SVG 1.1//EN"
 "http://www.w3.org/Graphics/SVG/1.1/DTD/svg11.dtd">
<!-- Generated by graphviz version 2.38.0 (20140413.2041)
 -->
<!-- Title: scram::core::RiskAnalysis::model Pages: 1 -->
<svg width="489pt" height="323pt"
 viewBox="0.00 0.00 489.00 323.00" xmlns="http://www.w3.org/2000/svg" xmlns:xlink="http://www.w3.org/1999/xlink">
<g id="graph0" class="graph" transform="scale(1 1) rotate(0) translate(4 319)">
<title>scram::core::RiskAnalysis::model</title>
<polygon fill="white" stroke="none" points="-4,4 -4,-319 485,-319 485,4 -4,4"/>
<!-- Node1 -->
<g id="node1" class="node"><title>Node1</title>
<polygon fill="#bfbfbf" stroke="black" points="0,-147.5 0,-177.5 137,-177.5 137,-147.5 0,-147.5"/>
<text text-anchor="start" x="8" y="-165.5" font-family="Helvetica,sans-Serif" font-size="10.00">scram::core::RiskAnalysis</text>
<text text-anchor="middle" x="68.5" y="-154.5" font-family="Helvetica,sans-Serif" font-size="10.00">::model</text>
</g>
<!-- Node2 -->
<g id="node2" class="node"><title>Node2</title>
<g id="a_node2"><a xlink:href="classscram_1_1core_1_1RiskAnalysis.xhtml#a7aed757ac5a7a96878c2706a7a9710bb" target="_top" xlink:title="Analyzes the model and performs computations specified in the settings. ">
<polygon fill="white" stroke="black" points="173,-147.5 173,-177.5 310,-177.5 310,-147.5 173,-147.5"/>
<text text-anchor="start" x="181" y="-165.5" font-family="Helvetica,sans-Serif" font-size="10.00">scram::core::RiskAnalysis</text>
<text text-anchor="middle" x="241.5" y="-154.5" font-family="Helvetica,sans-Serif" font-size="10.00">::Analyze</text>
</a>
</g>
</g>
<!-- Node1&#45;&gt;Node2 -->
<g id="edge1" class="edge"><title>Node1&#45;&gt;Node2</title>
<path fill="none" stroke="midnightblue" d="M137.084,-162.5C145.538,-162.5 154.237,-162.5 162.83,-162.5"/>
<polygon fill="midnightblue" stroke="midnightblue" points="162.847,-166 172.847,-162.5 162.847,-159 162.847,-166"/>
</g>
<!-- Node3 -->
<g id="node3" class="node"><title>Node3</title>
<g id="a_node3"><a xlink:href="classscram_1_1core_1_1Analysis.xhtml#ab04a96c555ba726368fa3868a8701610" target="_top" xlink:title="scram::core::Analysis\l::settings">
<polygon fill="white" stroke="black" points="354,-284.5 354,-314.5 473,-314.5 473,-284.5 354,-284.5"/>
<text text-anchor="start" x="362" y="-302.5" font-family="Helvetica,sans-Serif" font-size="10.00">scram::core::Analysis</text>
<text text-anchor="middle" x="413.5" y="-291.5" font-family="Helvetica,sans-Serif" font-size="10.00">::settings</text>
</a>
</g>
</g>
<!-- Node2&#45;&gt;Node3 -->
<g id="edge2" class="edge"><title>Node2&#45;&gt;Node3</title>
<path fill="none" stroke="midnightblue" d="M252.789,-177.846C269.619,-201.855 305.265,-248.355 346,-275.5 348.394,-277.095 350.907,-278.6 353.497,-280.016"/>
<polygon fill="midnightblue" stroke="midnightblue" points="352.026,-283.193 362.54,-284.5 355.136,-276.922 352.026,-283.193"/>
</g>
<!-- Node4 -->
<g id="node4" class="node"><title>Node4</title>
<g id="a_node4"><a xlink:href="classscram_1_1core_1_1Settings.xhtml#a9937a41d3fd1369f2eea59e1f33a1ac5" target="_top" xlink:title="scram::core::Settings\l::seed">
<polygon fill="white" stroke="black" points="354,-235.5 354,-265.5 473,-265.5 473,-235.5 354,-235.5"/>
<text text-anchor="start" x="362" y="-253.5" font-family="Helvetica,sans-Serif" font-size="10.00">scram::core::Settings</text>
<text text-anchor="middle" x="413.5" y="-242.5" font-family="Helvetica,sans-Serif" font-size="10.00">::seed</text>
</a>
</g>
</g>
<!-- Node2&#45;&gt;Node4 -->
<g id="edge3" class="edge"><title>Node2&#45;&gt;Node4</title>
<path fill="none" stroke="midnightblue" d="M264.43,-177.515C284.927,-191.14 316.686,-211.224 346,-225.5 350.28,-227.584 354.78,-229.608 359.338,-231.543"/>
<polygon fill="midnightblue" stroke="midnightblue" points="358.14,-234.834 368.721,-235.379 360.789,-228.355 358.14,-234.834"/>
</g>
<!-- Node5 -->
<g id="node5" class="node"><title>Node5</title>
<g id="a_node5"><a xlink:href="classscram_1_1Random.xhtml#afef05703779a8c2b5b44ba7315dd88a2" target="_top" xlink:title="Sets the seed of the underlying random number generator. ">
<polygon fill="white" stroke="black" points="352.5,-197 352.5,-216 474.5,-216 474.5,-197 352.5,-197"/>
<text text-anchor="middle" x="413.5" y="-204" font-family="Helvetica,sans-Serif" font-size="10.00">scram::Random::seed</text>
</a>
</g>
</g>
<!-- Node2&#45;&gt;Node5 -->
<g id="edge4" class="edge"><title>Node2&#45;&gt;Node5</title>
<path fill="none" stroke="midnightblue" d="M300.529,-177.519C321.841,-183.035 345.676,-189.204 365.86,-194.428"/>
<polygon fill="midnightblue" stroke="midnightblue" points="365.189,-197.87 375.747,-196.988 366.943,-191.093 365.189,-197.87"/>
</g>
<!-- Node6 -->
<g id="node6" class="node"><title>Node6</title>
<g id="a_node6"><a xlink:href="classscram_1_1mef_1_1Model.xhtml#a2b8db43cf577f66dbdcae54e4065d552" target="_top" xlink:title="scram::mef::Model::\lalignments">
<polygon fill="white" stroke="black" points="357.5,-147.5 357.5,-177.5 469.5,-177.5 469.5,-147.5 357.5,-147.5"/>
<text text-anchor="start" x="365.5" y="-165.5" font-family="Helvetica,sans-Serif" font-size="10.00">scram::mef::Model::</text>
<text text-anchor="middle" x="413.5" y="-154.5" font-family="Helvetica,sans-Serif" font-size="10.00">alignments</text>
</a>
</g>
</g>
<!-- Node2&#45;&gt;Node6 -->
<g id="edge5" class="edge"><title>Node2&#45;&gt;Node6</title>
<path fill="none" stroke="midnightblue" d="M310.177,-162.5C322.402,-162.5 335.127,-162.5 347.28,-162.5"/>
<polygon fill="midnightblue" stroke="midnightblue" points="347.331,-166 357.331,-162.5 347.331,-159 347.331,-166"/>
</g>
<!-- Node7 -->
<g id="node7" class="node"><title>Node7</title>
<g id="a_node7"><a xlink:href="classscram_1_1core_1_1Settings.xhtml#a0c130c599ff39bd4a5b269907f06b66d" target="_top" xlink:title="scram::core::Settings\l::mission_time">
<polygon fill="white" stroke="black" points="354,-98.5 354,-128.5 473,-128.5 473,-98.5 354,-98.5"/>
<text text-anchor="start" x="362" y="-116.5" font-family="Helvetica,sans-Serif" font-size="10.00">scram::core::Settings</text>
<text text-anchor="middle" x="413.5" y="-105.5" font-family="Helvetica,sans-Serif" font-size="10.00">::mission_time</text>
</a>
</g>
</g>
<!-- Node2&#45;&gt;Node7 -->
<g id="edge6" class="edge"><title>Node2&#45;&gt;Node7</title>
<path fill="none" stroke="midnightblue" d="M294.893,-147.399C312.507,-142.321 332.323,-136.61 350.598,-131.342"/>
<polygon fill="midnightblue" stroke="midnightblue" points="351.641,-134.684 360.28,-128.552 349.702,-127.958 351.641,-134.684"/>
</g>
<!-- Node8 -->
<g id="node8" class="node"><title>Node8</title>
<g id="a_node8"><a xlink:href="classscram_1_1mef_1_1HouseEvent.xhtml#a15ab4daf36b62127703cf610bdc80183" target="_top" xlink:title="Sets the state for House event. ">
<polygon fill="white" stroke="black" points="346,-49.5 346,-79.5 481,-79.5 481,-49.5 346,-49.5"/>
<text text-anchor="start" x="354" y="-67.5" font-family="Helvetica,sans-Serif" font-size="10.00">scram::mef::HouseEvent</text>
<text text-anchor="middle" x="413.5" y="-56.5" font-family="Helvetica,sans-Serif" font-size="10.00">::state</text>
</a>
</g>
</g>
<!-- Node2&#45;&gt;Node8 -->
<g id="edge7" class="edge"><title>Node2&#45;&gt;Node8</title>
<path fill="none" stroke="midnightblue" d="M261.012,-147.238C281.026,-131.28 314.325,-106.271 346,-89.5 349.97,-87.398 354.157,-85.388 358.418,-83.4865"/>
<polygon fill="midnightblue" stroke="midnightblue" points="359.97,-86.63 367.809,-79.5033 357.237,-80.1856 359.97,-86.63"/>
</g>
<!-- Node9 -->
<g id="node9" class="node"><title>Node9</title>
<g id="a_node9"><a xlink:href="classscram_1_1mef_1_1Element.xhtml#adb401e2ca84aa98cb60797bec2500a81" target="_top" xlink:title="scram::mef::Element\l::name">
<polygon fill="white" stroke="black" points="355,-0.5 355,-30.5 472,-30.5 472,-0.5 355,-0.5"/>
<text text-anchor="start" x="363" y="-18.5" font-family="Helvetica,sans-Serif" font-size="10.00">scram::mef::Element</text>
<text text-anchor="middle" x="413.5" y="-7.5" font-family="Helvetica,sans-Serif" font-size="10.00">::name</text>
</a>
</g>
</g>
<!-- Node2&#45;&gt;Node9 -->
<g id="edge8" class="edge"><title>Node2&#45;&gt;Node9</title>
<path fill="none" stroke="midnightblue" d="M251.748,-147.205C267.88,-121.716 303.529,-70.4007 346,-40.5 348.673,-38.6184 351.504,-36.8585 354.434,-35.2152"/>
<polygon fill="midnightblue" stroke="midnightblue" points="356.126,-38.2816 363.454,-30.6302 352.954,-32.0416 356.126,-38.2816"/>
</g>
</g>
</svg>
