<?xml version="1.0" encoding="UTF-8" standalone="no"?>
<!DOCTYPE svg PUBLIC "-//W3C//DTD SVG 1.1//EN"
 "http://www.w3.org/Graphics/SVG/1.1/DTD/svg11.dtd">
<!-- Generated by graphviz version 2.38.0 (20140413.2041)
 -->
<!-- Title: cycle.h Pages: 1 -->
<svg width="1341pt" height="397pt"
 viewBox="0.00 0.00 1341.00 397.00" xmlns="http://www.w3.org/2000/svg" xmlns:xlink="http://www.w3.org/1999/xlink">
<g id="graph0" class="graph" transform="scale(1 1) rotate(0) translate(4 393)">
<title>cycle.h</title>
<polygon fill="white" stroke="none" points="-4,4 -4,-393 1337,-393 1337,4 -4,4"/>
<!-- Node1 -->
<g id="node1" class="node"><title>Node1</title>
<polygon fill="#bfbfbf" stroke="black" points="607.5,-369.5 607.5,-388.5 657.5,-388.5 657.5,-369.5 607.5,-369.5"/>
<text text-anchor="middle" x="632.5" y="-376.5" font-family="Helvetica,sans-Serif" font-size="10.00">cycle.h</text>
</g>
<!-- Node2 -->
<g id="node2" class="node"><title>Node2</title>
<polygon fill="white" stroke="#bfbfbf" points="382.5,-6 382.5,-25 426.5,-25 426.5,-6 382.5,-6"/>
<text text-anchor="middle" x="404.5" y="-13" font-family="Helvetica,sans-Serif" font-size="10.00">string</text>
</g>
<!-- Node1&#45;&gt;Node2 -->
<g id="edge1" class="edge"><title>Node1&#45;&gt;Node2</title>
<path fill="none" stroke="midnightblue" d="M607.328,-377.554C507.278,-375.558 141.305,-366.036 102.5,-333 75.9886,-310.43 83.5,-291.817 83.5,-257 83.5,-257 83.5,-257 83.5,-143 83.5,-102.568 99.8261,-89.3793 133.5,-67 172.309,-41.2077 308.886,-25.4337 372.034,-19.3609"/>
<polygon fill="midnightblue" stroke="midnightblue" points="372.594,-22.8238 382.223,-18.4043 371.94,-15.8545 372.594,-22.8238"/>
</g>
<!-- Node3 -->
<g id="node3" class="node"><title>Node3</title>
<polygon fill="white" stroke="#bfbfbf" points="722,-6 722,-25 769,-25 769,-6 722,-6"/>
<text text-anchor="middle" x="745.5" y="-13" font-family="Helvetica,sans-Serif" font-size="10.00">vector</text>
</g>
<!-- Node1&#45;&gt;Node3 -->
<g id="edge2" class="edge"><title>Node1&#45;&gt;Node3</title>
<path fill="none" stroke="midnightblue" d="M657.544,-377.48C741.248,-375.444 1010.46,-366.39 1089.5,-333 1137.73,-312.627 1179.5,-309.354 1179.5,-257 1179.5,-257 1179.5,-257 1179.5,-199 1179.5,-136.725 1181.5,-105.429 1132.5,-67 1070.28,-18.2052 854.962,-51.1501 778.5,-31 776.202,-30.3945 773.86,-29.6497 771.538,-28.8201"/>
<polygon fill="midnightblue" stroke="midnightblue" points="772.845,-25.5735 762.262,-25.0733 770.223,-32.0639 772.845,-25.5735"/>
</g>
<!-- Node4 -->
<g id="node4" class="node"><title>Node4</title>
<polygon fill="white" stroke="#bfbfbf" points="111.5,-302.5 111.5,-332.5 233.5,-332.5 233.5,-302.5 111.5,-302.5"/>
<text text-anchor="start" x="119.5" y="-320.5" font-family="Helvetica,sans-Serif" font-size="10.00">boost/algorithm/string</text>
<text text-anchor="middle" x="172.5" y="-309.5" font-family="Helvetica,sans-Serif" font-size="10.00">/join.hpp</text>
</g>
<!-- Node1&#45;&gt;Node4 -->
<g id="edge3" class="edge"><title>Node1&#45;&gt;Node4</title>
<path fill="none" stroke="midnightblue" d="M607.298,-375.879C546.565,-370.601 387.148,-355.756 243.815,-333.119"/>
<polygon fill="midnightblue" stroke="midnightblue" points="243.951,-329.596 233.524,-331.476 242.847,-336.509 243.951,-329.596"/>
</g>
<!-- Node5 -->
<g id="node5" class="node"><title>Node5</title>
<polygon fill="white" stroke="#bfbfbf" points="252,-302.5 252,-332.5 367,-332.5 367,-302.5 252,-302.5"/>
<text text-anchor="start" x="260" y="-320.5" font-family="Helvetica,sans-Serif" font-size="10.00">boost/range/adaptor</text>
<text text-anchor="middle" x="309.5" y="-309.5" font-family="Helvetica,sans-Serif" font-size="10.00">/filtered.hpp</text>
</g>
<!-- Node1&#45;&gt;Node5 -->
<g id="edge4" class="edge"><title>Node1&#45;&gt;Node5</title>
<path fill="none" stroke="midnightblue" d="M607.263,-373.95C562.756,-366.729 467.19,-350.87 376.908,-333.233"/>
<polygon fill="midnightblue" stroke="midnightblue" points="377.55,-329.793 367.063,-331.299 376.2,-336.661 377.55,-329.793"/>
</g>
<!-- Node6 -->
<g id="node6" class="node"><title>Node6</title>
<polygon fill="white" stroke="#bfbfbf" points="385,-302.5 385,-332.5 500,-332.5 500,-302.5 385,-302.5"/>
<text text-anchor="start" x="393" y="-320.5" font-family="Helvetica,sans-Serif" font-size="10.00">boost/range/adaptor</text>
<text text-anchor="middle" x="442.5" y="-309.5" font-family="Helvetica,sans-Serif" font-size="10.00">/reversed.hpp</text>
</g>
<!-- Node1&#45;&gt;Node6 -->
<g id="edge5" class="edge"><title>Node1&#45;&gt;Node6</title>
<path fill="none" stroke="midnightblue" d="M607.269,-370.099C579.404,-361.373 533.69,-347.057 497.473,-335.715"/>
<polygon fill="midnightblue" stroke="midnightblue" points="498.122,-332.251 487.533,-332.602 496.03,-338.931 498.122,-332.251"/>
</g>
<!-- Node7 -->
<g id="node7" class="node"><title>Node7</title>
<polygon fill="white" stroke="#bfbfbf" points="518,-302.5 518,-332.5 633,-332.5 633,-302.5 518,-302.5"/>
<text text-anchor="start" x="526" y="-320.5" font-family="Helvetica,sans-Serif" font-size="10.00">boost/range/adaptor</text>
<text text-anchor="middle" x="575.5" y="-309.5" font-family="Helvetica,sans-Serif" font-size="10.00">/transformed.hpp</text>
</g>
<!-- Node1&#45;&gt;Node7 -->
<g id="edge6" class="edge"><title>Node1&#45;&gt;Node7</title>
<path fill="none" stroke="midnightblue" d="M624.333,-369.475C616.974,-361.793 605.841,-350.172 596.062,-339.964"/>
<polygon fill="midnightblue" stroke="midnightblue" points="598.379,-337.323 588.934,-332.523 593.324,-342.165 598.379,-337.323"/>
</g>
<!-- Node8 -->
<g id="node8" class="node"><title>Node8</title>
<g id="a_node8"><a xlink:href="element_8h.xhtml" target="_top" xlink:title="Helper classes, structs, and properties common to all other classes. ">
<polygon fill="white" stroke="black" points="1059,-73 1059,-92 1124,-92 1124,-73 1059,-73"/>
<text text-anchor="middle" x="1091.5" y="-80" font-family="Helvetica,sans-Serif" font-size="10.00">element.h</text>
</a>
</g>
</g>
<!-- Node1&#45;&gt;Node8 -->
<g id="edge7" class="edge"><title>Node1&#45;&gt;Node8</title>
<path fill="none" stroke="midnightblue" d="M657.741,-377.481C760.447,-374.698 1141.5,-357.595 1141.5,-257 1141.5,-257 1141.5,-257 1141.5,-199 1141.5,-161.504 1119.03,-122.378 1104.22,-100.656"/>
<polygon fill="midnightblue" stroke="midnightblue" points="1106.88,-98.3557 1098.24,-92.2177 1101.17,-102.401 1106.88,-98.3557"/>
</g>
<!-- Node13 -->
<g id="node13" class="node"><title>Node13</title>
<g id="a_node13"><a xlink:href="error_8h.xhtml" target="_top" xlink:title="Exceptions for SCRAM. ">
<polygon fill="white" stroke="black" points="7.5,-73 7.5,-92 55.5,-92 55.5,-73 7.5,-73"/>
<text text-anchor="middle" x="31.5" y="-80" font-family="Helvetica,sans-Serif" font-size="10.00">error.h</text>
</a>
</g>
</g>
<!-- Node1&#45;&gt;Node13 -->
<g id="edge14" class="edge"><title>Node1&#45;&gt;Node13</title>
<path fill="none" stroke="midnightblue" d="M607.32,-377.523C503.67,-375.353 113.371,-365.097 69.5,-333 40.0585,-311.46 38.5,-293.48 38.5,-257 38.5,-257 38.5,-257 38.5,-199 38.5,-164.801 35.4045,-125.01 33.3305,-102.188"/>
<polygon fill="midnightblue" stroke="midnightblue" points="36.8104,-101.81 32.3866,-92.1825 29.8413,-102.467 36.8104,-101.81"/>
</g>
<!-- Node15 -->
<g id="node15" class="node"><title>Node15</title>
<g id="a_node15"><a xlink:href="event_8h.xhtml" target="_top" xlink:title="Contains event classes for fault trees. ">
<polygon fill="white" stroke="black" points="680,-190.5 680,-209.5 733,-209.5 733,-190.5 680,-190.5"/>
<text text-anchor="middle" x="706.5" y="-197.5" font-family="Helvetica,sans-Serif" font-size="10.00">event.h</text>
</a>
</g>
</g>
<!-- Node1&#45;&gt;Node15 -->
<g id="edge17" class="edge"><title>Node1&#45;&gt;Node15</title>
<path fill="none" stroke="midnightblue" d="M657.652,-374.945C682.459,-370.446 719.11,-359.473 736.5,-333 760.173,-296.963 734.506,-244.781 718.061,-218.105"/>
<polygon fill="midnightblue" stroke="midnightblue" points="720.883,-216.023 712.528,-209.509 714.997,-219.812 720.883,-216.023"/>
</g>
<!-- Node24 -->
<g id="node24" class="node"><title>Node24</title>
<g id="a_node24"><a xlink:href="event__tree_8h.xhtml" target="_top" xlink:title="Event Tree facilities. ">
<polygon fill="white" stroke="black" points="651,-308 651,-327 728,-327 728,-308 651,-308"/>
<text text-anchor="middle" x="689.5" y="-315" font-family="Helvetica,sans-Serif" font-size="10.00">event_tree.h</text>
</a>
</g>
</g>
<!-- Node1&#45;&gt;Node24 -->
<g id="edge35" class="edge"><title>Node1&#45;&gt;Node24</title>
<path fill="none" stroke="midnightblue" d="M640.667,-369.475C649.386,-360.373 663.404,-345.741 674.189,-334.483"/>
<polygon fill="midnightblue" stroke="midnightblue" points="676.958,-336.651 681.348,-327.009 671.903,-331.809 676.958,-336.651"/>
</g>
<!-- Node26 -->
<g id="node26" class="node"><title>Node26</title>
<g id="a_node26"><a xlink:href="instruction_8h.xhtml" target="_top" xlink:title="Model and event tree modifier instructions. ">
<polygon fill="white" stroke="black" points="760.5,-246.5 760.5,-265.5 836.5,-265.5 836.5,-246.5 760.5,-246.5"/>
<text text-anchor="middle" x="798.5" y="-253.5" font-family="Helvetica,sans-Serif" font-size="10.00">instruction.h</text>
</a>
</g>
</g>
<!-- Node1&#45;&gt;Node26 -->
<g id="edge52" class="edge"><title>Node1&#45;&gt;Node26</title>
<path fill="none" stroke="midnightblue" d="M657.505,-376.326C688.015,-372.985 739.369,-362.977 770.5,-333 786.37,-317.718 793.302,-292.674 796.293,-275.542"/>
<polygon fill="midnightblue" stroke="midnightblue" points="799.762,-276.009 797.743,-265.608 792.835,-274.997 799.762,-276.009"/>
</g>
<!-- Node27 -->
<g id="node27" class="node"><title>Node27</title>
<g id="a_node27"><a xlink:href="parameter_8h.xhtml" target="_top" xlink:title="Parameter expressions that act like a shareable variable. ">
<polygon fill="white" stroke="black" points="903.5,-190.5 903.5,-209.5 979.5,-209.5 979.5,-190.5 903.5,-190.5"/>
<text text-anchor="middle" x="941.5" y="-197.5" font-family="Helvetica,sans-Serif" font-size="10.00">parameter.h</text>
</a>
</g>
</g>
<!-- Node1&#45;&gt;Node27 -->
<g id="edge53" class="edge"><title>Node1&#45;&gt;Node27</title>
<path fill="none" stroke="midnightblue" d="M657.721,-374.664C690.788,-369.495 749.831,-357.479 794.5,-333 851.2,-301.928 904.101,-245.047 928.056,-217.211"/>
<polygon fill="midnightblue" stroke="midnightblue" points="930.739,-219.458 934.533,-209.565 925.398,-214.933 930.739,-219.458"/>
</g>
<!-- Node8&#45;&gt;Node2 -->
<g id="edge9" class="edge"><title>Node8&#45;&gt;Node2</title>
<path fill="none" stroke="midnightblue" d="M1058.98,-77.2042C1035.3,-74.1494 1002.44,-70.0616 973.5,-67 769.478,-45.4172 523.629,-25.739 436.782,-18.9811"/>
<polygon fill="midnightblue" stroke="midnightblue" points="437,-15.4876 426.759,-18.2037 436.459,-22.4667 437,-15.4876"/>
</g>
<!-- Node8&#45;&gt;Node3 -->
<g id="edge10" class="edge"><title>Node8&#45;&gt;Node3</title>
<path fill="none" stroke="midnightblue" d="M1066.34,-72.9003C1059.33,-70.7352 1051.67,-68.5803 1044.5,-67 927.995,-41.3281 893.341,-63.3106 778.5,-31 776.346,-30.3941 774.151,-29.6746 771.967,-28.8852"/>
<polygon fill="midnightblue" stroke="midnightblue" points="773.216,-25.6152 762.634,-25.1109 770.592,-32.1047 773.216,-25.6152"/>
</g>
<!-- Node9 -->
<g id="node9" class="node"><title>Node9</title>
<polygon fill="white" stroke="#bfbfbf" points="1284,-6 1284,-25 1333,-25 1333,-6 1284,-6"/>
<text text-anchor="middle" x="1308.5" y="-13" font-family="Helvetica,sans-Serif" font-size="10.00">cstdint</text>
</g>
<!-- Node8&#45;&gt;Node9 -->
<g id="edge8" class="edge"><title>Node8&#45;&gt;Node9</title>
<path fill="none" stroke="midnightblue" d="M1124.3,-73.856C1161.24,-64.9241 1222.85,-49.0485 1274.5,-31 1276.36,-30.349 1278.27,-29.6453 1280.18,-28.9107"/>
<polygon fill="midnightblue" stroke="midnightblue" points="1281.66,-32.0861 1289.62,-25.0841 1279.03,-25.5993 1281.66,-32.0861"/>
</g>
<!-- Node10 -->
<g id="node10" class="node"><title>Node10</title>
<polygon fill="white" stroke="#bfbfbf" points="1093.5,-6 1093.5,-25 1265.5,-25 1265.5,-6 1093.5,-6"/>
<text text-anchor="middle" x="1179.5" y="-13" font-family="Helvetica,sans-Serif" font-size="10.00">boost/multi_index_container.hpp</text>
</g>
<!-- Node8&#45;&gt;Node10 -->
<g id="edge11" class="edge"><title>Node8&#45;&gt;Node10</title>
<path fill="none" stroke="midnightblue" d="M1103.37,-72.7338C1117.75,-62.1106 1142.2,-44.0485 1159.51,-31.2642"/>
<polygon fill="midnightblue" stroke="midnightblue" points="1161.86,-33.884 1167.82,-25.1273 1157.7,-28.2534 1161.86,-33.884"/>
</g>
<!-- Node11 -->
<g id="node11" class="node"><title>Node11</title>
<polygon fill="white" stroke="#bfbfbf" points="787.5,-0.5 787.5,-30.5 927.5,-30.5 927.5,-0.5 787.5,-0.5"/>
<text text-anchor="start" x="795.5" y="-18.5" font-family="Helvetica,sans-Serif" font-size="10.00">boost/multi_index/hashed</text>
<text text-anchor="middle" x="857.5" y="-7.5" font-family="Helvetica,sans-Serif" font-size="10.00">_index.hpp</text>
</g>
<!-- Node8&#45;&gt;Node11 -->
<g id="edge12" class="edge"><title>Node8&#45;&gt;Node11</title>
<path fill="none" stroke="midnightblue" d="M1064.21,-72.9017C1057.76,-70.9192 1050.9,-68.8503 1044.5,-67 1003.75,-55.216 957.757,-42.7839 921.581,-33.2035"/>
<polygon fill="midnightblue" stroke="midnightblue" points="922.212,-29.7503 911.65,-30.5799 920.424,-36.5181 922.212,-29.7503"/>
</g>
<!-- Node12 -->
<g id="node12" class="node"><title>Node12</title>
<polygon fill="white" stroke="#bfbfbf" points="945.5,-0.5 945.5,-30.5 1075.5,-30.5 1075.5,-0.5 945.5,-0.5"/>
<text text-anchor="start" x="953.5" y="-18.5" font-family="Helvetica,sans-Serif" font-size="10.00">boost/multi_index/mem</text>
<text text-anchor="middle" x="1010.5" y="-7.5" font-family="Helvetica,sans-Serif" font-size="10.00">_fun.hpp</text>
</g>
<!-- Node8&#45;&gt;Node12 -->
<g id="edge13" class="edge"><title>Node8&#45;&gt;Node12</title>
<path fill="none" stroke="midnightblue" d="M1080.58,-72.7338C1069.21,-63.6115 1051,-49.0038 1036,-36.9631"/>
<polygon fill="midnightblue" stroke="midnightblue" points="1038.05,-34.118 1028.06,-30.589 1033.67,-39.5775 1038.05,-34.118"/>
</g>
<!-- Node13&#45;&gt;Node2 -->
<g id="edge16" class="edge"><title>Node13&#45;&gt;Node2</title>
<path fill="none" stroke="midnightblue" d="M51.7462,-72.8523C57.4114,-70.687 63.6269,-68.544 69.5,-67 178.434,-38.3624 311.852,-24.3107 372.165,-19.048"/>
<polygon fill="midnightblue" stroke="midnightblue" points="372.55,-22.528 382.218,-18.1938 371.957,-15.5532 372.55,-22.528"/>
</g>
<!-- Node14 -->
<g id="node14" class="node"><title>Node14</title>
<polygon fill="white" stroke="#bfbfbf" points="0,-6 0,-25 63,-25 63,-6 0,-6"/>
<text text-anchor="middle" x="31.5" y="-13" font-family="Helvetica,sans-Serif" font-size="10.00">exception</text>
</g>
<!-- Node13&#45;&gt;Node14 -->
<g id="edge15" class="edge"><title>Node13&#45;&gt;Node14</title>
<path fill="none" stroke="midnightblue" d="M31.5,-72.7338C31.5,-63.1826 31.5,-47.6183 31.5,-35.2829"/>
<polygon fill="midnightblue" stroke="midnightblue" points="35.0001,-35.1273 31.5,-25.1273 28.0001,-35.1273 35.0001,-35.1273"/>
</g>
<!-- Node15&#45;&gt;Node2 -->
<g id="edge20" class="edge"><title>Node15&#45;&gt;Node2</title>
<path fill="none" stroke="midnightblue" d="M679.729,-199.34C640.592,-198.463 567.334,-191.454 520.5,-154 486.815,-127.062 505.691,-99.644 477.5,-67 464.404,-51.8357 445.781,-39.0487 430.623,-30.1358"/>
<polygon fill="midnightblue" stroke="midnightblue" points="432.141,-26.9734 421.713,-25.1002 428.697,-33.0675 432.141,-26.9734"/>
</g>
<!-- Node15&#45;&gt;Node3 -->
<g id="edge21" class="edge"><title>Node15&#45;&gt;Node3</title>
<path fill="none" stroke="midnightblue" d="M694.588,-190.477C666.344,-169.212 599.835,-112.269 629.5,-67 647.648,-39.3066 684.644,-26.7172 711.999,-21.0463"/>
<polygon fill="midnightblue" stroke="midnightblue" points="712.76,-24.4648 721.951,-19.1946 711.48,-17.5829 712.76,-24.4648"/>
</g>
<!-- Node15&#45;&gt;Node8 -->
<g id="edge24" class="edge"><title>Node15&#45;&gt;Node8</title>
<path fill="none" stroke="midnightblue" d="M723.176,-190.474C750.432,-176.838 806.502,-150.032 856.5,-134 922.212,-112.93 1001.09,-98.0086 1048.7,-90.0844"/>
<polygon fill="midnightblue" stroke="midnightblue" points="1049.36,-93.5237 1058.66,-88.4534 1048.22,-86.6158 1049.36,-93.5237"/>
</g>
<!-- Node15&#45;&gt;Node9 -->
<g id="edge18" class="edge"><title>Node15&#45;&gt;Node9</title>
<path fill="none" stroke="midnightblue" d="M733.075,-194.98C801.065,-184.212 986.274,-151.823 1132.5,-98 1161.67,-87.2631 1240.3,-49.6256 1281.88,-29.4713"/>
<polygon fill="midnightblue" stroke="midnightblue" points="1283.42,-32.617 1290.89,-25.1008 1280.36,-26.3199 1283.42,-32.617"/>
</g>
<!-- Node16 -->
<g id="node16" class="node"><title>Node16</title>
<polygon fill="white" stroke="#bfbfbf" points="866,-134.5 866,-153.5 923,-153.5 923,-134.5 866,-134.5"/>
<text text-anchor="middle" x="894.5" y="-141.5" font-family="Helvetica,sans-Serif" font-size="10.00">memory</text>
</g>
<!-- Node15&#45;&gt;Node16 -->
<g id="edge19" class="edge"><title>Node15&#45;&gt;Node16</title>
<path fill="none" stroke="midnightblue" d="M733.037,-191.378C765.141,-182.156 819.433,-166.562 856.102,-156.029"/>
<polygon fill="midnightblue" stroke="midnightblue" points="857.299,-159.327 865.944,-153.202 855.367,-152.599 857.299,-159.327"/>
</g>
<!-- Node17 -->
<g id="node17" class="node"><title>Node17</title>
<polygon fill="white" stroke="#bfbfbf" points="340.5,-73 340.5,-92 468.5,-92 468.5,-73 340.5,-73"/>
<text text-anchor="middle" x="404.5" y="-80" font-family="Helvetica,sans-Serif" font-size="10.00">boost/noncopyable.hpp</text>
</g>
<!-- Node15&#45;&gt;Node17 -->
<g id="edge22" class="edge"><title>Node15&#45;&gt;Node17</title>
<path fill="none" stroke="midnightblue" d="M679.844,-198.172C636.308,-195.858 548.215,-187.1 482.5,-154 456.124,-140.714 431.931,-116.061 417.698,-99.7165"/>
<polygon fill="midnightblue" stroke="midnightblue" points="420.331,-97.4102 411.204,-92.0307 414.984,-101.928 420.331,-97.4102"/>
</g>
<!-- Node18 -->
<g id="node18" class="node"><title>Node18</title>
<polygon fill="white" stroke="#bfbfbf" points="150,-134.5 150,-153.5 251,-153.5 251,-134.5 150,-134.5"/>
<text text-anchor="middle" x="200.5" y="-141.5" font-family="Helvetica,sans-Serif" font-size="10.00">boost/variant.hpp</text>
</g>
<!-- Node15&#45;&gt;Node18 -->
<g id="edge23" class="edge"><title>Node15&#45;&gt;Node18</title>
<path fill="none" stroke="midnightblue" d="M679.653,-196.135C601.293,-187.772 371.468,-163.246 261.065,-151.463"/>
<polygon fill="midnightblue" stroke="midnightblue" points="261.398,-147.979 251.083,-150.398 260.655,-154.94 261.398,-147.979"/>
</g>
<!-- Node19 -->
<g id="node19" class="node"><title>Node19</title>
<g id="a_node19"><a xlink:href="expression_8h.xhtml" target="_top" xlink:title="Provides the base class for all expressions and units for expression values. ">
<polygon fill="white" stroke="black" points="694,-134.5 694,-153.5 771,-153.5 771,-134.5 694,-134.5"/>
<text text-anchor="middle" x="732.5" y="-141.5" font-family="Helvetica,sans-Serif" font-size="10.00">expression.h</text>
</a>
</g>
</g>
<!-- Node15&#45;&gt;Node19 -->
<g id="edge25" class="edge"><title>Node15&#45;&gt;Node19</title>
<path fill="none" stroke="midnightblue" d="M710.793,-190.083C714.352,-182.691 719.522,-171.953 723.924,-162.811"/>
<polygon fill="midnightblue" stroke="midnightblue" points="727.102,-164.279 728.287,-153.751 720.795,-161.243 727.102,-164.279"/>
</g>
<!-- Node19&#45;&gt;Node2 -->
<g id="edge28" class="edge"><title>Node19&#45;&gt;Node2</title>
<path fill="none" stroke="midnightblue" d="M712.765,-134.434C679.231,-119.972 608.885,-90.0397 548.5,-67 510.195,-52.3849 465.579,-36.9855 436.281,-27.0908"/>
<polygon fill="midnightblue" stroke="midnightblue" points="437.186,-23.7025 426.592,-23.8308 434.953,-30.3371 437.186,-23.7025"/>
</g>
<!-- Node19&#45;&gt;Node3 -->
<g id="edge30" class="edge"><title>Node19&#45;&gt;Node3</title>
<path fill="none" stroke="midnightblue" d="M771.121,-136.435C838.391,-124.913 970.262,-101.898 973.5,-98 1062.63,9.31412 1075.09,-122.187 778.5,-31 776.571,-30.4069 774.604,-29.7331 772.64,-29.0084"/>
<polygon fill="midnightblue" stroke="midnightblue" points="773.606,-25.623 763.024,-25.098 770.969,-32.1074 773.606,-25.623"/>
</g>
<!-- Node19&#45;&gt;Node8 -->
<g id="edge33" class="edge"><title>Node19&#45;&gt;Node8</title>
<path fill="none" stroke="midnightblue" d="M771.082,-136.741C824.135,-128.116 922.583,-112.048 1006.5,-98 1020.27,-95.6955 1035.28,-93.1463 1048.81,-90.8363"/>
<polygon fill="midnightblue" stroke="midnightblue" points="1049.55,-94.2604 1058.81,-89.1245 1048.37,-87.3606 1049.55,-94.2604"/>
</g>
<!-- Node19&#45;&gt;Node13 -->
<g id="edge34" class="edge"><title>Node19&#45;&gt;Node13</title>
<path fill="none" stroke="midnightblue" d="M693.813,-139.716C569.814,-129.191 183.531,-96.4042 65.8638,-86.4168"/>
<polygon fill="midnightblue" stroke="midnightblue" points="65.9053,-82.9078 55.6451,-85.5494 65.3132,-89.8827 65.9053,-82.9078"/>
</g>
<!-- Node19&#45;&gt;Node17 -->
<g id="edge32" class="edge"><title>Node19&#45;&gt;Node17</title>
<path fill="none" stroke="midnightblue" d="M693.91,-136C636.406,-125.568 527.878,-105.881 461.299,-93.8035"/>
<polygon fill="midnightblue" stroke="midnightblue" points="461.854,-90.3472 451.39,-92.006 460.605,-97.2348 461.854,-90.3472"/>
</g>
<!-- Node20 -->
<g id="node20" class="node"><title>Node20</title>
<polygon fill="white" stroke="#bfbfbf" points="902.5,-73 902.5,-92 964.5,-92 964.5,-73 902.5,-73"/>
<text text-anchor="middle" x="933.5" y="-80" font-family="Helvetica,sans-Serif" font-size="10.00">algorithm</text>
</g>
<!-- Node19&#45;&gt;Node20 -->
<g id="edge26" class="edge"><title>Node19&#45;&gt;Node20</title>
<path fill="none" stroke="midnightblue" d="M765.709,-134.499C798.415,-125.945 849.694,-112.04 893.5,-98 896.05,-97.1828 898.68,-96.3062 901.316,-95.4036"/>
<polygon fill="midnightblue" stroke="midnightblue" points="902.487,-98.7019 910.757,-92.0796 900.162,-92.0992 902.487,-98.7019"/>
</g>
<!-- Node21 -->
<g id="node21" class="node"><title>Node21</title>
<polygon fill="white" stroke="#bfbfbf" points="638.5,-73 638.5,-92 694.5,-92 694.5,-73 638.5,-73"/>
<text text-anchor="middle" x="666.5" y="-80" font-family="Helvetica,sans-Serif" font-size="10.00">sstream</text>
</g>
<!-- Node19&#45;&gt;Node21 -->
<g id="edge27" class="edge"><title>Node19&#45;&gt;Node21</title>
<path fill="none" stroke="midnightblue" d="M723.044,-134.475C712.752,-125.197 696.084,-110.171 683.506,-98.831"/>
<polygon fill="midnightblue" stroke="midnightblue" points="685.71,-96.1054 675.939,-92.0091 681.022,-101.305 685.71,-96.1054"/>
</g>
<!-- Node22 -->
<g id="node22" class="node"><title>Node22</title>
<polygon fill="white" stroke="#bfbfbf" points="712.5,-73 712.5,-92 754.5,-92 754.5,-73 712.5,-73"/>
<text text-anchor="middle" x="733.5" y="-80" font-family="Helvetica,sans-Serif" font-size="10.00">utility</text>
</g>
<!-- Node19&#45;&gt;Node22 -->
<g id="edge29" class="edge"><title>Node19&#45;&gt;Node22</title>
<path fill="none" stroke="midnightblue" d="M732.643,-134.475C732.784,-126.08 733.005,-112.981 733.186,-102.163"/>
<polygon fill="midnightblue" stroke="midnightblue" points="736.688,-102.067 733.357,-92.0091 729.689,-101.949 736.688,-102.067"/>
</g>
<!-- Node23 -->
<g id="node23" class="node"><title>Node23</title>
<polygon fill="white" stroke="#bfbfbf" points="772.5,-67.5 772.5,-97.5 884.5,-97.5 884.5,-67.5 772.5,-67.5"/>
<text text-anchor="start" x="780.5" y="-85.5" font-family="Helvetica,sans-Serif" font-size="10.00">boost/icl/continuous</text>
<text text-anchor="middle" x="828.5" y="-74.5" font-family="Helvetica,sans-Serif" font-size="10.00">_interval.hpp</text>
</g>
<!-- Node19&#45;&gt;Node23 -->
<g id="edge31" class="edge"><title>Node19&#45;&gt;Node23</title>
<path fill="none" stroke="midnightblue" d="M746.254,-134.475C759.499,-126.266 780.003,-113.558 797.224,-102.885"/>
<polygon fill="midnightblue" stroke="midnightblue" points="799.219,-105.766 805.875,-97.523 795.531,-99.8162 799.219,-105.766"/>
</g>
<!-- Node24&#45;&gt;Node2 -->
<g id="edge37" class="edge"><title>Node24&#45;&gt;Node2</title>
<path fill="none" stroke="midnightblue" d="M664.845,-307.91C657.424,-305.637 649.205,-303.422 641.5,-302 586.617,-291.868 183.929,-301.053 140.5,-266 117.079,-247.096 121.5,-231.098 121.5,-201 121.5,-201 121.5,-201 121.5,-143 121.5,-34.256 297.81,-18.3666 372.105,-16.4983"/>
<polygon fill="midnightblue" stroke="midnightblue" points="372.358,-19.9945 382.293,-16.3151 372.232,-12.9956 372.358,-19.9945"/>
</g>
<!-- Node24&#45;&gt;Node3 -->
<g id="edge38" class="edge"><title>Node24&#45;&gt;Node3</title>
<path fill="none" stroke="midnightblue" d="M661.317,-307.997C619.355,-295.252 544.122,-272.043 532.5,-266 420.968,-208.005 248.165,-161.118 331.5,-67 356.632,-38.6165 617.716,-22.8756 711.877,-18.0877"/>
<polygon fill="midnightblue" stroke="midnightblue" points="712.183,-21.5769 721.997,-17.5829 711.835,-14.5856 712.183,-21.5769"/>
</g>
<!-- Node24&#45;&gt;Node8 -->
<g id="edge41" class="edge"><title>Node24&#45;&gt;Node8</title>
<path fill="none" stroke="midnightblue" d="M728.049,-310.747C792.173,-299.756 922.847,-271.205 1015.5,-210 1044.35,-190.943 1051.88,-183.747 1069.5,-154 1079.08,-137.826 1084.91,-117.052 1088.13,-102.253"/>
<polygon fill="midnightblue" stroke="midnightblue" points="1091.6,-102.767 1090.11,-92.2765 1084.73,-101.404 1091.6,-102.767"/>
</g>
<!-- Node24&#45;&gt;Node16 -->
<g id="edge36" class="edge"><title>Node24&#45;&gt;Node16</title>
<path fill="none" stroke="midnightblue" d="M728.104,-313.159C762.826,-308.234 813.201,-296.062 845.5,-266 875.126,-238.426 887.263,-190.444 891.895,-163.943"/>
<polygon fill="midnightblue" stroke="midnightblue" points="895.405,-164.145 893.49,-153.724 888.489,-163.065 895.405,-164.145"/>
</g>
<!-- Node24&#45;&gt;Node17 -->
<g id="edge39" class="edge"><title>Node24&#45;&gt;Node17</title>
<path fill="none" stroke="midnightblue" d="M664.394,-307.915C612.238,-288.789 491.688,-237.655 427.5,-154 415.884,-138.861 410.009,-117.619 407.121,-102.417"/>
<polygon fill="midnightblue" stroke="midnightblue" points="410.513,-101.475 405.449,-92.1694 403.605,-102.602 410.513,-101.475"/>
</g>
<!-- Node24&#45;&gt;Node18 -->
<g id="edge40" class="edge"><title>Node24&#45;&gt;Node18</title>
<path fill="none" stroke="midnightblue" d="M664.324,-307.892C657.033,-305.674 649.014,-303.494 641.5,-302 562.21,-286.237 348.598,-307.962 279.5,-266 240.314,-242.203 216.817,-190.723 206.578,-163.209"/>
<polygon fill="midnightblue" stroke="midnightblue" points="209.829,-161.901 203.196,-153.639 203.229,-164.234 209.829,-161.901"/>
</g>
<!-- Node25 -->
<g id="node25" class="node"><title>Node25</title>
<g id="a_node25"><a xlink:href="variant_8h.xhtml" target="_top" xlink:title="Extra helper functions for boost::variant. ">
<polygon fill="white" stroke="black" points="150,-246.5 150,-265.5 227,-265.5 227,-246.5 150,-246.5"/>
<text text-anchor="middle" x="188.5" y="-253.5" font-family="Helvetica,sans-Serif" font-size="10.00">ext/variant.h</text>
</a>
</g>
</g>
<!-- Node24&#45;&gt;Node25 -->
<g id="edge42" class="edge"><title>Node24&#45;&gt;Node25</title>
<path fill="none" stroke="midnightblue" d="M664.829,-307.998C657.407,-305.727 649.191,-303.492 641.5,-302 466.269,-268.016 418.514,-288.959 241.5,-266 240.198,-265.831 238.88,-265.654 237.55,-265.469"/>
<polygon fill="midnightblue" stroke="midnightblue" points="237.64,-261.944 227.235,-263.938 236.612,-268.868 237.64,-261.944"/>
</g>
<!-- Node24&#45;&gt;Node26 -->
<g id="edge44" class="edge"><title>Node24&#45;&gt;Node26</title>
<path fill="none" stroke="midnightblue" d="M705.117,-307.975C723.086,-298.166 752.821,-281.935 773.906,-270.425"/>
<polygon fill="midnightblue" stroke="midnightblue" points="775.811,-273.373 782.912,-265.509 772.458,-267.228 775.811,-273.373"/>
</g>
<!-- Node25&#45;&gt;Node18 -->
<g id="edge43" class="edge"><title>Node25&#45;&gt;Node18</title>
<path fill="none" stroke="midnightblue" d="M189.442,-246.368C191.378,-228.617 195.845,-187.666 198.471,-163.597"/>
<polygon fill="midnightblue" stroke="midnightblue" points="201.958,-163.912 199.563,-153.591 194.999,-163.153 201.958,-163.912"/>
</g>
<!-- Node26&#45;&gt;Node2 -->
<g id="edge46" class="edge"><title>Node26&#45;&gt;Node2</title>
<path fill="none" stroke="midnightblue" d="M760.42,-253.724C704.614,-250.812 598.071,-241.267 513.5,-210 424.415,-177.064 377.831,-180.912 331.5,-98 324.779,-85.9726 325.103,-79.2029 331.5,-67 340.328,-50.1583 357.605,-37.8197 373.136,-29.5559"/>
<polygon fill="midnightblue" stroke="midnightblue" points="375.075,-32.5018 382.489,-24.9333 371.973,-26.2264 375.075,-32.5018"/>
</g>
<!-- Node26&#45;&gt;Node3 -->
<g id="edge47" class="edge"><title>Node26&#45;&gt;Node3</title>
<path fill="none" stroke="midnightblue" d="M800.013,-246.421C804.4,-224.178 819.269,-164.279 856.5,-134 908.35,-91.8318 961.286,-150.611 1002.5,-98 1011,-87.154 1011.44,-77.4869 1002.5,-67 969.801,-28.6258 826.859,-45.256 778.5,-31 776.354,-30.3674 774.164,-29.6287 771.984,-28.8259"/>
<polygon fill="midnightblue" stroke="midnightblue" points="773.24,-25.5582 762.658,-25.026 770.598,-32.0407 773.24,-25.5582"/>
</g>
<!-- Node26&#45;&gt;Node8 -->
<g id="edge49" class="edge"><title>Node26&#45;&gt;Node8</title>
<path fill="none" stroke="midnightblue" d="M836.599,-253.151C877.064,-249.631 941.541,-239.441 988.5,-210 1032.74,-182.265 1066.68,-128.872 1082.21,-101.159"/>
<polygon fill="midnightblue" stroke="midnightblue" points="1085.38,-102.663 1087.08,-92.2067 1079.23,-99.3158 1085.38,-102.663"/>
</g>
<!-- Node26&#45;&gt;Node15 -->
<g id="edge50" class="edge"><title>Node26&#45;&gt;Node15</title>
<path fill="none" stroke="midnightblue" d="M783.719,-246.324C769.233,-237.822 746.927,-224.729 730.007,-214.797"/>
<polygon fill="midnightblue" stroke="midnightblue" points="731.641,-211.698 721.245,-209.655 728.097,-217.735 731.641,-211.698"/>
</g>
<!-- Node26&#45;&gt;Node16 -->
<g id="edge45" class="edge"><title>Node26&#45;&gt;Node16</title>
<path fill="none" stroke="midnightblue" d="M806.033,-246.368C822.016,-228.055 859.548,-185.049 880.22,-161.362"/>
<polygon fill="midnightblue" stroke="midnightblue" points="883.064,-163.427 887.002,-153.591 877.79,-158.824 883.064,-163.427"/>
</g>
<!-- Node26&#45;&gt;Node17 -->
<g id="edge48" class="edge"><title>Node26&#45;&gt;Node17</title>
<path fill="none" stroke="midnightblue" d="M760.457,-252.534C692.099,-246.377 546.673,-225.243 450.5,-154 432.389,-140.584 419.405,-117.747 411.944,-101.709"/>
<polygon fill="midnightblue" stroke="midnightblue" points="415.051,-100.08 407.839,-92.3184 408.637,-102.883 415.051,-100.08"/>
</g>
<!-- Node26&#45;&gt;Node19 -->
<g id="edge51" class="edge"><title>Node26&#45;&gt;Node19</title>
<path fill="none" stroke="midnightblue" d="M793.321,-246.368C782.477,-228.296 757.206,-186.176 742.884,-162.307"/>
<polygon fill="midnightblue" stroke="midnightblue" points="745.801,-160.366 737.655,-153.591 739.799,-163.967 745.801,-160.366"/>
</g>
<!-- Node27&#45;&gt;Node2 -->
<g id="edge56" class="edge"><title>Node27&#45;&gt;Node2</title>
<path fill="none" stroke="midnightblue" d="M903.462,-194.96C852.778,-188.986 760.639,-176.057 684.5,-154 621.713,-135.811 606.42,-128.303 548.5,-98 525.998,-86.2273 522.426,-79.8132 500.5,-67 477.55,-53.5883 450.722,-39.6136 431.271,-29.7741"/>
<polygon fill="midnightblue" stroke="midnightblue" points="432.604,-26.5272 422.097,-25.1637 429.461,-32.7817 432.604,-26.5272"/>
</g>
<!-- Node27&#45;&gt;Node8 -->
<g id="edge57" class="edge"><title>Node27&#45;&gt;Node8</title>
<path fill="none" stroke="midnightblue" d="M950.411,-190.094C963.625,-177.091 989.451,-152.452 1013.5,-134 1031.05,-120.537 1052.17,-107.011 1068.01,-97.3504"/>
<polygon fill="midnightblue" stroke="midnightblue" points="1069.89,-100.299 1076.65,-92.1387 1066.28,-94.3035 1069.89,-100.299"/>
</g>
<!-- Node27&#45;&gt;Node9 -->
<g id="edge54" class="edge"><title>Node27&#45;&gt;Node9</title>
<path fill="none" stroke="midnightblue" d="M972.394,-190.419C1022.94,-175.674 1125.57,-142.741 1204.5,-98 1238.03,-78.996 1272.34,-49.8356 1291.97,-32.0335"/>
<polygon fill="midnightblue" stroke="midnightblue" points="1294.45,-34.5088 1299.43,-25.1621 1289.71,-29.3576 1294.45,-34.5088"/>
</g>
<!-- Node27&#45;&gt;Node16 -->
<g id="edge55" class="edge"><title>Node27&#45;&gt;Node16</title>
<path fill="none" stroke="midnightblue" d="M933.739,-190.083C926.963,-182.298 916.957,-170.801 908.745,-161.367"/>
<polygon fill="midnightblue" stroke="midnightblue" points="911.322,-158.996 902.117,-153.751 906.042,-163.592 911.322,-158.996"/>
</g>
<!-- Node27&#45;&gt;Node19 -->
<g id="edge58" class="edge"><title>Node27&#45;&gt;Node19</title>
<path fill="none" stroke="midnightblue" d="M908.383,-190.444C872.382,-181.142 814.73,-166.246 775.314,-156.062"/>
<polygon fill="midnightblue" stroke="midnightblue" points="776.019,-152.629 765.462,-153.516 774.268,-159.407 776.019,-152.629"/>
</g>
</g>
</svg>
