<?xml version="1.0" encoding="UTF-8" standalone="no"?>
<!DOCTYPE svg PUBLIC "-//W3C//DTD SVG 1.1//EN"
 "http://www.w3.org/Graphics/SVG/1.1/DTD/svg11.dtd">
<!-- Generated by graphviz version 2.38.0 (20140413.2041)
 -->
<!-- Title: event.h Pages: 1 -->
<!--zoomable 364 -->
<svg id="main" version="1.1" xmlns="http://www.w3.org/2000/svg" xmlns:xlink="http://www.w3.org/1999/xlink" xml:space="preserve" onload="init(evt)">
<style type="text/css"><![CDATA[
.edge:hover path { stroke: red; }
.edge:hover polygon { stroke: red; fill: red; }
]]></style>
<script type="text/javascript"><![CDATA[
var edges = document.getElementsByTagName('g');
if (edges && edges.length) {
  for (var i=0;i<edges.length;i++) {
    if (edges[i].id.substr(0,4)=='edge') {
      edges[i].setAttribute('class','edge');
    }
  }
}
]]></script>
        <defs>
                <circle id="rim" cx="0" cy="0" r="7"/>
                <circle id="rim2" cx="0" cy="0" r="3.5"/>
                <g id="zoomPlus">
                        <use xlink:href="#rim" fill="#404040">
                                <set attributeName="fill" to="#808080" begin="zoomplus.mouseover" end="zoomplus.mouseout"/>
                        </use>
                        <path d="M-4,0h8M0,-4v8" fill="none" stroke="white" stroke-width="1.5" pointer-events="none"/>
                </g>
                <g id="zoomMin">
                        <use xlink:href="#rim" fill="#404040">
                                <set attributeName="fill" to="#808080" begin="zoomminus.mouseover" end="zoomminus.mouseout"/>
                        </use>
                        <path d="M-4,0h8" fill="none" stroke="white" stroke-width="1.5" pointer-events="none"/>
                </g>
                <g id="dirArrow">
                        <path fill="none" stroke="white" stroke-width="1.5" d="M0,-3.0v7 M-2.5,-0.5L0,-3.0L2.5,-0.5"/>
                </g>
               <g id="resetDef">
                       <use xlink:href="#rim2" fill="#404040">
                               <set attributeName="fill" to="#808080" begin="reset.mouseover" end="reset.mouseout"/>
                       </use>
               </g>
        </defs>

<script type="text/javascript">
var viewWidth = 1747;
var viewHeight = 364;
var sectionId = 'dynsection-1';
</script>
<script xlink:href="svgpan.js"/>
<svg id="graph" class="graph">
<g id="viewport">
<title>event.h</title>
<polygon fill="white" stroke="none" points="-4,4 -4,-360 1743,-360 1743,4 -4,4"/>
<!-- Node1 -->
<g id="node1" class="node"><title>Node1</title>
<polygon fill="#bfbfbf" stroke="black" points="919.5,-336.5 919.5,-355.5 972.5,-355.5 972.5,-336.5 919.5,-336.5"/>
<text text-anchor="middle" x="946" y="-343.5" font-family="Helvetica,sans-Serif" font-size="10.00">event.h</text>
</g>
<!-- Node2 -->
<g id="node2" class="node"><title>Node2</title>
<g id="a_node2"><a xlink:href="instruction_8h.xhtml" target="_top" xlink:title="Model and event tree modifier instructions. ">
<polygon fill="white" stroke="black" points="432,-280.5 432,-299.5 508,-299.5 508,-280.5 432,-280.5"/>
<text text-anchor="middle" x="470" y="-287.5" font-family="Helvetica,sans-Serif" font-size="10.00">instruction.h</text>
</a>
</g>
</g>
<!-- Node1&#45;&gt;Node2 -->
<g id="edge1" class="edge"><title>Node1&#45;&gt;Node2</title>
<path fill="none" stroke="midnightblue" d="M909.322,-340.839C821.139,-330.835 597.924,-305.512 508.205,-295.334"/>
<polygon fill="midnightblue" stroke="midnightblue" points="909.057,-344.331 919.388,-341.981 909.847,-337.376 909.057,-344.331"/>
</g>
<!-- Node5 -->
<g id="node5" class="node"><title>Node5</title>
<g id="a_node5"><a xlink:href="model_8h.xhtml" target="_top" xlink:title="Representation for a model container for risk analysis. ">
<polygon fill="white" stroke="black" points="708,-168.5 708,-187.5 764,-187.5 764,-168.5 708,-168.5"/>
<text text-anchor="middle" x="736" y="-175.5" font-family="Helvetica,sans-Serif" font-size="10.00">model.h</text>
</a>
</g>
</g>
<!-- Node1&#45;&gt;Node5 -->
<g id="edge52" class="edge"><title>Node1&#45;&gt;Node5</title>
<path fill="none" stroke="midnightblue" d="M909.299,-340.383C877.51,-334.941 831.493,-323.47 798,-300 757.986,-271.96 742.145,-210.153 737.547,-187.52"/>
<polygon fill="midnightblue" stroke="midnightblue" points="909.07,-343.891 919.496,-342.006 910.17,-336.978 909.07,-343.891"/>
</g>
<!-- Node6 -->
<g id="node6" class="node"><title>Node6</title>
<g id="a_node6"><a xlink:href="initializer_8h.xhtml" target="_top" xlink:title="A facility that processes input files into analysis constructs. ">
<polygon fill="white" stroke="black" points="487.5,-112.5 487.5,-131.5 554.5,-131.5 554.5,-112.5 487.5,-112.5"/>
<text text-anchor="middle" x="521" y="-119.5" font-family="Helvetica,sans-Serif" font-size="10.00">initializer.h</text>
</a>
</g>
</g>
<!-- Node1&#45;&gt;Node6 -->
<g id="edge51" class="edge"><title>Node1&#45;&gt;Node6</title>
<path fill="none" stroke="midnightblue" d="M909.141,-344.32C762.531,-340.715 224.362,-318.634 135,-188 94.2809,-128.475 386.422,-122.973 487.465,-122.831"/>
<polygon fill="midnightblue" stroke="midnightblue" points="909.321,-347.825 919.399,-344.557 909.483,-340.827 909.321,-347.825"/>
</g>
<!-- Node10 -->
<g id="node10" class="node"><title>Node10</title>
<g id="a_node10"><a xlink:href="reporter_8h.xhtml" target="_top" xlink:title="Reporter of results. ">
<polygon fill="white" stroke="black" points="779,-56.5 779,-75.5 843,-75.5 843,-56.5 779,-56.5"/>
<text text-anchor="middle" x="811" y="-63.5" font-family="Helvetica,sans-Serif" font-size="10.00">reporter.h</text>
</a>
</g>
</g>
<!-- Node1&#45;&gt;Node10 -->
<g id="edge55" class="edge"><title>Node1&#45;&gt;Node10</title>
<path fill="none" stroke="midnightblue" d="M952.995,-326.584C964.814,-292.073 984.369,-216.76 951,-168 932.568,-141.067 913.75,-150.695 887,-132 861.099,-113.899 833.613,-88.6823 819.887,-75.6163"/>
<polygon fill="midnightblue" stroke="midnightblue" points="949.602,-325.676 949.506,-336.27 956.188,-328.048 949.602,-325.676"/>
</g>
<!-- Node12 -->
<g id="node12" class="node"><title>Node12</title>
<g id="a_node12"><a xlink:href="risk__analysis_8h.xhtml" target="_top" xlink:title="Contains the main system for performing analysis. ">
<polygon fill="white" stroke="black" points="600,-112.5 600,-131.5 686,-131.5 686,-112.5 600,-112.5"/>
<text text-anchor="middle" x="643" y="-119.5" font-family="Helvetica,sans-Serif" font-size="10.00">risk_analysis.h</text>
</a>
</g>
</g>
<!-- Node1&#45;&gt;Node12 -->
<g id="edge56" class="edge"><title>Node1&#45;&gt;Node12</title>
<path fill="none" stroke="midnightblue" d="M908.965,-342.45C872,-338.357 814.953,-327.704 774,-300 705.92,-253.945 659.794,-160.403 646.765,-131.622"/>
<polygon fill="midnightblue" stroke="midnightblue" points="908.992,-345.97 919.29,-343.481 909.687,-339.005 908.992,-345.97"/>
</g>
<!-- Node15 -->
<g id="node15" class="node"><title>Node15</title>
<g id="a_node15"><a xlink:href="serialization_8cc.xhtml" target="_top" xlink:title="serialization.cc">
<polygon fill="white" stroke="black" points="964.5,-56.5 964.5,-75.5 1051.5,-75.5 1051.5,-56.5 964.5,-56.5"/>
<text text-anchor="middle" x="1008" y="-63.5" font-family="Helvetica,sans-Serif" font-size="10.00">serialization.cc</text>
</a>
</g>
</g>
<!-- Node1&#45;&gt;Node15 -->
<g id="edge57" class="edge"><title>Node1&#45;&gt;Node15</title>
<path fill="none" stroke="midnightblue" d="M964.417,-329.151C972.388,-321.23 981.017,-310.996 986,-300 1022.56,-219.322 1012.81,-107.087 1009.11,-75.5445"/>
<polygon fill="midnightblue" stroke="midnightblue" points="961.743,-326.86 956.826,-336.244 966.522,-331.975 961.743,-326.86"/>
</g>
<!-- Node17 -->
<g id="node17" class="node"><title>Node17</title>
<g id="a_node17"><a xlink:href="cycle_8h.xhtml" target="_top" xlink:title="Validation facilities to detect and print cycles in graphs. ">
<polygon fill="white" stroke="black" points="0,-168.5 0,-187.5 50,-187.5 50,-168.5 0,-168.5"/>
<text text-anchor="middle" x="25" y="-175.5" font-family="Helvetica,sans-Serif" font-size="10.00">cycle.h</text>
</a>
</g>
</g>
<!-- Node1&#45;&gt;Node17 -->
<g id="edge45" class="edge"><title>Node1&#45;&gt;Node17</title>
<path fill="none" stroke="midnightblue" d="M909.301,-345.423C817.279,-345.779 569.719,-342.368 369,-300 240.776,-272.934 94.9987,-210.526 43.8912,-187.627"/>
<polygon fill="midnightblue" stroke="midnightblue" points="909.507,-348.922 919.487,-345.366 909.467,-341.923 909.507,-348.922"/>
</g>
<!-- Node19 -->
<g id="node19" class="node"><title>Node19</title>
<g id="a_node19"><a xlink:href="event__tree__analysis_8h.xhtml" target="_top" xlink:title="Event tree analysis facilities. ">
<polygon fill="white" stroke="black" points="144.5,-168.5 144.5,-187.5 265.5,-187.5 265.5,-168.5 144.5,-168.5"/>
<text text-anchor="middle" x="205" y="-175.5" font-family="Helvetica,sans-Serif" font-size="10.00">event_tree_analysis.h</text>
</a>
</g>
</g>
<!-- Node1&#45;&gt;Node19 -->
<g id="edge47" class="edge"><title>Node1&#45;&gt;Node19</title>
<path fill="none" stroke="midnightblue" d="M909.005,-343.625C805.526,-339.493 514.707,-325.849 423,-300 336.341,-275.574 246.589,-210.961 215.978,-187.59"/>
<polygon fill="midnightblue" stroke="midnightblue" points="909.141,-347.133 919.27,-344.028 909.415,-340.138 909.141,-347.133"/>
</g>
<!-- Node21 -->
<g id="node21" class="node"><title>Node21</title>
<g id="a_node21"><a xlink:href="ccf__group_8h.xhtml" target="_top" xlink:title="Functional containers for basic events grouped by common cause failure. ">
<polygon fill="white" stroke="black" points="807,-280.5 807,-299.5 879,-299.5 879,-280.5 807,-280.5"/>
<text text-anchor="middle" x="843" y="-287.5" font-family="Helvetica,sans-Serif" font-size="10.00">ccf_group.h</text>
</a>
</g>
</g>
<!-- Node1&#45;&gt;Node21 -->
<g id="edge34" class="edge"><title>Node1&#45;&gt;Node21</title>
<path fill="none" stroke="midnightblue" d="M920.421,-331.59C901.377,-321.605 875.936,-308.267 859.508,-299.655"/>
<polygon fill="midnightblue" stroke="midnightblue" points="918.969,-334.78 929.451,-336.324 922.22,-328.581 918.969,-334.78"/>
</g>
<!-- Node23 -->
<g id="node23" class="node"><title>Node23</title>
<g id="a_node23"><a xlink:href="fault__tree_8h.xhtml" target="_top" xlink:title="Fault Tree and Component containers. ">
<polygon fill="white" stroke="black" points="879.5,-224.5 879.5,-243.5 950.5,-243.5 950.5,-224.5 879.5,-224.5"/>
<text text-anchor="middle" x="915" y="-231.5" font-family="Helvetica,sans-Serif" font-size="10.00">fault_tree.h</text>
</a>
</g>
</g>
<!-- Node1&#45;&gt;Node23 -->
<g id="edge48" class="edge"><title>Node1&#45;&gt;Node23</title>
<path fill="none" stroke="midnightblue" d="M940.835,-326.674C934.058,-302.625 922.437,-261.388 917.421,-243.591"/>
<polygon fill="midnightblue" stroke="midnightblue" points="937.486,-327.693 943.567,-336.368 944.224,-325.794 937.486,-327.693"/>
</g>
<!-- Node25 -->
<g id="node25" class="node"><title>Node25</title>
<g id="a_node25"><a xlink:href="event_8cc.xhtml" target="_top" xlink:title="Implementation of Event Class and its derived classes. ">
<polygon fill="white" stroke="black" points="1038.5,-280.5 1038.5,-299.5 1095.5,-299.5 1095.5,-280.5 1038.5,-280.5"/>
<text text-anchor="middle" x="1067" y="-287.5" font-family="Helvetica,sans-Serif" font-size="10.00">event.cc</text>
</a>
</g>
</g>
<!-- Node1&#45;&gt;Node25 -->
<g id="edge46" class="edge"><title>Node1&#45;&gt;Node25</title>
<path fill="none" stroke="midnightblue" d="M974.306,-332.368C996.965,-322.255 1028.13,-308.349 1047.92,-299.516"/>
<polygon fill="midnightblue" stroke="midnightblue" points="972.878,-329.172 965.173,-336.444 975.731,-335.564 972.878,-329.172"/>
</g>
<!-- Node26 -->
<g id="node26" class="node"><title>Node26</title>
<g id="a_node26"><a xlink:href="fault__tree__analysis_8cc.xhtml" target="_top" xlink:title="Implementation of fault tree analysis. ">
<polygon fill="white" stroke="black" points="1113.5,-280.5 1113.5,-299.5 1232.5,-299.5 1232.5,-280.5 1113.5,-280.5"/>
<text text-anchor="middle" x="1173" y="-287.5" font-family="Helvetica,sans-Serif" font-size="10.00">fault_tree_analysis.cc</text>
</a>
</g>
</g>
<!-- Node1&#45;&gt;Node26 -->
<g id="edge49" class="edge"><title>Node1&#45;&gt;Node26</title>
<path fill="none" stroke="midnightblue" d="M982.882,-336.226C1025.46,-326.098 1095.01,-309.552 1137.15,-299.529"/>
<polygon fill="midnightblue" stroke="midnightblue" points="981.85,-332.874 972.931,-338.593 983.47,-339.684 981.85,-332.874"/>
</g>
<!-- Node27 -->
<g id="node27" class="node"><title>Node27</title>
<g id="a_node27"><a xlink:href="importance__analysis_8cc.xhtml" target="_top" xlink:title="Implementations of functions to provide quantitative importance informations. ">
<polygon fill="white" stroke="black" points="1251,-280.5 1251,-299.5 1379,-299.5 1379,-280.5 1251,-280.5"/>
<text text-anchor="middle" x="1315" y="-287.5" font-family="Helvetica,sans-Serif" font-size="10.00">importance_analysis.cc</text>
</a>
</g>
</g>
<!-- Node1&#45;&gt;Node27 -->
<g id="edge50" class="edge"><title>Node1&#45;&gt;Node27</title>
<path fill="none" stroke="midnightblue" d="M982.582,-339.647C1046.7,-330.264 1179.84,-310.78 1256.75,-299.525"/>
<polygon fill="midnightblue" stroke="midnightblue" points="981.925,-336.205 972.538,-341.116 982.939,-343.131 981.925,-336.205"/>
</g>
<!-- Node28 -->
<g id="node28" class="node"><title>Node28</title>
<g id="a_node28"><a xlink:href="pdag_8cc.xhtml" target="_top" xlink:title="Implementation of a Propositional Directed Acyclic Graph with indexed nodes, variables, and gates. ">
<polygon fill="white" stroke="black" points="1397,-280.5 1397,-299.5 1451,-299.5 1451,-280.5 1397,-280.5"/>
<text text-anchor="middle" x="1424" y="-287.5" font-family="Helvetica,sans-Serif" font-size="10.00">pdag.cc</text>
</a>
</g>
</g>
<!-- Node1&#45;&gt;Node28 -->
<g id="edge53" class="edge"><title>Node1&#45;&gt;Node28</title>
<path fill="none" stroke="midnightblue" d="M982.605,-343.055C1058.61,-338.627 1238.88,-326.092 1388,-300 1390.92,-299.489 1393.95,-298.871 1396.96,-298.202"/>
<polygon fill="midnightblue" stroke="midnightblue" points="982.371,-339.563 972.586,-343.627 982.769,-346.551 982.371,-339.563"/>
</g>
<!-- Node29 -->
<g id="node29" class="node"><title>Node29</title>
<g id="a_node29"><a xlink:href="probability__analysis_8cc.xhtml" target="_top" xlink:title="Implementations of functions to provide probability analysis. ">
<polygon fill="white" stroke="black" points="1469.5,-280.5 1469.5,-299.5 1592.5,-299.5 1592.5,-280.5 1469.5,-280.5"/>
<text text-anchor="middle" x="1531" y="-287.5" font-family="Helvetica,sans-Serif" font-size="10.00">probability_analysis.cc</text>
</a>
</g>
</g>
<!-- Node1&#45;&gt;Node29 -->
<g id="edge54" class="edge"><title>Node1&#45;&gt;Node29</title>
<path fill="none" stroke="midnightblue" d="M982.609,-342.285C1066.92,-335.925 1281.27,-319.145 1460,-300 1463.09,-299.669 1466.25,-299.317 1469.44,-298.951"/>
<polygon fill="midnightblue" stroke="midnightblue" points="982.227,-338.804 972.517,-343.043 982.751,-345.784 982.227,-338.804"/>
</g>
<!-- Node30 -->
<g id="node30" class="node"><title>Node30</title>
<g id="a_node30"><a xlink:href="uncertainty__analysis_8cc.xhtml" target="_top" xlink:title="Implements the functionality to run Monte Carlo simulations. ">
<polygon fill="white" stroke="black" points="1611,-280.5 1611,-299.5 1739,-299.5 1739,-280.5 1611,-280.5"/>
<text text-anchor="middle" x="1675" y="-287.5" font-family="Helvetica,sans-Serif" font-size="10.00">uncertainty_analysis.cc</text>
</a>
</g>
</g>
<!-- Node1&#45;&gt;Node30 -->
<g id="edge58" class="edge"><title>Node1&#45;&gt;Node30</title>
<path fill="none" stroke="midnightblue" d="M982.757,-343.179C1082.5,-338.085 1366.55,-322.573 1602,-300 1604.92,-299.72 1607.91,-299.417 1610.93,-299.099"/>
<polygon fill="midnightblue" stroke="midnightblue" points="982.41,-339.692 972.6,-343.694 982.764,-346.683 982.41,-339.692"/>
</g>
<!-- Node3 -->
<g id="node3" class="node"><title>Node3</title>
<g id="a_node3"><a xlink:href="alignment_8h.xhtml" target="_top" xlink:title="Mission and phase constructs. ">
<polygon fill="white" stroke="black" points="500,-224.5 500,-243.5 574,-243.5 574,-224.5 500,-224.5"/>
<text text-anchor="middle" x="537" y="-231.5" font-family="Helvetica,sans-Serif" font-size="10.00">alignment.h</text>
</a>
</g>
</g>
<!-- Node2&#45;&gt;Node3 -->
<g id="edge2" class="edge"><title>Node2&#45;&gt;Node3</title>
<path fill="none" stroke="midnightblue" d="M488.835,-273.82C500.838,-264.145 515.972,-251.948 526.039,-243.834"/>
<polygon fill="midnightblue" stroke="midnightblue" points="486.354,-271.324 480.765,-280.324 490.747,-276.774 486.354,-271.324"/>
</g>
<!-- Node2&#45;&gt;Node5 -->
<g id="edge33" class="edge"><title>Node2&#45;&gt;Node5</title>
<path fill="none" stroke="midnightblue" d="M501.618,-276.631C524.319,-267.696 555.613,-255.269 583,-244 631.04,-224.233 687.165,-200.128 716.255,-187.558"/>
<polygon fill="midnightblue" stroke="midnightblue" points="500.173,-273.438 492.146,-280.353 502.733,-279.954 500.173,-273.438"/>
</g>
<!-- Node2&#45;&gt;Node6 -->
<g id="edge32" class="edge"><title>Node2&#45;&gt;Node6</title>
<path fill="none" stroke="midnightblue" d="M470.295,-270.417C471.261,-246.041 475.007,-202.34 489,-168 494.716,-153.973 505.566,-140.119 513.035,-131.568"/>
<polygon fill="midnightblue" stroke="midnightblue" points="466.796,-270.336 470.016,-280.43 473.794,-270.531 466.796,-270.336"/>
</g>
<!-- Node16 -->
<g id="node16" class="node"><title>Node16</title>
<g id="a_node16"><a xlink:href="event__tree_8h.xhtml" target="_top" xlink:title="Event Tree facilities. ">
<polygon fill="white" stroke="black" points="320.5,-224.5 320.5,-243.5 397.5,-243.5 397.5,-224.5 320.5,-224.5"/>
<text text-anchor="middle" x="359" y="-231.5" font-family="Helvetica,sans-Serif" font-size="10.00">event_tree.h</text>
</a>
</g>
</g>
<!-- Node2&#45;&gt;Node16 -->
<g id="edge21" class="edge"><title>Node2&#45;&gt;Node16</title>
<path fill="none" stroke="midnightblue" d="M442.995,-275.862C422.412,-265.849 394.655,-252.346 376.79,-243.655"/>
<polygon fill="midnightblue" stroke="midnightblue" points="441.642,-279.097 452.166,-280.324 444.705,-272.802 441.642,-279.097"/>
</g>
<!-- Node2&#45;&gt;Node17 -->
<g id="edge30" class="edge"><title>Node2&#45;&gt;Node17</title>
<path fill="none" stroke="midnightblue" d="M421.752,-286.523C335.434,-281.53 158.336,-268.578 102,-244 71.8548,-230.848 44.4587,-201.958 32.0315,-187.538"/>
<polygon fill="midnightblue" stroke="midnightblue" points="421.633,-290.022 431.815,-287.092 422.029,-283.033 421.633,-290.022"/>
</g>
<!-- Node20 -->
<g id="node20" class="node"><title>Node20</title>
<g id="a_node20"><a xlink:href="event__tree__analysis_8cc.xhtml" target="_top" xlink:title="Implementation of event tree analysis facilities. ">
<polygon fill="white" stroke="black" points="98.5,-112.5 98.5,-131.5 223.5,-131.5 223.5,-112.5 98.5,-112.5"/>
<text text-anchor="middle" x="161" y="-119.5" font-family="Helvetica,sans-Serif" font-size="10.00">event_tree_analysis.cc</text>
</a>
</g>
</g>
<!-- Node2&#45;&gt;Node20 -->
<g id="edge31" class="edge"><title>Node2&#45;&gt;Node20</title>
<path fill="none" stroke="midnightblue" d="M421.889,-281.679C337.648,-267.763 169.118,-234.66 135,-188 121.943,-170.144 140.593,-144.824 152.466,-131.678"/>
<polygon fill="midnightblue" stroke="midnightblue" points="421.542,-285.169 431.974,-283.32 422.666,-278.26 421.542,-285.169"/>
</g>
<!-- Node4 -->
<g id="node4" class="node"><title>Node4</title>
<g id="a_node4"><a xlink:href="alignment_8cc.xhtml" target="_top" xlink:title="Implementation of alignment and phase classes. ">
<polygon fill="white" stroke="black" points="498,-168.5 498,-187.5 576,-187.5 576,-168.5 498,-168.5"/>
<text text-anchor="middle" x="537" y="-175.5" font-family="Helvetica,sans-Serif" font-size="10.00">alignment.cc</text>
</a>
</g>
</g>
<!-- Node3&#45;&gt;Node4 -->
<g id="edge3" class="edge"><title>Node3&#45;&gt;Node4</title>
<path fill="none" stroke="midnightblue" d="M537,-213.805C537,-204.91 537,-194.78 537,-187.751"/>
<polygon fill="midnightblue" stroke="midnightblue" points="533.5,-214.083 537,-224.083 540.5,-214.083 533.5,-214.083"/>
</g>
<!-- Node3&#45;&gt;Node5 -->
<g id="edge4" class="edge"><title>Node3&#45;&gt;Node5</title>
<path fill="none" stroke="midnightblue" d="M578.464,-221.749C617.234,-211.228 674.08,-195.802 707.833,-186.643"/>
<polygon fill="midnightblue" stroke="midnightblue" points="577.267,-218.447 568.532,-224.444 579.1,-225.202 577.267,-218.447"/>
</g>
<!-- Node7 -->
<g id="node7" class="node"><title>Node7</title>
<g id="a_node7"><a xlink:href="initializer_8cc.xhtml" target="_top" xlink:title="Implementation of input file processing into analysis constructs. ">
<polygon fill="white" stroke="black" points="396.5,-56.5 396.5,-75.5 467.5,-75.5 467.5,-56.5 396.5,-56.5"/>
<text text-anchor="middle" x="432" y="-63.5" font-family="Helvetica,sans-Serif" font-size="10.00">initializer.cc</text>
</a>
</g>
</g>
<!-- Node3&#45;&gt;Node7 -->
<g id="edge19" class="edge"><title>Node3&#45;&gt;Node7</title>
<path fill="none" stroke="midnightblue" d="M517.736,-217.911C508.236,-209.781 497.108,-199.145 489,-188 461.269,-149.881 441.676,-96.1317 434.752,-75.5099"/>
<polygon fill="midnightblue" stroke="midnightblue" points="515.608,-220.694 525.548,-224.361 520.065,-215.296 515.608,-220.694"/>
</g>
<!-- Node3&#45;&gt;Node12 -->
<g id="edge20" class="edge"><title>Node3&#45;&gt;Node12</title>
<path fill="none" stroke="midnightblue" d="M554.291,-217.48C563.584,-208.969 575.128,-198.118 585,-188 604.012,-168.515 624.962,-144.296 635.726,-131.633"/>
<polygon fill="midnightblue" stroke="midnightblue" points="551.853,-214.967 546.803,-224.28 556.559,-220.149 551.853,-214.967"/>
</g>
<!-- Node5&#45;&gt;Node6 -->
<g id="edge5" class="edge"><title>Node5&#45;&gt;Node6</title>
<path fill="none" stroke="midnightblue" d="M698.103,-167.482C657.515,-157.288 593.706,-141.261 554.778,-131.484"/>
<polygon fill="midnightblue" stroke="midnightblue" points="697.341,-170.899 707.893,-169.94 699.046,-164.11 697.341,-170.899"/>
</g>
<!-- Node9 -->
<g id="node9" class="node"><title>Node9</title>
<g id="a_node9"><a xlink:href="model_8cc.xhtml" target="_top" xlink:title="Implementation of functions in Model class. ">
<polygon fill="white" stroke="black" points="704,-112.5 704,-131.5 764,-131.5 764,-112.5 704,-112.5"/>
<text text-anchor="middle" x="734" y="-119.5" font-family="Helvetica,sans-Serif" font-size="10.00">model.cc</text>
</a>
</g>
</g>
<!-- Node5&#45;&gt;Node9 -->
<g id="edge8" class="edge"><title>Node5&#45;&gt;Node9</title>
<path fill="none" stroke="midnightblue" d="M735.289,-157.805C734.96,-148.91 734.584,-138.78 734.324,-131.751"/>
<polygon fill="midnightblue" stroke="midnightblue" points="731.802,-158.219 735.67,-168.083 738.797,-157.96 731.802,-158.219"/>
</g>
<!-- Node5&#45;&gt;Node10 -->
<g id="edge9" class="edge"><title>Node5&#45;&gt;Node10</title>
<path fill="none" stroke="midnightblue" d="M750.581,-160.563C757.676,-152.249 766.133,-141.854 773,-132 786.452,-112.695 799.774,-88.4029 806.498,-75.6806"/>
<polygon fill="midnightblue" stroke="midnightblue" points="747.72,-158.519 743.804,-168.363 753.005,-163.11 747.72,-158.519"/>
</g>
<!-- Node5&#45;&gt;Node12 -->
<g id="edge12" class="edge"><title>Node5&#45;&gt;Node12</title>
<path fill="none" stroke="midnightblue" d="M712.194,-163.177C695.081,-153.241 672.535,-140.149 657.905,-131.655"/>
<polygon fill="midnightblue" stroke="midnightblue" points="710.653,-166.329 721.058,-168.324 714.168,-160.276 710.653,-166.329"/>
</g>
<!-- Node14 -->
<g id="node14" class="node"><title>Node14</title>
<g id="a_node14"><a xlink:href="serialization_8h.xhtml" target="_top" xlink:title="The MEF Model serialization facilities. ">
<polygon fill="white" stroke="black" points="896.5,-112.5 896.5,-131.5 979.5,-131.5 979.5,-112.5 896.5,-112.5"/>
<text text-anchor="middle" x="938" y="-119.5" font-family="Helvetica,sans-Serif" font-size="10.00">serialization.h</text>
</a>
</g>
</g>
<!-- Node5&#45;&gt;Node14 -->
<g id="edge16" class="edge"><title>Node5&#45;&gt;Node14</title>
<path fill="none" stroke="midnightblue" d="M773.807,-166.893C811.977,-156.689 870.274,-141.105 906.16,-131.512"/>
<polygon fill="midnightblue" stroke="midnightblue" points="772.844,-163.528 764.087,-169.492 774.652,-170.29 772.844,-163.528"/>
</g>
<!-- Node6&#45;&gt;Node7 -->
<g id="edge6" class="edge"><title>Node6&#45;&gt;Node7</title>
<path fill="none" stroke="midnightblue" d="M497.762,-106.901C481.442,-96.9986 460.135,-84.0705 446.264,-75.6545"/>
<polygon fill="midnightblue" stroke="midnightblue" points="496.336,-110.129 506.701,-112.324 499.967,-104.144 496.336,-110.129"/>
</g>
<!-- Node8 -->
<g id="node8" class="node"><title>Node8</title>
<g id="a_node8"><a xlink:href="scram_8cc.xhtml" target="_top" xlink:title="Main entrance. ">
<polygon fill="white" stroke="black" points="697,-0.5 697,-19.5 757,-19.5 757,-0.5 697,-0.5"/>
<text text-anchor="middle" x="727" y="-7.5" font-family="Helvetica,sans-Serif" font-size="10.00">scram.cc</text>
</a>
</g>
</g>
<!-- Node6&#45;&gt;Node8 -->
<g id="edge7" class="edge"><title>Node6&#45;&gt;Node8</title>
<path fill="none" stroke="midnightblue" d="M546.111,-107.591C588.998,-84.6906 675.18,-38.6708 710.911,-19.5914"/>
<polygon fill="midnightblue" stroke="midnightblue" points="544.337,-104.571 537.164,-112.368 547.634,-110.746 544.337,-104.571"/>
</g>
<!-- Node10&#45;&gt;Node8 -->
<g id="edge11" class="edge"><title>Node10&#45;&gt;Node8</title>
<path fill="none" stroke="midnightblue" d="M789.068,-50.9005C773.665,-40.9986 753.554,-28.0705 740.463,-19.6545"/>
<polygon fill="midnightblue" stroke="midnightblue" points="787.199,-53.8605 797.504,-56.324 790.985,-47.9722 787.199,-53.8605"/>
</g>
<!-- Node11 -->
<g id="node11" class="node"><title>Node11</title>
<g id="a_node11"><a xlink:href="reporter_8cc.xhtml" target="_top" xlink:title="Implements Reporter class. ">
<polygon fill="white" stroke="black" points="913,-0.5 913,-19.5 981,-19.5 981,-0.5 913,-0.5"/>
<text text-anchor="middle" x="947" y="-7.5" font-family="Helvetica,sans-Serif" font-size="10.00">reporter.cc</text>
</a>
</g>
</g>
<!-- Node10&#45;&gt;Node11 -->
<g id="edge10" class="edge"><title>Node10&#45;&gt;Node11</title>
<path fill="none" stroke="midnightblue" d="M842.135,-52.6377C867.657,-42.504 903.109,-28.4274 925.551,-19.5164"/>
<polygon fill="midnightblue" stroke="midnightblue" points="840.552,-49.5002 832.55,-56.4435 843.135,-56.0061 840.552,-49.5002"/>
</g>
<!-- Node12&#45;&gt;Node8 -->
<g id="edge15" class="edge"><title>Node12&#45;&gt;Node8</title>
<path fill="none" stroke="midnightblue" d="M645.129,-101.921C647.444,-88.1077 652.221,-69.5586 662,-56 673.802,-39.6359 693.482,-27.2272 708.102,-19.6271"/>
<polygon fill="midnightblue" stroke="midnightblue" points="641.611,-101.811 643.707,-112.197 648.545,-102.771 641.611,-101.811"/>
</g>
<!-- Node12&#45;&gt;Node10 -->
<g id="edge13" class="edge"><title>Node12&#45;&gt;Node10</title>
<path fill="none" stroke="midnightblue" d="M679.386,-109.304C711.042,-99.1294 756.168,-84.6246 784.504,-75.5164"/>
<polygon fill="midnightblue" stroke="midnightblue" points="678.069,-106.051 669.62,-112.444 680.211,-112.715 678.069,-106.051"/>
</g>
<!-- Node13 -->
<g id="node13" class="node"><title>Node13</title>
<g id="a_node13"><a xlink:href="risk__analysis_8cc.xhtml" target="_top" xlink:title="Implementation of risk analysis handler. ">
<polygon fill="white" stroke="black" points="671,-56.5 671,-75.5 761,-75.5 761,-56.5 671,-56.5"/>
<text text-anchor="middle" x="716" y="-63.5" font-family="Helvetica,sans-Serif" font-size="10.00">risk_analysis.cc</text>
</a>
</g>
</g>
<!-- Node12&#45;&gt;Node13 -->
<g id="edge14" class="edge"><title>Node12&#45;&gt;Node13</title>
<path fill="none" stroke="midnightblue" d="M663.142,-106.101C676.279,-96.3824 692.982,-84.0269 704.058,-75.8339"/>
<polygon fill="midnightblue" stroke="midnightblue" points="660.687,-103.563 654.729,-112.324 664.85,-109.191 660.687,-103.563"/>
</g>
<!-- Node14&#45;&gt;Node8 -->
<g id="edge17" class="edge"><title>Node14&#45;&gt;Node8</title>
<path fill="none" stroke="midnightblue" d="M920.856,-105.548C904.224,-91.186 877.786,-69.9659 852,-56 821.274,-39.3584 783.137,-26.6536 757.122,-19.0543"/>
<polygon fill="midnightblue" stroke="midnightblue" points="918.782,-108.386 928.604,-112.359 923.404,-103.128 918.782,-108.386"/>
</g>
<!-- Node14&#45;&gt;Node15 -->
<g id="edge18" class="edge"><title>Node14&#45;&gt;Node15</title>
<path fill="none" stroke="midnightblue" d="M957.314,-106.101C969.912,-96.3824 985.928,-84.0269 996.549,-75.8339"/>
<polygon fill="midnightblue" stroke="midnightblue" points="955.027,-103.445 949.247,-112.324 959.302,-108.987 955.027,-103.445"/>
</g>
<!-- Node16&#45;&gt;Node5 -->
<g id="edge29" class="edge"><title>Node16&#45;&gt;Node5</title>
<path fill="none" stroke="midnightblue" d="M407.863,-226.001C487.788,-214.553 643.962,-192.183 707.794,-183.04"/>
<polygon fill="midnightblue" stroke="midnightblue" points="406.977,-222.592 397.574,-227.475 407.969,-229.521 406.977,-222.592"/>
</g>
<!-- Node16&#45;&gt;Node6 -->
<g id="edge28" class="edge"><title>Node16&#45;&gt;Node6</title>
<path fill="none" stroke="midnightblue" d="M380.039,-218.714C414.176,-195.535 480.603,-150.43 508.347,-131.591"/>
<polygon fill="midnightblue" stroke="midnightblue" points="378.019,-215.855 371.712,-224.368 381.951,-221.647 378.019,-215.855"/>
</g>
<!-- Node16&#45;&gt;Node17 -->
<g id="edge22" class="edge"><title>Node16&#45;&gt;Node17</title>
<path fill="none" stroke="midnightblue" d="M310.156,-225.103C237.916,-213.423 105.195,-191.966 50.0504,-183.05"/>
<polygon fill="midnightblue" stroke="midnightblue" points="309.929,-228.612 320.36,-226.753 311.046,-221.702 309.929,-228.612"/>
</g>
<!-- Node18 -->
<g id="node18" class="node"><title>Node18</title>
<g id="a_node18"><a xlink:href="event__tree_8cc.xhtml" target="_top" xlink:title="Implementation of event tree facilities. ">
<polygon fill="white" stroke="black" points="284,-168.5 284,-187.5 366,-187.5 366,-168.5 284,-168.5"/>
<text text-anchor="middle" x="325" y="-175.5" font-family="Helvetica,sans-Serif" font-size="10.00">event_tree.cc</text>
</a>
</g>
</g>
<!-- Node16&#45;&gt;Node18 -->
<g id="edge24" class="edge"><title>Node16&#45;&gt;Node18</title>
<path fill="none" stroke="midnightblue" d="M348.023,-215.566C342.173,-206.275 335.23,-195.248 330.51,-187.751"/>
<polygon fill="midnightblue" stroke="midnightblue" points="345.096,-217.486 353.386,-224.083 351.019,-213.756 345.096,-217.486"/>
</g>
<!-- Node16&#45;&gt;Node19 -->
<g id="edge25" class="edge"><title>Node16&#45;&gt;Node19</title>
<path fill="none" stroke="midnightblue" d="M324.889,-221.039C295.913,-210.879 255.038,-196.546 229.288,-187.516"/>
<polygon fill="midnightblue" stroke="midnightblue" points="324.003,-224.437 334.598,-224.444 326.32,-217.832 324.003,-224.437"/>
</g>
<!-- Node17&#45;&gt;Node7 -->
<g id="edge23" class="edge"><title>Node17&#45;&gt;Node7</title>
<path fill="none" stroke="midnightblue" d="M36.6116,-159.941C48.031,-144.65 66.9269,-122.986 89,-112 142.432,-85.4074 319.64,-72.9825 396.227,-68.7552"/>
<polygon fill="midnightblue" stroke="midnightblue" points="33.472,-158.315 30.506,-168.486 39.1675,-162.384 33.472,-158.315"/>
</g>
<!-- Node19&#45;&gt;Node12 -->
<g id="edge27" class="edge"><title>Node19&#45;&gt;Node12</title>
<path fill="none" stroke="midnightblue" d="M275.757,-167.912C399.776,-152.381 533.021,-136.244 599.932,-128.179"/>
<polygon fill="midnightblue" stroke="midnightblue" points="275.19,-164.455 265.703,-169.172 276.061,-171.401 275.19,-164.455"/>
</g>
<!-- Node19&#45;&gt;Node20 -->
<g id="edge26" class="edge"><title>Node19&#45;&gt;Node20</title>
<path fill="none" stroke="midnightblue" d="M191.265,-160.144C183.599,-150.736 174.367,-139.405 168.131,-131.751"/>
<polygon fill="midnightblue" stroke="midnightblue" points="188.704,-162.541 197.734,-168.083 194.131,-158.12 188.704,-162.541"/>
</g>
<!-- Node21&#45;&gt;Node5 -->
<g id="edge43" class="edge"><title>Node21&#45;&gt;Node5</title>
<path fill="none" stroke="midnightblue" d="M816.921,-275.466C803.337,-267.55 787.086,-256.633 775,-244 758.442,-226.694 745.716,-201.142 739.742,-187.816"/>
<polygon fill="midnightblue" stroke="midnightblue" points="815.381,-278.615 825.816,-280.452 818.804,-272.509 815.381,-278.615"/>
</g>
<!-- Node21&#45;&gt;Node6 -->
<g id="edge42" class="edge"><title>Node21&#45;&gt;Node6</title>
<path fill="none" stroke="midnightblue" d="M817.148,-275.673C753.464,-242.842 590.386,-158.77 537.692,-131.605"/>
<polygon fill="midnightblue" stroke="midnightblue" points="815.649,-278.838 826.141,-280.309 818.857,-272.616 815.649,-278.838"/>
</g>
<!-- Node21&#45;&gt;Node11 -->
<g id="edge44" class="edge"><title>Node21&#45;&gt;Node11</title>
<path fill="none" stroke="midnightblue" d="M889.408,-287.877C959.429,-283.44 1084,-263.65 1084,-179 1084,-179 1084,-179 1084,-121 1084,-90.3559 1082.28,-78.0537 1061,-56 1039.73,-33.9492 1006.32,-22.4673 981.152,-16.6412"/>
<polygon fill="midnightblue" stroke="midnightblue" points="888.873,-284.401 879.08,-288.446 889.257,-291.39 888.873,-284.401"/>
</g>
<!-- Node22 -->
<g id="node22" class="node"><title>Node22</title>
<g id="a_node22"><a xlink:href="ccf__group_8cc.xhtml" target="_top" xlink:title="Implementation of various common cause failure models. ">
<polygon fill="white" stroke="black" points="784.5,-224.5 784.5,-243.5 861.5,-243.5 861.5,-224.5 784.5,-224.5"/>
<text text-anchor="middle" x="823" y="-231.5" font-family="Helvetica,sans-Serif" font-size="10.00">ccf_group.cc</text>
</a>
</g>
</g>
<!-- Node21&#45;&gt;Node22 -->
<g id="edge35" class="edge"><title>Node21&#45;&gt;Node22</title>
<path fill="none" stroke="midnightblue" d="M836.218,-270.69C832.848,-261.589 828.931,-251.014 826.241,-243.751"/>
<polygon fill="midnightblue" stroke="midnightblue" points="832.942,-271.921 839.697,-280.083 839.506,-269.49 832.942,-271.921"/>
</g>
<!-- Node21&#45;&gt;Node23 -->
<g id="edge36" class="edge"><title>Node21&#45;&gt;Node23</title>
<path fill="none" stroke="midnightblue" d="M862.866,-274.101C875.823,-264.382 892.297,-252.027 903.221,-243.834"/>
<polygon fill="midnightblue" stroke="midnightblue" points="860.468,-271.524 854.568,-280.324 864.668,-277.124 860.468,-271.524"/>
</g>
<!-- Node23&#45;&gt;Node5 -->
<g id="edge39" class="edge"><title>Node23&#45;&gt;Node5</title>
<path fill="none" stroke="midnightblue" d="M876.669,-221.436C842.92,-211.255 794.553,-196.664 764.23,-187.516"/>
<polygon fill="midnightblue" stroke="midnightblue" points="876.052,-224.906 886.637,-224.444 878.074,-218.204 876.052,-224.906"/>
</g>
<!-- Node23&#45;&gt;Node6 -->
<g id="edge38" class="edge"><title>Node23&#45;&gt;Node6</title>
<path fill="none" stroke="midnightblue" d="M886.629,-220.183C866.819,-211.215 839.772,-198.931 816,-188 796.85,-179.195 793.098,-174.35 773,-168 732.742,-155.28 613.43,-136.653 554.585,-127.894"/>
<polygon fill="midnightblue" stroke="midnightblue" points="885.445,-223.489 895.999,-224.422 888.33,-217.111 885.445,-223.489"/>
</g>
<!-- Node23&#45;&gt;Node13 -->
<g id="edge40" class="edge"><title>Node23&#45;&gt;Node13</title>
<path fill="none" stroke="midnightblue" d="M895.243,-218.259C883.889,-209.642 869.453,-198.439 857,-188 818.417,-155.657 811.446,-144.506 773,-112 757.595,-98.9755 739.181,-84.6535 727.536,-75.7436"/>
<polygon fill="midnightblue" stroke="midnightblue" points="893.149,-221.063 903.241,-224.288 897.363,-215.474 893.149,-221.063"/>
</g>
<!-- Node23&#45;&gt;Node15 -->
<g id="edge41" class="edge"><title>Node23&#45;&gt;Node15</title>
<path fill="none" stroke="midnightblue" d="M929.889,-216.541C946.365,-197.5 972.618,-164.573 988,-132 997.075,-112.783 1003.28,-88.4547 1006.16,-75.7037"/>
<polygon fill="midnightblue" stroke="midnightblue" points="927.069,-214.446 923.08,-224.262 932.32,-219.076 927.069,-214.446"/>
</g>
<!-- Node24 -->
<g id="node24" class="node"><title>Node24</title>
<g id="a_node24"><a xlink:href="fault__tree_8cc.xhtml" target="_top" xlink:title="Implementation of fault tree and component containers. ">
<polygon fill="white" stroke="black" points="866,-168.5 866,-187.5 942,-187.5 942,-168.5 866,-168.5"/>
<text text-anchor="middle" x="904" y="-175.5" font-family="Helvetica,sans-Serif" font-size="10.00">fault_tree.cc</text>
</a>
</g>
</g>
<!-- Node23&#45;&gt;Node24 -->
<g id="edge37" class="edge"><title>Node23&#45;&gt;Node24</title>
<path fill="none" stroke="midnightblue" d="M911.15,-214.101C909.324,-205.136 907.23,-194.858 905.783,-187.751"/>
<polygon fill="midnightblue" stroke="midnightblue" points="907.758,-214.983 913.184,-224.083 914.617,-213.586 907.758,-214.983"/>
</g>
</g>
</svg>
        <g id="navigator" transform="translate(0 0)" fill="#404254">
                <rect fill="#f2f5e9" fill-opacity="0.5" stroke="#606060" stroke-width=".5" x="0" y="0" width="60" height="60"/>
                <use id="zoomplus" xlink:href="#zoomPlus" x="17" y="9" onmousedown="handleZoom(evt,'in')"/>
                <use id="zoomminus" xlink:href="#zoomMin" x="42" y="9" onmousedown="handleZoom(evt,'out')"/>
                <use id="reset" xlink:href="#resetDef" x="30" y="36" onmousedown="handleReset()"/>
                <g id="arrowUp" xlink:href="#dirArrow" transform="translate(30 24)" onmousedown="handlePan(0,-1)">
                  <use xlink:href="#rim" fill="#404040">
                        <set attributeName="fill" to="#808080" begin="arrowUp.mouseover" end="arrowUp.mouseout"/>
                  </use>
                  <path fill="none" stroke="white" stroke-width="1.5" d="M0,-3.0v7 M-2.5,-0.5L0,-3.0L2.5,-0.5"/>
                </g>
                <g id="arrowRight" xlink:href="#dirArrow" transform="rotate(90) translate(36 -43)" onmousedown="handlePan(1,0)">
                  <use xlink:href="#rim" fill="#404040">
                        <set attributeName="fill" to="#808080" begin="arrowRight.mouseover" end="arrowRight.mouseout"/>
                  </use>
                  <path fill="none" stroke="white" stroke-width="1.5" d="M0,-3.0v7 M-2.5,-0.5L0,-3.0L2.5,-0.5"/>
                </g>
                <g id="arrowDown" xlink:href="#dirArrow" transform="rotate(180) translate(-30 -48)" onmousedown="handlePan(0,1)">
                  <use xlink:href="#rim" fill="#404040">
                        <set attributeName="fill" to="#808080" begin="arrowDown.mouseover" end="arrowDown.mouseout"/>
                  </use>
                  <path fill="none" stroke="white" stroke-width="1.5" d="M0,-3.0v7 M-2.5,-0.5L0,-3.0L2.5,-0.5"/>
                </g>
                <g id="arrowLeft" xlink:href="#dirArrow" transform="rotate(270) translate(-36 17)" onmousedown="handlePan(-1,0)">
                  <use xlink:href="#rim" fill="#404040">
                        <set attributeName="fill" to="#808080" begin="arrowLeft.mouseover" end="arrowLeft.mouseout"/>
                  </use>
                  <path fill="none" stroke="white" stroke-width="1.5" d="M0,-3.0v7 M-2.5,-0.5L0,-3.0L2.5,-0.5"/>
                </g>
        </g>
        <svg viewBox="0 0 15 15" width="100%" height="30px" preserveAspectRatio="xMaxYMin meet">
         <g id="arrow_out" transform="scale(0.3 0.3)">
          <a xlink:href="event_8h__dep__incl_org.svg" target="_base">
           <rect id="button" ry="5" rx="5" y="6" x="6" height="38" width="38"
                fill="#f2f5e9" fill-opacity="0.5" stroke="#606060" stroke-width="1.0"/>
           <path id="arrow"
             d="M 11.500037,31.436501 C 11.940474,20.09759 22.043105,11.32322 32.158766,21.979434 L 37.068811,17.246167 C 37.068811,17.246167 37.088388,32 37.088388,32 L 22.160133,31.978069 C 22.160133,31.978069 26.997745,27.140456 26.997745,27.140456 C 18.528582,18.264221 13.291696,25.230495 11.500037,31.436501 z"
             style="fill:#404040;"/>
          </a>
         </g>
        </svg>
</svg>
