<?xml version="1.0" encoding="UTF-8" standalone="no"?>
<!DOCTYPE svg PUBLIC "-//W3C//DTD SVG 1.1//EN"
 "http://www.w3.org/Graphics/SVG/1.1/DTD/svg11.dtd">
<!-- Generated by graphviz version 2.38.0 (20140413.2041)
 -->
<!-- Title: event_tree_analysis.h Pages: 1 -->
<svg width="1356pt" height="386pt"
 viewBox="0.00 0.00 1356.39 386.00" xmlns="http://www.w3.org/2000/svg" xmlns:xlink="http://www.w3.org/1999/xlink">
<g id="graph0" class="graph" transform="scale(1 1) rotate(0) translate(4 382)">
<title>event_tree_analysis.h</title>
<polygon fill="white" stroke="none" points="-4,4 -4,-382 1352.39,-382 1352.39,4 -4,4"/>
<!-- Node1 -->
<g id="node1" class="node"><title>Node1</title>
<polygon fill="#bfbfbf" stroke="black" points="578.171,-358.5 578.171,-377.5 699.171,-377.5 699.171,-358.5 578.171,-358.5"/>
<text text-anchor="middle" x="638.671" y="-365.5" font-family="Helvetica,sans-Serif" font-size="10.00">event_tree_analysis.h</text>
</g>
<!-- Node2 -->
<g id="node2" class="node"><title>Node2</title>
<polygon fill="white" stroke="#bfbfbf" points="547.171,-134.5 547.171,-153.5 604.171,-153.5 604.171,-134.5 547.171,-134.5"/>
<text text-anchor="middle" x="575.671" y="-141.5" font-family="Helvetica,sans-Serif" font-size="10.00">memory</text>
</g>
<!-- Node1&#45;&gt;Node2 -->
<g id="edge1" class="edge"><title>Node1&#45;&gt;Node2</title>
<path fill="none" stroke="midnightblue" d="M637.146,-358.37C632.445,-332.448 617.184,-253.161 595.671,-190 592.57,-180.896 588.332,-171.103 584.555,-162.985"/>
<polygon fill="midnightblue" stroke="midnightblue" points="587.619,-161.279 580.139,-153.776 581.307,-164.306 587.619,-161.279"/>
</g>
<!-- Node3 -->
<g id="node3" class="node"><title>Node3</title>
<polygon fill="white" stroke="#bfbfbf" points="945.671,-6 945.671,-25 989.671,-25 989.671,-6 945.671,-6"/>
<text text-anchor="middle" x="967.671" y="-13" font-family="Helvetica,sans-Serif" font-size="10.00">string</text>
</g>
<!-- Node1&#45;&gt;Node3 -->
<g id="edge2" class="edge"><title>Node1&#45;&gt;Node3</title>
<path fill="none" stroke="midnightblue" d="M699.341,-363.93C870.816,-354.451 1346.67,-322.267 1346.67,-257 1346.67,-257 1346.67,-257 1346.67,-143 1346.67,-108.183 1353.56,-90.2858 1327.67,-67 1279.83,-23.9657 1079.8,-17.4474 1000.38,-16.5764"/>
<polygon fill="midnightblue" stroke="midnightblue" points="1000.03,-13.0734 990.001,-16.4878 999.971,-20.0732 1000.03,-13.0734"/>
</g>
<!-- Node4 -->
<g id="node4" class="node"><title>Node4</title>
<polygon fill="white" stroke="#bfbfbf" points="889.171,-246.5 889.171,-265.5 982.171,-265.5 982.171,-246.5 889.171,-246.5"/>
<text text-anchor="middle" x="935.671" y="-253.5" font-family="Helvetica,sans-Serif" font-size="10.00">unordered_map</text>
</g>
<!-- Node1&#45;&gt;Node4 -->
<g id="edge3" class="edge"><title>Node1&#45;&gt;Node4</title>
<path fill="none" stroke="midnightblue" d="M699.352,-365.682C749.2,-362.278 820.213,-351.947 874.671,-322 895.559,-310.514 913.394,-289.318 924.289,-274.255"/>
<polygon fill="midnightblue" stroke="midnightblue" points="927.321,-276.024 930.14,-265.811 921.568,-272.037 927.321,-276.024"/>
</g>
<!-- Node5 -->
<g id="node5" class="node"><title>Node5</title>
<polygon fill="white" stroke="#bfbfbf" points="317.171,-6 317.171,-25 364.171,-25 364.171,-6 317.171,-6"/>
<text text-anchor="middle" x="340.671" y="-13" font-family="Helvetica,sans-Serif" font-size="10.00">vector</text>
</g>
<!-- Node1&#45;&gt;Node5 -->
<g id="edge4" class="edge"><title>Node1&#45;&gt;Node5</title>
<path fill="none" stroke="midnightblue" d="M578.073,-367.289C450.623,-367.081 159.212,-362.081 69.671,-322 31.5112,-304.918 1.67101,-298.808 1.67101,-257 1.67101,-257 1.67101,-257 1.67101,-143 1.67101,-108.183 -5.01302,-90.507 20.671,-67 62.0939,-29.0882 233.585,-19.5946 307.036,-17.2524"/>
<polygon fill="midnightblue" stroke="midnightblue" points="307.242,-20.7479 317.135,-16.9561 307.036,-13.7509 307.242,-20.7479"/>
</g>
<!-- Node6 -->
<g id="node6" class="node"><title>Node6</title>
<g id="a_node6"><a xlink:href="analysis_8h.xhtml" target="_top" xlink:title="Common facilities for all analysis classes. ">
<polygon fill="white" stroke="black" points="78.671,-134.5 78.671,-153.5 142.671,-153.5 142.671,-134.5 78.671,-134.5"/>
<text text-anchor="middle" x="110.671" y="-141.5" font-family="Helvetica,sans-Serif" font-size="10.00">analysis.h</text>
</a>
</g>
</g>
<!-- Node1&#45;&gt;Node6 -->
<g id="edge5" class="edge"><title>Node1&#45;&gt;Node6</title>
<path fill="none" stroke="midnightblue" d="M578.13,-362.641C459.901,-352.893 204.453,-325.366 142.671,-266 114.692,-239.115 110.176,-190.861 110.004,-164.132"/>
<polygon fill="midnightblue" stroke="midnightblue" points="113.508,-163.867 110.151,-153.819 106.509,-163.768 113.508,-163.867"/>
</g>
<!-- Node9 -->
<g id="node9" class="node"><title>Node9</title>
<g id="a_node9"><a xlink:href="settings_8h.xhtml" target="_top" xlink:title="Builder for settings. ">
<polygon fill="white" stroke="black" points="29.671,-73 29.671,-92 93.671,-92 93.671,-73 29.671,-73"/>
<text text-anchor="middle" x="61.671" y="-80" font-family="Helvetica,sans-Serif" font-size="10.00">settings.h</text>
</a>
</g>
</g>
<!-- Node1&#45;&gt;Node9 -->
<g id="edge60" class="edge"><title>Node1&#45;&gt;Node9</title>
<path fill="none" stroke="midnightblue" d="M578.05,-366.022C494.092,-363.458 338.222,-354.317 209.671,-322 135.631,-303.387 50.671,-333.344 50.671,-257 50.671,-257 50.671,-257 50.671,-199 50.671,-164.709 55.5354,-124.949 58.7946,-102.157"/>
<polygon fill="midnightblue" stroke="midnightblue" points="62.2713,-102.572 60.2779,-92.1665 55.3471,-101.544 62.2713,-102.572"/>
</g>
<!-- Node11 -->
<g id="node11" class="node"><title>Node11</title>
<g id="a_node11"><a xlink:href="event_8h.xhtml" target="_top" xlink:title="Contains event classes for fault trees. ">
<polygon fill="white" stroke="black" points="682.171,-190.5 682.171,-209.5 735.171,-209.5 735.171,-190.5 682.171,-190.5"/>
<text text-anchor="middle" x="708.671" y="-197.5" font-family="Helvetica,sans-Serif" font-size="10.00">event.h</text>
</a>
</g>
</g>
<!-- Node1&#45;&gt;Node11 -->
<g id="edge12" class="edge"><title>Node1&#45;&gt;Node11</title>
<path fill="none" stroke="midnightblue" d="M642.435,-358.075C653.501,-331.832 686.092,-254.545 701.032,-219.117"/>
<polygon fill="midnightblue" stroke="midnightblue" points="704.397,-220.142 705.058,-209.568 697.947,-217.422 704.397,-220.142"/>
</g>
<!-- Node17 -->
<g id="node17" class="node"><title>Node17</title>
<g id="a_node17"><a xlink:href="expression_8h.xhtml" target="_top" xlink:title="Provides the base class for all expressions and units for expression values. ">
<polygon fill="white" stroke="black" points="851.171,-134.5 851.171,-153.5 928.171,-153.5 928.171,-134.5 851.171,-134.5"/>
<text text-anchor="middle" x="889.671" y="-141.5" font-family="Helvetica,sans-Serif" font-size="10.00">expression.h</text>
</a>
</g>
</g>
<!-- Node1&#45;&gt;Node17 -->
<g id="edge55" class="edge"><title>Node1&#45;&gt;Node17</title>
<path fill="none" stroke="midnightblue" d="M669.852,-358.392C712.666,-345.12 789.683,-315.838 836.671,-266 864.628,-236.347 879.31,-189.558 885.676,-163.711"/>
<polygon fill="midnightblue" stroke="midnightblue" points="889.14,-164.266 887.972,-153.736 882.318,-162.696 889.14,-164.266"/>
</g>
<!-- Node24 -->
<g id="node24" class="node"><title>Node24</title>
<g id="a_node24"><a xlink:href="event__tree_8h.xhtml" target="_top" xlink:title="Event Tree facilities. ">
<polygon fill="white" stroke="black" points="404.171,-302.5 404.171,-321.5 481.171,-321.5 481.171,-302.5 404.171,-302.5"/>
<text text-anchor="middle" x="442.671" y="-309.5" font-family="Helvetica,sans-Serif" font-size="10.00">event_tree.h</text>
</a>
</g>
</g>
<!-- Node1&#45;&gt;Node24 -->
<g id="edge38" class="edge"><title>Node1&#45;&gt;Node24</title>
<path fill="none" stroke="midnightblue" d="M607.614,-358.444C574.068,-349.201 520.474,-334.436 483.53,-324.257"/>
<polygon fill="midnightblue" stroke="midnightblue" points="484.153,-320.798 473.582,-321.516 482.294,-327.547 484.153,-320.798"/>
</g>
<!-- Node27 -->
<g id="node27" class="node"><title>Node27</title>
<g id="a_node27"><a xlink:href="test__event_8h.xhtml" target="_top" xlink:title="Event tree analysis expressions to test functional and initiating events. ">
<polygon fill="white" stroke="black" points="940.171,-302.5 940.171,-321.5 1071.17,-321.5 1071.17,-302.5 940.171,-302.5"/>
<text text-anchor="middle" x="1005.67" y="-309.5" font-family="Helvetica,sans-Serif" font-size="10.00">expression/test_event.h</text>
</a>
</g>
</g>
<!-- Node1&#45;&gt;Node27 -->
<g id="edge56" class="edge"><title>Node1&#45;&gt;Node27</title>
<path fill="none" stroke="midnightblue" d="M696.823,-358.444C762.322,-348.806 868.634,-333.163 937.856,-322.978"/>
<polygon fill="midnightblue" stroke="midnightblue" points="938.407,-326.435 947.791,-321.516 937.388,-319.51 938.407,-326.435"/>
</g>
<!-- Node6&#45;&gt;Node3 -->
<g id="edge7" class="edge"><title>Node6&#45;&gt;Node3</title>
<path fill="none" stroke="midnightblue" d="M134.759,-134.473C181.873,-118.205 289.817,-82.9427 383.671,-67 626.491,-25.753 698.107,-92.2354 936.671,-31 938.656,-30.4904 940.67,-29.8547 942.667,-29.1363"/>
<polygon fill="midnightblue" stroke="midnightblue" points="944.475,-32.1722 952.323,-25.0547 941.749,-25.7246 944.475,-32.1722"/>
</g>
<!-- Node7 -->
<g id="node7" class="node"><title>Node7</title>
<polygon fill="white" stroke="#bfbfbf" points="111.671,-73 111.671,-92 163.671,-92 163.671,-73 111.671,-73"/>
<text text-anchor="middle" x="137.671" y="-80" font-family="Helvetica,sans-Serif" font-size="10.00">cassert</text>
</g>
<!-- Node6&#45;&gt;Node7 -->
<g id="edge6" class="edge"><title>Node6&#45;&gt;Node7</title>
<path fill="none" stroke="midnightblue" d="M114.539,-134.475C118.469,-125.815 124.671,-112.149 129.664,-101.145"/>
<polygon fill="midnightblue" stroke="midnightblue" points="132.865,-102.562 133.81,-92.0091 126.49,-99.6691 132.865,-102.562"/>
</g>
<!-- Node8 -->
<g id="node8" class="node"><title>Node8</title>
<polygon fill="white" stroke="#bfbfbf" points="392.671,-73 392.671,-92 520.671,-92 520.671,-73 392.671,-73"/>
<text text-anchor="middle" x="456.671" y="-80" font-family="Helvetica,sans-Serif" font-size="10.00">boost/noncopyable.hpp</text>
</g>
<!-- Node6&#45;&gt;Node8 -->
<g id="edge8" class="edge"><title>Node6&#45;&gt;Node8</title>
<path fill="none" stroke="midnightblue" d="M142.911,-137.456C200.833,-127.495 323.313,-106.433 396.945,-93.7708"/>
<polygon fill="midnightblue" stroke="midnightblue" points="397.737,-97.1861 406.999,-92.0419 396.55,-90.2874 397.737,-97.1861"/>
</g>
<!-- Node6&#45;&gt;Node9 -->
<g id="edge9" class="edge"><title>Node6&#45;&gt;Node9</title>
<path fill="none" stroke="midnightblue" d="M103.651,-134.475C96.2277,-125.462 84.3383,-111.025 75.1043,-99.8118"/>
<polygon fill="midnightblue" stroke="midnightblue" points="77.7374,-97.5034 68.6785,-92.0091 72.3338,-101.953 77.7374,-97.5034"/>
</g>
<!-- Node9&#45;&gt;Node3 -->
<g id="edge11" class="edge"><title>Node9&#45;&gt;Node3</title>
<path fill="none" stroke="midnightblue" d="M82.1958,-72.9001C88.6389,-70.5669 95.8519,-68.3223 102.671,-67 466.898,3.62788 576.322,-119.307 936.671,-31 938.662,-30.5121 940.679,-29.8924 942.68,-29.1852"/>
<polygon fill="midnightblue" stroke="midnightblue" points="944.477,-32.2263 952.341,-25.1261 941.766,-25.7728 944.477,-32.2263"/>
</g>
<!-- Node10 -->
<g id="node10" class="node"><title>Node10</title>
<polygon fill="white" stroke="#bfbfbf" points="382.171,-6 382.171,-25 431.171,-25 431.171,-6 382.171,-6"/>
<text text-anchor="middle" x="406.671" y="-13" font-family="Helvetica,sans-Serif" font-size="10.00">cstdint</text>
</g>
<!-- Node9&#45;&gt;Node10 -->
<g id="edge10" class="edge"><title>Node9&#45;&gt;Node10</title>
<path fill="none" stroke="midnightblue" d="M83.1219,-72.9713C89.3481,-70.7544 96.2115,-68.555 102.671,-67 220.37,-38.6655 255.925,-63.0382 372.671,-31 374.968,-30.3695 377.315,-29.617 379.647,-28.791"/>
<polygon fill="midnightblue" stroke="midnightblue" points="380.977,-32.0291 388.998,-25.107 378.411,-25.5163 380.977,-32.0291"/>
</g>
<!-- Node11&#45;&gt;Node2 -->
<g id="edge14" class="edge"><title>Node11&#45;&gt;Node2</title>
<path fill="none" stroke="midnightblue" d="M687.597,-190.444C665.611,-181.517 630.937,-167.439 606.007,-157.317"/>
<polygon fill="midnightblue" stroke="midnightblue" points="607.229,-154.035 596.647,-153.516 604.595,-160.521 607.229,-154.035"/>
</g>
<!-- Node11&#45;&gt;Node3 -->
<g id="edge15" class="edge"><title>Node11&#45;&gt;Node3</title>
<path fill="none" stroke="midnightblue" d="M714.836,-190.206C734.622,-162.083 795.962,-75.6636 808.671,-67 857.501,-33.714 881.277,-51.5877 936.671,-31 938.098,-30.4696 939.55,-29.9001 941.008,-29.3046"/>
<polygon fill="midnightblue" stroke="midnightblue" points="942.754,-32.3607 950.505,-25.1376 939.941,-25.9507 942.754,-32.3607"/>
</g>
<!-- Node11&#45;&gt;Node5 -->
<g id="edge16" class="edge"><title>Node11&#45;&gt;Node5</title>
<path fill="none" stroke="midnightblue" d="M701.882,-190.412C690.866,-176.93 667.877,-150.624 643.671,-134 611.197,-111.697 595.49,-119.793 562.671,-98 545.907,-86.8681 547.428,-76.4665 529.671,-67 466.499,-33.3224 440.502,-53.8878 372.671,-31 371.002,-30.4369 369.303,-29.8164 367.601,-29.1586"/>
<polygon fill="midnightblue" stroke="midnightblue" points="368.596,-25.78 358.022,-25.1228 365.878,-32.2309 368.596,-25.78"/>
</g>
<!-- Node11&#45;&gt;Node8 -->
<g id="edge17" class="edge"><title>Node11&#45;&gt;Node8</title>
<path fill="none" stroke="midnightblue" d="M698.059,-190.323C680.985,-176.718 645.952,-150.246 612.671,-134 577.122,-116.647 534.201,-103.253 502.386,-94.6332"/>
<polygon fill="midnightblue" stroke="midnightblue" points="503.033,-91.1839 492.47,-92.0034 501.238,-97.95 503.033,-91.1839"/>
</g>
<!-- Node11&#45;&gt;Node10 -->
<g id="edge13" class="edge"><title>Node11&#45;&gt;Node10</title>
<path fill="none" stroke="midnightblue" d="M707.472,-190.447C705.196,-177.012 699.118,-150.769 684.671,-134 644.294,-87.1332 619.778,-90.7804 562.671,-67 510.481,-45.2675 493.873,-50.1209 440.671,-31 438.814,-30.3326 436.913,-29.6163 435.004,-28.8725"/>
<polygon fill="midnightblue" stroke="midnightblue" points="436.159,-25.5634 425.578,-25.0234 433.512,-32.044 436.159,-25.5634"/>
</g>
<!-- Node12 -->
<g id="node12" class="node"><title>Node12</title>
<polygon fill="white" stroke="#bfbfbf" points="237.171,-134.5 237.171,-153.5 338.171,-153.5 338.171,-134.5 237.171,-134.5"/>
<text text-anchor="middle" x="287.671" y="-141.5" font-family="Helvetica,sans-Serif" font-size="10.00">boost/variant.hpp</text>
</g>
<!-- Node11&#45;&gt;Node12 -->
<g id="edge18" class="edge"><title>Node11&#45;&gt;Node12</title>
<path fill="none" stroke="midnightblue" d="M682.016,-195.581C615.638,-187.067 441.608,-164.745 348.502,-152.803"/>
<polygon fill="midnightblue" stroke="midnightblue" points="348.746,-149.305 338.382,-151.505 347.856,-156.248 348.746,-149.305"/>
</g>
<!-- Node13 -->
<g id="node13" class="node"><title>Node13</title>
<g id="a_node13"><a xlink:href="element_8h.xhtml" target="_top" xlink:title="Helper classes, structs, and properties common to all other classes. ">
<polygon fill="white" stroke="black" points="653.171,-73 653.171,-92 718.171,-92 718.171,-73 653.171,-73"/>
<text text-anchor="middle" x="685.671" y="-80" font-family="Helvetica,sans-Serif" font-size="10.00">element.h</text>
</a>
</g>
</g>
<!-- Node11&#45;&gt;Node13 -->
<g id="edge19" class="edge"><title>Node11&#45;&gt;Node13</title>
<path fill="none" stroke="midnightblue" d="M713.348,-190.437C719.585,-177.861 729.131,-153.748 722.671,-134 718.48,-121.188 709.664,-108.936 701.69,-99.7095"/>
<polygon fill="midnightblue" stroke="midnightblue" points="704.099,-97.1585 694.759,-92.1572 698.942,-101.892 704.099,-97.1585"/>
</g>
<!-- Node11&#45;&gt;Node17 -->
<g id="edge26" class="edge"><title>Node11&#45;&gt;Node17</title>
<path fill="none" stroke="midnightblue" d="M735.378,-191.032C765.988,-181.9 816.407,-166.858 851.235,-156.467"/>
<polygon fill="midnightblue" stroke="midnightblue" points="852.478,-159.749 861.06,-153.536 850.476,-153.041 852.478,-159.749"/>
</g>
<!-- Node13&#45;&gt;Node3 -->
<g id="edge21" class="edge"><title>Node13&#45;&gt;Node3</title>
<path fill="none" stroke="midnightblue" d="M711.368,-72.9393C718.241,-70.8238 725.699,-68.6838 732.671,-67 822.166,-45.3873 848.883,-58.7431 936.671,-31 938.541,-30.4092 940.443,-29.7297 942.34,-28.9943"/>
<polygon fill="midnightblue" stroke="midnightblue" points="943.79,-32.1802 951.583,-25.0022 941.015,-25.7539 943.79,-32.1802"/>
</g>
<!-- Node13&#45;&gt;Node5 -->
<g id="edge22" class="edge"><title>Node13&#45;&gt;Node5</title>
<path fill="none" stroke="midnightblue" d="M660.507,-72.9003C653.5,-70.7352 645.843,-68.5803 638.671,-67 522.166,-41.3281 487.325,-63.9676 372.671,-31 370.737,-30.4438 368.769,-29.79 366.809,-29.0731"/>
<polygon fill="midnightblue" stroke="midnightblue" points="367.841,-25.712 357.262,-25.1215 365.164,-32.1799 367.841,-25.712"/>
</g>
<!-- Node13&#45;&gt;Node10 -->
<g id="edge20" class="edge"><title>Node13&#45;&gt;Node10</title>
<path fill="none" stroke="midnightblue" d="M659.968,-72.9637C653.095,-70.8481 645.639,-68.7019 638.671,-67 551.782,-45.7783 526.341,-56.7036 440.671,-31 438.524,-30.3557 436.329,-29.6172 434.14,-28.8222"/>
<polygon fill="midnightblue" stroke="midnightblue" points="435.331,-25.5292 424.745,-25.0922 432.748,-32.0352 435.331,-25.5292"/>
</g>
<!-- Node14 -->
<g id="node14" class="node"><title>Node14</title>
<polygon fill="white" stroke="#bfbfbf" points="449.671,-6 449.671,-25 621.671,-25 621.671,-6 449.671,-6"/>
<text text-anchor="middle" x="535.671" y="-13" font-family="Helvetica,sans-Serif" font-size="10.00">boost/multi_index_container.hpp</text>
</g>
<!-- Node13&#45;&gt;Node14 -->
<g id="edge23" class="edge"><title>Node13&#45;&gt;Node14</title>
<path fill="none" stroke="midnightblue" d="M665.752,-72.8685C639.976,-61.699 594.856,-42.1468 565.118,-29.2602"/>
<polygon fill="midnightblue" stroke="midnightblue" points="566.239,-25.9319 555.672,-25.1672 563.456,-32.3548 566.239,-25.9319"/>
</g>
<!-- Node15 -->
<g id="node15" class="node"><title>Node15</title>
<polygon fill="white" stroke="#bfbfbf" points="639.671,-0.5 639.671,-30.5 779.671,-30.5 779.671,-0.5 639.671,-0.5"/>
<text text-anchor="start" x="647.671" y="-18.5" font-family="Helvetica,sans-Serif" font-size="10.00">boost/multi_index/hashed</text>
<text text-anchor="middle" x="709.671" y="-7.5" font-family="Helvetica,sans-Serif" font-size="10.00">_index.hpp</text>
</g>
<!-- Node13&#45;&gt;Node15 -->
<g id="edge24" class="edge"><title>Node13&#45;&gt;Node15</title>
<path fill="none" stroke="midnightblue" d="M688.908,-72.7338C691.995,-64.3717 696.785,-51.4003 700.986,-40.0221"/>
<polygon fill="midnightblue" stroke="midnightblue" points="704.288,-41.1823 704.469,-30.589 697.722,-38.7577 704.288,-41.1823"/>
</g>
<!-- Node16 -->
<g id="node16" class="node"><title>Node16</title>
<polygon fill="white" stroke="#bfbfbf" points="797.671,-0.5 797.671,-30.5 927.671,-30.5 927.671,-0.5 797.671,-0.5"/>
<text text-anchor="start" x="805.671" y="-18.5" font-family="Helvetica,sans-Serif" font-size="10.00">boost/multi_index/mem</text>
<text text-anchor="middle" x="862.671" y="-7.5" font-family="Helvetica,sans-Serif" font-size="10.00">_fun.hpp</text>
</g>
<!-- Node13&#45;&gt;Node16 -->
<g id="edge25" class="edge"><title>Node13&#45;&gt;Node16</title>
<path fill="none" stroke="midnightblue" d="M709.175,-72.8685C735.965,-63.0306 780.463,-46.6895 814.669,-34.1277"/>
<polygon fill="midnightblue" stroke="midnightblue" points="816.291,-37.2608 824.472,-30.5281 813.878,-30.6899 816.291,-37.2608"/>
</g>
<!-- Node17&#45;&gt;Node3 -->
<g id="edge29" class="edge"><title>Node17&#45;&gt;Node3</title>
<path fill="none" stroke="midnightblue" d="M928.405,-143.08C1000.95,-142.316 1152.93,-136.09 1185.67,-98 1238.78,-36.2087 1072.96,-21.1951 1000.16,-17.6052"/>
<polygon fill="midnightblue" stroke="midnightblue" points="999.872,-14.0889 989.725,-17.1379 999.559,-21.0819 999.872,-14.0889"/>
</g>
<!-- Node17&#45;&gt;Node5 -->
<g id="edge31" class="edge"><title>Node17&#45;&gt;Node5</title>
<path fill="none" stroke="midnightblue" d="M850.821,-138.153C801.908,-131.538 715.578,-118.151 643.671,-98 606.554,-87.5988 599.755,-77.5186 562.671,-67 479.986,-43.5468 454.616,-56.9201 372.671,-31 370.796,-30.4068 368.885,-29.7329 366.977,-29.0081"/>
<polygon fill="midnightblue" stroke="midnightblue" points="368.223,-25.7352 357.647,-25.0975 365.517,-32.191 368.223,-25.7352"/>
</g>
<!-- Node17&#45;&gt;Node8 -->
<g id="edge33" class="edge"><title>Node17&#45;&gt;Node8</title>
<path fill="none" stroke="midnightblue" d="M850.864,-137.667C778.336,-127.701 621.22,-106.111 528.743,-93.4037"/>
<polygon fill="midnightblue" stroke="midnightblue" points="529.007,-89.9071 518.623,-92.0131 528.054,-96.8419 529.007,-89.9071"/>
</g>
<!-- Node17&#45;&gt;Node13 -->
<g id="edge34" class="edge"><title>Node17&#45;&gt;Node13</title>
<path fill="none" stroke="midnightblue" d="M860.443,-134.475C824.768,-124.07 764.311,-106.437 724.689,-94.8801"/>
<polygon fill="midnightblue" stroke="midnightblue" points="725.425,-91.4492 714.845,-92.0091 723.465,-98.1692 725.425,-91.4492"/>
</g>
<!-- Node18 -->
<g id="node18" class="node"><title>Node18</title>
<polygon fill="white" stroke="#bfbfbf" points="850.671,-73 850.671,-92 912.671,-92 912.671,-73 850.671,-73"/>
<text text-anchor="middle" x="881.671" y="-80" font-family="Helvetica,sans-Serif" font-size="10.00">algorithm</text>
</g>
<!-- Node17&#45;&gt;Node18 -->
<g id="edge27" class="edge"><title>Node17&#45;&gt;Node18</title>
<path fill="none" stroke="midnightblue" d="M888.525,-134.475C887.396,-126.08 885.635,-112.981 884.18,-102.163"/>
<polygon fill="midnightblue" stroke="midnightblue" points="887.617,-101.453 882.815,-92.0091 880.679,-102.386 887.617,-101.453"/>
</g>
<!-- Node19 -->
<g id="node19" class="node"><title>Node19</title>
<polygon fill="white" stroke="#bfbfbf" points="930.671,-73 930.671,-92 986.671,-92 986.671,-73 930.671,-73"/>
<text text-anchor="middle" x="958.671" y="-80" font-family="Helvetica,sans-Serif" font-size="10.00">sstream</text>
</g>
<!-- Node17&#45;&gt;Node19 -->
<g id="edge28" class="edge"><title>Node17&#45;&gt;Node19</title>
<path fill="none" stroke="midnightblue" d="M899.557,-134.475C910.317,-125.197 927.742,-110.171 940.892,-98.831"/>
<polygon fill="midnightblue" stroke="midnightblue" points="943.516,-101.19 948.803,-92.0091 938.944,-95.889 943.516,-101.19"/>
</g>
<!-- Node20 -->
<g id="node20" class="node"><title>Node20</title>
<polygon fill="white" stroke="#bfbfbf" points="1004.67,-73 1004.67,-92 1046.67,-92 1046.67,-73 1004.67,-73"/>
<text text-anchor="middle" x="1025.67" y="-80" font-family="Helvetica,sans-Serif" font-size="10.00">utility</text>
</g>
<!-- Node17&#45;&gt;Node20 -->
<g id="edge30" class="edge"><title>Node17&#45;&gt;Node20</title>
<path fill="none" stroke="midnightblue" d="M910.92,-134.336C932.416,-125.489 966.54,-111.214 995.671,-98 996.827,-97.4758 998.005,-96.9349 999.192,-96.3841"/>
<polygon fill="midnightblue" stroke="midnightblue" points="1000.75,-99.5204 1008.29,-92.0786 997.753,-93.1933 1000.75,-99.5204"/>
</g>
<!-- Node21 -->
<g id="node21" class="node"><title>Node21</title>
<polygon fill="white" stroke="#bfbfbf" points="1064.67,-67.5 1064.67,-97.5 1176.67,-97.5 1176.67,-67.5 1064.67,-67.5"/>
<text text-anchor="start" x="1072.67" y="-85.5" font-family="Helvetica,sans-Serif" font-size="10.00">boost/icl/continuous</text>
<text text-anchor="middle" x="1120.67" y="-74.5" font-family="Helvetica,sans-Serif" font-size="10.00">_interval.hpp</text>
</g>
<!-- Node17&#45;&gt;Node21 -->
<g id="edge32" class="edge"><title>Node17&#45;&gt;Node21</title>
<path fill="none" stroke="midnightblue" d="M922.768,-134.475C957.489,-125.532 1012.94,-111.249 1056.33,-100.074"/>
<polygon fill="midnightblue" stroke="midnightblue" points="1057.42,-103.407 1066.23,-97.523 1055.67,-96.628 1057.42,-103.407"/>
</g>
<!-- Node22 -->
<g id="node22" class="node"><title>Node22</title>
<g id="a_node22"><a xlink:href="error_8h.xhtml" target="_top" xlink:title="Exceptions for SCRAM. ">
<polygon fill="white" stroke="black" points="1270.67,-73 1270.67,-92 1318.67,-92 1318.67,-73 1270.67,-73"/>
<text text-anchor="middle" x="1294.67" y="-80" font-family="Helvetica,sans-Serif" font-size="10.00">error.h</text>
</a>
</g>
</g>
<!-- Node17&#45;&gt;Node22 -->
<g id="edge35" class="edge"><title>Node17&#45;&gt;Node22</title>
<path fill="none" stroke="midnightblue" d="M928.264,-138.389C989.825,-130.884 1113.99,-115.133 1218.67,-98 1232.37,-95.7574 1247.4,-92.9617 1260.45,-90.4253"/>
<polygon fill="midnightblue" stroke="midnightblue" points="1261.29,-93.827 1270.43,-88.4623 1259.94,-86.9587 1261.29,-93.827"/>
</g>
<!-- Node22&#45;&gt;Node3 -->
<g id="edge37" class="edge"><title>Node22&#45;&gt;Node3</title>
<path fill="none" stroke="midnightblue" d="M1274.4,-72.9429C1268.74,-70.778 1262.53,-68.6125 1256.67,-67 1165.06,-41.7678 1053.49,-26.492 999.703,-20.0615"/>
<polygon fill="midnightblue" stroke="midnightblue" points="1000.08,-16.5817 989.739,-18.893 999.264,-23.534 1000.08,-16.5817"/>
</g>
<!-- Node23 -->
<g id="node23" class="node"><title>Node23</title>
<polygon fill="white" stroke="#bfbfbf" points="1263.17,-6 1263.17,-25 1326.17,-25 1326.17,-6 1263.17,-6"/>
<text text-anchor="middle" x="1294.67" y="-13" font-family="Helvetica,sans-Serif" font-size="10.00">exception</text>
</g>
<!-- Node22&#45;&gt;Node23 -->
<g id="edge36" class="edge"><title>Node22&#45;&gt;Node23</title>
<path fill="none" stroke="midnightblue" d="M1294.67,-72.7338C1294.67,-63.1826 1294.67,-47.6183 1294.67,-35.2829"/>
<polygon fill="midnightblue" stroke="midnightblue" points="1298.17,-35.1273 1294.67,-25.1273 1291.17,-35.1273 1298.17,-35.1273"/>
</g>
<!-- Node24&#45;&gt;Node2 -->
<g id="edge39" class="edge"><title>Node24&#45;&gt;Node2</title>
<path fill="none" stroke="midnightblue" d="M481.26,-306.838C508.124,-301.796 542.454,-290.648 561.671,-266 584.777,-236.364 582.551,-189.568 579.028,-163.716"/>
<polygon fill="midnightblue" stroke="midnightblue" points="582.469,-163.072 577.456,-153.738 575.555,-164.161 582.469,-163.072"/>
</g>
<!-- Node24&#45;&gt;Node3 -->
<g id="edge40" class="edge"><title>Node24&#45;&gt;Node3</title>
<path fill="none" stroke="midnightblue" d="M481.199,-308.086C577.806,-299.724 822.671,-271.569 822.671,-201 822.671,-201 822.671,-201 822.671,-143 822.671,-108.183 818.536,-93.0198 841.671,-67 871.673,-33.2568 895.081,-48.5776 936.671,-31 938.039,-30.4217 939.436,-29.8181 940.842,-29.1997"/>
<polygon fill="midnightblue" stroke="midnightblue" points="942.409,-32.3323 950.069,-25.0131 939.517,-25.9578 942.409,-32.3323"/>
</g>
<!-- Node24&#45;&gt;Node5 -->
<g id="edge41" class="edge"><title>Node24&#45;&gt;Node5</title>
<path fill="none" stroke="midnightblue" d="M404.036,-310.731C361.209,-308.637 291.834,-299.728 243.671,-266 219.435,-249.028 216.009,-238.389 207.671,-210 202.641,-192.872 205.987,-147.539 212.671,-134 235.907,-86.9353 286.689,-49.5671 316.838,-30.4569"/>
<polygon fill="midnightblue" stroke="midnightblue" points="318.808,-33.3536 325.478,-25.1219 315.131,-27.3975 318.808,-33.3536"/>
</g>
<!-- Node24&#45;&gt;Node8 -->
<g id="edge42" class="edge"><title>Node24&#45;&gt;Node8</title>
<path fill="none" stroke="midnightblue" d="M404.161,-303.424C372.599,-296.328 327.322,-284.082 290.671,-266 252.722,-247.278 232.873,-247.708 213.671,-210 209.637,-202.079 212.585,-198.822 213.671,-190 216.806,-164.537 209.279,-151.886 227.671,-134 249.571,-112.703 324.488,-99.0212 382.739,-91.3449"/>
<polygon fill="midnightblue" stroke="midnightblue" points="383.193,-94.8153 392.667,-90.0726 382.304,-87.8721 383.193,-94.8153"/>
</g>
<!-- Node24&#45;&gt;Node12 -->
<g id="edge43" class="edge"><title>Node24&#45;&gt;Node12</title>
<path fill="none" stroke="midnightblue" d="M434.338,-302.075C409.305,-275.267 334.535,-195.19 302.504,-160.885"/>
<polygon fill="midnightblue" stroke="midnightblue" points="305.054,-158.489 295.671,-153.568 299.938,-163.266 305.054,-158.489"/>
</g>
<!-- Node24&#45;&gt;Node13 -->
<g id="edge44" class="edge"><title>Node24&#45;&gt;Node13</title>
<path fill="none" stroke="midnightblue" d="M442.269,-302.137C441.477,-273.395 443.052,-181.875 491.671,-134 531.962,-94.3253 599.254,-84.6695 643.044,-82.9097"/>
<polygon fill="midnightblue" stroke="midnightblue" points="643.199,-86.4068 653.097,-82.6273 643.002,-79.4096 643.199,-86.4068"/>
</g>
<!-- Node25 -->
<g id="node25" class="node"><title>Node25</title>
<g id="a_node25"><a xlink:href="variant_8h.xhtml" target="_top" xlink:title="Extra helper functions for boost::variant. ">
<polygon fill="white" stroke="black" points="223.171,-190.5 223.171,-209.5 300.171,-209.5 300.171,-190.5 223.171,-190.5"/>
<text text-anchor="middle" x="261.671" y="-197.5" font-family="Helvetica,sans-Serif" font-size="10.00">ext/variant.h</text>
</a>
</g>
</g>
<!-- Node24&#45;&gt;Node25 -->
<g id="edge45" class="edge"><title>Node24&#45;&gt;Node25</title>
<path fill="none" stroke="midnightblue" d="M403.978,-303.26C377.152,-296.554 341.559,-284.889 314.671,-266 296.688,-253.367 281.486,-233.035 272.037,-218.474"/>
<polygon fill="midnightblue" stroke="midnightblue" points="274.943,-216.519 266.688,-209.878 269,-220.217 274.943,-216.519"/>
</g>
<!-- Node26 -->
<g id="node26" class="node"><title>Node26</title>
<g id="a_node26"><a xlink:href="instruction_8h.xhtml" target="_top" xlink:title="Model and event tree modifier instructions. ">
<polygon fill="white" stroke="black" points="476.671,-246.5 476.671,-265.5 552.671,-265.5 552.671,-246.5 476.671,-246.5"/>
<text text-anchor="middle" x="514.671" y="-253.5" font-family="Helvetica,sans-Serif" font-size="10.00">instruction.h</text>
</a>
</g>
</g>
<!-- Node24&#45;&gt;Node26 -->
<g id="edge47" class="edge"><title>Node24&#45;&gt;Node26</title>
<path fill="none" stroke="midnightblue" d="M454.239,-302.324C465.091,-294.185 481.552,-281.839 494.554,-272.087"/>
<polygon fill="midnightblue" stroke="midnightblue" points="496.992,-274.634 502.892,-265.834 492.792,-269.034 496.992,-274.634"/>
</g>
<!-- Node25&#45;&gt;Node12 -->
<g id="edge46" class="edge"><title>Node25&#45;&gt;Node12</title>
<path fill="none" stroke="midnightblue" d="M265.964,-190.083C269.523,-182.691 274.694,-171.953 279.095,-162.811"/>
<polygon fill="midnightblue" stroke="midnightblue" points="282.273,-164.279 283.458,-153.751 275.966,-161.243 282.273,-164.279"/>
</g>
<!-- Node26&#45;&gt;Node2 -->
<g id="edge48" class="edge"><title>Node26&#45;&gt;Node2</title>
<path fill="none" stroke="midnightblue" d="M519.458,-246.368C529.435,-228.376 552.629,-186.55 565.896,-162.627"/>
<polygon fill="midnightblue" stroke="midnightblue" points="569.118,-164.034 570.907,-153.591 562.996,-160.639 569.118,-164.034"/>
</g>
<!-- Node26&#45;&gt;Node3 -->
<g id="edge49" class="edge"><title>Node26&#45;&gt;Node3</title>
<path fill="none" stroke="midnightblue" d="M513.356,-246.198C510.575,-223.944 506.681,-165.002 537.671,-134 598.124,-73.5237 646.73,-128.355 726.671,-98 751.825,-88.4485 753.692,-77.0002 778.671,-67 845.534,-40.2317 868.553,-54.3904 936.671,-31 938.294,-30.4428 939.945,-29.8269 941.597,-29.1725"/>
<polygon fill="midnightblue" stroke="midnightblue" points="943.103,-32.3343 950.886,-25.1459 940.319,-25.9117 943.103,-32.3343"/>
</g>
<!-- Node26&#45;&gt;Node5 -->
<g id="edge50" class="edge"><title>Node26&#45;&gt;Node5</title>
<path fill="none" stroke="midnightblue" d="M501.2,-246.46C488.731,-238.136 470.14,-224.624 456.671,-210 404.748,-153.622 364.426,-70.3734 348.308,-34.2743"/>
<polygon fill="midnightblue" stroke="midnightblue" points="351.477,-32.7852 344.254,-25.0335 345.066,-35.5972 351.477,-32.7852"/>
</g>
<!-- Node26&#45;&gt;Node8 -->
<g id="edge51" class="edge"><title>Node26&#45;&gt;Node8</title>
<path fill="none" stroke="midnightblue" d="M500.617,-246.186C489.3,-238.237 474.097,-225.441 466.671,-210 449.78,-174.878 451.458,-127.889 454.108,-102.206"/>
<polygon fill="midnightblue" stroke="midnightblue" points="457.613,-102.37 455.33,-92.0245 450.663,-101.536 457.613,-102.37"/>
</g>
<!-- Node26&#45;&gt;Node11 -->
<g id="edge53" class="edge"><title>Node26&#45;&gt;Node11</title>
<path fill="none" stroke="midnightblue" d="M545.411,-246.444C579.885,-236.848 635.747,-221.298 672.349,-211.11"/>
<polygon fill="midnightblue" stroke="midnightblue" points="673.432,-214.442 682.127,-208.388 671.555,-207.698 673.432,-214.442"/>
</g>
<!-- Node26&#45;&gt;Node13 -->
<g id="edge52" class="edge"><title>Node26&#45;&gt;Node13</title>
<path fill="none" stroke="midnightblue" d="M510.382,-246.29C500.458,-224.75 478.67,-168.249 504.671,-134 521.349,-112.031 594.962,-97.0518 643.021,-89.413"/>
<polygon fill="midnightblue" stroke="midnightblue" points="643.805,-92.8336 653.155,-87.8502 642.738,-85.9153 643.805,-92.8336"/>
</g>
<!-- Node26&#45;&gt;Node17 -->
<g id="edge54" class="edge"><title>Node26&#45;&gt;Node17</title>
<path fill="none" stroke="midnightblue" d="M553.011,-250.155C599.032,-243.728 678.194,-230.718 743.671,-210 787.639,-196.088 836.058,-172.841 864.615,-158.245"/>
<polygon fill="midnightblue" stroke="midnightblue" points="866.225,-161.353 873.502,-153.653 863.012,-155.134 866.225,-161.353"/>
</g>
<!-- Node27&#45;&gt;Node3 -->
<g id="edge57" class="edge"><title>Node27&#45;&gt;Node3</title>
<path fill="none" stroke="midnightblue" d="M1071.37,-307.86C1141.51,-300.554 1242.67,-276.867 1242.67,-201 1242.67,-201 1242.67,-201 1242.67,-143 1242.67,-105.432 1235.27,-90.1346 1205.67,-67 1173.87,-42.1456 1056.92,-26.2569 999.668,-19.7987"/>
<polygon fill="midnightblue" stroke="midnightblue" points="1000.03,-16.3174 989.707,-18.7025 999.264,-23.2754 1000.03,-16.3174"/>
</g>
<!-- Node27&#45;&gt;Node4 -->
<g id="edge58" class="edge"><title>Node27&#45;&gt;Node4</title>
<path fill="none" stroke="midnightblue" d="M994.424,-302.324C983.874,-294.185 967.87,-281.839 955.229,-272.087"/>
<polygon fill="midnightblue" stroke="midnightblue" points="957.178,-269.171 947.122,-265.834 952.902,-274.713 957.178,-269.171"/>
</g>
<!-- Node27&#45;&gt;Node17 -->
<g id="edge59" class="edge"><title>Node27&#45;&gt;Node17</title>
<path fill="none" stroke="midnightblue" d="M1005.2,-302.468C1004.16,-289.511 1000.89,-264.436 990.671,-246 970.525,-209.651 933.471,-177.609 910.281,-159.812"/>
<polygon fill="midnightblue" stroke="midnightblue" points="912.237,-156.905 902.136,-153.71 908.04,-162.507 912.237,-156.905"/>
</g>
</g>
</svg>
