<?xml version="1.0" encoding="UTF-8" standalone="no"?>
<!DOCTYPE svg PUBLIC "-//W3C//DTD SVG 1.1//EN"
 "http://www.w3.org/Graphics/SVG/1.1/DTD/svg11.dtd">
<!-- Generated by graphviz version 2.38.0 (20140413.2041)
 -->
<!-- Title: event_tree_analysis.cc Pages: 1 -->
<!--zoomable 442 -->
<svg id="main" version="1.1" xmlns="http://www.w3.org/2000/svg" xmlns:xlink="http://www.w3.org/1999/xlink" xml:space="preserve" onload="init(evt)">
<style type="text/css"><![CDATA[
.edge:hover path { stroke: red; }
.edge:hover polygon { stroke: red; fill: red; }
]]></style>
<script type="text/javascript"><![CDATA[
var edges = document.getElementsByTagName('g');
if (edges && edges.length) {
  for (var i=0;i<edges.length;i++) {
    if (edges[i].id.substr(0,4)=='edge') {
      edges[i].setAttribute('class','edge');
    }
  }
}
]]></script>
        <defs>
                <circle id="rim" cx="0" cy="0" r="7"/>
                <circle id="rim2" cx="0" cy="0" r="3.5"/>
                <g id="zoomPlus">
                        <use xlink:href="#rim" fill="#404040">
                                <set attributeName="fill" to="#808080" begin="zoomplus.mouseover" end="zoomplus.mouseout"/>
                        </use>
                        <path d="M-4,0h8M0,-4v8" fill="none" stroke="white" stroke-width="1.5" pointer-events="none"/>
                </g>
                <g id="zoomMin">
                        <use xlink:href="#rim" fill="#404040">
                                <set attributeName="fill" to="#808080" begin="zoomminus.mouseover" end="zoomminus.mouseout"/>
                        </use>
                        <path d="M-4,0h8" fill="none" stroke="white" stroke-width="1.5" pointer-events="none"/>
                </g>
                <g id="dirArrow">
                        <path fill="none" stroke="white" stroke-width="1.5" d="M0,-3.0v7 M-2.5,-0.5L0,-3.0L2.5,-0.5"/>
                </g>
               <g id="resetDef">
                       <use xlink:href="#rim2" fill="#404040">
                               <set attributeName="fill" to="#808080" begin="reset.mouseover" end="reset.mouseout"/>
                       </use>
               </g>
        </defs>

<script type="text/javascript">
var viewWidth = 1512;
var viewHeight = 442;
var sectionId = 'dynsection-0';
</script>
<script xlink:href="svgpan.js"/>
<svg id="graph" class="graph">
<g id="viewport">
<title>event_tree_analysis.cc</title>
<polygon fill="white" stroke="none" points="-4,4 -4,-438 1507.5,-438 1507.5,4 -4,4"/>
<!-- Node1 -->
<g id="node1" class="node"><title>Node1</title>
<polygon fill="#bfbfbf" stroke="black" points="1086.5,-414.5 1086.5,-433.5 1211.5,-433.5 1211.5,-414.5 1086.5,-414.5"/>
<text text-anchor="middle" x="1149" y="-421.5" font-family="Helvetica,sans-Serif" font-size="10.00">event_tree_analysis.cc</text>
</g>
<!-- Node2 -->
<g id="node2" class="node"><title>Node2</title>
<g id="a_node2"><a xlink:href="event__tree__analysis_8h.xhtml" target="_top" xlink:title="Event tree analysis facilities. ">
<polygon fill="white" stroke="black" points="636.5,-358.5 636.5,-377.5 757.5,-377.5 757.5,-358.5 636.5,-358.5"/>
<text text-anchor="middle" x="697" y="-365.5" font-family="Helvetica,sans-Serif" font-size="10.00">event_tree_analysis.h</text>
</a>
</g>
</g>
<!-- Node1&#45;&gt;Node2 -->
<g id="edge1" class="edge"><title>Node1&#45;&gt;Node2</title>
<path fill="none" stroke="midnightblue" d="M1086.15,-415.492C1002.5,-405.498 854.998,-387.876 767.602,-377.435"/>
<polygon fill="midnightblue" stroke="midnightblue" points="767.856,-373.94 757.512,-376.229 767.026,-380.891 767.856,-373.94"/>
</g>
<!-- Node27 -->
<g id="node27" class="node"><title>Node27</title>
<g id="a_node27"><a xlink:href="instruction_8h.xhtml" target="_top" xlink:title="Model and event tree modifier instructions. ">
<polygon fill="white" stroke="black" points="725,-246.5 725,-265.5 801,-265.5 801,-246.5 725,-246.5"/>
<text text-anchor="middle" x="763" y="-253.5" font-family="Helvetica,sans-Serif" font-size="10.00">instruction.h</text>
</a>
</g>
</g>
<!-- Node1&#45;&gt;Node27 -->
<g id="edge72" class="edge"><title>Node1&#45;&gt;Node27</title>
<path fill="none" stroke="midnightblue" d="M1129.06,-414.425C1065.53,-387.103 867.641,-302.001 792.419,-269.652"/>
<polygon fill="midnightblue" stroke="midnightblue" points="793.622,-266.359 783.053,-265.624 790.856,-272.79 793.622,-266.359"/>
</g>
<!-- Node29 -->
<g id="node29" class="node"><title>Node29</title>
<g id="a_node29"><a xlink:href="numerical_8h.xhtml" target="_top" xlink:title="A collection of numerical expressions. ">
<polygon fill="white" stroke="black" points="1177,-246.5 1177,-265.5 1305,-265.5 1305,-246.5 1177,-246.5"/>
<text text-anchor="middle" x="1241" y="-253.5" font-family="Helvetica,sans-Serif" font-size="10.00">expression/numerical.h</text>
</a>
</g>
</g>
<!-- Node1&#45;&gt;Node29 -->
<g id="edge62" class="edge"><title>Node1&#45;&gt;Node29</title>
<path fill="none" stroke="midnightblue" d="M1153.95,-414.075C1168.55,-387.719 1211.69,-309.878 1231.21,-274.661"/>
<polygon fill="midnightblue" stroke="midnightblue" points="1234.47,-276.011 1236.25,-265.568 1228.34,-272.618 1234.47,-276.011"/>
</g>
<!-- Node33 -->
<g id="node33" class="node"><title>Node33</title>
<g id="a_node33"><a xlink:href="find__iterator_8h.xhtml" target="_top" xlink:title="Convenience iterator adaptor to wrap find calls and results. ">
<polygon fill="white" stroke="black" points="1402.5,-358.5 1402.5,-377.5 1503.5,-377.5 1503.5,-358.5 1402.5,-358.5"/>
<text text-anchor="middle" x="1453" y="-365.5" font-family="Helvetica,sans-Serif" font-size="10.00">ext/find_iterator.h</text>
</a>
</g>
</g>
<!-- Node1&#45;&gt;Node33 -->
<g id="edge70" class="edge"><title>Node1&#45;&gt;Node33</title>
<path fill="none" stroke="midnightblue" d="M1197.17,-414.444C1250.87,-404.905 1337.69,-389.483 1395.05,-379.293"/>
<polygon fill="midnightblue" stroke="midnightblue" points="1395.82,-382.712 1405.06,-377.516 1394.6,-375.819 1395.82,-382.712"/>
</g>
<!-- Node3 -->
<g id="node3" class="node"><title>Node3</title>
<polygon fill="white" stroke="#bfbfbf" points="474.5,-134.5 474.5,-153.5 531.5,-153.5 531.5,-134.5 474.5,-134.5"/>
<text text-anchor="middle" x="503" y="-141.5" font-family="Helvetica,sans-Serif" font-size="10.00">memory</text>
</g>
<!-- Node2&#45;&gt;Node3 -->
<g id="edge2" class="edge"><title>Node2&#45;&gt;Node3</title>
<path fill="none" stroke="midnightblue" d="M636.473,-359.677C541.675,-346.764 365.413,-316.433 331,-266 292.404,-209.436 402.688,-170.805 464.416,-154.192"/>
<polygon fill="midnightblue" stroke="midnightblue" points="465.451,-157.54 474.24,-151.623 463.679,-150.767 465.451,-157.54"/>
</g>
<!-- Node4 -->
<g id="node4" class="node"><title>Node4</title>
<polygon fill="white" stroke="#bfbfbf" points="465,-6 465,-25 509,-25 509,-6 465,-6"/>
<text text-anchor="middle" x="487" y="-13" font-family="Helvetica,sans-Serif" font-size="10.00">string</text>
</g>
<!-- Node2&#45;&gt;Node4 -->
<g id="edge3" class="edge"><title>Node2&#45;&gt;Node4</title>
<path fill="none" stroke="midnightblue" d="M636.267,-362.389C558.258,-355.762 427.71,-342.089 384,-322 349.657,-306.216 340.241,-297.919 320,-266 272.549,-191.171 265.75,-125.837 332,-67 366.711,-36.1728 420.577,-24.1174 454.799,-19.4341"/>
<polygon fill="midnightblue" stroke="midnightblue" points="455.251,-22.905 464.746,-18.2047 454.393,-15.9578 455.251,-22.905"/>
</g>
<!-- Node5 -->
<g id="node5" class="node"><title>Node5</title>
<polygon fill="white" stroke="#bfbfbf" points="1056.5,-246.5 1056.5,-265.5 1149.5,-265.5 1149.5,-246.5 1056.5,-246.5"/>
<text text-anchor="middle" x="1103" y="-253.5" font-family="Helvetica,sans-Serif" font-size="10.00">unordered_map</text>
</g>
<!-- Node2&#45;&gt;Node5 -->
<g id="edge4" class="edge"><title>Node2&#45;&gt;Node5</title>
<path fill="none" stroke="midnightblue" d="M757.667,-364.111C862.649,-358.532 1069.31,-344.777 1093,-322 1105.2,-310.272 1106.63,-290.336 1105.66,-275.627"/>
<polygon fill="midnightblue" stroke="midnightblue" points="1109.14,-275.195 1104.6,-265.621 1102.18,-275.935 1109.14,-275.195"/>
</g>
<!-- Node6 -->
<g id="node6" class="node"><title>Node6</title>
<polygon fill="white" stroke="#bfbfbf" points="1028.5,-6 1028.5,-25 1075.5,-25 1075.5,-6 1028.5,-6"/>
<text text-anchor="middle" x="1052" y="-13" font-family="Helvetica,sans-Serif" font-size="10.00">vector</text>
</g>
<!-- Node2&#45;&gt;Node6 -->
<g id="edge5" class="edge"><title>Node2&#45;&gt;Node6</title>
<path fill="none" stroke="midnightblue" d="M757.554,-362.856C894.013,-352.609 1220.89,-322.71 1314,-266 1343.01,-248.332 1347.92,-238.752 1366,-210 1399.85,-156.165 1417.98,-109.865 1371,-67 1329.74,-29.3564 1159.54,-19.7189 1086.05,-17.2955"/>
<polygon fill="midnightblue" stroke="midnightblue" points="1086.03,-13.7936 1075.93,-16.9878 1085.82,-20.7903 1086.03,-13.7936"/>
</g>
<!-- Node7 -->
<g id="node7" class="node"><title>Node7</title>
<g id="a_node7"><a xlink:href="analysis_8h.xhtml" target="_top" xlink:title="Common facilities for all analysis classes. ">
<polygon fill="white" stroke="black" points="158,-134.5 158,-153.5 222,-153.5 222,-134.5 158,-134.5"/>
<text text-anchor="middle" x="190" y="-141.5" font-family="Helvetica,sans-Serif" font-size="10.00">analysis.h</text>
</a>
</g>
</g>
<!-- Node2&#45;&gt;Node7 -->
<g id="edge6" class="edge"><title>Node2&#45;&gt;Node7</title>
<path fill="none" stroke="midnightblue" d="M636.342,-365.284C515.116,-361.282 251.924,-349.499 222,-322 177.393,-281.007 182.017,-200.494 186.873,-163.902"/>
<polygon fill="midnightblue" stroke="midnightblue" points="190.385,-164.076 188.395,-153.67 183.462,-163.046 190.385,-164.076"/>
</g>
<!-- Node10 -->
<g id="node10" class="node"><title>Node10</title>
<g id="a_node10"><a xlink:href="settings_8h.xhtml" target="_top" xlink:title="Builder for settings. ">
<polygon fill="white" stroke="black" points="66,-73 66,-92 130,-92 130,-73 66,-73"/>
<text text-anchor="middle" x="98" y="-80" font-family="Helvetica,sans-Serif" font-size="10.00">settings.h</text>
</a>
</g>
</g>
<!-- Node2&#45;&gt;Node10 -->
<g id="edge61" class="edge"><title>Node2&#45;&gt;Node10</title>
<path fill="none" stroke="midnightblue" d="M636.365,-363.781C466.789,-353.977 0,-321.162 0,-257 0,-257 0,-257 0,-199 0,-153.44 44.8841,-116.647 73.901,-97.6212"/>
<polygon fill="midnightblue" stroke="midnightblue" points="76.0962,-100.375 82.6875,-92.0798 72.3621,-94.4538 76.0962,-100.375"/>
</g>
<!-- Node12 -->
<g id="node12" class="node"><title>Node12</title>
<g id="a_node12"><a xlink:href="event_8h.xhtml" target="_top" xlink:title="Contains event classes for fault trees. ">
<polygon fill="white" stroke="black" points="588.5,-190.5 588.5,-209.5 641.5,-209.5 641.5,-190.5 588.5,-190.5"/>
<text text-anchor="middle" x="615" y="-197.5" font-family="Helvetica,sans-Serif" font-size="10.00">event.h</text>
</a>
</g>
</g>
<!-- Node2&#45;&gt;Node12 -->
<g id="edge13" class="edge"><title>Node2&#45;&gt;Node12</title>
<path fill="none" stroke="midnightblue" d="M692.591,-358.075C679.572,-331.719 641.12,-253.878 623.724,-218.661"/>
<polygon fill="midnightblue" stroke="midnightblue" points="626.799,-216.984 619.232,-209.568 620.523,-220.084 626.799,-216.984"/>
</g>
<!-- Node18 -->
<g id="node18" class="node"><title>Node18</title>
<g id="a_node18"><a xlink:href="expression_8h.xhtml" target="_top" xlink:title="Provides the base class for all expressions and units for expression values. ">
<polygon fill="white" stroke="black" points="980.5,-134.5 980.5,-153.5 1057.5,-153.5 1057.5,-134.5 980.5,-134.5"/>
<text text-anchor="middle" x="1019" y="-141.5" font-family="Helvetica,sans-Serif" font-size="10.00">expression.h</text>
</a>
</g>
</g>
<!-- Node2&#45;&gt;Node18 -->
<g id="edge56" class="edge"><title>Node2&#45;&gt;Node18</title>
<path fill="none" stroke="midnightblue" d="M714.837,-358.5C748.4,-342.228 822.799,-304.832 881,-266 914.142,-243.887 921.015,-236.235 951,-210 969.494,-193.819 989.74,-174.204 1003.29,-160.781"/>
<polygon fill="midnightblue" stroke="midnightblue" points="1005.82,-163.205 1010.43,-153.667 1000.87,-158.246 1005.82,-163.205"/>
</g>
<!-- Node25 -->
<g id="node25" class="node"><title>Node25</title>
<g id="a_node25"><a xlink:href="event__tree_8h.xhtml" target="_top" xlink:title="Event Tree facilities. ">
<polygon fill="white" stroke="black" points="483.5,-302.5 483.5,-321.5 560.5,-321.5 560.5,-302.5 483.5,-302.5"/>
<text text-anchor="middle" x="522" y="-309.5" font-family="Helvetica,sans-Serif" font-size="10.00">event_tree.h</text>
</a>
</g>
</g>
<!-- Node2&#45;&gt;Node25 -->
<g id="edge39" class="edge"><title>Node2&#45;&gt;Node25</title>
<path fill="none" stroke="midnightblue" d="M669.271,-358.444C639.574,-349.28 592.284,-334.688 559.331,-324.519"/>
<polygon fill="midnightblue" stroke="midnightblue" points="560.187,-321.121 549.6,-321.516 558.123,-327.809 560.187,-321.121"/>
</g>
<!-- Node28 -->
<g id="node28" class="node"><title>Node28</title>
<g id="a_node28"><a xlink:href="test__event_8h.xhtml" target="_top" xlink:title="Event tree analysis expressions to test functional and initiating events. ">
<polygon fill="white" stroke="black" points="953.5,-302.5 953.5,-321.5 1084.5,-321.5 1084.5,-302.5 953.5,-302.5"/>
<text text-anchor="middle" x="1019" y="-309.5" font-family="Helvetica,sans-Serif" font-size="10.00">expression/test_event.h</text>
</a>
</g>
</g>
<!-- Node2&#45;&gt;Node28 -->
<g id="edge57" class="edge"><title>Node2&#45;&gt;Node28</title>
<path fill="none" stroke="midnightblue" d="M748.022,-358.444C805.018,-348.885 897.239,-333.419 958,-323.23"/>
<polygon fill="midnightblue" stroke="midnightblue" points="958.933,-326.622 968.217,-321.516 957.776,-319.719 958.933,-326.622"/>
</g>
<!-- Node7&#45;&gt;Node4 -->
<g id="edge8" class="edge"><title>Node7&#45;&gt;Node4</title>
<path fill="none" stroke="midnightblue" d="M194.459,-134.324C203.181,-118.282 224.112,-84.0632 252,-67 316.366,-27.6178 407.05,-18.6748 454.759,-16.8186"/>
<polygon fill="midnightblue" stroke="midnightblue" points="454.928,-20.3151 464.816,-16.5089 454.713,-13.3184 454.928,-20.3151"/>
</g>
<!-- Node8 -->
<g id="node8" class="node"><title>Node8</title>
<polygon fill="white" stroke="#bfbfbf" points="148,-73 148,-92 200,-92 200,-73 148,-73"/>
<text text-anchor="middle" x="174" y="-80" font-family="Helvetica,sans-Serif" font-size="10.00">cassert</text>
</g>
<!-- Node7&#45;&gt;Node8 -->
<g id="edge7" class="edge"><title>Node7&#45;&gt;Node8</title>
<path fill="none" stroke="midnightblue" d="M187.708,-134.475C185.426,-125.992 181.853,-112.704 178.927,-101.822"/>
<polygon fill="midnightblue" stroke="midnightblue" points="182.265,-100.757 176.288,-92.0091 175.505,-102.575 182.265,-100.757"/>
</g>
<!-- Node9 -->
<g id="node9" class="node"><title>Node9</title>
<polygon fill="white" stroke="#bfbfbf" points="510,-73 510,-92 638,-92 638,-73 510,-73"/>
<text text-anchor="middle" x="574" y="-80" font-family="Helvetica,sans-Serif" font-size="10.00">boost/noncopyable.hpp</text>
</g>
<!-- Node7&#45;&gt;Node9 -->
<g id="edge9" class="edge"><title>Node7&#45;&gt;Node9</title>
<path fill="none" stroke="midnightblue" d="M222.079,-138.029C284.978,-128.283 425.605,-106.493 508.795,-93.6033"/>
<polygon fill="midnightblue" stroke="midnightblue" points="509.549,-97.0284 518.895,-92.0384 508.477,-90.1109 509.549,-97.0284"/>
</g>
<!-- Node7&#45;&gt;Node10 -->
<g id="edge10" class="edge"><title>Node7&#45;&gt;Node10</title>
<path fill="none" stroke="midnightblue" d="M176.819,-134.475C161.926,-124.843 137.456,-109.017 119.727,-97.5517"/>
<polygon fill="midnightblue" stroke="midnightblue" points="121.455,-94.5008 111.157,-92.0091 117.653,-100.379 121.455,-94.5008"/>
</g>
<!-- Node10&#45;&gt;Node4 -->
<g id="edge12" class="edge"><title>Node10&#45;&gt;Node4</title>
<path fill="none" stroke="midnightblue" d="M119.888,-72.8684C126.001,-70.7032 132.696,-68.5562 139,-67 253.063,-38.8426 392.294,-24.4811 454.395,-19.0857"/>
<polygon fill="midnightblue" stroke="midnightblue" points="455.056,-22.5423 464.724,-18.2098 454.464,-15.5674 455.056,-22.5423"/>
</g>
<!-- Node11 -->
<g id="node11" class="node"><title>Node11</title>
<polygon fill="white" stroke="#bfbfbf" points="73.5,-6 73.5,-25 122.5,-25 122.5,-6 73.5,-6"/>
<text text-anchor="middle" x="98" y="-13" font-family="Helvetica,sans-Serif" font-size="10.00">cstdint</text>
</g>
<!-- Node10&#45;&gt;Node11 -->
<g id="edge11" class="edge"><title>Node10&#45;&gt;Node11</title>
<path fill="none" stroke="midnightblue" d="M98,-72.7338C98,-63.1826 98,-47.6183 98,-35.2829"/>
<polygon fill="midnightblue" stroke="midnightblue" points="101.5,-35.1273 98,-25.1273 94.5001,-35.1273 101.5,-35.1273"/>
</g>
<!-- Node12&#45;&gt;Node3 -->
<g id="edge15" class="edge"><title>Node12&#45;&gt;Node3</title>
<path fill="none" stroke="midnightblue" d="M597.005,-190.324C578.962,-181.625 550.953,-168.12 530.197,-158.113"/>
<polygon fill="midnightblue" stroke="midnightblue" points="531.478,-154.845 520.95,-153.655 528.438,-161.15 531.478,-154.845"/>
</g>
<!-- Node12&#45;&gt;Node4 -->
<g id="edge16" class="edge"><title>Node12&#45;&gt;Node4</title>
<path fill="none" stroke="midnightblue" d="M605.053,-190.342C577.6,-166.427 502.68,-101.018 501,-98 490.22,-78.6353 487.35,-52.9887 486.771,-35.6783"/>
<polygon fill="midnightblue" stroke="midnightblue" points="490.266,-35.1702 486.666,-25.2056 483.266,-35.2401 490.266,-35.1702"/>
</g>
<!-- Node12&#45;&gt;Node6 -->
<g id="edge17" class="edge"><title>Node12&#45;&gt;Node6</title>
<path fill="none" stroke="midnightblue" d="M631.792,-190.381C682.821,-164.269 835.759,-86.6208 888,-67 944.525,-45.7701 962.098,-51.1984 1019,-31 1020.66,-30.4099 1022.36,-29.774 1024.06,-29.1095"/>
<polygon fill="midnightblue" stroke="midnightblue" points="1025.8,-32.1784 1033.69,-25.1109 1023.11,-25.7137 1025.8,-32.1784"/>
</g>
<!-- Node12&#45;&gt;Node9 -->
<g id="edge18" class="edge"><title>Node12&#45;&gt;Node9</title>
<path fill="none" stroke="midnightblue" d="M611.918,-190.319C605.27,-171.59 589.458,-127.046 580.493,-101.792"/>
<polygon fill="midnightblue" stroke="midnightblue" points="583.761,-100.535 577.117,-92.282 577.164,-102.877 583.761,-100.535"/>
</g>
<!-- Node12&#45;&gt;Node11 -->
<g id="edge14" class="edge"><title>Node12&#45;&gt;Node11</title>
<path fill="none" stroke="midnightblue" d="M588.451,-197.995C502.343,-194.494 231.608,-181.516 149,-154 103.585,-138.873 80.4518,-139.73 57,-98 44.463,-75.6918 64.0802,-49.0804 80.2598,-32.4825"/>
<polygon fill="midnightblue" stroke="midnightblue" points="83.0265,-34.675 87.7704,-25.2016 78.1542,-29.649 83.0265,-34.675"/>
</g>
<!-- Node13 -->
<g id="node13" class="node"><title>Node13</title>
<polygon fill="white" stroke="#bfbfbf" points="316.5,-134.5 316.5,-153.5 417.5,-153.5 417.5,-134.5 316.5,-134.5"/>
<text text-anchor="middle" x="367" y="-141.5" font-family="Helvetica,sans-Serif" font-size="10.00">boost/variant.hpp</text>
</g>
<!-- Node12&#45;&gt;Node13 -->
<g id="edge19" class="edge"><title>Node12&#45;&gt;Node13</title>
<path fill="none" stroke="midnightblue" d="M588.46,-193.221C547.459,-184.293 468.054,-167.004 416.308,-155.737"/>
<polygon fill="midnightblue" stroke="midnightblue" points="416.863,-152.275 406.348,-153.568 415.374,-159.115 416.863,-152.275"/>
</g>
<!-- Node14 -->
<g id="node14" class="node"><title>Node14</title>
<g id="a_node14"><a xlink:href="element_8h.xhtml" target="_top" xlink:title="Helper classes, structs, and properties common to all other classes. ">
<polygon fill="white" stroke="black" points="732.5,-73 732.5,-92 797.5,-92 797.5,-73 732.5,-73"/>
<text text-anchor="middle" x="765" y="-80" font-family="Helvetica,sans-Serif" font-size="10.00">element.h</text>
</a>
</g>
</g>
<!-- Node12&#45;&gt;Node14 -->
<g id="edge20" class="edge"><title>Node12&#45;&gt;Node14</title>
<path fill="none" stroke="midnightblue" d="M626.274,-190.319C651.684,-170.753 713.679,-123.017 745.481,-98.5295"/>
<polygon fill="midnightblue" stroke="midnightblue" points="747.807,-101.156 753.595,-92.282 743.536,-95.6098 747.807,-101.156"/>
</g>
<!-- Node12&#45;&gt;Node18 -->
<g id="edge27" class="edge"><title>Node12&#45;&gt;Node18</title>
<path fill="none" stroke="midnightblue" d="M641.508,-195.457C708.308,-186.528 884.334,-163 970.327,-151.506"/>
<polygon fill="midnightblue" stroke="midnightblue" points="970.906,-154.96 980.354,-150.166 969.979,-148.021 970.906,-154.96"/>
</g>
<!-- Node14&#45;&gt;Node4 -->
<g id="edge22" class="edge"><title>Node14&#45;&gt;Node4</title>
<path fill="none" stroke="midnightblue" d="M739.294,-72.9765C732.421,-70.8607 724.966,-68.7113 718,-67 632.414,-45.9737 607.632,-55.5866 523,-31 520.566,-30.2928 518.069,-29.4802 515.581,-28.6085"/>
<polygon fill="midnightblue" stroke="midnightblue" points="516.771,-25.3167 506.18,-25.0517 514.294,-31.8638 516.771,-25.3167"/>
</g>
<!-- Node14&#45;&gt;Node6 -->
<g id="edge23" class="edge"><title>Node14&#45;&gt;Node6</title>
<path fill="none" stroke="midnightblue" d="M790.695,-72.9276C797.568,-70.8122 805.025,-68.6752 812,-67 902.799,-45.1917 929.601,-57.9793 1019,-31 1020.93,-30.4169 1022.9,-29.7506 1024.87,-29.0314"/>
<polygon fill="midnightblue" stroke="midnightblue" points="1026.53,-32.1328 1034.49,-25.1333 1023.9,-25.6452 1026.53,-32.1328"/>
</g>
<!-- Node14&#45;&gt;Node11 -->
<g id="edge21" class="edge"><title>Node14&#45;&gt;Node11</title>
<path fill="none" stroke="midnightblue" d="M732.475,-77.2322C708.794,-74.1911 675.936,-70.108 647,-67 452.866,-46.1485 219.529,-26.4623 132.732,-19.3242"/>
<polygon fill="midnightblue" stroke="midnightblue" points="132.903,-15.8265 122.65,-18.4973 132.331,-22.8031 132.903,-15.8265"/>
</g>
<!-- Node15 -->
<g id="node15" class="node"><title>Node15</title>
<polygon fill="white" stroke="#bfbfbf" points="838,-6 838,-25 1010,-25 1010,-6 838,-6"/>
<text text-anchor="middle" x="924" y="-13" font-family="Helvetica,sans-Serif" font-size="10.00">boost/multi_index_container.hpp</text>
</g>
<!-- Node14&#45;&gt;Node15 -->
<g id="edge24" class="edge"><title>Node14&#45;&gt;Node15</title>
<path fill="none" stroke="midnightblue" d="M786.114,-72.8685C813.631,-61.6193 861.948,-41.8673 893.459,-28.9853"/>
<polygon fill="midnightblue" stroke="midnightblue" points="895.12,-32.0875 903.052,-25.0637 892.471,-25.6081 895.12,-32.0875"/>
</g>
<!-- Node16 -->
<g id="node16" class="node"><title>Node16</title>
<polygon fill="white" stroke="#bfbfbf" points="532,-0.5 532,-30.5 672,-30.5 672,-0.5 532,-0.5"/>
<text text-anchor="start" x="540" y="-18.5" font-family="Helvetica,sans-Serif" font-size="10.00">boost/multi_index/hashed</text>
<text text-anchor="middle" x="602" y="-7.5" font-family="Helvetica,sans-Serif" font-size="10.00">_index.hpp</text>
</g>
<!-- Node14&#45;&gt;Node16 -->
<g id="edge25" class="edge"><title>Node14&#45;&gt;Node16</title>
<path fill="none" stroke="midnightblue" d="M743.355,-72.8685C718.79,-63.0728 678.057,-46.8296 646.611,-34.2897"/>
<polygon fill="midnightblue" stroke="midnightblue" points="647.763,-30.9812 637.178,-30.5281 645.17,-37.4833 647.763,-30.9812"/>
</g>
<!-- Node17 -->
<g id="node17" class="node"><title>Node17</title>
<polygon fill="white" stroke="#bfbfbf" points="690,-0.5 690,-30.5 820,-30.5 820,-0.5 690,-0.5"/>
<text text-anchor="start" x="698" y="-18.5" font-family="Helvetica,sans-Serif" font-size="10.00">boost/multi_index/mem</text>
<text text-anchor="middle" x="755" y="-7.5" font-family="Helvetica,sans-Serif" font-size="10.00">_fun.hpp</text>
</g>
<!-- Node14&#45;&gt;Node17 -->
<g id="edge26" class="edge"><title>Node14&#45;&gt;Node17</title>
<path fill="none" stroke="midnightblue" d="M763.651,-72.7338C762.391,-64.5406 760.45,-51.9225 758.725,-40.7136"/>
<polygon fill="midnightblue" stroke="midnightblue" points="762.147,-39.9405 757.168,-30.589 755.229,-41.005 762.147,-39.9405"/>
</g>
<!-- Node18&#45;&gt;Node4 -->
<g id="edge30" class="edge"><title>Node18&#45;&gt;Node4</title>
<path fill="none" stroke="midnightblue" d="M999.466,-134.411C962.472,-118.513 879.319,-84.5254 806,-67 682.683,-37.5234 645.7,-62.9474 523,-31 520.49,-30.3464 517.92,-29.5614 515.366,-28.6993"/>
<polygon fill="midnightblue" stroke="midnightblue" points="516.342,-25.3277 505.749,-25.1076 513.893,-31.8853 516.342,-25.3277"/>
</g>
<!-- Node18&#45;&gt;Node6 -->
<g id="edge32" class="edge"><title>Node18&#45;&gt;Node6</title>
<path fill="none" stroke="midnightblue" d="M1057.64,-140.959C1115.42,-137.008 1220,-126.078 1243,-98 1287.8,-43.311 1151.91,-24.5857 1085.85,-18.8162"/>
<polygon fill="midnightblue" stroke="midnightblue" points="1085.76,-15.2974 1075.51,-17.9691 1085.19,-22.274 1085.76,-15.2974"/>
</g>
<!-- Node18&#45;&gt;Node9 -->
<g id="edge34" class="edge"><title>Node18&#45;&gt;Node9</title>
<path fill="none" stroke="midnightblue" d="M980.288,-137.824C906.227,-127.921 743.373,-106.147 647.861,-93.3759"/>
<polygon fill="midnightblue" stroke="midnightblue" points="648.072,-89.873 637.697,-92.0167 647.145,-96.8112 648.072,-89.873"/>
</g>
<!-- Node18&#45;&gt;Node14 -->
<g id="edge35" class="edge"><title>Node18&#45;&gt;Node14</title>
<path fill="none" stroke="midnightblue" d="M982.608,-134.475C936.376,-123.645 856.719,-104.985 807.674,-93.4965"/>
<polygon fill="midnightblue" stroke="midnightblue" points="808.231,-90.0322 797.696,-91.1591 806.634,-96.8478 808.231,-90.0322"/>
</g>
<!-- Node19 -->
<g id="node19" class="node"><title>Node19</title>
<polygon fill="white" stroke="#bfbfbf" points="968,-73 968,-92 1030,-92 1030,-73 968,-73"/>
<text text-anchor="middle" x="999" y="-80" font-family="Helvetica,sans-Serif" font-size="10.00">algorithm</text>
</g>
<!-- Node18&#45;&gt;Node19 -->
<g id="edge28" class="edge"><title>Node18&#45;&gt;Node19</title>
<path fill="none" stroke="midnightblue" d="M1016.13,-134.475C1013.28,-125.992 1008.82,-112.704 1005.16,-101.822"/>
<polygon fill="midnightblue" stroke="midnightblue" points="1008.36,-100.373 1001.86,-92.0091 1001.73,-102.603 1008.36,-100.373"/>
</g>
<!-- Node20 -->
<g id="node20" class="node"><title>Node20</title>
<polygon fill="white" stroke="#bfbfbf" points="1048,-73 1048,-92 1104,-92 1104,-73 1048,-73"/>
<text text-anchor="middle" x="1076" y="-80" font-family="Helvetica,sans-Serif" font-size="10.00">sstream</text>
</g>
<!-- Node18&#45;&gt;Node20 -->
<g id="edge29" class="edge"><title>Node18&#45;&gt;Node20</title>
<path fill="none" stroke="midnightblue" d="M1027.17,-134.475C1035.89,-125.373 1049.9,-110.741 1060.69,-99.483"/>
<polygon fill="midnightblue" stroke="midnightblue" points="1063.46,-101.651 1067.85,-92.0091 1058.4,-96.809 1063.46,-101.651"/>
</g>
<!-- Node21 -->
<g id="node21" class="node"><title>Node21</title>
<polygon fill="white" stroke="#bfbfbf" points="1432,-73 1432,-92 1474,-92 1474,-73 1432,-73"/>
<text text-anchor="middle" x="1453" y="-80" font-family="Helvetica,sans-Serif" font-size="10.00">utility</text>
</g>
<!-- Node18&#45;&gt;Node21 -->
<g id="edge31" class="edge"><title>Node18&#45;&gt;Node21</title>
<path fill="none" stroke="midnightblue" d="M1057.51,-137.72C1142.32,-126.094 1343.8,-98.4711 1421.6,-87.8054"/>
<polygon fill="midnightblue" stroke="midnightblue" points="1422.3,-91.2423 1431.73,-86.4164 1421.34,-84.3072 1422.3,-91.2423"/>
</g>
<!-- Node22 -->
<g id="node22" class="node"><title>Node22</title>
<polygon fill="white" stroke="#bfbfbf" points="1122,-67.5 1122,-97.5 1234,-97.5 1234,-67.5 1122,-67.5"/>
<text text-anchor="start" x="1130" y="-85.5" font-family="Helvetica,sans-Serif" font-size="10.00">boost/icl/continuous</text>
<text text-anchor="middle" x="1178" y="-74.5" font-family="Helvetica,sans-Serif" font-size="10.00">_interval.hpp</text>
</g>
<!-- Node18&#45;&gt;Node22 -->
<g id="edge33" class="edge"><title>Node18&#45;&gt;Node22</title>
<path fill="none" stroke="midnightblue" d="M1041.78,-134.475C1064.93,-125.814 1101.45,-112.145 1130.86,-101.141"/>
<polygon fill="midnightblue" stroke="midnightblue" points="1132.39,-104.306 1140.53,-97.523 1129.93,-97.7498 1132.39,-104.306"/>
</g>
<!-- Node23 -->
<g id="node23" class="node"><title>Node23</title>
<g id="a_node23"><a xlink:href="error_8h.xhtml" target="_top" xlink:title="Exceptions for SCRAM. ">
<polygon fill="white" stroke="black" points="1290,-73 1290,-92 1338,-92 1338,-73 1290,-73"/>
<text text-anchor="middle" x="1314" y="-80" font-family="Helvetica,sans-Serif" font-size="10.00">error.h</text>
</a>
</g>
</g>
<!-- Node18&#45;&gt;Node23 -->
<g id="edge36" class="edge"><title>Node18&#45;&gt;Node23</title>
<path fill="none" stroke="midnightblue" d="M1057.82,-138.553C1108.6,-132.205 1200.02,-118.942 1276,-98 1278.65,-97.2689 1281.38,-96.4244 1284.09,-95.5179"/>
<polygon fill="midnightblue" stroke="midnightblue" points="1285.5,-98.731 1293.73,-92.0557 1283.13,-92.1434 1285.5,-98.731"/>
</g>
<!-- Node23&#45;&gt;Node4 -->
<g id="edge38" class="edge"><title>Node23&#45;&gt;Node4</title>
<path fill="none" stroke="midnightblue" d="M1289.83,-75.6176C1276.17,-72.5311 1258.73,-68.9874 1243,-67 925.128,-26.8296 835.925,-99.8036 523,-31 520.162,-30.376 517.259,-29.5508 514.392,-28.6098"/>
<polygon fill="midnightblue" stroke="midnightblue" points="515.532,-25.2995 504.939,-25.089 513.089,-31.8593 515.532,-25.2995"/>
</g>
<!-- Node24 -->
<g id="node24" class="node"><title>Node24</title>
<polygon fill="white" stroke="#bfbfbf" points="1282.5,-6 1282.5,-25 1345.5,-25 1345.5,-6 1282.5,-6"/>
<text text-anchor="middle" x="1314" y="-13" font-family="Helvetica,sans-Serif" font-size="10.00">exception</text>
</g>
<!-- Node23&#45;&gt;Node24 -->
<g id="edge37" class="edge"><title>Node23&#45;&gt;Node24</title>
<path fill="none" stroke="midnightblue" d="M1314,-72.7338C1314,-63.1826 1314,-47.6183 1314,-35.2829"/>
<polygon fill="midnightblue" stroke="midnightblue" points="1317.5,-35.1273 1314,-25.1273 1310.5,-35.1273 1317.5,-35.1273"/>
</g>
<!-- Node25&#45;&gt;Node3 -->
<g id="edge40" class="edge"><title>Node25&#45;&gt;Node3</title>
<path fill="none" stroke="midnightblue" d="M520.978,-302.075C517.988,-275.945 509.205,-199.211 505.126,-163.577"/>
<polygon fill="midnightblue" stroke="midnightblue" points="508.595,-163.105 503.981,-153.568 501.641,-163.901 508.595,-163.105"/>
</g>
<!-- Node25&#45;&gt;Node4 -->
<g id="edge41" class="edge"><title>Node25&#45;&gt;Node4</title>
<path fill="none" stroke="midnightblue" d="M483.426,-306.783C433.924,-300.577 351.923,-287.352 331,-266 295.37,-229.639 312.363,-204.625 307,-154 306.064,-145.161 302.768,-141.817 307,-134 338.501,-75.8189 412.698,-41.8695 455.348,-26.4928"/>
<polygon fill="midnightblue" stroke="midnightblue" points="456.663,-29.7409 464.958,-23.1499 454.364,-23.1295 456.663,-29.7409"/>
</g>
<!-- Node25&#45;&gt;Node6 -->
<g id="edge42" class="edge"><title>Node25&#45;&gt;Node6</title>
<path fill="none" stroke="midnightblue" d="M560.593,-309.098C629.519,-305.04 770.293,-293.551 810,-266 893.384,-208.144 844.821,-132.906 922,-67 956.969,-37.1385 976.376,-48.2566 1019,-31 1020.41,-30.4276 1021.86,-29.8327 1023.31,-29.2249"/>
<polygon fill="midnightblue" stroke="midnightblue" points="1025.07,-32.2794 1032.89,-25.1253 1022.32,-25.8446 1025.07,-32.2794"/>
</g>
<!-- Node25&#45;&gt;Node9 -->
<g id="edge43" class="edge"><title>Node25&#45;&gt;Node9</title>
<path fill="none" stroke="midnightblue" d="M514.262,-302.223C491.425,-275.211 428.156,-191.677 465,-134 477.365,-114.643 499.265,-102.595 520.207,-95.1491"/>
<polygon fill="midnightblue" stroke="midnightblue" points="521.303,-98.4729 529.723,-92.0423 519.131,-91.8186 521.303,-98.4729"/>
</g>
<!-- Node25&#45;&gt;Node13 -->
<g id="edge44" class="edge"><title>Node25&#45;&gt;Node13</title>
<path fill="none" stroke="midnightblue" d="M511.222,-302.483C500.402,-293.75 483.452,-279.562 470,-266 435.202,-230.917 398.675,-185.693 379.874,-161.693"/>
<polygon fill="midnightblue" stroke="midnightblue" points="382.48,-159.342 373.577,-153.599 376.955,-163.641 382.48,-159.342"/>
</g>
<!-- Node25&#45;&gt;Node14 -->
<g id="edge45" class="edge"><title>Node25&#45;&gt;Node14</title>
<path fill="none" stroke="midnightblue" d="M534.145,-302.391C557.486,-285.641 609.849,-247.049 650,-210 674.962,-186.967 679.128,-179.108 702,-154 718.817,-135.538 737.897,-114.12 750.61,-99.7801"/>
<polygon fill="midnightblue" stroke="midnightblue" points="753.285,-102.038 757.294,-92.2307 748.044,-97.3976 753.285,-102.038"/>
</g>
<!-- Node26 -->
<g id="node26" class="node"><title>Node26</title>
<g id="a_node26"><a xlink:href="variant_8h.xhtml" target="_top" xlink:title="Extra helper functions for boost::variant. ">
<polygon fill="white" stroke="black" points="340.5,-246.5 340.5,-265.5 417.5,-265.5 417.5,-246.5 340.5,-246.5"/>
<text text-anchor="middle" x="379" y="-253.5" font-family="Helvetica,sans-Serif" font-size="10.00">ext/variant.h</text>
</a>
</g>
</g>
<!-- Node25&#45;&gt;Node26 -->
<g id="edge46" class="edge"><title>Node25&#45;&gt;Node26</title>
<path fill="none" stroke="midnightblue" d="M499.341,-302.444C475.598,-293.478 438.091,-279.314 411.262,-269.183"/>
<polygon fill="midnightblue" stroke="midnightblue" points="412.144,-265.775 401.553,-265.516 409.671,-272.324 412.144,-265.775"/>
</g>
<!-- Node25&#45;&gt;Node27 -->
<g id="edge48" class="edge"><title>Node25&#45;&gt;Node27</title>
<path fill="none" stroke="midnightblue" d="M560.187,-302.444C602.141,-293.043 669.594,-277.929 715.071,-267.739"/>
<polygon fill="midnightblue" stroke="midnightblue" points="715.999,-271.118 724.991,-265.516 714.468,-264.288 715.999,-271.118"/>
</g>
<!-- Node26&#45;&gt;Node13 -->
<g id="edge47" class="edge"><title>Node26&#45;&gt;Node13</title>
<path fill="none" stroke="midnightblue" d="M378.058,-246.368C376.122,-228.617 371.655,-187.666 369.029,-163.597"/>
<polygon fill="midnightblue" stroke="midnightblue" points="372.501,-163.153 367.937,-153.591 365.542,-163.912 372.501,-163.153"/>
</g>
<!-- Node27&#45;&gt;Node3 -->
<g id="edge49" class="edge"><title>Node27&#45;&gt;Node3</title>
<path fill="none" stroke="midnightblue" d="M724.896,-250.938C686.369,-245.653 625.97,-234.078 579,-210 554.753,-197.57 531.673,-175.952 517.441,-161.083"/>
<polygon fill="midnightblue" stroke="midnightblue" points="519.868,-158.554 510.494,-153.618 514.744,-163.323 519.868,-158.554"/>
</g>
<!-- Node27&#45;&gt;Node4 -->
<g id="edge50" class="edge"><title>Node27&#45;&gt;Node4</title>
<path fill="none" stroke="midnightblue" d="M760.218,-246.338C750.187,-216.512 712.935,-117.151 647,-67 601.324,-32.2587 577.239,-49.7437 523,-31 521.089,-30.3398 519.132,-29.6352 517.166,-28.9056"/>
<polygon fill="midnightblue" stroke="midnightblue" points="518.016,-25.4818 507.426,-25.1405 515.492,-32.0109 518.016,-25.4818"/>
</g>
<!-- Node27&#45;&gt;Node6 -->
<g id="edge51" class="edge"><title>Node27&#45;&gt;Node6</title>
<path fill="none" stroke="midnightblue" d="M777.605,-246.425C791.468,-237.975 812.569,-224.286 829,-210 893.818,-153.642 891.421,-120.016 959,-67 978.538,-51.6721 1003.37,-38.4522 1022.46,-29.3873"/>
<polygon fill="midnightblue" stroke="midnightblue" points="1023.99,-32.5372 1031.59,-25.1584 1021.04,-26.1854 1023.99,-32.5372"/>
</g>
<!-- Node27&#45;&gt;Node9 -->
<g id="edge52" class="edge"><title>Node27&#45;&gt;Node9</title>
<path fill="none" stroke="midnightblue" d="M747.762,-246.466C733.292,-238.044 711.248,-224.376 694,-210 651.567,-174.632 608.654,-125.409 587.506,-100.055"/>
<polygon fill="midnightblue" stroke="midnightblue" points="590.038,-97.6237 580.97,-92.1437 584.642,-102.082 590.038,-97.6237"/>
</g>
<!-- Node27&#45;&gt;Node12 -->
<g id="edge54" class="edge"><title>Node27&#45;&gt;Node12</title>
<path fill="none" stroke="midnightblue" d="M739.549,-246.444C714.867,-237.438 675.815,-223.189 648.023,-213.049"/>
<polygon fill="midnightblue" stroke="midnightblue" points="648.935,-209.656 638.341,-209.516 646.536,-216.232 648.935,-209.656"/>
</g>
<!-- Node27&#45;&gt;Node14 -->
<g id="edge53" class="edge"><title>Node27&#45;&gt;Node14</title>
<path fill="none" stroke="midnightblue" d="M772.765,-246.49C790.295,-230.484 826.525,-193.9 840,-154 842.844,-145.578 844.176,-141.847 840,-134 830.937,-116.972 813.294,-104.656 797.396,-96.4509"/>
<polygon fill="midnightblue" stroke="midnightblue" points="798.845,-93.2641 788.315,-92.0907 795.815,-99.5744 798.845,-93.2641"/>
</g>
<!-- Node27&#45;&gt;Node18 -->
<g id="edge55" class="edge"><title>Node27&#45;&gt;Node18</title>
<path fill="none" stroke="midnightblue" d="M801.309,-247.282C833.595,-240.002 880.543,-227.572 919,-210 949.214,-196.194 980.832,-174.165 1000.23,-159.641"/>
<polygon fill="midnightblue" stroke="midnightblue" points="1002.39,-162.393 1008.23,-153.552 998.153,-156.822 1002.39,-162.393"/>
</g>
<!-- Node28&#45;&gt;Node4 -->
<g id="edge58" class="edge"><title>Node28&#45;&gt;Node4</title>
<path fill="none" stroke="midnightblue" d="M1007.19,-302.48C948.041,-259.816 686.429,-71.2636 677,-67 612.954,-38.0393 590.019,-52.1927 523,-31 520.723,-30.2801 518.387,-29.4816 516.052,-28.6402"/>
<polygon fill="midnightblue" stroke="midnightblue" points="517.198,-25.3315 506.608,-25.03 514.699,-31.87 517.198,-25.3315"/>
</g>
<!-- Node28&#45;&gt;Node5 -->
<g id="edge59" class="edge"><title>Node28&#45;&gt;Node5</title>
<path fill="none" stroke="midnightblue" d="M1032.5,-302.324C1045.6,-293.9 1065.71,-280.971 1081.11,-271.074"/>
<polygon fill="midnightblue" stroke="midnightblue" points="1083.02,-274.006 1089.54,-265.655 1079.23,-268.118 1083.02,-274.006"/>
</g>
<!-- Node28&#45;&gt;Node18 -->
<g id="edge60" class="edge"><title>Node28&#45;&gt;Node18</title>
<path fill="none" stroke="midnightblue" d="M1019,-302.075C1019,-275.945 1019,-199.211 1019,-163.577"/>
<polygon fill="midnightblue" stroke="midnightblue" points="1022.5,-163.568 1019,-153.568 1015.5,-163.568 1022.5,-163.568"/>
</g>
<!-- Node29&#45;&gt;Node6 -->
<g id="edge65" class="edge"><title>Node29&#45;&gt;Node6</title>
<path fill="none" stroke="midnightblue" d="M1289.69,-246.444C1310.69,-240.089 1333.3,-229.067 1346,-210 1381.22,-157.097 1387.98,-115.585 1347,-67 1313.86,-27.7078 1155.75,-18.986 1085.63,-17.0511"/>
<polygon fill="midnightblue" stroke="midnightblue" points="1085.63,-13.5503 1075.55,-16.8036 1085.46,-20.5482 1085.63,-13.5503"/>
</g>
<!-- Node29&#45;&gt;Node18 -->
<g id="edge69" class="edge"><title>Node29&#45;&gt;Node18</title>
<path fill="none" stroke="midnightblue" d="M1176.76,-246.461C1144.68,-240.043 1106.34,-228.962 1076,-210 1056.58,-197.863 1040.06,-177.104 1029.88,-162.312"/>
<polygon fill="midnightblue" stroke="midnightblue" points="1032.57,-160.027 1024.14,-153.603 1026.72,-163.879 1032.57,-160.027"/>
</g>
<!-- Node29&#45;&gt;Node23 -->
<g id="edge68" class="edge"><title>Node29&#45;&gt;Node23</title>
<path fill="none" stroke="midnightblue" d="M1229.01,-246.439C1213.79,-234.442 1190.59,-211.661 1200,-190 1218.22,-148.038 1262.03,-115.087 1289.72,-97.5223"/>
<polygon fill="midnightblue" stroke="midnightblue" points="1291.75,-100.384 1298.44,-92.1648 1288.08,-94.4204 1291.75,-100.384"/>
</g>
<!-- Node30 -->
<g id="node30" class="node"><title>Node30</title>
<polygon fill="white" stroke="#bfbfbf" points="1290.5,-190.5 1290.5,-209.5 1337.5,-209.5 1337.5,-190.5 1290.5,-190.5"/>
<text text-anchor="middle" x="1314" y="-197.5" font-family="Helvetica,sans-Serif" font-size="10.00">cmath</text>
</g>
<!-- Node29&#45;&gt;Node30 -->
<g id="edge63" class="edge"><title>Node29&#45;&gt;Node30</title>
<path fill="none" stroke="midnightblue" d="M1252.73,-246.324C1263.84,-238.107 1280.74,-225.602 1293.98,-215.807"/>
<polygon fill="midnightblue" stroke="midnightblue" points="1296.1,-218.595 1302.06,-209.834 1291.94,-212.967 1296.1,-218.595"/>
</g>
<!-- Node31 -->
<g id="node31" class="node"><title>Node31</title>
<polygon fill="white" stroke="#bfbfbf" points="1209.5,-190.5 1209.5,-209.5 1272.5,-209.5 1272.5,-190.5 1209.5,-190.5"/>
<text text-anchor="middle" x="1241" y="-197.5" font-family="Helvetica,sans-Serif" font-size="10.00">functional</text>
</g>
<!-- Node29&#45;&gt;Node31 -->
<g id="edge64" class="edge"><title>Node29&#45;&gt;Node31</title>
<path fill="none" stroke="midnightblue" d="M1241,-246.083C1241,-239.006 1241,-228.861 1241,-219.986"/>
<polygon fill="midnightblue" stroke="midnightblue" points="1244.5,-219.751 1241,-209.751 1237.5,-219.751 1244.5,-219.751"/>
</g>
<!-- Node32 -->
<g id="node32" class="node"><title>Node32</title>
<g id="a_node32"><a xlink:href="constant_8h.xhtml" target="_top" xlink:title="Constant expressions that cannot have uncertainties. ">
<polygon fill="white" stroke="black" points="1085,-190.5 1085,-209.5 1153,-209.5 1153,-190.5 1085,-190.5"/>
<text text-anchor="middle" x="1119" y="-197.5" font-family="Helvetica,sans-Serif" font-size="10.00">constant.h</text>
</a>
</g>
</g>
<!-- Node29&#45;&gt;Node32 -->
<g id="edge66" class="edge"><title>Node29&#45;&gt;Node32</title>
<path fill="none" stroke="midnightblue" d="M1221.67,-246.444C1201.68,-237.596 1170.26,-223.687 1147.44,-213.586"/>
<polygon fill="midnightblue" stroke="midnightblue" points="1148.8,-210.363 1138.24,-209.516 1145.97,-216.764 1148.8,-210.363"/>
</g>
<!-- Node32&#45;&gt;Node18 -->
<g id="edge67" class="edge"><title>Node32&#45;&gt;Node18</title>
<path fill="none" stroke="midnightblue" d="M1102.93,-190.324C1087.04,-181.743 1062.49,-168.486 1044.04,-158.522"/>
<polygon fill="midnightblue" stroke="midnightblue" points="1045.49,-155.326 1035.03,-153.655 1042.16,-161.486 1045.49,-155.326"/>
</g>
<!-- Node33&#45;&gt;Node21 -->
<g id="edge71" class="edge"><title>Node33&#45;&gt;Node21</title>
<path fill="none" stroke="midnightblue" d="M1453,-358.442C1453,-339.936 1453,-294.812 1453,-257 1453,-257 1453,-257 1453,-199 1453,-164.864 1453,-125.052 1453,-102.209"/>
<polygon fill="midnightblue" stroke="midnightblue" points="1456.5,-102.193 1453,-92.1934 1449.5,-102.193 1456.5,-102.193"/>
</g>
</g>
</svg>
        <g id="navigator" transform="translate(0 0)" fill="#404254">
                <rect fill="#f2f5e9" fill-opacity="0.5" stroke="#606060" stroke-width=".5" x="0" y="0" width="60" height="60"/>
                <use id="zoomplus" xlink:href="#zoomPlus" x="17" y="9" onmousedown="handleZoom(evt,'in')"/>
                <use id="zoomminus" xlink:href="#zoomMin" x="42" y="9" onmousedown="handleZoom(evt,'out')"/>
                <use id="reset" xlink:href="#resetDef" x="30" y="36" onmousedown="handleReset()"/>
                <g id="arrowUp" xlink:href="#dirArrow" transform="translate(30 24)" onmousedown="handlePan(0,-1)">
                  <use xlink:href="#rim" fill="#404040">
                        <set attributeName="fill" to="#808080" begin="arrowUp.mouseover" end="arrowUp.mouseout"/>
                  </use>
                  <path fill="none" stroke="white" stroke-width="1.5" d="M0,-3.0v7 M-2.5,-0.5L0,-3.0L2.5,-0.5"/>
                </g>
                <g id="arrowRight" xlink:href="#dirArrow" transform="rotate(90) translate(36 -43)" onmousedown="handlePan(1,0)">
                  <use xlink:href="#rim" fill="#404040">
                        <set attributeName="fill" to="#808080" begin="arrowRight.mouseover" end="arrowRight.mouseout"/>
                  </use>
                  <path fill="none" stroke="white" stroke-width="1.5" d="M0,-3.0v7 M-2.5,-0.5L0,-3.0L2.5,-0.5"/>
                </g>
                <g id="arrowDown" xlink:href="#dirArrow" transform="rotate(180) translate(-30 -48)" onmousedown="handlePan(0,1)">
                  <use xlink:href="#rim" fill="#404040">
                        <set attributeName="fill" to="#808080" begin="arrowDown.mouseover" end="arrowDown.mouseout"/>
                  </use>
                  <path fill="none" stroke="white" stroke-width="1.5" d="M0,-3.0v7 M-2.5,-0.5L0,-3.0L2.5,-0.5"/>
                </g>
                <g id="arrowLeft" xlink:href="#dirArrow" transform="rotate(270) translate(-36 17)" onmousedown="handlePan(-1,0)">
                  <use xlink:href="#rim" fill="#404040">
                        <set attributeName="fill" to="#808080" begin="arrowLeft.mouseover" end="arrowLeft.mouseout"/>
                  </use>
                  <path fill="none" stroke="white" stroke-width="1.5" d="M0,-3.0v7 M-2.5,-0.5L0,-3.0L2.5,-0.5"/>
                </g>
        </g>
        <svg viewBox="0 0 15 15" width="100%" height="30px" preserveAspectRatio="xMaxYMin meet">
         <g id="arrow_out" transform="scale(0.3 0.3)">
          <a xlink:href="event__tree__analysis_8cc__incl_org.svg" target="_base">
           <rect id="button" ry="5" rx="5" y="6" x="6" height="38" width="38"
                fill="#f2f5e9" fill-opacity="0.5" stroke="#606060" stroke-width="1.0"/>
           <path id="arrow"
             d="M 11.500037,31.436501 C 11.940474,20.09759 22.043105,11.32322 32.158766,21.979434 L 37.068811,17.246167 C 37.068811,17.246167 37.088388,32 37.088388,32 L 22.160133,31.978069 C 22.160133,31.978069 26.997745,27.140456 26.997745,27.140456 C 18.528582,18.264221 13.291696,25.230495 11.500037,31.436501 z"
             style="fill:#404040;"/>
          </a>
         </g>
        </svg>
</svg>
