<?xml version="1.0" encoding="UTF-8" standalone="no"?>
<!DOCTYPE svg PUBLIC "-//W3C//DTD SVG 1.1//EN"
 "http://www.w3.org/Graphics/SVG/1.1/DTD/svg11.dtd">
<!-- Generated by graphviz version 2.38.0 (20140413.2041)
 -->
<!-- Title: event_tree.cc Pages: 1 -->
<!--zoomable 386 -->
<svg id="main" version="1.1" xmlns="http://www.w3.org/2000/svg" xmlns:xlink="http://www.w3.org/1999/xlink" xml:space="preserve" onload="init(evt)">
<style type="text/css"><![CDATA[
.edge:hover path { stroke: red; }
.edge:hover polygon { stroke: red; fill: red; }
]]></style>
<script type="text/javascript"><![CDATA[
var edges = document.getElementsByTagName('g');
if (edges && edges.length) {
  for (var i=0;i<edges.length;i++) {
    if (edges[i].id.substr(0,4)=='edge') {
      edges[i].setAttribute('class','edge');
    }
  }
}
]]></script>
        <defs>
                <circle id="rim" cx="0" cy="0" r="7"/>
                <circle id="rim2" cx="0" cy="0" r="3.5"/>
                <g id="zoomPlus">
                        <use xlink:href="#rim" fill="#404040">
                                <set attributeName="fill" to="#808080" begin="zoomplus.mouseover" end="zoomplus.mouseout"/>
                        </use>
                        <path d="M-4,0h8M0,-4v8" fill="none" stroke="white" stroke-width="1.5" pointer-events="none"/>
                </g>
                <g id="zoomMin">
                        <use xlink:href="#rim" fill="#404040">
                                <set attributeName="fill" to="#808080" begin="zoomminus.mouseover" end="zoomminus.mouseout"/>
                        </use>
                        <path d="M-4,0h8" fill="none" stroke="white" stroke-width="1.5" pointer-events="none"/>
                </g>
                <g id="dirArrow">
                        <path fill="none" stroke="white" stroke-width="1.5" d="M0,-3.0v7 M-2.5,-0.5L0,-3.0L2.5,-0.5"/>
                </g>
               <g id="resetDef">
                       <use xlink:href="#rim2" fill="#404040">
                               <set attributeName="fill" to="#808080" begin="reset.mouseover" end="reset.mouseout"/>
                       </use>
               </g>
        </defs>

<script type="text/javascript">
var viewWidth = 970;
var viewHeight = 386;
var sectionId = 'dynsection-0';
</script>
<script xlink:href="svgpan.js"/>
<svg id="graph" class="graph">
<g id="viewport">
<title>event_tree.cc</title>
<polygon fill="white" stroke="none" points="-4,4 -4,-382 965.5,-382 965.5,4 -4,4"/>
<!-- Node1 -->
<g id="node1" class="node"><title>Node1</title>
<polygon fill="#bfbfbf" stroke="black" points="863,-358.5 863,-377.5 945,-377.5 945,-358.5 863,-358.5"/>
<text text-anchor="middle" x="904" y="-365.5" font-family="Helvetica,sans-Serif" font-size="10.00">event_tree.cc</text>
</g>
<!-- Node2 -->
<g id="node2" class="node"><title>Node2</title>
<g id="a_node2"><a xlink:href="event__tree_8h.xhtml" target="_top" xlink:title="Event Tree facilities. ">
<polygon fill="white" stroke="black" points="527.5,-302.5 527.5,-321.5 604.5,-321.5 604.5,-302.5 527.5,-302.5"/>
<text text-anchor="middle" x="566" y="-309.5" font-family="Helvetica,sans-Serif" font-size="10.00">event_tree.h</text>
</a>
</g>
</g>
<!-- Node1&#45;&gt;Node2 -->
<g id="edge1" class="edge"><title>Node1&#45;&gt;Node2</title>
<path fill="none" stroke="midnightblue" d="M862.892,-360.433C800.435,-350.454 681.854,-331.509 615.006,-320.829"/>
<polygon fill="midnightblue" stroke="midnightblue" points="615.165,-317.31 604.738,-319.189 614.061,-324.223 615.165,-317.31"/>
</g>
<!-- Node17 -->
<g id="node17" class="node"><title>Node17</title>
<polygon fill="white" stroke="#bfbfbf" points="788,-73 788,-92 850,-92 850,-73 788,-73"/>
<text text-anchor="middle" x="819" y="-80" font-family="Helvetica,sans-Serif" font-size="10.00">algorithm</text>
</g>
<!-- Node1&#45;&gt;Node17 -->
<g id="edge43" class="edge"><title>Node1&#45;&gt;Node17</title>
<path fill="none" stroke="midnightblue" d="M904,-358.442C904,-339.936 904,-294.812 904,-257 904,-257 904,-257 904,-199 904,-155.794 864.94,-118.09 839.776,-98.2827"/>
<polygon fill="midnightblue" stroke="midnightblue" points="841.626,-95.2931 831.542,-92.0434 837.399,-100.872 841.626,-95.2931"/>
</g>
<!-- Node21 -->
<g id="node21" class="node"><title>Node21</title>
<g id="a_node21"><a xlink:href="error_8h.xhtml" target="_top" xlink:title="Exceptions for SCRAM. ">
<polygon fill="white" stroke="black" points="906,-73 906,-92 954,-92 954,-73 906,-73"/>
<text text-anchor="middle" x="930" y="-80" font-family="Helvetica,sans-Serif" font-size="10.00">error.h</text>
</a>
</g>
</g>
<!-- Node1&#45;&gt;Node21 -->
<g id="edge44" class="edge"><title>Node1&#45;&gt;Node21</title>
<path fill="none" stroke="midnightblue" d="M909.284,-358.231C919.725,-340.043 942,-296.601 942,-257 942,-257 942,-257 942,-199 942,-164.68 936.693,-124.929 933.138,-102.147"/>
<polygon fill="midnightblue" stroke="midnightblue" points="936.574,-101.473 931.52,-92.1614 929.664,-102.593 936.574,-101.473"/>
</g>
<!-- Node3 -->
<g id="node3" class="node"><title>Node3</title>
<polygon fill="white" stroke="#bfbfbf" points="537.5,-134.5 537.5,-153.5 594.5,-153.5 594.5,-134.5 537.5,-134.5"/>
<text text-anchor="middle" x="566" y="-141.5" font-family="Helvetica,sans-Serif" font-size="10.00">memory</text>
</g>
<!-- Node2&#45;&gt;Node3 -->
<g id="edge2" class="edge"><title>Node2&#45;&gt;Node3</title>
<path fill="none" stroke="midnightblue" d="M566,-302.075C566,-275.945 566,-199.211 566,-163.577"/>
<polygon fill="midnightblue" stroke="midnightblue" points="569.5,-163.568 566,-153.568 562.5,-163.568 569.5,-163.568"/>
</g>
<!-- Node4 -->
<g id="node4" class="node"><title>Node4</title>
<polygon fill="white" stroke="#bfbfbf" points="753,-6 753,-25 797,-25 797,-6 753,-6"/>
<text text-anchor="middle" x="775" y="-13" font-family="Helvetica,sans-Serif" font-size="10.00">string</text>
</g>
<!-- Node2&#45;&gt;Node4 -->
<g id="edge3" class="edge"><title>Node2&#45;&gt;Node4</title>
<path fill="none" stroke="midnightblue" d="M591.79,-302.384C653.234,-280.213 807.009,-214.599 859,-98 864.611,-85.4165 865.783,-78.9924 859,-67 847.8,-47.1985 825.388,-34.3061 806.53,-26.507"/>
<polygon fill="midnightblue" stroke="midnightblue" points="807.66,-23.1921 797.07,-22.8832 805.156,-29.7289 807.66,-23.1921"/>
</g>
<!-- Node5 -->
<g id="node5" class="node"><title>Node5</title>
<polygon fill="white" stroke="#bfbfbf" points="124.5,-6 124.5,-25 171.5,-25 171.5,-6 124.5,-6"/>
<text text-anchor="middle" x="148" y="-13" font-family="Helvetica,sans-Serif" font-size="10.00">vector</text>
</g>
<!-- Node2&#45;&gt;Node5 -->
<g id="edge4" class="edge"><title>Node2&#45;&gt;Node5</title>
<path fill="none" stroke="midnightblue" d="M527.097,-311.72C399.221,-313.056 0,-308.61 0,-201 0,-201 0,-201 0,-143 0,-82.979 71.207,-45.3605 114.838,-27.944"/>
<polygon fill="midnightblue" stroke="midnightblue" points="116.142,-31.1923 124.221,-24.3381 113.631,-24.6582 116.142,-31.1923"/>
</g>
<!-- Node6 -->
<g id="node6" class="node"><title>Node6</title>
<polygon fill="white" stroke="#bfbfbf" points="66,-73 66,-92 194,-92 194,-73 66,-73"/>
<text text-anchor="middle" x="130" y="-80" font-family="Helvetica,sans-Serif" font-size="10.00">boost/noncopyable.hpp</text>
</g>
<!-- Node2&#45;&gt;Node6 -->
<g id="edge5" class="edge"><title>Node2&#45;&gt;Node6</title>
<path fill="none" stroke="midnightblue" d="M527.167,-305.161C488.058,-298.51 426.452,-285.909 376,-266 282.673,-229.172 254.325,-221.394 180,-154 163.039,-138.621 148.535,-116.531 139.583,-101.192"/>
<polygon fill="midnightblue" stroke="midnightblue" points="142.49,-99.2209 134.533,-92.2256 136.391,-102.656 142.49,-99.2209"/>
</g>
<!-- Node7 -->
<g id="node7" class="node"><title>Node7</title>
<polygon fill="white" stroke="#bfbfbf" points="612.5,-134.5 612.5,-153.5 713.5,-153.5 713.5,-134.5 612.5,-134.5"/>
<text text-anchor="middle" x="663" y="-141.5" font-family="Helvetica,sans-Serif" font-size="10.00">boost/variant.hpp</text>
</g>
<!-- Node2&#45;&gt;Node7 -->
<g id="edge6" class="edge"><title>Node2&#45;&gt;Node7</title>
<path fill="none" stroke="midnightblue" d="M585.926,-302.461C616.081,-288.299 672.206,-256.796 695,-210 703.119,-193.331 691.279,-174.308 679.772,-161.167"/>
<polygon fill="midnightblue" stroke="midnightblue" points="682.243,-158.687 672.832,-153.82 677.154,-163.493 682.243,-158.687"/>
</g>
<!-- Node8 -->
<g id="node8" class="node"><title>Node8</title>
<g id="a_node8"><a xlink:href="element_8h.xhtml" target="_top" xlink:title="Helper classes, structs, and properties common to all other classes. ">
<polygon fill="white" stroke="black" points="326.5,-73 326.5,-92 391.5,-92 391.5,-73 326.5,-73"/>
<text text-anchor="middle" x="359" y="-80" font-family="Helvetica,sans-Serif" font-size="10.00">element.h</text>
</a>
</g>
</g>
<!-- Node2&#45;&gt;Node8 -->
<g id="edge7" class="edge"><title>Node2&#45;&gt;Node8</title>
<path fill="none" stroke="midnightblue" d="M527.339,-308.923C490.724,-305.181 435.859,-294.781 398,-266 347.511,-227.618 351.432,-141.228 356.074,-102.69"/>
<polygon fill="midnightblue" stroke="midnightblue" points="359.598,-102.753 357.478,-92.3723 352.662,-101.809 359.598,-102.753"/>
</g>
<!-- Node13 -->
<g id="node13" class="node"><title>Node13</title>
<g id="a_node13"><a xlink:href="variant_8h.xhtml" target="_top" xlink:title="Extra helper functions for boost::variant. ">
<polygon fill="white" stroke="black" points="609.5,-190.5 609.5,-209.5 686.5,-209.5 686.5,-190.5 609.5,-190.5"/>
<text text-anchor="middle" x="648" y="-197.5" font-family="Helvetica,sans-Serif" font-size="10.00">ext/variant.h</text>
</a>
</g>
</g>
<!-- Node2&#45;&gt;Node13 -->
<g id="edge14" class="edge"><title>Node2&#45;&gt;Node13</title>
<path fill="none" stroke="midnightblue" d="M572.434,-302.368C586.027,-284.135 617.864,-241.426 635.569,-217.675"/>
<polygon fill="midnightblue" stroke="midnightblue" points="638.425,-219.701 641.595,-209.591 632.813,-215.517 638.425,-219.701"/>
</g>
<!-- Node14 -->
<g id="node14" class="node"><title>Node14</title>
<g id="a_node14"><a xlink:href="instruction_8h.xhtml" target="_top" xlink:title="Model and event tree modifier instructions. ">
<polygon fill="white" stroke="black" points="407,-246.5 407,-265.5 483,-265.5 483,-246.5 407,-246.5"/>
<text text-anchor="middle" x="445" y="-253.5" font-family="Helvetica,sans-Serif" font-size="10.00">instruction.h</text>
</a>
</g>
</g>
<!-- Node2&#45;&gt;Node14 -->
<g id="edge16" class="edge"><title>Node2&#45;&gt;Node14</title>
<path fill="none" stroke="midnightblue" d="M546.827,-302.444C527.091,-293.636 496.115,-279.812 473.507,-269.722"/>
<polygon fill="midnightblue" stroke="midnightblue" points="474.641,-266.396 464.083,-265.516 471.789,-272.788 474.641,-266.396"/>
</g>
<!-- Node8&#45;&gt;Node4 -->
<g id="edge9" class="edge"><title>Node8&#45;&gt;Node4</title>
<path fill="none" stroke="midnightblue" d="M383.647,-72.9165C390.785,-70.6987 398.639,-68.5126 406,-67 553.98,-36.5903 598.474,-71.559 744,-31 745.932,-30.4616 747.893,-29.8132 749.842,-29.0931"/>
<polygon fill="midnightblue" stroke="midnightblue" points="751.465,-32.2064 759.298,-25.0727 748.726,-25.7645 751.465,-32.2064"/>
</g>
<!-- Node8&#45;&gt;Node5 -->
<g id="edge10" class="edge"><title>Node8&#45;&gt;Node5</title>
<path fill="none" stroke="midnightblue" d="M326.196,-73.8226C289.938,-64.9743 230.044,-49.2794 180,-31 178.385,-30.4101 176.738,-29.7744 175.085,-29.11"/>
<polygon fill="midnightblue" stroke="midnightblue" points="176.313,-25.8287 165.743,-25.1117 173.559,-32.2641 176.313,-25.8287"/>
</g>
<!-- Node9 -->
<g id="node9" class="node"><title>Node9</title>
<polygon fill="white" stroke="#bfbfbf" points="189.5,-6 189.5,-25 238.5,-25 238.5,-6 189.5,-6"/>
<text text-anchor="middle" x="214" y="-13" font-family="Helvetica,sans-Serif" font-size="10.00">cstdint</text>
</g>
<!-- Node8&#45;&gt;Node9 -->
<g id="edge8" class="edge"><title>Node8&#45;&gt;Node9</title>
<path fill="none" stroke="midnightblue" d="M339.745,-72.8685C314.829,-61.699 271.212,-42.1468 242.465,-29.2602"/>
<polygon fill="midnightblue" stroke="midnightblue" points="243.891,-26.064 233.335,-25.1672 241.028,-32.4516 243.891,-26.064"/>
</g>
<!-- Node10 -->
<g id="node10" class="node"><title>Node10</title>
<polygon fill="white" stroke="#bfbfbf" points="257,-6 257,-25 429,-25 429,-6 257,-6"/>
<text text-anchor="middle" x="343" y="-13" font-family="Helvetica,sans-Serif" font-size="10.00">boost/multi_index_container.hpp</text>
</g>
<!-- Node8&#45;&gt;Node10 -->
<g id="edge11" class="edge"><title>Node8&#45;&gt;Node10</title>
<path fill="none" stroke="midnightblue" d="M356.842,-72.7338C354.467,-63.0852 350.582,-47.3001 347.531,-34.9063"/>
<polygon fill="midnightblue" stroke="midnightblue" points="350.912,-34.0009 345.124,-25.1273 344.115,-35.674 350.912,-34.0009"/>
</g>
<!-- Node11 -->
<g id="node11" class="node"><title>Node11</title>
<polygon fill="white" stroke="#bfbfbf" points="447,-0.5 447,-30.5 587,-30.5 587,-0.5 447,-0.5"/>
<text text-anchor="start" x="455" y="-18.5" font-family="Helvetica,sans-Serif" font-size="10.00">boost/multi_index/hashed</text>
<text text-anchor="middle" x="517" y="-7.5" font-family="Helvetica,sans-Serif" font-size="10.00">_index.hpp</text>
</g>
<!-- Node8&#45;&gt;Node11 -->
<g id="edge12" class="edge"><title>Node8&#45;&gt;Node11</title>
<path fill="none" stroke="midnightblue" d="M379.981,-72.8685C403.69,-63.115 442.936,-46.9696 473.363,-34.452"/>
<polygon fill="midnightblue" stroke="midnightblue" points="474.985,-37.5695 482.901,-30.5281 472.321,-31.0959 474.985,-37.5695"/>
</g>
<!-- Node12 -->
<g id="node12" class="node"><title>Node12</title>
<polygon fill="white" stroke="#bfbfbf" points="605,-0.5 605,-30.5 735,-30.5 735,-0.5 605,-0.5"/>
<text text-anchor="start" x="613" y="-18.5" font-family="Helvetica,sans-Serif" font-size="10.00">boost/multi_index/mem</text>
<text text-anchor="middle" x="670" y="-7.5" font-family="Helvetica,sans-Serif" font-size="10.00">_fun.hpp</text>
</g>
<!-- Node8&#45;&gt;Node12 -->
<g id="edge13" class="edge"><title>Node8&#45;&gt;Node12</title>
<path fill="none" stroke="midnightblue" d="M384.712,-72.9986C391.585,-70.8827 399.038,-68.7277 406,-67 486.321,-47.0672 509.875,-47.2217 594.564,-31.2515"/>
<polygon fill="midnightblue" stroke="midnightblue" points="595.467,-34.6424 604.634,-29.3311 594.156,-27.7663 595.467,-34.6424"/>
</g>
<!-- Node13&#45;&gt;Node7 -->
<g id="edge15" class="edge"><title>Node13&#45;&gt;Node7</title>
<path fill="none" stroke="midnightblue" d="M650.477,-190.083C652.486,-182.849 655.386,-172.409 657.89,-163.397"/>
<polygon fill="midnightblue" stroke="midnightblue" points="661.265,-164.323 660.569,-153.751 654.52,-162.449 661.265,-164.323"/>
</g>
<!-- Node14&#45;&gt;Node3 -->
<g id="edge17" class="edge"><title>Node14&#45;&gt;Node3</title>
<path fill="none" stroke="midnightblue" d="M454.495,-246.368C474.905,-227.814 523.196,-183.913 549.019,-160.438"/>
<polygon fill="midnightblue" stroke="midnightblue" points="551.504,-162.908 556.549,-153.591 546.796,-157.728 551.504,-162.908"/>
</g>
<!-- Node14&#45;&gt;Node4 -->
<g id="edge18" class="edge"><title>Node14&#45;&gt;Node4</title>
<path fill="none" stroke="midnightblue" d="M483.033,-252.352C544.538,-247.393 662.258,-234.881 695,-210 752.164,-166.561 768.741,-74.9747 773.332,-35.388"/>
<polygon fill="midnightblue" stroke="midnightblue" points="776.83,-35.5862 774.369,-25.2812 769.866,-34.8719 776.83,-35.5862"/>
</g>
<!-- Node14&#45;&gt;Node5 -->
<g id="edge19" class="edge"><title>Node14&#45;&gt;Node5</title>
<path fill="none" stroke="midnightblue" d="M406.704,-253.483C324.368,-247.86 131.906,-221.482 57,-98 49.8541,-86.2202 50.0101,-78.873 57,-67 69.3677,-45.9921 93.9759,-33.1008 114.487,-25.6059"/>
<polygon fill="midnightblue" stroke="midnightblue" points="115.796,-28.8581 124.155,-22.3482 113.561,-22.2246 115.796,-28.8581"/>
</g>
<!-- Node14&#45;&gt;Node6 -->
<g id="edge20" class="edge"><title>Node14&#45;&gt;Node6</title>
<path fill="none" stroke="midnightblue" d="M417.554,-246.381C372.226,-231.469 279.799,-198.164 210,-154 185.222,-138.322 160.48,-115.056 145.215,-99.5941"/>
<polygon fill="midnightblue" stroke="midnightblue" points="147.62,-97.0458 138.147,-92.3011 142.593,-101.918 147.62,-97.0458"/>
</g>
<!-- Node14&#45;&gt;Node8 -->
<g id="edge21" class="edge"><title>Node14&#45;&gt;Node8</title>
<path fill="none" stroke="midnightblue" d="M423.944,-246.487C408.64,-239.157 388.79,-227.05 378,-210 356.896,-176.652 355.936,-128.648 357.322,-102.403"/>
<polygon fill="midnightblue" stroke="midnightblue" points="360.823,-102.52 358.035,-92.2991 353.84,-102.028 360.823,-102.52"/>
</g>
<!-- Node15 -->
<g id="node15" class="node"><title>Node15</title>
<g id="a_node15"><a xlink:href="event_8h.xhtml" target="_top" xlink:title="Contains event classes for fault trees. ">
<polygon fill="white" stroke="black" points="387.5,-190.5 387.5,-209.5 440.5,-209.5 440.5,-190.5 387.5,-190.5"/>
<text text-anchor="middle" x="414" y="-197.5" font-family="Helvetica,sans-Serif" font-size="10.00">event.h</text>
</a>
</g>
</g>
<!-- Node14&#45;&gt;Node15 -->
<g id="edge22" class="edge"><title>Node14&#45;&gt;Node15</title>
<path fill="none" stroke="midnightblue" d="M439.881,-246.083C435.592,-238.613 429.342,-227.724 424.058,-218.52"/>
<polygon fill="midnightblue" stroke="midnightblue" points="427.038,-216.681 419.024,-209.751 420.967,-220.166 427.038,-216.681"/>
</g>
<!-- Node16 -->
<g id="node16" class="node"><title>Node16</title>
<g id="a_node16"><a xlink:href="expression_8h.xhtml" target="_top" xlink:title="Provides the base class for all expressions and units for expression values. ">
<polygon fill="white" stroke="black" points="442.5,-134.5 442.5,-153.5 519.5,-153.5 519.5,-134.5 442.5,-134.5"/>
<text text-anchor="middle" x="481" y="-141.5" font-family="Helvetica,sans-Serif" font-size="10.00">expression.h</text>
</a>
</g>
</g>
<!-- Node14&#45;&gt;Node16 -->
<g id="edge42" class="edge"><title>Node14&#45;&gt;Node16</title>
<path fill="none" stroke="midnightblue" d="M447.825,-246.368C453.661,-228.537 467.158,-187.295 475.02,-163.272"/>
<polygon fill="midnightblue" stroke="midnightblue" points="478.404,-164.184 478.188,-153.591 471.751,-162.007 478.404,-164.184"/>
</g>
<!-- Node15&#45;&gt;Node3 -->
<g id="edge24" class="edge"><title>Node15&#45;&gt;Node3</title>
<path fill="none" stroke="midnightblue" d="M438.085,-190.444C463.545,-181.399 503.894,-167.064 532.459,-156.916"/>
<polygon fill="midnightblue" stroke="midnightblue" points="533.777,-160.162 542.028,-153.516 531.433,-153.566 533.777,-160.162"/>
</g>
<!-- Node15&#45;&gt;Node4 -->
<g id="edge25" class="edge"><title>Node15&#45;&gt;Node4</title>
<path fill="none" stroke="midnightblue" d="M412.565,-190.308C409.192,-166.549 403.521,-100.089 439,-67 488.911,-20.4517 678.363,-49.6967 744,-31 745.929,-30.4506 747.887,-29.7941 749.835,-29.0682"/>
<polygon fill="midnightblue" stroke="midnightblue" points="751.463,-32.179 759.288,-25.0358 748.716,-25.7404 751.463,-32.179"/>
</g>
<!-- Node15&#45;&gt;Node5 -->
<g id="edge26" class="edge"><title>Node15&#45;&gt;Node5</title>
<path fill="none" stroke="midnightblue" d="M397.374,-190.444C366.102,-174.079 296.829,-136.534 243,-98 213.886,-77.1587 182.896,-49.3844 164.504,-32.2347"/>
<polygon fill="midnightblue" stroke="midnightblue" points="166.674,-29.4703 156.993,-25.1658 161.877,-34.5679 166.674,-29.4703"/>
</g>
<!-- Node15&#45;&gt;Node6 -->
<g id="edge27" class="edge"><title>Node15&#45;&gt;Node6</title>
<path fill="none" stroke="midnightblue" d="M387.215,-193.741C354.512,-186.829 297.889,-173.265 252,-154 214.565,-138.284 174.391,-113.314 150.764,-97.6944"/>
<polygon fill="midnightblue" stroke="midnightblue" points="152.532,-94.6661 142.275,-92.012 148.638,-100.483 152.532,-94.6661"/>
</g>
<!-- Node15&#45;&gt;Node7 -->
<g id="edge28" class="edge"><title>Node15&#45;&gt;Node7</title>
<path fill="none" stroke="midnightblue" d="M440.647,-193.221C481.814,-184.293 561.539,-167.004 613.493,-155.737"/>
<polygon fill="midnightblue" stroke="midnightblue" points="614.463,-159.108 623.494,-153.568 612.979,-152.267 614.463,-159.108"/>
</g>
<!-- Node15&#45;&gt;Node8 -->
<g id="edge29" class="edge"><title>Node15&#45;&gt;Node8</title>
<path fill="none" stroke="midnightblue" d="M409.866,-190.319C400.908,-171.506 379.546,-126.648 367.55,-101.455"/>
<polygon fill="midnightblue" stroke="midnightblue" points="370.641,-99.8058 363.182,-92.282 364.321,-102.815 370.641,-99.8058"/>
</g>
<!-- Node15&#45;&gt;Node9 -->
<g id="edge23" class="edge"><title>Node15&#45;&gt;Node9</title>
<path fill="none" stroke="midnightblue" d="M404.622,-190.442C373.265,-161.829 271.763,-69.2083 231.088,-32.093"/>
<polygon fill="midnightblue" stroke="midnightblue" points="233.337,-29.4066 223.591,-25.2514 228.618,-34.5774 233.337,-29.4066"/>
</g>
<!-- Node15&#45;&gt;Node16 -->
<g id="edge30" class="edge"><title>Node15&#45;&gt;Node16</title>
<path fill="none" stroke="midnightblue" d="M424.765,-190.324C434.766,-182.263 449.887,-170.077 461.93,-160.369"/>
<polygon fill="midnightblue" stroke="midnightblue" points="464.45,-162.834 470.039,-153.834 460.057,-157.384 464.45,-162.834"/>
</g>
<!-- Node16&#45;&gt;Node4 -->
<g id="edge33" class="edge"><title>Node16&#45;&gt;Node4</title>
<path fill="none" stroke="midnightblue" d="M519.571,-135.505C582.087,-123.312 699.014,-100.301 703,-98 730.275,-82.2525 752.576,-52.4217 764.804,-33.5483"/>
<polygon fill="midnightblue" stroke="midnightblue" points="767.788,-35.3777 770.115,-25.0415 761.85,-31.6708 767.788,-35.3777"/>
</g>
<!-- Node16&#45;&gt;Node5 -->
<g id="edge35" class="edge"><title>Node16&#45;&gt;Node5</title>
<path fill="none" stroke="midnightblue" d="M442.266,-134.474C408.632,-126.575 358.885,-113.697 317,-98 263.926,-78.1094 204.926,-47.6066 172.574,-30.1065"/>
<polygon fill="midnightblue" stroke="midnightblue" points="173.881,-26.8326 163.425,-25.1191 170.53,-32.9787 173.881,-26.8326"/>
</g>
<!-- Node16&#45;&gt;Node6 -->
<g id="edge37" class="edge"><title>Node16&#45;&gt;Node6</title>
<path fill="none" stroke="midnightblue" d="M442.433,-136.462C381.457,-126.126 262.311,-105.929 190.065,-93.682"/>
<polygon fill="midnightblue" stroke="midnightblue" points="190.638,-90.2292 180.193,-92.0085 189.468,-97.1307 190.638,-90.2292"/>
</g>
<!-- Node16&#45;&gt;Node8 -->
<g id="edge38" class="edge"><title>Node16&#45;&gt;Node8</title>
<path fill="none" stroke="midnightblue" d="M463.52,-134.475C443.137,-124.534 409.225,-107.995 385.575,-96.461"/>
<polygon fill="midnightblue" stroke="midnightblue" points="386.969,-93.2468 376.447,-92.0091 383.901,-99.5385 386.969,-93.2468"/>
</g>
<!-- Node16&#45;&gt;Node17 -->
<g id="edge31" class="edge"><title>Node16&#45;&gt;Node17</title>
<path fill="none" stroke="midnightblue" d="M519.718,-135.529C522.52,-135.006 525.303,-134.492 528,-134 620.298,-117.177 643.568,-114.073 736,-98 749.666,-95.6236 764.597,-93.0181 777.979,-90.6794"/>
<polygon fill="midnightblue" stroke="midnightblue" points="778.617,-94.1211 787.865,-88.9512 777.412,-87.2257 778.617,-94.1211"/>
</g>
<!-- Node18 -->
<g id="node18" class="node"><title>Node18</title>
<polygon fill="white" stroke="#bfbfbf" points="638,-73 638,-92 694,-92 694,-73 638,-73"/>
<text text-anchor="middle" x="666" y="-80" font-family="Helvetica,sans-Serif" font-size="10.00">sstream</text>
</g>
<!-- Node16&#45;&gt;Node18 -->
<g id="edge32" class="edge"><title>Node16&#45;&gt;Node18</title>
<path fill="none" stroke="midnightblue" d="M511.554,-134.468C541.638,-125.89 588.79,-111.968 629,-98 631.118,-97.2642 633.295,-96.4816 635.481,-95.6758"/>
<polygon fill="midnightblue" stroke="midnightblue" points="636.87,-98.8924 644.975,-92.0688 634.383,-92.3487 636.87,-98.8924"/>
</g>
<!-- Node19 -->
<g id="node19" class="node"><title>Node19</title>
<polygon fill="white" stroke="#bfbfbf" points="448,-73 448,-92 490,-92 490,-73 448,-73"/>
<text text-anchor="middle" x="469" y="-80" font-family="Helvetica,sans-Serif" font-size="10.00">utility</text>
</g>
<!-- Node16&#45;&gt;Node19 -->
<g id="edge34" class="edge"><title>Node16&#45;&gt;Node19</title>
<path fill="none" stroke="midnightblue" d="M479.281,-134.475C477.57,-125.992 474.89,-112.704 472.695,-101.822"/>
<polygon fill="midnightblue" stroke="midnightblue" points="476.124,-101.12 470.716,-92.0091 469.262,-102.504 476.124,-101.12"/>
</g>
<!-- Node20 -->
<g id="node20" class="node"><title>Node20</title>
<polygon fill="white" stroke="#bfbfbf" points="508,-67.5 508,-97.5 620,-97.5 620,-67.5 508,-67.5"/>
<text text-anchor="start" x="516" y="-85.5" font-family="Helvetica,sans-Serif" font-size="10.00">boost/icl/continuous</text>
<text text-anchor="middle" x="564" y="-74.5" font-family="Helvetica,sans-Serif" font-size="10.00">_interval.hpp</text>
</g>
<!-- Node16&#45;&gt;Node20 -->
<g id="edge36" class="edge"><title>Node16&#45;&gt;Node20</title>
<path fill="none" stroke="midnightblue" d="M492.892,-134.475C504.133,-126.417 521.422,-114.023 536.137,-103.474"/>
<polygon fill="midnightblue" stroke="midnightblue" points="538.35,-106.194 544.439,-97.523 534.272,-100.505 538.35,-106.194"/>
</g>
<!-- Node16&#45;&gt;Node21 -->
<g id="edge39" class="edge"><title>Node16&#45;&gt;Node21</title>
<path fill="none" stroke="midnightblue" d="M519.686,-135.335C522.495,-134.858 525.289,-134.406 528,-134 674.344,-112.067 712.793,-120.83 859,-98 871.114,-96.1085 884.293,-93.5558 895.972,-91.1195"/>
<polygon fill="midnightblue" stroke="midnightblue" points="896.734,-94.5359 905.785,-89.028 895.275,-87.6897 896.734,-94.5359"/>
</g>
<!-- Node21&#45;&gt;Node4 -->
<g id="edge41" class="edge"><title>Node21&#45;&gt;Node4</title>
<path fill="none" stroke="midnightblue" d="M909.417,-72.8685C882.666,-61.6504 835.752,-41.9766 805.028,-29.0925"/>
<polygon fill="midnightblue" stroke="midnightblue" points="806.243,-25.8068 795.668,-25.1672 803.536,-32.2622 806.243,-25.8068"/>
</g>
<!-- Node22 -->
<g id="node22" class="node"><title>Node22</title>
<polygon fill="white" stroke="#bfbfbf" points="898.5,-6 898.5,-25 961.5,-25 961.5,-6 898.5,-6"/>
<text text-anchor="middle" x="930" y="-13" font-family="Helvetica,sans-Serif" font-size="10.00">exception</text>
</g>
<!-- Node21&#45;&gt;Node22 -->
<g id="edge40" class="edge"><title>Node21&#45;&gt;Node22</title>
<path fill="none" stroke="midnightblue" d="M930,-72.7338C930,-63.1826 930,-47.6183 930,-35.2829"/>
<polygon fill="midnightblue" stroke="midnightblue" points="933.5,-35.1273 930,-25.1273 926.5,-35.1273 933.5,-35.1273"/>
</g>
</g>
</svg>
        <g id="navigator" transform="translate(0 0)" fill="#404254">
                <rect fill="#f2f5e9" fill-opacity="0.5" stroke="#606060" stroke-width=".5" x="0" y="0" width="60" height="60"/>
                <use id="zoomplus" xlink:href="#zoomPlus" x="17" y="9" onmousedown="handleZoom(evt,'in')"/>
                <use id="zoomminus" xlink:href="#zoomMin" x="42" y="9" onmousedown="handleZoom(evt,'out')"/>
                <use id="reset" xlink:href="#resetDef" x="30" y="36" onmousedown="handleReset()"/>
                <g id="arrowUp" xlink:href="#dirArrow" transform="translate(30 24)" onmousedown="handlePan(0,-1)">
                  <use xlink:href="#rim" fill="#404040">
                        <set attributeName="fill" to="#808080" begin="arrowUp.mouseover" end="arrowUp.mouseout"/>
                  </use>
                  <path fill="none" stroke="white" stroke-width="1.5" d="M0,-3.0v7 M-2.5,-0.5L0,-3.0L2.5,-0.5"/>
                </g>
                <g id="arrowRight" xlink:href="#dirArrow" transform="rotate(90) translate(36 -43)" onmousedown="handlePan(1,0)">
                  <use xlink:href="#rim" fill="#404040">
                        <set attributeName="fill" to="#808080" begin="arrowRight.mouseover" end="arrowRight.mouseout"/>
                  </use>
                  <path fill="none" stroke="white" stroke-width="1.5" d="M0,-3.0v7 M-2.5,-0.5L0,-3.0L2.5,-0.5"/>
                </g>
                <g id="arrowDown" xlink:href="#dirArrow" transform="rotate(180) translate(-30 -48)" onmousedown="handlePan(0,1)">
                  <use xlink:href="#rim" fill="#404040">
                        <set attributeName="fill" to="#808080" begin="arrowDown.mouseover" end="arrowDown.mouseout"/>
                  </use>
                  <path fill="none" stroke="white" stroke-width="1.5" d="M0,-3.0v7 M-2.5,-0.5L0,-3.0L2.5,-0.5"/>
                </g>
                <g id="arrowLeft" xlink:href="#dirArrow" transform="rotate(270) translate(-36 17)" onmousedown="handlePan(-1,0)">
                  <use xlink:href="#rim" fill="#404040">
                        <set attributeName="fill" to="#808080" begin="arrowLeft.mouseover" end="arrowLeft.mouseout"/>
                  </use>
                  <path fill="none" stroke="white" stroke-width="1.5" d="M0,-3.0v7 M-2.5,-0.5L0,-3.0L2.5,-0.5"/>
                </g>
        </g>
        <svg viewBox="0 0 15 15" width="100%" height="30px" preserveAspectRatio="xMaxYMin meet">
         <g id="arrow_out" transform="scale(0.3 0.3)">
          <a xlink:href="event__tree_8cc__incl_org.svg" target="_base">
           <rect id="button" ry="5" rx="5" y="6" x="6" height="38" width="38"
                fill="#f2f5e9" fill-opacity="0.5" stroke="#606060" stroke-width="1.0"/>
           <path id="arrow"
             d="M 11.500037,31.436501 C 11.940474,20.09759 22.043105,11.32322 32.158766,21.979434 L 37.068811,17.246167 C 37.068811,17.246167 37.088388,32 37.088388,32 L 22.160133,31.978069 C 22.160133,31.978069 26.997745,27.140456 26.997745,27.140456 C 18.528582,18.264221 13.291696,25.230495 11.500037,31.436501 z"
             style="fill:#404040;"/>
          </a>
         </g>
        </svg>
</svg>
