<?xml version="1.0" encoding="UTF-8" standalone="no"?>
<!DOCTYPE svg PUBLIC "-//W3C//DTD SVG 1.1//EN"
 "http://www.w3.org/Graphics/SVG/1.1/DTD/svg11.dtd">
<!-- Generated by graphviz version 2.38.0 (20140413.2041)
 -->
<!-- Title: event_tree.h Pages: 1 -->
<!--zoomable 330 -->
<svg id="main" version="1.1" xmlns="http://www.w3.org/2000/svg" xmlns:xlink="http://www.w3.org/1999/xlink" xml:space="preserve" onload="init(evt)">
<style type="text/css"><![CDATA[
.edge:hover path { stroke: red; }
.edge:hover polygon { stroke: red; fill: red; }
]]></style>
<script type="text/javascript"><![CDATA[
var edges = document.getElementsByTagName('g');
if (edges && edges.length) {
  for (var i=0;i<edges.length;i++) {
    if (edges[i].id.substr(0,4)=='edge') {
      edges[i].setAttribute('class','edge');
    }
  }
}
]]></script>
        <defs>
                <circle id="rim" cx="0" cy="0" r="7"/>
                <circle id="rim2" cx="0" cy="0" r="3.5"/>
                <g id="zoomPlus">
                        <use xlink:href="#rim" fill="#404040">
                                <set attributeName="fill" to="#808080" begin="zoomplus.mouseover" end="zoomplus.mouseout"/>
                        </use>
                        <path d="M-4,0h8M0,-4v8" fill="none" stroke="white" stroke-width="1.5" pointer-events="none"/>
                </g>
                <g id="zoomMin">
                        <use xlink:href="#rim" fill="#404040">
                                <set attributeName="fill" to="#808080" begin="zoomminus.mouseover" end="zoomminus.mouseout"/>
                        </use>
                        <path d="M-4,0h8" fill="none" stroke="white" stroke-width="1.5" pointer-events="none"/>
                </g>
                <g id="dirArrow">
                        <path fill="none" stroke="white" stroke-width="1.5" d="M0,-3.0v7 M-2.5,-0.5L0,-3.0L2.5,-0.5"/>
                </g>
               <g id="resetDef">
                       <use xlink:href="#rim2" fill="#404040">
                               <set attributeName="fill" to="#808080" begin="reset.mouseover" end="reset.mouseout"/>
                       </use>
               </g>
        </defs>

<script type="text/javascript">
var viewWidth = 1368;
var viewHeight = 330;
var sectionId = 'dynsection-0';
</script>
<script xlink:href="svgpan.js"/>
<svg id="graph" class="graph">
<g id="viewport">
<title>event_tree.h</title>
<polygon fill="white" stroke="none" points="-4,4 -4,-326 1363.65,-326 1363.65,4 -4,4"/>
<!-- Node1 -->
<g id="node1" class="node"><title>Node1</title>
<polygon fill="#bfbfbf" stroke="black" points="329.5,-302.5 329.5,-321.5 406.5,-321.5 406.5,-302.5 329.5,-302.5"/>
<text text-anchor="middle" x="368" y="-309.5" font-family="Helvetica,sans-Serif" font-size="10.00">event_tree.h</text>
</g>
<!-- Node2 -->
<g id="node2" class="node"><title>Node2</title>
<polygon fill="white" stroke="#bfbfbf" points="392.5,-134.5 392.5,-153.5 449.5,-153.5 449.5,-134.5 392.5,-134.5"/>
<text text-anchor="middle" x="421" y="-141.5" font-family="Helvetica,sans-Serif" font-size="10.00">memory</text>
</g>
<!-- Node1&#45;&gt;Node2 -->
<g id="edge1" class="edge"><title>Node1&#45;&gt;Node2</title>
<path fill="none" stroke="midnightblue" d="M370.85,-302.075C379.228,-275.832 403.904,-198.545 415.216,-163.117"/>
<polygon fill="midnightblue" stroke="midnightblue" points="418.557,-164.159 418.264,-153.568 411.889,-162.03 418.557,-164.159"/>
</g>
<!-- Node3 -->
<g id="node3" class="node"><title>Node3</title>
<polygon fill="white" stroke="#bfbfbf" points="978,-6 978,-25 1022,-25 1022,-6 978,-6"/>
<text text-anchor="middle" x="1000" y="-13" font-family="Helvetica,sans-Serif" font-size="10.00">string</text>
</g>
<!-- Node1&#45;&gt;Node3 -->
<g id="edge2" class="edge"><title>Node1&#45;&gt;Node3</title>
<path fill="none" stroke="midnightblue" d="M406.624,-310.751C587.032,-309.089 1338,-296.44 1338,-201 1338,-201 1338,-201 1338,-143 1338,-106.847 1337.21,-89.6062 1309,-67 1265.71,-32.316 1116.5,-41.3252 1062,-31 1052.27,-29.1564 1041.76,-26.8273 1032.2,-24.5782"/>
<polygon fill="midnightblue" stroke="midnightblue" points="1032.83,-21.1298 1022.29,-22.196 1031.19,-27.936 1032.83,-21.1298"/>
</g>
<!-- Node4 -->
<g id="node4" class="node"><title>Node4</title>
<polygon fill="white" stroke="#bfbfbf" points="563.5,-6 563.5,-25 610.5,-25 610.5,-6 563.5,-6"/>
<text text-anchor="middle" x="587" y="-13" font-family="Helvetica,sans-Serif" font-size="10.00">vector</text>
</g>
<!-- Node1&#45;&gt;Node4 -->
<g id="edge3" class="edge"><title>Node1&#45;&gt;Node4</title>
<path fill="none" stroke="midnightblue" d="M355.5,-302.313C333,-285.544 288,-246.338 288,-201 288,-201 288,-201 288,-143 288,-14.7256 432.014,-70.6692 554,-31 555.875,-30.3904 557.787,-29.7113 559.701,-28.989"/>
<polygon fill="midnightblue" stroke="midnightblue" points="561.17,-32.1694 569.097,-25.1396 558.517,-25.6919 561.17,-32.1694"/>
</g>
<!-- Node5 -->
<g id="node5" class="node"><title>Node5</title>
<polygon fill="white" stroke="#bfbfbf" points="1144,-73 1144,-92 1272,-92 1272,-73 1144,-73"/>
<text text-anchor="middle" x="1208" y="-80" font-family="Helvetica,sans-Serif" font-size="10.00">boost/noncopyable.hpp</text>
</g>
<!-- Node1&#45;&gt;Node5 -->
<g id="edge4" class="edge"><title>Node1&#45;&gt;Node5</title>
<path fill="none" stroke="midnightblue" d="M406.55,-305.092C454.685,-297.433 539.414,-283.022 611,-266 783.955,-224.873 825.253,-206.828 995,-154 1058.36,-134.283 1131.71,-109.591 1173.7,-95.2742"/>
<polygon fill="midnightblue" stroke="midnightblue" points="1174.84,-98.583 1183.17,-92.039 1172.58,-91.9587 1174.84,-98.583"/>
</g>
<!-- Node6 -->
<g id="node6" class="node"><title>Node6</title>
<polygon fill="white" stroke="#bfbfbf" points="158.5,-134.5 158.5,-153.5 259.5,-153.5 259.5,-134.5 158.5,-134.5"/>
<text text-anchor="middle" x="209" y="-141.5" font-family="Helvetica,sans-Serif" font-size="10.00">boost/variant.hpp</text>
</g>
<!-- Node1&#45;&gt;Node6 -->
<g id="edge5" class="edge"><title>Node1&#45;&gt;Node6</title>
<path fill="none" stroke="midnightblue" d="M338.876,-302.428C318.718,-295.309 292.323,-283.49 274,-266 265.751,-258.126 233.535,-194.455 217.777,-162.772"/>
<polygon fill="midnightblue" stroke="midnightblue" points="220.867,-161.126 213.29,-153.721 214.596,-164.235 220.867,-161.126"/>
</g>
<!-- Node7 -->
<g id="node7" class="node"><title>Node7</title>
<g id="a_node7"><a xlink:href="element_8h.xhtml" target="_top" xlink:title="Helper classes, structs, and properties common to all other classes. ">
<polygon fill="white" stroke="black" points="398.5,-73 398.5,-92 463.5,-92 463.5,-73 398.5,-73"/>
<text text-anchor="middle" x="431" y="-80" font-family="Helvetica,sans-Serif" font-size="10.00">element.h</text>
</a>
</g>
</g>
<!-- Node1&#45;&gt;Node7 -->
<g id="edge6" class="edge"><title>Node1&#45;&gt;Node7</title>
<path fill="none" stroke="midnightblue" d="M366.184,-302.348C361.035,-275.699 348.424,-193.095 376,-134 382.925,-119.159 396.41,-106.667 408.294,-97.8204"/>
<polygon fill="midnightblue" stroke="midnightblue" points="410.363,-100.644 416.547,-92.0412 406.348,-94.9101 410.363,-100.644"/>
</g>
<!-- Node12 -->
<g id="node12" class="node"><title>Node12</title>
<g id="a_node12"><a xlink:href="variant_8h.xhtml" target="_top" xlink:title="Extra helper functions for boost::variant. ">
<polygon fill="white" stroke="black" points="144.5,-190.5 144.5,-209.5 221.5,-209.5 221.5,-190.5 144.5,-190.5"/>
<text text-anchor="middle" x="183" y="-197.5" font-family="Helvetica,sans-Serif" font-size="10.00">ext/variant.h</text>
</a>
</g>
</g>
<!-- Node1&#45;&gt;Node12 -->
<g id="edge13" class="edge"><title>Node1&#45;&gt;Node12</title>
<path fill="none" stroke="midnightblue" d="M329.283,-303.785C301.488,-297.245 264.127,-285.56 236,-266 217.957,-253.452 202.766,-233.105 193.336,-218.517"/>
<polygon fill="midnightblue" stroke="midnightblue" points="196.241,-216.56 187.999,-209.903 190.29,-220.247 196.241,-216.56"/>
</g>
<!-- Node13 -->
<g id="node13" class="node"><title>Node13</title>
<g id="a_node13"><a xlink:href="instruction_8h.xhtml" target="_top" xlink:title="Model and event tree modifier instructions. ">
<polygon fill="white" stroke="black" points="526,-246.5 526,-265.5 602,-265.5 602,-246.5 526,-246.5"/>
<text text-anchor="middle" x="564" y="-253.5" font-family="Helvetica,sans-Serif" font-size="10.00">instruction.h</text>
</a>
</g>
</g>
<!-- Node1&#45;&gt;Node13 -->
<g id="edge15" class="edge"><title>Node1&#45;&gt;Node13</title>
<path fill="none" stroke="midnightblue" d="M399.057,-302.444C432.603,-293.201 486.197,-278.436 523.141,-268.257"/>
<polygon fill="midnightblue" stroke="midnightblue" points="524.377,-271.547 533.089,-265.516 522.518,-264.798 524.377,-271.547"/>
</g>
<!-- Node7&#45;&gt;Node3 -->
<g id="edge8" class="edge"><title>Node7&#45;&gt;Node3</title>
<path fill="none" stroke="midnightblue" d="M463.636,-77.7719C564.113,-66.2937 868.022,-31.5766 967.846,-20.1731"/>
<polygon fill="midnightblue" stroke="midnightblue" points="968.388,-23.6341 977.926,-19.0217 967.593,-16.6794 968.388,-23.6341"/>
</g>
<!-- Node7&#45;&gt;Node4 -->
<g id="edge9" class="edge"><title>Node7&#45;&gt;Node4</title>
<path fill="none" stroke="midnightblue" d="M452.397,-72.8993C476.987,-62.9727 518.52,-46.0757 554,-31 555.404,-30.4035 556.84,-29.7891 558.288,-29.1657"/>
<polygon fill="midnightblue" stroke="midnightblue" points="560.064,-32.2102 567.839,-25.0134 557.273,-25.7906 560.064,-32.2102"/>
</g>
<!-- Node8 -->
<g id="node8" class="node"><title>Node8</title>
<polygon fill="white" stroke="#bfbfbf" points="496.5,-6 496.5,-25 545.5,-25 545.5,-6 496.5,-6"/>
<text text-anchor="middle" x="521" y="-13" font-family="Helvetica,sans-Serif" font-size="10.00">cstdint</text>
</g>
<!-- Node7&#45;&gt;Node8 -->
<g id="edge7" class="edge"><title>Node7&#45;&gt;Node8</title>
<path fill="none" stroke="midnightblue" d="M443.138,-72.7338C457.847,-62.1106 482.856,-44.0485 500.557,-31.2642"/>
<polygon fill="midnightblue" stroke="midnightblue" points="502.997,-33.8196 509.055,-25.1273 498.898,-28.1449 502.997,-33.8196"/>
</g>
<!-- Node9 -->
<g id="node9" class="node"><title>Node9</title>
<polygon fill="white" stroke="#bfbfbf" points="148,-6 148,-25 320,-25 320,-6 148,-6"/>
<text text-anchor="middle" x="234" y="-13" font-family="Helvetica,sans-Serif" font-size="10.00">boost/multi_index_container.hpp</text>
</g>
<!-- Node7&#45;&gt;Node9 -->
<g id="edge10" class="edge"><title>Node7&#45;&gt;Node9</title>
<path fill="none" stroke="midnightblue" d="M404.84,-72.8685C370.156,-61.4245 308.801,-41.1807 269.831,-28.3223"/>
<polygon fill="midnightblue" stroke="midnightblue" points="270.548,-24.8733 259.955,-25.0637 268.354,-31.5208 270.548,-24.8733"/>
</g>
<!-- Node10 -->
<g id="node10" class="node"><title>Node10</title>
<polygon fill="white" stroke="#bfbfbf" points="338,-0.5 338,-30.5 478,-30.5 478,-0.5 338,-0.5"/>
<text text-anchor="start" x="346" y="-18.5" font-family="Helvetica,sans-Serif" font-size="10.00">boost/multi_index/hashed</text>
<text text-anchor="middle" x="408" y="-7.5" font-family="Helvetica,sans-Serif" font-size="10.00">_index.hpp</text>
</g>
<!-- Node7&#45;&gt;Node10 -->
<g id="edge11" class="edge"><title>Node7&#45;&gt;Node10</title>
<path fill="none" stroke="midnightblue" d="M427.898,-72.7338C424.939,-64.3717 420.349,-51.4003 416.323,-40.0221"/>
<polygon fill="midnightblue" stroke="midnightblue" points="419.621,-38.8487 412.985,-30.589 413.022,-41.1838 419.621,-38.8487"/>
</g>
<!-- Node11 -->
<g id="node11" class="node"><title>Node11</title>
<polygon fill="white" stroke="#bfbfbf" points="0,-0.5 0,-30.5 130,-30.5 130,-0.5 0,-0.5"/>
<text text-anchor="start" x="8" y="-18.5" font-family="Helvetica,sans-Serif" font-size="10.00">boost/multi_index/mem</text>
<text text-anchor="middle" x="65" y="-7.5" font-family="Helvetica,sans-Serif" font-size="10.00">_fun.hpp</text>
</g>
<!-- Node7&#45;&gt;Node11 -->
<g id="edge12" class="edge"><title>Node7&#45;&gt;Node11</title>
<path fill="none" stroke="midnightblue" d="M398.114,-76.0577C345.752,-67.3389 239.957,-49.506 140.289,-31.2162"/>
<polygon fill="midnightblue" stroke="midnightblue" points="140.823,-27.7558 130.355,-29.3879 139.556,-34.6402 140.823,-27.7558"/>
</g>
<!-- Node12&#45;&gt;Node6 -->
<g id="edge14" class="edge"><title>Node12&#45;&gt;Node6</title>
<path fill="none" stroke="midnightblue" d="M187.293,-190.083C190.852,-182.691 196.022,-171.953 200.424,-162.811"/>
<polygon fill="midnightblue" stroke="midnightblue" points="203.602,-164.279 204.787,-153.751 197.295,-161.243 203.602,-164.279"/>
</g>
<!-- Node13&#45;&gt;Node2 -->
<g id="edge16" class="edge"><title>Node13&#45;&gt;Node2</title>
<path fill="none" stroke="midnightblue" d="M551.282,-246.262C538.437,-237.356 518.104,-223.037 501,-210 479.385,-193.524 455.26,-173.72 439.21,-160.335"/>
<polygon fill="midnightblue" stroke="midnightblue" points="441.107,-157.358 431.192,-153.622 436.613,-162.725 441.107,-157.358"/>
</g>
<!-- Node13&#45;&gt;Node3 -->
<g id="edge17" class="edge"><title>Node13&#45;&gt;Node3</title>
<path fill="none" stroke="midnightblue" d="M602.371,-252.73C738.475,-243.805 1194.6,-206.139 1281,-98 1378.52,24.0498 1454.58,-109.083 1062,-31 1052.21,-29.0521 1041.61,-26.6736 1031.99,-24.4109"/>
<polygon fill="midnightblue" stroke="midnightblue" points="1032.56,-20.9489 1022.02,-22.0268 1030.93,-27.7569 1032.56,-20.9489"/>
</g>
<!-- Node13&#45;&gt;Node4 -->
<g id="edge18" class="edge"><title>Node13&#45;&gt;Node4</title>
<path fill="none" stroke="midnightblue" d="M565.787,-246.412C567.604,-237.385 570.376,-222.752 572,-210 580.145,-146.036 584.495,-69.5744 586.172,-35.0427"/>
<polygon fill="midnightblue" stroke="midnightblue" points="589.67,-35.1704 586.64,-25.018 582.677,-34.8439 589.67,-35.1704"/>
</g>
<!-- Node13&#45;&gt;Node5 -->
<g id="edge19" class="edge"><title>Node13&#45;&gt;Node5</title>
<path fill="none" stroke="midnightblue" d="M595.936,-246.495C702.473,-218.124 1045.73,-126.714 1165.94,-94.7008"/>
<polygon fill="midnightblue" stroke="midnightblue" points="1167.11,-98.0116 1175.87,-92.056 1165.31,-91.2473 1167.11,-98.0116"/>
</g>
<!-- Node13&#45;&gt;Node7 -->
<g id="edge20" class="edge"><title>Node13&#45;&gt;Node7</title>
<path fill="none" stroke="midnightblue" d="M526.116,-246.461C482.366,-234.309 412.621,-207.319 383,-154 371.815,-133.866 391.943,-112.172 409.461,-98.2463"/>
<polygon fill="midnightblue" stroke="midnightblue" points="411.796,-100.87 417.703,-92.0751 407.6,-95.2672 411.796,-100.87"/>
</g>
<!-- Node14 -->
<g id="node14" class="node"><title>Node14</title>
<g id="a_node14"><a xlink:href="event_8h.xhtml" target="_top" xlink:title="Contains event classes for fault trees. ">
<polygon fill="white" stroke="black" points="510.5,-190.5 510.5,-209.5 563.5,-209.5 563.5,-190.5 510.5,-190.5"/>
<text text-anchor="middle" x="537" y="-197.5" font-family="Helvetica,sans-Serif" font-size="10.00">event.h</text>
</a>
</g>
</g>
<!-- Node13&#45;&gt;Node14 -->
<g id="edge21" class="edge"><title>Node13&#45;&gt;Node14</title>
<path fill="none" stroke="midnightblue" d="M559.541,-246.083C555.846,-238.691 550.477,-227.953 545.906,-218.811"/>
<polygon fill="midnightblue" stroke="midnightblue" points="548.978,-217.13 541.376,-209.751 542.717,-220.261 548.978,-217.13"/>
</g>
<!-- Node15 -->
<g id="node15" class="node"><title>Node15</title>
<g id="a_node15"><a xlink:href="expression_8h.xhtml" target="_top" xlink:title="Provides the base class for all expressions and units for expression values. ">
<polygon fill="white" stroke="black" points="752.5,-134.5 752.5,-153.5 829.5,-153.5 829.5,-134.5 752.5,-134.5"/>
<text text-anchor="middle" x="791" y="-141.5" font-family="Helvetica,sans-Serif" font-size="10.00">expression.h</text>
</a>
</g>
</g>
<!-- Node13&#45;&gt;Node15 -->
<g id="edge41" class="edge"><title>Node13&#45;&gt;Node15</title>
<path fill="none" stroke="midnightblue" d="M581.812,-246.368C621.429,-227.171 717.036,-180.842 764.02,-158.074"/>
<polygon fill="midnightblue" stroke="midnightblue" points="765.798,-161.102 773.27,-153.591 762.745,-154.803 765.798,-161.102"/>
</g>
<!-- Node14&#45;&gt;Node2 -->
<g id="edge23" class="edge"><title>Node14&#45;&gt;Node2</title>
<path fill="none" stroke="midnightblue" d="M518.619,-190.444C499.784,-181.675 470.269,-167.935 448.621,-157.858"/>
<polygon fill="midnightblue" stroke="midnightblue" points="449.838,-154.564 439.295,-153.516 446.883,-160.91 449.838,-154.564"/>
</g>
<!-- Node14&#45;&gt;Node3 -->
<g id="edge24" class="edge"><title>Node14&#45;&gt;Node3</title>
<path fill="none" stroke="midnightblue" d="M543.681,-190.414C562.946,-166.339 621.43,-97.9339 687,-67 781.9,-22.2289 909.03,-16.1332 967.764,-15.9392"/>
<polygon fill="midnightblue" stroke="midnightblue" points="967.903,-19.4394 977.911,-15.9637 967.92,-12.4395 967.903,-19.4394"/>
</g>
<!-- Node14&#45;&gt;Node4 -->
<g id="edge25" class="edge"><title>Node14&#45;&gt;Node4</title>
<path fill="none" stroke="midnightblue" d="M539.412,-190.198C547.117,-162.073 571.258,-73.9576 581.888,-35.1575"/>
<polygon fill="midnightblue" stroke="midnightblue" points="585.346,-35.7835 584.613,-25.214 578.595,-33.9338 585.346,-35.7835"/>
</g>
<!-- Node14&#45;&gt;Node5 -->
<g id="edge26" class="edge"><title>Node14&#45;&gt;Node5</title>
<path fill="none" stroke="midnightblue" d="M563.628,-195.365C616.185,-188.115 736.927,-171.078 838,-154 970.449,-131.621 1003.12,-123.53 1135,-98 1141.65,-96.713 1148.63,-95.3453 1155.54,-93.9839"/>
<polygon fill="midnightblue" stroke="midnightblue" points="1156.42,-97.3773 1165.55,-92.0038 1155.06,-90.5103 1156.42,-97.3773"/>
</g>
<!-- Node14&#45;&gt;Node6 -->
<g id="edge27" class="edge"><title>Node14&#45;&gt;Node6</title>
<path fill="none" stroke="midnightblue" d="M510.436,-194.627C458.397,-186.059 341.838,-166.87 269.87,-155.021"/>
<polygon fill="midnightblue" stroke="midnightblue" points="270.024,-151.5 259.589,-153.329 268.887,-158.407 270.024,-151.5"/>
</g>
<!-- Node14&#45;&gt;Node7 -->
<g id="edge28" class="edge"><title>Node14&#45;&gt;Node7</title>
<path fill="none" stroke="midnightblue" d="M529.033,-190.319C511.384,-171.088 468.757,-124.641 445.964,-99.8054"/>
<polygon fill="midnightblue" stroke="midnightblue" points="448.4,-97.283 439.06,-92.282 443.243,-102.016 448.4,-97.283"/>
</g>
<!-- Node14&#45;&gt;Node8 -->
<g id="edge22" class="edge"><title>Node14&#45;&gt;Node8</title>
<path fill="none" stroke="midnightblue" d="M536.228,-190.198C533.773,-162.193 526.104,-74.7128 522.68,-35.6598"/>
<polygon fill="midnightblue" stroke="midnightblue" points="526.124,-34.8701 521.764,-25.214 519.151,-35.4815 526.124,-34.8701"/>
</g>
<!-- Node14&#45;&gt;Node15 -->
<g id="edge29" class="edge"><title>Node14&#45;&gt;Node15</title>
<path fill="none" stroke="midnightblue" d="M563.702,-193.323C606.061,-184.318 689.291,-166.623 742.425,-155.327"/>
<polygon fill="midnightblue" stroke="midnightblue" points="743.251,-158.73 752.304,-153.227 741.795,-151.883 743.251,-158.73"/>
</g>
<!-- Node15&#45;&gt;Node3 -->
<g id="edge32" class="edge"><title>Node15&#45;&gt;Node3</title>
<path fill="none" stroke="midnightblue" d="M829.797,-140.142C864.619,-135.836 915.558,-125.045 951,-98 972.384,-81.682 986.397,-53.1225 993.759,-34.5134"/>
<polygon fill="midnightblue" stroke="midnightblue" points="997.052,-35.6996 997.25,-25.1066 990.489,-33.2639 997.052,-35.6996"/>
</g>
<!-- Node15&#45;&gt;Node4 -->
<g id="edge34" class="edge"><title>Node15&#45;&gt;Node4</title>
<path fill="none" stroke="midnightblue" d="M766.106,-134.443C744.427,-126.483 712.554,-113.53 687,-98 654.99,-78.5458 622.123,-49.7248 603.181,-32.0797"/>
<polygon fill="midnightblue" stroke="midnightblue" points="605.408,-29.3688 595.735,-25.0469 600.602,-34.4578 605.408,-29.3688"/>
</g>
<!-- Node15&#45;&gt;Node5 -->
<g id="edge36" class="edge"><title>Node15&#45;&gt;Node5</title>
<path fill="none" stroke="midnightblue" d="M829.557,-138.797C893.305,-131.66 1024.61,-116.164 1135,-98 1142.36,-96.7893 1150.11,-95.3876 1157.7,-93.9425"/>
<polygon fill="midnightblue" stroke="midnightblue" points="1158.39,-97.3732 1167.54,-92.0302 1157.06,-90.5017 1158.39,-97.3732"/>
</g>
<!-- Node15&#45;&gt;Node7 -->
<g id="edge37" class="edge"><title>Node15&#45;&gt;Node7</title>
<path fill="none" stroke="midnightblue" d="M752.474,-136.632C684.617,-125.417 544.295,-102.225 473.631,-90.5459"/>
<polygon fill="midnightblue" stroke="midnightblue" points="474.164,-87.0866 463.727,-88.9091 473.023,-93.993 474.164,-87.0866"/>
</g>
<!-- Node16 -->
<g id="node16" class="node"><title>Node16</title>
<polygon fill="white" stroke="#bfbfbf" points="998,-73 998,-92 1060,-92 1060,-73 998,-73"/>
<text text-anchor="middle" x="1029" y="-80" font-family="Helvetica,sans-Serif" font-size="10.00">algorithm</text>
</g>
<!-- Node15&#45;&gt;Node16 -->
<g id="edge30" class="edge"><title>Node15&#45;&gt;Node16</title>
<path fill="none" stroke="midnightblue" d="M829.686,-134.965C868.823,-126.606 930.951,-112.704 984,-98 987.164,-97.123 990.438,-96.1661 993.71,-95.1756"/>
<polygon fill="midnightblue" stroke="midnightblue" points="994.906,-98.469 1003.41,-92.1499 992.821,-91.7866 994.906,-98.469"/>
</g>
<!-- Node17 -->
<g id="node17" class="node"><title>Node17</title>
<polygon fill="white" stroke="#bfbfbf" points="696,-73 696,-92 752,-92 752,-73 696,-73"/>
<text text-anchor="middle" x="724" y="-80" font-family="Helvetica,sans-Serif" font-size="10.00">sstream</text>
</g>
<!-- Node15&#45;&gt;Node17 -->
<g id="edge31" class="edge"><title>Node15&#45;&gt;Node17</title>
<path fill="none" stroke="midnightblue" d="M781.401,-134.475C770.952,-125.197 754.032,-110.171 741.264,-98.831"/>
<polygon fill="midnightblue" stroke="midnightblue" points="743.383,-96.0323 733.582,-92.0091 738.735,-101.266 743.383,-96.0323"/>
</g>
<!-- Node18 -->
<g id="node18" class="node"><title>Node18</title>
<polygon fill="white" stroke="#bfbfbf" points="770,-73 770,-92 812,-92 812,-73 770,-73"/>
<text text-anchor="middle" x="791" y="-80" font-family="Helvetica,sans-Serif" font-size="10.00">utility</text>
</g>
<!-- Node15&#45;&gt;Node18 -->
<g id="edge33" class="edge"><title>Node15&#45;&gt;Node18</title>
<path fill="none" stroke="midnightblue" d="M791,-134.475C791,-126.08 791,-112.981 791,-102.163"/>
<polygon fill="midnightblue" stroke="midnightblue" points="794.5,-102.009 791,-92.0091 787.5,-102.009 794.5,-102.009"/>
</g>
<!-- Node19 -->
<g id="node19" class="node"><title>Node19</title>
<polygon fill="white" stroke="#bfbfbf" points="830,-67.5 830,-97.5 942,-97.5 942,-67.5 830,-67.5"/>
<text text-anchor="start" x="838" y="-85.5" font-family="Helvetica,sans-Serif" font-size="10.00">boost/icl/continuous</text>
<text text-anchor="middle" x="886" y="-74.5" font-family="Helvetica,sans-Serif" font-size="10.00">_interval.hpp</text>
</g>
<!-- Node15&#45;&gt;Node19 -->
<g id="edge35" class="edge"><title>Node15&#45;&gt;Node19</title>
<path fill="none" stroke="midnightblue" d="M804.611,-134.475C817.718,-126.266 838.008,-113.558 855.05,-102.885"/>
<polygon fill="midnightblue" stroke="midnightblue" points="856.993,-105.797 863.61,-97.523 853.278,-99.8648 856.993,-105.797"/>
</g>
<!-- Node20 -->
<g id="node20" class="node"><title>Node20</title>
<g id="a_node20"><a xlink:href="error_8h.xhtml" target="_top" xlink:title="Exceptions for SCRAM. ">
<polygon fill="white" stroke="black" points="1078,-73 1078,-92 1126,-92 1126,-73 1078,-73"/>
<text text-anchor="middle" x="1102" y="-80" font-family="Helvetica,sans-Serif" font-size="10.00">error.h</text>
</a>
</g>
</g>
<!-- Node15&#45;&gt;Node20 -->
<g id="edge38" class="edge"><title>Node15&#45;&gt;Node20</title>
<path fill="none" stroke="midnightblue" d="M829.911,-139.837C884.31,-134.712 985.772,-122.586 1069,-98 1071.15,-97.3662 1073.34,-96.6266 1075.52,-95.8232"/>
<polygon fill="midnightblue" stroke="midnightblue" points="1076.9,-99.0378 1084.84,-92.0221 1074.26,-92.5556 1076.9,-99.0378"/>
</g>
<!-- Node20&#45;&gt;Node3 -->
<g id="edge40" class="edge"><title>Node20&#45;&gt;Node3</title>
<path fill="none" stroke="midnightblue" d="M1088.24,-72.7338C1071.27,-61.9156 1042.19,-43.3832 1022.07,-30.5659"/>
<polygon fill="midnightblue" stroke="midnightblue" points="1023.85,-27.5498 1013.54,-25.1273 1020.09,-33.4531 1023.85,-27.5498"/>
</g>
<!-- Node21 -->
<g id="node21" class="node"><title>Node21</title>
<polygon fill="white" stroke="#bfbfbf" points="1070.5,-6 1070.5,-25 1133.5,-25 1133.5,-6 1070.5,-6"/>
<text text-anchor="middle" x="1102" y="-13" font-family="Helvetica,sans-Serif" font-size="10.00">exception</text>
</g>
<!-- Node20&#45;&gt;Node21 -->
<g id="edge39" class="edge"><title>Node20&#45;&gt;Node21</title>
<path fill="none" stroke="midnightblue" d="M1102,-72.7338C1102,-63.1826 1102,-47.6183 1102,-35.2829"/>
<polygon fill="midnightblue" stroke="midnightblue" points="1105.5,-35.1273 1102,-25.1273 1098.5,-35.1273 1105.5,-35.1273"/>
</g>
</g>
</svg>
        <g id="navigator" transform="translate(0 0)" fill="#404254">
                <rect fill="#f2f5e9" fill-opacity="0.5" stroke="#606060" stroke-width=".5" x="0" y="0" width="60" height="60"/>
                <use id="zoomplus" xlink:href="#zoomPlus" x="17" y="9" onmousedown="handleZoom(evt,'in')"/>
                <use id="zoomminus" xlink:href="#zoomMin" x="42" y="9" onmousedown="handleZoom(evt,'out')"/>
                <use id="reset" xlink:href="#resetDef" x="30" y="36" onmousedown="handleReset()"/>
                <g id="arrowUp" xlink:href="#dirArrow" transform="translate(30 24)" onmousedown="handlePan(0,-1)">
                  <use xlink:href="#rim" fill="#404040">
                        <set attributeName="fill" to="#808080" begin="arrowUp.mouseover" end="arrowUp.mouseout"/>
                  </use>
                  <path fill="none" stroke="white" stroke-width="1.5" d="M0,-3.0v7 M-2.5,-0.5L0,-3.0L2.5,-0.5"/>
                </g>
                <g id="arrowRight" xlink:href="#dirArrow" transform="rotate(90) translate(36 -43)" onmousedown="handlePan(1,0)">
                  <use xlink:href="#rim" fill="#404040">
                        <set attributeName="fill" to="#808080" begin="arrowRight.mouseover" end="arrowRight.mouseout"/>
                  </use>
                  <path fill="none" stroke="white" stroke-width="1.5" d="M0,-3.0v7 M-2.5,-0.5L0,-3.0L2.5,-0.5"/>
                </g>
                <g id="arrowDown" xlink:href="#dirArrow" transform="rotate(180) translate(-30 -48)" onmousedown="handlePan(0,1)">
                  <use xlink:href="#rim" fill="#404040">
                        <set attributeName="fill" to="#808080" begin="arrowDown.mouseover" end="arrowDown.mouseout"/>
                  </use>
                  <path fill="none" stroke="white" stroke-width="1.5" d="M0,-3.0v7 M-2.5,-0.5L0,-3.0L2.5,-0.5"/>
                </g>
                <g id="arrowLeft" xlink:href="#dirArrow" transform="rotate(270) translate(-36 17)" onmousedown="handlePan(-1,0)">
                  <use xlink:href="#rim" fill="#404040">
                        <set attributeName="fill" to="#808080" begin="arrowLeft.mouseover" end="arrowLeft.mouseout"/>
                  </use>
                  <path fill="none" stroke="white" stroke-width="1.5" d="M0,-3.0v7 M-2.5,-0.5L0,-3.0L2.5,-0.5"/>
                </g>
        </g>
        <svg viewBox="0 0 15 15" width="100%" height="30px" preserveAspectRatio="xMaxYMin meet">
         <g id="arrow_out" transform="scale(0.3 0.3)">
          <a xlink:href="event__tree_8h__incl_org.svg" target="_base">
           <rect id="button" ry="5" rx="5" y="6" x="6" height="38" width="38"
                fill="#f2f5e9" fill-opacity="0.5" stroke="#606060" stroke-width="1.0"/>
           <path id="arrow"
             d="M 11.500037,31.436501 C 11.940474,20.09759 22.043105,11.32322 32.158766,21.979434 L 37.068811,17.246167 C 37.068811,17.246167 37.088388,32 37.088388,32 L 22.160133,31.978069 C 22.160133,31.978069 26.997745,27.140456 26.997745,27.140456 C 18.528582,18.264221 13.291696,25.230495 11.500037,31.436501 z"
             style="fill:#404040;"/>
          </a>
         </g>
        </svg>
</svg>
