<?xml version="1.0" encoding="UTF-8" standalone="no"?>
<!DOCTYPE svg PUBLIC "-//W3C//DTD SVG 1.1//EN"
 "http://www.w3.org/Graphics/SVG/1.1/DTD/svg11.dtd">
<!-- Generated by graphviz version 2.38.0 (20140413.2041)
 -->
<!-- Title: initializer.h Pages: 1 -->
<svg width="2601pt" height="453pt"
 viewBox="0.00 0.00 2600.50 453.00" xmlns="http://www.w3.org/2000/svg" xmlns:xlink="http://www.w3.org/1999/xlink">
<g id="graph0" class="graph" transform="scale(1 1) rotate(0) translate(4 449)">
<title>initializer.h</title>
<polygon fill="white" stroke="none" points="-4,4 -4,-449 2596.5,-449 2596.5,4 -4,4"/>
<!-- Node1 -->
<g id="node1" class="node"><title>Node1</title>
<polygon fill="#bfbfbf" stroke="black" points="1241.5,-425.5 1241.5,-444.5 1308.5,-444.5 1308.5,-425.5 1241.5,-425.5"/>
<text text-anchor="middle" x="1275" y="-432.5" font-family="Helvetica,sans-Serif" font-size="10.00">initializer.h</text>
</g>
<!-- Node2 -->
<g id="node2" class="node"><title>Node2</title>
<polygon fill="white" stroke="#bfbfbf" points="1049.5,-134.5 1049.5,-153.5 1106.5,-153.5 1106.5,-134.5 1049.5,-134.5"/>
<text text-anchor="middle" x="1078" y="-141.5" font-family="Helvetica,sans-Serif" font-size="10.00">memory</text>
</g>
<!-- Node1&#45;&gt;Node2 -->
<g id="edge1" class="edge"><title>Node1&#45;&gt;Node2</title>
<path fill="none" stroke="midnightblue" d="M1258.49,-425.385C1244.34,-417.388 1224.06,-404.413 1210,-389 1144.47,-317.161 1100.2,-206.877 1084.42,-163.466"/>
<polygon fill="midnightblue" stroke="midnightblue" points="1087.67,-162.18 1081.02,-153.934 1081.08,-164.529 1087.67,-162.18"/>
</g>
<!-- Node3 -->
<g id="node3" class="node"><title>Node3</title>
<polygon fill="white" stroke="#bfbfbf" points="448,-6 448,-25 492,-25 492,-6 448,-6"/>
<text text-anchor="middle" x="470" y="-13" font-family="Helvetica,sans-Serif" font-size="10.00">string</text>
</g>
<!-- Node1&#45;&gt;Node3 -->
<g id="edge2" class="edge"><title>Node1&#45;&gt;Node3</title>
<path fill="none" stroke="midnightblue" d="M1241.31,-433.631C1049.64,-431.421 103.315,-419.019 50,-389 14.7685,-369.163 0,-353.432 0,-313 0,-313 0,-313 0,-143 0,-52.1139 331.855,-24.6494 437.861,-18.1947"/>
<polygon fill="midnightblue" stroke="midnightblue" points="438.183,-21.6819 447.961,-17.6023 437.774,-14.6939 438.183,-21.6819"/>
</g>
<!-- Node4 -->
<g id="node4" class="node"><title>Node4</title>
<polygon fill="white" stroke="#bfbfbf" points="483.5,-246.5 483.5,-265.5 576.5,-265.5 576.5,-246.5 483.5,-246.5"/>
<text text-anchor="middle" x="530" y="-253.5" font-family="Helvetica,sans-Serif" font-size="10.00">unordered_map</text>
</g>
<!-- Node1&#45;&gt;Node4 -->
<g id="edge3" class="edge"><title>Node1&#45;&gt;Node4</title>
<path fill="none" stroke="midnightblue" d="M1241.2,-433.579C1115.59,-431.753 680.223,-423.004 629,-389 592.9,-365.035 612.133,-335.784 585,-302 575.612,-290.311 562.745,-279.58 551.816,-271.531"/>
<polygon fill="midnightblue" stroke="midnightblue" points="553.752,-268.613 543.57,-265.684 549.703,-274.323 553.752,-268.613"/>
</g>
<!-- Node5 -->
<g id="node5" class="node"><title>Node5</title>
<polygon fill="white" stroke="#bfbfbf" points="449,-73 449,-92 491,-92 491,-73 449,-73"/>
<text text-anchor="middle" x="470" y="-80" font-family="Helvetica,sans-Serif" font-size="10.00">utility</text>
</g>
<!-- Node1&#45;&gt;Node5 -->
<g id="edge4" class="edge"><title>Node1&#45;&gt;Node5</title>
<path fill="none" stroke="midnightblue" d="M1241.21,-433.488C1054.2,-430.558 152.385,-415.11 100,-389 60.9858,-369.554 38,-356.592 38,-313 38,-313 38,-313 38,-255 38,-211.794 340.36,-120.847 439.168,-92.2794"/>
<polygon fill="midnightblue" stroke="midnightblue" points="440.23,-95.6159 448.871,-89.4857 438.293,-88.8892 440.23,-95.6159"/>
</g>
<!-- Node6 -->
<g id="node6" class="node"><title>Node6</title>
<polygon fill="white" stroke="#bfbfbf" points="1610.5,-6 1610.5,-25 1657.5,-25 1657.5,-6 1610.5,-6"/>
<text text-anchor="middle" x="1634" y="-13" font-family="Helvetica,sans-Serif" font-size="10.00">vector</text>
</g>
<!-- Node1&#45;&gt;Node6 -->
<g id="edge5" class="edge"><title>Node1&#45;&gt;Node6</title>
<path fill="none" stroke="midnightblue" d="M1308.63,-434.091C1441.83,-434.148 1932.42,-431.413 2081,-389 2148.7,-369.673 2220,-383.409 2220,-313 2220,-313 2220,-313 2220,-143 2220,-86.1132 1792.61,-34.129 1667.82,-20.1636"/>
<polygon fill="midnightblue" stroke="midnightblue" points="1668.02,-16.6647 1657.7,-19.0402 1667.25,-23.622 1668.02,-16.6647"/>
</g>
<!-- Node7 -->
<g id="node7" class="node"><title>Node7</title>
<polygon fill="white" stroke="#bfbfbf" points="1856,-6 1856,-25 2028,-25 2028,-6 1856,-6"/>
<text text-anchor="middle" x="1942" y="-13" font-family="Helvetica,sans-Serif" font-size="10.00">boost/multi_index_container.hpp</text>
</g>
<!-- Node1&#45;&gt;Node7 -->
<g id="edge6" class="edge"><title>Node1&#45;&gt;Node7</title>
<path fill="none" stroke="midnightblue" d="M1308.52,-433.428C1459.71,-430.692 2074.24,-417.875 2155,-389 2208.57,-369.846 2258,-369.891 2258,-313 2258,-313 2258,-313 2258,-143 2258,-87.6791 2088.97,-45.613 1998.16,-27.0048"/>
<polygon fill="midnightblue" stroke="midnightblue" points="1998.78,-23.5604 1988.29,-25.0115 1997.4,-30.4219 1998.78,-23.5604"/>
</g>
<!-- Node8 -->
<g id="node8" class="node"><title>Node8</title>
<polygon fill="white" stroke="#bfbfbf" points="2324.5,-358.5 2324.5,-388.5 2457.5,-388.5 2457.5,-358.5 2324.5,-358.5"/>
<text text-anchor="start" x="2332.5" y="-376.5" font-family="Helvetica,sans-Serif" font-size="10.00">boost/multi_index/global</text>
<text text-anchor="middle" x="2391" y="-365.5" font-family="Helvetica,sans-Serif" font-size="10.00">_fun.hpp</text>
</g>
<!-- Node1&#45;&gt;Node8 -->
<g id="edge7" class="edge"><title>Node1&#45;&gt;Node8</title>
<path fill="none" stroke="midnightblue" d="M1308.63,-434.168C1438.3,-434.469 1918.06,-432.405 2310,-389 2311.46,-388.838 2312.94,-388.665 2314.43,-388.483"/>
<polygon fill="midnightblue" stroke="midnightblue" points="2314.91,-391.95 2324.36,-387.158 2313.98,-385.012 2314.91,-391.95"/>
</g>
<!-- Node9 -->
<g id="node9" class="node"><title>Node9</title>
<polygon fill="white" stroke="#bfbfbf" points="2136,-0.5 2136,-30.5 2276,-30.5 2276,-0.5 2136,-0.5"/>
<text text-anchor="start" x="2144" y="-18.5" font-family="Helvetica,sans-Serif" font-size="10.00">boost/multi_index/hashed</text>
<text text-anchor="middle" x="2206" y="-7.5" font-family="Helvetica,sans-Serif" font-size="10.00">_index.hpp</text>
</g>
<!-- Node1&#45;&gt;Node9 -->
<g id="edge8" class="edge"><title>Node1&#45;&gt;Node9</title>
<path fill="none" stroke="midnightblue" d="M1308.6,-433.711C1465.99,-432.182 2126.22,-423.729 2211,-389 2257.89,-369.79 2296,-363.676 2296,-313 2296,-313 2296,-313 2296,-143 2296,-99.2773 2259.86,-60.1718 2233.38,-37.3881"/>
<polygon fill="midnightblue" stroke="midnightblue" points="2235.46,-34.5577 2225.53,-30.8543 2230.98,-39.9397 2235.46,-34.5577"/>
</g>
<!-- Node10 -->
<g id="node10" class="node"><title>Node10</title>
<polygon fill="white" stroke="#bfbfbf" points="1566,-73 1566,-92 1694,-92 1694,-73 1566,-73"/>
<text text-anchor="middle" x="1630" y="-80" font-family="Helvetica,sans-Serif" font-size="10.00">boost/noncopyable.hpp</text>
</g>
<!-- Node1&#45;&gt;Node10 -->
<g id="edge9" class="edge"><title>Node1&#45;&gt;Node10</title>
<path fill="none" stroke="midnightblue" d="M1308.54,-433.038C1428.91,-429.397 1838.74,-415.314 1967,-389 2066.28,-368.631 2182,-414.35 2182,-313 2182,-313 2182,-313 2182,-199 2182,-102.513 1854.8,-86.1345 1704.22,-83.7058"/>
<polygon fill="midnightblue" stroke="midnightblue" points="1704.18,-80.2049 1694.13,-83.5597 1704.08,-87.2042 1704.18,-80.2049"/>
</g>
<!-- Node11 -->
<g id="node11" class="node"><title>Node11</title>
<polygon fill="white" stroke="#bfbfbf" points="1912.5,-134.5 1912.5,-153.5 2013.5,-153.5 2013.5,-134.5 1912.5,-134.5"/>
<text text-anchor="middle" x="1963" y="-141.5" font-family="Helvetica,sans-Serif" font-size="10.00">boost/variant.hpp</text>
</g>
<!-- Node1&#45;&gt;Node11 -->
<g id="edge10" class="edge"><title>Node1&#45;&gt;Node11</title>
<path fill="none" stroke="midnightblue" d="M1308.91,-432.204C1455.82,-423.978 2030,-387.091 2030,-313 2030,-313 2030,-313 2030,-255 2030,-216.704 2000.01,-180.416 1980.16,-160.589"/>
<polygon fill="midnightblue" stroke="midnightblue" points="1982.52,-158.003 1972.89,-153.598 1977.67,-163.05 1982.52,-158.003"/>
</g>
<!-- Node12 -->
<g id="node12" class="node"><title>Node12</title>
<polygon fill="white" stroke="#bfbfbf" points="2475.5,-364 2475.5,-383 2592.5,-383 2592.5,-364 2475.5,-364"/>
<text text-anchor="middle" x="2534" y="-371" font-family="Helvetica,sans-Serif" font-size="10.00">libxml++/libxml++.h</text>
</g>
<!-- Node1&#45;&gt;Node12 -->
<g id="edge11" class="edge"><title>Node1&#45;&gt;Node12</title>
<path fill="none" stroke="midnightblue" d="M1308.72,-433.526C1477.76,-431.03 2233.93,-418.389 2467,-389 2474.55,-388.048 2482.52,-386.666 2490.21,-385.129"/>
<polygon fill="midnightblue" stroke="midnightblue" points="2491.05,-388.528 2500.11,-383.041 2489.61,-381.679 2491.05,-388.528"/>
</g>
<!-- Node13 -->
<g id="node13" class="node"><title>Node13</title>
<g id="a_node13"><a xlink:href="ccf__group_8h.xhtml" target="_top" xlink:title="Functional containers for basic events grouped by common cause failure. ">
<polygon fill="white" stroke="black" points="813,-246.5 813,-265.5 885,-265.5 885,-246.5 813,-246.5"/>
<text text-anchor="middle" x="849" y="-253.5" font-family="Helvetica,sans-Serif" font-size="10.00">ccf_group.h</text>
</a>
</g>
</g>
<!-- Node1&#45;&gt;Node13 -->
<g id="edge12" class="edge"><title>Node1&#45;&gt;Node13</title>
<path fill="none" stroke="midnightblue" d="M1241.42,-434.888C1165.04,-435.003 976.974,-424.238 874,-322 861.543,-309.632 855.175,-290.386 851.995,-276.041"/>
<polygon fill="midnightblue" stroke="midnightblue" points="855.36,-274.995 850.074,-265.813 848.48,-276.287 855.36,-274.995"/>
</g>
<!-- Node16 -->
<g id="node16" class="node"><title>Node16</title>
<g id="a_node16"><a xlink:href="element_8h.xhtml" target="_top" xlink:title="Helper classes, structs, and properties common to all other classes. ">
<polygon fill="white" stroke="black" points="1346.5,-73 1346.5,-92 1411.5,-92 1411.5,-73 1346.5,-73"/>
<text text-anchor="middle" x="1379" y="-80" font-family="Helvetica,sans-Serif" font-size="10.00">element.h</text>
</a>
</g>
</g>
<!-- Node1&#45;&gt;Node16 -->
<g id="edge48" class="edge"><title>Node1&#45;&gt;Node16</title>
<path fill="none" stroke="midnightblue" d="M1308.51,-433.092C1420.58,-429.816 1781.54,-417.277 1894,-389 1964.81,-371.196 2004.27,-383.259 2044,-322 2089.78,-251.419 2084.85,-189.916 2022,-134 1983.28,-99.556 1608.66,-102.104 1557,-98 1510.87,-94.3351 1458.02,-90.0144 1421.97,-87.0486"/>
<polygon fill="midnightblue" stroke="midnightblue" points="1422.06,-83.5444 1411.8,-86.2119 1421.48,-90.5208 1422.06,-83.5444"/>
</g>
<!-- Node19 -->
<g id="node19" class="node"><title>Node19</title>
<g id="a_node19"><a xlink:href="event_8h.xhtml" target="_top" xlink:title="Contains event classes for fault trees. ">
<polygon fill="white" stroke="black" points="1282.5,-190.5 1282.5,-209.5 1335.5,-209.5 1335.5,-190.5 1282.5,-190.5"/>
<text text-anchor="middle" x="1309" y="-197.5" font-family="Helvetica,sans-Serif" font-size="10.00">event.h</text>
</a>
</g>
</g>
<!-- Node1&#45;&gt;Node19 -->
<g id="edge49" class="edge"><title>Node1&#45;&gt;Node19</title>
<path fill="none" stroke="midnightblue" d="M1276.89,-425.404C1278.84,-416.37 1281.88,-401.732 1284,-389 1294.24,-327.405 1303.03,-253.9 1306.9,-219.932"/>
<polygon fill="midnightblue" stroke="midnightblue" points="1310.41,-219.978 1308.05,-209.65 1303.46,-219.196 1310.41,-219.978"/>
</g>
<!-- Node20 -->
<g id="node20" class="node"><title>Node20</title>
<g id="a_node20"><a xlink:href="expression_8h.xhtml" target="_top" xlink:title="Provides the base class for all expressions and units for expression values. ">
<polygon fill="white" stroke="black" points="668.5,-134.5 668.5,-153.5 745.5,-153.5 745.5,-134.5 668.5,-134.5"/>
<text text-anchor="middle" x="707" y="-141.5" font-family="Helvetica,sans-Serif" font-size="10.00">expression.h</text>
</a>
</g>
</g>
<!-- Node1&#45;&gt;Node20 -->
<g id="edge67" class="edge"><title>Node1&#45;&gt;Node20</title>
<path fill="none" stroke="midnightblue" d="M1241.22,-432.876C1122.86,-428.762 727.336,-413.468 603,-389 510.606,-370.818 462.336,-394.296 402,-322 362.803,-275.034 387.914,-220.4 441,-190 477.217,-169.26 591.921,-155.588 658.282,-149.195"/>
<polygon fill="midnightblue" stroke="midnightblue" points="658.871,-152.655 668.498,-148.231 658.213,-145.686 658.871,-152.655"/>
</g>
<!-- Node26 -->
<g id="node26" class="node"><title>Node26</title>
<g id="a_node26"><a xlink:href="event__tree_8h.xhtml" target="_top" xlink:title="Event Tree facilities. ">
<polygon fill="white" stroke="black" points="1743.5,-302.5 1743.5,-321.5 1820.5,-321.5 1820.5,-302.5 1743.5,-302.5"/>
<text text-anchor="middle" x="1782" y="-309.5" font-family="Helvetica,sans-Serif" font-size="10.00">event_tree.h</text>
</a>
</g>
</g>
<!-- Node1&#45;&gt;Node26 -->
<g id="edge50" class="edge"><title>Node1&#45;&gt;Node26</title>
<path fill="none" stroke="midnightblue" d="M1308.73,-434.241C1401.41,-434.349 1657.77,-430.765 1729,-389 1751.27,-375.941 1766.45,-349.383 1774.67,-331.386"/>
<polygon fill="midnightblue" stroke="midnightblue" points="1778,-332.516 1778.71,-321.946 1771.56,-329.762 1778,-332.516"/>
</g>
<!-- Node28 -->
<g id="node28" class="node"><title>Node28</title>
<g id="a_node28"><a xlink:href="instruction_8h.xhtml" target="_top" xlink:title="Model and event tree modifier instructions. ">
<polygon fill="white" stroke="black" points="1483,-246.5 1483,-265.5 1559,-265.5 1559,-246.5 1483,-246.5"/>
<text text-anchor="middle" x="1521" y="-253.5" font-family="Helvetica,sans-Serif" font-size="10.00">instruction.h</text>
</a>
</g>
</g>
<!-- Node1&#45;&gt;Node28 -->
<g id="edge85" class="edge"><title>Node1&#45;&gt;Node28</title>
<path fill="none" stroke="midnightblue" d="M1308.76,-430.106C1364.49,-421.656 1474.3,-396.007 1522,-322 1530.78,-308.377 1529.4,-289.583 1526.49,-275.707"/>
<polygon fill="midnightblue" stroke="midnightblue" points="1529.83,-274.665 1523.99,-265.826 1523.05,-276.378 1529.83,-274.665"/>
</g>
<!-- Node29 -->
<g id="node29" class="node"><title>Node29</title>
<g id="a_node29"><a xlink:href="constant_8h.xhtml" target="_top" xlink:title="Constant expressions that cannot have uncertainties. ">
<polygon fill="white" stroke="black" points="142,-364 142,-383 264,-383 264,-364 142,-364"/>
<text text-anchor="middle" x="203" y="-371" font-family="Helvetica,sans-Serif" font-size="10.00">expression/constant.h</text>
</a>
</g>
</g>
<!-- Node1&#45;&gt;Node29 -->
<g id="edge68" class="edge"><title>Node1&#45;&gt;Node29</title>
<path fill="none" stroke="midnightblue" d="M1241.29,-434.256C1114.45,-434.844 653.953,-433.585 278,-389 269.293,-387.967 260.08,-386.501 251.204,-384.894"/>
<polygon fill="midnightblue" stroke="midnightblue" points="251.847,-381.453 241.371,-383.035 250.547,-388.331 251.847,-381.453"/>
</g>
<!-- Node30 -->
<g id="node30" class="node"><title>Node30</title>
<g id="a_node30"><a xlink:href="fault__tree_8h.xhtml" target="_top" xlink:title="Fault Tree and Component containers. ">
<polygon fill="white" stroke="black" points="991.5,-302.5 991.5,-321.5 1062.5,-321.5 1062.5,-302.5 991.5,-302.5"/>
<text text-anchor="middle" x="1027" y="-309.5" font-family="Helvetica,sans-Serif" font-size="10.00">fault_tree.h</text>
</a>
</g>
</g>
<!-- Node1&#45;&gt;Node30 -->
<g id="edge70" class="edge"><title>Node1&#45;&gt;Node30</title>
<path fill="none" stroke="midnightblue" d="M1241.27,-432.276C1201.96,-428.886 1136.37,-418.828 1089,-389 1065.87,-374.438 1047.37,-348.262 1036.79,-330.759"/>
<polygon fill="midnightblue" stroke="midnightblue" points="1039.54,-328.513 1031.5,-321.609 1033.48,-332.018 1039.54,-328.513"/>
</g>
<!-- Node32 -->
<g id="node32" class="node"><title>Node32</title>
<g id="a_node32"><a xlink:href="parameter_8h.xhtml" target="_top" xlink:title="Parameter expressions that act like a shareable variable. ">
<polygon fill="white" stroke="black" points="732,-190.5 732,-209.5 808,-209.5 808,-190.5 732,-190.5"/>
<text text-anchor="middle" x="770" y="-197.5" font-family="Helvetica,sans-Serif" font-size="10.00">parameter.h</text>
</a>
</g>
</g>
<!-- Node1&#45;&gt;Node32 -->
<g id="edge110" class="edge"><title>Node1&#45;&gt;Node32</title>
<path fill="none" stroke="midnightblue" d="M1241.49,-433.284C1177.66,-431.152 1034.75,-422.679 920,-389 798.11,-353.226 729.796,-373.427 662,-266 644.332,-238.003 685.258,-220.397 721.698,-210.677"/>
<polygon fill="midnightblue" stroke="midnightblue" points="722.956,-213.97 731.805,-208.143 721.254,-207.181 722.956,-213.97"/>
</g>
<!-- Node33 -->
<g id="node33" class="node"><title>Node33</title>
<g id="a_node33"><a xlink:href="model_8h.xhtml" target="_top" xlink:title="Representation for a model container for risk analysis. ">
<polygon fill="white" stroke="black" points="1219,-364 1219,-383 1275,-383 1275,-364 1219,-364"/>
<text text-anchor="middle" x="1247" y="-371" font-family="Helvetica,sans-Serif" font-size="10.00">model.h</text>
</a>
</g>
</g>
<!-- Node1&#45;&gt;Node33 -->
<g id="edge86" class="edge"><title>Node1&#45;&gt;Node33</title>
<path fill="none" stroke="midnightblue" d="M1270.99,-425.475C1266.91,-416.815 1260.48,-403.149 1255.3,-392.145"/>
<polygon fill="midnightblue" stroke="midnightblue" points="1258.43,-390.567 1251,-383.009 1252.1,-393.548 1258.43,-390.567"/>
</g>
<!-- Node36 -->
<g id="node36" class="node"><title>Node36</title>
<g id="a_node36"><a xlink:href="settings_8h.xhtml" target="_top" xlink:title="Builder for settings. ">
<polygon fill="white" stroke="black" points="329,-73 329,-92 393,-92 393,-73 329,-73"/>
<text text-anchor="middle" x="361" y="-80" font-family="Helvetica,sans-Serif" font-size="10.00">settings.h</text>
</a>
</g>
</g>
<!-- Node1&#45;&gt;Node36 -->
<g id="edge111" class="edge"><title>Node1&#45;&gt;Node36</title>
<path fill="none" stroke="midnightblue" d="M1241.34,-433.802C1057.07,-432.574 177.095,-424.848 133,-389 105.984,-367.037 114,-347.817 114,-313 114,-313 114,-313 114,-255 114,-156.355 248.568,-109.897 319.052,-92.3294"/>
<polygon fill="midnightblue" stroke="midnightblue" points="320.059,-95.687 328.962,-89.9443 318.421,-88.8814 320.059,-95.687"/>
</g>
<!-- Node13&#45;&gt;Node2 -->
<g id="edge13" class="edge"><title>Node13&#45;&gt;Node2</title>
<path fill="none" stroke="midnightblue" d="M864.605,-246.428C888.087,-233.635 934.019,-209.015 974,-190 998.54,-178.329 1026.87,-166.152 1047.77,-157.413"/>
<polygon fill="midnightblue" stroke="midnightblue" points="1049.2,-160.607 1057.09,-153.535 1046.51,-154.145 1049.2,-160.607"/>
</g>
<!-- Node13&#45;&gt;Node3 -->
<g id="edge14" class="edge"><title>Node13&#45;&gt;Node3</title>
<path fill="none" stroke="midnightblue" d="M812.729,-248.152C808.116,-247.375 803.453,-246.636 799,-246 723.785,-235.263 514.378,-262.018 459,-210 412.269,-166.104 423.021,-128.825 440,-67 443.322,-54.9046 450.377,-42.7742 456.811,-33.4347"/>
<polygon fill="midnightblue" stroke="midnightblue" points="459.805,-35.2697 462.877,-25.13 454.152,-31.1408 459.805,-35.2697"/>
</g>
<!-- Node13&#45;&gt;Node5 -->
<g id="edge16" class="edge"><title>Node13&#45;&gt;Node5</title>
<path fill="none" stroke="midnightblue" d="M812.997,-248.22C808.297,-247.423 803.539,-246.66 799,-246 727.311,-235.577 524.371,-263.015 475,-210 447.88,-180.878 456.62,-129.674 464.062,-102.19"/>
<polygon fill="midnightblue" stroke="midnightblue" points="467.506,-102.881 466.966,-92.2999 460.79,-100.908 467.506,-102.881"/>
</g>
<!-- Node13&#45;&gt;Node6 -->
<g id="edge17" class="edge"><title>Node13&#45;&gt;Node6</title>
<path fill="none" stroke="midnightblue" d="M851.082,-246.278C854.555,-233.075 862.51,-207.681 876,-190 900.59,-157.769 910.948,-150.451 948,-134 1032.15,-96.6387 1061.45,-114.652 1152,-98 1224.1,-84.741 1241.79,-79.6042 1314,-67 1418.06,-48.8381 1541.66,-30.1445 1600.13,-21.4744"/>
<polygon fill="midnightblue" stroke="midnightblue" points="1600.89,-24.9003 1610.27,-19.9746 1599.87,-17.9756 1600.89,-24.9003"/>
</g>
<!-- Node13&#45;&gt;Node10 -->
<g id="edge18" class="edge"><title>Node13&#45;&gt;Node10</title>
<path fill="none" stroke="midnightblue" d="M858.773,-246.362C873.85,-233.267 903.98,-208.014 932,-190 954.74,-175.38 1014.03,-141.52 1040,-134 1064.39,-126.937 1402.59,-100.694 1555.67,-89.0851"/>
<polygon fill="midnightblue" stroke="midnightblue" points="1556.21,-92.5539 1565.92,-88.3085 1555.69,-85.5739 1556.21,-92.5539"/>
</g>
<!-- Node14 -->
<g id="node14" class="node"><title>Node14</title>
<polygon fill="white" stroke="#bfbfbf" points="484,-190.5 484,-209.5 552,-209.5 552,-190.5 484,-190.5"/>
<text text-anchor="middle" x="518" y="-197.5" font-family="Helvetica,sans-Serif" font-size="10.00">type_traits</text>
</g>
<!-- Node13&#45;&gt;Node14 -->
<g id="edge15" class="edge"><title>Node13&#45;&gt;Node14</title>
<path fill="none" stroke="midnightblue" d="M812.971,-248.391C808.274,-247.566 803.525,-246.749 799,-246 696.651,-229.051 668.003,-228.955 562.358,-210.162"/>
<polygon fill="midnightblue" stroke="midnightblue" points="562.695,-206.667 552.234,-208.346 561.459,-213.557 562.695,-206.667"/>
</g>
<!-- Node15 -->
<g id="node15" class="node"><title>Node15</title>
<polygon fill="white" stroke="#bfbfbf" points="570,-190.5 570,-209.5 676,-209.5 676,-190.5 570,-190.5"/>
<text text-anchor="middle" x="623" y="-197.5" font-family="Helvetica,sans-Serif" font-size="10.00">boost/optional.hpp</text>
</g>
<!-- Node13&#45;&gt;Node15 -->
<g id="edge19" class="edge"><title>Node13&#45;&gt;Node15</title>
<path fill="none" stroke="midnightblue" d="M813.19,-246.444C774.012,-237.083 711.123,-222.056 668.485,-211.868"/>
<polygon fill="midnightblue" stroke="midnightblue" points="669.182,-208.436 658.643,-209.516 667.556,-215.245 669.182,-208.436"/>
</g>
<!-- Node13&#45;&gt;Node16 -->
<g id="edge20" class="edge"><title>Node13&#45;&gt;Node16</title>
<path fill="none" stroke="midnightblue" d="M853.727,-246.441C861.497,-232.999 878.107,-206.746 898,-190 939.666,-154.925 955.026,-150.281 1007,-134 1122.53,-97.8106 1157.07,-114.519 1277,-98 1296.49,-95.3148 1318.07,-92.2595 1336.34,-89.6481"/>
<polygon fill="midnightblue" stroke="midnightblue" points="1336.99,-93.0907 1346.4,-88.2083 1336,-86.1614 1336.99,-93.0907"/>
</g>
<!-- Node13&#45;&gt;Node19 -->
<g id="edge27" class="edge"><title>Node13&#45;&gt;Node19</title>
<path fill="none" stroke="midnightblue" d="M885.095,-250.763C970.794,-240.702 1185.79,-215.464 1272.19,-205.321"/>
<polygon fill="midnightblue" stroke="midnightblue" points="1272.79,-208.774 1282.32,-204.132 1271.98,-201.822 1272.79,-208.774"/>
</g>
<!-- Node13&#45;&gt;Node20 -->
<g id="edge47" class="edge"><title>Node13&#45;&gt;Node20</title>
<path fill="none" stroke="midnightblue" d="M814.079,-246.498C781.272,-237.833 735.416,-223.747 723,-210 711.691,-197.478 708.063,-178.253 707.041,-163.955"/>
<polygon fill="midnightblue" stroke="midnightblue" points="710.532,-163.638 706.684,-153.767 703.537,-163.883 710.532,-163.638"/>
</g>
<!-- Node16&#45;&gt;Node3 -->
<g id="edge22" class="edge"><title>Node16&#45;&gt;Node3</title>
<path fill="none" stroke="midnightblue" d="M1346.44,-79.2468C1304.16,-76.3369 1228.08,-71.1529 1163,-67 898.61,-50.1276 831.506,-58.4138 568,-31 545.916,-28.7025 521.184,-25.0349 502.091,-21.9633"/>
<polygon fill="midnightblue" stroke="midnightblue" points="502.55,-18.492 492.116,-20.3306 501.419,-25.4 502.55,-18.492"/>
</g>
<!-- Node16&#45;&gt;Node6 -->
<g id="edge23" class="edge"><title>Node16&#45;&gt;Node6</title>
<path fill="none" stroke="midnightblue" d="M1405.76,-72.9348C1412.35,-70.9098 1419.41,-68.8137 1426,-67 1487.27,-50.1289 1559.5,-33.2633 1600.7,-23.9241"/>
<polygon fill="midnightblue" stroke="midnightblue" points="1601.5,-27.3321 1610.48,-21.7165 1599.96,-20.5038 1601.5,-27.3321"/>
</g>
<!-- Node16&#45;&gt;Node7 -->
<g id="edge24" class="edge"><title>Node16&#45;&gt;Node7</title>
<path fill="none" stroke="midnightblue" d="M1411.7,-77.7244C1497.62,-67.8053 1731.78,-40.7703 1858.27,-26.1666"/>
<polygon fill="midnightblue" stroke="midnightblue" points="1858.77,-29.6319 1868.31,-25.008 1857.97,-22.6781 1858.77,-29.6319"/>
</g>
<!-- Node16&#45;&gt;Node9 -->
<g id="edge25" class="edge"><title>Node16&#45;&gt;Node9</title>
<path fill="none" stroke="midnightblue" d="M1411.8,-78.7645C1447.51,-75.8012 1506.31,-70.9657 1557,-67 1770.28,-50.3151 1823.76,-48.1442 2037,-31 2065.89,-28.6775 2097.54,-25.9978 2125.56,-23.5787"/>
<polygon fill="midnightblue" stroke="midnightblue" points="2126.05,-27.0497 2135.71,-22.7004 2125.45,-20.0758 2126.05,-27.0497"/>
</g>
<!-- Node17 -->
<g id="node17" class="node"><title>Node17</title>
<polygon fill="white" stroke="#bfbfbf" points="1041.5,-6 1041.5,-25 1090.5,-25 1090.5,-6 1041.5,-6"/>
<text text-anchor="middle" x="1066" y="-13" font-family="Helvetica,sans-Serif" font-size="10.00">cstdint</text>
</g>
<!-- Node16&#45;&gt;Node17 -->
<g id="edge21" class="edge"><title>Node16&#45;&gt;Node17</title>
<path fill="none" stroke="midnightblue" d="M1346.39,-74.7278C1286.89,-62.3713 1161.25,-36.2802 1100.43,-23.6498"/>
<polygon fill="midnightblue" stroke="midnightblue" points="1101.05,-20.2046 1090.55,-21.5981 1099.63,-27.0584 1101.05,-20.2046"/>
</g>
<!-- Node18 -->
<g id="node18" class="node"><title>Node18</title>
<polygon fill="white" stroke="#bfbfbf" points="1314,-0.5 1314,-30.5 1444,-30.5 1444,-0.5 1314,-0.5"/>
<text text-anchor="start" x="1322" y="-18.5" font-family="Helvetica,sans-Serif" font-size="10.00">boost/multi_index/mem</text>
<text text-anchor="middle" x="1379" y="-7.5" font-family="Helvetica,sans-Serif" font-size="10.00">_fun.hpp</text>
</g>
<!-- Node16&#45;&gt;Node18 -->
<g id="edge26" class="edge"><title>Node16&#45;&gt;Node18</title>
<path fill="none" stroke="midnightblue" d="M1379,-72.7338C1379,-64.5406 1379,-51.9225 1379,-40.7136"/>
<polygon fill="midnightblue" stroke="midnightblue" points="1382.5,-40.589 1379,-30.589 1375.5,-40.5891 1382.5,-40.589"/>
</g>
<!-- Node19&#45;&gt;Node2 -->
<g id="edge29" class="edge"><title>Node19&#45;&gt;Node2</title>
<path fill="none" stroke="midnightblue" d="M1282.05,-192.7C1241.14,-183.135 1163.17,-164.91 1116.36,-153.967"/>
<polygon fill="midnightblue" stroke="midnightblue" points="1117.12,-150.55 1106.58,-151.682 1115.52,-157.366 1117.12,-150.55"/>
</g>
<!-- Node19&#45;&gt;Node3 -->
<g id="edge30" class="edge"><title>Node19&#45;&gt;Node3</title>
<path fill="none" stroke="midnightblue" d="M1289.47,-190.314C1225.97,-162.122 1027.62,-74.5577 997,-67 811.238,-21.1508 758.066,-53.0136 568,-31 545.944,-28.4455 521.212,-24.7801 502.112,-21.7738"/>
<polygon fill="midnightblue" stroke="midnightblue" points="502.559,-18.301 492.132,-20.1827 501.457,-25.2136 502.559,-18.301"/>
</g>
<!-- Node19&#45;&gt;Node6 -->
<g id="edge31" class="edge"><title>Node19&#45;&gt;Node6</title>
<path fill="none" stroke="midnightblue" d="M1307.88,-190.378C1305.34,-166.796 1301.85,-100.749 1337,-67 1355.83,-48.9164 1525.98,-28.3191 1599.93,-20.1315"/>
<polygon fill="midnightblue" stroke="midnightblue" points="1600.56,-23.584 1610.12,-19.0153 1599.8,-16.6257 1600.56,-23.584"/>
</g>
<!-- Node19&#45;&gt;Node10 -->
<g id="edge32" class="edge"><title>Node19&#45;&gt;Node10</title>
<path fill="none" stroke="midnightblue" d="M1332.86,-190.413C1389.27,-170.116 1530.98,-119.129 1596.19,-95.6642"/>
<polygon fill="midnightblue" stroke="midnightblue" points="1597.75,-98.8224 1605.98,-92.1434 1595.38,-92.2358 1597.75,-98.8224"/>
</g>
<!-- Node19&#45;&gt;Node11 -->
<g id="edge33" class="edge"><title>Node19&#45;&gt;Node11</title>
<path fill="none" stroke="midnightblue" d="M1335.86,-196.782C1432.59,-188.796 1764.7,-161.373 1902.42,-150.002"/>
<polygon fill="midnightblue" stroke="midnightblue" points="1902.71,-153.49 1912.38,-149.179 1902.13,-146.514 1902.71,-153.49"/>
</g>
<!-- Node19&#45;&gt;Node16 -->
<g id="edge34" class="edge"><title>Node19&#45;&gt;Node16</title>
<path fill="none" stroke="midnightblue" d="M1314.26,-190.319C1325.71,-171.422 1353.09,-126.248 1368.32,-101.121"/>
<polygon fill="midnightblue" stroke="midnightblue" points="1371.49,-102.648 1373.68,-92.282 1365.5,-99.0199 1371.49,-102.648"/>
</g>
<!-- Node19&#45;&gt;Node17 -->
<g id="edge28" class="edge"><title>Node19&#45;&gt;Node17</title>
<path fill="none" stroke="midnightblue" d="M1293.82,-190.407C1278.8,-181.728 1255.32,-167.682 1236,-154 1205.6,-132.47 1121.89,-63.1337 1084.48,-31.9487"/>
<polygon fill="midnightblue" stroke="midnightblue" points="1086.35,-28.9482 1076.43,-25.2283 1081.87,-34.3227 1086.35,-28.9482"/>
</g>
<!-- Node19&#45;&gt;Node20 -->
<g id="edge35" class="edge"><title>Node19&#45;&gt;Node20</title>
<path fill="none" stroke="midnightblue" d="M1282.36,-196.61C1189.16,-188.25 876.903,-160.24 755.685,-149.367"/>
<polygon fill="midnightblue" stroke="midnightblue" points="755.856,-145.868 745.583,-148.461 755.231,-152.84 755.856,-145.868"/>
</g>
<!-- Node20&#45;&gt;Node3 -->
<g id="edge38" class="edge"><title>Node20&#45;&gt;Node3</title>
<path fill="none" stroke="midnightblue" d="M672.634,-134.498C645.447,-127.005 607.031,-114.679 576,-98 566.642,-92.9704 516.465,-53.4589 488.632,-31.3526"/>
<polygon fill="midnightblue" stroke="midnightblue" points="490.786,-28.5942 480.781,-25.1083 486.429,-34.0725 490.786,-28.5942"/>
</g>
<!-- Node20&#45;&gt;Node5 -->
<g id="edge39" class="edge"><title>Node20&#45;&gt;Node5</title>
<path fill="none" stroke="midnightblue" d="M673.044,-134.475C627.068,-122.933 545.665,-102.496 501.173,-91.3261"/>
<polygon fill="midnightblue" stroke="midnightblue" points="501.772,-87.8681 491.221,-88.8277 500.068,-94.6574 501.772,-87.8681"/>
</g>
<!-- Node20&#45;&gt;Node6 -->
<g id="edge40" class="edge"><title>Node20&#45;&gt;Node6</title>
<path fill="none" stroke="midnightblue" d="M745.759,-137.445C834.679,-124.726 1060.22,-92.6161 1249,-67 1378.67,-49.4047 1533.05,-29.4575 1600.12,-20.8418"/>
<polygon fill="midnightblue" stroke="midnightblue" points="1600.64,-24.3034 1610.11,-19.5584 1599.75,-17.3604 1600.64,-24.3034"/>
</g>
<!-- Node20&#45;&gt;Node10 -->
<g id="edge42" class="edge"><title>Node20&#45;&gt;Node10</title>
<path fill="none" stroke="midnightblue" d="M745.649,-140.641C852.775,-134.086 1162.58,-115.011 1420,-98 1465.05,-95.0233 1515.52,-91.5431 1555.69,-88.7384"/>
<polygon fill="midnightblue" stroke="midnightblue" points="1555.94,-92.2296 1565.67,-88.0406 1555.45,-85.2466 1555.94,-92.2296"/>
</g>
<!-- Node20&#45;&gt;Node16 -->
<g id="edge43" class="edge"><title>Node20&#45;&gt;Node16</title>
<path fill="none" stroke="midnightblue" d="M745.738,-139.975C833.545,-133.062 1054.43,-115.362 1239,-98 1271.68,-94.9256 1308.62,-91.085 1336.34,-88.1289"/>
<polygon fill="midnightblue" stroke="midnightblue" points="1336.91,-91.5873 1346.49,-87.0426 1336.17,-84.6271 1336.91,-91.5873"/>
</g>
<!-- Node21 -->
<g id="node21" class="node"><title>Node21</title>
<polygon fill="white" stroke="#bfbfbf" points="781,-73 781,-92 843,-92 843,-73 781,-73"/>
<text text-anchor="middle" x="812" y="-80" font-family="Helvetica,sans-Serif" font-size="10.00">algorithm</text>
</g>
<!-- Node20&#45;&gt;Node21 -->
<g id="edge36" class="edge"><title>Node20&#45;&gt;Node21</title>
<path fill="none" stroke="midnightblue" d="M722.044,-134.475C739.275,-124.711 767.74,-108.581 788.034,-97.0808"/>
<polygon fill="midnightblue" stroke="midnightblue" points="790.009,-99.9843 796.984,-92.0091 786.558,-93.8942 790.009,-99.9843"/>
</g>
<!-- Node22 -->
<g id="node22" class="node"><title>Node22</title>
<polygon fill="white" stroke="#bfbfbf" points="861,-73 861,-92 917,-92 917,-73 861,-73"/>
<text text-anchor="middle" x="889" y="-80" font-family="Helvetica,sans-Serif" font-size="10.00">sstream</text>
</g>
<!-- Node20&#45;&gt;Node22 -->
<g id="edge37" class="edge"><title>Node20&#45;&gt;Node22</title>
<path fill="none" stroke="midnightblue" d="M736.643,-134.486C766.094,-125.867 812.451,-111.866 852,-98 854.116,-97.2581 856.291,-96.4709 858.476,-95.6619"/>
<polygon fill="midnightblue" stroke="midnightblue" points="859.867,-98.8773 867.967,-92.0476 857.376,-92.3356 859.867,-98.8773"/>
</g>
<!-- Node23 -->
<g id="node23" class="node"><title>Node23</title>
<polygon fill="white" stroke="#bfbfbf" points="651,-67.5 651,-97.5 763,-97.5 763,-67.5 651,-67.5"/>
<text text-anchor="start" x="659" y="-85.5" font-family="Helvetica,sans-Serif" font-size="10.00">boost/icl/continuous</text>
<text text-anchor="middle" x="707" y="-74.5" font-family="Helvetica,sans-Serif" font-size="10.00">_interval.hpp</text>
</g>
<!-- Node20&#45;&gt;Node23 -->
<g id="edge41" class="edge"><title>Node20&#45;&gt;Node23</title>
<path fill="none" stroke="midnightblue" d="M707,-134.475C707,-127.471 707,-117.192 707,-107.696"/>
<polygon fill="midnightblue" stroke="midnightblue" points="710.5,-107.523 707,-97.523 703.5,-107.523 710.5,-107.523"/>
</g>
<!-- Node24 -->
<g id="node24" class="node"><title>Node24</title>
<g id="a_node24"><a xlink:href="error_8h.xhtml" target="_top" xlink:title="Exceptions for SCRAM. ">
<polygon fill="white" stroke="black" points="585,-73 585,-92 633,-92 633,-73 585,-73"/>
<text text-anchor="middle" x="609" y="-80" font-family="Helvetica,sans-Serif" font-size="10.00">error.h</text>
</a>
</g>
</g>
<!-- Node20&#45;&gt;Node24 -->
<g id="edge44" class="edge"><title>Node20&#45;&gt;Node24</title>
<path fill="none" stroke="midnightblue" d="M692.959,-134.475C676.949,-124.755 650.55,-108.727 631.626,-97.2372"/>
<polygon fill="midnightblue" stroke="midnightblue" points="633.379,-94.2072 623.015,-92.0091 629.746,-100.191 633.379,-94.2072"/>
</g>
<!-- Node24&#45;&gt;Node3 -->
<g id="edge46" class="edge"><title>Node24&#45;&gt;Node3</title>
<path fill="none" stroke="midnightblue" d="M590.542,-72.8685C566.76,-61.7476 525.208,-42.3167 497.647,-29.4286"/>
<polygon fill="midnightblue" stroke="midnightblue" points="499.076,-26.2328 488.534,-25.1672 496.11,-32.5737 499.076,-26.2328"/>
</g>
<!-- Node25 -->
<g id="node25" class="node"><title>Node25</title>
<polygon fill="white" stroke="#bfbfbf" points="577.5,-6 577.5,-25 640.5,-25 640.5,-6 577.5,-6"/>
<text text-anchor="middle" x="609" y="-13" font-family="Helvetica,sans-Serif" font-size="10.00">exception</text>
</g>
<!-- Node24&#45;&gt;Node25 -->
<g id="edge45" class="edge"><title>Node24&#45;&gt;Node25</title>
<path fill="none" stroke="midnightblue" d="M609,-72.7338C609,-63.1826 609,-47.6183 609,-35.2829"/>
<polygon fill="midnightblue" stroke="midnightblue" points="612.5,-35.1273 609,-25.1273 605.5,-35.1273 612.5,-35.1273"/>
</g>
<!-- Node26&#45;&gt;Node2 -->
<g id="edge51" class="edge"><title>Node26&#45;&gt;Node2</title>
<path fill="none" stroke="midnightblue" d="M1743.36,-309.305C1651.21,-304.133 1412.6,-284.043 1230,-210 1214.11,-203.555 1212.42,-197.509 1197,-190 1170.24,-176.969 1138.68,-165.188 1114.79,-156.952"/>
<polygon fill="midnightblue" stroke="midnightblue" points="1115.65,-153.548 1105.06,-153.646 1113.4,-160.176 1115.65,-153.548"/>
</g>
<!-- Node26&#45;&gt;Node3 -->
<g id="edge52" class="edge"><title>Node26&#45;&gt;Node3</title>
<path fill="none" stroke="midnightblue" d="M1743.41,-310.346C1666.07,-308.32 1486.97,-300.017 1341,-266 1201.99,-233.604 1164.99,-222.939 1040,-154 984.191,-123.218 985.282,-90.4066 926,-67 777.261,-8.27253 726.694,-50.7083 568,-31 545.966,-28.2636 521.234,-24.5998 502.128,-21.6397"/>
<polygon fill="midnightblue" stroke="midnightblue" points="502.566,-18.1657 492.145,-20.078 501.484,-25.0816 502.566,-18.1657"/>
</g>
<!-- Node26&#45;&gt;Node6 -->
<g id="edge53" class="edge"><title>Node26&#45;&gt;Node6</title>
<path fill="none" stroke="midnightblue" d="M1820.74,-307.237C1855.69,-302.314 1907.24,-291.125 1945,-266 2001.55,-228.377 2058.96,-190.984 2022,-134 1982.48,-73.0624 1754.49,-34.0093 1667.61,-21.162"/>
<polygon fill="midnightblue" stroke="midnightblue" points="1667.9,-17.6673 1657.5,-19.6915 1666.89,-24.5944 1667.9,-17.6673"/>
</g>
<!-- Node26&#45;&gt;Node10 -->
<g id="edge54" class="edge"><title>Node26&#45;&gt;Node10</title>
<path fill="none" stroke="midnightblue" d="M1785.6,-302.222C1789.06,-293.285 1794.03,-278.942 1796,-266 1801.07,-232.606 1805.92,-222.288 1796,-190 1787.17,-161.248 1781.48,-152.8 1758,-134 1734.62,-115.282 1703.45,-102.786 1677.72,-94.9072"/>
<polygon fill="midnightblue" stroke="midnightblue" points="1678.37,-91.4515 1667.79,-92.0099 1676.41,-98.1713 1678.37,-91.4515"/>
</g>
<!-- Node26&#45;&gt;Node11 -->
<g id="edge55" class="edge"><title>Node26&#45;&gt;Node11</title>
<path fill="none" stroke="midnightblue" d="M1820.58,-304.037C1867.21,-293.228 1943.02,-267.348 1972,-210 1979.38,-195.398 1975.65,-176.724 1970.95,-163.141"/>
<polygon fill="midnightblue" stroke="midnightblue" points="1974.08,-161.542 1967.17,-153.515 1967.56,-164.102 1974.08,-161.542"/>
</g>
<!-- Node26&#45;&gt;Node16 -->
<g id="edge56" class="edge"><title>Node26&#45;&gt;Node16</title>
<path fill="none" stroke="midnightblue" d="M1776.18,-302.294C1756.28,-273.246 1687.6,-178.96 1606,-134 1547.36,-101.692 1469.44,-90.0504 1421.82,-85.8575"/>
<polygon fill="midnightblue" stroke="midnightblue" points="1422.1,-82.3686 1411.85,-85.0496 1421.53,-89.3457 1422.1,-82.3686"/>
</g>
<!-- Node27 -->
<g id="node27" class="node"><title>Node27</title>
<g id="a_node27"><a xlink:href="variant_8h.xhtml" target="_top" xlink:title="Extra helper functions for boost::variant. ">
<polygon fill="white" stroke="black" points="1886.5,-190.5 1886.5,-209.5 1963.5,-209.5 1963.5,-190.5 1886.5,-190.5"/>
<text text-anchor="middle" x="1925" y="-197.5" font-family="Helvetica,sans-Serif" font-size="10.00">ext/variant.h</text>
</a>
</g>
</g>
<!-- Node26&#45;&gt;Node27 -->
<g id="edge57" class="edge"><title>Node26&#45;&gt;Node27</title>
<path fill="none" stroke="midnightblue" d="M1805.76,-302.359C1824.89,-294.676 1851.82,-282.16 1872,-266 1889.16,-252.263 1904.51,-232.129 1914.22,-217.916"/>
<polygon fill="midnightblue" stroke="midnightblue" points="1917.15,-219.83 1919.74,-209.559 1911.31,-215.968 1917.15,-219.83"/>
</g>
<!-- Node26&#45;&gt;Node28 -->
<g id="edge59" class="edge"><title>Node26&#45;&gt;Node28</title>
<path fill="none" stroke="midnightblue" d="M1743.49,-303.032C1697.19,-293.453 1619.46,-277.371 1569.22,-266.976"/>
<polygon fill="midnightblue" stroke="midnightblue" points="1569.75,-263.511 1559.24,-264.913 1568.33,-270.366 1569.75,-263.511"/>
</g>
<!-- Node27&#45;&gt;Node11 -->
<g id="edge58" class="edge"><title>Node27&#45;&gt;Node11</title>
<path fill="none" stroke="midnightblue" d="M1931.27,-190.083C1936.64,-182.455 1944.52,-171.264 1951.08,-161.941"/>
<polygon fill="midnightblue" stroke="midnightblue" points="1953.95,-163.943 1956.84,-153.751 1948.22,-159.915 1953.95,-163.943"/>
</g>
<!-- Node28&#45;&gt;Node2 -->
<g id="edge60" class="edge"><title>Node28&#45;&gt;Node2</title>
<path fill="none" stroke="midnightblue" d="M1482.88,-251.15C1433.55,-245.477 1345.36,-232.974 1273,-210 1252.91,-203.622 1249.71,-197.456 1230,-190 1192.19,-175.698 1147.72,-162.993 1116.69,-154.761"/>
<polygon fill="midnightblue" stroke="midnightblue" points="1117.27,-151.295 1106.71,-152.145 1115.49,-158.066 1117.27,-151.295"/>
</g>
<!-- Node28&#45;&gt;Node3 -->
<g id="edge61" class="edge"><title>Node28&#45;&gt;Node3</title>
<path fill="none" stroke="midnightblue" d="M1504.91,-246.449C1446.1,-215.677 1236.58,-110.127 1050,-67 840.7,-18.6199 781.503,-54.7366 568,-31 545.933,-28.5467 521.201,-24.8804 502.103,-21.8484"/>
<polygon fill="midnightblue" stroke="midnightblue" points="502.555,-18.3761 492.126,-20.2409 501.442,-25.287 502.555,-18.3761"/>
</g>
<!-- Node28&#45;&gt;Node6 -->
<g id="edge62" class="edge"><title>Node28&#45;&gt;Node6</title>
<path fill="none" stroke="midnightblue" d="M1539.57,-246.357C1579.18,-226.707 1670.96,-174.386 1703,-98 1708.33,-85.2944 1709.23,-79.287 1703,-67 1694.66,-50.5553 1678.16,-38.1794 1663.4,-29.7956"/>
<polygon fill="midnightblue" stroke="midnightblue" points="1664.99,-26.6775 1654.51,-25.0906 1661.71,-32.8636 1664.99,-26.6775"/>
</g>
<!-- Node28&#45;&gt;Node10 -->
<g id="edge63" class="edge"><title>Node28&#45;&gt;Node10</title>
<path fill="none" stroke="midnightblue" d="M1532.15,-246.277C1542.42,-237.823 1557.6,-224.225 1568,-210 1593.77,-174.76 1613.75,-127.162 1623.48,-101.572"/>
<polygon fill="midnightblue" stroke="midnightblue" points="1626.81,-102.646 1627.01,-92.0527 1620.25,-100.211 1626.81,-102.646"/>
</g>
<!-- Node28&#45;&gt;Node16 -->
<g id="edge64" class="edge"><title>Node28&#45;&gt;Node16</title>
<path fill="none" stroke="midnightblue" d="M1521.38,-246.248C1521.85,-224.611 1520.15,-167.906 1492,-134 1474.15,-112.494 1445.26,-99.8049 1421.17,-92.5251"/>
<polygon fill="midnightblue" stroke="midnightblue" points="1422.09,-89.1505 1411.52,-89.8153 1420.2,-95.8896 1422.09,-89.1505"/>
</g>
<!-- Node28&#45;&gt;Node19 -->
<g id="edge65" class="edge"><title>Node28&#45;&gt;Node19</title>
<path fill="none" stroke="midnightblue" d="M1487.41,-246.444C1448.74,-236.595 1385.45,-220.474 1345.57,-210.316"/>
<polygon fill="midnightblue" stroke="midnightblue" points="1346.28,-206.883 1335.72,-207.807 1344.55,-213.667 1346.28,-206.883"/>
</g>
<!-- Node28&#45;&gt;Node20 -->
<g id="edge66" class="edge"><title>Node28&#45;&gt;Node20</title>
<path fill="none" stroke="midnightblue" d="M1482.83,-249.842C1349.46,-231.819 904.297,-171.662 755.734,-151.586"/>
<polygon fill="midnightblue" stroke="midnightblue" points="755.938,-148.081 745.559,-150.211 755,-155.018 755.938,-148.081"/>
</g>
<!-- Node29&#45;&gt;Node20 -->
<g id="edge69" class="edge"><title>Node29&#45;&gt;Node20</title>
<path fill="none" stroke="midnightblue" d="M200.1,-363.726C191.024,-334.417 166.493,-238.994 214,-190 244.526,-158.518 539.717,-148.632 658.175,-145.917"/>
<polygon fill="midnightblue" stroke="midnightblue" points="658.485,-149.411 668.405,-145.69 658.33,-142.413 658.485,-149.411"/>
</g>
<!-- Node30&#45;&gt;Node2 -->
<g id="edge71" class="edge"><title>Node30&#45;&gt;Node2</title>
<path fill="none" stroke="midnightblue" d="M1027.54,-302.491C1029.05,-282.312 1034.29,-230.236 1050,-190 1053.84,-180.16 1059.87,-170.097 1065.35,-161.988"/>
<polygon fill="midnightblue" stroke="midnightblue" points="1068.24,-163.965 1071.16,-153.781 1062.52,-159.922 1068.24,-163.965"/>
</g>
<!-- Node30&#45;&gt;Node3 -->
<g id="edge72" class="edge"><title>Node30&#45;&gt;Node3</title>
<path fill="none" stroke="midnightblue" d="M991.267,-308.165C925.634,-302.611 781.635,-288.809 662,-266 627.268,-259.378 619.736,-252.601 585,-246 520.119,-233.671 334.437,-258.856 290,-210 247.226,-162.973 248.49,-117.577 287,-67 305.191,-43.1091 390.202,-27.6432 437.693,-20.7129"/>
<polygon fill="midnightblue" stroke="midnightblue" points="438.368,-24.1524 447.779,-19.2869 437.388,-17.2213 438.368,-24.1524"/>
</g>
<!-- Node30&#45;&gt;Node6 -->
<g id="edge74" class="edge"><title>Node30&#45;&gt;Node6</title>
<path fill="none" stroke="midnightblue" d="M1061.69,-302.48C1096.16,-293.856 1150.47,-279.852 1197,-266 1272.84,-243.421 1295.86,-246.632 1366,-210 1460,-160.907 1470.18,-127.886 1557,-67 1575.1,-54.3061 1596.12,-40.5893 1611.62,-30.6594"/>
<polygon fill="midnightblue" stroke="midnightblue" points="1613.93,-33.3366 1620.48,-25.009 1610.16,-27.4343 1613.93,-33.3366"/>
</g>
<!-- Node30&#45;&gt;Node10 -->
<g id="edge75" class="edge"><title>Node30&#45;&gt;Node10</title>
<path fill="none" stroke="midnightblue" d="M1062.67,-307.599C1138.1,-299.347 1318.06,-274.022 1454,-210 1518.1,-179.811 1583.12,-125.594 1613.03,-99.0287"/>
<polygon fill="midnightblue" stroke="midnightblue" points="1615.41,-101.599 1620.51,-92.3121 1610.73,-96.3925 1615.41,-101.599"/>
</g>
<!-- Node30&#45;&gt;Node13 -->
<g id="edge76" class="edge"><title>Node30&#45;&gt;Node13</title>
<path fill="none" stroke="midnightblue" d="M998.795,-302.444C968.59,-293.28 920.489,-278.688 886.971,-268.519"/>
<polygon fill="midnightblue" stroke="midnightblue" points="887.658,-265.07 877.073,-265.516 885.626,-271.769 887.658,-265.07"/>
</g>
<!-- Node30&#45;&gt;Node16 -->
<g id="edge77" class="edge"><title>Node30&#45;&gt;Node16</title>
<path fill="none" stroke="midnightblue" d="M1049.74,-302.491C1084.63,-289.565 1153.56,-264.528 1213,-246 1270.64,-228.03 1301.27,-252.658 1344,-210 1373.07,-180.982 1378.55,-130.114 1379.26,-102.551"/>
<polygon fill="midnightblue" stroke="midnightblue" points="1382.76,-102.318 1379.32,-92.2965 1375.76,-102.275 1382.76,-102.318"/>
</g>
<!-- Node30&#45;&gt;Node19 -->
<g id="edge78" class="edge"><title>Node30&#45;&gt;Node19</title>
<path fill="none" stroke="midnightblue" d="M1038.7,-302.39C1057.89,-288.637 1097.67,-261.67 1135,-246 1180.56,-226.874 1236.34,-214.191 1272.26,-207.298"/>
<polygon fill="midnightblue" stroke="midnightblue" points="1273.1,-210.702 1282.29,-205.425 1271.82,-203.821 1273.1,-210.702"/>
</g>
<!-- Node31 -->
<g id="node31" class="node"><title>Node31</title>
<polygon fill="white" stroke="#bfbfbf" points="671,-246.5 671,-265.5 757,-265.5 757,-246.5 671,-246.5"/>
<text text-anchor="middle" x="714" y="-253.5" font-family="Helvetica,sans-Serif" font-size="10.00">unordered_set</text>
</g>
<!-- Node30&#45;&gt;Node31 -->
<g id="edge73" class="edge"><title>Node30&#45;&gt;Node31</title>
<path fill="none" stroke="midnightblue" d="M991.4,-304.858C936.494,-295.386 830.828,-277.156 766.94,-266.133"/>
<polygon fill="midnightblue" stroke="midnightblue" points="767.508,-262.68 757.059,-264.429 766.318,-269.578 767.508,-262.68"/>
</g>
<!-- Node30&#45;&gt;Node32 -->
<g id="edge79" class="edge"><title>Node30&#45;&gt;Node32</title>
<path fill="none" stroke="midnightblue" d="M1016.23,-302.441C998.557,-288.76 961.855,-261.891 927,-246 891.963,-230.026 849.918,-218.337 818.16,-210.881"/>
<polygon fill="midnightblue" stroke="midnightblue" points="818.761,-207.428 808.232,-208.609 817.199,-214.252 818.761,-207.428"/>
</g>
<!-- Node32&#45;&gt;Node2 -->
<g id="edge81" class="edge"><title>Node32&#45;&gt;Node2</title>
<path fill="none" stroke="midnightblue" d="M808.076,-192.324C866.987,-181.996 979.617,-162.249 1039.05,-151.828"/>
<polygon fill="midnightblue" stroke="midnightblue" points="1039.92,-155.231 1049.16,-150.056 1038.71,-148.336 1039.92,-155.231"/>
</g>
<!-- Node32&#45;&gt;Node3 -->
<g id="edge82" class="edge"><title>Node32&#45;&gt;Node3</title>
<path fill="none" stroke="midnightblue" d="M735.256,-190.388C686.249,-176.95 595.801,-147.294 533,-98 510.21,-80.1118 491.035,-52.2265 480.026,-34.1601"/>
<polygon fill="midnightblue" stroke="midnightblue" points="482.873,-32.0964 474.779,-25.2592 476.843,-35.6512 482.873,-32.0964"/>
</g>
<!-- Node32&#45;&gt;Node16 -->
<g id="edge83" class="edge"><title>Node32&#45;&gt;Node16</title>
<path fill="none" stroke="midnightblue" d="M785.185,-190.327C811.095,-175.975 865.91,-147.526 916,-134 926.113,-131.269 1223.39,-99.8533 1336.17,-87.9944"/>
<polygon fill="midnightblue" stroke="midnightblue" points="1336.6,-91.4686 1346.18,-86.9424 1335.87,-84.5069 1336.6,-91.4686"/>
</g>
<!-- Node32&#45;&gt;Node17 -->
<g id="edge80" class="edge"><title>Node32&#45;&gt;Node17</title>
<path fill="none" stroke="midnightblue" d="M777.41,-190.39C789.409,-176.876 814.349,-150.529 840,-134 874.831,-111.556 888.905,-116.463 926,-98 968.793,-76.7017 1016.47,-47.7604 1043.69,-30.7125"/>
<polygon fill="midnightblue" stroke="midnightblue" points="1045.83,-33.5028 1052.42,-25.2104 1042.09,-27.5804 1045.83,-33.5028"/>
</g>
<!-- Node32&#45;&gt;Node20 -->
<g id="edge84" class="edge"><title>Node32&#45;&gt;Node20</title>
<path fill="none" stroke="midnightblue" d="M759.878,-190.324C750.474,-182.263 736.256,-170.077 724.931,-160.369"/>
<polygon fill="midnightblue" stroke="midnightblue" points="727.177,-157.684 717.306,-153.834 722.621,-162.999 727.177,-157.684"/>
</g>
<!-- Node33&#45;&gt;Node2 -->
<g id="edge87" class="edge"><title>Node33&#45;&gt;Node2</title>
<path fill="none" stroke="midnightblue" d="M1240.58,-363.86C1215.54,-330.146 1124.12,-207.082 1090.51,-161.838"/>
<polygon fill="midnightblue" stroke="midnightblue" points="1093.2,-159.589 1084.43,-153.649 1087.58,-163.764 1093.2,-159.589"/>
</g>
<!-- Node33&#45;&gt;Node3 -->
<g id="edge88" class="edge"><title>Node33&#45;&gt;Node3</title>
<path fill="none" stroke="midnightblue" d="M1218.7,-371.797C1090.54,-368.463 563.822,-353.094 402,-322 324.294,-307.069 307.159,-293.597 233,-266 162.22,-239.661 76,-276.522 76,-201 76,-201 76,-201 76,-143 76,-67.1659 343.947,-30.3782 437.909,-19.8091"/>
<polygon fill="midnightblue" stroke="midnightblue" points="438.415,-23.2747 447.973,-18.7032 437.65,-16.3166 438.415,-23.2747"/>
</g>
<!-- Node33&#45;&gt;Node6 -->
<g id="edge89" class="edge"><title>Node33&#45;&gt;Node6</title>
<path fill="none" stroke="midnightblue" d="M1275,-372.841C1359.71,-373.286 1620.27,-370.335 1829,-322 1931.29,-298.314 1990.6,-304.186 2037,-210 2051.95,-179.657 2056.42,-164.107 2041,-134 2017.78,-88.6562 1995.08,-86.4566 1948,-67 1851.92,-27.2951 1727.32,-18.6775 1668.12,-16.8966"/>
<polygon fill="midnightblue" stroke="midnightblue" points="1667.94,-13.3909 1657.85,-16.6377 1667.76,-20.3887 1667.94,-13.3909"/>
</g>
<!-- Node33&#45;&gt;Node10 -->
<g id="edge90" class="edge"><title>Node33&#45;&gt;Node10</title>
<path fill="none" stroke="midnightblue" d="M1275.25,-370.677C1341.52,-365.95 1504.81,-351.553 1550,-322 1620.54,-275.867 1627,-237.569 1638,-154 1640.31,-136.461 1637.51,-116.414 1634.61,-102.192"/>
<polygon fill="midnightblue" stroke="midnightblue" points="1637.97,-101.18 1632.35,-92.195 1631.14,-102.72 1637.97,-101.18"/>
</g>
<!-- Node33&#45;&gt;Node13 -->
<g id="edge98" class="edge"><title>Node33&#45;&gt;Node13</title>
<path fill="none" stroke="midnightblue" d="M1218.84,-371.123C1146,-367.141 953.333,-353.806 899,-322 880.253,-311.026 866.091,-290.043 857.709,-274.881"/>
<polygon fill="midnightblue" stroke="midnightblue" points="860.767,-273.175 853.045,-265.921 854.558,-276.407 860.767,-273.175"/>
</g>
<!-- Node33&#45;&gt;Node16 -->
<g id="edge99" class="edge"><title>Node33&#45;&gt;Node16</title>
<path fill="none" stroke="midnightblue" d="M1275.18,-369.798C1336.58,-363.517 1480.28,-346.577 1522,-322 1549.75,-305.651 1557.14,-296.324 1568,-266 1586.54,-214.21 1549.46,-167.864 1512,-134 1486.71,-111.135 1450.02,-98.2453 1421.58,-91.2211"/>
<polygon fill="midnightblue" stroke="midnightblue" points="1422.04,-87.7359 1411.51,-88.891 1420.46,-94.5557 1422.04,-87.7359"/>
</g>
<!-- Node33&#45;&gt;Node19 -->
<g id="edge100" class="edge"><title>Node33&#45;&gt;Node19</title>
<path fill="none" stroke="midnightblue" d="M1249.57,-363.808C1255.73,-343.151 1272.12,-289.591 1289,-246 1292.52,-236.919 1296.86,-227.01 1300.6,-218.808"/>
<polygon fill="midnightblue" stroke="midnightblue" points="1303.88,-220.066 1304.91,-209.522 1297.53,-217.12 1303.88,-220.066"/>
</g>
<!-- Node33&#45;&gt;Node20 -->
<g id="edge102" class="edge"><title>Node33&#45;&gt;Node20</title>
<path fill="none" stroke="midnightblue" d="M1218.73,-371.814C1078.52,-368.278 463.381,-351.139 436,-322 407.538,-291.711 339.198,-307.31 464,-190 491.467,-164.182 595.715,-152.606 658.398,-147.884"/>
<polygon fill="midnightblue" stroke="midnightblue" points="658.738,-151.368 668.46,-147.158 658.234,-144.387 658.738,-151.368"/>
</g>
<!-- Node33&#45;&gt;Node26 -->
<g id="edge101" class="edge"><title>Node33&#45;&gt;Node26</title>
<path fill="none" stroke="midnightblue" d="M1275.01,-369.385C1361.24,-359.795 1623.47,-330.631 1733.05,-318.444"/>
<polygon fill="midnightblue" stroke="midnightblue" points="1733.62,-321.902 1743.17,-317.318 1732.85,-314.945 1733.62,-321.902"/>
</g>
<!-- Node33&#45;&gt;Node28 -->
<g id="edge108" class="edge"><title>Node33&#45;&gt;Node28</title>
<path fill="none" stroke="midnightblue" d="M1275.12,-370.491C1334.08,-365.724 1467.96,-351.824 1501,-322 1513.99,-310.274 1518.64,-290.337 1520.26,-275.628"/>
<polygon fill="midnightblue" stroke="midnightblue" points="1523.75,-275.85 1520.99,-265.621 1516.77,-275.34 1523.75,-275.85"/>
</g>
<!-- Node33&#45;&gt;Node30 -->
<g id="edge107" class="edge"><title>Node33&#45;&gt;Node30</title>
<path fill="none" stroke="midnightblue" d="M1218.69,-364.843C1180.58,-354.535 1112.49,-336.12 1068.56,-324.24"/>
<polygon fill="midnightblue" stroke="midnightblue" points="1069.33,-320.822 1058.76,-321.59 1067.5,-327.579 1069.33,-320.822"/>
</g>
<!-- Node33&#45;&gt;Node32 -->
<g id="edge109" class="edge"><title>Node33&#45;&gt;Node32</title>
<path fill="none" stroke="midnightblue" d="M1218.82,-371.868C1168.72,-369.741 1061.9,-360.631 982,-322 935.474,-299.506 938.582,-272.136 894,-246 868.822,-231.239 837.982,-220.023 813.357,-212.48"/>
<polygon fill="midnightblue" stroke="midnightblue" points="814.146,-209.063 803.564,-209.572 812.153,-215.774 814.146,-209.063"/>
</g>
<!-- Node34 -->
<g id="node34" class="node"><title>Node34</title>
<g id="a_node34"><a xlink:href="alignment_8h.xhtml" target="_top" xlink:title="Mission and phase constructs. ">
<polygon fill="white" stroke="black" points="1418,-302.5 1418,-321.5 1492,-321.5 1492,-302.5 1418,-302.5"/>
<text text-anchor="middle" x="1455" y="-309.5" font-family="Helvetica,sans-Serif" font-size="10.00">alignment.h</text>
</a>
</g>
</g>
<!-- Node33&#45;&gt;Node34 -->
<g id="edge91" class="edge"><title>Node33&#45;&gt;Node34</title>
<path fill="none" stroke="midnightblue" d="M1275.05,-364.476C1311.21,-354.131 1374.31,-336.081 1415.36,-324.338"/>
<polygon fill="midnightblue" stroke="midnightblue" points="1416.39,-327.685 1425.04,-321.57 1414.46,-320.955 1416.39,-327.685"/>
</g>
<!-- Node35 -->
<g id="node35" class="node"><title>Node35</title>
<g id="a_node35"><a xlink:href="test__event_8h.xhtml" target="_top" xlink:title="Event tree analysis expressions to test functional and initiating events. ">
<polygon fill="white" stroke="black" points="445.5,-302.5 445.5,-321.5 576.5,-321.5 576.5,-302.5 445.5,-302.5"/>
<text text-anchor="middle" x="511" y="-309.5" font-family="Helvetica,sans-Serif" font-size="10.00">expression/test_event.h</text>
</a>
</g>
</g>
<!-- Node33&#45;&gt;Node35 -->
<g id="edge103" class="edge"><title>Node33&#45;&gt;Node35</title>
<path fill="none" stroke="midnightblue" d="M1218.6,-370.204C1113.9,-361.74 747.353,-332.107 587.033,-319.147"/>
<polygon fill="midnightblue" stroke="midnightblue" points="587.026,-315.635 576.777,-318.318 586.462,-322.612 587.026,-315.635"/>
</g>
<!-- Node34&#45;&gt;Node2 -->
<g id="edge92" class="edge"><title>Node34&#45;&gt;Node2</title>
<path fill="none" stroke="midnightblue" d="M1431.29,-302.466C1386.08,-285.991 1284.7,-248.062 1202,-210 1166.52,-193.673 1126.73,-172.236 1102.02,-158.535"/>
<polygon fill="midnightblue" stroke="midnightblue" points="1103.46,-155.33 1093.02,-153.518 1100.05,-161.444 1103.46,-155.33"/>
</g>
<!-- Node34&#45;&gt;Node3 -->
<g id="edge93" class="edge"><title>Node34&#45;&gt;Node3</title>
<path fill="none" stroke="midnightblue" d="M1417.6,-310.438C1297.18,-308.313 920.608,-299.121 804,-266 785.641,-260.785 784.249,-251.587 766,-246 626.193,-203.202 571.756,-271.267 439,-210 363.926,-175.353 271.755,-134.149 320,-67 346.663,-29.8904 401.982,-19.6836 437.476,-17.087"/>
<polygon fill="midnightblue" stroke="midnightblue" points="438.015,-20.5622 447.801,-16.5041 437.62,-13.5733 438.015,-20.5622"/>
</g>
<!-- Node34&#45;&gt;Node6 -->
<g id="edge94" class="edge"><title>Node34&#45;&gt;Node6</title>
<path fill="none" stroke="midnightblue" d="M1492.29,-304.267C1521.04,-297.806 1560.85,-286.005 1591,-266 1646.12,-229.434 1650.99,-208.13 1689,-154 1712.59,-120.407 1740.39,-102.624 1720,-67 1708.72,-47.2942 1686.43,-34.5256 1667.37,-26.7579"/>
<polygon fill="midnightblue" stroke="midnightblue" points="1668.36,-23.3923 1657.77,-23.1415 1665.89,-29.9428 1668.36,-23.3923"/>
</g>
<!-- Node34&#45;&gt;Node10 -->
<g id="edge95" class="edge"><title>Node34&#45;&gt;Node10</title>
<path fill="none" stroke="midnightblue" d="M1492.19,-303.685C1516.32,-297.285 1547.06,-285.806 1568,-266 1615.16,-221.391 1626.45,-139.584 1629.15,-102.577"/>
<polygon fill="midnightblue" stroke="midnightblue" points="1632.67,-102.429 1629.76,-92.2398 1625.68,-102.016 1632.67,-102.429"/>
</g>
<!-- Node34&#45;&gt;Node16 -->
<g id="edge96" class="edge"><title>Node34&#45;&gt;Node16</title>
<path fill="none" stroke="midnightblue" d="M1452.32,-302.47C1446.09,-282.669 1430.09,-232.068 1416,-190 1405.57,-158.863 1392.92,-122.801 1385.44,-101.639"/>
<polygon fill="midnightblue" stroke="midnightblue" points="1388.68,-100.293 1382.04,-92.0365 1382.08,-102.631 1388.68,-100.293"/>
</g>
<!-- Node34&#45;&gt;Node28 -->
<g id="edge97" class="edge"><title>Node34&#45;&gt;Node28</title>
<path fill="none" stroke="midnightblue" d="M1465.6,-302.324C1475.46,-294.263 1490.35,-282.077 1502.22,-272.369"/>
<polygon fill="midnightblue" stroke="midnightblue" points="1504.68,-274.875 1510.2,-265.834 1500.25,-269.457 1504.68,-274.875"/>
</g>
<!-- Node35&#45;&gt;Node3 -->
<g id="edge104" class="edge"><title>Node35&#45;&gt;Node3</title>
<path fill="none" stroke="midnightblue" d="M447.964,-302.476C354.48,-288.042 190,-254.977 190,-201 190,-201 190,-201 190,-143 190,-35.4702 363.62,-18.8492 437.427,-16.6416"/>
<polygon fill="midnightblue" stroke="midnightblue" points="437.642,-20.1377 447.56,-16.4114 437.483,-13.1395 437.642,-20.1377"/>
</g>
<!-- Node35&#45;&gt;Node4 -->
<g id="edge105" class="edge"><title>Node35&#45;&gt;Node4</title>
<path fill="none" stroke="midnightblue" d="M514.137,-302.083C516.683,-294.849 520.356,-284.409 523.527,-275.397"/>
<polygon fill="midnightblue" stroke="midnightblue" points="526.903,-276.346 526.921,-265.751 520.3,-274.023 526.903,-276.346"/>
</g>
<!-- Node35&#45;&gt;Node20 -->
<g id="edge106" class="edge"><title>Node35&#45;&gt;Node20</title>
<path fill="none" stroke="midnightblue" d="M500.562,-302.245C491.576,-293.969 479.254,-280.663 474,-266 468.385,-250.329 460.766,-206.949 475,-190 497.947,-162.675 596.813,-151.708 657.839,-147.484"/>
<polygon fill="midnightblue" stroke="midnightblue" points="658.279,-150.963 668.028,-146.817 657.821,-143.978 658.279,-150.963"/>
</g>
<!-- Node36&#45;&gt;Node3 -->
<g id="edge113" class="edge"><title>Node36&#45;&gt;Node3</title>
<path fill="none" stroke="midnightblue" d="M375.7,-72.7338C393.923,-61.8669 425.199,-43.2161 446.702,-30.3931"/>
<polygon fill="midnightblue" stroke="midnightblue" points="448.736,-33.2552 455.533,-25.1273 445.151,-27.243 448.736,-33.2552"/>
</g>
<!-- Node36&#45;&gt;Node17 -->
<g id="edge112" class="edge"><title>Node36&#45;&gt;Node17</title>
<path fill="none" stroke="midnightblue" d="M393.17,-74.8343C407.46,-72.0707 424.516,-69.0402 440,-67 664.309,-37.4439 936.272,-22.623 1031.26,-18.0682"/>
<polygon fill="midnightblue" stroke="midnightblue" points="1031.62,-21.5553 1041.45,-17.5871 1031.29,-14.5631 1031.62,-21.5553"/>
</g>
</g>
</svg>
