<?xml version="1.0" encoding="UTF-8" standalone="no"?>
<!DOCTYPE svg PUBLIC "-//W3C//DTD SVG 1.1//EN"
 "http://www.w3.org/Graphics/SVG/1.1/DTD/svg11.dtd">
<!-- Generated by graphviz version 2.38.0 (20140413.2041)
 -->
<!-- Title: initializer.cc Pages: 1 -->
<svg width="4496pt" height="531pt"
 viewBox="0.00 0.00 4496.16 531.00" xmlns="http://www.w3.org/2000/svg" xmlns:xlink="http://www.w3.org/1999/xlink">
<g id="graph0" class="graph" transform="scale(1 1) rotate(0) translate(4 527)">
<title>initializer.cc</title>
<polygon fill="white" stroke="none" points="-4,4 -4,-527 4492.16,-527 4492.16,4 -4,4"/>
<!-- Node1 -->
<g id="node1" class="node"><title>Node1</title>
<polygon fill="#bfbfbf" stroke="black" points="2933.5,-503.5 2933.5,-522.5 3004.5,-522.5 3004.5,-503.5 2933.5,-503.5"/>
<text text-anchor="middle" x="2969" y="-510.5" font-family="Helvetica,sans-Serif" font-size="10.00">initializer.cc</text>
</g>
<!-- Node2 -->
<g id="node2" class="node"><title>Node2</title>
<g id="a_node2"><a xlink:href="initializer_8h.xhtml" target="_top" xlink:title="A facility that processes input files into analysis constructs. ">
<polygon fill="white" stroke="black" points="1442.5,-447.5 1442.5,-466.5 1509.5,-466.5 1509.5,-447.5 1442.5,-447.5"/>
<text text-anchor="middle" x="1476" y="-454.5" font-family="Helvetica,sans-Serif" font-size="10.00">initializer.h</text>
</a>
</g>
</g>
<!-- Node1&#45;&gt;Node2 -->
<g id="edge1" class="edge"><title>Node1&#45;&gt;Node2</title>
<path fill="none" stroke="midnightblue" d="M2933.2,-510.705C2731.84,-503.422 1741.56,-467.605 1520.02,-459.592"/>
<polygon fill="midnightblue" stroke="midnightblue" points="1519.88,-456.085 1509.76,-459.221 1519.63,-463.08 1519.88,-456.085"/>
</g>
<!-- Node15 -->
<g id="node15" class="node"><title>Node15</title>
<polygon fill="white" stroke="#bfbfbf" points="3152,-201.5 3152,-220.5 3220,-220.5 3220,-201.5 3152,-201.5"/>
<text text-anchor="middle" x="3186" y="-208.5" font-family="Helvetica,sans-Serif" font-size="10.00">type_traits</text>
</g>
<!-- Node1&#45;&gt;Node15 -->
<g id="edge116" class="edge"><title>Node1&#45;&gt;Node15</title>
<path fill="none" stroke="midnightblue" d="M3004.77,-510.838C3059.33,-508.067 3165.85,-498.694 3250,-467 3293.74,-450.528 3316.41,-451.91 3339,-411 3360.73,-371.652 3345.7,-344.866 3314,-313 3282.15,-280.991 3252.6,-307.165 3219,-277 3205.19,-264.603 3196.38,-245.084 3191.36,-230.668"/>
<polygon fill="midnightblue" stroke="midnightblue" points="3194.61,-229.318 3188.25,-220.841 3187.93,-231.431 3194.61,-229.318"/>
</g>
<!-- Node23 -->
<g id="node23" class="node"><title>Node23</title>
<polygon fill="white" stroke="#bfbfbf" points="3882,-73 3882,-92 3938,-92 3938,-73 3882,-73"/>
<text text-anchor="middle" x="3910" y="-80" font-family="Helvetica,sans-Serif" font-size="10.00">sstream</text>
</g>
<!-- Node1&#45;&gt;Node23 -->
<g id="edge115" class="edge"><title>Node1&#45;&gt;Node23</title>
<path fill="none" stroke="midnightblue" d="M3004.97,-512.248C3144.79,-512.853 3665.44,-511.783 4091,-467 4252.71,-449.983 4450,-559.103 4450,-396.5 4450,-396.5 4450,-396.5 4450,-266 4450,-232.976 4441.42,-219.402 4414,-201 4300.29,-124.693 4240.63,-199.067 4108,-165 4043.55,-148.446 3972.42,-115.195 3935.47,-96.6903"/>
<polygon fill="midnightblue" stroke="midnightblue" points="3936.91,-93.4983 3926.41,-92.1053 3933.75,-99.7439 3936.91,-93.4983"/>
</g>
<!-- Node25 -->
<g id="node25" class="node"><title>Node25</title>
<g id="a_node25"><a xlink:href="error_8h.xhtml" target="_top" xlink:title="Exceptions for SCRAM. ">
<polygon fill="white" stroke="black" points="3392,-73 3392,-92 3440,-92 3440,-73 3392,-73"/>
<text text-anchor="middle" x="3416" y="-80" font-family="Helvetica,sans-Serif" font-size="10.00">error.h</text>
</a>
</g>
</g>
<!-- Node1&#45;&gt;Node25 -->
<g id="edge135" class="edge"><title>Node1&#45;&gt;Node25</title>
<path fill="none" stroke="midnightblue" d="M3004.67,-511.067C3226.88,-505.025 4412,-469.383 4412,-396.5 4412,-396.5 4412,-396.5 4412,-266 4412,-235.902 4416.03,-220.376 4393,-201 4338.41,-155.075 4144.84,-173.385 4074,-165 3835.18,-136.735 3547.93,-100.325 3450.35,-87.8879"/>
<polygon fill="midnightblue" stroke="midnightblue" points="3450.55,-84.3852 3440.19,-86.592 3449.66,-91.329 3450.55,-84.3852"/>
</g>
<!-- Node35 -->
<g id="node35" class="node"><title>Node35</title>
<g id="a_node35"><a xlink:href="alignment_8h.xhtml" target="_top" xlink:title="Mission and phase constructs. ">
<polygon fill="white" stroke="black" points="1350,-319 1350,-338 1424,-338 1424,-319 1350,-319"/>
<text text-anchor="middle" x="1387" y="-326" font-family="Helvetica,sans-Serif" font-size="10.00">alignment.h</text>
</a>
</g>
</g>
<!-- Node1&#45;&gt;Node35 -->
<g id="edge119" class="edge"><title>Node1&#45;&gt;Node35</title>
<path fill="none" stroke="midnightblue" d="M2933.4,-512.102C2708.76,-512.604 1495.19,-513.167 1433,-467 1395.36,-439.06 1388.14,-379.016 1387,-348.355"/>
<polygon fill="midnightblue" stroke="midnightblue" points="1390.5,-348.104 1386.81,-338.171 1383.5,-348.235 1390.5,-348.104"/>
</g>
<!-- Node36 -->
<g id="node36" class="node"><title>Node36</title>
<g id="a_node36"><a xlink:href="test__event_8h.xhtml" target="_top" xlink:title="Event tree analysis expressions to test functional and initiating events. ">
<polygon fill="white" stroke="black" points="294.5,-319 294.5,-338 425.5,-338 425.5,-319 294.5,-319"/>
<text text-anchor="middle" x="360" y="-326" font-family="Helvetica,sans-Serif" font-size="10.00">expression/test_event.h</text>
</a>
</g>
</g>
<!-- Node1&#45;&gt;Node36 -->
<g id="edge157" class="edge"><title>Node1&#45;&gt;Node36</title>
<path fill="none" stroke="midnightblue" d="M2933.27,-512.249C2763.18,-513.167 2018.7,-514.154 1411,-467 977.299,-433.347 869.946,-410.147 440,-344 431.867,-342.749 423.29,-341.315 414.892,-339.848"/>
<polygon fill="midnightblue" stroke="midnightblue" points="415.238,-336.355 404.779,-338.051 414.013,-343.247 415.238,-336.355"/>
</g>
<!-- Node38 -->
<g id="node38" class="node"><title>Node38</title>
<polygon fill="white" stroke="#bfbfbf" points="2644,-447.5 2644,-466.5 2760,-466.5 2760,-447.5 2644,-447.5"/>
<text text-anchor="middle" x="2702" y="-454.5" font-family="Helvetica,sans-Serif" font-size="10.00">boost/filesystem.hpp</text>
</g>
<!-- Node1&#45;&gt;Node38 -->
<g id="edge117" class="edge"><title>Node1&#45;&gt;Node38</title>
<path fill="none" stroke="midnightblue" d="M2933.27,-504.773C2887.21,-495.459 2806.79,-479.194 2753.97,-468.51"/>
<polygon fill="midnightblue" stroke="midnightblue" points="2754.61,-465.07 2744.12,-466.518 2753.22,-471.931 2754.61,-465.07"/>
</g>
<!-- Node39 -->
<g id="node39" class="node"><title>Node39</title>
<polygon fill="white" stroke="#bfbfbf" points="2778,-447.5 2778,-466.5 2922,-466.5 2922,-447.5 2778,-447.5"/>
<text text-anchor="middle" x="2850" y="-454.5" font-family="Helvetica,sans-Serif" font-size="10.00">boost/range/algorithm.hpp</text>
</g>
<!-- Node1&#45;&gt;Node39 -->
<g id="edge118" class="edge"><title>Node1&#45;&gt;Node39</title>
<path fill="none" stroke="midnightblue" d="M2950.14,-503.444C2930.73,-494.636 2900.27,-480.812 2878.04,-470.722"/>
<polygon fill="midnightblue" stroke="midnightblue" points="2879.32,-467.462 2868.77,-466.516 2876.43,-473.836 2879.32,-467.462"/>
</g>
<!-- Node40 -->
<g id="node40" class="node"><title>Node40</title>
<g id="a_node40"><a xlink:href="cycle_8h.xhtml" target="_top" xlink:title="Validation facilities to detect and print cycles in graphs. ">
<polygon fill="white" stroke="black" points="2794,-386 2794,-405 2844,-405 2844,-386 2794,-386"/>
<text text-anchor="middle" x="2819" y="-393" font-family="Helvetica,sans-Serif" font-size="10.00">cycle.h</text>
</a>
</g>
</g>
<!-- Node1&#45;&gt;Node40 -->
<g id="edge120" class="edge"><title>Node1&#45;&gt;Node40</title>
<path fill="none" stroke="midnightblue" d="M2971.05,-503.383C2973.73,-489.86 2976.71,-463.5 2964,-447 2938.06,-413.313 2888.16,-402 2854.22,-398.257"/>
<polygon fill="midnightblue" stroke="midnightblue" points="2854.53,-394.771 2844.24,-397.323 2853.87,-401.74 2854.53,-394.771"/>
</g>
<!-- Node45 -->
<g id="node45" class="node"><title>Node45</title>
<g id="a_node45"><a xlink:href="env_8h.xhtml" target="_top" xlink:title="Environmental Variables. ">
<polygon fill="white" stroke="black" points="50,-447.5 50,-466.5 92,-466.5 92,-447.5 50,-447.5"/>
<text text-anchor="middle" x="71" y="-454.5" font-family="Helvetica,sans-Serif" font-size="10.00">env.h</text>
</a>
</g>
</g>
<!-- Node1&#45;&gt;Node45 -->
<g id="edge133" class="edge"><title>Node1&#45;&gt;Node45</title>
<path fill="none" stroke="midnightblue" d="M2933.27,-511.766C2648.97,-509.857 749.026,-496.139 176,-467 151.259,-465.742 123.317,-463.297 102.481,-461.273"/>
<polygon fill="midnightblue" stroke="midnightblue" points="102.584,-457.766 92.2872,-460.261 101.893,-464.732 102.584,-457.766"/>
</g>
<!-- Node46 -->
<g id="node46" class="node"><title>Node46</title>
<g id="a_node46"><a xlink:href="boolean_8h.xhtml" target="_top" xlink:title="Boolean expressions. ">
<polygon fill="white" stroke="black" points="2644.5,-257.5 2644.5,-276.5 2763.5,-276.5 2763.5,-257.5 2644.5,-257.5"/>
<text text-anchor="middle" x="2704" y="-264.5" font-family="Helvetica,sans-Serif" font-size="10.00">expression/boolean.h</text>
</a>
</g>
</g>
<!-- Node1&#45;&gt;Node46 -->
<g id="edge136" class="edge"><title>Node1&#45;&gt;Node46</title>
<path fill="none" stroke="midnightblue" d="M2966.4,-503.343C2961.71,-489.272 2950.48,-461.554 2931,-447 2877.46,-406.994 2843.45,-443.406 2785,-411 2747.62,-390.274 2735.68,-381.947 2716,-344 2706.7,-326.06 2704.2,-302.783 2703.71,-286.741"/>
<polygon fill="midnightblue" stroke="midnightblue" points="2707.21,-286.496 2703.64,-276.519 2700.21,-286.542 2707.21,-286.496"/>
</g>
<!-- Node48 -->
<g id="node48" class="node"><title>Node48</title>
<g id="a_node48"><a xlink:href="conditional_8h.xhtml" target="_top" xlink:title="Conditional (if&#45;then&#45;else, switch&#45;case) expressions. ">
<polygon fill="white" stroke="black" points="2964,-201.5 2964,-220.5 3096,-220.5 3096,-201.5 2964,-201.5"/>
<text text-anchor="middle" x="3030" y="-208.5" font-family="Helvetica,sans-Serif" font-size="10.00">expression/conditional.h</text>
</a>
</g>
</g>
<!-- Node1&#45;&gt;Node48 -->
<g id="edge139" class="edge"><title>Node1&#45;&gt;Node48</title>
<path fill="none" stroke="midnightblue" d="M3004.62,-507.232C3086.35,-495.489 3283.29,-462.342 3322,-411 3345.35,-380.026 3293.04,-317.419 3288,-313 3251.87,-281.292 3230.87,-294.252 3186,-277 3141.27,-259.804 3090.12,-238.093 3058.95,-224.627"/>
<polygon fill="midnightblue" stroke="midnightblue" points="3060.13,-221.325 3049.56,-220.561 3057.34,-227.748 3060.13,-221.325"/>
</g>
<!-- Node49 -->
<g id="node49" class="node"><title>Node49</title>
<g id="a_node49"><a xlink:href="exponential_8h.xhtml" target="_top" xlink:title="Expressions and distributions that are described with exponential formulas. ">
<polygon fill="white" stroke="black" points="2322,-201.5 2322,-220.5 2458,-220.5 2458,-201.5 2322,-201.5"/>
<text text-anchor="middle" x="2390" y="-208.5" font-family="Helvetica,sans-Serif" font-size="10.00">expression/exponential.h</text>
</a>
</g>
</g>
<!-- Node1&#45;&gt;Node49 -->
<g id="edge142" class="edge"><title>Node1&#45;&gt;Node49</title>
<path fill="none" stroke="midnightblue" d="M2933.35,-510.402C2856.56,-506.471 2678.21,-494.575 2625,-467 2513.72,-409.329 2428.01,-276.81 2399.88,-229.325"/>
<polygon fill="midnightblue" stroke="midnightblue" points="2402.82,-227.419 2394.77,-220.54 2396.78,-230.943 2402.82,-227.419"/>
</g>
<!-- Node50 -->
<g id="node50" class="node"><title>Node50</title>
<g id="a_node50"><a xlink:href="numerical_8h.xhtml" target="_top" xlink:title="A collection of numerical expressions. ">
<polygon fill="white" stroke="black" points="3228,-257.5 3228,-276.5 3356,-276.5 3356,-257.5 3228,-257.5"/>
<text text-anchor="middle" x="3292" y="-264.5" font-family="Helvetica,sans-Serif" font-size="10.00">expression/numerical.h</text>
</a>
</g>
</g>
<!-- Node1&#45;&gt;Node50 -->
<g id="edge145" class="edge"><title>Node1&#45;&gt;Node50</title>
<path fill="none" stroke="midnightblue" d="M3004.88,-511.774C3120.48,-510.678 3477.68,-504.277 3512,-467 3558.36,-416.644 3555.28,-366.026 3512,-313 3493.69,-290.562 3422.52,-279.012 3366.03,-273.269"/>
<polygon fill="midnightblue" stroke="midnightblue" points="3366.32,-269.78 3356.02,-272.296 3365.64,-276.747 3366.32,-269.78"/>
</g>
<!-- Node52 -->
<g id="node52" class="node"><title>Node52</title>
<g id="a_node52"><a xlink:href="random__deviate_8h.xhtml" target="_top" xlink:title="A collection of deviate expressions with random distributions sampled at run&#45;time. ">
<polygon fill="white" stroke="black" points="3456,-201.5 3456,-220.5 3614,-220.5 3614,-201.5 3456,-201.5"/>
<text text-anchor="middle" x="3535" y="-208.5" font-family="Helvetica,sans-Serif" font-size="10.00">expression/random_deviate.h</text>
</a>
</g>
</g>
<!-- Node1&#45;&gt;Node52 -->
<g id="edge152" class="edge"><title>Node1&#45;&gt;Node52</title>
<path fill="none" stroke="midnightblue" d="M3004.81,-511.082C3122.05,-507.812 3489.44,-495.379 3534,-467 3564.39,-447.648 3574,-432.525 3574,-396.5 3574,-396.5 3574,-396.5 3574,-327.5 3574,-291.16 3556.46,-251.609 3544.9,-229.502"/>
<polygon fill="midnightblue" stroke="midnightblue" points="3547.94,-227.768 3540.1,-220.647 3541.79,-231.106 3547.94,-227.768"/>
</g>
<!-- Node54 -->
<g id="node54" class="node"><title>Node54</title>
<g id="a_node54"><a xlink:href="find__iterator_8h.xhtml" target="_top" xlink:title="Convenience iterator adaptor to wrap find calls and results. ">
<polygon fill="white" stroke="black" points="2606.5,-386 2606.5,-405 2707.5,-405 2707.5,-386 2606.5,-386"/>
<text text-anchor="middle" x="2657" y="-393" font-family="Helvetica,sans-Serif" font-size="10.00">ext/find_iterator.h</text>
</a>
</g>
</g>
<!-- Node1&#45;&gt;Node54 -->
<g id="edge158" class="edge"><title>Node1&#45;&gt;Node54</title>
<path fill="none" stroke="midnightblue" d="M2933.28,-512.809C2855.25,-513.73 2673.46,-510.993 2635,-467 2621.88,-451.992 2632.81,-429.208 2643.42,-413.63"/>
<polygon fill="midnightblue" stroke="midnightblue" points="2646.36,-415.54 2649.44,-405.404 2640.71,-411.404 2646.36,-415.54"/>
</g>
<!-- Node55 -->
<g id="node55" class="node"><title>Node55</title>
<g id="a_node55"><a xlink:href="logger_8h.xhtml" target="_top" xlink:title="Logging capability for various purposes, such as warnings and debugging. ">
<polygon fill="white" stroke="black" points="4116.5,-140 4116.5,-159 4171.5,-159 4171.5,-140 4116.5,-140"/>
<text text-anchor="middle" x="4144" y="-147" font-family="Helvetica,sans-Serif" font-size="10.00">logger.h</text>
</a>
</g>
</g>
<!-- Node1&#45;&gt;Node55 -->
<g id="edge160" class="edge"><title>Node1&#45;&gt;Node55</title>
<path fill="none" stroke="midnightblue" d="M3004.72,-512.068C3226.09,-512.348 4403.47,-511.728 4464,-467 4490.62,-447.329 4488,-429.599 4488,-396.5 4488,-396.5 4488,-396.5 4488,-266 4488,-235.205 4487.81,-220.526 4464,-201 4421.51,-166.16 4257.47,-155.084 4182.17,-151.793"/>
<polygon fill="midnightblue" stroke="midnightblue" points="4181.87,-148.278 4171.73,-151.362 4181.58,-155.272 4181.87,-148.278"/>
</g>
<!-- Node58 -->
<g id="node58" class="node"><title>Node58</title>
<g id="a_node58"><a xlink:href="xml_8h.xhtml" target="_top" xlink:title="XML helper facilities to work with libxml++. ">
<polygon fill="white" stroke="black" points="3813.5,-257.5 3813.5,-276.5 3856.5,-276.5 3856.5,-257.5 3813.5,-257.5"/>
<text text-anchor="middle" x="3835" y="-264.5" font-family="Helvetica,sans-Serif" font-size="10.00">xml.h</text>
</a>
</g>
</g>
<!-- Node1&#45;&gt;Node58 -->
<g id="edge166" class="edge"><title>Node1&#45;&gt;Node58</title>
<path fill="none" stroke="midnightblue" d="M3004.86,-512.177C3120.25,-512.315 3480.74,-509.269 3588,-467 3692.05,-425.996 3786.47,-324.802 3821.05,-284.729"/>
<polygon fill="midnightblue" stroke="midnightblue" points="3823.86,-286.827 3827.67,-276.943 3818.53,-282.291 3823.86,-286.827"/>
</g>
<!-- Node3 -->
<g id="node3" class="node"><title>Node3</title>
<polygon fill="white" stroke="#bfbfbf" points="1286.5,-140 1286.5,-159 1343.5,-159 1343.5,-140 1286.5,-140"/>
<text text-anchor="middle" x="1315" y="-147" font-family="Helvetica,sans-Serif" font-size="10.00">memory</text>
</g>
<!-- Node2&#45;&gt;Node3 -->
<g id="edge2" class="edge"><title>Node2&#45;&gt;Node3</title>
<path fill="none" stroke="midnightblue" d="M1442.18,-451.343C1388.79,-441.933 1286.74,-415.108 1245,-344 1209.32,-283.22 1270.2,-201.204 1300.01,-166.777"/>
<polygon fill="midnightblue" stroke="midnightblue" points="1302.81,-168.892 1306.84,-159.092 1297.58,-164.242 1302.81,-168.892"/>
</g>
<!-- Node4 -->
<g id="node4" class="node"><title>Node4</title>
<polygon fill="white" stroke="#bfbfbf" points="1056,-6 1056,-25 1100,-25 1100,-6 1056,-6"/>
<text text-anchor="middle" x="1078" y="-13" font-family="Helvetica,sans-Serif" font-size="10.00">string</text>
</g>
<!-- Node2&#45;&gt;Node4 -->
<g id="edge3" class="edge"><title>Node2&#45;&gt;Node4</title>
<path fill="none" stroke="midnightblue" d="M1442.32,-455.884C1258.64,-455.097 381.865,-449.347 268,-411 208.287,-390.89 152,-392.508 152,-329.5 152,-329.5 152,-329.5 152,-210 152,-139.591 227.802,-165.04 291,-134 357.631,-101.273 372.003,-85.0866 444,-67 473.461,-59.5989 920.855,-27.5989 1045.81,-18.7659"/>
<polygon fill="midnightblue" stroke="midnightblue" points="1046.16,-22.2495 1055.89,-18.0538 1045.67,-15.2669 1046.16,-22.2495"/>
</g>
<!-- Node5 -->
<g id="node5" class="node"><title>Node5</title>
<polygon fill="white" stroke="#bfbfbf" points="218.5,-257.5 218.5,-276.5 311.5,-276.5 311.5,-257.5 218.5,-257.5"/>
<text text-anchor="middle" x="265" y="-264.5" font-family="Helvetica,sans-Serif" font-size="10.00">unordered_map</text>
</g>
<!-- Node2&#45;&gt;Node5 -->
<g id="edge4" class="edge"><title>Node2&#45;&gt;Node5</title>
<path fill="none" stroke="midnightblue" d="M1442.27,-456.176C1286.65,-456.738 637.178,-456.276 440,-411 366.854,-394.204 333.923,-400.912 285,-344 271.27,-328.028 266.826,-303.682 265.462,-286.87"/>
<polygon fill="midnightblue" stroke="midnightblue" points="268.944,-286.436 264.933,-276.63 261.954,-286.797 268.944,-286.436"/>
</g>
<!-- Node6 -->
<g id="node6" class="node"><title>Node6</title>
<polygon fill="white" stroke="#bfbfbf" points="2208,-73 2208,-92 2250,-92 2250,-73 2208,-73"/>
<text text-anchor="middle" x="2229" y="-80" font-family="Helvetica,sans-Serif" font-size="10.00">utility</text>
</g>
<!-- Node2&#45;&gt;Node6 -->
<g id="edge5" class="edge"><title>Node2&#45;&gt;Node6</title>
<path fill="none" stroke="midnightblue" d="M1509.53,-454.968C1621.68,-451.297 1982.95,-437.646 2096,-411 2188.63,-389.169 2294,-424.663 2294,-329.5 2294,-329.5 2294,-329.5 2294,-210 2294,-166.43 2263.12,-122.823 2243.93,-99.9298"/>
<polygon fill="midnightblue" stroke="midnightblue" points="2246.43,-97.4737 2237.23,-92.2135 2241.14,-102.061 2246.43,-97.4737"/>
</g>
<!-- Node7 -->
<g id="node7" class="node"><title>Node7</title>
<polygon fill="white" stroke="#bfbfbf" points="2559.5,-6 2559.5,-25 2606.5,-25 2606.5,-6 2559.5,-6"/>
<text text-anchor="middle" x="2583" y="-13" font-family="Helvetica,sans-Serif" font-size="10.00">vector</text>
</g>
<!-- Node2&#45;&gt;Node7 -->
<g id="edge6" class="edge"><title>Node2&#45;&gt;Node7</title>
<path fill="none" stroke="midnightblue" d="M1509.62,-455.45C1693.62,-452.359 2580.3,-436.364 2853,-411 3047.77,-392.884 3160.64,-492.475 3288,-344 3348.92,-272.981 3124,-305.566 3124,-212 3124,-212 3124,-212 3124,-148.5 3124,-43.6148 2735.36,-21.6993 2616.88,-17.4551"/>
<polygon fill="midnightblue" stroke="midnightblue" points="2616.71,-13.9473 2606.59,-17.1072 2616.47,-20.9433 2616.71,-13.9473"/>
</g>
<!-- Node8 -->
<g id="node8" class="node"><title>Node8</title>
<polygon fill="white" stroke="#bfbfbf" points="11,-6 11,-25 183,-25 183,-6 11,-6"/>
<text text-anchor="middle" x="97" y="-13" font-family="Helvetica,sans-Serif" font-size="10.00">boost/multi_index_container.hpp</text>
</g>
<!-- Node2&#45;&gt;Node8 -->
<g id="edge7" class="edge"><title>Node2&#45;&gt;Node8</title>
<path fill="none" stroke="midnightblue" d="M1442.34,-455.949C1234.95,-455.507 137.561,-451.264 80,-411 1.88944,-356.362 0,-307.324 0,-212 0,-212 0,-212 0,-148.5 0,-97.47 47.6561,-53.1251 76.1613,-31.1648"/>
<polygon fill="midnightblue" stroke="midnightblue" points="78.392,-33.8675 84.3189,-25.0856 74.2091,-28.2546 78.392,-33.8675"/>
</g>
<!-- Node9 -->
<g id="node9" class="node"><title>Node9</title>
<polygon fill="white" stroke="#bfbfbf" points="1818.5,-380.5 1818.5,-410.5 1951.5,-410.5 1951.5,-380.5 1818.5,-380.5"/>
<text text-anchor="start" x="1826.5" y="-398.5" font-family="Helvetica,sans-Serif" font-size="10.00">boost/multi_index/global</text>
<text text-anchor="middle" x="1885" y="-387.5" font-family="Helvetica,sans-Serif" font-size="10.00">_fun.hpp</text>
</g>
<!-- Node2&#45;&gt;Node9 -->
<g id="edge8" class="edge"><title>Node2&#45;&gt;Node9</title>
<path fill="none" stroke="midnightblue" d="M1509.59,-451.851C1569.05,-444.404 1696.7,-427.958 1804,-411 1805.46,-410.77 1806.92,-410.535 1808.4,-410.296"/>
<polygon fill="midnightblue" stroke="midnightblue" points="1808.99,-413.746 1818.29,-408.664 1807.85,-406.839 1808.99,-413.746"/>
</g>
<!-- Node10 -->
<g id="node10" class="node"><title>Node10</title>
<polygon fill="white" stroke="#bfbfbf" points="394,-0.5 394,-30.5 534,-30.5 534,-0.5 394,-0.5"/>
<text text-anchor="start" x="402" y="-18.5" font-family="Helvetica,sans-Serif" font-size="10.00">boost/multi_index/hashed</text>
<text text-anchor="middle" x="464" y="-7.5" font-family="Helvetica,sans-Serif" font-size="10.00">_index.hpp</text>
</g>
<!-- Node2&#45;&gt;Node10 -->
<g id="edge9" class="edge"><title>Node2&#45;&gt;Node10</title>
<path fill="none" stroke="midnightblue" d="M1442.47,-455.897C1238.29,-455.143 168.822,-449.368 112,-411 79.1824,-388.84 76,-369.099 76,-329.5 76,-329.5 76,-329.5 76,-210 76,-146.345 40.7371,-113.693 84,-67 104.047,-45.3634 278.563,-29.4758 383.993,-21.7508"/>
<polygon fill="midnightblue" stroke="midnightblue" points="384.251,-25.2414 393.972,-21.0288 383.746,-18.2596 384.251,-25.2414"/>
</g>
<!-- Node11 -->
<g id="node11" class="node"><title>Node11</title>
<polygon fill="white" stroke="#bfbfbf" points="1684,-73 1684,-92 1812,-92 1812,-73 1684,-73"/>
<text text-anchor="middle" x="1748" y="-80" font-family="Helvetica,sans-Serif" font-size="10.00">boost/noncopyable.hpp</text>
</g>
<!-- Node2&#45;&gt;Node11 -->
<g id="edge10" class="edge"><title>Node2&#45;&gt;Node11</title>
<path fill="none" stroke="midnightblue" d="M1509.51,-455.336C1588.67,-453.238 1793.11,-444.715 1960,-411 2077.87,-387.187 2218,-449.752 2218,-329.5 2218,-329.5 2218,-329.5 2218,-266 2218,-179.177 1935.77,-117.325 1808.72,-93.8798"/>
<polygon fill="midnightblue" stroke="midnightblue" points="1809.21,-90.4122 1798.74,-92.0598 1807.95,-97.2985 1809.21,-90.4122"/>
</g>
<!-- Node12 -->
<g id="node12" class="node"><title>Node12</title>
<polygon fill="white" stroke="#bfbfbf" points="910.5,-140 910.5,-159 1011.5,-159 1011.5,-140 910.5,-140"/>
<text text-anchor="middle" x="961" y="-147" font-family="Helvetica,sans-Serif" font-size="10.00">boost/variant.hpp</text>
</g>
<!-- Node2&#45;&gt;Node12 -->
<g id="edge11" class="edge"><title>Node2&#45;&gt;Node12</title>
<path fill="none" stroke="midnightblue" d="M1442.45,-454.059C1331.91,-447.578 979.811,-426.242 867,-411 681.589,-385.949 454,-516.595 454,-329.5 454,-329.5 454,-329.5 454,-266 454,-175.487 765.078,-155.905 899.896,-151.669"/>
<polygon fill="midnightblue" stroke="midnightblue" points="900.173,-155.163 910.066,-151.369 899.966,-148.166 900.173,-155.163"/>
</g>
<!-- Node13 -->
<g id="node13" class="node"><title>Node13</title>
<polygon fill="white" stroke="#bfbfbf" points="3670.5,-201.5 3670.5,-220.5 3787.5,-220.5 3787.5,-201.5 3670.5,-201.5"/>
<text text-anchor="middle" x="3729" y="-208.5" font-family="Helvetica,sans-Serif" font-size="10.00">libxml++/libxml++.h</text>
</g>
<!-- Node2&#45;&gt;Node13 -->
<g id="edge12" class="edge"><title>Node2&#45;&gt;Node13</title>
<path fill="none" stroke="midnightblue" d="M1509.76,-456.045C1745.36,-456.248 3139.62,-455.548 3322,-411 3480.83,-372.203 3650.08,-265.196 3708.1,-226.338"/>
<polygon fill="midnightblue" stroke="midnightblue" points="3710.11,-229.205 3716.44,-220.708 3706.19,-223.404 3710.11,-229.205"/>
</g>
<!-- Node14 -->
<g id="node14" class="node"><title>Node14</title>
<g id="a_node14"><a xlink:href="ccf__group_8h.xhtml" target="_top" xlink:title="Functional containers for basic events grouped by common cause failure. ">
<polygon fill="white" stroke="black" points="1827,-257.5 1827,-276.5 1899,-276.5 1899,-257.5 1827,-257.5"/>
<text text-anchor="middle" x="1863" y="-264.5" font-family="Helvetica,sans-Serif" font-size="10.00">ccf_group.h</text>
</a>
</g>
</g>
<!-- Node2&#45;&gt;Node14 -->
<g id="edge13" class="edge"><title>Node2&#45;&gt;Node14</title>
<path fill="none" stroke="midnightblue" d="M1509.74,-448.607C1542.57,-440.927 1593.58,-427.7 1636,-411 1696.48,-387.191 1711.28,-379.089 1766,-344 1795.36,-325.171 1826.66,-299.501 1845.53,-283.34"/>
<polygon fill="midnightblue" stroke="midnightblue" points="1848,-285.832 1853.27,-276.642 1843.42,-280.539 1848,-285.832"/>
</g>
<!-- Node17 -->
<g id="node17" class="node"><title>Node17</title>
<g id="a_node17"><a xlink:href="element_8h.xhtml" target="_top" xlink:title="Helper classes, structs, and properties common to all other classes. ">
<polygon fill="white" stroke="black" points="697.5,-73 697.5,-92 762.5,-92 762.5,-73 697.5,-73"/>
<text text-anchor="middle" x="730" y="-80" font-family="Helvetica,sans-Serif" font-size="10.00">element.h</text>
</a>
</g>
</g>
<!-- Node2&#45;&gt;Node17 -->
<g id="edge49" class="edge"><title>Node2&#45;&gt;Node17</title>
<path fill="none" stroke="midnightblue" d="M1442.21,-456.288C1262.79,-457.603 425.866,-461 323,-411 252.675,-376.818 235.993,-350.385 209,-277 173.028,-179.202 234.57,-192.258 378,-134 483.059,-91.3275 618.563,-83.892 686.743,-83.0967"/>
<polygon fill="midnightblue" stroke="midnightblue" points="687.119,-86.5942 697.093,-83.0217 687.068,-79.5944 687.119,-86.5942"/>
</g>
<!-- Node20 -->
<g id="node20" class="node"><title>Node20</title>
<g id="a_node20"><a xlink:href="event_8h.xhtml" target="_top" xlink:title="Contains event classes for fault trees. ">
<polygon fill="white" stroke="black" points="1518.5,-201.5 1518.5,-220.5 1571.5,-220.5 1571.5,-201.5 1518.5,-201.5"/>
<text text-anchor="middle" x="1545" y="-208.5" font-family="Helvetica,sans-Serif" font-size="10.00">event.h</text>
</a>
</g>
</g>
<!-- Node2&#45;&gt;Node20 -->
<g id="edge50" class="edge"><title>Node2&#45;&gt;Node20</title>
<path fill="none" stroke="midnightblue" d="M1490.48,-447.322C1502.78,-439.284 1520.14,-426.286 1531,-411 1567.73,-359.31 1568.94,-339.441 1580,-277 1581.55,-268.247 1582.88,-265.408 1580,-257 1576.28,-246.161 1568.77,-235.922 1561.65,-227.957"/>
<polygon fill="midnightblue" stroke="midnightblue" points="1564,-225.35 1554.56,-220.55 1558.95,-230.192 1564,-225.35"/>
</g>
<!-- Node21 -->
<g id="node21" class="node"><title>Node21</title>
<g id="a_node21"><a xlink:href="expression_8h.xhtml" target="_top" xlink:title="Provides the base class for all expressions and units for expression values. ">
<polygon fill="white" stroke="black" points="2336.5,-140 2336.5,-159 2413.5,-159 2413.5,-140 2336.5,-140"/>
<text text-anchor="middle" x="2375" y="-147" font-family="Helvetica,sans-Serif" font-size="10.00">expression.h</text>
</a>
</g>
</g>
<!-- Node2&#45;&gt;Node21 -->
<g id="edge68" class="edge"><title>Node2&#45;&gt;Node21</title>
<path fill="none" stroke="midnightblue" d="M1509.82,-455.753C1656.79,-454.468 2235.8,-447.133 2308,-411 2406.47,-361.721 2429.41,-324.496 2467,-221 2477.18,-192.962 2444.72,-173.756 2415.59,-162.555"/>
<polygon fill="midnightblue" stroke="midnightblue" points="2416.5,-159.162 2405.91,-159.062 2414.13,-165.747 2416.5,-159.162"/>
</g>
<!-- Node27 -->
<g id="node27" class="node"><title>Node27</title>
<g id="a_node27"><a xlink:href="event__tree_8h.xhtml" target="_top" xlink:title="Event Tree facilities. ">
<polygon fill="white" stroke="black" points="1254.5,-319 1254.5,-338 1331.5,-338 1331.5,-319 1254.5,-319"/>
<text text-anchor="middle" x="1293" y="-326" font-family="Helvetica,sans-Serif" font-size="10.00">event_tree.h</text>
</a>
</g>
</g>
<!-- Node2&#45;&gt;Node27 -->
<g id="edge51" class="edge"><title>Node2&#45;&gt;Node27</title>
<path fill="none" stroke="midnightblue" d="M1463.42,-447.305C1432.47,-425.911 1352.36,-370.532 1314.03,-344.038"/>
<polygon fill="midnightblue" stroke="midnightblue" points="1315.88,-341.063 1305.67,-338.256 1311.9,-346.821 1315.88,-341.063"/>
</g>
<!-- Node29 -->
<g id="node29" class="node"><title>Node29</title>
<g id="a_node29"><a xlink:href="instruction_8h.xhtml" target="_top" xlink:title="Model and event tree modifier instructions. ">
<polygon fill="white" stroke="black" points="1480,-257.5 1480,-276.5 1556,-276.5 1556,-257.5 1480,-257.5"/>
<text text-anchor="middle" x="1518" y="-264.5" font-family="Helvetica,sans-Serif" font-size="10.00">instruction.h</text>
</a>
</g>
</g>
<!-- Node2&#45;&gt;Node29 -->
<g id="edge86" class="edge"><title>Node2&#45;&gt;Node29</title>
<path fill="none" stroke="midnightblue" d="M1486.32,-447.2C1495.22,-438.894 1507.49,-425.569 1513,-411 1528.91,-368.931 1524.82,-314.84 1521.06,-286.775"/>
<polygon fill="midnightblue" stroke="midnightblue" points="1524.5,-286.137 1519.57,-276.756 1517.57,-287.161 1524.5,-286.137"/>
</g>
<!-- Node30 -->
<g id="node30" class="node"><title>Node30</title>
<g id="a_node30"><a xlink:href="constant_8h.xhtml" target="_top" xlink:title="Constant expressions that cannot have uncertainties. ">
<polygon fill="white" stroke="black" points="2628,-201.5 2628,-220.5 2750,-220.5 2750,-201.5 2628,-201.5"/>
<text text-anchor="middle" x="2689" y="-208.5" font-family="Helvetica,sans-Serif" font-size="10.00">expression/constant.h</text>
</a>
</g>
</g>
<!-- Node2&#45;&gt;Node30 -->
<g id="edge69" class="edge"><title>Node2&#45;&gt;Node30</title>
<path fill="none" stroke="midnightblue" d="M1509.62,-456.121C1674.14,-456.495 2390.09,-455.534 2478,-411 2556.39,-371.29 2533.96,-312.604 2602,-257 2618.55,-243.472 2639.83,-232.379 2657.2,-224.591"/>
<polygon fill="midnightblue" stroke="midnightblue" points="2658.61,-227.796 2666.39,-220.61 2655.82,-221.372 2658.61,-227.796"/>
</g>
<!-- Node31 -->
<g id="node31" class="node"><title>Node31</title>
<g id="a_node31"><a xlink:href="fault__tree_8h.xhtml" target="_top" xlink:title="Fault Tree and Component containers. ">
<polygon fill="white" stroke="black" points="940.5,-319 940.5,-338 1011.5,-338 1011.5,-319 940.5,-319"/>
<text text-anchor="middle" x="976" y="-326" font-family="Helvetica,sans-Serif" font-size="10.00">fault_tree.h</text>
</a>
</g>
</g>
<!-- Node2&#45;&gt;Node31 -->
<g id="edge71" class="edge"><title>Node2&#45;&gt;Node31</title>
<path fill="none" stroke="midnightblue" d="M1442.38,-453.665C1386.03,-449.16 1269.3,-437.293 1174,-411 1110.02,-393.348 1038.97,-360.675 1001.84,-342.52"/>
<polygon fill="midnightblue" stroke="midnightblue" points="1003.24,-339.309 992.724,-338.021 1000.14,-345.586 1003.24,-339.309"/>
</g>
<!-- Node33 -->
<g id="node33" class="node"><title>Node33</title>
<g id="a_node33"><a xlink:href="parameter_8h.xhtml" target="_top" xlink:title="Parameter expressions that act like a shareable variable. ">
<polygon fill="white" stroke="black" points="768,-201.5 768,-220.5 844,-220.5 844,-201.5 768,-201.5"/>
<text text-anchor="middle" x="806" y="-208.5" font-family="Helvetica,sans-Serif" font-size="10.00">parameter.h</text>
</a>
</g>
</g>
<!-- Node2&#45;&gt;Node33 -->
<g id="edge111" class="edge"><title>Node2&#45;&gt;Node33</title>
<path fill="none" stroke="midnightblue" d="M1442.16,-452.998C1313.65,-441.291 856.357,-396.73 721,-344 668.718,-323.633 641.179,-326.087 614,-277 583.256,-221.475 691.123,-211.924 757.558,-211.128"/>
<polygon fill="midnightblue" stroke="midnightblue" points="757.857,-214.626 767.837,-211.069 757.817,-207.626 757.857,-214.626"/>
</g>
<!-- Node34 -->
<g id="node34" class="node"><title>Node34</title>
<g id="a_node34"><a xlink:href="model_8h.xhtml" target="_top" xlink:title="Representation for a model container for risk analysis. ">
<polygon fill="white" stroke="black" points="1448,-386 1448,-405 1504,-405 1504,-386 1448,-386"/>
<text text-anchor="middle" x="1476" y="-393" font-family="Helvetica,sans-Serif" font-size="10.00">model.h</text>
</a>
</g>
</g>
<!-- Node2&#45;&gt;Node34 -->
<g id="edge87" class="edge"><title>Node2&#45;&gt;Node34</title>
<path fill="none" stroke="midnightblue" d="M1476,-447.475C1476,-439.08 1476,-425.981 1476,-415.163"/>
<polygon fill="midnightblue" stroke="midnightblue" points="1479.5,-415.009 1476,-405.009 1472.5,-415.009 1479.5,-415.009"/>
</g>
<!-- Node37 -->
<g id="node37" class="node"><title>Node37</title>
<g id="a_node37"><a xlink:href="settings_8h.xhtml" target="_top" xlink:title="Builder for settings. ">
<polygon fill="white" stroke="black" points="93,-73 93,-92 157,-92 157,-73 93,-73"/>
<text text-anchor="middle" x="125" y="-80" font-family="Helvetica,sans-Serif" font-size="10.00">settings.h</text>
</a>
</g>
</g>
<!-- Node2&#45;&gt;Node37 -->
<g id="edge112" class="edge"><title>Node2&#45;&gt;Node37</title>
<path fill="none" stroke="midnightblue" d="M1442.39,-455.973C1240.06,-455.674 191.116,-452.14 138,-411 108.147,-387.878 114,-367.26 114,-329.5 114,-329.5 114,-329.5 114,-210 114,-171.558 119.104,-126.791 122.359,-102.153"/>
<polygon fill="midnightblue" stroke="midnightblue" points="125.851,-102.449 123.738,-92.0671 118.915,-101.501 125.851,-102.449"/>
</g>
<!-- Node14&#45;&gt;Node3 -->
<g id="edge14" class="edge"><title>Node14&#45;&gt;Node3</title>
<path fill="none" stroke="midnightblue" d="M1826.85,-264.06C1762.25,-260.008 1623.11,-248.622 1509,-221 1448.41,-206.333 1380.59,-179.047 1343.34,-163.063"/>
<polygon fill="midnightblue" stroke="midnightblue" points="1344.68,-159.829 1334.11,-159.066 1341.89,-166.253 1344.68,-159.829"/>
</g>
<!-- Node14&#45;&gt;Node4 -->
<g id="edge15" class="edge"><title>Node14&#45;&gt;Node4</title>
<path fill="none" stroke="midnightblue" d="M1859.35,-257.178C1855.75,-248.208 1850.34,-233.84 1847,-221 1829.53,-153.822 1872.46,-113.584 1821,-67 1767.75,-18.7935 1247.04,-16.2264 1110.59,-16.3879"/>
<polygon fill="midnightblue" stroke="midnightblue" points="1110.36,-12.8882 1100.37,-16.4062 1110.38,-19.8882 1110.36,-12.8882"/>
</g>
<!-- Node14&#45;&gt;Node6 -->
<g id="edge17" class="edge"><title>Node14&#45;&gt;Node6</title>
<path fill="none" stroke="midnightblue" d="M1885.19,-257.467C1907.22,-248.833 1941.81,-234.821 1971,-221 2059.22,-179.226 2160.5,-122.616 2205.43,-97.0368"/>
<polygon fill="midnightblue" stroke="midnightblue" points="2207.18,-100.064 2214.13,-92.066 2203.71,-93.9847 2207.18,-100.064"/>
</g>
<!-- Node14&#45;&gt;Node7 -->
<g id="edge18" class="edge"><title>Node14&#45;&gt;Node7</title>
<path fill="none" stroke="midnightblue" d="M1899.1,-265.249C2021.95,-262.428 2418.82,-251.055 2467,-221 2536.47,-177.659 2568.3,-76.6676 2578.82,-34.9925"/>
<polygon fill="midnightblue" stroke="midnightblue" points="2582.26,-35.6561 2581.18,-25.1156 2575.45,-34.0236 2582.26,-35.6561"/>
</g>
<!-- Node14&#45;&gt;Node11 -->
<g id="edge19" class="edge"><title>Node14&#45;&gt;Node11</title>
<path fill="none" stroke="midnightblue" d="M1830.08,-257.406C1811.14,-250.69 1788.65,-239.336 1776,-221 1753.9,-188.964 1774.81,-171.91 1766,-134 1763.46,-123.066 1759.32,-111.225 1755.65,-101.759"/>
<polygon fill="midnightblue" stroke="midnightblue" points="1758.8,-100.221 1751.81,-92.2561 1752.31,-102.839 1758.8,-100.221"/>
</g>
<!-- Node14&#45;&gt;Node15 -->
<g id="edge16" class="edge"><title>Node14&#45;&gt;Node15</title>
<path fill="none" stroke="midnightblue" d="M1899.12,-265.674C2048.05,-264.121 2628.9,-256.026 3105,-221 3116.9,-220.125 3129.74,-218.85 3141.62,-217.534"/>
<polygon fill="midnightblue" stroke="midnightblue" points="3142.22,-220.988 3151.76,-216.375 3141.43,-214.033 3142.22,-220.988"/>
</g>
<!-- Node16 -->
<g id="node16" class="node"><title>Node16</title>
<polygon fill="white" stroke="#bfbfbf" points="1856,-201.5 1856,-220.5 1962,-220.5 1962,-201.5 1856,-201.5"/>
<text text-anchor="middle" x="1909" y="-208.5" font-family="Helvetica,sans-Serif" font-size="10.00">boost/optional.hpp</text>
</g>
<!-- Node14&#45;&gt;Node16 -->
<g id="edge20" class="edge"><title>Node14&#45;&gt;Node16</title>
<path fill="none" stroke="midnightblue" d="M1870.6,-257.083C1877.23,-249.298 1887.02,-237.801 1895.06,-228.367"/>
<polygon fill="midnightblue" stroke="midnightblue" points="1897.73,-230.633 1901.55,-220.751 1892.4,-226.094 1897.73,-230.633"/>
</g>
<!-- Node14&#45;&gt;Node17 -->
<g id="edge21" class="edge"><title>Node14&#45;&gt;Node17</title>
<path fill="none" stroke="midnightblue" d="M1841.82,-257.48C1780.62,-233.279 1597.72,-163.942 1439,-134 1189.96,-87.0178 884.19,-82.9164 772.996,-83.1316"/>
<polygon fill="midnightblue" stroke="midnightblue" points="772.84,-79.632 762.851,-83.1646 772.862,-86.632 772.84,-79.632"/>
</g>
<!-- Node14&#45;&gt;Node20 -->
<g id="edge28" class="edge"><title>Node14&#45;&gt;Node20</title>
<path fill="none" stroke="midnightblue" d="M1826.96,-259.461C1822.26,-258.624 1817.52,-257.786 1813,-257 1730.38,-242.628 1633.28,-226.519 1581.65,-218.014"/>
<polygon fill="midnightblue" stroke="midnightblue" points="1582.08,-214.538 1571.64,-216.368 1580.94,-221.445 1582.08,-214.538"/>
</g>
<!-- Node14&#45;&gt;Node21 -->
<g id="edge48" class="edge"><title>Node14&#45;&gt;Node21</title>
<path fill="none" stroke="midnightblue" d="M1895.95,-257.48C1945.97,-244.647 2044.12,-219.856 2128,-201 2196.72,-185.554 2276.64,-169.573 2326.53,-159.833"/>
<polygon fill="midnightblue" stroke="midnightblue" points="2327.25,-163.258 2336.4,-157.911 2325.91,-156.387 2327.25,-163.258"/>
</g>
<!-- Node17&#45;&gt;Node4 -->
<g id="edge23" class="edge"><title>Node17&#45;&gt;Node4</title>
<path fill="none" stroke="midnightblue" d="M762.739,-75.385C829.391,-62.9356 980.101,-34.7857 1046.07,-22.4643"/>
<polygon fill="midnightblue" stroke="midnightblue" points="1046.71,-25.9042 1055.9,-20.6275 1045.43,-19.0232 1046.71,-25.9042"/>
</g>
<!-- Node17&#45;&gt;Node7 -->
<g id="edge24" class="edge"><title>Node17&#45;&gt;Node7</title>
<path fill="none" stroke="midnightblue" d="M762.554,-80.358C988.43,-72.4347 2320.01,-25.7253 2549.37,-17.6797"/>
<polygon fill="midnightblue" stroke="midnightblue" points="2549.58,-21.1747 2559.45,-17.3262 2549.33,-14.179 2549.58,-21.1747"/>
</g>
<!-- Node17&#45;&gt;Node8 -->
<g id="edge25" class="edge"><title>Node17&#45;&gt;Node8</title>
<path fill="none" stroke="midnightblue" d="M697.3,-78.1422C604.032,-68.5649 334.181,-40.8551 190.156,-26.0658"/>
<polygon fill="midnightblue" stroke="midnightblue" points="190.313,-22.5636 180.008,-25.0237 189.598,-29.527 190.313,-22.5636"/>
</g>
<!-- Node17&#45;&gt;Node10 -->
<g id="edge26" class="edge"><title>Node17&#45;&gt;Node10</title>
<path fill="none" stroke="midnightblue" d="M697.383,-73.5297C656.264,-63.4818 584.54,-45.9552 531.425,-32.9761"/>
<polygon fill="midnightblue" stroke="midnightblue" points="531.946,-29.5004 521.401,-30.5265 530.284,-36.3003 531.946,-29.5004"/>
</g>
<!-- Node18 -->
<g id="node18" class="node"><title>Node18</title>
<polygon fill="white" stroke="#bfbfbf" points="797.5,-6 797.5,-25 846.5,-25 846.5,-6 797.5,-6"/>
<text text-anchor="middle" x="822" y="-13" font-family="Helvetica,sans-Serif" font-size="10.00">cstdint</text>
</g>
<!-- Node17&#45;&gt;Node18 -->
<g id="edge22" class="edge"><title>Node17&#45;&gt;Node18</title>
<path fill="none" stroke="midnightblue" d="M742.408,-72.7338C757.581,-62.0131 783.478,-43.7165 801.599,-30.9137"/>
<polygon fill="midnightblue" stroke="midnightblue" points="803.641,-33.7562 809.789,-25.1273 799.602,-28.0391 803.641,-33.7562"/>
</g>
<!-- Node19 -->
<g id="node19" class="node"><title>Node19</title>
<polygon fill="white" stroke="#bfbfbf" points="649,-0.5 649,-30.5 779,-30.5 779,-0.5 649,-0.5"/>
<text text-anchor="start" x="657" y="-18.5" font-family="Helvetica,sans-Serif" font-size="10.00">boost/multi_index/mem</text>
<text text-anchor="middle" x="714" y="-7.5" font-family="Helvetica,sans-Serif" font-size="10.00">_fun.hpp</text>
</g>
<!-- Node17&#45;&gt;Node19 -->
<g id="edge27" class="edge"><title>Node17&#45;&gt;Node19</title>
<path fill="none" stroke="midnightblue" d="M727.842,-72.7338C725.805,-64.4561 722.655,-51.6619 719.875,-40.3674"/>
<polygon fill="midnightblue" stroke="midnightblue" points="723.257,-39.4626 717.468,-30.589 716.46,-41.1358 723.257,-39.4626"/>
</g>
<!-- Node20&#45;&gt;Node3 -->
<g id="edge30" class="edge"><title>Node20&#45;&gt;Node3</title>
<path fill="none" stroke="midnightblue" d="M1518.17,-203.058C1477.54,-192.548 1400.22,-172.547 1353.57,-160.478"/>
<polygon fill="midnightblue" stroke="midnightblue" points="1354.38,-157.073 1343.82,-157.957 1352.63,-163.85 1354.38,-157.073"/>
</g>
<!-- Node20&#45;&gt;Node4 -->
<g id="edge31" class="edge"><title>Node20&#45;&gt;Node4</title>
<path fill="none" stroke="midnightblue" d="M1542.88,-201.411C1536.1,-175.954 1512.4,-100.588 1462,-67 1404.5,-28.6816 1191.83,-19.3405 1110.19,-17.1466"/>
<polygon fill="midnightblue" stroke="midnightblue" points="1110.1,-13.6432 1100.02,-16.8923 1109.93,-20.6411 1110.1,-13.6432"/>
</g>
<!-- Node20&#45;&gt;Node7 -->
<g id="edge32" class="edge"><title>Node20&#45;&gt;Node7</title>
<path fill="none" stroke="midnightblue" d="M1544.4,-201.439C1543.14,-176.058 1543.32,-100.887 1586,-67 1624.53,-36.4022 2379.49,-20.3467 2549.29,-17.1145"/>
<polygon fill="midnightblue" stroke="midnightblue" points="2549.46,-20.612 2559.39,-16.9242 2549.33,-13.6132 2549.46,-20.612"/>
</g>
<!-- Node20&#45;&gt;Node11 -->
<g id="edge33" class="edge"><title>Node20&#45;&gt;Node11</title>
<path fill="none" stroke="midnightblue" d="M1558.95,-201.305C1593.51,-179.769 1683.34,-123.795 1725.51,-97.514"/>
<polygon fill="midnightblue" stroke="midnightblue" points="1727.58,-100.348 1734.22,-92.0884 1723.88,-94.4067 1727.58,-100.348"/>
</g>
<!-- Node20&#45;&gt;Node12 -->
<g id="edge34" class="edge"><title>Node20&#45;&gt;Node12</title>
<path fill="none" stroke="midnightblue" d="M1518.39,-207.289C1430.38,-198.322 1147.2,-169.471 1021.77,-156.691"/>
<polygon fill="midnightblue" stroke="midnightblue" points="1021.88,-153.184 1011.57,-155.652 1021.17,-160.148 1021.88,-153.184"/>
</g>
<!-- Node20&#45;&gt;Node17 -->
<g id="edge35" class="edge"><title>Node20&#45;&gt;Node17</title>
<path fill="none" stroke="midnightblue" d="M1531.63,-201.485C1505.08,-185.074 1443.34,-149.337 1386,-134 1269.55,-102.852 899.195,-88.7376 772.772,-84.7424"/>
<polygon fill="midnightblue" stroke="midnightblue" points="772.804,-81.2418 762.7,-84.4293 772.586,-88.2384 772.804,-81.2418"/>
</g>
<!-- Node20&#45;&gt;Node18 -->
<g id="edge29" class="edge"><title>Node20&#45;&gt;Node18</title>
<path fill="none" stroke="midnightblue" d="M1535.93,-201.338C1518.6,-185.317 1478.96,-151.135 1439,-134 1230.35,-44.5262 952.994,-22.8698 856.683,-17.9016"/>
<polygon fill="midnightblue" stroke="midnightblue" points="856.787,-14.4026 846.628,-17.4106 856.446,-21.3943 856.787,-14.4026"/>
</g>
<!-- Node20&#45;&gt;Node21 -->
<g id="edge36" class="edge"><title>Node20&#45;&gt;Node21</title>
<path fill="none" stroke="midnightblue" d="M1571.68,-208.088C1690.21,-199.59 2170.17,-165.184 2325.93,-154.018"/>
<polygon fill="midnightblue" stroke="midnightblue" points="2326.42,-157.492 2336.14,-153.286 2325.92,-150.51 2326.42,-157.492"/>
</g>
<!-- Node21&#45;&gt;Node4 -->
<g id="edge39" class="edge"><title>Node21&#45;&gt;Node4</title>
<path fill="none" stroke="midnightblue" d="M2360.6,-139.833C2344.7,-130.119 2318.52,-113.67 2297,-98 2279.38,-85.169 2279.37,-74.7498 2259,-67 2149.04,-25.1677 1288.45,-17.7583 1110.24,-16.6681"/>
<polygon fill="midnightblue" stroke="midnightblue" points="1110.2,-13.168 1100.18,-16.609 1110.16,-20.1679 1110.2,-13.168"/>
</g>
<!-- Node21&#45;&gt;Node6 -->
<g id="edge40" class="edge"><title>Node21&#45;&gt;Node6</title>
<path fill="none" stroke="midnightblue" d="M2355.61,-139.869C2330.52,-128.699 2286.61,-109.147 2257.66,-96.2602"/>
<polygon fill="midnightblue" stroke="midnightblue" points="2259.03,-93.037 2248.47,-92.1672 2256.18,-99.4319 2259.03,-93.037"/>
</g>
<!-- Node21&#45;&gt;Node7 -->
<g id="edge41" class="edge"><title>Node21&#45;&gt;Node7</title>
<path fill="none" stroke="midnightblue" d="M2409.58,-139.953C2437.47,-131.998 2476.88,-118.29 2507,-98 2533.23,-80.3264 2556.96,-51.9841 2570.68,-33.8097"/>
<polygon fill="midnightblue" stroke="midnightblue" points="2573.8,-35.4735 2576.9,-25.3429 2568.16,-31.3279 2573.8,-35.4735"/>
</g>
<!-- Node21&#45;&gt;Node11 -->
<g id="edge43" class="edge"><title>Node21&#45;&gt;Node11</title>
<path fill="none" stroke="midnightblue" d="M2336.25,-144.483C2234.12,-133.895 1956.23,-105.087 1822.22,-91.1948"/>
<polygon fill="midnightblue" stroke="midnightblue" points="1822.36,-87.6899 1812.05,-90.14 1821.64,-94.6526 1822.36,-87.6899"/>
</g>
<!-- Node21&#45;&gt;Node17 -->
<g id="edge44" class="edge"><title>Node21&#45;&gt;Node17</title>
<path fill="none" stroke="midnightblue" d="M2336.36,-146.973C2114.61,-138.211 1005.55,-94.3879 772.865,-85.1938"/>
<polygon fill="midnightblue" stroke="midnightblue" points="772.895,-81.6923 762.764,-84.7946 772.618,-88.6868 772.895,-81.6923"/>
</g>
<!-- Node22 -->
<g id="node22" class="node"><title>Node22</title>
<polygon fill="white" stroke="#bfbfbf" points="2306,-73 2306,-92 2368,-92 2368,-73 2306,-73"/>
<text text-anchor="middle" x="2337" y="-80" font-family="Helvetica,sans-Serif" font-size="10.00">algorithm</text>
</g>
<!-- Node21&#45;&gt;Node22 -->
<g id="edge37" class="edge"><title>Node21&#45;&gt;Node22</title>
<path fill="none" stroke="midnightblue" d="M2369.88,-139.734C2364.06,-129.793 2354.44,-113.338 2347.11,-100.789"/>
<polygon fill="midnightblue" stroke="midnightblue" points="2350.11,-98.9938 2342.04,-92.1273 2344.07,-102.527 2350.11,-98.9938"/>
</g>
<!-- Node21&#45;&gt;Node23 -->
<g id="edge38" class="edge"><title>Node21&#45;&gt;Node23</title>
<path fill="none" stroke="midnightblue" d="M2413.71,-146.861C2627.25,-137.818 3659.39,-94.1123 3871.75,-85.1198"/>
<polygon fill="midnightblue" stroke="midnightblue" points="3871.95,-88.6144 3881.79,-84.6944 3871.66,-81.6207 3871.95,-88.6144"/>
</g>
<!-- Node24 -->
<g id="node24" class="node"><title>Node24</title>
<polygon fill="white" stroke="#bfbfbf" points="2386,-67.5 2386,-97.5 2498,-97.5 2498,-67.5 2386,-67.5"/>
<text text-anchor="start" x="2394" y="-85.5" font-family="Helvetica,sans-Serif" font-size="10.00">boost/icl/continuous</text>
<text text-anchor="middle" x="2442" y="-74.5" font-family="Helvetica,sans-Serif" font-size="10.00">_interval.hpp</text>
</g>
<!-- Node21&#45;&gt;Node24 -->
<g id="edge42" class="edge"><title>Node21&#45;&gt;Node24</title>
<path fill="none" stroke="midnightblue" d="M2384.04,-139.734C2393.26,-130.78 2407.94,-116.543 2420.22,-104.635"/>
<polygon fill="midnightblue" stroke="midnightblue" points="2422.74,-107.064 2427.48,-97.589 2417.86,-102.04 2422.74,-107.064"/>
</g>
<!-- Node21&#45;&gt;Node25 -->
<g id="edge45" class="edge"><title>Node21&#45;&gt;Node25</title>
<path fill="none" stroke="midnightblue" d="M2413.6,-146.09C2578.71,-135.78 3224.37,-95.4651 3381.43,-85.6588"/>
<polygon fill="midnightblue" stroke="midnightblue" points="3382.11,-89.1228 3391.88,-85.0063 3381.68,-82.1364 3382.11,-89.1228"/>
</g>
<!-- Node25&#45;&gt;Node4 -->
<g id="edge47" class="edge"><title>Node25&#45;&gt;Node4</title>
<path fill="none" stroke="midnightblue" d="M3391.71,-80.8248C3161.93,-74.4364 1373.26,-24.7088 1110.25,-17.3966"/>
<polygon fill="midnightblue" stroke="midnightblue" points="1110.3,-13.8966 1100.2,-17.1172 1110.1,-20.8939 1110.3,-13.8966"/>
</g>
<!-- Node26 -->
<g id="node26" class="node"><title>Node26</title>
<polygon fill="white" stroke="#bfbfbf" points="3384.5,-6 3384.5,-25 3447.5,-25 3447.5,-6 3384.5,-6"/>
<text text-anchor="middle" x="3416" y="-13" font-family="Helvetica,sans-Serif" font-size="10.00">exception</text>
</g>
<!-- Node25&#45;&gt;Node26 -->
<g id="edge46" class="edge"><title>Node25&#45;&gt;Node26</title>
<path fill="none" stroke="midnightblue" d="M3416,-72.7338C3416,-63.1826 3416,-47.6183 3416,-35.2829"/>
<polygon fill="midnightblue" stroke="midnightblue" points="3419.5,-35.1273 3416,-25.1273 3412.5,-35.1273 3419.5,-35.1273"/>
</g>
<!-- Node27&#45;&gt;Node3 -->
<g id="edge52" class="edge"><title>Node27&#45;&gt;Node3</title>
<path fill="none" stroke="midnightblue" d="M1290.67,-318.719C1285.53,-297.873 1274.55,-243.93 1286,-201 1289.2,-188.985 1296.02,-176.857 1302.25,-167.499"/>
<polygon fill="midnightblue" stroke="midnightblue" points="1305.21,-169.362 1308.11,-159.171 1299.49,-165.332 1305.21,-169.362"/>
</g>
<!-- Node27&#45;&gt;Node4 -->
<g id="edge53" class="edge"><title>Node27&#45;&gt;Node4</title>
<path fill="none" stroke="midnightblue" d="M1254.26,-322.756C1199.57,-313.747 1101.57,-288.576 1058,-221 1019.84,-161.804 1052.44,-72.2779 1069.35,-34.4155"/>
<polygon fill="midnightblue" stroke="midnightblue" points="1072.6,-35.7193 1073.63,-25.1746 1066.25,-32.7762 1072.6,-35.7193"/>
</g>
<!-- Node27&#45;&gt;Node7 -->
<g id="edge54" class="edge"><title>Node27&#45;&gt;Node7</title>
<path fill="none" stroke="midnightblue" d="M1317.65,-318.87C1325.07,-316.595 1333.29,-314.39 1341,-313 1589.5,-268.194 1660.12,-325.138 1908,-277 1998.09,-259.504 2104,-303.776 2104,-212 2104,-212 2104,-212 2104,-148.5 2104,-99.8719 2133.91,-89.544 2177,-67 2241.58,-33.2109 2463.53,-21.1424 2549.04,-17.6842"/>
<polygon fill="midnightblue" stroke="midnightblue" points="2549.38,-21.1735 2559.24,-17.2867 2549.11,-14.1789 2549.38,-21.1735"/>
</g>
<!-- Node27&#45;&gt;Node11 -->
<g id="edge55" class="edge"><title>Node27&#45;&gt;Node11</title>
<path fill="none" stroke="midnightblue" d="M1287.84,-318.784C1270.8,-288.738 1220.08,-188.345 1269,-134 1295.52,-104.538 1545.54,-91.0151 1673.42,-85.9829"/>
<polygon fill="midnightblue" stroke="midnightblue" points="1673.68,-89.4757 1683.54,-85.5926 1673.41,-82.4809 1673.68,-89.4757"/>
</g>
<!-- Node27&#45;&gt;Node12 -->
<g id="edge56" class="edge"><title>Node27&#45;&gt;Node12</title>
<path fill="none" stroke="midnightblue" d="M1264.27,-318.959C1256.45,-316.819 1247.94,-314.662 1240,-313 1186.14,-301.719 1036.11,-313.577 995,-277 964.088,-249.5 959.941,-197.197 960.129,-169.234"/>
<polygon fill="midnightblue" stroke="midnightblue" points="963.629,-169.28 960.394,-159.19 956.631,-169.094 963.629,-169.28"/>
</g>
<!-- Node27&#45;&gt;Node17 -->
<g id="edge57" class="edge"><title>Node27&#45;&gt;Node17</title>
<path fill="none" stroke="midnightblue" d="M1254.31,-325.721C1154.81,-320.785 892.073,-305.378 810,-277 765.831,-261.728 745.392,-260.864 721,-221 698.183,-183.71 712.527,-129.593 722.605,-101.674"/>
<polygon fill="midnightblue" stroke="midnightblue" points="725.987,-102.632 726.296,-92.0415 719.45,-100.127 725.987,-102.632"/>
</g>
<!-- Node28 -->
<g id="node28" class="node"><title>Node28</title>
<g id="a_node28"><a xlink:href="variant_8h.xhtml" target="_top" xlink:title="Extra helper functions for boost::variant. ">
<polygon fill="white" stroke="black" points="1004.5,-257.5 1004.5,-276.5 1081.5,-276.5 1081.5,-257.5 1004.5,-257.5"/>
<text text-anchor="middle" x="1043" y="-264.5" font-family="Helvetica,sans-Serif" font-size="10.00">ext/variant.h</text>
</a>
</g>
</g>
<!-- Node27&#45;&gt;Node28 -->
<g id="edge58" class="edge"><title>Node27&#45;&gt;Node28</title>
<path fill="none" stroke="midnightblue" d="M1262.79,-318.996C1255.35,-316.97 1247.4,-314.857 1240,-313 1189.6,-300.356 1131.58,-287.28 1091.63,-278.504"/>
<polygon fill="midnightblue" stroke="midnightblue" points="1092.14,-275.033 1081.62,-276.313 1090.64,-281.871 1092.14,-275.033"/>
</g>
<!-- Node27&#45;&gt;Node29 -->
<g id="edge60" class="edge"><title>Node27&#45;&gt;Node29</title>
<path fill="none" stroke="midnightblue" d="M1320.61,-318.932C1327.27,-316.928 1334.37,-314.842 1341,-313 1385.49,-300.632 1436.64,-287.774 1472.47,-278.985"/>
<polygon fill="midnightblue" stroke="midnightblue" points="1473.73,-282.28 1482.62,-276.506 1472.07,-275.48 1473.73,-282.28"/>
</g>
<!-- Node28&#45;&gt;Node12 -->
<g id="edge59" class="edge"><title>Node28&#45;&gt;Node12</title>
<path fill="none" stroke="midnightblue" d="M1036.84,-257.319C1023.3,-238.255 990.78,-192.447 973.04,-167.458"/>
<polygon fill="midnightblue" stroke="midnightblue" points="975.878,-165.41 967.235,-159.282 970.17,-169.462 975.878,-165.41"/>
</g>
<!-- Node29&#45;&gt;Node3 -->
<g id="edge61" class="edge"><title>Node29&#45;&gt;Node3</title>
<path fill="none" stroke="midnightblue" d="M1487.68,-257.465C1463.08,-249.843 1428.02,-237.359 1400,-221 1373.77,-205.691 1347.46,-182.338 1331.21,-166.755"/>
<polygon fill="midnightblue" stroke="midnightblue" points="1333.28,-163.884 1323.68,-159.398 1328.39,-168.891 1333.28,-163.884"/>
</g>
<!-- Node29&#45;&gt;Node4 -->
<g id="edge62" class="edge"><title>Node29&#45;&gt;Node4</title>
<path fill="none" stroke="midnightblue" d="M1511.42,-257.231C1493.43,-233.847 1440.9,-169.375 1383,-134 1291.14,-77.8822 1167.95,-40.4146 1110.3,-24.7704"/>
<polygon fill="midnightblue" stroke="midnightblue" points="1110.88,-21.3038 1100.32,-22.1036 1109.08,-28.0665 1110.88,-21.3038"/>
</g>
<!-- Node29&#45;&gt;Node7 -->
<g id="edge63" class="edge"><title>Node29&#45;&gt;Node7</title>
<path fill="none" stroke="midnightblue" d="M1533.05,-257.413C1546.46,-249.251 1566.07,-236.017 1580,-221 1634.69,-162.04 1605.89,-108.126 1675,-67 1751.19,-21.6624 2392.66,-17.0067 2548.83,-16.5467"/>
<polygon fill="midnightblue" stroke="midnightblue" points="2549.23,-20.0457 2559.22,-16.5203 2549.21,-13.0458 2549.23,-20.0457"/>
</g>
<!-- Node29&#45;&gt;Node11 -->
<g id="edge64" class="edge"><title>Node29&#45;&gt;Node11</title>
<path fill="none" stroke="midnightblue" d="M1542.17,-257.476C1562.41,-249.703 1591.5,-237.005 1614,-221 1664.73,-184.91 1712.77,-128.285 1735.04,-100.304"/>
<polygon fill="midnightblue" stroke="midnightblue" points="1737.91,-102.315 1741.33,-92.2882 1732.4,-97.9915 1737.91,-102.315"/>
</g>
<!-- Node29&#45;&gt;Node17 -->
<g id="edge65" class="edge"><title>Node29&#45;&gt;Node17</title>
<path fill="none" stroke="midnightblue" d="M1506.08,-257.414C1482.61,-240.391 1428.95,-200.9 1386,-165 1370.31,-151.886 1370.75,-142.154 1352,-134 1247.61,-88.6126 895.536,-83.7107 772.706,-83.4113"/>
<polygon fill="midnightblue" stroke="midnightblue" points="772.567,-79.9112 762.562,-83.396 772.556,-86.9112 772.567,-79.9112"/>
</g>
<!-- Node29&#45;&gt;Node20 -->
<g id="edge66" class="edge"><title>Node29&#45;&gt;Node20</title>
<path fill="none" stroke="midnightblue" d="M1522.46,-257.083C1526.15,-249.691 1531.52,-238.953 1536.09,-229.811"/>
<polygon fill="midnightblue" stroke="midnightblue" points="1539.28,-231.261 1540.62,-220.751 1533.02,-228.13 1539.28,-231.261"/>
</g>
<!-- Node29&#45;&gt;Node21 -->
<g id="edge67" class="edge"><title>Node29&#45;&gt;Node21</title>
<path fill="none" stroke="midnightblue" d="M1554.8,-257.482C1615.4,-243.736 1740.13,-216.627 1847,-201 2022.65,-175.314 2233.16,-159.677 2326.43,-153.519"/>
<polygon fill="midnightblue" stroke="midnightblue" points="2326.67,-157.011 2336.42,-152.867 2326.21,-150.026 2326.67,-157.011"/>
</g>
<!-- Node30&#45;&gt;Node21 -->
<g id="edge70" class="edge"><title>Node30&#45;&gt;Node21</title>
<path fill="none" stroke="midnightblue" d="M2644.01,-201.475C2585.66,-190.418 2484.24,-171.2 2423.99,-159.783"/>
<polygon fill="midnightblue" stroke="midnightblue" points="2424.44,-156.307 2413.97,-157.884 2423.14,-163.184 2424.44,-156.307"/>
</g>
<!-- Node31&#45;&gt;Node3 -->
<g id="edge72" class="edge"><title>Node31&#45;&gt;Node3</title>
<path fill="none" stroke="midnightblue" d="M975.848,-318.889C976.064,-304.229 978.645,-274.333 995,-257 1070.9,-176.557 1209.02,-156.843 1276.21,-152.035"/>
<polygon fill="midnightblue" stroke="midnightblue" points="1276.61,-155.517 1286.36,-151.384 1276.16,-148.531 1276.61,-155.517"/>
</g>
<!-- Node31&#45;&gt;Node4 -->
<g id="edge73" class="edge"><title>Node31&#45;&gt;Node4</title>
<path fill="none" stroke="midnightblue" d="M940.234,-327.112C860.519,-325.515 671.618,-317.448 625,-277 602.267,-257.275 606,-242.098 606,-212 606,-212 606,-212 606,-148.5 606,-97.1167 641.857,-89.6067 688,-67 750.93,-36.1688 963.714,-22.3112 1045.55,-18.0306"/>
<polygon fill="midnightblue" stroke="midnightblue" points="1045.95,-21.515 1055.76,-17.5112 1045.6,-14.524 1045.95,-21.515"/>
</g>
<!-- Node31&#45;&gt;Node7 -->
<g id="edge75" class="edge"><title>Node31&#45;&gt;Node7</title>
<path fill="none" stroke="midnightblue" d="M1000.03,-318.935C1023.73,-310.014 1060.58,-294.859 1090,-277 1177.05,-224.166 1177.35,-178.376 1269,-134 1504.72,-19.8643 2367.92,-15.8809 2549.39,-16.3297"/>
<polygon fill="midnightblue" stroke="midnightblue" points="2549.4,-19.8296 2559.41,-16.3609 2549.42,-12.8296 2549.4,-19.8296"/>
</g>
<!-- Node31&#45;&gt;Node11 -->
<g id="edge76" class="edge"><title>Node31&#45;&gt;Node11</title>
<path fill="none" stroke="midnightblue" d="M967.17,-318.953C937.717,-289.456 847.634,-190.643 901,-134 927.312,-106.073 1471.97,-90.1506 1673.7,-85.1933"/>
<polygon fill="midnightblue" stroke="midnightblue" points="1674,-88.6872 1683.91,-84.9446 1673.83,-81.6893 1674,-88.6872"/>
</g>
<!-- Node31&#45;&gt;Node14 -->
<g id="edge77" class="edge"><title>Node31&#45;&gt;Node14</title>
<path fill="none" stroke="midnightblue" d="M1011.59,-325.112C1150.91,-315.767 1659.21,-281.67 1816.38,-271.128"/>
<polygon fill="midnightblue" stroke="midnightblue" points="1816.9,-274.6 1826.65,-270.439 1816.43,-267.616 1816.9,-274.6"/>
</g>
<!-- Node31&#45;&gt;Node17 -->
<g id="edge78" class="edge"><title>Node31&#45;&gt;Node17</title>
<path fill="none" stroke="midnightblue" d="M940.27,-327.983C859.271,-328.236 665.566,-323.82 625,-277 574.658,-218.897 668.246,-132.642 710.667,-98.3438"/>
<polygon fill="midnightblue" stroke="midnightblue" points="712.98,-100.976 718.642,-92.021 708.632,-95.4909 712.98,-100.976"/>
</g>
<!-- Node31&#45;&gt;Node20 -->
<g id="edge79" class="edge"><title>Node31&#45;&gt;Node20</title>
<path fill="none" stroke="midnightblue" d="M1011.59,-320.275C1113.44,-299.601 1405.33,-240.351 1508.41,-219.428"/>
<polygon fill="midnightblue" stroke="midnightblue" points="1509.24,-222.83 1518.35,-217.41 1507.85,-215.97 1509.24,-222.83"/>
</g>
<!-- Node32 -->
<g id="node32" class="node"><title>Node32</title>
<polygon fill="white" stroke="#bfbfbf" points="634,-257.5 634,-276.5 720,-276.5 720,-257.5 634,-257.5"/>
<text text-anchor="middle" x="677" y="-264.5" font-family="Helvetica,sans-Serif" font-size="10.00">unordered_set</text>
</g>
<!-- Node31&#45;&gt;Node32 -->
<g id="edge74" class="edge"><title>Node31&#45;&gt;Node32</title>
<path fill="none" stroke="midnightblue" d="M940.231,-320.382C888.065,-310.001 790.753,-290.636 730.179,-278.582"/>
<polygon fill="midnightblue" stroke="midnightblue" points="730.542,-275.086 720.051,-276.567 729.175,-281.951 730.542,-275.086"/>
</g>
<!-- Node31&#45;&gt;Node33 -->
<g id="edge80" class="edge"><title>Node31&#45;&gt;Node33</title>
<path fill="none" stroke="midnightblue" d="M940.354,-319.785C912.817,-312.423 874.978,-299.106 848,-277 832.613,-264.392 820.975,-244.625 813.897,-230.197"/>
<polygon fill="midnightblue" stroke="midnightblue" points="816.933,-228.423 809.56,-220.814 810.579,-231.36 816.933,-228.423"/>
</g>
<!-- Node33&#45;&gt;Node3 -->
<g id="edge82" class="edge"><title>Node33&#45;&gt;Node3</title>
<path fill="none" stroke="midnightblue" d="M844.258,-205.528C938.633,-194.496 1181.74,-166.077 1276.44,-155.008"/>
<polygon fill="midnightblue" stroke="midnightblue" points="1276.92,-158.476 1286.44,-153.838 1276.11,-151.523 1276.92,-158.476"/>
</g>
<!-- Node33&#45;&gt;Node4 -->
<g id="edge83" class="edge"><title>Node33&#45;&gt;Node4</title>
<path fill="none" stroke="midnightblue" d="M811.61,-201.118C821.537,-185.921 843.481,-154.582 868,-134 925.146,-86.0315 1004.76,-47.8069 1047.68,-29.0758"/>
<polygon fill="midnightblue" stroke="midnightblue" points="1049.22,-32.2264 1057.02,-25.0581 1046.45,-25.7967 1049.22,-32.2264"/>
</g>
<!-- Node33&#45;&gt;Node17 -->
<g id="edge84" class="edge"><title>Node33&#45;&gt;Node17</title>
<path fill="none" stroke="midnightblue" d="M800.776,-201.305C788.411,-180.723 757.149,-128.689 740.621,-101.178"/>
<polygon fill="midnightblue" stroke="midnightblue" points="743.411,-99.0252 735.26,-92.2557 737.41,-102.63 743.411,-99.0252"/>
</g>
<!-- Node33&#45;&gt;Node18 -->
<g id="edge81" class="edge"><title>Node33&#45;&gt;Node18</title>
<path fill="none" stroke="midnightblue" d="M806.708,-201.436C809.118,-172.287 817.041,-76.4675 820.435,-35.4284"/>
<polygon fill="midnightblue" stroke="midnightblue" points="823.927,-35.6613 821.264,-25.4068 816.951,-35.0844 823.927,-35.6613"/>
</g>
<!-- Node33&#45;&gt;Node21 -->
<g id="edge85" class="edge"><title>Node33&#45;&gt;Node21</title>
<path fill="none" stroke="midnightblue" d="M844.007,-208.559C1055.78,-200.528 2089.16,-161.34 2326.39,-152.343"/>
<polygon fill="midnightblue" stroke="midnightblue" points="2326.58,-155.839 2336.44,-151.962 2326.31,-148.844 2326.58,-155.839"/>
</g>
<!-- Node34&#45;&gt;Node3 -->
<g id="edge88" class="edge"><title>Node34&#45;&gt;Node3</title>
<path fill="none" stroke="midnightblue" d="M1471.87,-385.708C1464.63,-370.518 1448.89,-338.533 1433,-313 1414.82,-283.791 1354.54,-203.035 1327.87,-167.573"/>
<polygon fill="midnightblue" stroke="midnightblue" points="1330.4,-165.105 1321.59,-159.221 1324.8,-169.315 1330.4,-165.105"/>
</g>
<!-- Node34&#45;&gt;Node4 -->
<g id="edge89" class="edge"><title>Node34&#45;&gt;Node4</title>
<path fill="none" stroke="midnightblue" d="M1504.24,-392.516C1567.28,-386.398 1714,-362.055 1714,-268 1714,-268 1714,-268 1714,-210 1714,-93.0089 1602.99,-106.863 1493,-67 1422.41,-41.4161 1194.84,-24.1999 1110.15,-18.537"/>
<polygon fill="midnightblue" stroke="midnightblue" points="1110.3,-15.0394 1100.09,-17.8741 1109.84,-22.0242 1110.3,-15.0394"/>
</g>
<!-- Node34&#45;&gt;Node7 -->
<g id="edge90" class="edge"><title>Node34&#45;&gt;Node7</title>
<path fill="none" stroke="midnightblue" d="M1504.37,-393.246C1613.03,-388.293 2002.73,-369.132 2124,-344 2288.74,-309.858 2336.09,-304.748 2482,-221 2542.38,-186.344 2561.96,-165.502 2579,-98 2584.3,-77.0193 2584.7,-52.0599 2584.16,-35.3396"/>
<polygon fill="midnightblue" stroke="midnightblue" points="2587.65,-35.0552 2583.68,-25.2304 2580.66,-35.3836 2587.65,-35.0552"/>
</g>
<!-- Node34&#45;&gt;Node11 -->
<g id="edge91" class="edge"><title>Node34&#45;&gt;Node11</title>
<path fill="none" stroke="midnightblue" d="M1504.18,-392.124C1556.71,-387.144 1672.7,-373.541 1766,-344 1832.53,-322.936 1849.77,-315.462 1908,-277 1939.26,-256.352 1955.65,-255.175 1971,-221 2003.72,-148.134 1886.61,-110.534 1809.83,-94.1044"/>
<polygon fill="midnightblue" stroke="midnightblue" points="1810.25,-90.6177 1799.75,-92.0183 1808.84,-97.4724 1810.25,-90.6177"/>
</g>
<!-- Node34&#45;&gt;Node14 -->
<g id="edge99" class="edge"><title>Node34&#45;&gt;Node14</title>
<path fill="none" stroke="midnightblue" d="M1504.2,-392.311C1551.86,-387.864 1650.69,-375.383 1728,-344 1751.53,-334.448 1754.03,-325.737 1776,-313 1795.74,-301.558 1818.68,-289.75 1836.05,-281.102"/>
<polygon fill="midnightblue" stroke="midnightblue" points="1837.65,-284.213 1845.07,-276.645 1834.55,-277.937 1837.65,-284.213"/>
</g>
<!-- Node34&#45;&gt;Node17 -->
<g id="edge100" class="edge"><title>Node34&#45;&gt;Node17</title>
<path fill="none" stroke="midnightblue" d="M1447.79,-394.316C1312.57,-393.225 729.978,-386.123 554,-344 482.201,-326.814 442.324,-338.842 402,-277 367.286,-223.762 360.62,-182.239 402,-134 420.365,-112.591 602.571,-94.3848 687.205,-87.0096"/>
<polygon fill="midnightblue" stroke="midnightblue" points="687.603,-90.4883 697.266,-86.1438 687.003,-83.5141 687.603,-90.4883"/>
</g>
<!-- Node34&#45;&gt;Node20 -->
<g id="edge101" class="edge"><title>Node34&#45;&gt;Node20</title>
<path fill="none" stroke="midnightblue" d="M1485.74,-385.997C1505.34,-368.163 1549.03,-324.546 1565,-277 1570.33,-261.125 1563.62,-242.887 1556.57,-229.778"/>
<polygon fill="midnightblue" stroke="midnightblue" points="1559.41,-227.704 1551.3,-220.877 1553.38,-231.267 1559.41,-227.704"/>
</g>
<!-- Node34&#45;&gt;Node21 -->
<g id="edge103" class="edge"><title>Node34&#45;&gt;Node21</title>
<path fill="none" stroke="midnightblue" d="M1504.03,-393.806C1607.89,-390.979 1970.43,-378.783 2080,-344 2141.11,-324.602 2299.55,-207.531 2355.27,-165.505"/>
<polygon fill="midnightblue" stroke="midnightblue" points="2357.72,-168.038 2363.58,-159.213 2353.5,-162.455 2357.72,-168.038"/>
</g>
<!-- Node34&#45;&gt;Node27 -->
<g id="edge102" class="edge"><title>Node34&#45;&gt;Node27</title>
<path fill="none" stroke="midnightblue" d="M1451.7,-385.869C1419.62,-374.473 1362.97,-354.353 1326.75,-341.487"/>
<polygon fill="midnightblue" stroke="midnightblue" points="1327.7,-338.113 1317.11,-338.064 1325.36,-344.709 1327.7,-338.113"/>
</g>
<!-- Node34&#45;&gt;Node29 -->
<g id="edge109" class="edge"><title>Node34&#45;&gt;Node29</title>
<path fill="none" stroke="midnightblue" d="M1478.89,-385.805C1485.66,-365.404 1502.69,-314.1 1511.89,-286.408"/>
<polygon fill="midnightblue" stroke="midnightblue" points="1515.26,-287.349 1515.09,-276.756 1508.62,-285.143 1515.26,-287.349"/>
</g>
<!-- Node34&#45;&gt;Node31 -->
<g id="edge108" class="edge"><title>Node34&#45;&gt;Node31</title>
<path fill="none" stroke="midnightblue" d="M1447.69,-390.819C1365,-380.07 1123.33,-348.653 1021.78,-335.452"/>
<polygon fill="midnightblue" stroke="midnightblue" points="1022.19,-331.976 1011.83,-334.158 1021.29,-338.918 1022.19,-331.976"/>
</g>
<!-- Node34&#45;&gt;Node33 -->
<g id="edge110" class="edge"><title>Node34&#45;&gt;Node33</title>
<path fill="none" stroke="midnightblue" d="M1447.76,-392.857C1306.14,-384.326 678.064,-342.94 625,-277 587.297,-230.149 692.245,-217.048 757.777,-213.398"/>
<polygon fill="midnightblue" stroke="midnightblue" points="758.116,-216.886 767.928,-212.89 757.765,-209.894 758.116,-216.886"/>
</g>
<!-- Node34&#45;&gt;Node35 -->
<g id="edge92" class="edge"><title>Node34&#45;&gt;Node35</title>
<path fill="none" stroke="midnightblue" d="M1464,-385.734C1449.45,-375.111 1424.72,-357.049 1407.22,-344.264"/>
<polygon fill="midnightblue" stroke="midnightblue" points="1408.95,-341.199 1398.81,-338.127 1404.82,-346.852 1408.95,-341.199"/>
</g>
<!-- Node34&#45;&gt;Node36 -->
<g id="edge104" class="edge"><title>Node34&#45;&gt;Node36</title>
<path fill="none" stroke="midnightblue" d="M1447.7,-393.427C1332.03,-388.953 883.87,-370.761 516,-344 489.776,-342.092 461.112,-339.558 435.592,-337.142"/>
<polygon fill="midnightblue" stroke="midnightblue" points="435.895,-333.655 425.608,-336.188 435.229,-340.623 435.895,-333.655"/>
</g>
<!-- Node35&#45;&gt;Node3 -->
<g id="edge93" class="edge"><title>Node35&#45;&gt;Node3</title>
<path fill="none" stroke="midnightblue" d="M1383.43,-318.959C1377.6,-305.396 1365.38,-278.291 1352,-257 1341.22,-239.836 1331.78,-239.717 1324,-221 1317.12,-204.458 1315.15,-184.003 1314.73,-169.394"/>
<polygon fill="midnightblue" stroke="midnightblue" points="1318.23,-169.095 1314.67,-159.118 1311.23,-169.141 1318.23,-169.095"/>
</g>
<!-- Node35&#45;&gt;Node4 -->
<g id="edge94" class="edge"><title>Node35&#45;&gt;Node4</title>
<path fill="none" stroke="midnightblue" d="M1376.08,-318.899C1363.81,-309.11 1343.48,-292.469 1327,-277 1233.54,-189.27 1130.19,-75.1082 1092.64,-33.0165"/>
<polygon fill="midnightblue" stroke="midnightblue" points="1095.1,-30.5198 1085.84,-25.3754 1089.87,-35.1729 1095.1,-30.5198"/>
</g>
<!-- Node35&#45;&gt;Node7 -->
<g id="edge95" class="edge"><title>Node35&#45;&gt;Node7</title>
<path fill="none" stroke="midnightblue" d="M1424.45,-326.495C1564.81,-322.514 2054.96,-306.603 2118,-277 2154.14,-260.031 2180,-251.923 2180,-212 2180,-212 2180,-212 2180,-148.5 2180,-111.306 2171.44,-91.9762 2199,-67 2250.07,-20.7215 2465.55,-16.177 2549.41,-16.2036"/>
<polygon fill="midnightblue" stroke="midnightblue" points="2549.42,-19.7035 2559.43,-16.2292 2549.43,-12.7035 2549.42,-19.7035"/>
</g>
<!-- Node35&#45;&gt;Node11 -->
<g id="edge96" class="edge"><title>Node35&#45;&gt;Node11</title>
<path fill="none" stroke="midnightblue" d="M1379.4,-318.972C1350.25,-285.797 1248.59,-165.618 1277,-134 1290.08,-119.445 1544.1,-98.6156 1673.53,-88.889"/>
<polygon fill="midnightblue" stroke="midnightblue" points="1674.06,-92.3597 1683.77,-88.1235 1673.53,-85.3792 1674.06,-92.3597"/>
</g>
<!-- Node35&#45;&gt;Node17 -->
<g id="edge97" class="edge"><title>Node35&#45;&gt;Node17</title>
<path fill="none" stroke="midnightblue" d="M1362.35,-318.906C1355.22,-316.688 1347.36,-314.505 1340,-313 1211.93,-286.824 850.265,-314.586 759,-221 727.573,-188.773 726.383,-131.575 728.169,-102.141"/>
<polygon fill="midnightblue" stroke="midnightblue" points="731.671,-102.257 728.974,-92.0109 724.693,-101.702 731.671,-102.257"/>
</g>
<!-- Node35&#45;&gt;Node29 -->
<g id="edge98" class="edge"><title>Node35&#45;&gt;Node29</title>
<path fill="none" stroke="midnightblue" d="M1405.77,-318.975C1427.85,-308.945 1464.72,-292.2 1490.14,-280.655"/>
<polygon fill="midnightblue" stroke="midnightblue" points="1491.61,-283.831 1499.27,-276.509 1488.71,-277.458 1491.61,-283.831"/>
</g>
<!-- Node36&#45;&gt;Node4 -->
<g id="edge105" class="edge"><title>Node36&#45;&gt;Node4</title>
<path fill="none" stroke="midnightblue" d="M357.467,-318.895C352.085,-299.826 340,-252.497 340,-212 340,-212 340,-212 340,-148.5 340,-75.7178 903.382,-29.3509 1045.67,-18.8013"/>
<polygon fill="midnightblue" stroke="midnightblue" points="1046.2,-22.272 1055.91,-18.0499 1045.68,-15.2908 1046.2,-22.272"/>
</g>
<!-- Node36&#45;&gt;Node5 -->
<g id="edge106" class="edge"><title>Node36&#45;&gt;Node5</title>
<path fill="none" stroke="midnightblue" d="M346.389,-318.975C330.939,-309.299 305.51,-293.372 287.184,-281.894"/>
<polygon fill="midnightblue" stroke="midnightblue" points="288.919,-278.851 278.586,-276.509 285.203,-284.783 288.919,-278.851"/>
</g>
<!-- Node36&#45;&gt;Node21 -->
<g id="edge107" class="edge"><title>Node36&#45;&gt;Node21</title>
<path fill="none" stroke="midnightblue" d="M425.878,-325.777C711.748,-318.248 1833.79,-288.107 1908,-277 2074.16,-252.13 2265.76,-188.899 2341.61,-162.434"/>
<polygon fill="midnightblue" stroke="midnightblue" points="2342.84,-165.712 2351.11,-159.098 2340.52,-159.107 2342.84,-165.712"/>
</g>
<!-- Node37&#45;&gt;Node4 -->
<g id="edge114" class="edge"><title>Node37&#45;&gt;Node4</title>
<path fill="none" stroke="midnightblue" d="M148.114,-72.9605C155.347,-70.6297 163.419,-68.3714 171,-67 470.558,-12.808 551.105,-48.8766 855,-31 922.838,-27.0094 1002.24,-21.6916 1045.62,-18.7309"/>
<polygon fill="midnightblue" stroke="midnightblue" points="1046.11,-22.2059 1055.85,-18.0312 1045.63,-15.2222 1046.11,-22.2059"/>
</g>
<!-- Node37&#45;&gt;Node18 -->
<g id="edge113" class="edge"><title>Node37&#45;&gt;Node18</title>
<path fill="none" stroke="midnightblue" d="M148.119,-72.9871C155.352,-70.6574 163.423,-68.393 171,-67 441.161,-17.3309 520.589,-93.8095 788,-31 790.514,-30.4094 793.079,-29.6461 795.615,-28.7789"/>
<polygon fill="midnightblue" stroke="midnightblue" points="797.059,-31.9723 805.093,-25.0659 794.506,-25.4546 797.059,-31.9723"/>
</g>
<!-- Node40&#45;&gt;Node4 -->
<g id="edge121" class="edge"><title>Node40&#45;&gt;Node4</title>
<path fill="none" stroke="midnightblue" d="M2798.2,-385.988C2781.51,-377.909 2759.24,-364.011 2749,-344 2742.72,-331.734 2742.69,-325.248 2749,-313 2783.77,-245.501 2921.63,-263.142 2878,-201 2827.63,-129.257 2593.06,-83.6379 2507,-67 2226.66,-12.8037 1296.25,-15.2312 1110.45,-16.2807"/>
<polygon fill="midnightblue" stroke="midnightblue" points="1110.22,-12.7819 1100.24,-16.3413 1110.26,-19.7818 1110.22,-12.7819"/>
</g>
<!-- Node40&#45;&gt;Node7 -->
<g id="edge122" class="edge"><title>Node40&#45;&gt;Node7</title>
<path fill="none" stroke="midnightblue" d="M2844.13,-393.769C2929.43,-390.984 3207.04,-379.349 3288,-344 3335.32,-323.339 3378.59,-306.816 3365,-257 3330.38,-130.071 3261.7,-111.818 3138,-67 3041.15,-31.9096 2721.43,-20.2553 2616.61,-17.3274"/>
<polygon fill="midnightblue" stroke="midnightblue" points="2616.68,-13.828 2606.59,-17.056 2616.49,-20.8255 2616.68,-13.828"/>
</g>
<!-- Node40&#45;&gt;Node17 -->
<g id="edge127" class="edge"><title>Node40&#45;&gt;Node17</title>
<path fill="none" stroke="midnightblue" d="M2793.7,-390.076C2772.9,-386.649 2742.64,-382.136 2716,-380 1925.04,-316.579 1719.41,-433.695 931,-344 786.625,-327.575 703.619,-388.962 611,-277 569.607,-226.963 597.02,-181.779 641,-134 656.471,-117.193 678.854,-104.529 697.303,-96.0862"/>
<polygon fill="midnightblue" stroke="midnightblue" points="698.769,-99.2649 706.534,-92.0565 695.969,-92.8495 698.769,-99.2649"/>
</g>
<!-- Node40&#45;&gt;Node20 -->
<g id="edge129" class="edge"><title>Node40&#45;&gt;Node20</title>
<path fill="none" stroke="midnightblue" d="M2793.61,-390.893C2772.76,-387.939 2742.47,-383.666 2716,-380 2497.4,-349.729 2443.3,-337.641 2224,-313 2043.98,-292.773 1996.81,-306.056 1818,-277 1732.34,-263.08 1633.71,-237.062 1581.64,-222.521"/>
<polygon fill="midnightblue" stroke="midnightblue" points="1582.43,-219.109 1571.86,-219.773 1580.54,-225.848 1582.43,-219.109"/>
</g>
<!-- Node40&#45;&gt;Node25 -->
<g id="edge128" class="edge"><title>Node40&#45;&gt;Node25</title>
<path fill="none" stroke="midnightblue" d="M2844.12,-393.513C2944.85,-389.373 3316.23,-372.299 3360,-344 3440.73,-291.803 3427.29,-152.689 3419.38,-102.167"/>
<polygon fill="midnightblue" stroke="midnightblue" points="3422.78,-101.336 3417.67,-92.056 3415.88,-102.498 3422.78,-101.336"/>
</g>
<!-- Node40&#45;&gt;Node27 -->
<g id="edge130" class="edge"><title>Node40&#45;&gt;Node27</title>
<path fill="none" stroke="midnightblue" d="M2793.69,-390.119C2772.9,-386.716 2742.63,-382.216 2716,-380 2411.39,-354.654 1642.77,-392.628 1341,-344 1336.2,-343.227 1331.22,-342.102 1326.35,-340.815"/>
<polygon fill="midnightblue" stroke="midnightblue" points="1327.21,-337.42 1316.63,-338.007 1325.27,-344.145 1327.21,-337.42"/>
</g>
<!-- Node40&#45;&gt;Node29 -->
<g id="edge131" class="edge"><title>Node40&#45;&gt;Node29</title>
<path fill="none" stroke="midnightblue" d="M2793.65,-390.595C2772.82,-387.468 2742.54,-383.108 2716,-380 2270.12,-327.802 1728.59,-284.313 1566.23,-271.696"/>
<polygon fill="midnightblue" stroke="midnightblue" points="1566.33,-268.194 1556.09,-270.91 1565.79,-275.173 1566.33,-268.194"/>
</g>
<!-- Node40&#45;&gt;Node33 -->
<g id="edge132" class="edge"><title>Node40&#45;&gt;Node33</title>
<path fill="none" stroke="midnightblue" d="M2793.69,-390.107C2772.9,-386.697 2742.64,-382.193 2716,-380 2390.12,-353.164 1569.04,-387.778 1245,-344 1122.9,-327.505 1093.53,-313.958 976,-277 925.874,-261.238 869.135,-238.526 835.527,-224.544"/>
<polygon fill="midnightblue" stroke="midnightblue" points="836.449,-221.135 825.873,-220.502 833.745,-227.592 836.449,-221.135"/>
</g>
<!-- Node41 -->
<g id="node41" class="node"><title>Node41</title>
<polygon fill="white" stroke="#bfbfbf" points="2758,-313.5 2758,-343.5 2880,-343.5 2880,-313.5 2758,-313.5"/>
<text text-anchor="start" x="2766" y="-331.5" font-family="Helvetica,sans-Serif" font-size="10.00">boost/algorithm/string</text>
<text text-anchor="middle" x="2819" y="-320.5" font-family="Helvetica,sans-Serif" font-size="10.00">/join.hpp</text>
</g>
<!-- Node40&#45;&gt;Node41 -->
<g id="edge123" class="edge"><title>Node40&#45;&gt;Node41</title>
<path fill="none" stroke="midnightblue" d="M2819,-385.734C2819,-377.541 2819,-364.923 2819,-353.714"/>
<polygon fill="midnightblue" stroke="midnightblue" points="2822.5,-353.589 2819,-343.589 2815.5,-353.589 2822.5,-353.589"/>
</g>
<!-- Node42 -->
<g id="node42" class="node"><title>Node42</title>
<polygon fill="white" stroke="#bfbfbf" points="2898.5,-313.5 2898.5,-343.5 3013.5,-343.5 3013.5,-313.5 2898.5,-313.5"/>
<text text-anchor="start" x="2906.5" y="-331.5" font-family="Helvetica,sans-Serif" font-size="10.00">boost/range/adaptor</text>
<text text-anchor="middle" x="2956" y="-320.5" font-family="Helvetica,sans-Serif" font-size="10.00">/filtered.hpp</text>
</g>
<!-- Node40&#45;&gt;Node42 -->
<g id="edge124" class="edge"><title>Node40&#45;&gt;Node42</title>
<path fill="none" stroke="midnightblue" d="M2837.19,-385.869C2857.48,-376.242 2890.9,-360.388 2917.13,-347.942"/>
<polygon fill="midnightblue" stroke="midnightblue" points="2918.9,-350.977 2926.43,-343.528 2915.9,-344.653 2918.9,-350.977"/>
</g>
<!-- Node43 -->
<g id="node43" class="node"><title>Node43</title>
<polygon fill="white" stroke="#bfbfbf" points="3031.5,-313.5 3031.5,-343.5 3146.5,-343.5 3146.5,-313.5 3031.5,-313.5"/>
<text text-anchor="start" x="3039.5" y="-331.5" font-family="Helvetica,sans-Serif" font-size="10.00">boost/range/adaptor</text>
<text text-anchor="middle" x="3089" y="-320.5" font-family="Helvetica,sans-Serif" font-size="10.00">/reversed.hpp</text>
</g>
<!-- Node40&#45;&gt;Node43 -->
<g id="edge125" class="edge"><title>Node40&#45;&gt;Node43</title>
<path fill="none" stroke="midnightblue" d="M2844.4,-388.385C2884.61,-378.705 2964.24,-359.535 3021.74,-345.692"/>
<polygon fill="midnightblue" stroke="midnightblue" points="3022.58,-349.089 3031.49,-343.346 3020.95,-342.284 3022.58,-349.089"/>
</g>
<!-- Node44 -->
<g id="node44" class="node"><title>Node44</title>
<polygon fill="white" stroke="#bfbfbf" points="3164.5,-313.5 3164.5,-343.5 3279.5,-343.5 3279.5,-313.5 3164.5,-313.5"/>
<text text-anchor="start" x="3172.5" y="-331.5" font-family="Helvetica,sans-Serif" font-size="10.00">boost/range/adaptor</text>
<text text-anchor="middle" x="3222" y="-320.5" font-family="Helvetica,sans-Serif" font-size="10.00">/transformed.hpp</text>
</g>
<!-- Node40&#45;&gt;Node44 -->
<g id="edge126" class="edge"><title>Node40&#45;&gt;Node44</title>
<path fill="none" stroke="midnightblue" d="M2844.38,-391.25C2899.07,-384.126 3032.26,-366.132 3154.41,-344.036"/>
<polygon fill="midnightblue" stroke="midnightblue" points="3155.09,-347.468 3164.3,-342.232 3153.84,-340.582 3155.09,-347.468"/>
</g>
<!-- Node45&#45;&gt;Node4 -->
<g id="edge134" class="edge"><title>Node45&#45;&gt;Node4</title>
<path fill="none" stroke="midnightblue" d="M68.2079,-447.267C59.5736,-418.726 35.4385,-326.079 62,-257 88.4273,-188.27 111.933,-175.147 173,-134 245.175,-85.3685 271.874,-85.1056 357,-67 374.085,-63.3663 907.16,-27.8323 1045.48,-18.6544"/>
<polygon fill="midnightblue" stroke="midnightblue" points="1046.08,-22.1221 1055.83,-17.9679 1045.62,-15.1375 1046.08,-22.1221"/>
</g>
<!-- Node46&#45;&gt;Node21 -->
<g id="edge138" class="edge"><title>Node46&#45;&gt;Node21</title>
<path fill="none" stroke="midnightblue" d="M2683.48,-257.406C2652.3,-244.478 2591.02,-219.565 2538,-201 2496.32,-186.404 2447.9,-171.682 2414.74,-161.931"/>
<polygon fill="midnightblue" stroke="midnightblue" points="2415.54,-158.518 2404.96,-159.07 2413.57,-165.237 2415.54,-158.518"/>
</g>
<!-- Node47 -->
<g id="node47" class="node"><title>Node47</title>
<polygon fill="white" stroke="#bfbfbf" points="2806.5,-201.5 2806.5,-220.5 2869.5,-220.5 2869.5,-201.5 2806.5,-201.5"/>
<text text-anchor="middle" x="2838" y="-208.5" font-family="Helvetica,sans-Serif" font-size="10.00">functional</text>
</g>
<!-- Node46&#45;&gt;Node47 -->
<g id="edge137" class="edge"><title>Node46&#45;&gt;Node47</title>
<path fill="none" stroke="midnightblue" d="M2725.23,-257.444C2747.38,-248.517 2782.32,-234.439 2807.44,-224.317"/>
<polygon fill="midnightblue" stroke="midnightblue" points="2808.9,-227.501 2816.87,-220.516 2806.28,-221.008 2808.9,-227.501"/>
</g>
<!-- Node48&#45;&gt;Node7 -->
<g id="edge140" class="edge"><title>Node48&#45;&gt;Node7</title>
<path fill="none" stroke="midnightblue" d="M3010.22,-201.436C2939.11,-170.656 2696.27,-65.5324 2612.05,-29.0735"/>
<polygon fill="midnightblue" stroke="midnightblue" points="2613.38,-25.8354 2602.81,-25.0747 2610.59,-32.2593 2613.38,-25.8354"/>
</g>
<!-- Node48&#45;&gt;Node21 -->
<g id="edge141" class="edge"><title>Node48&#45;&gt;Node21</title>
<path fill="none" stroke="midnightblue" d="M2963.66,-202.41C2959.04,-201.921 2954.45,-201.446 2950,-201 2755.23,-181.494 2522.91,-162.353 2423.75,-154.377"/>
<polygon fill="midnightblue" stroke="midnightblue" points="2423.98,-150.884 2413.73,-153.573 2423.42,-157.862 2423.98,-150.884"/>
</g>
<!-- Node49&#45;&gt;Node3 -->
<g id="edge143" class="edge"><title>Node49&#45;&gt;Node3</title>
<path fill="none" stroke="midnightblue" d="M2321.94,-206.233C2117.56,-194.921 1513.48,-161.486 1353.98,-152.658"/>
<polygon fill="midnightblue" stroke="midnightblue" points="1353.88,-149.147 1343.7,-152.089 1353.49,-156.136 1353.88,-149.147"/>
</g>
<!-- Node49&#45;&gt;Node21 -->
<g id="edge144" class="edge"><title>Node49&#45;&gt;Node21</title>
<path fill="none" stroke="midnightblue" d="M2387.85,-201.475C2385.71,-192.992 2382.36,-179.704 2379.62,-168.822"/>
<polygon fill="midnightblue" stroke="midnightblue" points="2382.98,-167.85 2377.15,-159.009 2376.2,-169.561 2382.98,-167.85"/>
</g>
<!-- Node50&#45;&gt;Node7 -->
<g id="edge148" class="edge"><title>Node50&#45;&gt;Node7</title>
<path fill="none" stroke="midnightblue" d="M3356.29,-263.874C3424.07,-260.119 3533.25,-249.731 3623,-221 3641.18,-215.182 3642.63,-206.189 3661,-201 3719.19,-184.561 4162.68,-209.147 4204,-165 4233.76,-133.199 4234.32,-98.2743 4204,-67 4189.68,-52.2219 2848.18,-22.2883 2616.8,-17.2329"/>
<polygon fill="midnightblue" stroke="midnightblue" points="2616.7,-13.7301 2606.63,-17.0111 2616.55,-20.7284 2616.7,-13.7301"/>
</g>
<!-- Node50&#45;&gt;Node21 -->
<g id="edge151" class="edge"><title>Node50&#45;&gt;Node21</title>
<path fill="none" stroke="midnightblue" d="M3286.71,-257.285C3277.24,-242.599 3255.85,-213.318 3229,-201 3155.82,-167.434 2593.92,-154.499 2423.71,-151.327"/>
<polygon fill="midnightblue" stroke="midnightblue" points="2423.6,-147.825 2413.54,-151.141 2423.48,-154.824 2423.6,-147.825"/>
</g>
<!-- Node50&#45;&gt;Node25 -->
<g id="edge150" class="edge"><title>Node50&#45;&gt;Node25</title>
<path fill="none" stroke="midnightblue" d="M3300.46,-257.431C3308.91,-248.658 3322.05,-234.439 3332,-221 3362.27,-180.139 3391.9,-127.979 3406.54,-101.168"/>
<polygon fill="midnightblue" stroke="midnightblue" points="3409.71,-102.671 3411.39,-92.2103 3403.55,-99.3397 3409.71,-102.671"/>
</g>
<!-- Node50&#45;&gt;Node30 -->
<g id="edge149" class="edge"><title>Node50&#45;&gt;Node30</title>
<path fill="none" stroke="midnightblue" d="M3227.75,-260.247C3114.23,-250.08 2878.98,-229.013 2760.49,-218.402"/>
<polygon fill="midnightblue" stroke="midnightblue" points="2760.71,-214.908 2750.43,-217.502 2760.08,-221.88 2760.71,-214.908"/>
</g>
<!-- Node50&#45;&gt;Node47 -->
<g id="edge147" class="edge"><title>Node50&#45;&gt;Node47</title>
<path fill="none" stroke="midnightblue" d="M3227.92,-258.378C3133.41,-247.137 2959.28,-226.426 2879.68,-216.958"/>
<polygon fill="midnightblue" stroke="midnightblue" points="2879.89,-213.458 2869.55,-215.752 2879.06,-220.409 2879.89,-213.458"/>
</g>
<!-- Node51 -->
<g id="node51" class="node"><title>Node51</title>
<polygon fill="white" stroke="#bfbfbf" points="3276.5,-201.5 3276.5,-220.5 3323.5,-220.5 3323.5,-201.5 3276.5,-201.5"/>
<text text-anchor="middle" x="3300" y="-208.5" font-family="Helvetica,sans-Serif" font-size="10.00">cmath</text>
</g>
<!-- Node50&#45;&gt;Node51 -->
<g id="edge146" class="edge"><title>Node50&#45;&gt;Node51</title>
<path fill="none" stroke="midnightblue" d="M3293.32,-257.083C3294.38,-249.927 3295.91,-239.635 3297.23,-230.691"/>
<polygon fill="midnightblue" stroke="midnightblue" points="3300.7,-231.156 3298.7,-220.751 3293.78,-230.13 3300.7,-231.156"/>
</g>
<!-- Node52&#45;&gt;Node3 -->
<g id="edge153" class="edge"><title>Node52&#45;&gt;Node3</title>
<path fill="none" stroke="midnightblue" d="M3455.96,-206.142C3418.41,-204.399 3372.9,-202.418 3332,-201 2534.54,-173.342 1559.21,-154.92 1354.01,-151.197"/>
<polygon fill="midnightblue" stroke="midnightblue" points="1353.8,-147.692 1343.74,-151.011 1353.67,-154.691 1353.8,-147.692"/>
</g>
<!-- Node52&#45;&gt;Node7 -->
<g id="edge154" class="edge"><title>Node52&#45;&gt;Node7</title>
<path fill="none" stroke="midnightblue" d="M3614.13,-202.171C3618.82,-201.76 3623.47,-201.366 3628,-201 3689.37,-196.034 4138.9,-209.932 4181,-165 4210.78,-133.217 4211.31,-98.2811 4181,-67 4166.89,-52.4359 2845.81,-22.3556 2616.68,-17.2456"/>
<polygon fill="midnightblue" stroke="midnightblue" points="2616.68,-13.7448 2606.61,-17.0213 2616.52,-20.743 2616.68,-13.7448"/>
</g>
<!-- Node52&#45;&gt;Node21 -->
<g id="edge156" class="edge"><title>Node52&#45;&gt;Node21</title>
<path fill="none" stroke="midnightblue" d="M3455.73,-205.934C3232.69,-194.494 2604.3,-162.262 2423.96,-153.011"/>
<polygon fill="midnightblue" stroke="midnightblue" points="2423.88,-149.503 2413.72,-152.486 2423.52,-156.494 2423.88,-149.503"/>
</g>
<!-- Node53 -->
<g id="node53" class="node"><title>Node53</title>
<polygon fill="white" stroke="#bfbfbf" points="3478.5,-134.5 3478.5,-164.5 3591.5,-164.5 3591.5,-134.5 3478.5,-134.5"/>
<text text-anchor="start" x="3486.5" y="-152.5" font-family="Helvetica,sans-Serif" font-size="10.00">boost/range/iterator</text>
<text text-anchor="middle" x="3535" y="-141.5" font-family="Helvetica,sans-Serif" font-size="10.00">_range.hpp</text>
</g>
<!-- Node52&#45;&gt;Node53 -->
<g id="edge155" class="edge"><title>Node52&#45;&gt;Node53</title>
<path fill="none" stroke="midnightblue" d="M3535,-201.475C3535,-194.471 3535,-184.192 3535,-174.696"/>
<polygon fill="midnightblue" stroke="midnightblue" points="3538.5,-174.523 3535,-164.523 3531.5,-174.523 3538.5,-174.523"/>
</g>
<!-- Node54&#45;&gt;Node6 -->
<g id="edge159" class="edge"><title>Node54&#45;&gt;Node6</title>
<path fill="none" stroke="midnightblue" d="M2651.59,-385.714C2637.88,-362.219 2604.95,-297.015 2635,-257 2671.31,-208.646 2797.96,-247.246 2759,-201 2728.64,-164.958 2596.1,-174.806 2550,-165 2493.7,-153.023 2329.11,-109.927 2260.06,-91.7155"/>
<polygon fill="midnightblue" stroke="midnightblue" points="2260.77,-88.2833 2250.21,-89.1151 2258.98,-95.0515 2260.77,-88.2833"/>
</g>
<!-- Node55&#45;&gt;Node11 -->
<g id="edge164" class="edge"><title>Node55&#45;&gt;Node11</title>
<path fill="none" stroke="midnightblue" d="M4116.26,-147.751C4036.2,-145.592 3797.86,-139.179 3600,-134 2977.34,-117.702 2821.61,-116.008 2199,-98 2066.3,-94.1618 1911.65,-89.051 1822.26,-86.0345"/>
<polygon fill="midnightblue" stroke="midnightblue" points="1822.34,-82.5351 1812.23,-85.6952 1822.1,-89.5311 1822.34,-82.5351"/>
</g>
<!-- Node55&#45;&gt;Node18 -->
<g id="edge161" class="edge"><title>Node55&#45;&gt;Node18</title>
<path fill="none" stroke="midnightblue" d="M4119.62,-139.926C4113.85,-137.942 4107.72,-135.867 4102,-134 4050.28,-117.12 4032.97,-123.672 3985,-98 3965.78,-87.7154 3967.49,-74.4401 3947,-67 3871.28,-39.5002 1127.5,-34.0915 1047,-31 979.608,-28.4119 901.013,-22.7396 856.82,-19.3069"/>
<polygon fill="midnightblue" stroke="midnightblue" points="856.859,-15.7993 846.616,-18.5064 856.312,-22.7778 856.859,-15.7993"/>
</g>
<!-- Node55&#45;&gt;Node23 -->
<g id="edge163" class="edge"><title>Node55&#45;&gt;Node23</title>
<path fill="none" stroke="midnightblue" d="M4120.58,-139.966C4114.56,-137.897 4108.07,-135.772 4102,-134 4036.19,-114.791 4017.81,-117.209 3952,-98 3949.06,-97.1415 3946.02,-96.2004 3942.98,-95.223"/>
<polygon fill="midnightblue" stroke="midnightblue" points="3944.01,-91.8765 3933.42,-92.0337 3941.8,-98.5171 3944.01,-91.8765"/>
</g>
<!-- Node56 -->
<g id="node56" class="node"><title>Node56</title>
<polygon fill="white" stroke="#bfbfbf" points="4122,-73 4122,-92 4172,-92 4172,-73 4122,-73"/>
<text text-anchor="middle" x="4147" y="-80" font-family="Helvetica,sans-Serif" font-size="10.00">chrono</text>
</g>
<!-- Node55&#45;&gt;Node56 -->
<g id="edge162" class="edge"><title>Node55&#45;&gt;Node56</title>
<path fill="none" stroke="midnightblue" d="M4144.4,-139.734C4144.85,-130.183 4145.56,-114.618 4146.13,-102.283"/>
<polygon fill="midnightblue" stroke="midnightblue" points="4149.64,-102.278 4146.6,-92.1273 4142.64,-101.955 4149.64,-102.278"/>
</g>
<!-- Node57 -->
<g id="node57" class="node"><title>Node57</title>
<polygon fill="white" stroke="#bfbfbf" points="3994,-67.5 3994,-97.5 4104,-97.5 4104,-67.5 3994,-67.5"/>
<text text-anchor="start" x="4002" y="-85.5" font-family="Helvetica,sans-Serif" font-size="10.00">boost/preprocessor</text>
<text text-anchor="middle" x="4049" y="-74.5" font-family="Helvetica,sans-Serif" font-size="10.00">/cat.hpp</text>
</g>
<!-- Node55&#45;&gt;Node57 -->
<g id="edge165" class="edge"><title>Node55&#45;&gt;Node57</title>
<path fill="none" stroke="midnightblue" d="M4131.19,-139.734C4117.61,-130.443 4095.71,-115.461 4077.93,-103.297"/>
<polygon fill="midnightblue" stroke="midnightblue" points="4079.82,-100.347 4069.59,-97.589 4075.87,-106.124 4079.82,-100.347"/>
</g>
<!-- Node58&#45;&gt;Node3 -->
<g id="edge167" class="edge"><title>Node58&#45;&gt;Node3</title>
<path fill="none" stroke="midnightblue" d="M3813.48,-265.492C3695.68,-262.625 3128.12,-247.627 2955,-221 2920.05,-215.625 2913,-206.046 2878,-201 2570.63,-156.677 1564.41,-151.243 1353.85,-150.588"/>
<polygon fill="midnightblue" stroke="midnightblue" points="1353.61,-147.087 1343.6,-150.558 1353.59,-154.087 1353.61,-147.087"/>
</g>
<!-- Node58&#45;&gt;Node4 -->
<g id="edge168" class="edge"><title>Node58&#45;&gt;Node4</title>
<path fill="none" stroke="midnightblue" d="M3834.78,-257.203C3834.05,-243.902 3831.05,-218.382 3819,-201 3788.94,-157.64 3769.16,-155.543 3721,-134 3607.35,-83.1647 3572.43,-83.3133 3449,-67 3206.94,-35.0076 1377.72,-18.9446 1110.53,-16.7591"/>
<polygon fill="midnightblue" stroke="midnightblue" points="1110.35,-13.2577 1100.32,-16.6762 1110.3,-20.2575 1110.35,-13.2577"/>
</g>
<!-- Node58&#45;&gt;Node13 -->
<g id="edge172" class="edge"><title>Node58&#45;&gt;Node13</title>
<path fill="none" stroke="midnightblue" d="M3817.97,-257.324C3800.97,-248.664 3774.62,-235.242 3755.01,-225.249"/>
<polygon fill="midnightblue" stroke="midnightblue" points="3756.49,-222.075 3745.99,-220.655 3753.31,-228.312 3756.49,-222.075"/>
</g>
<!-- Node58&#45;&gt;Node15 -->
<g id="edge169" class="edge"><title>Node58&#45;&gt;Node15</title>
<path fill="none" stroke="midnightblue" d="M3813.31,-264.53C3737.84,-259.36 3479.71,-241.238 3267,-221 3255.13,-219.87 3242.29,-218.508 3230.41,-217.19"/>
<polygon fill="midnightblue" stroke="midnightblue" points="3230.59,-213.689 3220.26,-216.05 3229.81,-220.645 3230.59,-213.689"/>
</g>
<!-- Node58&#45;&gt;Node25 -->
<g id="edge175" class="edge"><title>Node58&#45;&gt;Node25</title>
<path fill="none" stroke="midnightblue" d="M3831.95,-257.08C3826.74,-243.142 3814.83,-216.224 3796,-201 3690.27,-115.52 3522.39,-92.0224 3450.51,-85.7285"/>
<polygon fill="midnightblue" stroke="midnightblue" points="3450.47,-82.2138 3440.22,-84.8891 3449.9,-89.1906 3450.47,-82.2138"/>
</g>
<!-- Node59 -->
<g id="node59" class="node"><title>Node59</title>
<polygon fill="white" stroke="#bfbfbf" points="3882.5,-201.5 3882.5,-220.5 4025.5,-220.5 4025.5,-201.5 3882.5,-201.5"/>
<text text-anchor="middle" x="3954" y="-208.5" font-family="Helvetica,sans-Serif" font-size="10.00">boost/algorithm/string.hpp</text>
</g>
<!-- Node58&#45;&gt;Node59 -->
<g id="edge170" class="edge"><title>Node58&#45;&gt;Node59</title>
<path fill="none" stroke="midnightblue" d="M3853.86,-257.444C3873.27,-248.636 3903.73,-234.812 3925.96,-224.722"/>
<polygon fill="midnightblue" stroke="midnightblue" points="3927.57,-227.836 3935.23,-220.516 3924.68,-221.462 3927.57,-227.836"/>
</g>
<!-- Node60 -->
<g id="node60" class="node"><title>Node60</title>
<polygon fill="white" stroke="#bfbfbf" points="4044,-201.5 4044,-220.5 4166,-220.5 4166,-201.5 4044,-201.5"/>
<text text-anchor="middle" x="4105" y="-208.5" font-family="Helvetica,sans-Serif" font-size="10.00">boost/lexical_cast.hpp</text>
</g>
<!-- Node58&#45;&gt;Node60 -->
<g id="edge171" class="edge"><title>Node58&#45;&gt;Node60</title>
<path fill="none" stroke="midnightblue" d="M3856.64,-261.672C3898.75,-253.25 3992.8,-234.44 4052.32,-222.536"/>
<polygon fill="midnightblue" stroke="midnightblue" points="4053.17,-225.936 4062.29,-220.542 4051.8,-219.072 4053.17,-225.936"/>
</g>
<!-- Node61 -->
<g id="node61" class="node"><title>Node61</title>
<polygon fill="white" stroke="#bfbfbf" points="4184,-201.5 4184,-220.5 4270,-220.5 4270,-201.5 4184,-201.5"/>
<text text-anchor="middle" x="4227" y="-208.5" font-family="Helvetica,sans-Serif" font-size="10.00">libxml/parser.h</text>
</g>
<!-- Node58&#45;&gt;Node61 -->
<g id="edge173" class="edge"><title>Node58&#45;&gt;Node61</title>
<path fill="none" stroke="midnightblue" d="M3856.52,-263.453C3908.9,-257.192 4047.36,-240.255 4173.66,-221.154"/>
<polygon fill="midnightblue" stroke="midnightblue" points="4174.53,-224.561 4183.89,-219.597 4173.48,-217.641 4174.53,-224.561"/>
</g>
<!-- Node62 -->
<g id="node62" class="node"><title>Node62</title>
<polygon fill="white" stroke="#bfbfbf" points="4288.5,-201.5 4288.5,-220.5 4383.5,-220.5 4383.5,-201.5 4288.5,-201.5"/>
<text text-anchor="middle" x="4336" y="-208.5" font-family="Helvetica,sans-Serif" font-size="10.00">libxml/xinclude.h</text>
</g>
<!-- Node58&#45;&gt;Node62 -->
<g id="edge174" class="edge"><title>Node58&#45;&gt;Node62</title>
<path fill="none" stroke="midnightblue" d="M3856.76,-264.226C3920.05,-258.977 4109.66,-242.605 4278.39,-221.008"/>
<polygon fill="midnightblue" stroke="midnightblue" points="4278.97,-224.462 4288.44,-219.712 4278.08,-217.519 4278.97,-224.462"/>
</g>
</g>
</svg>
