<?xml version="1.0" encoding="UTF-8" standalone="no"?>
<!DOCTYPE svg PUBLIC "-//W3C//DTD SVG 1.1//EN"
 "http://www.w3.org/Graphics/SVG/1.1/DTD/svg11.dtd">
<!-- Generated by graphviz version 2.38.0 (20140413.2041)
 -->
<!-- Title: instruction.h Pages: 1 -->
<svg width="810pt" height="308pt"
 viewBox="0.00 0.00 809.79 308.00" xmlns="http://www.w3.org/2000/svg" xmlns:xlink="http://www.w3.org/1999/xlink">
<g id="graph0" class="graph" transform="scale(1 1) rotate(0) translate(4 304)">
<title>instruction.h</title>
<polygon fill="white" stroke="none" points="-4,4 -4,-304 805.789,-304 805.789,4 -4,4"/>
<!-- Node1 -->
<g id="node1" class="node"><title>Node1</title>
<polygon fill="#bfbfbf" stroke="black" points="438.687,-280.5 438.687,-299.5 514.687,-299.5 514.687,-280.5 438.687,-280.5"/>
<text text-anchor="middle" x="476.687" y="-287.5" font-family="Helvetica,sans-Serif" font-size="10.00">instruction.h</text>
</g>
<!-- Node2 -->
<g id="node2" class="node"><title>Node2</title>
<g id="a_node2"><a xlink:href="alignment_8h.xhtml" target="_top" xlink:title="Mission and phase constructs. ">
<polygon fill="white" stroke="black" points="251.687,-224.5 251.687,-243.5 325.687,-243.5 325.687,-224.5 251.687,-224.5"/>
<text text-anchor="middle" x="288.687" y="-231.5" font-family="Helvetica,sans-Serif" font-size="10.00">alignment.h</text>
</a>
</g>
</g>
<!-- Node1&#45;&gt;Node2 -->
<g id="edge1" class="edge"><title>Node1&#45;&gt;Node2</title>
<path fill="none" stroke="midnightblue" d="M436.886,-277.568C401.421,-267.381 350.321,-252.703 318.337,-243.516"/>
<polygon fill="midnightblue" stroke="midnightblue" points="436.32,-281.047 446.898,-280.444 438.253,-274.319 436.32,-281.047"/>
</g>
<!-- Node4 -->
<g id="node4" class="node"><title>Node4</title>
<g id="a_node4"><a xlink:href="model_8h.xhtml" target="_top" xlink:title="Representation for a model container for risk analysis. ">
<polygon fill="white" stroke="black" points="307.687,-168.5 307.687,-187.5 363.687,-187.5 363.687,-168.5 307.687,-168.5"/>
<text text-anchor="middle" x="335.687" y="-175.5" font-family="Helvetica,sans-Serif" font-size="10.00">model.h</text>
</a>
</g>
</g>
<!-- Node1&#45;&gt;Node4 -->
<g id="edge32" class="edge"><title>Node1&#45;&gt;Node4</title>
<path fill="none" stroke="midnightblue" d="M437.377,-277.037C417.902,-269.725 394.929,-258.877 377.687,-244 358.969,-227.851 345.461,-201.337 339.343,-187.7"/>
<polygon fill="midnightblue" stroke="midnightblue" points="436.309,-280.373 446.904,-280.444 438.666,-273.781 436.309,-280.373"/>
</g>
<!-- Node5 -->
<g id="node5" class="node"><title>Node5</title>
<g id="a_node5"><a xlink:href="initializer_8h.xhtml" target="_top" xlink:title="A facility that processes input files into analysis constructs. ">
<polygon fill="white" stroke="black" points="373.187,-112.5 373.187,-131.5 440.187,-131.5 440.187,-112.5 373.187,-112.5"/>
<text text-anchor="middle" x="406.687" y="-119.5" font-family="Helvetica,sans-Serif" font-size="10.00">initializer.h</text>
</a>
</g>
</g>
<!-- Node1&#45;&gt;Node5 -->
<g id="edge31" class="edge"><title>Node1&#45;&gt;Node5</title>
<path fill="none" stroke="midnightblue" d="M469.036,-270.856C454.022,-235.252 421.215,-157.453 410.3,-131.568"/>
<polygon fill="midnightblue" stroke="midnightblue" points="465.813,-272.221 472.923,-280.075 472.263,-269.501 465.813,-272.221"/>
</g>
<!-- Node15 -->
<g id="node15" class="node"><title>Node15</title>
<g id="a_node15"><a xlink:href="event__tree_8h.xhtml" target="_top" xlink:title="Event Tree facilities. ">
<polygon fill="white" stroke="black" points="524.187,-224.5 524.187,-243.5 601.187,-243.5 601.187,-224.5 524.187,-224.5"/>
<text text-anchor="middle" x="562.687" y="-231.5" font-family="Helvetica,sans-Serif" font-size="10.00">event_tree.h</text>
</a>
</g>
</g>
<!-- Node1&#45;&gt;Node15 -->
<g id="edge20" class="edge"><title>Node1&#45;&gt;Node15</title>
<path fill="none" stroke="midnightblue" d="M499.142,-274.901C514.911,-264.999 535.5,-252.071 548.904,-243.655"/>
<polygon fill="midnightblue" stroke="midnightblue" points="497.112,-272.042 490.504,-280.324 500.834,-277.97 497.112,-272.042"/>
</g>
<!-- Node16 -->
<g id="node16" class="node"><title>Node16</title>
<g id="a_node16"><a xlink:href="cycle_8h.xhtml" target="_top" xlink:title="Validation facilities to detect and print cycles in graphs. ">
<polygon fill="white" stroke="black" points="735.687,-168.5 735.687,-187.5 785.687,-187.5 785.687,-168.5 735.687,-168.5"/>
<text text-anchor="middle" x="760.687" y="-175.5" font-family="Helvetica,sans-Serif" font-size="10.00">cycle.h</text>
</a>
</g>
</g>
<!-- Node1&#45;&gt;Node16 -->
<g id="edge29" class="edge"><title>Node1&#45;&gt;Node16</title>
<path fill="none" stroke="midnightblue" d="M513.671,-277.368C540.516,-268.711 577.6,-256.311 609.687,-244 657.917,-225.494 713.431,-200.664 741.819,-187.703"/>
<polygon fill="midnightblue" stroke="midnightblue" points="512.37,-274.109 503.915,-280.494 514.506,-280.775 512.37,-274.109"/>
</g>
<!-- Node19 -->
<g id="node19" class="node"><title>Node19</title>
<g id="a_node19"><a xlink:href="event__tree__analysis_8cc.xhtml" target="_top" xlink:title="Implementation of event tree analysis facilities. ">
<polygon fill="white" stroke="black" points="552.187,-112.5 552.187,-131.5 677.187,-131.5 677.187,-112.5 552.187,-112.5"/>
<text text-anchor="middle" x="614.687" y="-119.5" font-family="Helvetica,sans-Serif" font-size="10.00">event_tree_analysis.cc</text>
</a>
</g>
</g>
<!-- Node1&#45;&gt;Node19 -->
<g id="edge30" class="edge"><title>Node1&#45;&gt;Node19</title>
<path fill="none" stroke="midnightblue" d="M524.659,-281.055C605.635,-266.53 763.677,-232.997 794.687,-188 825.984,-142.586 741.008,-128.738 677.391,-124.614"/>
<polygon fill="midnightblue" stroke="midnightblue" points="523.946,-277.627 514.708,-282.814 525.165,-284.52 523.946,-277.627"/>
</g>
<!-- Node3 -->
<g id="node3" class="node"><title>Node3</title>
<g id="a_node3"><a xlink:href="alignment_8cc.xhtml" target="_top" xlink:title="Implementation of alignment and phase classes. ">
<polygon fill="white" stroke="black" points="211.687,-168.5 211.687,-187.5 289.687,-187.5 289.687,-168.5 211.687,-168.5"/>
<text text-anchor="middle" x="250.687" y="-175.5" font-family="Helvetica,sans-Serif" font-size="10.00">alignment.cc</text>
</a>
</g>
</g>
<!-- Node2&#45;&gt;Node3 -->
<g id="edge2" class="edge"><title>Node2&#45;&gt;Node3</title>
<path fill="none" stroke="midnightblue" d="M276.622,-215.855C270.042,-206.505 262.176,-195.327 256.845,-187.751"/>
<polygon fill="midnightblue" stroke="midnightblue" points="273.795,-217.919 282.412,-224.083 279.519,-213.891 273.795,-217.919"/>
</g>
<!-- Node2&#45;&gt;Node4 -->
<g id="edge3" class="edge"><title>Node2&#45;&gt;Node4</title>
<path fill="none" stroke="midnightblue" d="M303.108,-216.431C311.345,-206.967 321.341,-195.483 328.07,-187.751"/>
<polygon fill="midnightblue" stroke="midnightblue" points="300.373,-214.242 296.448,-224.083 305.653,-218.838 300.373,-214.242"/>
</g>
<!-- Node6 -->
<g id="node6" class="node"><title>Node6</title>
<g id="a_node6"><a xlink:href="initializer_8cc.xhtml" target="_top" xlink:title="Implementation of input file processing into analysis constructs. ">
<polygon fill="white" stroke="black" points="433.187,-56.5 433.187,-75.5 504.187,-75.5 504.187,-56.5 433.187,-56.5"/>
<text text-anchor="middle" x="468.687" y="-63.5" font-family="Helvetica,sans-Serif" font-size="10.00">initializer.cc</text>
</a>
</g>
</g>
<!-- Node2&#45;&gt;Node6 -->
<g id="edge18" class="edge"><title>Node2&#45;&gt;Node6</title>
<path fill="none" stroke="midnightblue" d="M322.612,-220.733C359.437,-205.628 417.189,-176.389 448.687,-132 461.122,-114.475 465.985,-89.0155 467.757,-75.7608"/>
<polygon fill="midnightblue" stroke="midnightblue" points="321.274,-217.498 313.275,-224.445 323.86,-224.003 321.274,-217.498"/>
</g>
<!-- Node11 -->
<g id="node11" class="node"><title>Node11</title>
<g id="a_node11"><a xlink:href="risk__analysis_8h.xhtml" target="_top" xlink:title="Contains the main system for performing analysis. ">
<polygon fill="white" stroke="black" points="152.687,-112.5 152.687,-131.5 238.687,-131.5 238.687,-112.5 152.687,-112.5"/>
<text text-anchor="middle" x="195.687" y="-119.5" font-family="Helvetica,sans-Serif" font-size="10.00">risk_analysis.h</text>
</a>
</g>
</g>
<!-- Node2&#45;&gt;Node11 -->
<g id="edge19" class="edge"><title>Node2&#45;&gt;Node11</title>
<path fill="none" stroke="midnightblue" d="M247.013,-220.798C230.577,-213.847 213.155,-203.367 202.687,-188 191.057,-170.928 192.425,-145.277 194.188,-131.874"/>
<polygon fill="midnightblue" stroke="midnightblue" points="245.927,-224.132 256.516,-224.494 248.464,-217.608 245.927,-224.132"/>
</g>
<!-- Node4&#45;&gt;Node5 -->
<g id="edge4" class="edge"><title>Node4&#45;&gt;Node5</title>
<path fill="none" stroke="midnightblue" d="M355.277,-162.101C368.054,-152.382 384.3,-140.027 395.072,-131.834"/>
<polygon fill="midnightblue" stroke="midnightblue" points="352.935,-159.484 347.094,-168.324 357.172,-165.056 352.935,-159.484"/>
</g>
<!-- Node8 -->
<g id="node8" class="node"><title>Node8</title>
<g id="a_node8"><a xlink:href="model_8cc.xhtml" target="_top" xlink:title="Implementation of functions in Model class. ">
<polygon fill="white" stroke="black" points="294.687,-112.5 294.687,-131.5 354.687,-131.5 354.687,-112.5 294.687,-112.5"/>
<text text-anchor="middle" x="324.687" y="-119.5" font-family="Helvetica,sans-Serif" font-size="10.00">model.cc</text>
</a>
</g>
</g>
<!-- Node4&#45;&gt;Node8 -->
<g id="edge7" class="edge"><title>Node4&#45;&gt;Node8</title>
<path fill="none" stroke="midnightblue" d="M331.837,-158.101C330.011,-149.136 327.917,-138.858 326.469,-131.751"/>
<polygon fill="midnightblue" stroke="midnightblue" points="328.445,-158.983 333.87,-168.083 335.304,-157.586 328.445,-158.983"/>
</g>
<!-- Node9 -->
<g id="node9" class="node"><title>Node9</title>
<g id="a_node9"><a xlink:href="reporter_8h.xhtml" target="_top" xlink:title="Reporter of results. ">
<polygon fill="white" stroke="black" points="265.687,-56.5 265.687,-75.5 329.687,-75.5 329.687,-56.5 265.687,-56.5"/>
<text text-anchor="middle" x="297.687" y="-63.5" font-family="Helvetica,sans-Serif" font-size="10.00">reporter.h</text>
</a>
</g>
</g>
<!-- Node4&#45;&gt;Node9 -->
<g id="edge8" class="edge"><title>Node4&#45;&gt;Node9</title>
<path fill="none" stroke="midnightblue" d="M312.438,-162.683C302.202,-154.988 291.255,-144.502 285.687,-132 277.283,-113.131 286.63,-88.6615 292.92,-75.7958"/>
<polygon fill="midnightblue" stroke="midnightblue" points="310.531,-165.621 320.734,-168.474 314.538,-159.881 310.531,-165.621"/>
</g>
<!-- Node4&#45;&gt;Node11 -->
<g id="edge11" class="edge"><title>Node4&#45;&gt;Node11</title>
<path fill="none" stroke="midnightblue" d="M303.985,-164.772C277.687,-154.629 240.971,-140.467 217.766,-131.516"/>
<polygon fill="midnightblue" stroke="midnightblue" points="302.914,-168.11 313.503,-168.444 305.433,-161.579 302.914,-168.11"/>
</g>
<!-- Node13 -->
<g id="node13" class="node"><title>Node13</title>
<g id="a_node13"><a xlink:href="serialization_8h.xhtml" target="_top" xlink:title="The MEF Model serialization facilities. ">
<polygon fill="white" stroke="black" points="16.1868,-112.5 16.1868,-131.5 99.1868,-131.5 99.1868,-112.5 16.1868,-112.5"/>
<text text-anchor="middle" x="57.6868" y="-119.5" font-family="Helvetica,sans-Serif" font-size="10.00">serialization.h</text>
</a>
</g>
</g>
<!-- Node4&#45;&gt;Node13 -->
<g id="edge15" class="edge"><title>Node4&#45;&gt;Node13</title>
<path fill="none" stroke="midnightblue" d="M297.313,-167.793C222.027,-151.78 145.252,-138.024 99.1881,-130.047"/>
<polygon fill="midnightblue" stroke="midnightblue" points="296.93,-171.29 307.441,-169.963 298.396,-164.446 296.93,-171.29"/>
</g>
<!-- Node5&#45;&gt;Node6 -->
<g id="edge5" class="edge"><title>Node5&#45;&gt;Node6</title>
<path fill="none" stroke="midnightblue" d="M424.44,-105.537C435.495,-95.9087 449.318,-83.8694 458.544,-75.8339"/>
<polygon fill="midnightblue" stroke="midnightblue" points="421.89,-103.117 416.648,-112.324 426.488,-108.395 421.89,-103.117"/>
</g>
<!-- Node7 -->
<g id="node7" class="node"><title>Node7</title>
<g id="a_node7"><a xlink:href="scram_8cc.xhtml" target="_top" xlink:title="Main entrance. ">
<polygon fill="white" stroke="black" points="207.687,-0.5 207.687,-19.5 267.687,-19.5 267.687,-0.5 207.687,-0.5"/>
<text text-anchor="middle" x="237.687" y="-7.5" font-family="Helvetica,sans-Serif" font-size="10.00">scram.cc</text>
</a>
</g>
</g>
<!-- Node5&#45;&gt;Node7 -->
<g id="edge6" class="edge"><title>Node5&#45;&gt;Node7</title>
<path fill="none" stroke="midnightblue" d="M392.803,-104.888C379.887,-90.6387 359.546,-69.9964 338.687,-56 314.776,-39.956 284.21,-27.2641 262.997,-19.5042"/>
<polygon fill="midnightblue" stroke="midnightblue" points="390.245,-107.279 399.497,-112.441 395.483,-102.636 390.245,-107.279"/>
</g>
<!-- Node9&#45;&gt;Node7 -->
<g id="edge10" class="edge"><title>Node9&#45;&gt;Node7</title>
<path fill="none" stroke="midnightblue" d="M280.506,-49.5372C269.808,-39.9087 256.431,-27.8694 247.502,-19.8339"/>
<polygon fill="midnightblue" stroke="midnightblue" points="278.272,-52.2358 288.047,-56.324 282.955,-47.0327 278.272,-52.2358"/>
</g>
<!-- Node10 -->
<g id="node10" class="node"><title>Node10</title>
<g id="a_node10"><a xlink:href="reporter_8cc.xhtml" target="_top" xlink:title="Implements Reporter class. ">
<polygon fill="white" stroke="black" points="285.687,-0.5 285.687,-19.5 353.687,-19.5 353.687,-0.5 285.687,-0.5"/>
<text text-anchor="middle" x="319.687" y="-7.5" font-family="Helvetica,sans-Serif" font-size="10.00">reporter.cc</text>
</a>
</g>
</g>
<!-- Node9&#45;&gt;Node10 -->
<g id="edge9" class="edge"><title>Node9&#45;&gt;Node10</title>
<path fill="none" stroke="midnightblue" d="M305.147,-46.6897C308.854,-37.589 313.163,-27.0141 316.122,-19.7511"/>
<polygon fill="midnightblue" stroke="midnightblue" points="301.851,-45.5015 301.32,-56.083 308.334,-48.1426 301.851,-45.5015"/>
</g>
<!-- Node11&#45;&gt;Node7 -->
<g id="edge14" class="edge"><title>Node11&#45;&gt;Node7</title>
<path fill="none" stroke="midnightblue" d="M205.684,-103.349C210.048,-95.191 214.999,-85.274 218.687,-76 226.506,-56.3349 232.723,-32.1888 235.725,-19.5853"/>
<polygon fill="midnightblue" stroke="midnightblue" points="202.532,-101.817 200.776,-112.265 208.664,-105.192 202.532,-101.817"/>
</g>
<!-- Node11&#45;&gt;Node9 -->
<g id="edge12" class="edge"><title>Node11&#45;&gt;Node9</title>
<path fill="none" stroke="midnightblue" d="M221.018,-107.59C239.877,-97.6052 265.071,-84.2672 281.339,-75.6545"/>
<polygon fill="midnightblue" stroke="midnightblue" points="219.275,-104.552 212.075,-112.324 222.55,-110.738 219.275,-104.552"/>
</g>
<!-- Node12 -->
<g id="node12" class="node"><title>Node12</title>
<g id="a_node12"><a xlink:href="risk__analysis_8cc.xhtml" target="_top" xlink:title="Implementation of risk analysis handler. ">
<polygon fill="white" stroke="black" points="119.687,-56.5 119.687,-75.5 209.687,-75.5 209.687,-56.5 119.687,-56.5"/>
<text text-anchor="middle" x="164.687" y="-63.5" font-family="Helvetica,sans-Serif" font-size="10.00">risk_analysis.cc</text>
</a>
</g>
</g>
<!-- Node11&#45;&gt;Node12 -->
<g id="edge13" class="edge"><title>Node11&#45;&gt;Node12</title>
<path fill="none" stroke="midnightblue" d="M185.511,-103.275C180.213,-94.0454 173.97,-83.1703 169.711,-75.7511"/>
<polygon fill="midnightblue" stroke="midnightblue" points="182.554,-105.153 190.568,-112.083 188.624,-101.668 182.554,-105.153"/>
</g>
<!-- Node13&#45;&gt;Node7 -->
<g id="edge16" class="edge"><title>Node13&#45;&gt;Node7</title>
<path fill="none" stroke="midnightblue" d="M33.0961,-106.994C13.0501,-93.8039 -9.76504,-73.51 4.68682,-56 30.0593,-25.2583 150.194,-15.2799 207.341,-12.2399"/>
<polygon fill="midnightblue" stroke="midnightblue" points="31.3468,-110.028 41.6838,-112.352 35.0518,-104.089 31.3468,-110.028"/>
</g>
<!-- Node14 -->
<g id="node14" class="node"><title>Node14</title>
<g id="a_node14"><a xlink:href="serialization_8cc.xhtml" target="_top" xlink:title="serialization.cc">
<polygon fill="white" stroke="black" points="14.1868,-56.5 14.1868,-75.5 101.187,-75.5 101.187,-56.5 14.1868,-56.5"/>
<text text-anchor="middle" x="57.6868" y="-63.5" font-family="Helvetica,sans-Serif" font-size="10.00">serialization.cc</text>
</a>
</g>
</g>
<!-- Node13&#45;&gt;Node14 -->
<g id="edge17" class="edge"><title>Node13&#45;&gt;Node14</title>
<path fill="none" stroke="midnightblue" d="M57.6868,-101.805C57.6868,-92.9102 57.6868,-82.7798 57.6868,-75.7511"/>
<polygon fill="midnightblue" stroke="midnightblue" points="54.1869,-102.083 57.6868,-112.083 61.1869,-102.083 54.1869,-102.083"/>
</g>
<!-- Node15&#45;&gt;Node4 -->
<g id="edge28" class="edge"><title>Node15&#45;&gt;Node4</title>
<path fill="none" stroke="midnightblue" d="M516.757,-222.074C471.01,-211.191 402.235,-194.831 363.957,-185.725"/>
<polygon fill="midnightblue" stroke="midnightblue" points="516.179,-225.534 526.718,-224.444 517.799,-218.724 516.179,-225.534"/>
</g>
<!-- Node15&#45;&gt;Node5 -->
<g id="edge27" class="edge"><title>Node15&#45;&gt;Node5</title>
<path fill="none" stroke="midnightblue" d="M577.589,-216.346C588.253,-202.338 598.911,-182.356 587.687,-168 569.737,-145.042 487.546,-132.121 440.326,-126.473"/>
<polygon fill="midnightblue" stroke="midnightblue" points="574.787,-214.243 571.143,-224.192 580.196,-218.686 574.787,-214.243"/>
</g>
<!-- Node15&#45;&gt;Node16 -->
<g id="edge21" class="edge"><title>Node15&#45;&gt;Node16</title>
<path fill="none" stroke="midnightblue" d="M603.955,-221.745C643.612,-210.93 702.264,-194.933 735.429,-185.889"/>
<polygon fill="midnightblue" stroke="midnightblue" points="602.787,-218.436 594.061,-224.444 604.629,-225.189 602.787,-218.436"/>
</g>
<!-- Node17 -->
<g id="node17" class="node"><title>Node17</title>
<g id="a_node17"><a xlink:href="event__tree_8cc.xhtml" target="_top" xlink:title="Implementation of event tree facilities. ">
<polygon fill="white" stroke="black" points="635.687,-168.5 635.687,-187.5 717.687,-187.5 717.687,-168.5 635.687,-168.5"/>
<text text-anchor="middle" x="676.687" y="-175.5" font-family="Helvetica,sans-Serif" font-size="10.00">event_tree.cc</text>
</a>
</g>
</g>
<!-- Node15&#45;&gt;Node17 -->
<g id="edge23" class="edge"><title>Node15&#45;&gt;Node17</title>
<path fill="none" stroke="midnightblue" d="M589.929,-220.096C611.227,-210.007 640.229,-196.27 658.708,-187.516"/>
<polygon fill="midnightblue" stroke="midnightblue" points="588.29,-217 580.75,-224.444 591.286,-223.326 588.29,-217"/>
</g>
<!-- Node18 -->
<g id="node18" class="node"><title>Node18</title>
<g id="a_node18"><a xlink:href="event__tree__analysis_8h.xhtml" target="_top" xlink:title="Event tree analysis facilities. ">
<polygon fill="white" stroke="black" points="458.187,-168.5 458.187,-187.5 579.187,-187.5 579.187,-168.5 458.187,-168.5"/>
<text text-anchor="middle" x="518.687" y="-175.5" font-family="Helvetica,sans-Serif" font-size="10.00">event_tree_analysis.h</text>
</a>
</g>
</g>
<!-- Node15&#45;&gt;Node18 -->
<g id="edge24" class="edge"><title>Node15&#45;&gt;Node18</title>
<path fill="none" stroke="midnightblue" d="M548.952,-216.144C541.286,-206.736 532.054,-195.405 525.817,-187.751"/>
<polygon fill="midnightblue" stroke="midnightblue" points="546.391,-218.541 555.421,-224.083 551.818,-214.12 546.391,-218.541"/>
</g>
<!-- Node16&#45;&gt;Node6 -->
<g id="edge22" class="edge"><title>Node16&#45;&gt;Node6</title>
<path fill="none" stroke="midnightblue" d="M746.575,-160.718C732.632,-145.705 709.926,-123.987 685.687,-112 626.367,-82.6633 548.801,-72.4341 504.285,-68.8797"/>
<polygon fill="midnightblue" stroke="midnightblue" points="744.08,-163.178 753.374,-168.265 749.281,-158.493 744.08,-163.178"/>
</g>
<!-- Node18&#45;&gt;Node11 -->
<g id="edge26" class="edge"><title>Node18&#45;&gt;Node11</title>
<path fill="none" stroke="midnightblue" d="M457.564,-166.781C393.687,-156.102 295.094,-139.619 238.875,-130.22"/>
<polygon fill="midnightblue" stroke="midnightblue" points="457.066,-170.247 467.507,-168.444 458.221,-163.342 457.066,-170.247"/>
</g>
<!-- Node18&#45;&gt;Node19 -->
<g id="edge25" class="edge"><title>Node18&#45;&gt;Node19</title>
<path fill="none" stroke="midnightblue" d="M543.26,-163.177C560.926,-153.241 584.199,-140.149 599.301,-131.655"/>
<polygon fill="midnightblue" stroke="midnightblue" points="541.111,-160.371 534.111,-168.324 544.543,-166.472 541.111,-160.371"/>
</g>
</g>
</svg>
