<?xml version="1.0" encoding="UTF-8" standalone="no"?>
<!DOCTYPE svg PUBLIC "-//W3C//DTD SVG 1.1//EN"
 "http://www.w3.org/Graphics/SVG/1.1/DTD/svg11.dtd">
<!-- Generated by graphviz version 2.38.0 (20140413.2041)
 -->
<!-- Title: instruction.h Pages: 1 -->
<!--zoomable 274 -->
<svg id="main" version="1.1" xmlns="http://www.w3.org/2000/svg" xmlns:xlink="http://www.w3.org/1999/xlink" xml:space="preserve" onload="init(evt)">
<style type="text/css"><![CDATA[
.edge:hover path { stroke: red; }
.edge:hover polygon { stroke: red; fill: red; }
]]></style>
<script type="text/javascript"><![CDATA[
var edges = document.getElementsByTagName('g');
if (edges && edges.length) {
  for (var i=0;i<edges.length;i++) {
    if (edges[i].id.substr(0,4)=='edge') {
      edges[i].setAttribute('class','edge');
    }
  }
}
]]></script>
        <defs>
                <circle id="rim" cx="0" cy="0" r="7"/>
                <circle id="rim2" cx="0" cy="0" r="3.5"/>
                <g id="zoomPlus">
                        <use xlink:href="#rim" fill="#404040">
                                <set attributeName="fill" to="#808080" begin="zoomplus.mouseover" end="zoomplus.mouseout"/>
                        </use>
                        <path d="M-4,0h8M0,-4v8" fill="none" stroke="white" stroke-width="1.5" pointer-events="none"/>
                </g>
                <g id="zoomMin">
                        <use xlink:href="#rim" fill="#404040">
                                <set attributeName="fill" to="#808080" begin="zoomminus.mouseover" end="zoomminus.mouseout"/>
                        </use>
                        <path d="M-4,0h8" fill="none" stroke="white" stroke-width="1.5" pointer-events="none"/>
                </g>
                <g id="dirArrow">
                        <path fill="none" stroke="white" stroke-width="1.5" d="M0,-3.0v7 M-2.5,-0.5L0,-3.0L2.5,-0.5"/>
                </g>
               <g id="resetDef">
                       <use xlink:href="#rim2" fill="#404040">
                               <set attributeName="fill" to="#808080" begin="reset.mouseover" end="reset.mouseout"/>
                       </use>
               </g>
        </defs>

<script type="text/javascript">
var viewWidth = 1181;
var viewHeight = 274;
var sectionId = 'dynsection-0';
</script>
<script xlink:href="svgpan.js"/>
<svg id="graph" class="graph">
<g id="viewport">
<title>instruction.h</title>
<polygon fill="white" stroke="none" points="-4,4 -4,-270 1177,-270 1177,4 -4,4"/>
<!-- Node1 -->
<g id="node1" class="node"><title>Node1</title>
<polygon fill="#bfbfbf" stroke="black" points="369.5,-246.5 369.5,-265.5 445.5,-265.5 445.5,-246.5 369.5,-246.5"/>
<text text-anchor="middle" x="407.5" y="-253.5" font-family="Helvetica,sans-Serif" font-size="10.00">instruction.h</text>
</g>
<!-- Node2 -->
<g id="node2" class="node"><title>Node2</title>
<polygon fill="white" stroke="#bfbfbf" points="166,-134.5 166,-153.5 223,-153.5 223,-134.5 166,-134.5"/>
<text text-anchor="middle" x="194.5" y="-141.5" font-family="Helvetica,sans-Serif" font-size="10.00">memory</text>
</g>
<!-- Node1&#45;&gt;Node2 -->
<g id="edge1" class="edge"><title>Node1&#45;&gt;Node2</title>
<path fill="none" stroke="midnightblue" d="M390.786,-246.368C353.691,-227.211 264.278,-181.036 220.093,-158.217"/>
<polygon fill="midnightblue" stroke="midnightblue" points="221.627,-155.07 211.136,-153.591 218.415,-161.29 221.627,-155.07"/>
</g>
<!-- Node3 -->
<g id="node3" class="node"><title>Node3</title>
<polygon fill="white" stroke="#bfbfbf" points="815.5,-6 815.5,-25 859.5,-25 859.5,-6 815.5,-6"/>
<text text-anchor="middle" x="837.5" y="-13" font-family="Helvetica,sans-Serif" font-size="10.00">string</text>
</g>
<!-- Node1&#45;&gt;Node3 -->
<g id="edge2" class="edge"><title>Node1&#45;&gt;Node3</title>
<path fill="none" stroke="midnightblue" d="M445.705,-252.047C574.959,-241.185 992.16,-198.723 1070.5,-98 1123.91,-29.3251 946.077,-18.3177 870.176,-16.703"/>
<polygon fill="midnightblue" stroke="midnightblue" points="869.814,-13.1965 859.756,-16.5272 869.696,-20.1955 869.814,-13.1965"/>
</g>
<!-- Node4 -->
<g id="node4" class="node"><title>Node4</title>
<polygon fill="white" stroke="#bfbfbf" points="564,-6 564,-25 611,-25 611,-6 564,-6"/>
<text text-anchor="middle" x="587.5" y="-13" font-family="Helvetica,sans-Serif" font-size="10.00">vector</text>
</g>
<!-- Node1&#45;&gt;Node4 -->
<g id="edge3" class="edge"><title>Node1&#45;&gt;Node4</title>
<path fill="none" stroke="midnightblue" d="M369.468,-251.069C285.118,-240.9 94.544,-209.097 156.5,-134 210.084,-69.0501 260.889,-118.721 342.5,-98 390.388,-85.8412 508.26,-48.4075 554.5,-31 556.111,-30.3937 557.756,-29.7503 559.41,-29.0848"/>
<polygon fill="midnightblue" stroke="midnightblue" points="560.937,-32.2397 568.797,-25.1359 558.223,-25.7873 560.937,-32.2397"/>
</g>
<!-- Node5 -->
<g id="node5" class="node"><title>Node5</title>
<polygon fill="white" stroke="#bfbfbf" points="513.5,-73 513.5,-92 641.5,-92 641.5,-73 513.5,-73"/>
<text text-anchor="middle" x="577.5" y="-80" font-family="Helvetica,sans-Serif" font-size="10.00">boost/noncopyable.hpp</text>
</g>
<!-- Node1&#45;&gt;Node5 -->
<g id="edge4" class="edge"><title>Node1&#45;&gt;Node5</title>
<path fill="none" stroke="midnightblue" d="M419.468,-246.379C441.894,-229.906 491.164,-192.187 526.5,-154 541.986,-137.265 556.94,-115.756 566.606,-100.92"/>
<polygon fill="midnightblue" stroke="midnightblue" points="569.71,-102.563 572.147,-92.2518 563.812,-98.7926 569.71,-102.563"/>
</g>
<!-- Node6 -->
<g id="node6" class="node"><title>Node6</title>
<g id="a_node6"><a xlink:href="element_8h.xhtml" target="_top" xlink:title="Helper classes, structs, and properties common to all other classes. ">
<polygon fill="white" stroke="black" points="269,-73 269,-92 334,-92 334,-73 269,-73"/>
<text text-anchor="middle" x="301.5" y="-80" font-family="Helvetica,sans-Serif" font-size="10.00">element.h</text>
</a>
</g>
</g>
<!-- Node1&#45;&gt;Node6 -->
<g id="edge5" class="edge"><title>Node1&#45;&gt;Node6</title>
<path fill="none" stroke="midnightblue" d="M369.234,-254.807C299.187,-253.552 154.663,-246.49 123.5,-210 101.564,-184.314 103.134,-160.948 123.5,-134 139.785,-112.453 211.48,-97.4231 258.764,-89.646"/>
<polygon fill="midnightblue" stroke="midnightblue" points="259.424,-93.085 268.746,-88.0514 258.319,-86.1727 259.424,-93.085"/>
</g>
<!-- Node11 -->
<g id="node11" class="node"><title>Node11</title>
<g id="a_node11"><a xlink:href="event_8h.xhtml" target="_top" xlink:title="Contains event classes for fault trees. ">
<polygon fill="white" stroke="black" points="381,-190.5 381,-209.5 434,-209.5 434,-190.5 381,-190.5"/>
<text text-anchor="middle" x="407.5" y="-197.5" font-family="Helvetica,sans-Serif" font-size="10.00">event.h</text>
</a>
</g>
</g>
<!-- Node1&#45;&gt;Node11 -->
<g id="edge12" class="edge"><title>Node1&#45;&gt;Node11</title>
<path fill="none" stroke="midnightblue" d="M407.5,-246.083C407.5,-239.006 407.5,-228.861 407.5,-219.986"/>
<polygon fill="midnightblue" stroke="midnightblue" points="411,-219.751 407.5,-209.751 404,-219.751 411,-219.751"/>
</g>
<!-- Node13 -->
<g id="node13" class="node"><title>Node13</title>
<g id="a_node13"><a xlink:href="expression_8h.xhtml" target="_top" xlink:title="Provides the base class for all expressions and units for expression values. ">
<polygon fill="white" stroke="black" points="715,-134.5 715,-153.5 792,-153.5 792,-134.5 715,-134.5"/>
<text text-anchor="middle" x="753.5" y="-141.5" font-family="Helvetica,sans-Serif" font-size="10.00">expression.h</text>
</a>
</g>
</g>
<!-- Node1&#45;&gt;Node13 -->
<g id="edge32" class="edge"><title>Node1&#45;&gt;Node13</title>
<path fill="none" stroke="midnightblue" d="M445.823,-246.918C482.539,-238.824 539.324,-225.384 587.5,-210 636.53,-194.343 691.908,-171.599 724.698,-157.582"/>
<polygon fill="midnightblue" stroke="midnightblue" points="726.314,-160.697 734.117,-153.53 723.548,-154.267 726.314,-160.697"/>
</g>
<!-- Node6&#45;&gt;Node3 -->
<g id="edge7" class="edge"><title>Node6&#45;&gt;Node3</title>
<path fill="none" stroke="midnightblue" d="M334.222,-77.5318C430.082,-65.9071 709.502,-32.0222 805.034,-20.4372"/>
<polygon fill="midnightblue" stroke="midnightblue" points="805.733,-23.8781 815.238,-19.1996 804.89,-16.929 805.733,-23.8781"/>
</g>
<!-- Node6&#45;&gt;Node4 -->
<g id="edge8" class="edge"><title>Node6&#45;&gt;Node4</title>
<path fill="none" stroke="midnightblue" d="M327.196,-72.9314C334.069,-70.816 341.526,-68.678 348.5,-67 438.864,-45.2569 465.532,-57.8892 554.5,-31 556.432,-30.4161 558.401,-29.7493 560.366,-29.0295"/>
<polygon fill="midnightblue" stroke="midnightblue" points="562.033,-32.1308 569.986,-25.1305 559.403,-25.6435 562.033,-32.1308"/>
</g>
<!-- Node7 -->
<g id="node7" class="node"><title>Node7</title>
<polygon fill="white" stroke="#bfbfbf" points="0,-6 0,-25 49,-25 49,-6 0,-6"/>
<text text-anchor="middle" x="24.5" y="-13" font-family="Helvetica,sans-Serif" font-size="10.00">cstdint</text>
</g>
<!-- Node6&#45;&gt;Node7 -->
<g id="edge6" class="edge"><title>Node6&#45;&gt;Node7</title>
<path fill="none" stroke="midnightblue" d="M275.795,-72.9722C268.922,-70.8565 261.467,-68.7081 254.5,-67 168.48,-45.9086 143.309,-56.5284 58.5,-31 56.3532,-30.3538 54.159,-29.6139 51.9705,-28.8179"/>
<polygon fill="midnightblue" stroke="midnightblue" points="53.1615,-25.525 42.5758,-25.0859 50.5772,-32.0305 53.1615,-25.525"/>
</g>
<!-- Node8 -->
<g id="node8" class="node"><title>Node8</title>
<polygon fill="white" stroke="#bfbfbf" points="215.5,-6 215.5,-25 387.5,-25 387.5,-6 215.5,-6"/>
<text text-anchor="middle" x="301.5" y="-13" font-family="Helvetica,sans-Serif" font-size="10.00">boost/multi_index_container.hpp</text>
</g>
<!-- Node6&#45;&gt;Node8 -->
<g id="edge9" class="edge"><title>Node6&#45;&gt;Node8</title>
<path fill="none" stroke="midnightblue" d="M301.5,-72.7338C301.5,-63.1826 301.5,-47.6183 301.5,-35.2829"/>
<polygon fill="midnightblue" stroke="midnightblue" points="305,-35.1273 301.5,-25.1273 298,-35.1273 305,-35.1273"/>
</g>
<!-- Node9 -->
<g id="node9" class="node"><title>Node9</title>
<polygon fill="white" stroke="#bfbfbf" points="405.5,-0.5 405.5,-30.5 545.5,-30.5 545.5,-0.5 405.5,-0.5"/>
<text text-anchor="start" x="413.5" y="-18.5" font-family="Helvetica,sans-Serif" font-size="10.00">boost/multi_index/hashed</text>
<text text-anchor="middle" x="475.5" y="-7.5" font-family="Helvetica,sans-Serif" font-size="10.00">_index.hpp</text>
</g>
<!-- Node6&#45;&gt;Node9 -->
<g id="edge10" class="edge"><title>Node6&#45;&gt;Node9</title>
<path fill="none" stroke="midnightblue" d="M324.606,-72.8685C350.941,-63.0306 394.685,-46.6895 428.312,-34.1277"/>
<polygon fill="midnightblue" stroke="midnightblue" points="429.805,-37.3063 437.948,-30.5281 427.355,-30.7489 429.805,-37.3063"/>
</g>
<!-- Node10 -->
<g id="node10" class="node"><title>Node10</title>
<polygon fill="white" stroke="#bfbfbf" points="67.5,-0.5 67.5,-30.5 197.5,-30.5 197.5,-0.5 67.5,-0.5"/>
<text text-anchor="start" x="75.5" y="-18.5" font-family="Helvetica,sans-Serif" font-size="10.00">boost/multi_index/mem</text>
<text text-anchor="middle" x="132.5" y="-7.5" font-family="Helvetica,sans-Serif" font-size="10.00">_fun.hpp</text>
</g>
<!-- Node6&#45;&gt;Node10 -->
<g id="edge11" class="edge"><title>Node6&#45;&gt;Node10</title>
<path fill="none" stroke="midnightblue" d="M279.058,-72.8685C253.479,-63.0306 210.993,-46.6895 178.332,-34.1277"/>
<polygon fill="midnightblue" stroke="midnightblue" points="179.563,-30.8512 168.973,-30.5281 177.05,-37.3846 179.563,-30.8512"/>
</g>
<!-- Node11&#45;&gt;Node2 -->
<g id="edge14" class="edge"><title>Node11&#45;&gt;Node2</title>
<path fill="none" stroke="midnightblue" d="M380.954,-192.27C343.683,-182.821 275.625,-165.567 232.852,-154.723"/>
<polygon fill="midnightblue" stroke="midnightblue" points="233.635,-151.311 223.082,-152.246 231.915,-158.096 233.635,-151.311"/>
</g>
<!-- Node11&#45;&gt;Node3 -->
<g id="edge15" class="edge"><title>Node11&#45;&gt;Node3</title>
<path fill="none" stroke="midnightblue" d="M415.868,-190.364C424.251,-181.538 437.334,-167.28 447.5,-154 475.598,-117.293 465.598,-91.9706 504.5,-67 553.981,-35.2387 731.227,-22.214 804.961,-18.0889"/>
<polygon fill="midnightblue" stroke="midnightblue" points="805.265,-21.5777 815.062,-17.5436 804.887,-14.5879 805.265,-21.5777"/>
</g>
<!-- Node11&#45;&gt;Node4 -->
<g id="edge16" class="edge"><title>Node11&#45;&gt;Node4</title>
<path fill="none" stroke="midnightblue" d="M411.519,-190.292C424.776,-161.622 466.559,-71.7366 471.5,-67 500.526,-39.174 517.649,-47.0876 554.5,-31 555.862,-30.4054 557.255,-29.7963 558.663,-29.1805"/>
<polygon fill="midnightblue" stroke="midnightblue" points="560.21,-32.3237 567.963,-25.1027 557.399,-25.9128 560.21,-32.3237"/>
</g>
<!-- Node11&#45;&gt;Node5 -->
<g id="edge17" class="edge"><title>Node11&#45;&gt;Node5</title>
<path fill="none" stroke="midnightblue" d="M429.253,-190.412C448.508,-182.342 476.97,-169.247 499.5,-154 523.225,-137.945 547.175,-115.08 562.158,-99.7879"/>
<polygon fill="midnightblue" stroke="midnightblue" points="565.085,-101.794 569.501,-92.1628 560.043,-96.938 565.085,-101.794"/>
</g>
<!-- Node11&#45;&gt;Node6 -->
<g id="edge19" class="edge"><title>Node11&#45;&gt;Node6</title>
<path fill="none" stroke="midnightblue" d="M380.938,-194.518C357.817,-189.12 325.431,-177.637 308.5,-154 297.884,-139.179 297.215,-117.887 298.532,-102.586"/>
<polygon fill="midnightblue" stroke="midnightblue" points="302.055,-102.61 299.796,-92.259 295.107,-101.76 302.055,-102.61"/>
</g>
<!-- Node11&#45;&gt;Node7 -->
<g id="edge13" class="edge"><title>Node11&#45;&gt;Node7</title>
<path fill="none" stroke="midnightblue" d="M384.732,-190.406C362.129,-181.727 326.6,-167.681 296.5,-154 203.664,-111.805 96.4522,-55.2134 49.1236,-29.8154"/>
<polygon fill="midnightblue" stroke="midnightblue" points="50.6834,-26.6802 40.2186,-25.0251 47.3672,-32.8449 50.6834,-26.6802"/>
</g>
<!-- Node12 -->
<g id="node12" class="node"><title>Node12</title>
<polygon fill="white" stroke="#bfbfbf" points="318,-134.5 318,-153.5 419,-153.5 419,-134.5 318,-134.5"/>
<text text-anchor="middle" x="368.5" y="-141.5" font-family="Helvetica,sans-Serif" font-size="10.00">boost/variant.hpp</text>
</g>
<!-- Node11&#45;&gt;Node12 -->
<g id="edge18" class="edge"><title>Node11&#45;&gt;Node12</title>
<path fill="none" stroke="midnightblue" d="M401.06,-190.083C395.551,-182.455 387.469,-171.264 380.735,-161.941"/>
<polygon fill="midnightblue" stroke="midnightblue" points="383.513,-159.809 374.82,-153.751 377.838,-163.907 383.513,-159.809"/>
</g>
<!-- Node11&#45;&gt;Node13 -->
<g id="edge20" class="edge"><title>Node11&#45;&gt;Node13</title>
<path fill="none" stroke="midnightblue" d="M434.076,-194.852C492.111,-185.795 630.9,-164.134 704.976,-152.573"/>
<polygon fill="midnightblue" stroke="midnightblue" points="705.643,-156.012 714.983,-151.011 704.563,-149.095 705.643,-156.012"/>
</g>
<!-- Node13&#45;&gt;Node3 -->
<g id="edge23" class="edge"><title>Node13&#45;&gt;Node3</title>
<path fill="none" stroke="midnightblue" d="M772.949,-134.393C787.675,-126.877 807.233,-114.571 818.5,-98 831.3,-79.1758 835.549,-52.8652 836.919,-35.2832"/>
<polygon fill="midnightblue" stroke="midnightblue" points="840.422,-35.3301 837.465,-25.1562 833.432,-34.9533 840.422,-35.3301"/>
</g>
<!-- Node13&#45;&gt;Node4 -->
<g id="edge25" class="edge"><title>Node13&#45;&gt;Node4</title>
<path fill="none" stroke="midnightblue" d="M740.337,-134.331C727.053,-125.479 706.049,-111.201 688.5,-98 671.082,-84.8977 667.448,-80.7051 650.5,-67 635.622,-54.9686 618.699,-41.4101 606.141,-31.3736"/>
<polygon fill="midnightblue" stroke="midnightblue" points="608.222,-28.556 598.224,-25.0501 603.853,-34.0256 608.222,-28.556"/>
</g>
<!-- Node13&#45;&gt;Node5 -->
<g id="edge27" class="edge"><title>Node13&#45;&gt;Node5</title>
<path fill="none" stroke="midnightblue" d="M728.283,-134.475C697.832,-124.18 646.451,-106.81 612.257,-95.2502"/>
<polygon fill="midnightblue" stroke="midnightblue" points="613.264,-91.8961 602.67,-92.0091 611.022,-98.5274 613.264,-91.8961"/>
</g>
<!-- Node13&#45;&gt;Node6 -->
<g id="edge28" class="edge"><title>Node13&#45;&gt;Node6</title>
<path fill="none" stroke="midnightblue" d="M714.963,-137.927C630.954,-126.868 431.85,-100.659 344.189,-89.1195"/>
<polygon fill="midnightblue" stroke="midnightblue" points="344.438,-85.6221 334.066,-87.7869 343.524,-92.5622 344.438,-85.6221"/>
</g>
<!-- Node14 -->
<g id="node14" class="node"><title>Node14</title>
<polygon fill="white" stroke="#bfbfbf" points="865.5,-73 865.5,-92 927.5,-92 927.5,-73 865.5,-73"/>
<text text-anchor="middle" x="896.5" y="-80" font-family="Helvetica,sans-Serif" font-size="10.00">algorithm</text>
</g>
<!-- Node13&#45;&gt;Node14 -->
<g id="edge21" class="edge"><title>Node13&#45;&gt;Node14</title>
<path fill="none" stroke="midnightblue" d="M773.988,-134.475C798.306,-124.357 839.049,-107.405 866.817,-95.8507"/>
<polygon fill="midnightblue" stroke="midnightblue" points="868.161,-99.0822 876.05,-92.0091 865.472,-92.6193 868.161,-99.0822"/>
</g>
<!-- Node15 -->
<g id="node15" class="node"><title>Node15</title>
<polygon fill="white" stroke="#bfbfbf" points="945.5,-73 945.5,-92 1001.5,-92 1001.5,-73 945.5,-73"/>
<text text-anchor="middle" x="973.5" y="-80" font-family="Helvetica,sans-Serif" font-size="10.00">sstream</text>
</g>
<!-- Node13&#45;&gt;Node15 -->
<g id="edge22" class="edge"><title>Node13&#45;&gt;Node15</title>
<path fill="none" stroke="midnightblue" d="M792.114,-135.063C829.436,-127.028 887.384,-113.587 936.5,-98 938.775,-97.278 941.111,-96.4864 943.449,-95.6571"/>
<polygon fill="midnightblue" stroke="midnightblue" points="944.785,-98.8943 952.93,-92.1182 942.337,-92.3363 944.785,-98.8943"/>
</g>
<!-- Node16 -->
<g id="node16" class="node"><title>Node16</title>
<polygon fill="white" stroke="#bfbfbf" points="1019.5,-73 1019.5,-92 1061.5,-92 1061.5,-73 1019.5,-73"/>
<text text-anchor="middle" x="1040.5" y="-80" font-family="Helvetica,sans-Serif" font-size="10.00">utility</text>
</g>
<!-- Node13&#45;&gt;Node16 -->
<g id="edge24" class="edge"><title>Node13&#45;&gt;Node16</title>
<path fill="none" stroke="midnightblue" d="M792.183,-139.594C843.187,-134.347 935.268,-122.247 1010.5,-98 1012.17,-97.4632 1013.86,-96.8508 1015.54,-96.1882"/>
<polygon fill="midnightblue" stroke="midnightblue" points="1017.23,-99.2689 1024.96,-92.0203 1014.4,-92.8681 1017.23,-99.2689"/>
</g>
<!-- Node17 -->
<g id="node17" class="node"><title>Node17</title>
<polygon fill="white" stroke="#bfbfbf" points="697.5,-67.5 697.5,-97.5 809.5,-97.5 809.5,-67.5 697.5,-67.5"/>
<text text-anchor="start" x="705.5" y="-85.5" font-family="Helvetica,sans-Serif" font-size="10.00">boost/icl/continuous</text>
<text text-anchor="middle" x="753.5" y="-74.5" font-family="Helvetica,sans-Serif" font-size="10.00">_interval.hpp</text>
</g>
<!-- Node13&#45;&gt;Node17 -->
<g id="edge26" class="edge"><title>Node13&#45;&gt;Node17</title>
<path fill="none" stroke="midnightblue" d="M753.5,-134.475C753.5,-127.471 753.5,-117.192 753.5,-107.696"/>
<polygon fill="midnightblue" stroke="midnightblue" points="757,-107.523 753.5,-97.523 750,-107.523 757,-107.523"/>
</g>
<!-- Node18 -->
<g id="node18" class="node"><title>Node18</title>
<g id="a_node18"><a xlink:href="error_8h.xhtml" target="_top" xlink:title="Exceptions for SCRAM. ">
<polygon fill="white" stroke="black" points="1117.5,-73 1117.5,-92 1165.5,-92 1165.5,-73 1117.5,-73"/>
<text text-anchor="middle" x="1141.5" y="-80" font-family="Helvetica,sans-Serif" font-size="10.00">error.h</text>
</a>
</g>
</g>
<!-- Node13&#45;&gt;Node18 -->
<g id="edge29" class="edge"><title>Node13&#45;&gt;Node18</title>
<path fill="none" stroke="midnightblue" d="M792.168,-138.277C851.997,-130.796 970.538,-115.286 1070.5,-98 1082.58,-95.9108 1095.75,-93.311 1107.43,-90.8921"/>
<polygon fill="midnightblue" stroke="midnightblue" points="1108.18,-94.311 1117.25,-88.8303 1106.75,-87.4604 1108.18,-94.311"/>
</g>
<!-- Node18&#45;&gt;Node3 -->
<g id="edge31" class="edge"><title>Node18&#45;&gt;Node3</title>
<path fill="none" stroke="midnightblue" d="M1121.21,-72.9995C1115.55,-70.8348 1109.34,-68.6553 1103.5,-67 1020.53,-43.4951 919.878,-27.7447 869.491,-20.7053"/>
<polygon fill="midnightblue" stroke="midnightblue" points="869.91,-17.2301 859.526,-19.3358 868.957,-24.1649 869.91,-17.2301"/>
</g>
<!-- Node19 -->
<g id="node19" class="node"><title>Node19</title>
<polygon fill="white" stroke="#bfbfbf" points="1110,-6 1110,-25 1173,-25 1173,-6 1110,-6"/>
<text text-anchor="middle" x="1141.5" y="-13" font-family="Helvetica,sans-Serif" font-size="10.00">exception</text>
</g>
<!-- Node18&#45;&gt;Node19 -->
<g id="edge30" class="edge"><title>Node18&#45;&gt;Node19</title>
<path fill="none" stroke="midnightblue" d="M1141.5,-72.7338C1141.5,-63.1826 1141.5,-47.6183 1141.5,-35.2829"/>
<polygon fill="midnightblue" stroke="midnightblue" points="1145,-35.1273 1141.5,-25.1273 1138,-35.1273 1145,-35.1273"/>
</g>
</g>
</svg>
        <g id="navigator" transform="translate(0 0)" fill="#404254">
                <rect fill="#f2f5e9" fill-opacity="0.5" stroke="#606060" stroke-width=".5" x="0" y="0" width="60" height="60"/>
                <use id="zoomplus" xlink:href="#zoomPlus" x="17" y="9" onmousedown="handleZoom(evt,'in')"/>
                <use id="zoomminus" xlink:href="#zoomMin" x="42" y="9" onmousedown="handleZoom(evt,'out')"/>
                <use id="reset" xlink:href="#resetDef" x="30" y="36" onmousedown="handleReset()"/>
                <g id="arrowUp" xlink:href="#dirArrow" transform="translate(30 24)" onmousedown="handlePan(0,-1)">
                  <use xlink:href="#rim" fill="#404040">
                        <set attributeName="fill" to="#808080" begin="arrowUp.mouseover" end="arrowUp.mouseout"/>
                  </use>
                  <path fill="none" stroke="white" stroke-width="1.5" d="M0,-3.0v7 M-2.5,-0.5L0,-3.0L2.5,-0.5"/>
                </g>
                <g id="arrowRight" xlink:href="#dirArrow" transform="rotate(90) translate(36 -43)" onmousedown="handlePan(1,0)">
                  <use xlink:href="#rim" fill="#404040">
                        <set attributeName="fill" to="#808080" begin="arrowRight.mouseover" end="arrowRight.mouseout"/>
                  </use>
                  <path fill="none" stroke="white" stroke-width="1.5" d="M0,-3.0v7 M-2.5,-0.5L0,-3.0L2.5,-0.5"/>
                </g>
                <g id="arrowDown" xlink:href="#dirArrow" transform="rotate(180) translate(-30 -48)" onmousedown="handlePan(0,1)">
                  <use xlink:href="#rim" fill="#404040">
                        <set attributeName="fill" to="#808080" begin="arrowDown.mouseover" end="arrowDown.mouseout"/>
                  </use>
                  <path fill="none" stroke="white" stroke-width="1.5" d="M0,-3.0v7 M-2.5,-0.5L0,-3.0L2.5,-0.5"/>
                </g>
                <g id="arrowLeft" xlink:href="#dirArrow" transform="rotate(270) translate(-36 17)" onmousedown="handlePan(-1,0)">
                  <use xlink:href="#rim" fill="#404040">
                        <set attributeName="fill" to="#808080" begin="arrowLeft.mouseover" end="arrowLeft.mouseout"/>
                  </use>
                  <path fill="none" stroke="white" stroke-width="1.5" d="M0,-3.0v7 M-2.5,-0.5L0,-3.0L2.5,-0.5"/>
                </g>
        </g>
        <svg viewBox="0 0 15 15" width="100%" height="30px" preserveAspectRatio="xMaxYMin meet">
         <g id="arrow_out" transform="scale(0.3 0.3)">
          <a xlink:href="instruction_8h__incl_org.svg" target="_base">
           <rect id="button" ry="5" rx="5" y="6" x="6" height="38" width="38"
                fill="#f2f5e9" fill-opacity="0.5" stroke="#606060" stroke-width="1.0"/>
           <path id="arrow"
             d="M 11.500037,31.436501 C 11.940474,20.09759 22.043105,11.32322 32.158766,21.979434 L 37.068811,17.246167 C 37.068811,17.246167 37.088388,32 37.088388,32 L 22.160133,31.978069 C 22.160133,31.978069 26.997745,27.140456 26.997745,27.140456 C 18.528582,18.264221 13.291696,25.230495 11.500037,31.436501 z"
             style="fill:#404040;"/>
          </a>
         </g>
        </svg>
</svg>
