<?xml version="1.0" encoding="UTF-8" standalone="no"?>
<!DOCTYPE svg PUBLIC "-//W3C//DTD SVG 1.1//EN"
 "http://www.w3.org/Graphics/SVG/1.1/DTD/svg11.dtd">
<!-- Generated by graphviz version 2.38.0 (20140413.2041)
 -->
<!-- Title: model.h Pages: 1 -->
<svg width="1919pt" height="386pt"
 viewBox="0.00 0.00 1919.00 386.00" xmlns="http://www.w3.org/2000/svg" xmlns:xlink="http://www.w3.org/1999/xlink">
<g id="graph0" class="graph" transform="scale(1 1) rotate(0) translate(4 382)">
<title>model.h</title>
<polygon fill="white" stroke="none" points="-4,4 -4,-382 1915,-382 1915,4 -4,4"/>
<!-- Node1 -->
<g id="node1" class="node"><title>Node1</title>
<polygon fill="#bfbfbf" stroke="black" points="728,-358.5 728,-377.5 784,-377.5 784,-358.5 728,-358.5"/>
<text text-anchor="middle" x="756" y="-365.5" font-family="Helvetica,sans-Serif" font-size="10.00">model.h</text>
</g>
<!-- Node2 -->
<g id="node2" class="node"><title>Node2</title>
<polygon fill="white" stroke="#bfbfbf" points="832.5,-134.5 832.5,-153.5 889.5,-153.5 889.5,-134.5 832.5,-134.5"/>
<text text-anchor="middle" x="861" y="-141.5" font-family="Helvetica,sans-Serif" font-size="10.00">memory</text>
</g>
<!-- Node1&#45;&gt;Node2 -->
<g id="edge1" class="edge"><title>Node1&#45;&gt;Node2</title>
<path fill="none" stroke="midnightblue" d="M760.116,-358.297C775.664,-325.425 831.018,-208.391 852.444,-163.09"/>
<polygon fill="midnightblue" stroke="midnightblue" points="855.687,-164.42 856.798,-153.884 849.359,-161.427 855.687,-164.42"/>
</g>
<!-- Node3 -->
<g id="node3" class="node"><title>Node3</title>
<polygon fill="white" stroke="#bfbfbf" points="1120,-6 1120,-25 1164,-25 1164,-6 1120,-6"/>
<text text-anchor="middle" x="1142" y="-13" font-family="Helvetica,sans-Serif" font-size="10.00">string</text>
</g>
<!-- Node1&#45;&gt;Node3 -->
<g id="edge2" class="edge"><title>Node1&#45;&gt;Node3</title>
<path fill="none" stroke="midnightblue" d="M784.264,-367.358C961.389,-369.242 1911,-373.891 1911,-257 1911,-257 1911,-257 1911,-143 1911,-69.0564 1834.11,-87.2763 1763,-67 1650.63,-34.9577 1285.61,-21.0306 1174.43,-17.4645"/>
<polygon fill="midnightblue" stroke="midnightblue" points="1174.29,-13.9585 1164.19,-17.1424 1174.07,-20.955 1174.29,-13.9585"/>
</g>
<!-- Node4 -->
<g id="node4" class="node"><title>Node4</title>
<polygon fill="white" stroke="#bfbfbf" points="460.5,-6 460.5,-25 507.5,-25 507.5,-6 460.5,-6"/>
<text text-anchor="middle" x="484" y="-13" font-family="Helvetica,sans-Serif" font-size="10.00">vector</text>
</g>
<!-- Node1&#45;&gt;Node4 -->
<g id="edge3" class="edge"><title>Node1&#45;&gt;Node4</title>
<path fill="none" stroke="midnightblue" d="M727.638,-366.353C621.673,-363.72 249.239,-352.455 135,-322 70.6547,-304.846 0,-323.593 0,-257 0,-257 0,-257 0,-143 0,-49.8079 340.126,-23.9643 450.126,-18.0431"/>
<polygon fill="midnightblue" stroke="midnightblue" points="450.522,-21.5274 460.328,-17.5161 450.161,-14.5367 450.522,-21.5274"/>
</g>
<!-- Node5 -->
<g id="node5" class="node"><title>Node5</title>
<polygon fill="white" stroke="#bfbfbf" points="550,-73 550,-92 678,-92 678,-73 550,-73"/>
<text text-anchor="middle" x="614" y="-80" font-family="Helvetica,sans-Serif" font-size="10.00">boost/noncopyable.hpp</text>
</g>
<!-- Node1&#45;&gt;Node5 -->
<g id="edge4" class="edge"><title>Node1&#45;&gt;Node5</title>
<path fill="none" stroke="midnightblue" d="M727.917,-366.654C615.312,-365.034 200.33,-356.735 154,-322 132.732,-306.055 137.743,-292.155 133,-266 121.332,-201.656 143.404,-169.994 198,-134 252.594,-98.0069 435.641,-87.6617 539.821,-84.6922"/>
<polygon fill="midnightblue" stroke="midnightblue" points="540.056,-88.1872 549.958,-84.4194 539.868,-81.1898 540.056,-88.1872"/>
</g>
<!-- Node6 -->
<g id="node6" class="node"><title>Node6</title>
<g id="a_node6"><a xlink:href="alignment_8h.xhtml" target="_top" xlink:title="Mission and phase constructs. ">
<polygon fill="white" stroke="black" points="191,-302.5 191,-321.5 265,-321.5 265,-302.5 191,-302.5"/>
<text text-anchor="middle" x="228" y="-309.5" font-family="Helvetica,sans-Serif" font-size="10.00">alignment.h</text>
</a>
</g>
</g>
<!-- Node1&#45;&gt;Node6 -->
<g id="edge5" class="edge"><title>Node1&#45;&gt;Node6</title>
<path fill="none" stroke="midnightblue" d="M727.985,-364.135C642.256,-355.367 382.791,-328.831 275.362,-317.844"/>
<polygon fill="midnightblue" stroke="midnightblue" points="275.452,-314.335 265.148,-316.799 274.74,-321.299 275.452,-314.335"/>
</g>
<!-- Node7 -->
<g id="node7" class="node"><title>Node7</title>
<g id="a_node7"><a xlink:href="element_8h.xhtml" target="_top" xlink:title="Helper classes, structs, and properties common to all other classes. ">
<polygon fill="white" stroke="black" points="772.5,-73 772.5,-92 837.5,-92 837.5,-73 772.5,-73"/>
<text text-anchor="middle" x="805" y="-80" font-family="Helvetica,sans-Serif" font-size="10.00">element.h</text>
</a>
</g>
</g>
<!-- Node1&#45;&gt;Node7 -->
<g id="edge55" class="edge"><title>Node1&#45;&gt;Node7</title>
<path fill="none" stroke="midnightblue" d="M727.731,-366.977C617.314,-366.596 219.367,-362.411 182,-322 148.745,-286.035 48.1738,-279.491 312,-134 385.308,-93.5729 603.78,-107.106 687,-98 711.975,-95.2672 739.877,-91.8551 762.277,-89.0274"/>
<polygon fill="midnightblue" stroke="midnightblue" points="762.992,-92.4647 772.471,-87.7329 762.11,-85.5205 762.992,-92.4647"/>
</g>
<!-- Node12 -->
<g id="node12" class="node"><title>Node12</title>
<g id="a_node12"><a xlink:href="instruction_8h.xhtml" target="_top" xlink:title="Model and event tree modifier instructions. ">
<polygon fill="white" stroke="black" points="556,-246.5 556,-265.5 632,-265.5 632,-246.5 556,-246.5"/>
<text text-anchor="middle" x="594" y="-253.5" font-family="Helvetica,sans-Serif" font-size="10.00">instruction.h</text>
</a>
</g>
</g>
<!-- Node1&#45;&gt;Node12 -->
<g id="edge87" class="edge"><title>Node1&#45;&gt;Node12</title>
<path fill="none" stroke="midnightblue" d="M731.909,-358.356C711.726,-350.511 682.662,-337.773 660,-322 639.887,-308.001 620.335,-287.638 607.801,-273.447"/>
<polygon fill="midnightblue" stroke="midnightblue" points="610.145,-270.806 600.962,-265.521 604.845,-275.379 610.145,-270.806"/>
</g>
<!-- Node13 -->
<g id="node13" class="node"><title>Node13</title>
<g id="a_node13"><a xlink:href="event_8h.xhtml" target="_top" xlink:title="Contains event classes for fault trees. ">
<polygon fill="white" stroke="black" points="642.5,-190.5 642.5,-209.5 695.5,-209.5 695.5,-190.5 642.5,-190.5"/>
<text text-anchor="middle" x="669" y="-197.5" font-family="Helvetica,sans-Serif" font-size="10.00">event.h</text>
</a>
</g>
</g>
<!-- Node1&#45;&gt;Node13 -->
<g id="edge56" class="edge"><title>Node1&#45;&gt;Node13</title>
<path fill="none" stroke="midnightblue" d="M751.323,-358.075C737.509,-331.719 696.713,-253.878 678.256,-218.661"/>
<polygon fill="midnightblue" stroke="midnightblue" points="681.233,-216.801 673.491,-209.568 675.033,-220.05 681.233,-216.801"/>
</g>
<!-- Node15 -->
<g id="node15" class="node"><title>Node15</title>
<g id="a_node15"><a xlink:href="expression_8h.xhtml" target="_top" xlink:title="Provides the base class for all expressions and units for expression values. ">
<polygon fill="white" stroke="black" points="1356.5,-134.5 1356.5,-153.5 1433.5,-153.5 1433.5,-134.5 1356.5,-134.5"/>
<text text-anchor="middle" x="1395" y="-141.5" font-family="Helvetica,sans-Serif" font-size="10.00">expression.h</text>
</a>
</g>
</g>
<!-- Node1&#45;&gt;Node15 -->
<g id="edge67" class="edge"><title>Node1&#45;&gt;Node15</title>
<path fill="none" stroke="midnightblue" d="M784.029,-366.289C887.899,-363.444 1250.6,-351.567 1362,-322 1473.83,-292.319 1535.25,-307.841 1597,-210 1601.74,-202.483 1602.56,-196.935 1597,-190 1578.16,-166.496 1497.32,-154.476 1443.8,-148.979"/>
<polygon fill="midnightblue" stroke="midnightblue" points="1444.11,-145.493 1433.81,-147.997 1443.42,-152.459 1444.11,-145.493"/>
</g>
<!-- Node22 -->
<g id="node22" class="node"><title>Node22</title>
<g id="a_node22"><a xlink:href="ccf__group_8h.xhtml" target="_top" xlink:title="Functional containers for basic events grouped by common cause failure. ">
<polygon fill="white" stroke="black" points="1350,-246.5 1350,-265.5 1422,-265.5 1422,-246.5 1350,-246.5"/>
<text text-anchor="middle" x="1386" y="-253.5" font-family="Helvetica,sans-Serif" font-size="10.00">ccf_group.h</text>
</a>
</g>
</g>
<!-- Node1&#45;&gt;Node22 -->
<g id="edge44" class="edge"><title>Node1&#45;&gt;Node22</title>
<path fill="none" stroke="midnightblue" d="M784.285,-366.15C893.917,-362.672 1287.15,-348.449 1336,-322 1355.31,-311.546 1369.5,-290.098 1377.73,-274.696"/>
<polygon fill="midnightblue" stroke="midnightblue" points="1380.92,-276.133 1382.27,-265.625 1374.67,-272.999 1380.92,-276.133"/>
</g>
<!-- Node25 -->
<g id="node25" class="node"><title>Node25</title>
<g id="a_node25"><a xlink:href="event__tree_8h.xhtml" target="_top" xlink:title="Event Tree facilities. ">
<polygon fill="white" stroke="black" points="475.5,-302.5 475.5,-321.5 552.5,-321.5 552.5,-302.5 475.5,-302.5"/>
<text text-anchor="middle" x="514" y="-309.5" font-family="Helvetica,sans-Serif" font-size="10.00">event_tree.h</text>
</a>
</g>
</g>
<!-- Node1&#45;&gt;Node25 -->
<g id="edge57" class="edge"><title>Node1&#45;&gt;Node25</title>
<path fill="none" stroke="midnightblue" d="M727.766,-360.7C687.173,-351.642 611.77,-334.816 562.24,-323.764"/>
<polygon fill="midnightblue" stroke="midnightblue" points="562.914,-320.329 552.392,-321.567 561.389,-327.161 562.914,-320.329"/>
</g>
<!-- Node27 -->
<g id="node27" class="node"><title>Node27</title>
<g id="a_node27"><a xlink:href="test__event_8h.xhtml" target="_top" xlink:title="Event tree analysis expressions to test functional and initiating events. ">
<polygon fill="white" stroke="black" points="1751.5,-190.5 1751.5,-209.5 1882.5,-209.5 1882.5,-190.5 1751.5,-190.5"/>
<text text-anchor="middle" x="1817" y="-197.5" font-family="Helvetica,sans-Serif" font-size="10.00">expression/test_event.h</text>
</a>
</g>
</g>
<!-- Node1&#45;&gt;Node27 -->
<g id="edge68" class="edge"><title>Node1&#45;&gt;Node27</title>
<path fill="none" stroke="midnightblue" d="M784.143,-366.535C926.821,-364.048 1566.73,-351.331 1650,-322 1713.93,-299.482 1774.63,-244.098 1801.92,-216.771"/>
<polygon fill="midnightblue" stroke="midnightblue" points="1804.49,-219.147 1809,-209.557 1799.5,-214.246 1804.49,-219.147"/>
</g>
<!-- Node29 -->
<g id="node29" class="node"><title>Node29</title>
<g id="a_node29"><a xlink:href="fault__tree_8h.xhtml" target="_top" xlink:title="Fault Tree and Component containers. ">
<polygon fill="white" stroke="black" points="1030.5,-302.5 1030.5,-321.5 1101.5,-321.5 1101.5,-302.5 1030.5,-302.5"/>
<text text-anchor="middle" x="1066" y="-309.5" font-family="Helvetica,sans-Serif" font-size="10.00">fault_tree.h</text>
</a>
</g>
</g>
<!-- Node1&#45;&gt;Node29 -->
<g id="edge72" class="edge"><title>Node1&#45;&gt;Node29</title>
<path fill="none" stroke="midnightblue" d="M784.057,-362.113C837.675,-352.773 955.142,-332.311 1020.26,-320.968"/>
<polygon fill="midnightblue" stroke="midnightblue" points="1020.99,-324.393 1030.24,-319.228 1019.79,-317.497 1020.99,-324.393"/>
</g>
<!-- Node31 -->
<g id="node31" class="node"><title>Node31</title>
<g id="a_node31"><a xlink:href="parameter_8h.xhtml" target="_top" xlink:title="Parameter expressions that act like a shareable variable. ">
<polygon fill="white" stroke="black" points="1170,-190.5 1170,-209.5 1246,-209.5 1246,-190.5 1170,-190.5"/>
<text text-anchor="middle" x="1208" y="-197.5" font-family="Helvetica,sans-Serif" font-size="10.00">parameter.h</text>
</a>
</g>
</g>
<!-- Node1&#45;&gt;Node31 -->
<g id="edge88" class="edge"><title>Node1&#45;&gt;Node31</title>
<path fill="none" stroke="midnightblue" d="M784.047,-366.556C886.763,-364.26 1239.71,-350.262 1303,-266 1321.19,-241.785 1284.55,-223.462 1251.63,-212.54"/>
<polygon fill="midnightblue" stroke="midnightblue" points="1252.63,-209.187 1242.04,-209.524 1250.53,-215.864 1252.63,-209.187"/>
</g>
<!-- Node6&#45;&gt;Node2 -->
<g id="edge6" class="edge"><title>Node6&#45;&gt;Node2</title>
<path fill="none" stroke="midnightblue" d="M246,-302.461C276.662,-288.305 341.316,-260.139 399,-246 531.572,-213.505 574.632,-253.534 704,-210 720.616,-204.409 722.147,-197.487 738,-190 765.829,-176.857 798.615,-165.032 823.336,-156.806"/>
<polygon fill="midnightblue" stroke="midnightblue" points="824.649,-160.059 833.061,-153.617 822.468,-153.407 824.649,-160.059"/>
</g>
<!-- Node6&#45;&gt;Node3 -->
<g id="edge7" class="edge"><title>Node6&#45;&gt;Node3</title>
<path fill="none" stroke="midnightblue" d="M220.814,-302.294C214.069,-293.64 204.254,-279.713 199,-266 178.009,-211.215 157.821,-176.751 198,-134 289.369,-36.7809 983.759,-45.2585 1080,-31 1089.8,-29.5485 1100.33,-27.337 1109.89,-25.0752"/>
<polygon fill="midnightblue" stroke="midnightblue" points="1110.92,-28.4261 1119.79,-22.6348 1109.24,-21.6295 1110.92,-28.4261"/>
</g>
<!-- Node6&#45;&gt;Node4 -->
<g id="edge8" class="edge"><title>Node6&#45;&gt;Node4</title>
<path fill="none" stroke="midnightblue" d="M202.661,-302.367C183.401,-294.906 157.058,-282.686 138,-266 87.0668,-221.407 21.8797,-188.526 62,-134 108.932,-70.2163 358.774,-32.4497 450.336,-20.5809"/>
<polygon fill="midnightblue" stroke="midnightblue" points="450.967,-24.0288 460.445,-19.2929 450.083,-17.085 450.967,-24.0288"/>
</g>
<!-- Node6&#45;&gt;Node5 -->
<g id="edge9" class="edge"><title>Node6&#45;&gt;Node5</title>
<path fill="none" stroke="midnightblue" d="M223.47,-302.266C209.468,-273.922 170.374,-183.48 214,-134 235.154,-110.007 430.038,-94.5305 539.767,-87.641"/>
<polygon fill="midnightblue" stroke="midnightblue" points="540.023,-91.132 549.787,-87.0209 539.59,-84.1454 540.023,-91.132"/>
</g>
<!-- Node6&#45;&gt;Node7 -->
<g id="edge10" class="edge"><title>Node6&#45;&gt;Node7</title>
<path fill="none" stroke="midnightblue" d="M230.493,-302.142C239.581,-271.764 274.123,-171.618 344,-134 411.483,-97.6708 610.852,-106.674 687,-98 711.962,-95.1565 739.864,-91.7389 762.266,-88.936"/>
<polygon fill="midnightblue" stroke="midnightblue" points="762.977,-92.3744 772.463,-87.6553 762.104,-85.4289 762.977,-92.3744"/>
</g>
<!-- Node6&#45;&gt;Node12 -->
<g id="edge17" class="edge"><title>Node6&#45;&gt;Node12</title>
<path fill="none" stroke="midnightblue" d="M265.108,-305.525C331.846,-295.678 472.043,-274.994 545.991,-264.083"/>
<polygon fill="midnightblue" stroke="midnightblue" points="546.589,-267.533 555.971,-262.611 545.567,-260.608 546.589,-267.533"/>
</g>
<!-- Node7&#45;&gt;Node3 -->
<g id="edge12" class="edge"><title>Node7&#45;&gt;Node3</title>
<path fill="none" stroke="midnightblue" d="M837.695,-76.0203C889.317,-67.2506 992.804,-49.1915 1080,-31 1089.77,-28.9607 1100.37,-26.5553 1109.99,-24.296"/>
<polygon fill="midnightblue" stroke="midnightblue" points="1111.04,-27.6436 1119.96,-21.926 1109.42,-20.8333 1111.04,-27.6436"/>
</g>
<!-- Node7&#45;&gt;Node4 -->
<g id="edge13" class="edge"><title>Node7&#45;&gt;Node4</title>
<path fill="none" stroke="midnightblue" d="M779.822,-72.9655C772.814,-70.8007 765.161,-68.6296 758,-67 652.4,-42.9682 621.048,-61.0478 517,-31 514.851,-30.3793 512.658,-29.6492 510.476,-28.8523"/>
<polygon fill="midnightblue" stroke="midnightblue" points="511.729,-25.5836 501.147,-25.0638 509.095,-32.0692 511.729,-25.5836"/>
</g>
<!-- Node8 -->
<g id="node8" class="node"><title>Node8</title>
<polygon fill="white" stroke="#bfbfbf" points="1022.5,-6 1022.5,-25 1071.5,-25 1071.5,-6 1022.5,-6"/>
<text text-anchor="middle" x="1047" y="-13" font-family="Helvetica,sans-Serif" font-size="10.00">cstdint</text>
</g>
<!-- Node7&#45;&gt;Node8 -->
<g id="edge11" class="edge"><title>Node7&#45;&gt;Node8</title>
<path fill="none" stroke="midnightblue" d="M831.737,-72.8497C838.332,-70.8273 845.398,-68.7537 852,-67 922.865,-48.1775 943.207,-53.4759 1013,-31 1014.92,-30.3804 1016.89,-29.6937 1018.86,-28.9658"/>
<polygon fill="midnightblue" stroke="midnightblue" points="1020.54,-32.0627 1028.53,-25.1034 1017.94,-25.5619 1020.54,-32.0627"/>
</g>
<!-- Node9 -->
<g id="node9" class="node"><title>Node9</title>
<polygon fill="white" stroke="#bfbfbf" points="832,-6 832,-25 1004,-25 1004,-6 832,-6"/>
<text text-anchor="middle" x="918" y="-13" font-family="Helvetica,sans-Serif" font-size="10.00">boost/multi_index_container.hpp</text>
</g>
<!-- Node7&#45;&gt;Node9 -->
<g id="edge14" class="edge"><title>Node7&#45;&gt;Node9</title>
<path fill="none" stroke="midnightblue" d="M820.24,-72.7338C839.216,-61.8182 871.846,-43.0487 894.147,-30.2209"/>
<polygon fill="midnightblue" stroke="midnightblue" points="896.079,-33.1474 903.002,-25.1273 892.588,-27.0796 896.079,-33.1474"/>
</g>
<!-- Node10 -->
<g id="node10" class="node"><title>Node10</title>
<polygon fill="white" stroke="#bfbfbf" points="526,-0.5 526,-30.5 666,-30.5 666,-0.5 526,-0.5"/>
<text text-anchor="start" x="534" y="-18.5" font-family="Helvetica,sans-Serif" font-size="10.00">boost/multi_index/hashed</text>
<text text-anchor="middle" x="596" y="-7.5" font-family="Helvetica,sans-Serif" font-size="10.00">_index.hpp</text>
</g>
<!-- Node7&#45;&gt;Node10 -->
<g id="edge15" class="edge"><title>Node7&#45;&gt;Node10</title>
<path fill="none" stroke="midnightblue" d="M777.246,-72.8685C745.139,-62.8828 691.488,-46.1971 650.868,-33.5642"/>
<polygon fill="midnightblue" stroke="midnightblue" points="651.694,-30.1558 641.106,-30.5281 649.615,-36.84 651.694,-30.1558"/>
</g>
<!-- Node11 -->
<g id="node11" class="node"><title>Node11</title>
<polygon fill="white" stroke="#bfbfbf" points="684,-0.5 684,-30.5 814,-30.5 814,-0.5 684,-0.5"/>
<text text-anchor="start" x="692" y="-18.5" font-family="Helvetica,sans-Serif" font-size="10.00">boost/multi_index/mem</text>
<text text-anchor="middle" x="749" y="-7.5" font-family="Helvetica,sans-Serif" font-size="10.00">_fun.hpp</text>
</g>
<!-- Node7&#45;&gt;Node11 -->
<g id="edge16" class="edge"><title>Node7&#45;&gt;Node11</title>
<path fill="none" stroke="midnightblue" d="M797.448,-72.7338C789.879,-63.9493 777.929,-50.0783 767.791,-38.3111"/>
<polygon fill="midnightblue" stroke="midnightblue" points="770.317,-35.8806 761.138,-30.589 765.014,-40.4496 770.317,-35.8806"/>
</g>
<!-- Node12&#45;&gt;Node2 -->
<g id="edge18" class="edge"><title>Node12&#45;&gt;Node2</title>
<path fill="none" stroke="midnightblue" d="M627.208,-246.488C656.794,-238.468 701.004,-225.403 738,-210 774.022,-195.002 813.564,-173.047 837.838,-158.889"/>
<polygon fill="midnightblue" stroke="midnightblue" points="839.812,-161.788 846.653,-153.698 836.26,-155.756 839.812,-161.788"/>
</g>
<!-- Node12&#45;&gt;Node3 -->
<g id="edge19" class="edge"><title>Node12&#45;&gt;Node3</title>
<path fill="none" stroke="midnightblue" d="M586.524,-246.175C562.429,-216.658 491.193,-120.244 541,-67 582.004,-23.1664 1020.64,-39.8638 1080,-31 1089.8,-29.5374 1100.33,-27.3226 1109.88,-25.0612"/>
<polygon fill="midnightblue" stroke="midnightblue" points="1110.91,-28.4122 1119.79,-22.6224 1109.24,-21.6153 1110.91,-28.4122"/>
</g>
<!-- Node12&#45;&gt;Node4 -->
<g id="edge20" class="edge"><title>Node12&#45;&gt;Node4</title>
<path fill="none" stroke="midnightblue" d="M571.959,-246.392C556.165,-239.077 535.693,-227.032 524,-210 486.332,-155.135 482.783,-72.2989 483.274,-35.3953"/>
<polygon fill="midnightblue" stroke="midnightblue" points="486.78,-35.2076 483.537,-25.1213 479.782,-35.0284 486.78,-35.2076"/>
</g>
<!-- Node12&#45;&gt;Node5 -->
<g id="edge21" class="edge"><title>Node12&#45;&gt;Node5</title>
<path fill="none" stroke="midnightblue" d="M594.707,-246.158C595.733,-233.641 597.758,-210.047 600,-190 603.461,-159.052 608.364,-123.164 611.355,-101.948"/>
<polygon fill="midnightblue" stroke="midnightblue" points="614.82,-102.438 612.763,-92.0452 607.89,-101.453 614.82,-102.438"/>
</g>
<!-- Node12&#45;&gt;Node7 -->
<g id="edge22" class="edge"><title>Node12&#45;&gt;Node7</title>
<path fill="none" stroke="midnightblue" d="M597.703,-246.147C603.627,-232.772 616.288,-207.158 633,-190 675.292,-146.58 738.73,-113.302 775.583,-96.2247"/>
<polygon fill="midnightblue" stroke="midnightblue" points="777.136,-99.3633 784.792,-92.0389 774.24,-92.9907 777.136,-99.3633"/>
</g>
<!-- Node12&#45;&gt;Node13 -->
<g id="edge23" class="edge"><title>Node12&#45;&gt;Node13</title>
<path fill="none" stroke="midnightblue" d="M606.05,-246.324C617.463,-238.107 634.831,-225.602 648.435,-215.807"/>
<polygon fill="midnightblue" stroke="midnightblue" points="650.66,-218.517 656.731,-209.834 646.57,-212.837 650.66,-218.517"/>
</g>
<!-- Node12&#45;&gt;Node15 -->
<g id="edge43" class="edge"><title>Node12&#45;&gt;Node15</title>
<path fill="none" stroke="midnightblue" d="M632.34,-254.226C754.876,-251.463 1135.93,-240.571 1255,-210 1298.65,-198.793 1345.37,-174.26 1372.28,-158.745"/>
<polygon fill="midnightblue" stroke="midnightblue" points="1374.09,-161.747 1380.94,-153.67 1370.55,-155.708 1374.09,-161.747"/>
</g>
<!-- Node13&#45;&gt;Node2 -->
<g id="edge25" class="edge"><title>Node13&#45;&gt;Node2</title>
<path fill="none" stroke="midnightblue" d="M695.697,-191.492C728.567,-182.247 784.649,-166.474 822.257,-155.896"/>
<polygon fill="midnightblue" stroke="midnightblue" points="823.661,-159.137 832.34,-153.061 821.766,-152.399 823.661,-159.137"/>
</g>
<!-- Node13&#45;&gt;Node3 -->
<g id="edge26" class="edge"><title>Node13&#45;&gt;Node3</title>
<path fill="none" stroke="midnightblue" d="M691.483,-190.442C714.22,-181.676 750.294,-167.464 781,-154 799.935,-145.698 803.946,-142.026 823,-134 926.39,-90.4495 1052.12,-46.7906 1110.01,-27.1958"/>
<polygon fill="midnightblue" stroke="midnightblue" points="1111.33,-30.445 1119.68,-23.9317 1109.09,-23.8124 1111.33,-30.445"/>
</g>
<!-- Node13&#45;&gt;Node4 -->
<g id="edge27" class="edge"><title>Node13&#45;&gt;Node4</title>
<path fill="none" stroke="midnightblue" d="M674.039,-190.431C686.771,-167.544 717.144,-104.196 687,-67 638.374,-6.99859 590.518,-54.6586 517,-31 515.079,-30.3818 513.118,-29.6892 511.158,-28.9508"/>
<polygon fill="midnightblue" stroke="midnightblue" points="512.132,-25.5674 501.552,-25.0093 509.475,-32.0435 512.132,-25.5674"/>
</g>
<!-- Node13&#45;&gt;Node5 -->
<g id="edge28" class="edge"><title>Node13&#45;&gt;Node5</title>
<path fill="none" stroke="midnightblue" d="M664.866,-190.319C655.908,-171.506 634.546,-126.648 622.55,-101.455"/>
<polygon fill="midnightblue" stroke="midnightblue" points="625.641,-99.8058 618.182,-92.282 619.321,-102.815 625.641,-99.8058"/>
</g>
<!-- Node13&#45;&gt;Node7 -->
<g id="edge30" class="edge"><title>Node13&#45;&gt;Node7</title>
<path fill="none" stroke="midnightblue" d="M679.222,-190.319C702.162,-170.837 757.989,-123.425 786.932,-98.8448"/>
<polygon fill="midnightblue" stroke="midnightblue" points="789.303,-101.423 794.659,-92.282 784.771,-96.0875 789.303,-101.423"/>
</g>
<!-- Node13&#45;&gt;Node8 -->
<g id="edge24" class="edge"><title>Node13&#45;&gt;Node8</title>
<path fill="none" stroke="midnightblue" d="M684.365,-190.424C700.493,-181.407 726.571,-166.782 749,-154 792.25,-129.353 804.055,-124.807 846,-98 866.157,-85.1178 868.452,-77.389 890,-67 941.308,-42.2628 959.376,-50.2059 1013,-31 1014.86,-30.3346 1016.76,-29.6199 1018.67,-28.8773"/>
<polygon fill="midnightblue" stroke="midnightblue" points="1020.16,-32.0492 1028.1,-25.0309 1017.51,-25.5679 1020.16,-32.0492"/>
</g>
<!-- Node14 -->
<g id="node14" class="node"><title>Node14</title>
<polygon fill="white" stroke="#bfbfbf" points="370.5,-134.5 370.5,-153.5 471.5,-153.5 471.5,-134.5 370.5,-134.5"/>
<text text-anchor="middle" x="421" y="-141.5" font-family="Helvetica,sans-Serif" font-size="10.00">boost/variant.hpp</text>
</g>
<!-- Node13&#45;&gt;Node14 -->
<g id="edge29" class="edge"><title>Node13&#45;&gt;Node14</title>
<path fill="none" stroke="midnightblue" d="M642.46,-193.221C601.459,-184.293 522.054,-167.004 470.308,-155.737"/>
<polygon fill="midnightblue" stroke="midnightblue" points="470.863,-152.275 460.348,-153.568 469.374,-159.115 470.863,-152.275"/>
</g>
<!-- Node13&#45;&gt;Node15 -->
<g id="edge31" class="edge"><title>Node13&#45;&gt;Node15</title>
<path fill="none" stroke="midnightblue" d="M695.7,-197.014C803.266,-189.013 1205.79,-159.073 1346.27,-148.625"/>
<polygon fill="midnightblue" stroke="midnightblue" points="1346.6,-152.11 1356.31,-147.878 1346.08,-145.129 1346.6,-152.11"/>
</g>
<!-- Node15&#45;&gt;Node3 -->
<g id="edge34" class="edge"><title>Node15&#45;&gt;Node3</title>
<path fill="none" stroke="midnightblue" d="M1433.8,-137.191C1487.44,-127.608 1574.01,-105.598 1540,-67 1515.88,-39.6315 1264.73,-23.2388 1174.26,-18.1852"/>
<polygon fill="midnightblue" stroke="midnightblue" points="1174.22,-14.6782 1164.05,-17.6251 1173.84,-21.6677 1174.22,-14.6782"/>
</g>
<!-- Node15&#45;&gt;Node4 -->
<g id="edge36" class="edge"><title>Node15&#45;&gt;Node4</title>
<path fill="none" stroke="midnightblue" d="M1358.36,-134.484C1329.6,-127.017 1289.04,-114.734 1256,-98 1234.98,-87.354 1235.23,-74.8159 1213,-67 1066.9,-15.6209 667.694,-66.7356 517,-31 514.637,-30.4396 512.232,-29.7158 509.851,-28.891"/>
<polygon fill="midnightblue" stroke="midnightblue" points="510.965,-25.5666 500.38,-25.0924 508.359,-32.0635 510.965,-25.5666"/>
</g>
<!-- Node15&#45;&gt;Node5 -->
<g id="edge38" class="edge"><title>Node15&#45;&gt;Node5</title>
<path fill="none" stroke="midnightblue" d="M1356.5,-140.608C1257.8,-134.399 987.704,-116.93 763,-98 738.639,-95.9477 712.064,-93.446 688.191,-91.1022"/>
<polygon fill="midnightblue" stroke="midnightblue" points="688.436,-87.6094 678.14,-90.1091 687.747,-94.5755 688.436,-87.6094"/>
</g>
<!-- Node15&#45;&gt;Node7 -->
<g id="edge39" class="edge"><title>Node15&#45;&gt;Node7</title>
<path fill="none" stroke="midnightblue" d="M1356.29,-139.096C1250.61,-128.439 957.77,-98.9064 847.625,-87.7986"/>
<polygon fill="midnightblue" stroke="midnightblue" points="847.849,-84.3035 837.548,-86.7824 847.146,-91.2682 847.849,-84.3035"/>
</g>
<!-- Node16 -->
<g id="node16" class="node"><title>Node16</title>
<polygon fill="white" stroke="#bfbfbf" points="1469,-73 1469,-92 1531,-92 1531,-73 1469,-73"/>
<text text-anchor="middle" x="1500" y="-80" font-family="Helvetica,sans-Serif" font-size="10.00">algorithm</text>
</g>
<!-- Node15&#45;&gt;Node16 -->
<g id="edge32" class="edge"><title>Node15&#45;&gt;Node16</title>
<path fill="none" stroke="midnightblue" d="M1410.04,-134.475C1427.28,-124.711 1455.74,-108.581 1476.03,-97.0808"/>
<polygon fill="midnightblue" stroke="midnightblue" points="1478.01,-99.9843 1484.98,-92.0091 1474.56,-93.8942 1478.01,-99.9843"/>
</g>
<!-- Node17 -->
<g id="node17" class="node"><title>Node17</title>
<polygon fill="white" stroke="#bfbfbf" points="1265,-73 1265,-92 1321,-92 1321,-73 1265,-73"/>
<text text-anchor="middle" x="1293" y="-80" font-family="Helvetica,sans-Serif" font-size="10.00">sstream</text>
</g>
<!-- Node15&#45;&gt;Node17 -->
<g id="edge33" class="edge"><title>Node15&#45;&gt;Node17</title>
<path fill="none" stroke="midnightblue" d="M1380.39,-134.475C1363.65,-124.711 1336,-108.581 1316.28,-97.0808"/>
<polygon fill="midnightblue" stroke="midnightblue" points="1317.99,-94.0246 1307.59,-92.0091 1314.46,-100.071 1317.99,-94.0246"/>
</g>
<!-- Node18 -->
<g id="node18" class="node"><title>Node18</title>
<polygon fill="white" stroke="#bfbfbf" points="1653,-73 1653,-92 1695,-92 1695,-73 1653,-73"/>
<text text-anchor="middle" x="1674" y="-80" font-family="Helvetica,sans-Serif" font-size="10.00">utility</text>
</g>
<!-- Node15&#45;&gt;Node18 -->
<g id="edge35" class="edge"><title>Node15&#45;&gt;Node18</title>
<path fill="none" stroke="midnightblue" d="M1433.76,-139.29C1483.42,-133.795 1571.73,-121.51 1644,-98 1645.66,-97.4587 1647.35,-96.8428 1649.04,-96.1776"/>
<polygon fill="midnightblue" stroke="midnightblue" points="1650.73,-99.2569 1658.45,-92.0032 1647.89,-92.858 1650.73,-99.2569"/>
</g>
<!-- Node19 -->
<g id="node19" class="node"><title>Node19</title>
<polygon fill="white" stroke="#bfbfbf" points="1339,-67.5 1339,-97.5 1451,-97.5 1451,-67.5 1339,-67.5"/>
<text text-anchor="start" x="1347" y="-85.5" font-family="Helvetica,sans-Serif" font-size="10.00">boost/icl/continuous</text>
<text text-anchor="middle" x="1395" y="-74.5" font-family="Helvetica,sans-Serif" font-size="10.00">_interval.hpp</text>
</g>
<!-- Node15&#45;&gt;Node19 -->
<g id="edge37" class="edge"><title>Node15&#45;&gt;Node19</title>
<path fill="none" stroke="midnightblue" d="M1395,-134.475C1395,-127.471 1395,-117.192 1395,-107.696"/>
<polygon fill="midnightblue" stroke="midnightblue" points="1398.5,-107.523 1395,-97.523 1391.5,-107.523 1398.5,-107.523"/>
</g>
<!-- Node20 -->
<g id="node20" class="node"><title>Node20</title>
<g id="a_node20"><a xlink:href="error_8h.xhtml" target="_top" xlink:title="Exceptions for SCRAM. ">
<polygon fill="white" stroke="black" points="1587,-73 1587,-92 1635,-92 1635,-73 1587,-73"/>
<text text-anchor="middle" x="1611" y="-80" font-family="Helvetica,sans-Serif" font-size="10.00">error.h</text>
</a>
</g>
</g>
<!-- Node15&#45;&gt;Node20 -->
<g id="edge40" class="edge"><title>Node15&#45;&gt;Node20</title>
<path fill="none" stroke="midnightblue" d="M1433.56,-134.624C1469.86,-126.416 1525.59,-112.983 1573,-98 1575.42,-97.2367 1577.9,-96.4026 1580.39,-95.5325"/>
<polygon fill="midnightblue" stroke="midnightblue" points="1581.66,-98.7935 1589.85,-92.072 1579.26,-92.2193 1581.66,-98.7935"/>
</g>
<!-- Node20&#45;&gt;Node3 -->
<g id="edge42" class="edge"><title>Node20&#45;&gt;Node3</title>
<path fill="none" stroke="midnightblue" d="M1591.18,-72.8751C1585.41,-70.6566 1579.03,-68.4806 1573,-67 1427.2,-31.2296 1247.23,-20.5483 1174.63,-17.5709"/>
<polygon fill="midnightblue" stroke="midnightblue" points="1174.45,-14.0612 1164.32,-17.1709 1174.18,-21.0559 1174.45,-14.0612"/>
</g>
<!-- Node21 -->
<g id="node21" class="node"><title>Node21</title>
<polygon fill="white" stroke="#bfbfbf" points="1579.5,-6 1579.5,-25 1642.5,-25 1642.5,-6 1579.5,-6"/>
<text text-anchor="middle" x="1611" y="-13" font-family="Helvetica,sans-Serif" font-size="10.00">exception</text>
</g>
<!-- Node20&#45;&gt;Node21 -->
<g id="edge41" class="edge"><title>Node20&#45;&gt;Node21</title>
<path fill="none" stroke="midnightblue" d="M1611,-72.7338C1611,-63.1826 1611,-47.6183 1611,-35.2829"/>
<polygon fill="midnightblue" stroke="midnightblue" points="1614.5,-35.1273 1611,-25.1273 1607.5,-35.1273 1614.5,-35.1273"/>
</g>
<!-- Node22&#45;&gt;Node2 -->
<g id="edge45" class="edge"><title>Node22&#45;&gt;Node2</title>
<path fill="none" stroke="midnightblue" d="M1349.89,-251.033C1275.65,-242.729 1108.1,-223.193 1052,-210 994.03,-196.367 928.816,-172.173 891.548,-157.459"/>
<polygon fill="midnightblue" stroke="midnightblue" points="892.392,-154.028 881.807,-153.577 889.8,-160.53 892.392,-154.028"/>
</g>
<!-- Node22&#45;&gt;Node3 -->
<g id="edge46" class="edge"><title>Node22&#45;&gt;Node3</title>
<path fill="none" stroke="midnightblue" d="M1422.07,-255.951C1471.03,-255.596 1559.54,-248.971 1622,-210 1684.16,-171.217 1753.43,-121.073 1704,-67 1668.1,-27.7317 1288.42,-18.7434 1174.28,-16.9218"/>
<polygon fill="midnightblue" stroke="midnightblue" points="1174.13,-13.4193 1164.08,-16.7672 1174.03,-20.4185 1174.13,-13.4193"/>
</g>
<!-- Node22&#45;&gt;Node4 -->
<g id="edge49" class="edge"><title>Node22&#45;&gt;Node4</title>
<path fill="none" stroke="midnightblue" d="M1374.6,-246.303C1357.04,-233.131 1322.03,-207.778 1290,-190 1236.42,-160.26 1222.31,-152.866 1164,-134 1026.58,-89.5343 988.63,-89.772 846,-67 700.745,-43.8088 659.094,-69.0276 517,-31 514.705,-30.3857 512.364,-29.6347 510.043,-28.801"/>
<polygon fill="midnightblue" stroke="midnightblue" points="511.352,-25.555 500.769,-25.047 508.725,-32.0435 511.352,-25.555"/>
</g>
<!-- Node22&#45;&gt;Node5 -->
<g id="edge50" class="edge"><title>Node22&#45;&gt;Node5</title>
<path fill="none" stroke="midnightblue" d="M1349.84,-249.18C1305.12,-241.66 1226.85,-227.441 1161,-210 1057.34,-182.544 1036.19,-159.383 932,-134 849.643,-113.936 753.278,-99.9229 688.396,-91.8319"/>
<polygon fill="midnightblue" stroke="midnightblue" points="688.613,-88.3322 678.26,-90.5842 687.758,-95.2798 688.613,-88.3322"/>
</g>
<!-- Node22&#45;&gt;Node7 -->
<g id="edge52" class="edge"><title>Node22&#45;&gt;Node7</title>
<path fill="none" stroke="midnightblue" d="M1369.62,-246.446C1344.98,-233.674 1296.8,-209.082 1255,-190 1196.28,-163.197 1183.08,-151.662 1121,-134 1025.53,-106.84 909.401,-92.9929 847.953,-87.1055"/>
<polygon fill="midnightblue" stroke="midnightblue" points="848.133,-83.6073 837.851,-86.1626 847.483,-90.577 848.133,-83.6073"/>
</g>
<!-- Node22&#45;&gt;Node13 -->
<g id="edge53" class="edge"><title>Node22&#45;&gt;Node13</title>
<path fill="none" stroke="midnightblue" d="M1349.67,-250.765C1335.16,-249.151 1318.3,-247.372 1303,-246 1076.3,-225.671 803.323,-208.887 705.818,-203.133"/>
<polygon fill="midnightblue" stroke="midnightblue" points="705.792,-199.626 695.604,-202.533 705.381,-206.614 705.792,-199.626"/>
</g>
<!-- Node22&#45;&gt;Node15 -->
<g id="edge54" class="edge"><title>Node22&#45;&gt;Node15</title>
<path fill="none" stroke="midnightblue" d="M1422.26,-251.826C1472.64,-246.579 1559.8,-234.187 1579,-210 1616.93,-162.203 1510.41,-149.487 1443.92,-146.149"/>
<polygon fill="midnightblue" stroke="midnightblue" points="1443.77,-142.639 1433.62,-145.69 1443.45,-149.632 1443.77,-142.639"/>
</g>
<!-- Node22&#45;&gt;Node18 -->
<g id="edge48" class="edge"><title>Node22&#45;&gt;Node18</title>
<path fill="none" stroke="midnightblue" d="M1422.27,-255.685C1467.27,-254.778 1544.46,-247.279 1597,-210 1635.32,-182.813 1658.17,-129.981 1668.11,-101.969"/>
<polygon fill="midnightblue" stroke="midnightblue" points="1671.51,-102.839 1671.39,-92.2446 1664.87,-100.601 1671.51,-102.839"/>
</g>
<!-- Node23 -->
<g id="node23" class="node"><title>Node23</title>
<polygon fill="white" stroke="#bfbfbf" points="1378,-190.5 1378,-209.5 1446,-209.5 1446,-190.5 1378,-190.5"/>
<text text-anchor="middle" x="1412" y="-197.5" font-family="Helvetica,sans-Serif" font-size="10.00">type_traits</text>
</g>
<!-- Node22&#45;&gt;Node23 -->
<g id="edge47" class="edge"><title>Node22&#45;&gt;Node23</title>
<path fill="none" stroke="midnightblue" d="M1390.29,-246.083C1393.85,-238.691 1399.02,-227.953 1403.42,-218.811"/>
<polygon fill="midnightblue" stroke="midnightblue" points="1406.6,-220.279 1407.79,-209.751 1400.29,-217.243 1406.6,-220.279"/>
</g>
<!-- Node24 -->
<g id="node24" class="node"><title>Node24</title>
<polygon fill="white" stroke="#bfbfbf" points="1464,-190.5 1464,-209.5 1570,-209.5 1570,-190.5 1464,-190.5"/>
<text text-anchor="middle" x="1517" y="-197.5" font-family="Helvetica,sans-Serif" font-size="10.00">boost/optional.hpp</text>
</g>
<!-- Node22&#45;&gt;Node24 -->
<g id="edge51" class="edge"><title>Node22&#45;&gt;Node24</title>
<path fill="none" stroke="midnightblue" d="M1406.76,-246.444C1428.32,-237.557 1462.26,-223.563 1486.79,-213.451"/>
<polygon fill="midnightblue" stroke="midnightblue" points="1488.43,-216.563 1496.34,-209.516 1485.76,-210.092 1488.43,-216.563"/>
</g>
<!-- Node25&#45;&gt;Node2 -->
<g id="edge58" class="edge"><title>Node25&#45;&gt;Node2</title>
<path fill="none" stroke="midnightblue" d="M544.018,-302.458C593.641,-287.655 695.039,-254.504 773,-210 798.705,-195.326 825.724,-174.431 842.932,-160.326"/>
<polygon fill="midnightblue" stroke="midnightblue" points="845.525,-162.722 850.978,-153.638 841.05,-157.339 845.525,-162.722"/>
</g>
<!-- Node25&#45;&gt;Node3 -->
<g id="edge59" class="edge"><title>Node25&#45;&gt;Node3</title>
<path fill="none" stroke="midnightblue" d="M552.588,-303.8C589.151,-296.385 645.268,-283.453 692,-266 868.309,-200.153 1059.21,-73.7003 1121.26,-30.9959"/>
<polygon fill="midnightblue" stroke="midnightblue" points="1123.55,-33.6693 1129.78,-25.1009 1119.57,-27.913 1123.55,-33.6693"/>
</g>
<!-- Node25&#45;&gt;Node4 -->
<g id="edge60" class="edge"><title>Node25&#45;&gt;Node4</title>
<path fill="none" stroke="midnightblue" d="M475.25,-310.769C405.5,-308.092 266,-291.434 266,-201 266,-201 266,-201 266,-143 266,-58.8229 389.099,-29.7239 450.292,-20.459"/>
<polygon fill="midnightblue" stroke="midnightblue" points="450.847,-23.9155 460.255,-19.0434 449.862,-16.9851 450.847,-23.9155"/>
</g>
<!-- Node25&#45;&gt;Node5 -->
<g id="edge61" class="edge"><title>Node25&#45;&gt;Node5</title>
<path fill="none" stroke="midnightblue" d="M475.412,-308.854C442.307,-305.009 395.418,-294.494 366,-266 322.148,-223.526 288.764,-180.771 328,-134 354.501,-102.41 463.88,-90.5721 539.42,-86.1417"/>
<polygon fill="midnightblue" stroke="midnightblue" points="540.051,-89.6122 549.842,-85.5644 539.664,-82.6229 540.051,-89.6122"/>
</g>
<!-- Node25&#45;&gt;Node7 -->
<g id="edge63" class="edge"><title>Node25&#45;&gt;Node7</title>
<path fill="none" stroke="midnightblue" d="M475.432,-304.572C450.566,-298.551 419.213,-287.163 399,-266 356.833,-221.853 320.27,-179.476 361,-134 409.627,-79.7078 614.606,-106.445 687,-98 711.955,-95.089 739.856,-91.6681 762.26,-88.8803"/>
<polygon fill="midnightblue" stroke="midnightblue" points="762.968,-92.3192 772.457,-87.6079 762.101,-85.3731 762.968,-92.3192"/>
</g>
<!-- Node25&#45;&gt;Node12 -->
<g id="edge66" class="edge"><title>Node25&#45;&gt;Node12</title>
<path fill="none" stroke="midnightblue" d="M526.853,-302.324C539.216,-293.979 558.13,-281.212 572.737,-271.352"/>
<polygon fill="midnightblue" stroke="midnightblue" points="574.848,-274.15 581.179,-265.655 570.932,-268.348 574.848,-274.15"/>
</g>
<!-- Node25&#45;&gt;Node14 -->
<g id="edge62" class="edge"><title>Node25&#45;&gt;Node14</title>
<path fill="none" stroke="midnightblue" d="M512.264,-302.245C509.514,-289.43 503.476,-265.023 494,-246 477.854,-213.589 451.618,-180.387 435.386,-161.282"/>
<polygon fill="midnightblue" stroke="midnightblue" points="437.891,-158.827 428.704,-153.549 432.594,-163.404 437.891,-158.827"/>
</g>
<!-- Node26 -->
<g id="node26" class="node"><title>Node26</title>
<g id="a_node26"><a xlink:href="variant_8h.xhtml" target="_top" xlink:title="Extra helper functions for boost::variant. ">
<polygon fill="white" stroke="black" points="408.5,-246.5 408.5,-265.5 485.5,-265.5 485.5,-246.5 408.5,-246.5"/>
<text text-anchor="middle" x="447" y="-253.5" font-family="Helvetica,sans-Serif" font-size="10.00">ext/variant.h</text>
</a>
</g>
</g>
<!-- Node25&#45;&gt;Node26 -->
<g id="edge64" class="edge"><title>Node25&#45;&gt;Node26</title>
<path fill="none" stroke="midnightblue" d="M503.235,-302.324C493.234,-294.263 478.113,-282.077 466.07,-272.369"/>
<polygon fill="midnightblue" stroke="midnightblue" points="467.943,-269.384 457.961,-265.834 463.55,-274.834 467.943,-269.384"/>
</g>
<!-- Node26&#45;&gt;Node14 -->
<g id="edge65" class="edge"><title>Node26&#45;&gt;Node14</title>
<path fill="none" stroke="midnightblue" d="M444.96,-246.368C440.764,-228.617 431.085,-187.666 425.396,-163.597"/>
<polygon fill="midnightblue" stroke="midnightblue" points="428.737,-162.518 423.031,-153.591 421.925,-164.128 428.737,-162.518"/>
</g>
<!-- Node27&#45;&gt;Node3 -->
<g id="edge69" class="edge"><title>Node27&#45;&gt;Node3</title>
<path fill="none" stroke="midnightblue" d="M1809.26,-190.442C1801.56,-181.676 1789.66,-167.464 1781,-154 1757.56,-117.555 1772.92,-91.2374 1737,-67 1690.18,-35.4038 1291.82,-21.0042 1174.43,-17.4214"/>
<polygon fill="midnightblue" stroke="midnightblue" points="1174.38,-13.9183 1164.28,-17.1173 1174.17,-20.9151 1174.38,-13.9183"/>
</g>
<!-- Node27&#45;&gt;Node15 -->
<g id="edge71" class="edge"><title>Node27&#45;&gt;Node15</title>
<path fill="none" stroke="midnightblue" d="M1751.06,-190.562C1665.93,-179.669 1519.75,-160.963 1443.89,-151.256"/>
<polygon fill="midnightblue" stroke="midnightblue" points="1444.03,-147.745 1433.66,-149.947 1443.14,-154.688 1444.03,-147.745"/>
</g>
<!-- Node28 -->
<g id="node28" class="node"><title>Node28</title>
<polygon fill="white" stroke="#bfbfbf" points="1789.5,-134.5 1789.5,-153.5 1882.5,-153.5 1882.5,-134.5 1789.5,-134.5"/>
<text text-anchor="middle" x="1836" y="-141.5" font-family="Helvetica,sans-Serif" font-size="10.00">unordered_map</text>
</g>
<!-- Node27&#45;&gt;Node28 -->
<g id="edge70" class="edge"><title>Node27&#45;&gt;Node28</title>
<path fill="none" stroke="midnightblue" d="M1820.14,-190.083C1822.68,-182.849 1826.36,-172.409 1829.53,-163.397"/>
<polygon fill="midnightblue" stroke="midnightblue" points="1832.9,-164.346 1832.92,-153.751 1826.3,-162.023 1832.9,-164.346"/>
</g>
<!-- Node29&#45;&gt;Node2 -->
<g id="edge73" class="edge"><title>Node29&#45;&gt;Node2</title>
<path fill="none" stroke="midnightblue" d="M1037.2,-302.498C1014.32,-294.969 982.107,-282.594 957,-266 927.373,-246.418 921.979,-237.895 900,-210 888.317,-195.173 877.483,-176.555 870.213,-163.049"/>
<polygon fill="midnightblue" stroke="midnightblue" points="873.14,-161.094 865.395,-153.865 866.942,-164.346 873.14,-161.094"/>
</g>
<!-- Node29&#45;&gt;Node3 -->
<g id="edge74" class="edge"><title>Node29&#45;&gt;Node3</title>
<path fill="none" stroke="midnightblue" d="M1068.58,-302.398C1071.27,-293.359 1075.56,-278.716 1079,-266 1102.3,-179.884 1127.59,-76.3036 1137.58,-34.9037"/>
<polygon fill="midnightblue" stroke="midnightblue" points="1140.99,-35.6875 1139.93,-25.1459 1134.19,-34.0484 1140.99,-35.6875"/>
</g>
<!-- Node29&#45;&gt;Node4 -->
<g id="edge76" class="edge"><title>Node29&#45;&gt;Node4</title>
<path fill="none" stroke="midnightblue" d="M1062.25,-302.454C1048.85,-273.096 1000.27,-175.88 927,-134 862.212,-96.9691 832.717,-124.614 763,-98 736.785,-87.9927 734.361,-76.6157 708,-67 626.847,-37.3976 599.522,-56.5403 517,-31 515.072,-30.4033 513.106,-29.7268 511.142,-29.0002"/>
<polygon fill="midnightblue" stroke="midnightblue" points="512.11,-25.6151 501.528,-25.0853 509.47,-32.0982 512.11,-25.6151"/>
</g>
<!-- Node29&#45;&gt;Node5 -->
<g id="edge77" class="edge"><title>Node29&#45;&gt;Node5</title>
<path fill="none" stroke="midnightblue" d="M1055.27,-302.438C1044.48,-293.67 1027.56,-279.456 1014,-266 958.564,-210.985 966.051,-172.325 898,-134 879.626,-123.652 762.484,-105.059 684.499,-93.5508"/>
<polygon fill="midnightblue" stroke="midnightblue" points="684.647,-90.035 674.244,-92.0449 683.63,-96.9607 684.647,-90.035"/>
</g>
<!-- Node29&#45;&gt;Node7 -->
<g id="edge79" class="edge"><title>Node29&#45;&gt;Node7</title>
<path fill="none" stroke="midnightblue" d="M1066.31,-302.419C1066.87,-272.947 1064.25,-175.403 1008,-134 960.613,-99.1232 891.901,-88.1648 847.834,-84.8194"/>
<polygon fill="midnightblue" stroke="midnightblue" points="847.944,-81.3191 837.735,-84.1532 847.483,-88.3039 847.944,-81.3191"/>
</g>
<!-- Node29&#45;&gt;Node13 -->
<g id="edge80" class="edge"><title>Node29&#45;&gt;Node13</title>
<path fill="none" stroke="midnightblue" d="M1030.33,-304.344C989.389,-296.423 920.357,-282.213 862,-266 804.617,-250.058 739.188,-226.953 701.147,-213.014"/>
<polygon fill="midnightblue" stroke="midnightblue" points="702.223,-209.681 691.63,-209.508 699.803,-216.249 702.223,-209.681"/>
</g>
<!-- Node29&#45;&gt;Node22 -->
<g id="edge78" class="edge"><title>Node29&#45;&gt;Node22</title>
<path fill="none" stroke="midnightblue" d="M1101.78,-304.963C1160.14,-295.114 1275.77,-275.602 1340.1,-264.746"/>
<polygon fill="midnightblue" stroke="midnightblue" points="1340.69,-268.196 1349.96,-263.081 1339.52,-261.294 1340.69,-268.196"/>
</g>
<!-- Node30 -->
<g id="node30" class="node"><title>Node30</title>
<polygon fill="white" stroke="#bfbfbf" points="1208,-246.5 1208,-265.5 1294,-265.5 1294,-246.5 1208,-246.5"/>
<text text-anchor="middle" x="1251" y="-253.5" font-family="Helvetica,sans-Serif" font-size="10.00">unordered_set</text>
</g>
<!-- Node29&#45;&gt;Node30 -->
<g id="edge75" class="edge"><title>Node29&#45;&gt;Node30</title>
<path fill="none" stroke="midnightblue" d="M1095.31,-302.444C1126.84,-293.241 1177.13,-278.562 1211.99,-268.388"/>
<polygon fill="midnightblue" stroke="midnightblue" points="1213.2,-271.678 1221.82,-265.516 1211.24,-264.959 1213.2,-271.678"/>
</g>
<!-- Node29&#45;&gt;Node31 -->
<g id="edge81" class="edge"><title>Node29&#45;&gt;Node31</title>
<path fill="none" stroke="midnightblue" d="M1089.8,-302.409C1108.95,-294.755 1135.89,-282.254 1156,-266 1172.8,-252.417 1187.71,-232.531 1197.21,-218.336"/>
<polygon fill="midnightblue" stroke="midnightblue" points="1200.39,-219.864 1202.88,-209.566 1194.51,-216.064 1200.39,-219.864"/>
</g>
<!-- Node31&#45;&gt;Node2 -->
<g id="edge83" class="edge"><title>Node31&#45;&gt;Node2</title>
<path fill="none" stroke="midnightblue" d="M1169.87,-193.067C1103.36,-182.716 966.837,-161.47 899.833,-151.043"/>
<polygon fill="midnightblue" stroke="midnightblue" points="900.117,-147.545 889.697,-149.466 899.04,-154.462 900.117,-147.545"/>
</g>
<!-- Node31&#45;&gt;Node3 -->
<g id="edge84" class="edge"><title>Node31&#45;&gt;Node3</title>
<path fill="none" stroke="midnightblue" d="M1216.23,-190.322C1226.87,-178.001 1243.24,-154.638 1236,-134 1220.98,-91.1878 1183.08,-52.3861 1160.25,-31.8571"/>
<polygon fill="midnightblue" stroke="midnightblue" points="1162.42,-29.1054 1152.6,-25.147 1157.81,-34.37 1162.42,-29.1054"/>
</g>
<!-- Node31&#45;&gt;Node7 -->
<g id="edge85" class="edge"><title>Node31&#45;&gt;Node7</title>
<path fill="none" stroke="midnightblue" d="M1194.85,-190.373C1172.84,-176.347 1126.76,-148.69 1084,-134 1003.09,-106.202 903.447,-92.8721 847.798,-87.1781"/>
<polygon fill="midnightblue" stroke="midnightblue" points="847.9,-83.6711 837.604,-86.1705 847.211,-90.6372 847.9,-83.6711"/>
</g>
<!-- Node31&#45;&gt;Node8 -->
<g id="edge82" class="edge"><title>Node31&#45;&gt;Node8</title>
<path fill="none" stroke="midnightblue" d="M1200.23,-190.198C1174.89,-161.469 1094.33,-70.1482 1061.32,-32.7288"/>
<polygon fill="midnightblue" stroke="midnightblue" points="1063.93,-30.3976 1054.69,-25.214 1058.68,-35.0285 1063.93,-30.3976"/>
</g>
<!-- Node31&#45;&gt;Node15 -->
<g id="edge86" class="edge"><title>Node31&#45;&gt;Node15</title>
<path fill="none" stroke="midnightblue" d="M1237.63,-190.444C1269.5,-181.241 1320.33,-166.562 1355.56,-156.388"/>
<polygon fill="midnightblue" stroke="midnightblue" points="1356.87,-159.653 1365.51,-153.516 1354.93,-152.928 1356.87,-159.653"/>
</g>
</g>
</svg>
