<?xml version="1.0" encoding="UTF-8" standalone="no"?>
<!DOCTYPE svg PUBLIC "-//W3C//DTD SVG 1.1//EN"
 "http://www.w3.org/Graphics/SVG/1.1/DTD/svg11.dtd">
<!-- Generated by graphviz version 2.38.0 (20140413.2041)
 -->
<!-- Title: model.cc Pages: 1 -->
<svg width="2100pt" height="442pt"
 viewBox="0.00 0.00 2100.00 442.00" xmlns="http://www.w3.org/2000/svg" xmlns:xlink="http://www.w3.org/1999/xlink">
<g id="graph0" class="graph" transform="scale(1 1) rotate(0) translate(4 438)">
<title>model.cc</title>
<polygon fill="white" stroke="none" points="-4,4 -4,-438 2096,-438 2096,4 -4,4"/>
<!-- Node1 -->
<g id="node1" class="node"><title>Node1</title>
<polygon fill="#bfbfbf" stroke="black" points="1896,-414.5 1896,-433.5 1956,-433.5 1956,-414.5 1896,-414.5"/>
<text text-anchor="middle" x="1926" y="-421.5" font-family="Helvetica,sans-Serif" font-size="10.00">model.cc</text>
</g>
<!-- Node2 -->
<g id="node2" class="node"><title>Node2</title>
<g id="a_node2"><a xlink:href="model_8h.xhtml" target="_top" xlink:title="Representation for a model container for risk analysis. ">
<polygon fill="white" stroke="black" points="841,-358.5 841,-377.5 897,-377.5 897,-358.5 841,-358.5"/>
<text text-anchor="middle" x="869" y="-365.5" font-family="Helvetica,sans-Serif" font-size="10.00">model.h</text>
</a>
</g>
</g>
<!-- Node1&#45;&gt;Node2 -->
<g id="edge1" class="edge"><title>Node1&#45;&gt;Node2</title>
<path fill="none" stroke="midnightblue" d="M1895.79,-421.457C1745.08,-413.757 1075.14,-379.531 907.252,-370.954"/>
<polygon fill="midnightblue" stroke="midnightblue" points="907.318,-367.453 897.153,-370.438 906.961,-374.444 907.318,-367.453"/>
</g>
<!-- Node21 -->
<g id="node21" class="node"><title>Node21</title>
<g id="a_node21"><a xlink:href="error_8h.xhtml" target="_top" xlink:title="Exceptions for SCRAM. ">
<polygon fill="white" stroke="black" points="1955,-73 1955,-92 2003,-92 2003,-73 1955,-73"/>
<text text-anchor="middle" x="1979" y="-80" font-family="Helvetica,sans-Serif" font-size="10.00">error.h</text>
</a>
</g>
</g>
<!-- Node1&#45;&gt;Node21 -->
<g id="edge90" class="edge"><title>Node1&#45;&gt;Node21</title>
<path fill="none" stroke="midnightblue" d="M1931.56,-414.269C1942.55,-396.15 1966,-352.828 1966,-313 1966,-313 1966,-313 1966,-199 1966,-164.648 1971.75,-124.908 1975.6,-102.137"/>
<polygon fill="midnightblue" stroke="midnightblue" points="1979.07,-102.611 1977.35,-92.1559 1972.18,-101.4 1979.07,-102.611"/>
</g>
<!-- Node33 -->
<g id="node33" class="node"><title>Node33</title>
<g id="a_node33"><a xlink:href="find__iterator_8h.xhtml" target="_top" xlink:title="Convenience iterator adaptor to wrap find calls and results. ">
<polygon fill="white" stroke="black" points="1836.5,-358.5 1836.5,-377.5 1937.5,-377.5 1937.5,-358.5 1836.5,-358.5"/>
<text text-anchor="middle" x="1887" y="-365.5" font-family="Helvetica,sans-Serif" font-size="10.00">ext/find_iterator.h</text>
</a>
</g>
</g>
<!-- Node1&#45;&gt;Node33 -->
<g id="edge91" class="edge"><title>Node1&#45;&gt;Node33</title>
<path fill="none" stroke="midnightblue" d="M1919.56,-414.083C1914.05,-406.455 1905.97,-395.264 1899.24,-385.941"/>
<polygon fill="midnightblue" stroke="midnightblue" points="1902.01,-383.809 1893.32,-377.751 1896.34,-387.907 1902.01,-383.809"/>
</g>
<!-- Node34 -->
<g id="node34" class="node"><title>Node34</title>
<g id="a_node34"><a xlink:href="multi__index_8h.xhtml" target="_top" xlink:title="Helper functions to boost multi_index_container. ">
<polygon fill="white" stroke="black" points="1994,-358.5 1994,-377.5 2092,-377.5 2092,-358.5 1994,-358.5"/>
<text text-anchor="middle" x="2043" y="-365.5" font-family="Helvetica,sans-Serif" font-size="10.00">ext/multi_index.h</text>
</a>
</g>
</g>
<!-- Node1&#45;&gt;Node34 -->
<g id="edge93" class="edge"><title>Node1&#45;&gt;Node34</title>
<path fill="none" stroke="midnightblue" d="M1944.54,-414.444C1963.62,-405.636 1993.57,-391.812 2015.44,-381.722"/>
<polygon fill="midnightblue" stroke="midnightblue" points="2016.93,-384.885 2024.55,-377.516 2014,-378.529 2016.93,-384.885"/>
</g>
<!-- Node3 -->
<g id="node3" class="node"><title>Node3</title>
<polygon fill="white" stroke="#bfbfbf" points="759.5,-134.5 759.5,-153.5 816.5,-153.5 816.5,-134.5 759.5,-134.5"/>
<text text-anchor="middle" x="788" y="-141.5" font-family="Helvetica,sans-Serif" font-size="10.00">memory</text>
</g>
<!-- Node2&#45;&gt;Node3 -->
<g id="edge2" class="edge"><title>Node2&#45;&gt;Node3</title>
<path fill="none" stroke="midnightblue" d="M865.825,-358.297C853.856,-325.494 811.309,-208.884 794.705,-163.377"/>
<polygon fill="midnightblue" stroke="midnightblue" points="797.957,-162.078 791.241,-153.884 791.381,-164.478 797.957,-162.078"/>
</g>
<!-- Node4 -->
<g id="node4" class="node"><title>Node4</title>
<polygon fill="white" stroke="#bfbfbf" points="1260,-6 1260,-25 1304,-25 1304,-6 1260,-6"/>
<text text-anchor="middle" x="1282" y="-13" font-family="Helvetica,sans-Serif" font-size="10.00">string</text>
</g>
<!-- Node2&#45;&gt;Node4 -->
<g id="edge3" class="edge"><title>Node2&#45;&gt;Node4</title>
<path fill="none" stroke="midnightblue" d="M897.229,-366.871C1021.55,-366.083 1520.8,-360.53 1672,-322 1793.56,-291.023 1927,-326.445 1927,-201 1927,-201 1927,-201 1927,-143 1927,-71.0261 1852.88,-87.8832 1784,-67 1695.33,-40.115 1410.35,-23.176 1314.1,-18.106"/>
<polygon fill="midnightblue" stroke="midnightblue" points="1314.26,-14.6097 1304.09,-17.586 1313.9,-21.6003 1314.26,-14.6097"/>
</g>
<!-- Node5 -->
<g id="node5" class="node"><title>Node5</title>
<polygon fill="white" stroke="#bfbfbf" points="718.5,-6 718.5,-25 765.5,-25 765.5,-6 718.5,-6"/>
<text text-anchor="middle" x="742" y="-13" font-family="Helvetica,sans-Serif" font-size="10.00">vector</text>
</g>
<!-- Node2&#45;&gt;Node5 -->
<g id="edge4" class="edge"><title>Node2&#45;&gt;Node5</title>
<path fill="none" stroke="midnightblue" d="M840.965,-366.818C722.941,-365.817 266.212,-359.548 128,-322 66.428,-305.273 0,-320.804 0,-257 0,-257 0,-257 0,-143 0,-50.8113 103.312,-88.3248 193,-67 384.072,-21.5696 621.549,-16.5231 708.287,-16.3095"/>
<polygon fill="midnightblue" stroke="midnightblue" points="708.341,-19.8096 718.339,-16.3054 708.338,-12.8096 708.341,-19.8096"/>
</g>
<!-- Node6 -->
<g id="node6" class="node"><title>Node6</title>
<polygon fill="white" stroke="#bfbfbf" points="645,-73 645,-92 773,-92 773,-73 645,-73"/>
<text text-anchor="middle" x="709" y="-80" font-family="Helvetica,sans-Serif" font-size="10.00">boost/noncopyable.hpp</text>
</g>
<!-- Node2&#45;&gt;Node6 -->
<g id="edge5" class="edge"><title>Node2&#45;&gt;Node6</title>
<path fill="none" stroke="midnightblue" d="M840.988,-367.123C728.129,-367.317 306.852,-365.085 182,-322 140.282,-307.604 120.606,-305.026 100,-266 58.9933,-188.339 60.6279,-207.446 233,-134 303.501,-103.96 519.481,-90.9927 634.728,-86.0903"/>
<polygon fill="midnightblue" stroke="midnightblue" points="635.035,-89.5807 644.881,-85.6682 634.744,-82.5867 635.035,-89.5807"/>
</g>
<!-- Node7 -->
<g id="node7" class="node"><title>Node7</title>
<g id="a_node7"><a xlink:href="alignment_8h.xhtml" target="_top" xlink:title="Mission and phase constructs. ">
<polygon fill="white" stroke="black" points="191,-302.5 191,-321.5 265,-321.5 265,-302.5 191,-302.5"/>
<text text-anchor="middle" x="228" y="-309.5" font-family="Helvetica,sans-Serif" font-size="10.00">alignment.h</text>
</a>
</g>
</g>
<!-- Node2&#45;&gt;Node7 -->
<g id="edge6" class="edge"><title>Node2&#45;&gt;Node7</title>
<path fill="none" stroke="midnightblue" d="M840.63,-364.61C740.236,-356.153 401.103,-327.583 275.396,-316.993"/>
<polygon fill="midnightblue" stroke="midnightblue" points="275.569,-313.495 265.311,-316.143 274.981,-320.47 275.569,-313.495"/>
</g>
<!-- Node8 -->
<g id="node8" class="node"><title>Node8</title>
<g id="a_node8"><a xlink:href="element_8h.xhtml" target="_top" xlink:title="Helper classes, structs, and properties common to all other classes. ">
<polygon fill="white" stroke="black" points="979.5,-73 979.5,-92 1044.5,-92 1044.5,-73 979.5,-73"/>
<text text-anchor="middle" x="1012" y="-80" font-family="Helvetica,sans-Serif" font-size="10.00">element.h</text>
</a>
</g>
</g>
<!-- Node2&#45;&gt;Node8 -->
<g id="edge56" class="edge"><title>Node2&#45;&gt;Node8</title>
<path fill="none" stroke="midnightblue" d="M858.02,-358.392C818.178,-326.159 686.811,-210.531 750,-134 777.296,-100.941 902.089,-89.287 969.121,-85.3677"/>
<polygon fill="midnightblue" stroke="midnightblue" points="969.568,-88.8485 979.36,-84.803 969.182,-81.8591 969.568,-88.8485"/>
</g>
<!-- Node13 -->
<g id="node13" class="node"><title>Node13</title>
<g id="a_node13"><a xlink:href="instruction_8h.xhtml" target="_top" xlink:title="Model and event tree modifier instructions. ">
<polygon fill="white" stroke="black" points="519,-246.5 519,-265.5 595,-265.5 595,-246.5 519,-246.5"/>
<text text-anchor="middle" x="557" y="-253.5" font-family="Helvetica,sans-Serif" font-size="10.00">instruction.h</text>
</a>
</g>
</g>
<!-- Node2&#45;&gt;Node13 -->
<g id="edge88" class="edge"><title>Node2&#45;&gt;Node13</title>
<path fill="none" stroke="midnightblue" d="M840.881,-359.102C811.138,-350.582 762.943,-336.307 722,-322 674.061,-305.249 619.402,-283.101 586.583,-269.464"/>
<polygon fill="midnightblue" stroke="midnightblue" points="587.707,-266.14 577.13,-265.52 585.012,-272.601 587.707,-266.14"/>
</g>
<!-- Node14 -->
<g id="node14" class="node"><title>Node14</title>
<g id="a_node14"><a xlink:href="event_8h.xhtml" target="_top" xlink:title="Contains event classes for fault trees. ">
<polygon fill="white" stroke="black" points="935.5,-190.5 935.5,-209.5 988.5,-209.5 988.5,-190.5 935.5,-190.5"/>
<text text-anchor="middle" x="962" y="-197.5" font-family="Helvetica,sans-Serif" font-size="10.00">event.h</text>
</a>
</g>
</g>
<!-- Node2&#45;&gt;Node14 -->
<g id="edge57" class="edge"><title>Node2&#45;&gt;Node14</title>
<path fill="none" stroke="midnightblue" d="M874,-358.075C888.766,-331.719 932.376,-253.878 952.106,-218.661"/>
<polygon fill="midnightblue" stroke="midnightblue" points="955.366,-220.003 957.2,-209.568 949.259,-216.582 955.366,-220.003"/>
</g>
<!-- Node16 -->
<g id="node16" class="node"><title>Node16</title>
<g id="a_node16"><a xlink:href="expression_8h.xhtml" target="_top" xlink:title="Provides the base class for all expressions and units for expression values. ">
<polygon fill="white" stroke="black" points="1398.5,-134.5 1398.5,-153.5 1475.5,-153.5 1475.5,-134.5 1398.5,-134.5"/>
<text text-anchor="middle" x="1437" y="-141.5" font-family="Helvetica,sans-Serif" font-size="10.00">expression.h</text>
</a>
</g>
</g>
<!-- Node2&#45;&gt;Node16 -->
<g id="edge68" class="edge"><title>Node2&#45;&gt;Node16</title>
<path fill="none" stroke="midnightblue" d="M897.254,-365.711C1020.15,-359.426 1505.62,-327.354 1586,-210 1613.04,-170.516 1538.89,-154.82 1485.73,-148.723"/>
<polygon fill="midnightblue" stroke="midnightblue" points="1486.06,-145.238 1475.75,-147.659 1485.32,-152.199 1486.06,-145.238"/>
</g>
<!-- Node23 -->
<g id="node23" class="node"><title>Node23</title>
<g id="a_node23"><a xlink:href="ccf__group_8h.xhtml" target="_top" xlink:title="Functional containers for basic events grouped by common cause failure. ">
<polygon fill="white" stroke="black" points="1329,-246.5 1329,-265.5 1401,-265.5 1401,-246.5 1329,-246.5"/>
<text text-anchor="middle" x="1365" y="-253.5" font-family="Helvetica,sans-Serif" font-size="10.00">ccf_group.h</text>
</a>
</g>
</g>
<!-- Node2&#45;&gt;Node23 -->
<g id="edge45" class="edge"><title>Node2&#45;&gt;Node23</title>
<path fill="none" stroke="midnightblue" d="M897.108,-365.436C975.491,-360.817 1195.19,-346.03 1263,-322 1295.27,-310.566 1327.8,-287.333 1347.18,-271.967"/>
<polygon fill="midnightblue" stroke="midnightblue" points="1349.55,-274.551 1355.11,-265.531 1345.14,-269.116 1349.55,-274.551"/>
</g>
<!-- Node26 -->
<g id="node26" class="node"><title>Node26</title>
<g id="a_node26"><a xlink:href="event__tree_8h.xhtml" target="_top" xlink:title="Event Tree facilities. ">
<polygon fill="white" stroke="black" points="437.5,-302.5 437.5,-321.5 514.5,-321.5 514.5,-302.5 437.5,-302.5"/>
<text text-anchor="middle" x="476" y="-309.5" font-family="Helvetica,sans-Serif" font-size="10.00">event_tree.h</text>
</a>
</g>
</g>
<!-- Node2&#45;&gt;Node26 -->
<g id="edge58" class="edge"><title>Node2&#45;&gt;Node26</title>
<path fill="none" stroke="midnightblue" d="M840.736,-363.116C774.338,-353.993 607.76,-331.104 524.687,-319.69"/>
<polygon fill="midnightblue" stroke="midnightblue" points="525.124,-316.217 514.741,-318.323 524.171,-323.152 525.124,-316.217"/>
</g>
<!-- Node28 -->
<g id="node28" class="node"><title>Node28</title>
<g id="a_node28"><a xlink:href="test__event_8h.xhtml" target="_top" xlink:title="Event tree analysis expressions to test functional and initiating events. ">
<polygon fill="white" stroke="black" points="1729.5,-190.5 1729.5,-209.5 1860.5,-209.5 1860.5,-190.5 1729.5,-190.5"/>
<text text-anchor="middle" x="1795" y="-197.5" font-family="Helvetica,sans-Serif" font-size="10.00">expression/test_event.h</text>
</a>
</g>
</g>
<!-- Node2&#45;&gt;Node28 -->
<g id="edge69" class="edge"><title>Node2&#45;&gt;Node28</title>
<path fill="none" stroke="midnightblue" d="M897.036,-366.345C1027.11,-363.171 1568.48,-348.467 1639,-322 1699.49,-299.298 1755.48,-244.424 1780.8,-217.066"/>
<polygon fill="midnightblue" stroke="midnightblue" points="1783.51,-219.282 1787.64,-209.524 1778.33,-214.577 1783.51,-219.282"/>
</g>
<!-- Node30 -->
<g id="node30" class="node"><title>Node30</title>
<g id="a_node30"><a xlink:href="fault__tree_8h.xhtml" target="_top" xlink:title="Fault Tree and Component containers. ">
<polygon fill="white" stroke="black" points="1007.5,-302.5 1007.5,-321.5 1078.5,-321.5 1078.5,-302.5 1007.5,-302.5"/>
<text text-anchor="middle" x="1043" y="-309.5" font-family="Helvetica,sans-Serif" font-size="10.00">fault_tree.h</text>
</a>
</g>
</g>
<!-- Node2&#45;&gt;Node30 -->
<g id="edge73" class="edge"><title>Node2&#45;&gt;Node30</title>
<path fill="none" stroke="midnightblue" d="M896.571,-358.444C926.097,-349.28 973.118,-334.688 1005.88,-324.519"/>
<polygon fill="midnightblue" stroke="midnightblue" points="1007.04,-327.823 1015.56,-321.516 1004.97,-321.138 1007.04,-327.823"/>
</g>
<!-- Node32 -->
<g id="node32" class="node"><title>Node32</title>
<g id="a_node32"><a xlink:href="parameter_8h.xhtml" target="_top" xlink:title="Parameter expressions that act like a shareable variable. ">
<polygon fill="white" stroke="black" points="1121,-190.5 1121,-209.5 1197,-209.5 1197,-190.5 1121,-190.5"/>
<text text-anchor="middle" x="1159" y="-197.5" font-family="Helvetica,sans-Serif" font-size="10.00">parameter.h</text>
</a>
</g>
</g>
<!-- Node2&#45;&gt;Node32 -->
<g id="edge89" class="edge"><title>Node2&#45;&gt;Node32</title>
<path fill="none" stroke="midnightblue" d="M897.16,-363.718C975.312,-353.946 1191.67,-322.177 1230,-266 1244.45,-244.824 1216.09,-225.686 1191.03,-213.748"/>
<polygon fill="midnightblue" stroke="midnightblue" points="1192.24,-210.455 1181.69,-209.536 1189.37,-216.837 1192.24,-210.455"/>
</g>
<!-- Node7&#45;&gt;Node3 -->
<g id="edge7" class="edge"><title>Node7&#45;&gt;Node3</title>
<path fill="none" stroke="midnightblue" d="M237.768,-302.378C254.183,-288.359 288.865,-260.713 323,-246 472.536,-181.546 667.469,-156.469 749.24,-148.343"/>
<polygon fill="midnightblue" stroke="midnightblue" points="749.709,-151.814 759.327,-147.37 749.037,-144.846 749.709,-151.814"/>
</g>
<!-- Node7&#45;&gt;Node4 -->
<g id="edge8" class="edge"><title>Node7&#45;&gt;Node4</title>
<path fill="none" stroke="midnightblue" d="M222.413,-302.469C217.037,-293.724 209.257,-279.527 206,-266 191.982,-207.783 185.422,-170.361 233,-134 370.333,-29.0431 1114,-33.8916 1148,-31 1182.79,-28.0418 1222.54,-23.6067 1249.65,-20.421"/>
<polygon fill="midnightblue" stroke="midnightblue" points="1250.22,-23.8779 1259.74,-19.2247 1249.4,-16.9266 1250.22,-23.8779"/>
</g>
<!-- Node7&#45;&gt;Node5 -->
<g id="edge9" class="edge"><title>Node7&#45;&gt;Node5</title>
<path fill="none" stroke="midnightblue" d="M190.817,-302.941C156.994,-294.767 110.757,-281.185 100,-266 80.474,-238.438 84.1939,-219.851 100,-190 145.513,-104.044 189.736,-100.624 281,-67 359.667,-38.0172 615.421,-22.7696 708.084,-18.0902"/>
<polygon fill="midnightblue" stroke="midnightblue" points="708.488,-21.5745 718.302,-17.5838 708.141,-14.5831 708.488,-21.5745"/>
</g>
<!-- Node7&#45;&gt;Node6 -->
<g id="edge10" class="edge"><title>Node7&#45;&gt;Node6</title>
<path fill="none" stroke="midnightblue" d="M224.26,-302.407C215.972,-282.048 198.012,-229.612 214,-190 226.941,-157.938 237,-149.312 268,-134 300.1,-118.144 517.981,-98.6974 635.006,-89.2282"/>
<polygon fill="midnightblue" stroke="midnightblue" points="635.288,-92.717 644.975,-88.426 634.726,-85.7395 635.288,-92.717"/>
</g>
<!-- Node7&#45;&gt;Node8 -->
<g id="edge11" class="edge"><title>Node7&#45;&gt;Node8</title>
<path fill="none" stroke="midnightblue" d="M227.713,-302.127C227.291,-272.551 230.351,-176.791 285,-134 288.393,-131.343 813.155,-96.5935 968.905,-86.3334"/>
<polygon fill="midnightblue" stroke="midnightblue" points="969.298,-89.8152 979.046,-85.6656 968.838,-82.8304 969.298,-89.8152"/>
</g>
<!-- Node7&#45;&gt;Node13 -->
<g id="edge18" class="edge"><title>Node7&#45;&gt;Node13</title>
<path fill="none" stroke="midnightblue" d="M265.101,-304.91C324.84,-295.105 442.337,-275.82 508.591,-264.946"/>
<polygon fill="midnightblue" stroke="midnightblue" points="509.467,-268.349 518.768,-263.275 508.333,-261.441 509.467,-268.349"/>
</g>
<!-- Node8&#45;&gt;Node4 -->
<g id="edge13" class="edge"><title>Node8&#45;&gt;Node4</title>
<path fill="none" stroke="midnightblue" d="M1044.57,-73.6595C1096.66,-61.1185 1198.12,-36.6935 1249.91,-24.2256"/>
<polygon fill="midnightblue" stroke="midnightblue" points="1250.97,-27.5702 1259.87,-21.8268 1249.33,-20.7646 1250.97,-27.5702"/>
</g>
<!-- Node8&#45;&gt;Node5 -->
<g id="edge14" class="edge"><title>Node8&#45;&gt;Node5</title>
<path fill="none" stroke="midnightblue" d="M986.288,-72.9986C979.415,-70.8827 971.962,-68.7277 965,-67 881.583,-46.299 857.092,-56.4505 775,-31 773.072,-30.4024 771.107,-29.7252 769.143,-28.9981"/>
<polygon fill="midnightblue" stroke="midnightblue" points="770.111,-25.613 759.529,-25.082 767.47,-32.0959 770.111,-25.613"/>
</g>
<!-- Node9 -->
<g id="node9" class="node"><title>Node9</title>
<polygon fill="white" stroke="#bfbfbf" points="1090.5,-6 1090.5,-25 1139.5,-25 1139.5,-6 1090.5,-6"/>
<text text-anchor="middle" x="1115" y="-13" font-family="Helvetica,sans-Serif" font-size="10.00">cstdint</text>
</g>
<!-- Node8&#45;&gt;Node9 -->
<g id="edge12" class="edge"><title>Node8&#45;&gt;Node9</title>
<path fill="none" stroke="midnightblue" d="M1025.89,-72.7338C1043.03,-61.9156 1072.4,-43.3832 1092.71,-30.5659"/>
<polygon fill="midnightblue" stroke="midnightblue" points="1094.74,-33.4241 1101.33,-25.1273 1091,-27.5043 1094.74,-33.4241"/>
</g>
<!-- Node10 -->
<g id="node10" class="node"><title>Node10</title>
<polygon fill="white" stroke="#bfbfbf" points="1530,-6 1530,-25 1702,-25 1702,-6 1530,-6"/>
<text text-anchor="middle" x="1616" y="-13" font-family="Helvetica,sans-Serif" font-size="10.00">boost/multi_index_container.hpp</text>
</g>
<!-- Node8&#45;&gt;Node10 -->
<g id="edge15" class="edge"><title>Node8&#45;&gt;Node10</title>
<path fill="none" stroke="midnightblue" d="M1044.9,-77.9592C1135.38,-68.2219 1390.27,-40.7923 1526.89,-26.0901"/>
<polygon fill="midnightblue" stroke="midnightblue" points="1527.35,-29.5607 1536.92,-25.0108 1526.6,-22.6009 1527.35,-29.5607"/>
</g>
<!-- Node11 -->
<g id="node11" class="node"><title>Node11</title>
<polygon fill="white" stroke="#bfbfbf" points="784,-0.5 784,-30.5 924,-30.5 924,-0.5 784,-0.5"/>
<text text-anchor="start" x="792" y="-18.5" font-family="Helvetica,sans-Serif" font-size="10.00">boost/multi_index/hashed</text>
<text text-anchor="middle" x="854" y="-7.5" font-family="Helvetica,sans-Serif" font-size="10.00">_index.hpp</text>
</g>
<!-- Node8&#45;&gt;Node11 -->
<g id="edge16" class="edge"><title>Node8&#45;&gt;Node11</title>
<path fill="none" stroke="midnightblue" d="M991.019,-72.8685C967.31,-63.115 928.064,-46.9696 897.637,-34.452"/>
<polygon fill="midnightblue" stroke="midnightblue" points="898.679,-31.0959 888.099,-30.5281 896.015,-37.5695 898.679,-31.0959"/>
</g>
<!-- Node12 -->
<g id="node12" class="node"><title>Node12</title>
<polygon fill="white" stroke="#bfbfbf" points="942,-0.5 942,-30.5 1072,-30.5 1072,-0.5 942,-0.5"/>
<text text-anchor="start" x="950" y="-18.5" font-family="Helvetica,sans-Serif" font-size="10.00">boost/multi_index/mem</text>
<text text-anchor="middle" x="1007" y="-7.5" font-family="Helvetica,sans-Serif" font-size="10.00">_fun.hpp</text>
</g>
<!-- Node8&#45;&gt;Node12 -->
<g id="edge17" class="edge"><title>Node8&#45;&gt;Node12</title>
<path fill="none" stroke="midnightblue" d="M1011.33,-72.7338C1010.7,-64.5406 1009.72,-51.9225 1008.86,-40.7136"/>
<polygon fill="midnightblue" stroke="midnightblue" points="1012.34,-40.2911 1008.08,-30.589 1005.36,-40.828 1012.34,-40.2911"/>
</g>
<!-- Node13&#45;&gt;Node3 -->
<g id="edge19" class="edge"><title>Node13&#45;&gt;Node3</title>
<path fill="none" stroke="midnightblue" d="M575.126,-246.368C615.525,-227.131 713.14,-180.648 760.844,-157.931"/>
<polygon fill="midnightblue" stroke="midnightblue" points="762.434,-161.051 769.958,-153.591 759.425,-154.731 762.434,-161.051"/>
</g>
<!-- Node13&#45;&gt;Node4 -->
<g id="edge20" class="edge"><title>Node13&#45;&gt;Node4</title>
<path fill="none" stroke="midnightblue" d="M552.605,-246.15C546.951,-233.625 538.377,-210.021 543,-190 556.684,-130.735 552.508,-100.914 603,-67 653.379,-33.1625 1087.54,-36.2656 1148,-31 1182.78,-27.9709 1222.53,-23.5476 1249.65,-20.384"/>
<polygon fill="midnightblue" stroke="midnightblue" points="1250.22,-23.8414 1259.74,-19.1969 1249.4,-16.8894 1250.22,-23.8414"/>
</g>
<!-- Node13&#45;&gt;Node5 -->
<g id="edge21" class="edge"><title>Node13&#45;&gt;Node5</title>
<path fill="none" stroke="midnightblue" d="M525.191,-246.385C507.054,-239.661 485.836,-228.306 475,-210 454.886,-176.018 377.264,-187.867 486,-67 515.214,-34.527 645.683,-22.3211 708.279,-18.275"/>
<polygon fill="midnightblue" stroke="midnightblue" points="708.662,-21.7582 718.429,-17.6524 708.233,-14.7713 708.662,-21.7582"/>
</g>
<!-- Node13&#45;&gt;Node6 -->
<g id="edge22" class="edge"><title>Node13&#45;&gt;Node6</title>
<path fill="none" stroke="midnightblue" d="M553.358,-246.411C548.433,-233.381 541.314,-208.21 551,-190 576.74,-141.608 635.349,-111.244 673.496,-95.8428"/>
<polygon fill="midnightblue" stroke="midnightblue" points="675.144,-98.9575 683.195,-92.0703 672.606,-92.4336 675.144,-98.9575"/>
</g>
<!-- Node13&#45;&gt;Node8 -->
<g id="edge23" class="edge"><title>Node13&#45;&gt;Node8</title>
<path fill="none" stroke="midnightblue" d="M565.392,-246.217C587.678,-223.483 651.161,-162.5 717,-134 801.344,-97.49 909.967,-87.3238 969.052,-84.5273"/>
<polygon fill="midnightblue" stroke="midnightblue" points="969.301,-88.02 979.143,-84.0992 969.004,-81.0263 969.301,-88.02"/>
</g>
<!-- Node13&#45;&gt;Node14 -->
<g id="edge24" class="edge"><title>Node13&#45;&gt;Node14</title>
<path fill="none" stroke="midnightblue" d="M595.101,-249.92C672.773,-239.564 848.53,-216.129 925.142,-205.914"/>
<polygon fill="midnightblue" stroke="midnightblue" points="925.824,-209.355 935.274,-204.563 924.899,-202.416 925.824,-209.355"/>
</g>
<!-- Node13&#45;&gt;Node16 -->
<g id="edge44" class="edge"><title>Node13&#45;&gt;Node16</title>
<path fill="none" stroke="midnightblue" d="M595,-255.073C695.53,-254.684 976.48,-249.815 1206,-210 1277.4,-197.614 1358.43,-172.049 1403.03,-156.934"/>
<polygon fill="midnightblue" stroke="midnightblue" points="1404.44,-160.151 1412.77,-153.603 1402.17,-153.528 1404.44,-160.151"/>
</g>
<!-- Node14&#45;&gt;Node3 -->
<g id="edge26" class="edge"><title>Node14&#45;&gt;Node3</title>
<path fill="none" stroke="midnightblue" d="M935.194,-190.681C905.734,-181.538 858.213,-166.79 825.166,-156.534"/>
<polygon fill="midnightblue" stroke="midnightblue" points="825.999,-153.128 815.411,-153.507 823.924,-159.814 825.999,-153.128"/>
</g>
<!-- Node14&#45;&gt;Node4 -->
<g id="edge27" class="edge"><title>Node14&#45;&gt;Node4</title>
<path fill="none" stroke="midnightblue" d="M977.005,-190.442C1028.13,-161.285 1195.81,-65.6573 1258.27,-30.0337"/>
<polygon fill="midnightblue" stroke="midnightblue" points="1260.07,-33.0335 1267.03,-25.0391 1256.61,-26.9529 1260.07,-33.0335"/>
</g>
<!-- Node14&#45;&gt;Node5 -->
<g id="edge28" class="edge"><title>Node14&#45;&gt;Node5</title>
<path fill="none" stroke="midnightblue" d="M951.684,-190.442C917.04,-161.704 804.555,-68.3926 760.211,-31.6067"/>
<polygon fill="midnightblue" stroke="midnightblue" points="762.225,-28.7299 752.294,-25.0391 757.756,-34.1175 762.225,-28.7299"/>
</g>
<!-- Node14&#45;&gt;Node6 -->
<g id="edge29" class="edge"><title>Node14&#45;&gt;Node6</title>
<path fill="none" stroke="midnightblue" d="M944.351,-190.402C918.343,-177.782 868.136,-153.616 825,-134 795.783,-120.714 762.126,-106.141 738.617,-96.0802"/>
<polygon fill="midnightblue" stroke="midnightblue" points="739.776,-92.7696 729.205,-92.0613 737.027,-99.2073 739.776,-92.7696"/>
</g>
<!-- Node14&#45;&gt;Node8 -->
<g id="edge31" class="edge"><title>Node14&#45;&gt;Node8</title>
<path fill="none" stroke="midnightblue" d="M965.758,-190.319C973.866,-171.59 993.149,-127.046 1004.08,-101.792"/>
<polygon fill="midnightblue" stroke="midnightblue" points="1007.44,-102.85 1008.2,-92.282 1001.01,-100.069 1007.44,-102.85"/>
</g>
<!-- Node14&#45;&gt;Node9 -->
<g id="edge25" class="edge"><title>Node14&#45;&gt;Node9</title>
<path fill="none" stroke="midnightblue" d="M970.287,-190.302C986.591,-173.081 1023.79,-133.26 1053,-98 1070.99,-76.2836 1090.49,-50.1883 1102.72,-33.4785"/>
<polygon fill="midnightblue" stroke="midnightblue" points="1105.66,-35.3928 1108.71,-25.2483 1100,-31.2728 1105.66,-35.3928"/>
</g>
<!-- Node15 -->
<g id="node15" class="node"><title>Node15</title>
<polygon fill="white" stroke="#bfbfbf" points="294.5,-134.5 294.5,-153.5 395.5,-153.5 395.5,-134.5 294.5,-134.5"/>
<text text-anchor="middle" x="345" y="-141.5" font-family="Helvetica,sans-Serif" font-size="10.00">boost/variant.hpp</text>
</g>
<!-- Node14&#45;&gt;Node15 -->
<g id="edge30" class="edge"><title>Node14&#45;&gt;Node15</title>
<path fill="none" stroke="midnightblue" d="M935.488,-196.68C843.636,-188.641 537.465,-161.845 405.918,-150.332"/>
<polygon fill="midnightblue" stroke="midnightblue" points="405.89,-146.816 395.623,-149.431 405.279,-153.789 405.89,-146.816"/>
</g>
<!-- Node14&#45;&gt;Node16 -->
<g id="edge32" class="edge"><title>Node14&#45;&gt;Node16</title>
<path fill="none" stroke="midnightblue" d="M988.556,-195.981C1065.36,-187.25 1288.56,-161.875 1388.1,-150.56"/>
<polygon fill="midnightblue" stroke="midnightblue" points="1388.65,-154.02 1398.19,-149.412 1387.86,-147.064 1388.65,-154.02"/>
</g>
<!-- Node16&#45;&gt;Node4 -->
<g id="edge35" class="edge"><title>Node16&#45;&gt;Node4</title>
<path fill="none" stroke="midnightblue" d="M1475.78,-139.219C1536.33,-131.848 1642.62,-112.145 1604,-67 1566.93,-23.6584 1388.58,-17.2616 1314.43,-16.5003"/>
<polygon fill="midnightblue" stroke="midnightblue" points="1314.31,-12.9994 1304.28,-16.4252 1314.25,-19.9992 1314.31,-12.9994"/>
</g>
<!-- Node16&#45;&gt;Node5 -->
<g id="edge37" class="edge"><title>Node16&#45;&gt;Node5</title>
<path fill="none" stroke="midnightblue" d="M1415.96,-134.425C1375.23,-118.237 1282.45,-83.3357 1201,-67 1014.7,-29.6374 959.141,-77.8528 775,-31 772.697,-30.4141 770.352,-29.6831 768.027,-28.8628"/>
<polygon fill="midnightblue" stroke="midnightblue" points="769.331,-25.6148 758.747,-25.1319 766.719,-32.1095 769.331,-25.6148"/>
</g>
<!-- Node16&#45;&gt;Node6 -->
<g id="edge39" class="edge"><title>Node16&#45;&gt;Node6</title>
<path fill="none" stroke="midnightblue" d="M1398.37,-139.843C1282.5,-130.373 936.418,-102.087 783.292,-89.5719"/>
<polygon fill="midnightblue" stroke="midnightblue" points="783.3,-86.061 773.048,-88.7347 782.729,-93.0377 783.3,-86.061"/>
</g>
<!-- Node16&#45;&gt;Node8 -->
<g id="edge40" class="edge"><title>Node16&#45;&gt;Node8</title>
<path fill="none" stroke="midnightblue" d="M1398.16,-137.562C1318.57,-126.42 1137.52,-101.073 1054.74,-89.4836"/>
<polygon fill="midnightblue" stroke="midnightblue" points="1055.06,-85.9946 1044.67,-88.0742 1054.09,-92.927 1055.06,-85.9946"/>
</g>
<!-- Node17 -->
<g id="node17" class="node"><title>Node17</title>
<polygon fill="white" stroke="#bfbfbf" points="1329,-73 1329,-92 1391,-92 1391,-73 1329,-73"/>
<text text-anchor="middle" x="1360" y="-80" font-family="Helvetica,sans-Serif" font-size="10.00">algorithm</text>
</g>
<!-- Node16&#45;&gt;Node17 -->
<g id="edge33" class="edge"><title>Node16&#45;&gt;Node17</title>
<path fill="none" stroke="midnightblue" d="M1425.97,-134.475C1413.73,-125.02 1393.77,-109.596 1379.01,-98.1871"/>
<polygon fill="midnightblue" stroke="midnightblue" points="1381.06,-95.3541 1371.01,-92.0091 1376.78,-100.893 1381.06,-95.3541"/>
</g>
<!-- Node18 -->
<g id="node18" class="node"><title>Node18</title>
<polygon fill="white" stroke="#bfbfbf" points="1409,-73 1409,-92 1465,-92 1465,-73 1409,-73"/>
<text text-anchor="middle" x="1437" y="-80" font-family="Helvetica,sans-Serif" font-size="10.00">sstream</text>
</g>
<!-- Node16&#45;&gt;Node18 -->
<g id="edge34" class="edge"><title>Node16&#45;&gt;Node18</title>
<path fill="none" stroke="midnightblue" d="M1437,-134.475C1437,-126.08 1437,-112.981 1437,-102.163"/>
<polygon fill="midnightblue" stroke="midnightblue" points="1440.5,-102.009 1437,-92.0091 1433.5,-102.009 1440.5,-102.009"/>
</g>
<!-- Node19 -->
<g id="node19" class="node"><title>Node19</title>
<polygon fill="white" stroke="#bfbfbf" points="1651,-73 1651,-92 1693,-92 1693,-73 1651,-73"/>
<text text-anchor="middle" x="1672" y="-80" font-family="Helvetica,sans-Serif" font-size="10.00">utility</text>
</g>
<!-- Node16&#45;&gt;Node19 -->
<g id="edge36" class="edge"><title>Node16&#45;&gt;Node19</title>
<path fill="none" stroke="midnightblue" d="M1475.86,-136.302C1516.55,-128.817 1582.04,-115.426 1637,-98 1639.14,-97.3216 1641.33,-96.5665 1643.52,-95.767"/>
<polygon fill="midnightblue" stroke="midnightblue" points="1644.92,-98.9775 1652.96,-92.0797 1642.38,-92.457 1644.92,-98.9775"/>
</g>
<!-- Node20 -->
<g id="node20" class="node"><title>Node20</title>
<polygon fill="white" stroke="#bfbfbf" points="1483,-67.5 1483,-97.5 1595,-97.5 1595,-67.5 1483,-67.5"/>
<text text-anchor="start" x="1491" y="-85.5" font-family="Helvetica,sans-Serif" font-size="10.00">boost/icl/continuous</text>
<text text-anchor="middle" x="1539" y="-74.5" font-family="Helvetica,sans-Serif" font-size="10.00">_interval.hpp</text>
</g>
<!-- Node16&#45;&gt;Node20 -->
<g id="edge38" class="edge"><title>Node16&#45;&gt;Node20</title>
<path fill="none" stroke="midnightblue" d="M1451.61,-134.475C1465.82,-126.191 1487.87,-113.325 1506.27,-102.591"/>
<polygon fill="midnightblue" stroke="midnightblue" points="1508.09,-105.585 1514.96,-97.523 1504.56,-99.5385 1508.09,-105.585"/>
</g>
<!-- Node16&#45;&gt;Node21 -->
<g id="edge41" class="edge"><title>Node16&#45;&gt;Node21</title>
<path fill="none" stroke="midnightblue" d="M1475.54,-138.769C1576.71,-127.662 1848.64,-97.8107 1944.76,-87.2584"/>
<polygon fill="midnightblue" stroke="midnightblue" points="1945.26,-90.7255 1954.81,-86.155 1944.49,-83.7673 1945.26,-90.7255"/>
</g>
<!-- Node21&#45;&gt;Node4 -->
<g id="edge43" class="edge"><title>Node21&#45;&gt;Node4</title>
<path fill="none" stroke="midnightblue" d="M1959.61,-72.8697C1953.74,-70.5948 1947.2,-68.39 1941,-67 1879.52,-53.2203 1438.51,-25.9164 1314.42,-18.4347"/>
<polygon fill="midnightblue" stroke="midnightblue" points="1314.26,-14.9189 1304.06,-17.8124 1313.84,-21.9063 1314.26,-14.9189"/>
</g>
<!-- Node22 -->
<g id="node22" class="node"><title>Node22</title>
<polygon fill="white" stroke="#bfbfbf" points="1947.5,-6 1947.5,-25 2010.5,-25 2010.5,-6 1947.5,-6"/>
<text text-anchor="middle" x="1979" y="-13" font-family="Helvetica,sans-Serif" font-size="10.00">exception</text>
</g>
<!-- Node21&#45;&gt;Node22 -->
<g id="edge42" class="edge"><title>Node21&#45;&gt;Node22</title>
<path fill="none" stroke="midnightblue" d="M1979,-72.7338C1979,-63.1826 1979,-47.6183 1979,-35.2829"/>
<polygon fill="midnightblue" stroke="midnightblue" points="1982.5,-35.1273 1979,-25.1273 1975.5,-35.1273 1982.5,-35.1273"/>
</g>
<!-- Node23&#45;&gt;Node3 -->
<g id="edge46" class="edge"><title>Node23&#45;&gt;Node3</title>
<path fill="none" stroke="midnightblue" d="M1328.89,-252.002C1230.84,-243.764 964.43,-220.684 926,-210 924.545,-209.596 855.064,-176.75 815.264,-157.911"/>
<polygon fill="midnightblue" stroke="midnightblue" points="816.615,-154.678 806.079,-153.563 813.619,-161.005 816.615,-154.678"/>
</g>
<!-- Node23&#45;&gt;Node4 -->
<g id="edge47" class="edge"><title>Node23&#45;&gt;Node4</title>
<path fill="none" stroke="midnightblue" d="M1401.13,-255.869C1451.71,-255.509 1544.92,-248.98 1612,-210 1676.93,-172.271 1751.83,-123.181 1702,-67 1676.31,-38.0347 1407.96,-22.5229 1314.16,-17.9542"/>
<polygon fill="midnightblue" stroke="midnightblue" points="1314.27,-14.4557 1304.11,-17.4746 1313.93,-21.4477 1314.27,-14.4557"/>
</g>
<!-- Node23&#45;&gt;Node5 -->
<g id="edge50" class="edge"><title>Node23&#45;&gt;Node5</title>
<path fill="none" stroke="midnightblue" d="M1352.34,-246.349C1333.65,-233.664 1297.51,-209.418 1266,-190 1172.94,-132.644 1156.55,-102.034 1053,-67 934.984,-27.0728 895.027,-64.3981 775,-31 772.845,-30.4003 770.648,-29.6853 768.463,-28.8989"/>
<polygon fill="midnightblue" stroke="midnightblue" points="769.711,-25.6284 759.128,-25.1305 767.091,-32.1195 769.711,-25.6284"/>
</g>
<!-- Node23&#45;&gt;Node6 -->
<g id="edge51" class="edge"><title>Node23&#45;&gt;Node6</title>
<path fill="none" stroke="midnightblue" d="M1328.66,-250.033C1279.25,-242.939 1188.27,-228.671 1112,-210 1039.7,-192.301 828.663,-123.13 744.374,-95.246"/>
<polygon fill="midnightblue" stroke="midnightblue" points="745.334,-91.8772 734.741,-92.0565 743.134,-98.5224 745.334,-91.8772"/>
</g>
<!-- Node23&#45;&gt;Node8 -->
<g id="edge53" class="edge"><title>Node23&#45;&gt;Node8</title>
<path fill="none" stroke="midnightblue" d="M1347.49,-246.495C1290.21,-218.666 1108.09,-130.182 1038.96,-96.5989"/>
<polygon fill="midnightblue" stroke="midnightblue" points="1040.14,-93.2779 1029.61,-92.056 1037.08,-99.5742 1040.14,-93.2779"/>
</g>
<!-- Node23&#45;&gt;Node14 -->
<g id="edge54" class="edge"><title>Node23&#45;&gt;Node14</title>
<path fill="none" stroke="midnightblue" d="M1328.88,-250.16C1252.58,-239.937 1075.71,-216.236 998.808,-205.932"/>
<polygon fill="midnightblue" stroke="midnightblue" points="999.018,-202.429 988.641,-204.57 998.088,-209.367 999.018,-202.429"/>
</g>
<!-- Node23&#45;&gt;Node16 -->
<g id="edge55" class="edge"><title>Node23&#45;&gt;Node16</title>
<path fill="none" stroke="midnightblue" d="M1401.36,-252.276C1454.03,-247.49 1547.49,-235.548 1568,-210 1594.06,-177.534 1532.99,-159.991 1485.72,-151.574"/>
<polygon fill="midnightblue" stroke="midnightblue" points="1486.02,-148.075 1475.58,-149.866 1484.86,-154.978 1486.02,-148.075"/>
</g>
<!-- Node23&#45;&gt;Node19 -->
<g id="edge49" class="edge"><title>Node23&#45;&gt;Node19</title>
<path fill="none" stroke="midnightblue" d="M1401.04,-255.727C1447.57,-254.974 1529.29,-247.752 1586,-210 1626.58,-182.99 1653.18,-129.681 1664.98,-101.67"/>
<polygon fill="midnightblue" stroke="midnightblue" points="1668.28,-102.864 1668.78,-92.2814 1661.79,-100.239 1668.28,-102.864"/>
</g>
<!-- Node24 -->
<g id="node24" class="node"><title>Node24</title>
<polygon fill="white" stroke="#bfbfbf" points="1367,-190.5 1367,-209.5 1435,-209.5 1435,-190.5 1367,-190.5"/>
<text text-anchor="middle" x="1401" y="-197.5" font-family="Helvetica,sans-Serif" font-size="10.00">type_traits</text>
</g>
<!-- Node23&#45;&gt;Node24 -->
<g id="edge48" class="edge"><title>Node23&#45;&gt;Node24</title>
<path fill="none" stroke="midnightblue" d="M1370.94,-246.083C1375.98,-238.534 1383.34,-227.495 1389.51,-218.23"/>
<polygon fill="midnightblue" stroke="midnightblue" points="1392.53,-220.013 1395.17,-209.751 1386.71,-216.13 1392.53,-220.013"/>
</g>
<!-- Node25 -->
<g id="node25" class="node"><title>Node25</title>
<polygon fill="white" stroke="#bfbfbf" points="1453,-190.5 1453,-209.5 1559,-209.5 1559,-190.5 1453,-190.5"/>
<text text-anchor="middle" x="1506" y="-197.5" font-family="Helvetica,sans-Serif" font-size="10.00">boost/optional.hpp</text>
</g>
<!-- Node23&#45;&gt;Node25 -->
<g id="edge52" class="edge"><title>Node23&#45;&gt;Node25</title>
<path fill="none" stroke="midnightblue" d="M1387.34,-246.444C1410.75,-237.478 1447.74,-223.314 1474.19,-213.183"/>
<polygon fill="midnightblue" stroke="midnightblue" points="1475.68,-216.361 1483.76,-209.516 1473.17,-209.824 1475.68,-216.361"/>
</g>
<!-- Node26&#45;&gt;Node3 -->
<g id="edge59" class="edge"><title>Node26&#45;&gt;Node3</title>
<path fill="none" stroke="midnightblue" d="M514.639,-306.835C552.289,-301.534 610.241,-290.003 655,-266 705.915,-238.696 752.726,-187.628 774.756,-161.428"/>
<polygon fill="midnightblue" stroke="midnightblue" points="777.579,-163.506 781.247,-153.566 772.181,-159.049 777.579,-163.506"/>
</g>
<!-- Node26&#45;&gt;Node4 -->
<g id="edge60" class="edge"><title>Node26&#45;&gt;Node4</title>
<path fill="none" stroke="midnightblue" d="M514.673,-307.786C543.68,-303.241 582.023,-292.3 604,-266 661.441,-197.26 569.894,-127.455 636,-67 678.084,-28.5131 1091.2,-36.0685 1148,-31 1182.77,-27.8972 1222.53,-23.4861 1249.65,-20.3455"/>
<polygon fill="midnightblue" stroke="midnightblue" points="1250.21,-23.8035 1259.74,-19.168 1249.4,-16.8507 1250.21,-23.8035"/>
</g>
<!-- Node26&#45;&gt;Node5 -->
<g id="edge61" class="edge"><title>Node26&#45;&gt;Node5</title>
<path fill="none" stroke="midnightblue" d="M437.498,-309.325C399.303,-305.913 340.737,-295.78 300,-266 246.888,-227.173 193.673,-186.744 233,-134 290.659,-56.6689 603.944,-26.7234 708.221,-18.8086"/>
<polygon fill="midnightblue" stroke="midnightblue" points="708.771,-22.2776 718.486,-18.05 708.255,-15.2966 708.771,-22.2776"/>
</g>
<!-- Node26&#45;&gt;Node6 -->
<g id="edge62" class="edge"><title>Node26&#45;&gt;Node6</title>
<path fill="none" stroke="midnightblue" d="M437.472,-309.357C403.2,-305.879 353.862,-295.621 323,-266 278.955,-223.727 244.465,-179.65 285,-134 307.785,-108.34 519.423,-93.3805 634.804,-87.0661"/>
<polygon fill="midnightblue" stroke="midnightblue" points="635.183,-90.5508 644.981,-86.5179 634.807,-83.561 635.183,-90.5508"/>
</g>
<!-- Node26&#45;&gt;Node8 -->
<g id="edge64" class="edge"><title>Node26&#45;&gt;Node8</title>
<path fill="none" stroke="midnightblue" d="M479.014,-302.183C483.897,-288.854 494.574,-263.3 510,-246 568.986,-179.847 592.448,-166.261 675,-134 775.217,-94.8358 903.132,-85.8307 968.806,-83.8993"/>
<polygon fill="midnightblue" stroke="midnightblue" points="969.272,-87.3888 979.18,-83.6385 969.096,-80.391 969.272,-87.3888"/>
</g>
<!-- Node26&#45;&gt;Node13 -->
<g id="edge67" class="edge"><title>Node26&#45;&gt;Node13</title>
<path fill="none" stroke="midnightblue" d="M489.014,-302.324C501.532,-293.979 520.682,-281.212 535.471,-271.352"/>
<polygon fill="midnightblue" stroke="midnightblue" points="537.639,-274.114 544.018,-265.655 533.756,-268.289 537.639,-274.114"/>
</g>
<!-- Node26&#45;&gt;Node15 -->
<g id="edge63" class="edge"><title>Node26&#45;&gt;Node15</title>
<path fill="none" stroke="midnightblue" d="M468.957,-302.075C447.979,-275.493 385.671,-196.538 358.229,-161.763"/>
<polygon fill="midnightblue" stroke="midnightblue" points="360.704,-159.25 351.762,-153.568 355.209,-163.586 360.704,-159.25"/>
</g>
<!-- Node27 -->
<g id="node27" class="node"><title>Node27</title>
<g id="a_node27"><a xlink:href="variant_8h.xhtml" target="_top" xlink:title="Extra helper functions for boost::variant. ">
<polygon fill="white" stroke="black" points="332.5,-246.5 332.5,-265.5 409.5,-265.5 409.5,-246.5 332.5,-246.5"/>
<text text-anchor="middle" x="371" y="-253.5" font-family="Helvetica,sans-Serif" font-size="10.00">ext/variant.h</text>
</a>
</g>
</g>
<!-- Node26&#45;&gt;Node27 -->
<g id="edge65" class="edge"><title>Node26&#45;&gt;Node27</title>
<path fill="none" stroke="midnightblue" d="M459.13,-302.324C442.291,-293.664 416.193,-280.242 396.762,-270.249"/>
<polygon fill="midnightblue" stroke="midnightblue" points="398.322,-267.116 387.828,-265.655 395.12,-273.341 398.322,-267.116"/>
</g>
<!-- Node27&#45;&gt;Node15 -->
<g id="edge66" class="edge"><title>Node27&#45;&gt;Node15</title>
<path fill="none" stroke="midnightblue" d="M368.96,-246.368C364.764,-228.617 355.085,-187.666 349.396,-163.597"/>
<polygon fill="midnightblue" stroke="midnightblue" points="352.737,-162.518 347.031,-153.591 345.925,-164.128 352.737,-162.518"/>
</g>
<!-- Node28&#45;&gt;Node4 -->
<g id="edge70" class="edge"><title>Node28&#45;&gt;Node4</title>
<path fill="none" stroke="midnightblue" d="M1805.95,-190.245C1820.07,-177.831 1841.62,-154.359 1831,-134 1806.94,-87.867 1783.69,-85.3374 1735,-67 1657.61,-37.8551 1404.64,-22.6388 1314.37,-18.0342"/>
<polygon fill="midnightblue" stroke="midnightblue" points="1314.35,-14.5291 1304.19,-17.5251 1314,-21.5203 1314.35,-14.5291"/>
</g>
<!-- Node28&#45;&gt;Node16 -->
<g id="edge72" class="edge"><title>Node28&#45;&gt;Node16</title>
<path fill="none" stroke="midnightblue" d="M1738.27,-190.444C1668.56,-179.928 1551.45,-162.264 1485.66,-152.339"/>
<polygon fill="midnightblue" stroke="midnightblue" points="1485.96,-148.846 1475.55,-150.815 1484.92,-155.768 1485.96,-148.846"/>
</g>
<!-- Node29 -->
<g id="node29" class="node"><title>Node29</title>
<polygon fill="white" stroke="#bfbfbf" points="1729.5,-134.5 1729.5,-153.5 1822.5,-153.5 1822.5,-134.5 1729.5,-134.5"/>
<text text-anchor="middle" x="1776" y="-141.5" font-family="Helvetica,sans-Serif" font-size="10.00">unordered_map</text>
</g>
<!-- Node28&#45;&gt;Node29 -->
<g id="edge71" class="edge"><title>Node28&#45;&gt;Node29</title>
<path fill="none" stroke="midnightblue" d="M1791.86,-190.083C1789.32,-182.849 1785.64,-172.409 1782.47,-163.397"/>
<polygon fill="midnightblue" stroke="midnightblue" points="1785.7,-162.023 1779.08,-153.751 1779.1,-164.346 1785.7,-162.023"/>
</g>
<!-- Node30&#45;&gt;Node3 -->
<g id="edge74" class="edge"><title>Node30&#45;&gt;Node3</title>
<path fill="none" stroke="midnightblue" d="M1028.76,-302.257C1000.68,-284.959 936.251,-245.008 883,-210 857.052,-192.941 827.602,-172.643 808.463,-159.323"/>
<polygon fill="midnightblue" stroke="midnightblue" points="810.404,-156.41 800.2,-153.56 806.4,-162.151 810.404,-156.41"/>
</g>
<!-- Node30&#45;&gt;Node4 -->
<g id="edge75" class="edge"><title>Node30&#45;&gt;Node4</title>
<path fill="none" stroke="midnightblue" d="M1078.6,-311.437C1149.38,-310.252 1301,-296.56 1301,-201 1301,-201 1301,-201 1301,-143 1301,-104.273 1292.18,-59.6089 1286.56,-35.0661"/>
<polygon fill="midnightblue" stroke="midnightblue" points="1289.89,-33.9449 1284.18,-25.023 1283.08,-35.5609 1289.89,-33.9449"/>
</g>
<!-- Node30&#45;&gt;Node5 -->
<g id="edge77" class="edge"><title>Node30&#45;&gt;Node5</title>
<path fill="none" stroke="midnightblue" d="M1041.4,-302.296C1037.2,-281.244 1024.22,-226.611 997,-190 943.481,-118.021 912.418,-115.553 837,-67 815.1,-52.9013 788.872,-39.1787 769.528,-29.6054"/>
<polygon fill="midnightblue" stroke="midnightblue" points="770.889,-26.3746 760.368,-25.1266 767.814,-32.6632 770.889,-26.3746"/>
</g>
<!-- Node30&#45;&gt;Node6 -->
<g id="edge78" class="edge"><title>Node30&#45;&gt;Node6</title>
<path fill="none" stroke="midnightblue" d="M1015.34,-302.451C958.956,-283.807 829.371,-234.59 750,-154 734.985,-138.755 723.41,-116.94 716.445,-101.626"/>
<polygon fill="midnightblue" stroke="midnightblue" points="719.559,-100.009 712.375,-92.2221 713.135,-102.79 719.559,-100.009"/>
</g>
<!-- Node30&#45;&gt;Node8 -->
<g id="edge80" class="edge"><title>Node30&#45;&gt;Node8</title>
<path fill="none" stroke="midnightblue" d="M1042.38,-302.465C1040.9,-282.652 1036.82,-232.029 1031,-190 1026.7,-158.934 1019.92,-123.082 1015.73,-101.905"/>
<polygon fill="midnightblue" stroke="midnightblue" points="1019.15,-101.141 1013.75,-92.0231 1012.29,-102.516 1019.15,-101.141"/>
</g>
<!-- Node30&#45;&gt;Node14 -->
<g id="edge81" class="edge"><title>Node30&#45;&gt;Node14</title>
<path fill="none" stroke="midnightblue" d="M1034.58,-302.401C1026.16,-293.604 1013.05,-279.368 1003,-266 991.387,-250.554 979.79,-231.778 971.908,-218.385"/>
<polygon fill="midnightblue" stroke="midnightblue" points="974.922,-216.606 966.879,-209.709 968.866,-220.116 974.922,-216.606"/>
</g>
<!-- Node30&#45;&gt;Node23 -->
<g id="edge79" class="edge"><title>Node30&#45;&gt;Node23</title>
<path fill="none" stroke="midnightblue" d="M1078.67,-305.264C1130.67,-296.863 1230.34,-280.622 1315,-266 1316.27,-265.78 1317.56,-265.557 1318.86,-265.33"/>
<polygon fill="midnightblue" stroke="midnightblue" points="1319.72,-268.732 1328.96,-263.55 1318.5,-261.839 1319.72,-268.732"/>
</g>
<!-- Node31 -->
<g id="node31" class="node"><title>Node31</title>
<polygon fill="white" stroke="#bfbfbf" points="1135,-246.5 1135,-265.5 1221,-265.5 1221,-246.5 1135,-246.5"/>
<text text-anchor="middle" x="1178" y="-253.5" font-family="Helvetica,sans-Serif" font-size="10.00">unordered_set</text>
</g>
<!-- Node30&#45;&gt;Node31 -->
<g id="edge76" class="edge"><title>Node30&#45;&gt;Node31</title>
<path fill="none" stroke="midnightblue" d="M1064.39,-302.444C1086.71,-293.517 1121.9,-279.439 1147.21,-269.317"/>
<polygon fill="midnightblue" stroke="midnightblue" points="1148.72,-272.48 1156.71,-265.516 1146.12,-265.981 1148.72,-272.48"/>
</g>
<!-- Node30&#45;&gt;Node32 -->
<g id="edge82" class="edge"><title>Node30&#45;&gt;Node32</title>
<path fill="none" stroke="midnightblue" d="M1052.1,-302.368C1071.58,-283.894 1117.56,-240.293 1142.4,-216.744"/>
<polygon fill="midnightblue" stroke="midnightblue" points="1145.09,-219.012 1149.94,-209.591 1140.28,-213.933 1145.09,-219.012"/>
</g>
<!-- Node32&#45;&gt;Node3 -->
<g id="edge84" class="edge"><title>Node32&#45;&gt;Node3</title>
<path fill="none" stroke="midnightblue" d="M1120.69,-193.424C1049.58,-183.074 897.921,-160.999 826.593,-150.617"/>
<polygon fill="midnightblue" stroke="midnightblue" points="827.071,-147.15 816.671,-149.173 826.062,-154.077 827.071,-147.15"/>
</g>
<!-- Node32&#45;&gt;Node4 -->
<g id="edge85" class="edge"><title>Node32&#45;&gt;Node4</title>
<path fill="none" stroke="midnightblue" d="M1164.93,-190.198C1184.13,-161.71 1244.81,-71.6786 1270.42,-33.6835"/>
<polygon fill="midnightblue" stroke="midnightblue" points="1273.44,-35.4626 1276.13,-25.214 1267.64,-31.5504 1273.44,-35.4626"/>
</g>
<!-- Node32&#45;&gt;Node8 -->
<g id="edge86" class="edge"><title>Node32&#45;&gt;Node8</title>
<path fill="none" stroke="midnightblue" d="M1147.95,-190.319C1123.05,-170.753 1062.29,-123.017 1031.13,-98.5295"/>
<polygon fill="midnightblue" stroke="midnightblue" points="1033.2,-95.7081 1023.18,-92.282 1028.88,-101.212 1033.2,-95.7081"/>
</g>
<!-- Node32&#45;&gt;Node9 -->
<g id="edge83" class="edge"><title>Node32&#45;&gt;Node9</title>
<path fill="none" stroke="midnightblue" d="M1156.88,-190.198C1150.1,-162.073 1128.85,-73.9576 1119.5,-35.1575"/>
<polygon fill="midnightblue" stroke="midnightblue" points="1122.85,-34.1151 1117.1,-25.214 1116.04,-35.7558 1122.85,-34.1151"/>
</g>
<!-- Node32&#45;&gt;Node16 -->
<g id="edge87" class="edge"><title>Node32&#45;&gt;Node16</title>
<path fill="none" stroke="midnightblue" d="M1197.07,-191.605C1246.81,-181.944 1333.94,-165.019 1388.39,-154.442"/>
<polygon fill="midnightblue" stroke="midnightblue" points="1389.35,-157.822 1398.5,-152.479 1388.01,-150.95 1389.35,-157.822"/>
</g>
<!-- Node33&#45;&gt;Node19 -->
<g id="edge92" class="edge"><title>Node33&#45;&gt;Node19</title>
<path fill="none" stroke="midnightblue" d="M1888.3,-358.183C1892.97,-322.557 1905.02,-188.539 1831,-134 1792.5,-105.63 1737.51,-92.848 1703.32,-87.348"/>
<polygon fill="midnightblue" stroke="midnightblue" points="1703.41,-83.8222 1693,-85.8077 1702.38,-90.7455 1703.41,-83.8222"/>
</g>
<!-- Node34&#45;&gt;Node10 -->
<g id="edge94" class="edge"><title>Node34&#45;&gt;Node10</title>
<path fill="none" stroke="midnightblue" d="M2042.22,-358.451C2040.59,-339.962 2037,-294.869 2037,-257 2037,-257 2037,-257 2037,-143 2037,-107.442 2039.43,-89.632 2012,-67 1967.7,-30.4463 1814.79,-20.0563 1712.46,-17.274"/>
<polygon fill="midnightblue" stroke="midnightblue" points="1712.5,-13.7739 1702.42,-17.0207 1712.32,-20.7717 1712.5,-13.7739"/>
</g>
</g>
</svg>
