<?xml version="1.0" encoding="UTF-8" standalone="no"?>
<!DOCTYPE svg PUBLIC "-//W3C//DTD SVG 1.1//EN"
 "http://www.w3.org/Graphics/SVG/1.1/DTD/svg11.dtd">
<!-- Generated by graphviz version 2.38.0 (20140413.2041)
 -->
<!-- Title: serialization.h Pages: 1 -->
<svg width="1986pt" height="442pt"
 viewBox="0.00 0.00 1986.00 442.00" xmlns="http://www.w3.org/2000/svg" xmlns:xlink="http://www.w3.org/1999/xlink">
<g id="graph0" class="graph" transform="scale(1 1) rotate(0) translate(4 438)">
<title>serialization.h</title>
<polygon fill="white" stroke="none" points="-4,4 -4,-438 1982,-438 1982,4 -4,4"/>
<!-- Node1 -->
<g id="node1" class="node"><title>Node1</title>
<polygon fill="#bfbfbf" stroke="black" points="1025.5,-414.5 1025.5,-433.5 1108.5,-433.5 1108.5,-414.5 1025.5,-414.5"/>
<text text-anchor="middle" x="1067" y="-421.5" font-family="Helvetica,sans-Serif" font-size="10.00">serialization.h</text>
</g>
<!-- Node2 -->
<g id="node2" class="node"><title>Node2</title>
<polygon fill="white" stroke="#bfbfbf" points="975,-358.5 975,-377.5 1021,-377.5 1021,-358.5 975,-358.5"/>
<text text-anchor="middle" x="998" y="-365.5" font-family="Helvetica,sans-Serif" font-size="10.00">iosfwd</text>
</g>
<!-- Node1&#45;&gt;Node2 -->
<g id="edge1" class="edge"><title>Node1&#45;&gt;Node2</title>
<path fill="none" stroke="midnightblue" d="M1055.91,-414.324C1045.51,-406.185 1029.74,-393.839 1017.28,-384.087"/>
<polygon fill="midnightblue" stroke="midnightblue" points="1019.32,-381.241 1009.29,-377.834 1015.01,-386.753 1019.32,-381.241"/>
</g>
<!-- Node3 -->
<g id="node3" class="node"><title>Node3</title>
<polygon fill="white" stroke="#bfbfbf" points="1302,-6 1302,-25 1346,-25 1346,-6 1302,-6"/>
<text text-anchor="middle" x="1324" y="-13" font-family="Helvetica,sans-Serif" font-size="10.00">string</text>
</g>
<!-- Node1&#45;&gt;Node3 -->
<g id="edge2" class="edge"><title>Node1&#45;&gt;Node3</title>
<path fill="none" stroke="midnightblue" d="M1108.51,-422.415C1286.73,-419.366 1978,-401.814 1978,-313 1978,-313 1978,-313 1978,-143 1978,-94.2791 1943.35,-87.1696 1899,-67 1849.51,-44.4942 1470.77,-23.8574 1356.52,-18.092"/>
<polygon fill="midnightblue" stroke="midnightblue" points="1356.47,-14.5853 1346.31,-17.5809 1356.12,-21.5766 1356.47,-14.5853"/>
</g>
<!-- Node4 -->
<g id="node4" class="node"><title>Node4</title>
<g id="a_node4"><a xlink:href="model_8h.xhtml" target="_top" xlink:title="Representation for a model container for risk analysis. ">
<polygon fill="white" stroke="black" points="1039,-358.5 1039,-377.5 1095,-377.5 1095,-358.5 1039,-358.5"/>
<text text-anchor="middle" x="1067" y="-365.5" font-family="Helvetica,sans-Serif" font-size="10.00">model.h</text>
</a>
</g>
</g>
<!-- Node1&#45;&gt;Node4 -->
<g id="edge3" class="edge"><title>Node1&#45;&gt;Node4</title>
<path fill="none" stroke="midnightblue" d="M1067,-414.083C1067,-407.006 1067,-396.861 1067,-387.986"/>
<polygon fill="midnightblue" stroke="midnightblue" points="1070.5,-387.751 1067,-377.751 1063.5,-387.751 1070.5,-387.751"/>
</g>
<!-- Node4&#45;&gt;Node3 -->
<g id="edge5" class="edge"><title>Node4&#45;&gt;Node3</title>
<path fill="none" stroke="midnightblue" d="M1095.06,-366.486C1244.48,-363.385 1940,-344.265 1940,-257 1940,-257 1940,-257 1940,-143 1940,-22.727 1483.71,-15.7792 1356.55,-16.1782"/>
<polygon fill="midnightblue" stroke="midnightblue" points="1356.27,-12.6795 1346.29,-16.2292 1356.3,-19.6794 1356.27,-12.6795"/>
</g>
<!-- Node5 -->
<g id="node5" class="node"><title>Node5</title>
<polygon fill="white" stroke="#bfbfbf" points="744.5,-134.5 744.5,-153.5 801.5,-153.5 801.5,-134.5 744.5,-134.5"/>
<text text-anchor="middle" x="773" y="-141.5" font-family="Helvetica,sans-Serif" font-size="10.00">memory</text>
</g>
<!-- Node4&#45;&gt;Node5 -->
<g id="edge4" class="edge"><title>Node4&#45;&gt;Node5</title>
<path fill="none" stroke="midnightblue" d="M1038.92,-359.751C994.318,-347.07 906.44,-317.217 849,-266 815.802,-236.399 791.826,-188.908 780.439,-163.106"/>
<polygon fill="midnightblue" stroke="midnightblue" points="783.603,-161.603 776.458,-153.78 777.165,-164.352 783.603,-161.603"/>
</g>
<!-- Node6 -->
<g id="node6" class="node"><title>Node6</title>
<polygon fill="white" stroke="#bfbfbf" points="547.5,-6 547.5,-25 594.5,-25 594.5,-6 547.5,-6"/>
<text text-anchor="middle" x="571" y="-13" font-family="Helvetica,sans-Serif" font-size="10.00">vector</text>
</g>
<!-- Node4&#45;&gt;Node6 -->
<g id="edge6" class="edge"><title>Node4&#45;&gt;Node6</title>
<path fill="none" stroke="midnightblue" d="M1038.83,-359.541C1035.86,-358.938 1032.88,-358.406 1030,-358 645.465,-303.845 536.233,-405.559 157,-322 83.2475,-305.75 0,-332.522 0,-257 0,-257 0,-257 0,-143 0,-32.3654 413.773,-18.421 536.861,-16.7205"/>
<polygon fill="midnightblue" stroke="midnightblue" points="537.234,-20.2164 547.192,-16.5976 537.151,-13.2169 537.234,-20.2164"/>
</g>
<!-- Node7 -->
<g id="node7" class="node"><title>Node7</title>
<polygon fill="white" stroke="#bfbfbf" points="546,-73 546,-92 674,-92 674,-73 546,-73"/>
<text text-anchor="middle" x="610" y="-80" font-family="Helvetica,sans-Serif" font-size="10.00">boost/noncopyable.hpp</text>
</g>
<!-- Node4&#45;&gt;Node7 -->
<g id="edge7" class="edge"><title>Node4&#45;&gt;Node7</title>
<path fill="none" stroke="midnightblue" d="M1038.83,-359.553C1035.86,-358.948 1032.88,-358.412 1030,-358 681.184,-308.127 580.178,-406.109 238,-322 180.846,-307.951 153.873,-312.659 118,-266 82.2258,-219.469 77.6604,-172.457 122,-134 152.58,-107.477 406.843,-92.4979 535.718,-86.5436"/>
<polygon fill="midnightblue" stroke="midnightblue" points="536.075,-90.0311 545.906,-86.0797 535.757,-83.0383 536.075,-90.0311"/>
</g>
<!-- Node8 -->
<g id="node8" class="node"><title>Node8</title>
<g id="a_node8"><a xlink:href="alignment_8h.xhtml" target="_top" xlink:title="Mission and phase constructs. ">
<polygon fill="white" stroke="black" points="622,-302.5 622,-321.5 696,-321.5 696,-302.5 622,-302.5"/>
<text text-anchor="middle" x="659" y="-309.5" font-family="Helvetica,sans-Serif" font-size="10.00">alignment.h</text>
</a>
</g>
</g>
<!-- Node4&#45;&gt;Node8 -->
<g id="edge8" class="edge"><title>Node4&#45;&gt;Node8</title>
<path fill="none" stroke="midnightblue" d="M1038.79,-359.776C1035.83,-359.127 1032.86,-358.52 1030,-358 914.631,-337.047 777.259,-323.251 706.445,-316.95"/>
<polygon fill="midnightblue" stroke="midnightblue" points="706.345,-313.427 696.077,-316.038 705.733,-320.401 706.345,-313.427"/>
</g>
<!-- Node9 -->
<g id="node9" class="node"><title>Node9</title>
<g id="a_node9"><a xlink:href="element_8h.xhtml" target="_top" xlink:title="Helper classes, structs, and properties common to all other classes. ">
<polygon fill="white" stroke="black" points="934.5,-73 934.5,-92 999.5,-92 999.5,-73 934.5,-73"/>
<text text-anchor="middle" x="967" y="-80" font-family="Helvetica,sans-Serif" font-size="10.00">element.h</text>
</a>
</g>
</g>
<!-- Node4&#45;&gt;Node9 -->
<g id="edge58" class="edge"><title>Node4&#45;&gt;Node9</title>
<path fill="none" stroke="midnightblue" d="M1080.06,-358.436C1090.91,-350.471 1105.57,-337.515 1112,-322 1115.4,-313.788 1113.85,-310.694 1112,-302 1094.64,-220.547 1083.28,-197.164 1029,-134 1017.09,-120.141 1001.04,-107.183 988.25,-97.8638"/>
<polygon fill="midnightblue" stroke="midnightblue" points="990.193,-94.9512 980.01,-92.0268 986.147,-100.663 990.193,-94.9512"/>
</g>
<!-- Node14 -->
<g id="node14" class="node"><title>Node14</title>
<g id="a_node14"><a xlink:href="instruction_8h.xhtml" target="_top" xlink:title="Model and event tree modifier instructions. ">
<polygon fill="white" stroke="black" points="555,-246.5 555,-265.5 631,-265.5 631,-246.5 555,-246.5"/>
<text text-anchor="middle" x="593" y="-253.5" font-family="Helvetica,sans-Serif" font-size="10.00">instruction.h</text>
</a>
</g>
</g>
<!-- Node4&#45;&gt;Node14 -->
<g id="edge90" class="edge"><title>Node4&#45;&gt;Node14</title>
<path fill="none" stroke="midnightblue" d="M1038.81,-359.674C1035.85,-359.045 1032.87,-358.47 1030,-358 938.212,-342.965 685.369,-380.428 613,-322 599.384,-311.007 594.83,-290.954 593.41,-276.018"/>
<polygon fill="midnightblue" stroke="midnightblue" points="596.893,-275.615 592.836,-265.828 589.904,-276.009 596.893,-275.615"/>
</g>
<!-- Node15 -->
<g id="node15" class="node"><title>Node15</title>
<g id="a_node15"><a xlink:href="event_8h.xhtml" target="_top" xlink:title="Contains event classes for fault trees. ">
<polygon fill="white" stroke="black" points="953.5,-190.5 953.5,-209.5 1006.5,-209.5 1006.5,-190.5 953.5,-190.5"/>
<text text-anchor="middle" x="980" y="-197.5" font-family="Helvetica,sans-Serif" font-size="10.00">event.h</text>
</a>
</g>
</g>
<!-- Node4&#45;&gt;Node15 -->
<g id="edge59" class="edge"><title>Node4&#45;&gt;Node15</title>
<path fill="none" stroke="midnightblue" d="M1048.44,-358.433C1019.77,-344.031 965.731,-311.963 944,-266 935.872,-248.809 949.04,-229.865 961.675,-216.886"/>
<polygon fill="midnightblue" stroke="midnightblue" points="964.45,-219.076 969.277,-209.644 959.622,-214.007 964.45,-219.076"/>
</g>
<!-- Node17 -->
<g id="node17" class="node"><title>Node17</title>
<g id="a_node17"><a xlink:href="expression_8h.xhtml" target="_top" xlink:title="Provides the base class for all expressions and units for expression values. ">
<polygon fill="white" stroke="black" points="1445.5,-134.5 1445.5,-153.5 1522.5,-153.5 1522.5,-134.5 1445.5,-134.5"/>
<text text-anchor="middle" x="1484" y="-141.5" font-family="Helvetica,sans-Serif" font-size="10.00">expression.h</text>
</a>
</g>
</g>
<!-- Node4&#45;&gt;Node17 -->
<g id="edge70" class="edge"><title>Node4&#45;&gt;Node17</title>
<path fill="none" stroke="midnightblue" d="M1095.21,-363.924C1201.98,-351.636 1578.68,-302.22 1646,-210 1677.1,-167.398 1591.03,-152.679 1532.73,-147.621"/>
<polygon fill="midnightblue" stroke="midnightblue" points="1532.81,-144.116 1522.57,-146.811 1532.26,-151.094 1532.81,-144.116"/>
</g>
<!-- Node24 -->
<g id="node24" class="node"><title>Node24</title>
<g id="a_node24"><a xlink:href="ccf__group_8h.xhtml" target="_top" xlink:title="Functional containers for basic events grouped by common cause failure. ">
<polygon fill="white" stroke="black" points="1287,-246.5 1287,-265.5 1359,-265.5 1359,-246.5 1287,-246.5"/>
<text text-anchor="middle" x="1323" y="-253.5" font-family="Helvetica,sans-Serif" font-size="10.00">ccf_group.h</text>
</a>
</g>
</g>
<!-- Node4&#45;&gt;Node24 -->
<g id="edge47" class="edge"><title>Node4&#45;&gt;Node24</title>
<path fill="none" stroke="midnightblue" d="M1095.26,-366.591C1136.8,-364.77 1215.42,-356.584 1271,-322 1289.72,-310.351 1304.6,-289.498 1313.56,-274.551"/>
<polygon fill="midnightblue" stroke="midnightblue" points="1316.68,-276.159 1318.58,-265.737 1310.59,-272.695 1316.68,-276.159"/>
</g>
<!-- Node27 -->
<g id="node27" class="node"><title>Node27</title>
<g id="a_node27"><a xlink:href="event__tree_8h.xhtml" target="_top" xlink:title="Event Tree facilities. ">
<polygon fill="white" stroke="black" points="247.5,-302.5 247.5,-321.5 324.5,-321.5 324.5,-302.5 247.5,-302.5"/>
<text text-anchor="middle" x="286" y="-309.5" font-family="Helvetica,sans-Serif" font-size="10.00">event_tree.h</text>
</a>
</g>
</g>
<!-- Node4&#45;&gt;Node27 -->
<g id="edge60" class="edge"><title>Node4&#45;&gt;Node27</title>
<path fill="none" stroke="midnightblue" d="M1038.82,-359.598C1035.86,-358.983 1032.88,-358.433 1030,-358 895.178,-337.691 478.196,-320.326 334.927,-314.819"/>
<polygon fill="midnightblue" stroke="midnightblue" points="334.821,-311.312 324.694,-314.428 334.553,-318.307 334.821,-311.312"/>
</g>
<!-- Node29 -->
<g id="node29" class="node"><title>Node29</title>
<g id="a_node29"><a xlink:href="test__event_8h.xhtml" target="_top" xlink:title="Event tree analysis expressions to test functional and initiating events. ">
<polygon fill="white" stroke="black" points="1752.5,-190.5 1752.5,-209.5 1883.5,-209.5 1883.5,-190.5 1752.5,-190.5"/>
<text text-anchor="middle" x="1818" y="-197.5" font-family="Helvetica,sans-Serif" font-size="10.00">expression/test_event.h</text>
</a>
</g>
</g>
<!-- Node4&#45;&gt;Node29 -->
<g id="edge71" class="edge"><title>Node4&#45;&gt;Node29</title>
<path fill="none" stroke="midnightblue" d="M1095.17,-366.574C1215.38,-364.561 1681.8,-354.688 1738,-322 1777.78,-298.863 1801.53,-247.101 1811.87,-219.371"/>
<polygon fill="midnightblue" stroke="midnightblue" points="1815.25,-220.316 1815.28,-209.721 1808.65,-217.982 1815.25,-220.316"/>
</g>
<!-- Node31 -->
<g id="node31" class="node"><title>Node31</title>
<g id="a_node31"><a xlink:href="fault__tree_8h.xhtml" target="_top" xlink:title="Fault Tree and Component containers. ">
<polygon fill="white" stroke="black" points="1031.5,-302.5 1031.5,-321.5 1102.5,-321.5 1102.5,-302.5 1031.5,-302.5"/>
<text text-anchor="middle" x="1067" y="-309.5" font-family="Helvetica,sans-Serif" font-size="10.00">fault_tree.h</text>
</a>
</g>
</g>
<!-- Node4&#45;&gt;Node31 -->
<g id="edge75" class="edge"><title>Node4&#45;&gt;Node31</title>
<path fill="none" stroke="midnightblue" d="M1067,-358.083C1067,-351.006 1067,-340.861 1067,-331.986"/>
<polygon fill="midnightblue" stroke="midnightblue" points="1070.5,-331.751 1067,-321.751 1063.5,-331.751 1070.5,-331.751"/>
</g>
<!-- Node33 -->
<g id="node33" class="node"><title>Node33</title>
<g id="a_node33"><a xlink:href="parameter_8h.xhtml" target="_top" xlink:title="Parameter expressions that act like a shareable variable. ">
<polygon fill="white" stroke="black" points="1181,-190.5 1181,-209.5 1257,-209.5 1257,-190.5 1181,-190.5"/>
<text text-anchor="middle" x="1219" y="-197.5" font-family="Helvetica,sans-Serif" font-size="10.00">parameter.h</text>
</a>
</g>
</g>
<!-- Node4&#45;&gt;Node33 -->
<g id="edge91" class="edge"><title>Node4&#45;&gt;Node33</title>
<path fill="none" stroke="midnightblue" d="M1095.18,-365.018C1124.56,-361.385 1169.77,-351.1 1195,-322 1220.05,-293.104 1221.83,-245.645 1220.62,-219.58"/>
<polygon fill="midnightblue" stroke="midnightblue" points="1224.11,-219.288 1219.95,-209.544 1217.12,-219.755 1224.11,-219.288"/>
</g>
<!-- Node8&#45;&gt;Node3 -->
<g id="edge10" class="edge"><title>Node8&#45;&gt;Node3</title>
<path fill="none" stroke="midnightblue" d="M661.524,-302.361C671.178,-269.917 706.695,-156.084 736,-134 784.869,-97.1731 948.934,-109.685 1009,-98 1113.66,-77.6388 1235.23,-42.9969 1291.88,-26.202"/>
<polygon fill="midnightblue" stroke="midnightblue" points="1293.1,-29.4909 1301.68,-23.2811 1291.1,-22.7824 1293.1,-29.4909"/>
</g>
<!-- Node8&#45;&gt;Node5 -->
<g id="edge9" class="edge"><title>Node8&#45;&gt;Node5</title>
<path fill="none" stroke="midnightblue" d="M692.05,-302.461C711.526,-295.728 735.018,-284.337 749,-266 771.973,-235.873 774.656,-189.602 774.122,-163.886"/>
<polygon fill="midnightblue" stroke="midnightblue" points="777.609,-163.5 773.711,-153.649 770.615,-163.781 777.609,-163.5"/>
</g>
<!-- Node8&#45;&gt;Node6 -->
<g id="edge11" class="edge"><title>Node8&#45;&gt;Node6</title>
<path fill="none" stroke="midnightblue" d="M621.869,-309.333C589.64,-305.819 544.157,-295.522 518,-266 458.593,-198.952 441.695,-144.857 486,-67 497.133,-47.4357 519.166,-34.6636 538.009,-26.8589"/>
<polygon fill="midnightblue" stroke="midnightblue" points="539.414,-30.0689 547.498,-23.2207 536.907,-23.5329 539.414,-30.0689"/>
</g>
<!-- Node8&#45;&gt;Node7 -->
<g id="edge12" class="edge"><title>Node8&#45;&gt;Node7</title>
<path fill="none" stroke="midnightblue" d="M621.745,-306.941C595.756,-301.948 562.83,-290.817 546,-266 530.141,-242.615 490.27,-277.476 560,-134 566.724,-120.166 578.757,-107.829 589.333,-98.8122"/>
<polygon fill="midnightblue" stroke="midnightblue" points="591.787,-101.33 597.374,-92.3276 587.393,-95.8808 591.787,-101.33"/>
</g>
<!-- Node8&#45;&gt;Node9 -->
<g id="edge13" class="edge"><title>Node8&#45;&gt;Node9</title>
<path fill="none" stroke="midnightblue" d="M658.165,-302.44C655.891,-273.854 652.737,-180.859 702,-134 733.326,-104.203 857.296,-91.1188 923.991,-86.1391"/>
<polygon fill="midnightblue" stroke="midnightblue" points="924.457,-89.6148 934.181,-85.4081 923.956,-82.6327 924.457,-89.6148"/>
</g>
<!-- Node8&#45;&gt;Node14 -->
<g id="edge20" class="edge"><title>Node8&#45;&gt;Node14</title>
<path fill="none" stroke="midnightblue" d="M648.396,-302.324C638.544,-294.263 623.649,-282.077 611.785,-272.369"/>
<polygon fill="midnightblue" stroke="midnightblue" points="613.753,-269.457 603.797,-265.834 609.32,-274.875 613.753,-269.457"/>
</g>
<!-- Node9&#45;&gt;Node3 -->
<g id="edge15" class="edge"><title>Node9&#45;&gt;Node3</title>
<path fill="none" stroke="midnightblue" d="M992.683,-72.877C999.556,-70.762 1007.02,-68.6378 1014,-67 1114.25,-43.4892 1235.27,-27.1863 1291.88,-20.2498"/>
<polygon fill="midnightblue" stroke="midnightblue" points="1292.49,-23.7013 1302,-19.0259 1291.65,-16.752 1292.49,-23.7013"/>
</g>
<!-- Node9&#45;&gt;Node6 -->
<g id="edge16" class="edge"><title>Node9&#45;&gt;Node6</title>
<path fill="none" stroke="midnightblue" d="M942.346,-72.9513C935.207,-70.7341 927.355,-68.5396 920,-67 781.646,-38.0397 740.466,-67.8466 604,-31 601.706,-30.3806 599.367,-29.626 597.046,-28.7899"/>
<polygon fill="midnightblue" stroke="midnightblue" points="598.356,-25.5442 587.773,-25.0318 595.726,-32.0317 598.356,-25.5442"/>
</g>
<!-- Node10 -->
<g id="node10" class="node"><title>Node10</title>
<polygon fill="white" stroke="#bfbfbf" points="1109.5,-6 1109.5,-25 1158.5,-25 1158.5,-6 1109.5,-6"/>
<text text-anchor="middle" x="1134" y="-13" font-family="Helvetica,sans-Serif" font-size="10.00">cstdint</text>
</g>
<!-- Node9&#45;&gt;Node10 -->
<g id="edge14" class="edge"><title>Node9&#45;&gt;Node10</title>
<path fill="none" stroke="midnightblue" d="M990.656,-72.845C1017.34,-63.007 1061.97,-46.3219 1100,-31 1101.6,-30.357 1103.23,-29.6896 1104.88,-29.0101"/>
<polygon fill="midnightblue" stroke="midnightblue" points="1106.41,-32.163 1114.28,-25.069 1103.7,-25.7073 1106.41,-32.163"/>
</g>
<!-- Node11 -->
<g id="node11" class="node"><title>Node11</title>
<polygon fill="white" stroke="#bfbfbf" points="613,-6 613,-25 785,-25 785,-6 613,-6"/>
<text text-anchor="middle" x="699" y="-13" font-family="Helvetica,sans-Serif" font-size="10.00">boost/multi_index_container.hpp</text>
</g>
<!-- Node9&#45;&gt;Node11 -->
<g id="edge17" class="edge"><title>Node9&#45;&gt;Node11</title>
<path fill="none" stroke="midnightblue" d="M940.257,-72.8715C933.663,-70.8485 926.598,-68.7691 920,-67 862.393,-51.5551 795.548,-36.7 750.587,-27.1484"/>
<polygon fill="midnightblue" stroke="midnightblue" points="751.282,-23.7181 740.775,-25.0743 749.835,-30.5668 751.282,-23.7181"/>
</g>
<!-- Node12 -->
<g id="node12" class="node"><title>Node12</title>
<polygon fill="white" stroke="#bfbfbf" points="803,-0.5 803,-30.5 943,-30.5 943,-0.5 803,-0.5"/>
<text text-anchor="start" x="811" y="-18.5" font-family="Helvetica,sans-Serif" font-size="10.00">boost/multi_index/hashed</text>
<text text-anchor="middle" x="873" y="-7.5" font-family="Helvetica,sans-Serif" font-size="10.00">_index.hpp</text>
</g>
<!-- Node9&#45;&gt;Node12 -->
<g id="edge18" class="edge"><title>Node9&#45;&gt;Node12</title>
<path fill="none" stroke="midnightblue" d="M954.323,-72.7338C940.886,-63.4425 919.22,-48.4609 901.629,-36.2968"/>
<polygon fill="midnightblue" stroke="midnightblue" points="903.591,-33.3978 893.375,-30.589 899.609,-39.1554 903.591,-33.3978"/>
</g>
<!-- Node13 -->
<g id="node13" class="node"><title>Node13</title>
<polygon fill="white" stroke="#bfbfbf" points="961,-0.5 961,-30.5 1091,-30.5 1091,-0.5 961,-0.5"/>
<text text-anchor="start" x="969" y="-18.5" font-family="Helvetica,sans-Serif" font-size="10.00">boost/multi_index/mem</text>
<text text-anchor="middle" x="1026" y="-7.5" font-family="Helvetica,sans-Serif" font-size="10.00">_fun.hpp</text>
</g>
<!-- Node9&#45;&gt;Node13 -->
<g id="edge19" class="edge"><title>Node9&#45;&gt;Node13</title>
<path fill="none" stroke="midnightblue" d="M974.957,-72.7338C982.931,-63.9493 995.521,-50.0783 1006.2,-38.3111"/>
<polygon fill="midnightblue" stroke="midnightblue" points="1009.08,-40.346 1013.21,-30.589 1003.9,-35.6412 1009.08,-40.346"/>
</g>
<!-- Node14&#45;&gt;Node3 -->
<g id="edge22" class="edge"><title>Node14&#45;&gt;Node3</title>
<path fill="none" stroke="midnightblue" d="M585.282,-246.174C560.394,-216.653 486.721,-120.229 537,-67 585.222,-15.9487 1097.97,-36.2505 1168,-31 1210.89,-27.7843 1260.31,-23.009 1291.84,-19.8277"/>
<polygon fill="midnightblue" stroke="midnightblue" points="1292.21,-23.3078 1301.8,-18.8144 1291.5,-16.3437 1292.21,-23.3078"/>
</g>
<!-- Node14&#45;&gt;Node5 -->
<g id="edge21" class="edge"><title>Node14&#45;&gt;Node5</title>
<path fill="none" stroke="midnightblue" d="M607.124,-246.368C638.144,-227.412 712.454,-182.001 750.185,-158.942"/>
<polygon fill="midnightblue" stroke="midnightblue" points="752.234,-161.792 758.941,-153.591 748.583,-155.819 752.234,-161.792"/>
</g>
<!-- Node14&#45;&gt;Node6 -->
<g id="edge23" class="edge"><title>Node14&#45;&gt;Node6</title>
<path fill="none" stroke="midnightblue" d="M584.8,-246.386C564.238,-224.096 510.851,-161.798 493,-98 489.288,-84.7318 486.417,-79.1036 493,-67 502.535,-49.4668 521.072,-37.0858 537.682,-28.9721"/>
<polygon fill="midnightblue" stroke="midnightblue" points="539.491,-31.995 547.157,-24.6813 536.603,-25.6184 539.491,-31.995"/>
</g>
<!-- Node14&#45;&gt;Node7 -->
<g id="edge24" class="edge"><title>Node14&#45;&gt;Node7</title>
<path fill="none" stroke="midnightblue" d="M586.633,-246.232C580.74,-237.532 572.393,-223.572 569,-210 560.808,-177.231 557.705,-165.833 569,-134 573.673,-120.829 583.409,-108.592 592.221,-99.4623"/>
<polygon fill="midnightblue" stroke="midnightblue" points="594.857,-101.78 599.576,-92.2945 589.972,-96.767 594.857,-101.78"/>
</g>
<!-- Node14&#45;&gt;Node9 -->
<g id="edge25" class="edge"><title>Node14&#45;&gt;Node9</title>
<path fill="none" stroke="midnightblue" d="M595.337,-246.21C601.879,-223.46 622.665,-162.44 664,-134 705.509,-105.44 850.819,-91.5282 924.082,-86.2002"/>
<polygon fill="midnightblue" stroke="midnightblue" points="924.619,-89.6711 934.347,-85.4756 924.126,-82.6885 924.619,-89.6711"/>
</g>
<!-- Node14&#45;&gt;Node15 -->
<g id="edge26" class="edge"><title>Node14&#45;&gt;Node15</title>
<path fill="none" stroke="midnightblue" d="M631.166,-249.674C705.685,-239.277 869.662,-216.396 943.13,-206.145"/>
<polygon fill="midnightblue" stroke="midnightblue" points="943.871,-209.575 953.291,-204.727 942.904,-202.642 943.871,-209.575"/>
</g>
<!-- Node14&#45;&gt;Node17 -->
<g id="edge46" class="edge"><title>Node14&#45;&gt;Node17</title>
<path fill="none" stroke="midnightblue" d="M631.01,-253.575C754.346,-248.775 1142.54,-232.245 1266,-210 1333.65,-197.811 1410.08,-172.151 1452.08,-156.972"/>
<polygon fill="midnightblue" stroke="midnightblue" points="1453.3,-160.252 1461.49,-153.535 1450.9,-153.676 1453.3,-160.252"/>
</g>
<!-- Node15&#45;&gt;Node3 -->
<g id="edge29" class="edge"><title>Node15&#45;&gt;Node3</title>
<path fill="none" stroke="midnightblue" d="M996.13,-190.442C1051.2,-161.225 1232.08,-65.2643 1298.9,-29.8151"/>
<polygon fill="midnightblue" stroke="midnightblue" points="1300.71,-32.8175 1307.9,-25.0391 1297.43,-26.6338 1300.71,-32.8175"/>
</g>
<!-- Node15&#45;&gt;Node5 -->
<g id="edge28" class="edge"><title>Node15&#45;&gt;Node5</title>
<path fill="none" stroke="midnightblue" d="M953.362,-192.051C917.248,-182.63 852.532,-165.748 811.235,-154.974"/>
<polygon fill="midnightblue" stroke="midnightblue" points="812.086,-151.579 801.526,-152.442 810.319,-158.353 812.086,-151.579"/>
</g>
<!-- Node15&#45;&gt;Node6 -->
<g id="edge30" class="edge"><title>Node15&#45;&gt;Node6</title>
<path fill="none" stroke="midnightblue" d="M976.506,-190.338C966.212,-166.063 933.455,-97.1807 882,-67 774.535,-3.96643 724.027,-64.3981 604,-31 601.845,-30.4003 599.648,-29.6853 597.463,-28.8989"/>
<polygon fill="midnightblue" stroke="midnightblue" points="598.711,-25.6284 588.128,-25.1305 596.091,-32.1195 598.711,-25.6284"/>
</g>
<!-- Node15&#45;&gt;Node7 -->
<g id="edge31" class="edge"><title>Node15&#45;&gt;Node7</title>
<path fill="none" stroke="midnightblue" d="M959.99,-190.394C928.637,-177.119 865.843,-151.366 811,-134 760.247,-117.929 701.017,-103.566 660.063,-94.3044"/>
<polygon fill="midnightblue" stroke="midnightblue" points="660.585,-90.8345 650.061,-92.0618 659.053,-97.6649 660.585,-90.8345"/>
</g>
<!-- Node15&#45;&gt;Node9 -->
<g id="edge33" class="edge"><title>Node15&#45;&gt;Node9</title>
<path fill="none" stroke="midnightblue" d="M979.023,-190.319C976.934,-171.757 971.991,-127.839 969.136,-102.473"/>
<polygon fill="midnightblue" stroke="midnightblue" points="972.585,-101.828 967.988,-92.282 965.629,-102.611 972.585,-101.828"/>
</g>
<!-- Node15&#45;&gt;Node10 -->
<g id="edge27" class="edge"><title>Node15&#45;&gt;Node10</title>
<path fill="none" stroke="midnightblue" d="M987.428,-190.198C1011.57,-161.59 1088.08,-70.9145 1119.91,-33.2033"/>
<polygon fill="midnightblue" stroke="midnightblue" points="1122.87,-35.1138 1126.65,-25.214 1117.52,-30.5995 1122.87,-35.1138"/>
</g>
<!-- Node16 -->
<g id="node16" class="node"><title>Node16</title>
<polygon fill="white" stroke="#bfbfbf" points="149.5,-134.5 149.5,-153.5 250.5,-153.5 250.5,-134.5 149.5,-134.5"/>
<text text-anchor="middle" x="200" y="-141.5" font-family="Helvetica,sans-Serif" font-size="10.00">boost/variant.hpp</text>
</g>
<!-- Node15&#45;&gt;Node16 -->
<g id="edge32" class="edge"><title>Node15&#45;&gt;Node16</title>
<path fill="none" stroke="midnightblue" d="M953.151,-197.141C842.402,-189.474 419.449,-160.193 260.689,-149.202"/>
<polygon fill="midnightblue" stroke="midnightblue" points="260.838,-145.704 250.62,-148.504 260.355,-152.687 260.838,-145.704"/>
</g>
<!-- Node15&#45;&gt;Node17 -->
<g id="edge34" class="edge"><title>Node15&#45;&gt;Node17</title>
<path fill="none" stroke="midnightblue" d="M1006.74,-196.135C1087.69,-187.462 1330.9,-161.404 1435.41,-150.206"/>
<polygon fill="midnightblue" stroke="midnightblue" points="1435.81,-153.684 1445.38,-149.138 1435.06,-146.724 1435.81,-153.684"/>
</g>
<!-- Node17&#45;&gt;Node3 -->
<g id="edge37" class="edge"><title>Node17&#45;&gt;Node3</title>
<path fill="none" stroke="midnightblue" d="M1470.77,-134.422C1457.43,-125.641 1436.38,-111.417 1419,-98 1390.8,-76.239 1359.77,-48.9358 1341.09,-32.1066"/>
<polygon fill="midnightblue" stroke="midnightblue" points="1343.2,-29.2886 1333.43,-25.1689 1338.5,-34.4765 1343.2,-29.2886"/>
</g>
<!-- Node17&#45;&gt;Node6 -->
<g id="edge39" class="edge"><title>Node17&#45;&gt;Node6</title>
<path fill="none" stroke="midnightblue" d="M1461.11,-134.394C1416.33,-117.99 1313.67,-82.5023 1224,-67 952.015,-19.9781 872.369,-95.5374 604,-31 601.639,-30.4321 599.235,-29.7031 596.855,-28.8749"/>
<polygon fill="midnightblue" stroke="midnightblue" points="597.97,-25.5508 587.386,-25.0706 595.36,-32.0462 597.97,-25.5508"/>
</g>
<!-- Node17&#45;&gt;Node7 -->
<g id="edge41" class="edge"><title>Node17&#45;&gt;Node7</title>
<path fill="none" stroke="midnightblue" d="M1445.32,-140.367C1310.91,-131.216 862.658,-100.7 684.214,-88.5523"/>
<polygon fill="midnightblue" stroke="midnightblue" points="684.346,-85.0533 674.131,-87.8659 683.87,-92.0371 684.346,-85.0533"/>
</g>
<!-- Node17&#45;&gt;Node9 -->
<g id="edge42" class="edge"><title>Node17&#45;&gt;Node9</title>
<path fill="none" stroke="midnightblue" d="M1445.14,-138.528C1350.43,-127.628 1108.25,-99.7563 1009.69,-88.4135"/>
<polygon fill="midnightblue" stroke="midnightblue" points="1009.84,-84.9074 999.506,-87.241 1009.04,-91.8615 1009.84,-84.9074"/>
</g>
<!-- Node18 -->
<g id="node18" class="node"><title>Node18</title>
<polygon fill="white" stroke="#bfbfbf" points="1558,-73 1558,-92 1620,-92 1620,-73 1558,-73"/>
<text text-anchor="middle" x="1589" y="-80" font-family="Helvetica,sans-Serif" font-size="10.00">algorithm</text>
</g>
<!-- Node17&#45;&gt;Node18 -->
<g id="edge35" class="edge"><title>Node17&#45;&gt;Node18</title>
<path fill="none" stroke="midnightblue" d="M1499.04,-134.475C1516.28,-124.711 1544.74,-108.581 1565.03,-97.0808"/>
<polygon fill="midnightblue" stroke="midnightblue" points="1567.01,-99.9843 1573.98,-92.0091 1563.56,-93.8942 1567.01,-99.9843"/>
</g>
<!-- Node19 -->
<g id="node19" class="node"><title>Node19</title>
<polygon fill="white" stroke="#bfbfbf" points="1638,-73 1638,-92 1694,-92 1694,-73 1638,-73"/>
<text text-anchor="middle" x="1666" y="-80" font-family="Helvetica,sans-Serif" font-size="10.00">sstream</text>
</g>
<!-- Node17&#45;&gt;Node19 -->
<g id="edge36" class="edge"><title>Node17&#45;&gt;Node19</title>
<path fill="none" stroke="midnightblue" d="M1513.64,-134.486C1543.09,-125.867 1589.45,-111.866 1629,-98 1631.12,-97.2581 1633.29,-96.4709 1635.48,-95.6619"/>
<polygon fill="midnightblue" stroke="midnightblue" points="1636.87,-98.8773 1644.97,-92.0476 1634.38,-92.3356 1636.87,-98.8773"/>
</g>
<!-- Node20 -->
<g id="node20" class="node"><title>Node20</title>
<polygon fill="white" stroke="#bfbfbf" points="1778,-73 1778,-92 1820,-92 1820,-73 1778,-73"/>
<text text-anchor="middle" x="1799" y="-80" font-family="Helvetica,sans-Serif" font-size="10.00">utility</text>
</g>
<!-- Node17&#45;&gt;Node20 -->
<g id="edge38" class="edge"><title>Node17&#45;&gt;Node20</title>
<path fill="none" stroke="midnightblue" d="M1522.62,-140.507C1578.19,-136.117 1683.43,-124.79 1769,-98 1770.67,-97.4772 1772.36,-96.8754 1774.05,-96.2207"/>
<polygon fill="midnightblue" stroke="midnightblue" points="1775.73,-99.3058 1783.47,-92.0727 1772.91,-92.8993 1775.73,-99.3058"/>
</g>
<!-- Node21 -->
<g id="node21" class="node"><title>Node21</title>
<polygon fill="white" stroke="#bfbfbf" points="1428,-67.5 1428,-97.5 1540,-97.5 1540,-67.5 1428,-67.5"/>
<text text-anchor="start" x="1436" y="-85.5" font-family="Helvetica,sans-Serif" font-size="10.00">boost/icl/continuous</text>
<text text-anchor="middle" x="1484" y="-74.5" font-family="Helvetica,sans-Serif" font-size="10.00">_interval.hpp</text>
</g>
<!-- Node17&#45;&gt;Node21 -->
<g id="edge40" class="edge"><title>Node17&#45;&gt;Node21</title>
<path fill="none" stroke="midnightblue" d="M1484,-134.475C1484,-127.471 1484,-117.192 1484,-107.696"/>
<polygon fill="midnightblue" stroke="midnightblue" points="1487.5,-107.523 1484,-97.523 1480.5,-107.523 1487.5,-107.523"/>
</g>
<!-- Node22 -->
<g id="node22" class="node"><title>Node22</title>
<g id="a_node22"><a xlink:href="error_8h.xhtml" target="_top" xlink:title="Exceptions for SCRAM. ">
<polygon fill="white" stroke="black" points="1712,-73 1712,-92 1760,-92 1760,-73 1712,-73"/>
<text text-anchor="middle" x="1736" y="-80" font-family="Helvetica,sans-Serif" font-size="10.00">error.h</text>
</a>
</g>
</g>
<!-- Node17&#45;&gt;Node22 -->
<g id="edge43" class="edge"><title>Node17&#45;&gt;Node22</title>
<path fill="none" stroke="midnightblue" d="M1522.61,-137.598C1566.86,-130.827 1641.24,-117.671 1703,-98 1704.92,-97.3876 1706.89,-96.6993 1708.85,-95.9641"/>
<polygon fill="midnightblue" stroke="midnightblue" points="1710.53,-99.0582 1718.45,-92.0297 1707.87,-92.5802 1710.53,-99.0582"/>
</g>
<!-- Node22&#45;&gt;Node3 -->
<g id="edge45" class="edge"><title>Node22&#45;&gt;Node3</title>
<path fill="none" stroke="midnightblue" d="M1718.87,-72.8821C1713.86,-70.6638 1708.3,-68.486 1703,-67 1577.97,-31.9616 1422.73,-20.9845 1356.45,-17.7554"/>
<polygon fill="midnightblue" stroke="midnightblue" points="1356.38,-14.2484 1346.23,-17.2853 1356.05,-21.241 1356.38,-14.2484"/>
</g>
<!-- Node23 -->
<g id="node23" class="node"><title>Node23</title>
<polygon fill="white" stroke="#bfbfbf" points="1704.5,-6 1704.5,-25 1767.5,-25 1767.5,-6 1704.5,-6"/>
<text text-anchor="middle" x="1736" y="-13" font-family="Helvetica,sans-Serif" font-size="10.00">exception</text>
</g>
<!-- Node22&#45;&gt;Node23 -->
<g id="edge44" class="edge"><title>Node22&#45;&gt;Node23</title>
<path fill="none" stroke="midnightblue" d="M1736,-72.7338C1736,-63.1826 1736,-47.6183 1736,-35.2829"/>
<polygon fill="midnightblue" stroke="midnightblue" points="1739.5,-35.1273 1736,-25.1273 1732.5,-35.1273 1739.5,-35.1273"/>
</g>
<!-- Node24&#45;&gt;Node3 -->
<g id="edge49" class="edge"><title>Node24&#45;&gt;Node3</title>
<path fill="none" stroke="midnightblue" d="M1329.39,-246.402C1341.38,-229.67 1366.85,-191.108 1376,-154 1387.04,-109.198 1356.55,-59.0967 1337.68,-33.5271"/>
<polygon fill="midnightblue" stroke="midnightblue" points="1340.22,-31.0802 1331.36,-25.2719 1334.66,-35.3382 1340.22,-31.0802"/>
</g>
<!-- Node24&#45;&gt;Node5 -->
<g id="edge48" class="edge"><title>Node24&#45;&gt;Node5</title>
<path fill="none" stroke="midnightblue" d="M1286.78,-253.609C1218.86,-250.361 1068.1,-240.111 945,-210 892.225,-197.09 833.597,-172.616 800.227,-157.66"/>
<polygon fill="midnightblue" stroke="midnightblue" points="801.666,-154.469 791.113,-153.529 798.776,-160.845 801.666,-154.469"/>
</g>
<!-- Node24&#45;&gt;Node6 -->
<g id="edge52" class="edge"><title>Node24&#45;&gt;Node6</title>
<path fill="none" stroke="midnightblue" d="M1320.26,-246.064C1315.77,-232.581 1305.73,-206.827 1290,-190 1256.79,-154.473 1239.98,-154.742 1196,-134 1116.15,-96.3432 1095.23,-85.9515 1009,-67 832.503,-28.2081 779.032,-75.9407 604,-31 601.699,-30.4091 599.354,-29.6745 597.03,-28.8519"/>
<polygon fill="midnightblue" stroke="midnightblue" points="598.334,-25.6042 587.751,-25.1169 595.72,-32.0979 598.334,-25.6042"/>
</g>
<!-- Node24&#45;&gt;Node7 -->
<g id="edge53" class="edge"><title>Node24&#45;&gt;Node7</title>
<path fill="none" stroke="midnightblue" d="M1292.05,-246.494C1217.03,-225.992 1019.39,-172.686 853,-134 788.214,-118.937 713.204,-103.678 663.857,-93.9365"/>
<polygon fill="midnightblue" stroke="midnightblue" points="664.523,-90.5004 654.035,-92.0035 663.171,-97.3687 664.523,-90.5004"/>
</g>
<!-- Node24&#45;&gt;Node9 -->
<g id="edge55" class="edge"><title>Node24&#45;&gt;Node9</title>
<path fill="none" stroke="midnightblue" d="M1317.28,-246.368C1307.93,-232.825 1288.19,-206.438 1266,-190 1186.47,-131.09 1071.36,-102.419 1009.74,-90.5531"/>
<polygon fill="midnightblue" stroke="midnightblue" points="1010.07,-87.0548 999.598,-88.6599 1008.79,-93.9359 1010.07,-87.0548"/>
</g>
<!-- Node24&#45;&gt;Node15 -->
<g id="edge56" class="edge"><title>Node24&#45;&gt;Node15</title>
<path fill="none" stroke="midnightblue" d="M1286.94,-249.323C1221.31,-238.99 1083.02,-217.218 1016.82,-206.797"/>
<polygon fill="midnightblue" stroke="midnightblue" points="1017.26,-203.324 1006.84,-205.226 1016.17,-210.238 1017.26,-203.324"/>
</g>
<!-- Node24&#45;&gt;Node17 -->
<g id="edge57" class="edge"><title>Node24&#45;&gt;Node17</title>
<path fill="none" stroke="midnightblue" d="M1359.04,-255.309C1432.27,-255.085 1594.47,-249.977 1629,-210 1659.58,-174.597 1586.03,-157.576 1532.88,-150.118"/>
<polygon fill="midnightblue" stroke="midnightblue" points="1533.26,-146.638 1522.89,-148.793 1532.34,-153.578 1533.26,-146.638"/>
</g>
<!-- Node24&#45;&gt;Node20 -->
<g id="edge51" class="edge"><title>Node24&#45;&gt;Node20</title>
<path fill="none" stroke="midnightblue" d="M1359.26,-252.448C1432.44,-246.893 1595.15,-232.382 1646,-210 1705.46,-183.827 1760.31,-127.612 1785.1,-99.7872"/>
<polygon fill="midnightblue" stroke="midnightblue" points="1787.85,-101.959 1791.8,-92.128 1782.58,-97.3501 1787.85,-101.959"/>
</g>
<!-- Node25 -->
<g id="node25" class="node"><title>Node25</title>
<polygon fill="white" stroke="#bfbfbf" points="1428,-190.5 1428,-209.5 1496,-209.5 1496,-190.5 1428,-190.5"/>
<text text-anchor="middle" x="1462" y="-197.5" font-family="Helvetica,sans-Serif" font-size="10.00">type_traits</text>
</g>
<!-- Node24&#45;&gt;Node25 -->
<g id="edge50" class="edge"><title>Node24&#45;&gt;Node25</title>
<path fill="none" stroke="midnightblue" d="M1345.02,-246.444C1368.1,-237.478 1404.56,-223.314 1430.64,-213.183"/>
<polygon fill="midnightblue" stroke="midnightblue" points="1432.02,-216.4 1440.08,-209.516 1429.49,-209.875 1432.02,-216.4"/>
</g>
<!-- Node26 -->
<g id="node26" class="node"><title>Node26</title>
<polygon fill="white" stroke="#bfbfbf" points="1514,-190.5 1514,-209.5 1620,-209.5 1620,-190.5 1514,-190.5"/>
<text text-anchor="middle" x="1567" y="-197.5" font-family="Helvetica,sans-Serif" font-size="10.00">boost/optional.hpp</text>
</g>
<!-- Node24&#45;&gt;Node26 -->
<g id="edge54" class="edge"><title>Node24&#45;&gt;Node26</title>
<path fill="none" stroke="midnightblue" d="M1359,-247.032C1401.24,-237.684 1471.46,-222.144 1518.48,-211.739"/>
<polygon fill="midnightblue" stroke="midnightblue" points="1519.42,-215.114 1528.43,-209.536 1517.91,-208.28 1519.42,-215.114"/>
</g>
<!-- Node27&#45;&gt;Node3 -->
<g id="edge62" class="edge"><title>Node27&#45;&gt;Node3</title>
<path fill="none" stroke="midnightblue" d="M290.957,-302.112C312.244,-264.953 400.208,-121.445 518,-67 583.658,-36.6517 1095.87,-36.3481 1168,-31 1210.89,-27.8199 1260.32,-23.0363 1291.84,-19.8433"/>
<polygon fill="midnightblue" stroke="midnightblue" points="1292.21,-23.3233 1301.81,-18.8261 1291.5,-16.3594 1292.21,-23.3233"/>
</g>
<!-- Node27&#45;&gt;Node5 -->
<g id="edge61" class="edge"><title>Node27&#45;&gt;Node5</title>
<path fill="none" stroke="midnightblue" d="M311.158,-302.425C392.06,-274.848 645.655,-188.407 738.5,-156.76"/>
<polygon fill="midnightblue" stroke="midnightblue" points="739.657,-160.063 747.993,-153.524 737.398,-153.438 739.657,-160.063"/>
</g>
<!-- Node27&#45;&gt;Node6 -->
<g id="edge63" class="edge"><title>Node27&#45;&gt;Node6</title>
<path fill="none" stroke="midnightblue" d="M247.349,-305.514C203.347,-298.464 135.31,-284.847 118,-266 78.2983,-222.771 80.7257,-175.73 122,-134 181.266,-74.0803 443.48,-33.6293 537.395,-20.8392"/>
<polygon fill="midnightblue" stroke="midnightblue" points="538.038,-24.2844 547.483,-19.4841 537.106,-17.3467 538.038,-24.2844"/>
</g>
<!-- Node27&#45;&gt;Node7 -->
<g id="edge64" class="edge"><title>Node27&#45;&gt;Node7</title>
<path fill="none" stroke="midnightblue" d="M247.303,-304.983C206.65,-297.778 146.726,-284.345 133,-266 122.466,-251.921 85.8361,-190.636 140,-134 166.792,-105.985 410.048,-91.8149 535.656,-86.3134"/>
<polygon fill="midnightblue" stroke="midnightblue" points="536.122,-89.7966 545.963,-85.8698 535.821,-82.8031 536.122,-89.7966"/>
</g>
<!-- Node27&#45;&gt;Node9 -->
<g id="edge66" class="edge"><title>Node27&#45;&gt;Node9</title>
<path fill="none" stroke="midnightblue" d="M303.102,-302.361C327.796,-289.893 374.88,-266.138 415,-246 514.478,-196.068 532.938,-167.765 639,-134 738.07,-102.461 860.449,-90.293 924.05,-85.858"/>
<polygon fill="midnightblue" stroke="midnightblue" points="924.366,-89.3448 934.111,-85.1873 923.9,-82.3603 924.366,-89.3448"/>
</g>
<!-- Node27&#45;&gt;Node14 -->
<g id="edge69" class="edge"><title>Node27&#45;&gt;Node14</title>
<path fill="none" stroke="midnightblue" d="M324.571,-304.216C380.441,-294.388 483.842,-276.2 544.709,-265.494"/>
<polygon fill="midnightblue" stroke="midnightblue" points="545.585,-268.894 554.828,-263.714 544.373,-262 545.585,-268.894"/>
</g>
<!-- Node27&#45;&gt;Node16 -->
<g id="edge65" class="edge"><title>Node27&#45;&gt;Node16</title>
<path fill="none" stroke="midnightblue" d="M281.376,-302.075C267.722,-275.719 227.395,-197.878 209.15,-162.661"/>
<polygon fill="midnightblue" stroke="midnightblue" points="212.147,-160.837 204.439,-153.568 205.931,-164.057 212.147,-160.837"/>
</g>
<!-- Node28 -->
<g id="node28" class="node"><title>Node28</title>
<g id="a_node28"><a xlink:href="variant_8h.xhtml" target="_top" xlink:title="Extra helper functions for boost::variant. ">
<polygon fill="white" stroke="black" points="142.5,-246.5 142.5,-265.5 219.5,-265.5 219.5,-246.5 142.5,-246.5"/>
<text text-anchor="middle" x="181" y="-253.5" font-family="Helvetica,sans-Serif" font-size="10.00">ext/variant.h</text>
</a>
</g>
</g>
<!-- Node27&#45;&gt;Node28 -->
<g id="edge67" class="edge"><title>Node27&#45;&gt;Node28</title>
<path fill="none" stroke="midnightblue" d="M269.13,-302.324C252.291,-293.664 226.193,-280.242 206.762,-270.249"/>
<polygon fill="midnightblue" stroke="midnightblue" points="208.322,-267.116 197.828,-265.655 205.12,-273.341 208.322,-267.116"/>
</g>
<!-- Node28&#45;&gt;Node16 -->
<g id="edge68" class="edge"><title>Node28&#45;&gt;Node16</title>
<path fill="none" stroke="midnightblue" d="M182.491,-246.368C185.557,-228.617 192.63,-187.666 196.788,-163.597"/>
<polygon fill="midnightblue" stroke="midnightblue" points="200.263,-164.041 198.516,-153.591 193.365,-162.85 200.263,-164.041"/>
</g>
<!-- Node29&#45;&gt;Node3 -->
<g id="edge72" class="edge"><title>Node29&#45;&gt;Node3</title>
<path fill="none" stroke="midnightblue" d="M1816.01,-190.433C1814.03,-181.424 1811.13,-166.805 1810,-154 1809.22,-145.145 1807.86,-142.628 1810,-134 1814.35,-116.439 1824.65,-115.561 1829,-98 1832.31,-84.6264 1838.24,-77.2156 1829,-67 1797.24,-31.9062 1463.03,-20.1469 1356.46,-17.2742"/>
<polygon fill="midnightblue" stroke="midnightblue" points="1356.39,-13.7714 1346.3,-17.009 1356.21,-20.769 1356.39,-13.7714"/>
</g>
<!-- Node29&#45;&gt;Node17 -->
<g id="edge74" class="edge"><title>Node29&#45;&gt;Node17</title>
<path fill="none" stroke="midnightblue" d="M1765.08,-190.444C1701.13,-180.105 1594.44,-162.855 1532.53,-152.846"/>
<polygon fill="midnightblue" stroke="midnightblue" points="1533.05,-149.385 1522.62,-151.244 1531.93,-156.295 1533.05,-149.385"/>
</g>
<!-- Node30 -->
<g id="node30" class="node"><title>Node30</title>
<polygon fill="white" stroke="#bfbfbf" points="1818.5,-134.5 1818.5,-153.5 1911.5,-153.5 1911.5,-134.5 1818.5,-134.5"/>
<text text-anchor="middle" x="1865" y="-141.5" font-family="Helvetica,sans-Serif" font-size="10.00">unordered_map</text>
</g>
<!-- Node29&#45;&gt;Node30 -->
<g id="edge73" class="edge"><title>Node29&#45;&gt;Node30</title>
<path fill="none" stroke="midnightblue" d="M1825.76,-190.083C1832.54,-182.298 1842.54,-170.801 1850.76,-161.367"/>
<polygon fill="midnightblue" stroke="midnightblue" points="1853.46,-163.592 1857.38,-153.751 1848.18,-158.996 1853.46,-163.592"/>
</g>
<!-- Node31&#45;&gt;Node3 -->
<g id="edge77" class="edge"><title>Node31&#45;&gt;Node3</title>
<path fill="none" stroke="midnightblue" d="M1074.37,-302.479C1091.48,-282.699 1135.26,-232.137 1172,-190 1222.52,-132.061 1282.74,-63.4634 1309.7,-32.7657"/>
<polygon fill="midnightblue" stroke="midnightblue" points="1312.42,-34.9751 1316.39,-25.1528 1307.16,-30.3546 1312.42,-34.9751"/>
</g>
<!-- Node31&#45;&gt;Node5 -->
<g id="edge76" class="edge"><title>Node31&#45;&gt;Node5</title>
<path fill="none" stroke="midnightblue" d="M1031.15,-310.648C989.513,-308.561 920.493,-299.741 873,-266 840.432,-242.862 851.053,-220.287 825,-190 815.511,-178.969 803.272,-168.242 793.051,-160.03"/>
<polygon fill="midnightblue" stroke="midnightblue" points="795.079,-157.173 785.045,-153.772 790.768,-162.688 795.079,-157.173"/>
</g>
<!-- Node31&#45;&gt;Node6 -->
<g id="edge79" class="edge"><title>Node31&#45;&gt;Node6</title>
<path fill="none" stroke="midnightblue" d="M1031.76,-302.48C1006.11,-295.271 971.25,-283.32 944,-266 873.713,-221.327 878.2,-183.195 811,-134 759.189,-96.0707 740.737,-95.0977 683,-67 667.645,-59.5276 627.682,-41.6463 599.901,-29.3004"/>
<polygon fill="midnightblue" stroke="midnightblue" points="601.204,-26.0491 590.644,-25.1906 598.363,-32.447 601.204,-26.0491"/>
</g>
<!-- Node31&#45;&gt;Node7 -->
<g id="edge80" class="edge"><title>Node31&#45;&gt;Node7</title>
<path fill="none" stroke="midnightblue" d="M1031.14,-308.506C986.656,-304.328 909.317,-293.467 849,-266 753.589,-222.552 660.802,-134.971 625.23,-99.2297"/>
<polygon fill="midnightblue" stroke="midnightblue" points="627.674,-96.7232 618.165,-92.0514 622.685,-101.634 627.674,-96.7232"/>
</g>
<!-- Node31&#45;&gt;Node9 -->
<g id="edge82" class="edge"><title>Node31&#45;&gt;Node9</title>
<path fill="none" stroke="midnightblue" d="M1068.46,-302.383C1070.28,-289.74 1072.53,-265.545 1067,-246 1050.23,-186.752 1005.09,-127.87 981.622,-100.06"/>
<polygon fill="midnightblue" stroke="midnightblue" points="984.002,-97.4594 974.827,-92.1611 978.695,-102.025 984.002,-97.4594"/>
</g>
<!-- Node31&#45;&gt;Node15 -->
<g id="edge83" class="edge"><title>Node31&#45;&gt;Node15</title>
<path fill="none" stroke="midnightblue" d="M1066.34,-302.164C1064.94,-288.81 1060.7,-263.223 1048,-246 1038.03,-232.483 1022.7,-221.831 1009.12,-214.291"/>
<polygon fill="midnightblue" stroke="midnightblue" points="1010.57,-211.097 1000.08,-209.571 1007.33,-217.302 1010.57,-211.097"/>
</g>
<!-- Node31&#45;&gt;Node24 -->
<g id="edge81" class="edge"><title>Node31&#45;&gt;Node24</title>
<path fill="none" stroke="midnightblue" d="M1102.6,-303.492C1148.1,-293.894 1226.95,-277.26 1276.97,-266.709"/>
<polygon fill="midnightblue" stroke="midnightblue" points="1277.82,-270.107 1286.88,-264.619 1276.37,-263.258 1277.82,-270.107"/>
</g>
<!-- Node32 -->
<g id="node32" class="node"><title>Node32</title>
<polygon fill="white" stroke="#bfbfbf" points="953,-246.5 953,-265.5 1039,-265.5 1039,-246.5 953,-246.5"/>
<text text-anchor="middle" x="996" y="-253.5" font-family="Helvetica,sans-Serif" font-size="10.00">unordered_set</text>
</g>
<!-- Node31&#45;&gt;Node32 -->
<g id="edge78" class="edge"><title>Node31&#45;&gt;Node32</title>
<path fill="none" stroke="midnightblue" d="M1055.59,-302.324C1044.89,-294.185 1028.66,-281.839 1015.84,-272.087"/>
<polygon fill="midnightblue" stroke="midnightblue" points="1017.69,-269.102 1007.61,-265.834 1013.46,-274.673 1017.69,-269.102"/>
</g>
<!-- Node31&#45;&gt;Node33 -->
<g id="edge84" class="edge"><title>Node31&#45;&gt;Node33</title>
<path fill="none" stroke="midnightblue" d="M1089.29,-302.41C1108.28,-294.515 1135.78,-281.675 1157,-266 1175.9,-252.032 1194.04,-231.981 1205.76,-217.851"/>
<polygon fill="midnightblue" stroke="midnightblue" points="1208.6,-219.9 1212.18,-209.926 1203.16,-215.495 1208.6,-219.9"/>
</g>
<!-- Node33&#45;&gt;Node3 -->
<g id="edge87" class="edge"><title>Node33&#45;&gt;Node3</title>
<path fill="none" stroke="midnightblue" d="M1228.02,-190.436C1237.06,-181.665 1251.14,-167.45 1262,-154 1280.9,-130.601 1287.15,-125.197 1300,-98 1309.62,-77.6277 1316.31,-52.5507 1320.13,-35.6365"/>
<polygon fill="midnightblue" stroke="midnightblue" points="1323.66,-35.9 1322.33,-25.3889 1316.81,-34.4349 1323.66,-35.9"/>
</g>
<!-- Node33&#45;&gt;Node5 -->
<g id="edge86" class="edge"><title>Node33&#45;&gt;Node5</title>
<path fill="none" stroke="midnightblue" d="M1180.97,-194.396C1096.95,-184.223 896.246,-159.922 811.65,-149.68"/>
<polygon fill="midnightblue" stroke="midnightblue" points="812.035,-146.201 801.687,-148.473 811.194,-153.15 812.035,-146.201"/>
</g>
<!-- Node33&#45;&gt;Node9 -->
<g id="edge88" class="edge"><title>Node33&#45;&gt;Node9</title>
<path fill="none" stroke="midnightblue" d="M1206.37,-190.335C1186.52,-176.98 1146.5,-151.123 1110,-134 1075.99,-118.047 1035.47,-104.19 1006.26,-95.0479"/>
<polygon fill="midnightblue" stroke="midnightblue" points="1007.02,-91.6187 996.432,-92.0151 1004.96,-98.3076 1007.02,-91.6187"/>
</g>
<!-- Node33&#45;&gt;Node10 -->
<g id="edge85" class="edge"><title>Node33&#45;&gt;Node10</title>
<path fill="none" stroke="midnightblue" d="M1214.9,-190.198C1201.74,-161.952 1160.41,-73.2001 1142.46,-34.6606"/>
<polygon fill="midnightblue" stroke="midnightblue" points="1145.45,-32.8013 1138.06,-25.214 1139.11,-35.7568 1145.45,-32.8013"/>
</g>
<!-- Node33&#45;&gt;Node17 -->
<g id="edge89" class="edge"><title>Node33&#45;&gt;Node17</title>
<path fill="none" stroke="midnightblue" d="M1257.25,-191.206C1304.28,-181.622 1384.16,-165.345 1435.47,-154.89"/>
<polygon fill="midnightblue" stroke="midnightblue" points="1436.23,-158.306 1445.33,-152.88 1434.83,-151.447 1436.23,-158.306"/>
</g>
</g>
</svg>
